{
 "asset": {
  "generator": "Khronos glTF Blender I/O v5.2.40",
  "version": "2.0",
  "extras": {
   "exported_by": "blender/tools/export_building_kit.py",
   "module_scale": 1.0
  }
 },
 "scene": 0,
 "scenes": [
  {
   "name": "library",
   "nodes": [
    0
   ]
  }
 ],
 "nodes": [
  {
   "extras": {
    "edit_note": "Interior PLACEHOLDER (blender/tools/library_interiors.py), ours (CC0): replace by hand, keeping the frame (Z up, origin at the footprint centre on the floor, the side a person uses facing -Y) and the size, which the buildings' layouts assume. Copies of this mesh live in kits/shops/*.blend and kits/interiors/*.blend: re-run blender/tools/build_interior_blends.py / build_shop_blends.py only for a building nobody edited."
   },
   "mesh": 0,
   "name": "Hosp_WaitingBench"
  }
 ],
 "materials": [
  {
   "doubleSided": true,
   "name": "MI_Steel",
   "pbrMetallicRoughness": {
    "baseColorFactor": [
     0.5726980566978455,
     0.5820889472961426,
     0.5955169796943665,
     1
    ],
    "roughnessFactor": 0.699999988079071
   }
  },
  {
   "doubleSided": true,
   "name": "MI_Fabric",
   "pbrMetallicRoughness": {
    "baseColorFactor": [
     0.3585456907749176,
     0.35632404685020447,
     0.3589908480644226,
     1
    ],
    "metallicFactor": 0,
    "roughnessFactor": 0.699999988079071
   }
  }
 ],
 "meshes": [
  {
   "name": "Hosp_WaitingBench",
   "primitives": [
    {
     "attributes": {
      "POSITION": 0,
      "NORMAL": 1
     },
     "indices": 2,
     "material": 0
    },
    {
     "attributes": {
      "POSITION": 3,
      "NORMAL": 4
     },
     "indices": 5,
     "material": 1
    }
   ]
  }
 ],
 "accessors": [
  {
   "bufferView": 0,
   "componentType": 5126,
   "count": 24,
   "max": [
    1.100000023841858,
    0.4000000059604645,
    0.05000000074505806
   ],
   "min": [
    -1.100000023841858,
    0,
    -0.05000000074505806
   ],
   "type": "VEC3"
  },
  {
   "bufferView": 1,
   "componentType": 5126,
   "count": 24,
   "type": "VEC3"
  },
  {
   "bufferView": 2,
   "componentType": 5123,
   "count": 36,
   "type": "SCALAR"
  },
  {
   "bufferView": 3,
   "componentType": 5126,
   "count": 184,
   "max": [
    1.0750000476837158,
    0.8500000238418579,
    0.2800000011920929
   ],
   "min": [
    -1.0750000476837158,
    0.4000000059604645,
    -0.2800000011920929
   ],
   "type": "VEC3"
  },
  {
   "bufferView": 4,
   "componentType": 5126,
   "count": 184,
   "type": "VEC3"
  },
  {
   "bufferView": 5,
   "componentType": 5123,
   "count": 288,
   "type": "SCALAR"
  }
 ],
 "bufferViews": [
  {
   "buffer": 0,
   "byteLength": 288,
   "byteOffset": 0,
   "target": 34962
  },
  {
   "buffer": 0,
   "byteLength": 288,
   "byteOffset": 288,
   "target": 34962
  },
  {
   "buffer": 0,
   "byteLength": 72,
   "byteOffset": 576,
   "target": 34963
  },
  {
   "buffer": 0,
   "byteLength": 2208,
   "byteOffset": 648,
   "target": 34962
  },
  {
   "buffer": 0,
   "byteLength": 2208,
   "byteOffset": 2856,
   "target": 34962
  },
  {
   "buffer": 0,
   "byteLength": 576,
   "byteOffset": 5064,
   "target": 34963
  }
 ],
 "buffers": [
  {
   "byteLength": 5640,
   "uri": "Hosp_WaitingBench.bin"
  }
 ]
}
