{
 "asset": {
  "generator": "Khronos glTF Blender I/O v5.2.40",
  "version": "2.0",
  "extras": {
   "exported_by": "blender/tools/export_building_kit.py",
   "module_scale": 1.0
  }
 },
 "scene": 0,
 "scenes": [
  {
   "name": "library",
   "nodes": [
    0
   ]
  }
 ],
 "nodes": [
  {
   "extras": {
    "edit_note": "Interior PLACEHOLDER (blender/tools/library_interiors.py), ours (CC0): replace by hand, keeping the frame (Z up, origin at the footprint centre on the floor, the side a person uses facing -Y) and the size, which the buildings' layouts assume. Copies of this mesh live in kits/shops/*.blend and kits/interiors/*.blend: re-run blender/tools/build_interior_blends.py / build_shop_blends.py only for a building nobody edited."
   },
   "mesh": 0,
   "name": "Hosp_NurseStation"
  }
 ],
 "materials": [
  {
   "doubleSided": true,
   "name": "MI_PlasticWhite",
   "pbrMetallicRoughness": {
    "baseColorFactor": [
     0.9300000071525574,
     0.9300000071525574,
     0.9100000262260437,
     1
    ],
    "metallicFactor": 0,
    "roughnessFactor": 0.30000001192092896
   }
  },
  {
   "doubleSided": true,
   "name": "MI_Wood",
   "pbrMetallicRoughness": {
    "baseColorFactor": [
     0.6217582821846008,
     0.4432729184627533,
     0.2785278260707855,
     1
    ],
    "metallicFactor": 0,
    "roughnessFactor": 0.699999988079071
   }
  },
  {
   "doubleSided": true,
   "name": "MI_PlasticDark",
   "pbrMetallicRoughness": {
    "baseColorFactor": [
     0.11999999731779099,
     0.11999999731779099,
     0.12999999523162842,
     1
    ],
    "metallicFactor": 0,
    "roughnessFactor": 0.6000000238418579
   }
  }
 ],
 "meshes": [
  {
   "name": "Hosp_NurseStation",
   "primitives": [
    {
     "attributes": {
      "POSITION": 0,
      "NORMAL": 1
     },
     "indices": 2,
     "material": 0
    },
    {
     "attributes": {
      "POSITION": 3,
      "NORMAL": 4
     },
     "indices": 5,
     "material": 1
    },
    {
     "attributes": {
      "POSITION": 6,
      "NORMAL": 7
     },
     "indices": 5,
     "material": 2
    }
   ]
  }
 ],
 "accessors": [
  {
   "bufferView": 0,
   "componentType": 5126,
   "count": 68,
   "max": [
    1.7999999523162842,
    1.0499999523162842,
    0.4000000059604645
   ],
   "min": [
    -1.7999999523162842,
    0,
    -0.4000000059604645
   ],
   "type": "VEC3"
  },
  {
   "bufferView": 1,
   "componentType": 5126,
   "count": 68,
   "type": "VEC3"
  },
  {
   "bufferView": 2,
   "componentType": 5123,
   "count": 108,
   "type": "SCALAR"
  },
  {
   "bufferView": 3,
   "componentType": 5126,
   "count": 48,
   "max": [
    1.850000023841858,
    1.0499999523162842,
    0.44999998807907104
   ],
   "min": [
    -1.850000023841858,
    0.6800000071525574,
    -0.4000000059604645
   ],
   "type": "VEC3"
  },
  {
   "bufferView": 4,
   "componentType": 5126,
   "count": 48,
   "type": "VEC3"
  },
  {
   "bufferView": 5,
   "componentType": 5123,
   "count": 72,
   "type": "SCALAR"
  },
  {
   "bufferView": 6,
   "componentType": 5126,
   "count": 48,
   "max": [
    1.149999976158142,
    1.0499999523162842,
    -0.10000000149011612
   ],
   "min": [
    -1.149999976158142,
    0.7200000286102295,
    -0.14000000059604645
   ],
   "type": "VEC3"
  },
  {
   "bufferView": 7,
   "componentType": 5126,
   "count": 48,
   "type": "VEC3"
  }
 ],
 "bufferViews": [
  {
   "buffer": 0,
   "byteLength": 816,
   "byteOffset": 0,
   "target": 34962
  },
  {
   "buffer": 0,
   "byteLength": 816,
   "byteOffset": 816,
   "target": 34962
  },
  {
   "buffer": 0,
   "byteLength": 216,
   "byteOffset": 1632,
   "target": 34963
  },
  {
   "buffer": 0,
   "byteLength": 576,
   "byteOffset": 1848,
   "target": 34962
  },
  {
   "buffer": 0,
   "byteLength": 576,
   "byteOffset": 2424,
   "target": 34962
  },
  {
   "buffer": 0,
   "byteLength": 144,
   "byteOffset": 3000,
   "target": 34963
  },
  {
   "buffer": 0,
   "byteLength": 576,
   "byteOffset": 3144,
   "target": 34962
  },
  {
   "buffer": 0,
   "byteLength": 576,
   "byteOffset": 3720,
   "target": 34962
  }
 ],
 "buffers": [
  {
   "byteLength": 4296,
   "uri": "Hosp_NurseStation.bin"
  }
 ]
}
