{
 "asset": {
  "generator": "Khronos glTF Blender I/O v5.2.40",
  "version": "2.0",
  "extras": {
   "exported_by": "blender/tools/export_building_kit.py",
   "module_scale": 1.0
  }
 },
 "scene": 0,
 "scenes": [
  {
   "name": "library",
   "nodes": [
    0
   ]
  }
 ],
 "nodes": [
  {
   "extras": {
    "edit_note": "Placeholder, ours (CC0). Keep the frame: Z up, origin at the footprint centre on the ground, the side a person uses facing -Y; real size in metres. After editing: tools/building_kit/build_buildings.sh."
   },
   "mesh": 0,
   "name": "Kitchen_PrepTable"
  }
 ],
 "materials": [
  {
   "doubleSided": true,
   "name": "MI_Steel",
   "pbrMetallicRoughness": {
    "baseColorFactor": [
     0.5726980566978455,
     0.5820889472961426,
     0.5955169796943665,
     1
    ],
    "roughnessFactor": 0.699999988079071
   }
  },
  {
   "doubleSided": true,
   "name": "MI_Goods",
   "pbrMetallicRoughness": {
    "baseColorFactor": [
     0.4877031445503235,
     0.42102864384651184,
     0.38213247060775757,
     1
    ],
    "metallicFactor": 0,
    "roughnessFactor": 0.5
   }
  }
 ],
 "meshes": [
  {
   "name": "Kitchen_PrepTable",
   "primitives": [
    {
     "attributes": {
      "POSITION": 0,
      "NORMAL": 1
     },
     "indices": 2,
     "material": 0
    },
    {
     "attributes": {
      "POSITION": 3,
      "NORMAL": 4
     },
     "indices": 5,
     "material": 1
    }
   ]
  }
 ],
 "accessors": [
  {
   "bufferView": 0,
   "componentType": 5126,
   "count": 144,
   "max": [
    0.8999999761581421,
    0.8500000238418579,
    0.375
   ],
   "min": [
    -0.8999999761581421,
    0,
    -0.375
   ],
   "type": "VEC3"
  },
  {
   "bufferView": 1,
   "componentType": 5126,
   "count": 144,
   "type": "VEC3"
  },
  {
   "bufferView": 2,
   "componentType": 5123,
   "count": 216,
   "type": "SCALAR"
  },
  {
   "bufferView": 3,
   "componentType": 5126,
   "count": 24,
   "max": [
    0.6000000238418579,
    0.44999998807907104,
    0.25
   ],
   "min": [
    -0.699999988079071,
    0.18000000715255737,
    -0.25
   ],
   "type": "VEC3"
  },
  {
   "bufferView": 4,
   "componentType": 5126,
   "count": 24,
   "type": "VEC3"
  },
  {
   "bufferView": 5,
   "componentType": 5123,
   "count": 36,
   "type": "SCALAR"
  }
 ],
 "bufferViews": [
  {
   "buffer": 0,
   "byteLength": 1728,
   "byteOffset": 0,
   "target": 34962
  },
  {
   "buffer": 0,
   "byteLength": 1728,
   "byteOffset": 1728,
   "target": 34962
  },
  {
   "buffer": 0,
   "byteLength": 432,
   "byteOffset": 3456,
   "target": 34963
  },
  {
   "buffer": 0,
   "byteLength": 288,
   "byteOffset": 3888,
   "target": 34962
  },
  {
   "buffer": 0,
   "byteLength": 288,
   "byteOffset": 4176,
   "target": 34962
  },
  {
   "buffer": 0,
   "byteLength": 72,
   "byteOffset": 4464,
   "target": 34963
  }
 ],
 "buffers": [
  {
   "byteLength": 4536,
   "uri": "Kitchen_PrepTable.bin"
  }
 ]
}
