{
 "asset": {
  "generator": "Khronos glTF Blender I/O v5.2.40",
  "version": "2.0",
  "extras": {
   "exported_by": "blender/tools/export_building_kit.py",
   "module_scale": 1.0
  }
 },
 "scene": 0,
 "scenes": [
  {
   "name": "library",
   "nodes": [
    0
   ]
  }
 ],
 "nodes": [
  {
   "extras": {
    "edit_note": "Interior PLACEHOLDER (blender/tools/library_interiors.py), ours (CC0): replace by hand, keeping the frame (Z up, origin at the footprint centre on the floor, the side a person uses facing -Y) and the size, which the buildings' layouts assume. Copies of this mesh live in kits/shops/*.blend and kits/interiors/*.blend: re-run blender/tools/build_interior_blends.py / build_shop_blends.py only for a building nobody edited."
   },
   "mesh": 0,
   "name": "Office_Sofa"
  }
 ],
 "materials": [
  {
   "doubleSided": true,
   "name": "MI_Fabric",
   "pbrMetallicRoughness": {
    "baseColorFactor": [
     0.3585456907749176,
     0.35632404685020447,
     0.3589908480644226,
     1
    ],
    "metallicFactor": 0,
    "roughnessFactor": 0.699999988079071
   }
  }
 ],
 "meshes": [
  {
   "name": "Office_Sofa",
   "primitives": [
    {
     "attributes": {
      "POSITION": 0,
      "NORMAL": 1
     },
     "indices": 2,
     "material": 0
    }
   ]
  }
 ],
 "accessors": [
  {
   "bufferView": 0,
   "componentType": 5126,
   "count": 82,
   "max": [
    0.8999999761581421,
    0.800000011920929,
    0.41999998688697815
   ],
   "min": [
    -0.8999999761581421,
    0,
    -0.41999998688697815
   ],
   "type": "VEC3"
  },
  {
   "bufferView": 1,
   "componentType": 5126,
   "count": 82,
   "type": "VEC3"
  },
  {
   "bufferView": 2,
   "componentType": 5123,
   "count": 144,
   "type": "SCALAR"
  }
 ],
 "bufferViews": [
  {
   "buffer": 0,
   "byteLength": 984,
   "byteOffset": 0,
   "target": 34962
  },
  {
   "buffer": 0,
   "byteLength": 984,
   "byteOffset": 984,
   "target": 34962
  },
  {
   "buffer": 0,
   "byteLength": 288,
   "byteOffset": 1968,
   "target": 34963
  }
 ],
 "buffers": [
  {
   "byteLength": 2256,
   "uri": "Office_Sofa.bin"
  }
 ]
}
