{
 "asset": {
  "generator": "Khronos glTF Blender I/O v5.2.40",
  "version": "2.0",
  "extras": {
   "exported_by": "blender/tools/export_building_kit.py",
   "module_scale": 1.0
  }
 },
 "extensionsUsed": [
  "KHR_materials_emissive_strength"
 ],
 "scene": 0,
 "scenes": [
  {
   "name": "library",
   "nodes": [
    0
   ]
  }
 ],
 "nodes": [
  {
   "extras": {
    "edit_note": "Placeholder, ours (CC0). Keep the frame: Z up, origin at the footprint centre on the ground, the side a person uses facing -Y; real size in metres. After editing: tools/building_kit/build_buildings.sh."
   },
   "mesh": 0,
   "name": "Shop_OpenCase"
  }
 ],
 "materials": [
  {
   "doubleSided": true,
   "name": "MI_PaintedMetal",
   "pbrMetallicRoughness": {
    "baseColorFactor": [
     0.8999999761581421,
     0.8999999761581421,
     0.8899999856948853,
     1
    ],
    "metallicFactor": 0.30000001192092896,
    "roughnessFactor": 0.699999988079071
   }
  },
  {
   "doubleSided": true,
   "name": "MI_PaintedMetalDark",
   "pbrMetallicRoughness": {
    "baseColorFactor": [
     0.1599999964237213,
     0.17000000178813934,
     0.18000000715255737,
     1
    ],
    "metallicFactor": 0.4000000059604645,
    "roughnessFactor": 0.699999988079071
   }
  },
  {
   "doubleSided": true,
   "emissiveFactor": [
    1,
    0.9800000190734863,
    0.9399999976158142
   ],
   "extensions": {
    "KHR_materials_emissive_strength": {
     "emissiveStrength": 2
    }
   },
   "name": "MI_Light",
   "pbrMetallicRoughness": {
    "baseColorFactor": [
     1,
     1,
     0.9700000286102295,
     1
    ],
    "metallicFactor": 0,
    "roughnessFactor": 0.699999988079071
   }
  },
  {
   "doubleSided": true,
   "name": "MI_Steel",
   "pbrMetallicRoughness": {
    "baseColorFactor": [
     0.5726980566978455,
     0.5820889472961426,
     0.5955169796943665,
     1
    ],
    "roughnessFactor": 0.699999988079071
   }
  },
  {
   "doubleSided": true,
   "name": "MI_Goods",
   "pbrMetallicRoughness": {
    "baseColorFactor": [
     0.4877031445503235,
     0.42102864384651184,
     0.38213247060775757,
     1
    ],
    "metallicFactor": 0,
    "roughnessFactor": 0.5
   }
  },
  {
   "doubleSided": true,
   "emissiveFactor": [
    0.0600000032782555,
    0.15000000596046448,
    0.30000001192092896
   ],
   "name": "MI_Sign",
   "pbrMetallicRoughness": {
    "baseColorFactor": [
     0.11999999731779099,
     0.30000001192092896,
     0.550000011920929,
     1
    ],
    "metallicFactor": 0,
    "roughnessFactor": 0.699999988079071
   }
  }
 ],
 "meshes": [
  {
   "name": "Shop_OpenCase",
   "primitives": [
    {
     "attributes": {
      "POSITION": 0,
      "NORMAL": 1
     },
     "indices": 2,
     "material": 0
    },
    {
     "attributes": {
      "POSITION": 3,
      "NORMAL": 4
     },
     "indices": 5,
     "material": 1
    },
    {
     "attributes": {
      "POSITION": 6,
      "NORMAL": 7
     },
     "indices": 8,
     "material": 2
    },
    {
     "attributes": {
      "POSITION": 9,
      "NORMAL": 10
     },
     "indices": 11,
     "material": 3
    },
    {
     "attributes": {
      "POSITION": 12,
      "NORMAL": 13
     },
     "indices": 11,
     "material": 4
    },
    {
     "attributes": {
      "POSITION": 14,
      "NORMAL": 15
     },
     "indices": 8,
     "material": 5
    }
   ]
  }
 ],
 "accessors": [
  {
   "bufferView": 0,
   "componentType": 5126,
   "count": 78,
   "max": [
    0.9100000262260437,
    2,
    0.42500001192092896
   ],
   "min": [
    -0.9100000262260437,
    0,
    -0.42500001192092896
   ],
   "type": "VEC3"
  },
  {
   "bufferView": 1,
   "componentType": 5126,
   "count": 78,
   "type": "VEC3"
  },
  {
   "bufferView": 2,
   "componentType": 5123,
   "count": 144,
   "type": "SCALAR"
  },
  {
   "bufferView": 3,
   "componentType": 5126,
   "count": 24,
   "max": [
    0.9100000262260437,
    0.44999998807907104,
    0.42500001192092896
   ],
   "min": [
    -0.9100000262260437,
    0,
    -0.42500001192092896
   ],
   "type": "VEC3"
  },
  {
   "bufferView": 4,
   "componentType": 5126,
   "count": 24,
   "type": "VEC3"
  },
  {
   "bufferView": 5,
   "componentType": 5123,
   "count": 36,
   "type": "SCALAR"
  },
  {
   "bufferView": 6,
   "componentType": 5126,
   "count": 24,
   "max": [
    0.8600000143051147,
    1.7999999523162842,
    0.20499999821186066
   ],
   "min": [
    -0.8600000143051147,
    1.7799999713897705,
    0.125
   ],
   "type": "VEC3"
  },
  {
   "bufferView": 7,
   "componentType": 5126,
   "count": 24,
   "type": "VEC3"
  },
  {
   "bufferView": 8,
   "componentType": 5123,
   "count": 36,
   "type": "SCALAR"
  },
  {
   "bufferView": 9,
   "componentType": 5126,
   "count": 96,
   "max": [
    0.8700000047683716,
    1.5499999523162842,
    0.42500001192092896
   ],
   "min": [
    -0.8700000047683716,
    0.44999998807907104,
    -0.3449999988079071
   ],
   "type": "VEC3"
  },
  {
   "bufferView": 10,
   "componentType": 5126,
   "count": 96,
   "type": "VEC3"
  },
  {
   "bufferView": 11,
   "componentType": 5123,
   "count": 144,
   "type": "SCALAR"
  },
  {
   "bufferView": 12,
   "componentType": 5126,
   "count": 96,
   "max": [
    0.8500000238418579,
    1.7200000286102295,
    0.38499999046325684
   ],
   "min": [
    -0.8500000238418579,
    0.47999998927116394,
    -0.3050000071525574
   ],
   "type": "VEC3"
  },
  {
   "bufferView": 13,
   "componentType": 5126,
   "count": 96,
   "type": "VEC3"
  },
  {
   "bufferView": 14,
   "componentType": 5126,
   "count": 24,
   "max": [
    0.9100000262260437,
    0.5,
    0.4350000023841858
   ],
   "min": [
    -0.9100000262260437,
    0.41999998688697815,
    0.4050000011920929
   ],
   "type": "VEC3"
  },
  {
   "bufferView": 15,
   "componentType": 5126,
   "count": 24,
   "type": "VEC3"
  }
 ],
 "bufferViews": [
  {
   "buffer": 0,
   "byteLength": 936,
   "byteOffset": 0,
   "target": 34962
  },
  {
   "buffer": 0,
   "byteLength": 936,
   "byteOffset": 936,
   "target": 34962
  },
  {
   "buffer": 0,
   "byteLength": 288,
   "byteOffset": 1872,
   "target": 34963
  },
  {
   "buffer": 0,
   "byteLength": 288,
   "byteOffset": 2160,
   "target": 34962
  },
  {
   "buffer": 0,
   "byteLength": 288,
   "byteOffset": 2448,
   "target": 34962
  },
  {
   "buffer": 0,
   "byteLength": 72,
   "byteOffset": 2736,
   "target": 34963
  },
  {
   "buffer": 0,
   "byteLength": 288,
   "byteOffset": 2808,
   "target": 34962
  },
  {
   "buffer": 0,
   "byteLength": 288,
   "byteOffset": 3096,
   "target": 34962
  },
  {
   "buffer": 0,
   "byteLength": 72,
   "byteOffset": 3384,
   "target": 34963
  },
  {
   "buffer": 0,
   "byteLength": 1152,
   "byteOffset": 3456,
   "target": 34962
  },
  {
   "buffer": 0,
   "byteLength": 1152,
   "byteOffset": 4608,
   "target": 34962
  },
  {
   "buffer": 0,
   "byteLength": 288,
   "byteOffset": 5760,
   "target": 34963
  },
  {
   "buffer": 0,
   "byteLength": 1152,
   "byteOffset": 6048,
   "target": 34962
  },
  {
   "buffer": 0,
   "byteLength": 1152,
   "byteOffset": 7200,
   "target": 34962
  },
  {
   "buffer": 0,
   "byteLength": 288,
   "byteOffset": 8352,
   "target": 34962
  },
  {
   "buffer": 0,
   "byteLength": 288,
   "byteOffset": 8640,
   "target": 34962
  }
 ],
 "buffers": [
  {
   "byteLength": 8928,
   "uri": "Shop_OpenCase.bin"
  }
 ]
}
