{
 "asset": {
  "generator": "Khronos glTF Blender I/O v5.2.40",
  "version": "2.0",
  "extras": {
   "exported_by": "blender/tools/export_building_kit.py",
   "module_scale": 1.0
  }
 },
 "scene": 0,
 "scenes": [
  {
   "name": "library",
   "nodes": [
    0
   ]
  }
 ],
 "nodes": [
  {
   "mesh": 0,
   "name": "Shop_Gondola"
  }
 ],
 "materials": [
  {
   "doubleSided": true,
   "name": "MI_PaintedMetal",
   "pbrMetallicRoughness": {
    "baseColorFactor": [
     0.8999999761581421,
     0.8999999761581421,
     0.8899999856948853,
     1
    ],
    "metallicFactor": 0.30000001192092896,
    "roughnessFactor": 0.699999988079071
   }
  },
  {
   "doubleSided": true,
   "name": "MI_Goods",
   "pbrMetallicRoughness": {
    "baseColorFactor": [
     0.4877031445503235,
     0.42102864384651184,
     0.38213247060775757,
     1
    ],
    "metallicFactor": 0,
    "roughnessFactor": 0.5
   }
  }
 ],
 "meshes": [
  {
   "name": "Shop_Gondola",
   "primitives": [
    {
     "attributes": {
      "POSITION": 0,
      "NORMAL": 1,
      "TEXCOORD_0": 2
     },
     "indices": 3,
     "material": 0
    },
    {
     "attributes": {
      "POSITION": 4,
      "NORMAL": 5,
      "TEXCOORD_0": 6
     },
     "indices": 7,
     "material": 1
    }
   ]
  }
 ],
 "accessors": [
  {
   "bufferView": 0,
   "componentType": 5126,
   "count": 786,
   "max": [
    1.4201796054840088,
    1.3217483758926392,
    0.3704400062561035
   ],
   "min": [
    -1.420180320739746,
    0,
    -0.3704395294189453
   ],
   "type": "VEC3"
  },
  {
   "bufferView": 1,
   "componentType": 5126,
   "count": 786,
   "type": "VEC3"
  },
  {
   "bufferView": 2,
   "componentType": 5126,
   "count": 786,
   "type": "VEC2"
  },
  {
   "bufferView": 3,
   "componentType": 5123,
   "count": 1512,
   "type": "SCALAR"
  },
  {
   "bufferView": 4,
   "componentType": 5126,
   "count": 256,
   "max": [
    1.3725919723510742,
    1.4000000953674316,
    0.33359336853027344
   ],
   "min": [
    -1.3713135719299316,
    0.06398238986730576,
    -0.33110523223876953
   ],
   "type": "VEC3"
  },
  {
   "bufferView": 5,
   "componentType": 5126,
   "count": 256,
   "type": "VEC3"
  },
  {
   "bufferView": 6,
   "componentType": 5126,
   "count": 256,
   "type": "VEC2"
  },
  {
   "bufferView": 7,
   "componentType": 5123,
   "count": 384,
   "type": "SCALAR"
  }
 ],
 "bufferViews": [
  {
   "buffer": 0,
   "byteLength": 9432,
   "byteOffset": 0,
   "target": 34962
  },
  {
   "buffer": 0,
   "byteLength": 9432,
   "byteOffset": 9432,
   "target": 34962
  },
  {
   "buffer": 0,
   "byteLength": 6288,
   "byteOffset": 18864,
   "target": 34962
  },
  {
   "buffer": 0,
   "byteLength": 3024,
   "byteOffset": 25152,
   "target": 34963
  },
  {
   "buffer": 0,
   "byteLength": 3072,
   "byteOffset": 28176,
   "target": 34962
  },
  {
   "buffer": 0,
   "byteLength": 3072,
   "byteOffset": 31248,
   "target": 34962
  },
  {
   "buffer": 0,
   "byteLength": 2048,
   "byteOffset": 34320,
   "target": 34962
  },
  {
   "buffer": 0,
   "byteLength": 768,
   "byteOffset": 36368,
   "target": 34963
  }
 ],
 "buffers": [
  {
   "byteLength": 37136,
   "uri": "Shop_Gondola.bin"
  }
 ]
}
