{
 "asset": {
  "generator": "Khronos glTF Blender I/O v5.2.40",
  "version": "2.0",
  "extras": {
   "exported_by": "blender/tools/export_building_kit.py",
   "module_scale": 1.0
  }
 },
 "extensionsUsed": [
  "KHR_materials_emissive_strength"
 ],
 "scene": 0,
 "scenes": [
  {
   "name": "OnsenRyokan",
   "nodes": [
    0,
    1,
    2,
    3,
    4,
    5,
    6,
    7,
    8,
    9,
    10,
    11,
    12,
    13,
    14,
    15,
    16,
    17,
    18,
    19,
    20,
    21,
    22,
    23,
    24,
    25,
    26,
    27,
    28
   ]
  }
 ],
 "nodes": [
  {
   "extras": {
    "edit_note": "A mission building (blender/tools/build_interior_blends.py, seed blender/tools/interior_plans.py): a PLACEHOLDER shell and fit-out at its real Japanese size -- remodel freely. Keep the frame (origin = plot centre on the ground, street -Y), the floor levels, and move the Empties with what they belong to: DOOR_ (interior door, arrow OUT of the room), EXIT_ (outer door, arrow out of the building), LIFT_ (a lift: shaft floor centre at the low stop; stops / faces), MARK_ (a mission marker: kind weapon / spawn / cover ...). Keep 1.2 m clear both sides of every door. After editing: tools/building_kit/build_buildings.sh. \u6e29\u6cc9\u65c5\u9928 (a hot-spring inn in the snow mountains): two storeys 36 x 20 m -- the \u7384\u95a2 (shoes off: doma, \u4e0b\u8db3\u7bb1, agarikamachi), the \u5e33\u5834, the lobby and the \u58f2\u5e97; the \u5927\u6d74\u5834 split \u7537\u6e6f / \u5973\u6e6f behind noren (\u8131\u8863\u6240, a hinoki \u5185\u6e6f, the wash row) with doors out to two fenced \u9732\u5929\u98a8\u5442 in the snow; the \u5bb4\u4f1a\u5834 and the kitchen; upstairs eleven \u548c\u5ba4 guest rooms; snow on the roof and along the drive. The baths are sunk into the floor (a 0.2 m rim, a seat ledge) and their water is a MARK_water surface drawn with the onsen water shader -- no collider, a body wades in."
   },
   "mesh": 0,
   "name": "Facade"
  },
  {
   "extras": {
    "edit_note": "A mission building (blender/tools/build_interior_blends.py, seed blender/tools/interior_plans.py): a PLACEHOLDER shell and fit-out at its real Japanese size -- remodel freely. Keep the frame (origin = plot centre on the ground, street -Y), the floor levels, and move the Empties with what they belong to: DOOR_ (interior door, arrow OUT of the room), EXIT_ (outer door, arrow out of the building), LIFT_ (a lift: shaft floor centre at the low stop; stops / faces), MARK_ (a mission marker: kind weapon / spawn / cover ...). Keep 1.2 m clear both sides of every door. After editing: tools/building_kit/build_buildings.sh. \u6e29\u6cc9\u65c5\u9928 (a hot-spring inn in the snow mountains): two storeys 36 x 20 m -- the \u7384\u95a2 (shoes off: doma, \u4e0b\u8db3\u7bb1, agarikamachi), the \u5e33\u5834, the lobby and the \u58f2\u5e97; the \u5927\u6d74\u5834 split \u7537\u6e6f / \u5973\u6e6f behind noren (\u8131\u8863\u6240, a hinoki \u5185\u6e6f, the wash row) with doors out to two fenced \u9732\u5929\u98a8\u5442 in the snow; the \u5bb4\u4f1a\u5834 and the kitchen; upstairs eleven \u548c\u5ba4 guest rooms; snow on the roof and along the drive. The baths are sunk into the floor (a 0.2 m rim, a seat ledge) and their water is a MARK_water surface drawn with the onsen water shader -- no collider, a body wades in."
   },
   "mesh": 1,
   "name": "Furniture"
  },
  {
   "extras": {
    "edit_note": "A mission building (blender/tools/build_interior_blends.py, seed blender/tools/interior_plans.py): a PLACEHOLDER shell and fit-out at its real Japanese size -- remodel freely. Keep the frame (origin = plot centre on the ground, street -Y), the floor levels, and move the Empties with what they belong to: DOOR_ (interior door, arrow OUT of the room), EXIT_ (outer door, arrow out of the building), LIFT_ (a lift: shaft floor centre at the low stop; stops / faces), MARK_ (a mission marker: kind weapon / spawn / cover ...). Keep 1.2 m clear both sides of every door. After editing: tools/building_kit/build_buildings.sh. \u6e29\u6cc9\u65c5\u9928 (a hot-spring inn in the snow mountains): two storeys 36 x 20 m -- the \u7384\u95a2 (shoes off: doma, \u4e0b\u8db3\u7bb1, agarikamachi), the \u5e33\u5834, the lobby and the \u58f2\u5e97; the \u5927\u6d74\u5834 split \u7537\u6e6f / \u5973\u6e6f behind noren (\u8131\u8863\u6240, a hinoki \u5185\u6e6f, the wash row) with doors out to two fenced \u9732\u5929\u98a8\u5442 in the snow; the \u5bb4\u4f1a\u5834 and the kitchen; upstairs eleven \u548c\u5ba4 guest rooms; snow on the roof and along the drive. The baths are sunk into the floor (a 0.2 m rim, a seat ledge) and their water is a MARK_water surface drawn with the onsen water shader -- no collider, a body wades in."
   },
   "mesh": 2,
   "name": "Glazing"
  },
  {
   "extras": {
    "edit_note": "A mission building (blender/tools/build_interior_blends.py, seed blender/tools/interior_plans.py): a PLACEHOLDER shell and fit-out at its real Japanese size -- remodel freely. Keep the frame (origin = plot centre on the ground, street -Y), the floor levels, and move the Empties with what they belong to: DOOR_ (interior door, arrow OUT of the room), EXIT_ (outer door, arrow out of the building), LIFT_ (a lift: shaft floor centre at the low stop; stops / faces), MARK_ (a mission marker: kind weapon / spawn / cover ...). Keep 1.2 m clear both sides of every door. After editing: tools/building_kit/build_buildings.sh. \u6e29\u6cc9\u65c5\u9928 (a hot-spring inn in the snow mountains): two storeys 36 x 20 m -- the \u7384\u95a2 (shoes off: doma, \u4e0b\u8db3\u7bb1, agarikamachi), the \u5e33\u5834, the lobby and the \u58f2\u5e97; the \u5927\u6d74\u5834 split \u7537\u6e6f / \u5973\u6e6f behind noren (\u8131\u8863\u6240, a hinoki \u5185\u6e6f, the wash row) with doors out to two fenced \u9732\u5929\u98a8\u5442 in the snow; the \u5bb4\u4f1a\u5834 and the kitchen; upstairs eleven \u548c\u5ba4 guest rooms; snow on the roof and along the drive. The baths are sunk into the floor (a 0.2 m rim, a seat ledge) and their water is a MARK_water surface drawn with the onsen water shader -- no collider, a body wades in."
   },
   "mesh": 3,
   "name": "Kitchen_Fridge",
   "rotation": [
    0,
    -0.7071068286895752,
    0,
    0.7071068286895752
   ],
   "translation": [
    8.399999618530273,
    0.30000001192092896,
    -3
   ]
  },
  {
   "extras": {
    "edit_note": "A mission building (blender/tools/build_interior_blends.py, seed blender/tools/interior_plans.py): a PLACEHOLDER shell and fit-out at its real Japanese size -- remodel freely. Keep the frame (origin = plot centre on the ground, street -Y), the floor levels, and move the Empties with what they belong to: DOOR_ (interior door, arrow OUT of the room), EXIT_ (outer door, arrow out of the building), LIFT_ (a lift: shaft floor centre at the low stop; stops / faces), MARK_ (a mission marker: kind weapon / spawn / cover ...). Keep 1.2 m clear both sides of every door. After editing: tools/building_kit/build_buildings.sh. \u6e29\u6cc9\u65c5\u9928 (a hot-spring inn in the snow mountains): two storeys 36 x 20 m -- the \u7384\u95a2 (shoes off: doma, \u4e0b\u8db3\u7bb1, agarikamachi), the \u5e33\u5834, the lobby and the \u58f2\u5e97; the \u5927\u6d74\u5834 split \u7537\u6e6f / \u5973\u6e6f behind noren (\u8131\u8863\u6240, a hinoki \u5185\u6e6f, the wash row) with doors out to two fenced \u9732\u5929\u98a8\u5442 in the snow; the \u5bb4\u4f1a\u5834 and the kitchen; upstairs eleven \u548c\u5ba4 guest rooms; snow on the roof and along the drive. The baths are sunk into the floor (a 0.2 m rim, a seat ledge) and their water is a MARK_water surface drawn with the onsen water shader -- no collider, a body wades in."
   },
   "mesh": 4,
   "name": "Kitchen_PrepTable",
   "translation": [
    6,
    0.30000001192092896,
    -5.199999809265137
   ]
  },
  {
   "extras": {
    "edit_note": "A mission building (blender/tools/build_interior_blends.py, seed blender/tools/interior_plans.py): a PLACEHOLDER shell and fit-out at its real Japanese size -- remodel freely. Keep the frame (origin = plot centre on the ground, street -Y), the floor levels, and move the Empties with what they belong to: DOOR_ (interior door, arrow OUT of the room), EXIT_ (outer door, arrow out of the building), LIFT_ (a lift: shaft floor centre at the low stop; stops / faces), MARK_ (a mission marker: kind weapon / spawn / cover ...). Keep 1.2 m clear both sides of every door. After editing: tools/building_kit/build_buildings.sh. \u6e29\u6cc9\u65c5\u9928 (a hot-spring inn in the snow mountains): two storeys 36 x 20 m -- the \u7384\u95a2 (shoes off: doma, \u4e0b\u8db3\u7bb1, agarikamachi), the \u5e33\u5834, the lobby and the \u58f2\u5e97; the \u5927\u6d74\u5834 split \u7537\u6e6f / \u5973\u6e6f behind noren (\u8131\u8863\u6240, a hinoki \u5185\u6e6f, the wash row) with doors out to two fenced \u9732\u5929\u98a8\u5442 in the snow; the \u5bb4\u4f1a\u5834 and the kitchen; upstairs eleven \u548c\u5ba4 guest rooms; snow on the roof and along the drive. The baths are sunk into the floor (a 0.2 m rim, a seat ledge) and their water is a MARK_water surface drawn with the onsen water shader -- no collider, a body wades in."
   },
   "mesh": 5,
   "name": "Office_Sofa",
   "rotation": [
    0,
    0.7071068286895752,
    0,
    0.7071068286895752
   ],
   "translation": [
    -2,
    0.30000001192092896,
    4
   ]
  },
  {
   "extras": {
    "edit_note": "A mission building (blender/tools/build_interior_blends.py, seed blender/tools/interior_plans.py): a PLACEHOLDER shell and fit-out at its real Japanese size -- remodel freely. Keep the frame (origin = plot centre on the ground, street -Y), the floor levels, and move the Empties with what they belong to: DOOR_ (interior door, arrow OUT of the room), EXIT_ (outer door, arrow out of the building), LIFT_ (a lift: shaft floor centre at the low stop; stops / faces), MARK_ (a mission marker: kind weapon / spawn / cover ...). Keep 1.2 m clear both sides of every door. After editing: tools/building_kit/build_buildings.sh. \u6e29\u6cc9\u65c5\u9928 (a hot-spring inn in the snow mountains): two storeys 36 x 20 m -- the \u7384\u95a2 (shoes off: doma, \u4e0b\u8db3\u7bb1, agarikamachi), the \u5e33\u5834, the lobby and the \u58f2\u5e97; the \u5927\u6d74\u5834 split \u7537\u6e6f / \u5973\u6e6f behind noren (\u8131\u8863\u6240, a hinoki \u5185\u6e6f, the wash row) with doors out to two fenced \u9732\u5929\u98a8\u5442 in the snow; the \u5bb4\u4f1a\u5834 and the kitchen; upstairs eleven \u548c\u5ba4 guest rooms; snow on the roof and along the drive. The baths are sunk into the floor (a 0.2 m rim, a seat ledge) and their water is a MARK_water surface drawn with the onsen water shader -- no collider, a body wades in."
   },
   "mesh": 5,
   "name": "Office_Sofa.001",
   "rotation": [
    0,
    -0.7071068286895752,
    0,
    0.7071068286895752
   ],
   "translation": [
    2,
    0.30000001192092896,
    4
   ]
  },
  {
   "extras": {
    "edit_note": "A mission building (blender/tools/build_interior_blends.py, seed blender/tools/interior_plans.py): a PLACEHOLDER shell and fit-out at its real Japanese size -- remodel freely. Keep the frame (origin = plot centre on the ground, street -Y), the floor levels, and move the Empties with what they belong to: DOOR_ (interior door, arrow OUT of the room), EXIT_ (outer door, arrow out of the building), LIFT_ (a lift: shaft floor centre at the low stop; stops / faces), MARK_ (a mission marker: kind weapon / spawn / cover ...). Keep 1.2 m clear both sides of every door. After editing: tools/building_kit/build_buildings.sh. \u6e29\u6cc9\u65c5\u9928 (a hot-spring inn in the snow mountains): two storeys 36 x 20 m -- the \u7384\u95a2 (shoes off: doma, \u4e0b\u8db3\u7bb1, agarikamachi), the \u5e33\u5834, the lobby and the \u58f2\u5e97; the \u5927\u6d74\u5834 split \u7537\u6e6f / \u5973\u6e6f behind noren (\u8131\u8863\u6240, a hinoki \u5185\u6e6f, the wash row) with doors out to two fenced \u9732\u5929\u98a8\u5442 in the snow; the \u5bb4\u4f1a\u5834 and the kitchen; upstairs eleven \u548c\u5ba4 guest rooms; snow on the roof and along the drive. The baths are sunk into the floor (a 0.2 m rim, a seat ledge) and their water is a MARK_water surface drawn with the onsen water shader -- no collider, a body wades in."
   },
   "mesh": 6,
   "name": "Rest_Chair",
   "translation": [
    -12.600000381469727,
    3.799999952316284,
    9.199999809265137
   ]
  },
  {
   "extras": {
    "edit_note": "A mission building (blender/tools/build_interior_blends.py, seed blender/tools/interior_plans.py): a PLACEHOLDER shell and fit-out at its real Japanese size -- remodel freely. Keep the frame (origin = plot centre on the ground, street -Y), the floor levels, and move the Empties with what they belong to: DOOR_ (interior door, arrow OUT of the room), EXIT_ (outer door, arrow out of the building), LIFT_ (a lift: shaft floor centre at the low stop; stops / faces), MARK_ (a mission marker: kind weapon / spawn / cover ...). Keep 1.2 m clear both sides of every door. After editing: tools/building_kit/build_buildings.sh. \u6e29\u6cc9\u65c5\u9928 (a hot-spring inn in the snow mountains): two storeys 36 x 20 m -- the \u7384\u95a2 (shoes off: doma, \u4e0b\u8db3\u7bb1, agarikamachi), the \u5e33\u5834, the lobby and the \u58f2\u5e97; the \u5927\u6d74\u5834 split \u7537\u6e6f / \u5973\u6e6f behind noren (\u8131\u8863\u6240, a hinoki \u5185\u6e6f, the wash row) with doors out to two fenced \u9732\u5929\u98a8\u5442 in the snow; the \u5bb4\u4f1a\u5834 and the kitchen; upstairs eleven \u548c\u5ba4 guest rooms; snow on the roof and along the drive. The baths are sunk into the floor (a 0.2 m rim, a seat ledge) and their water is a MARK_water surface drawn with the onsen water shader -- no collider, a body wades in."
   },
   "mesh": 6,
   "name": "Rest_Chair.001",
   "translation": [
    -6.599999904632568,
    3.799999952316284,
    9.199999809265137
   ]
  },
  {
   "extras": {
    "edit_note": "A mission building (blender/tools/build_interior_blends.py, seed blender/tools/interior_plans.py): a PLACEHOLDER shell and fit-out at its real Japanese size -- remodel freely. Keep the frame (origin = plot centre on the ground, street -Y), the floor levels, and move the Empties with what they belong to: DOOR_ (interior door, arrow OUT of the room), EXIT_ (outer door, arrow out of the building), LIFT_ (a lift: shaft floor centre at the low stop; stops / faces), MARK_ (a mission marker: kind weapon / spawn / cover ...). Keep 1.2 m clear both sides of every door. After editing: tools/building_kit/build_buildings.sh. \u6e29\u6cc9\u65c5\u9928 (a hot-spring inn in the snow mountains): two storeys 36 x 20 m -- the \u7384\u95a2 (shoes off: doma, \u4e0b\u8db3\u7bb1, agarikamachi), the \u5e33\u5834, the lobby and the \u58f2\u5e97; the \u5927\u6d74\u5834 split \u7537\u6e6f / \u5973\u6e6f behind noren (\u8131\u8863\u6240, a hinoki \u5185\u6e6f, the wash row) with doors out to two fenced \u9732\u5929\u98a8\u5442 in the snow; the \u5bb4\u4f1a\u5834 and the kitchen; upstairs eleven \u548c\u5ba4 guest rooms; snow on the roof and along the drive. The baths are sunk into the floor (a 0.2 m rim, a seat ledge) and their water is a MARK_water surface drawn with the onsen water shader -- no collider, a body wades in."
   },
   "mesh": 6,
   "name": "Rest_Chair.002",
   "translation": [
    -0.6000000238418579,
    3.799999952316284,
    9.199999809265137
   ]
  },
  {
   "extras": {
    "edit_note": "A mission building (blender/tools/build_interior_blends.py, seed blender/tools/interior_plans.py): a PLACEHOLDER shell and fit-out at its real Japanese size -- remodel freely. Keep the frame (origin = plot centre on the ground, street -Y), the floor levels, and move the Empties with what they belong to: DOOR_ (interior door, arrow OUT of the room), EXIT_ (outer door, arrow out of the building), LIFT_ (a lift: shaft floor centre at the low stop; stops / faces), MARK_ (a mission marker: kind weapon / spawn / cover ...). Keep 1.2 m clear both sides of every door. After editing: tools/building_kit/build_buildings.sh. \u6e29\u6cc9\u65c5\u9928 (a hot-spring inn in the snow mountains): two storeys 36 x 20 m -- the \u7384\u95a2 (shoes off: doma, \u4e0b\u8db3\u7bb1, agarikamachi), the \u5e33\u5834, the lobby and the \u58f2\u5e97; the \u5927\u6d74\u5834 split \u7537\u6e6f / \u5973\u6e6f behind noren (\u8131\u8863\u6240, a hinoki \u5185\u6e6f, the wash row) with doors out to two fenced \u9732\u5929\u98a8\u5442 in the snow; the \u5bb4\u4f1a\u5834 and the kitchen; upstairs eleven \u548c\u5ba4 guest rooms; snow on the roof and along the drive. The baths are sunk into the floor (a 0.2 m rim, a seat ledge) and their water is a MARK_water surface drawn with the onsen water shader -- no collider, a body wades in."
   },
   "mesh": 6,
   "name": "Rest_Chair.003",
   "translation": [
    5.400000095367432,
    3.799999952316284,
    9.199999809265137
   ]
  },
  {
   "extras": {
    "edit_note": "A mission building (blender/tools/build_interior_blends.py, seed blender/tools/interior_plans.py): a PLACEHOLDER shell and fit-out at its real Japanese size -- remodel freely. Keep the frame (origin = plot centre on the ground, street -Y), the floor levels, and move the Empties with what they belong to: DOOR_ (interior door, arrow OUT of the room), EXIT_ (outer door, arrow out of the building), LIFT_ (a lift: shaft floor centre at the low stop; stops / faces), MARK_ (a mission marker: kind weapon / spawn / cover ...). Keep 1.2 m clear both sides of every door. After editing: tools/building_kit/build_buildings.sh. \u6e29\u6cc9\u65c5\u9928 (a hot-spring inn in the snow mountains): two storeys 36 x 20 m -- the \u7384\u95a2 (shoes off: doma, \u4e0b\u8db3\u7bb1, agarikamachi), the \u5e33\u5834, the lobby and the \u58f2\u5e97; the \u5927\u6d74\u5834 split \u7537\u6e6f / \u5973\u6e6f behind noren (\u8131\u8863\u6240, a hinoki \u5185\u6e6f, the wash row) with doors out to two fenced \u9732\u5929\u98a8\u5442 in the snow; the \u5bb4\u4f1a\u5834 and the kitchen; upstairs eleven \u548c\u5ba4 guest rooms; snow on the roof and along the drive. The baths are sunk into the floor (a 0.2 m rim, a seat ledge) and their water is a MARK_water surface drawn with the onsen water shader -- no collider, a body wades in."
   },
   "mesh": 6,
   "name": "Rest_Chair.004",
   "translation": [
    11.399999618530273,
    3.799999952316284,
    9.199999809265137
   ]
  },
  {
   "extras": {
    "edit_note": "A mission building (blender/tools/build_interior_blends.py, seed blender/tools/interior_plans.py): a PLACEHOLDER shell and fit-out at its real Japanese size -- remodel freely. Keep the frame (origin = plot centre on the ground, street -Y), the floor levels, and move the Empties with what they belong to: DOOR_ (interior door, arrow OUT of the room), EXIT_ (outer door, arrow out of the building), LIFT_ (a lift: shaft floor centre at the low stop; stops / faces), MARK_ (a mission marker: kind weapon / spawn / cover ...). Keep 1.2 m clear both sides of every door. After editing: tools/building_kit/build_buildings.sh. \u6e29\u6cc9\u65c5\u9928 (a hot-spring inn in the snow mountains): two storeys 36 x 20 m -- the \u7384\u95a2 (shoes off: doma, \u4e0b\u8db3\u7bb1, agarikamachi), the \u5e33\u5834, the lobby and the \u58f2\u5e97; the \u5927\u6d74\u5834 split \u7537\u6e6f / \u5973\u6e6f behind noren (\u8131\u8863\u6240, a hinoki \u5185\u6e6f, the wash row) with doors out to two fenced \u9732\u5929\u98a8\u5442 in the snow; the \u5bb4\u4f1a\u5834 and the kitchen; upstairs eleven \u548c\u5ba4 guest rooms; snow on the roof and along the drive. The baths are sunk into the floor (a 0.2 m rim, a seat ledge) and their water is a MARK_water surface drawn with the onsen water shader -- no collider, a body wades in."
   },
   "mesh": 6,
   "name": "Rest_Chair.005",
   "translation": [
    -15.5,
    3.799999952316284,
    -9.199999809265137
   ]
  },
  {
   "extras": {
    "edit_note": "A mission building (blender/tools/build_interior_blends.py, seed blender/tools/interior_plans.py): a PLACEHOLDER shell and fit-out at its real Japanese size -- remodel freely. Keep the frame (origin = plot centre on the ground, street -Y), the floor levels, and move the Empties with what they belong to: DOOR_ (interior door, arrow OUT of the room), EXIT_ (outer door, arrow out of the building), LIFT_ (a lift: shaft floor centre at the low stop; stops / faces), MARK_ (a mission marker: kind weapon / spawn / cover ...). Keep 1.2 m clear both sides of every door. After editing: tools/building_kit/build_buildings.sh. \u6e29\u6cc9\u65c5\u9928 (a hot-spring inn in the snow mountains): two storeys 36 x 20 m -- the \u7384\u95a2 (shoes off: doma, \u4e0b\u8db3\u7bb1, agarikamachi), the \u5e33\u5834, the lobby and the \u58f2\u5e97; the \u5927\u6d74\u5834 split \u7537\u6e6f / \u5973\u6e6f behind noren (\u8131\u8863\u6240, a hinoki \u5185\u6e6f, the wash row) with doors out to two fenced \u9732\u5929\u98a8\u5442 in the snow; the \u5bb4\u4f1a\u5834 and the kitchen; upstairs eleven \u548c\u5ba4 guest rooms; snow on the roof and along the drive. The baths are sunk into the floor (a 0.2 m rim, a seat ledge) and their water is a MARK_water surface drawn with the onsen water shader -- no collider, a body wades in."
   },
   "mesh": 6,
   "name": "Rest_Chair.006",
   "translation": [
    -9.600000381469727,
    3.799999952316284,
    -9.199999809265137
   ]
  },
  {
   "extras": {
    "edit_note": "A mission building (blender/tools/build_interior_blends.py, seed blender/tools/interior_plans.py): a PLACEHOLDER shell and fit-out at its real Japanese size -- remodel freely. Keep the frame (origin = plot centre on the ground, street -Y), the floor levels, and move the Empties with what they belong to: DOOR_ (interior door, arrow OUT of the room), EXIT_ (outer door, arrow out of the building), LIFT_ (a lift: shaft floor centre at the low stop; stops / faces), MARK_ (a mission marker: kind weapon / spawn / cover ...). Keep 1.2 m clear both sides of every door. After editing: tools/building_kit/build_buildings.sh. \u6e29\u6cc9\u65c5\u9928 (a hot-spring inn in the snow mountains): two storeys 36 x 20 m -- the \u7384\u95a2 (shoes off: doma, \u4e0b\u8db3\u7bb1, agarikamachi), the \u5e33\u5834, the lobby and the \u58f2\u5e97; the \u5927\u6d74\u5834 split \u7537\u6e6f / \u5973\u6e6f behind noren (\u8131\u8863\u6240, a hinoki \u5185\u6e6f, the wash row) with doors out to two fenced \u9732\u5929\u98a8\u5442 in the snow; the \u5bb4\u4f1a\u5834 and the kitchen; upstairs eleven \u548c\u5ba4 guest rooms; snow on the roof and along the drive. The baths are sunk into the floor (a 0.2 m rim, a seat ledge) and their water is a MARK_water surface drawn with the onsen water shader -- no collider, a body wades in."
   },
   "mesh": 6,
   "name": "Rest_Chair.007",
   "translation": [
    -3.5999999046325684,
    3.799999952316284,
    -9.199999809265137
   ]
  },
  {
   "extras": {
    "edit_note": "A mission building (blender/tools/build_interior_blends.py, seed blender/tools/interior_plans.py): a PLACEHOLDER shell and fit-out at its real Japanese size -- remodel freely. Keep the frame (origin = plot centre on the ground, street -Y), the floor levels, and move the Empties with what they belong to: DOOR_ (interior door, arrow OUT of the room), EXIT_ (outer door, arrow out of the building), LIFT_ (a lift: shaft floor centre at the low stop; stops / faces), MARK_ (a mission marker: kind weapon / spawn / cover ...). Keep 1.2 m clear both sides of every door. After editing: tools/building_kit/build_buildings.sh. \u6e29\u6cc9\u65c5\u9928 (a hot-spring inn in the snow mountains): two storeys 36 x 20 m -- the \u7384\u95a2 (shoes off: doma, \u4e0b\u8db3\u7bb1, agarikamachi), the \u5e33\u5834, the lobby and the \u58f2\u5e97; the \u5927\u6d74\u5834 split \u7537\u6e6f / \u5973\u6e6f behind noren (\u8131\u8863\u6240, a hinoki \u5185\u6e6f, the wash row) with doors out to two fenced \u9732\u5929\u98a8\u5442 in the snow; the \u5bb4\u4f1a\u5834 and the kitchen; upstairs eleven \u548c\u5ba4 guest rooms; snow on the roof and along the drive. The baths are sunk into the floor (a 0.2 m rim, a seat ledge) and their water is a MARK_water surface drawn with the onsen water shader -- no collider, a body wades in."
   },
   "mesh": 6,
   "name": "Rest_Chair.008",
   "translation": [
    2.4000000953674316,
    3.799999952316284,
    -9.199999809265137
   ]
  },
  {
   "extras": {
    "edit_note": "A mission building (blender/tools/build_interior_blends.py, seed blender/tools/interior_plans.py): a PLACEHOLDER shell and fit-out at its real Japanese size -- remodel freely. Keep the frame (origin = plot centre on the ground, street -Y), the floor levels, and move the Empties with what they belong to: DOOR_ (interior door, arrow OUT of the room), EXIT_ (outer door, arrow out of the building), LIFT_ (a lift: shaft floor centre at the low stop; stops / faces), MARK_ (a mission marker: kind weapon / spawn / cover ...). Keep 1.2 m clear both sides of every door. After editing: tools/building_kit/build_buildings.sh. \u6e29\u6cc9\u65c5\u9928 (a hot-spring inn in the snow mountains): two storeys 36 x 20 m -- the \u7384\u95a2 (shoes off: doma, \u4e0b\u8db3\u7bb1, agarikamachi), the \u5e33\u5834, the lobby and the \u58f2\u5e97; the \u5927\u6d74\u5834 split \u7537\u6e6f / \u5973\u6e6f behind noren (\u8131\u8863\u6240, a hinoki \u5185\u6e6f, the wash row) with doors out to two fenced \u9732\u5929\u98a8\u5442 in the snow; the \u5bb4\u4f1a\u5834 and the kitchen; upstairs eleven \u548c\u5ba4 guest rooms; snow on the roof and along the drive. The baths are sunk into the floor (a 0.2 m rim, a seat ledge) and their water is a MARK_water surface drawn with the onsen water shader -- no collider, a body wades in."
   },
   "mesh": 6,
   "name": "Rest_Chair.009",
   "translation": [
    8.399999618530273,
    3.799999952316284,
    -9.199999809265137
   ]
  },
  {
   "extras": {
    "edit_note": "A mission building (blender/tools/build_interior_blends.py, seed blender/tools/interior_plans.py): a PLACEHOLDER shell and fit-out at its real Japanese size -- remodel freely. Keep the frame (origin = plot centre on the ground, street -Y), the floor levels, and move the Empties with what they belong to: DOOR_ (interior door, arrow OUT of the room), EXIT_ (outer door, arrow out of the building), LIFT_ (a lift: shaft floor centre at the low stop; stops / faces), MARK_ (a mission marker: kind weapon / spawn / cover ...). Keep 1.2 m clear both sides of every door. After editing: tools/building_kit/build_buildings.sh. \u6e29\u6cc9\u65c5\u9928 (a hot-spring inn in the snow mountains): two storeys 36 x 20 m -- the \u7384\u95a2 (shoes off: doma, \u4e0b\u8db3\u7bb1, agarikamachi), the \u5e33\u5834, the lobby and the \u58f2\u5e97; the \u5927\u6d74\u5834 split \u7537\u6e6f / \u5973\u6e6f behind noren (\u8131\u8863\u6240, a hinoki \u5185\u6e6f, the wash row) with doors out to two fenced \u9732\u5929\u98a8\u5442 in the snow; the \u5bb4\u4f1a\u5834 and the kitchen; upstairs eleven \u548c\u5ba4 guest rooms; snow on the roof and along the drive. The baths are sunk into the floor (a 0.2 m rim, a seat ledge) and their water is a MARK_water surface drawn with the onsen water shader -- no collider, a body wades in."
   },
   "mesh": 6,
   "name": "Rest_Chair.010",
   "translation": [
    14.300000190734863,
    3.799999952316284,
    -9.199999809265137
   ]
  },
  {
   "extras": {
    "edit_note": "A mission building (blender/tools/build_interior_blends.py, seed blender/tools/interior_plans.py): a PLACEHOLDER shell and fit-out at its real Japanese size -- remodel freely. Keep the frame (origin = plot centre on the ground, street -Y), the floor levels, and move the Empties with what they belong to: DOOR_ (interior door, arrow OUT of the room), EXIT_ (outer door, arrow out of the building), LIFT_ (a lift: shaft floor centre at the low stop; stops / faces), MARK_ (a mission marker: kind weapon / spawn / cover ...). Keep 1.2 m clear both sides of every door. After editing: tools/building_kit/build_buildings.sh. \u6e29\u6cc9\u65c5\u9928 (a hot-spring inn in the snow mountains): two storeys 36 x 20 m -- the \u7384\u95a2 (shoes off: doma, \u4e0b\u8db3\u7bb1, agarikamachi), the \u5e33\u5834, the lobby and the \u58f2\u5e97; the \u5927\u6d74\u5834 split \u7537\u6e6f / \u5973\u6e6f behind noren (\u8131\u8863\u6240, a hinoki \u5185\u6e6f, the wash row) with doors out to two fenced \u9732\u5929\u98a8\u5442 in the snow; the \u5bb4\u4f1a\u5834 and the kitchen; upstairs eleven \u548c\u5ba4 guest rooms; snow on the roof and along the drive. The baths are sunk into the floor (a 0.2 m rim, a seat ledge) and their water is a MARK_water surface drawn with the onsen water shader -- no collider, a body wades in."
   },
   "mesh": 7,
   "name": "Rest_Table",
   "rotation": [
    0,
    0.7071068286895752,
    0,
    0.7071068286895752
   ],
   "translation": [
    0,
    0.30000001192092896,
    4
   ]
  },
  {
   "extras": {
    "edit_note": "A mission building (blender/tools/build_interior_blends.py, seed blender/tools/interior_plans.py): a PLACEHOLDER shell and fit-out at its real Japanese size -- remodel freely. Keep the frame (origin = plot centre on the ground, street -Y), the floor levels, and move the Empties with what they belong to: DOOR_ (interior door, arrow OUT of the room), EXIT_ (outer door, arrow out of the building), LIFT_ (a lift: shaft floor centre at the low stop; stops / faces), MARK_ (a mission marker: kind weapon / spawn / cover ...). Keep 1.2 m clear both sides of every door. After editing: tools/building_kit/build_buildings.sh. \u6e29\u6cc9\u65c5\u9928 (a hot-spring inn in the snow mountains): two storeys 36 x 20 m -- the \u7384\u95a2 (shoes off: doma, \u4e0b\u8db3\u7bb1, agarikamachi), the \u5e33\u5834, the lobby and the \u58f2\u5e97; the \u5927\u6d74\u5834 split \u7537\u6e6f / \u5973\u6e6f behind noren (\u8131\u8863\u6240, a hinoki \u5185\u6e6f, the wash row) with doors out to two fenced \u9732\u5929\u98a8\u5442 in the snow; the \u5bb4\u4f1a\u5834 and the kitchen; upstairs eleven \u548c\u5ba4 guest rooms; snow on the roof and along the drive. The baths are sunk into the floor (a 0.2 m rim, a seat ledge) and their water is a MARK_water surface drawn with the onsen water shader -- no collider, a body wades in."
   },
   "mesh": 8,
   "name": "Roof"
  },
  {
   "extras": {
    "edit_note": "A mission building (blender/tools/build_interior_blends.py, seed blender/tools/interior_plans.py): a PLACEHOLDER shell and fit-out at its real Japanese size -- remodel freely. Keep the frame (origin = plot centre on the ground, street -Y), the floor levels, and move the Empties with what they belong to: DOOR_ (interior door, arrow OUT of the room), EXIT_ (outer door, arrow out of the building), LIFT_ (a lift: shaft floor centre at the low stop; stops / faces), MARK_ (a mission marker: kind weapon / spawn / cover ...). Keep 1.2 m clear both sides of every door. After editing: tools/building_kit/build_buildings.sh. \u6e29\u6cc9\u65c5\u9928 (a hot-spring inn in the snow mountains): two storeys 36 x 20 m -- the \u7384\u95a2 (shoes off: doma, \u4e0b\u8db3\u7bb1, agarikamachi), the \u5e33\u5834, the lobby and the \u58f2\u5e97; the \u5927\u6d74\u5834 split \u7537\u6e6f / \u5973\u6e6f behind noren (\u8131\u8863\u6240, a hinoki \u5185\u6e6f, the wash row) with doors out to two fenced \u9732\u5929\u98a8\u5442 in the snow; the \u5bb4\u4f1a\u5834 and the kitchen; upstairs eleven \u548c\u5ba4 guest rooms; snow on the roof and along the drive. The baths are sunk into the floor (a 0.2 m rim, a seat ledge) and their water is a MARK_water surface drawn with the onsen water shader -- no collider, a body wades in."
   },
   "mesh": 9,
   "name": "Shafts"
  },
  {
   "extras": {
    "edit_note": "A mission building (blender/tools/build_interior_blends.py, seed blender/tools/interior_plans.py): a PLACEHOLDER shell and fit-out at its real Japanese size -- remodel freely. Keep the frame (origin = plot centre on the ground, street -Y), the floor levels, and move the Empties with what they belong to: DOOR_ (interior door, arrow OUT of the room), EXIT_ (outer door, arrow out of the building), LIFT_ (a lift: shaft floor centre at the low stop; stops / faces), MARK_ (a mission marker: kind weapon / spawn / cover ...). Keep 1.2 m clear both sides of every door. After editing: tools/building_kit/build_buildings.sh. \u6e29\u6cc9\u65c5\u9928 (a hot-spring inn in the snow mountains): two storeys 36 x 20 m -- the \u7384\u95a2 (shoes off: doma, \u4e0b\u8db3\u7bb1, agarikamachi), the \u5e33\u5834, the lobby and the \u58f2\u5e97; the \u5927\u6d74\u5834 split \u7537\u6e6f / \u5973\u6e6f behind noren (\u8131\u8863\u6240, a hinoki \u5185\u6e6f, the wash row) with doors out to two fenced \u9732\u5929\u98a8\u5442 in the snow; the \u5bb4\u4f1a\u5834 and the kitchen; upstairs eleven \u548c\u5ba4 guest rooms; snow on the roof and along the drive. The baths are sunk into the floor (a 0.2 m rim, a seat ledge) and their water is a MARK_water surface drawn with the onsen water shader -- no collider, a body wades in."
   },
   "mesh": 10,
   "name": "Shop_GondolaShort",
   "rotation": [
    0,
    0.7071068286895752,
    0,
    0.7071068286895752
   ],
   "translation": [
    -10.5,
    0.30000001192092896,
    6.5
   ]
  },
  {
   "extras": {
    "edit_note": "A mission building (blender/tools/build_interior_blends.py, seed blender/tools/interior_plans.py): a PLACEHOLDER shell and fit-out at its real Japanese size -- remodel freely. Keep the frame (origin = plot centre on the ground, street -Y), the floor levels, and move the Empties with what they belong to: DOOR_ (interior door, arrow OUT of the room), EXIT_ (outer door, arrow out of the building), LIFT_ (a lift: shaft floor centre at the low stop; stops / faces), MARK_ (a mission marker: kind weapon / spawn / cover ...). Keep 1.2 m clear both sides of every door. After editing: tools/building_kit/build_buildings.sh. \u6e29\u6cc9\u65c5\u9928 (a hot-spring inn in the snow mountains): two storeys 36 x 20 m -- the \u7384\u95a2 (shoes off: doma, \u4e0b\u8db3\u7bb1, agarikamachi), the \u5e33\u5834, the lobby and the \u58f2\u5e97; the \u5927\u6d74\u5834 split \u7537\u6e6f / \u5973\u6e6f behind noren (\u8131\u8863\u6240, a hinoki \u5185\u6e6f, the wash row) with doors out to two fenced \u9732\u5929\u98a8\u5442 in the snow; the \u5bb4\u4f1a\u5834 and the kitchen; upstairs eleven \u548c\u5ba4 guest rooms; snow on the roof and along the drive. The baths are sunk into the floor (a 0.2 m rim, a seat ledge) and their water is a MARK_water surface drawn with the onsen water shader -- no collider, a body wades in."
   },
   "mesh": 10,
   "name": "Shop_GondolaShort.001",
   "rotation": [
    0,
    0.7071068286895752,
    0,
    0.7071068286895752
   ],
   "translation": [
    -10.5,
    0.30000001192092896,
    4
   ]
  },
  {
   "extras": {
    "edit_note": "A mission building (blender/tools/build_interior_blends.py, seed blender/tools/interior_plans.py): a PLACEHOLDER shell and fit-out at its real Japanese size -- remodel freely. Keep the frame (origin = plot centre on the ground, street -Y), the floor levels, and move the Empties with what they belong to: DOOR_ (interior door, arrow OUT of the room), EXIT_ (outer door, arrow out of the building), LIFT_ (a lift: shaft floor centre at the low stop; stops / faces), MARK_ (a mission marker: kind weapon / spawn / cover ...). Keep 1.2 m clear both sides of every door. After editing: tools/building_kit/build_buildings.sh. \u6e29\u6cc9\u65c5\u9928 (a hot-spring inn in the snow mountains): two storeys 36 x 20 m -- the \u7384\u95a2 (shoes off: doma, \u4e0b\u8db3\u7bb1, agarikamachi), the \u5e33\u5834, the lobby and the \u58f2\u5e97; the \u5927\u6d74\u5834 split \u7537\u6e6f / \u5973\u6e6f behind noren (\u8131\u8863\u6240, a hinoki \u5185\u6e6f, the wash row) with doors out to two fenced \u9732\u5929\u98a8\u5442 in the snow; the \u5bb4\u4f1a\u5834 and the kitchen; upstairs eleven \u548c\u5ba4 guest rooms; snow on the roof and along the drive. The baths are sunk into the floor (a 0.2 m rim, a seat ledge) and their water is a MARK_water surface drawn with the onsen water shader -- no collider, a body wades in."
   },
   "mesh": 10,
   "name": "Shop_GondolaShort.002",
   "rotation": [
    0,
    0.7071068286895752,
    0,
    0.7071068286895752
   ],
   "translation": [
    -10.5,
    0.30000001192092896,
    1.5
   ]
  },
  {
   "extras": {
    "edit_note": "A mission building (blender/tools/build_interior_blends.py, seed blender/tools/interior_plans.py): a PLACEHOLDER shell and fit-out at its real Japanese size -- remodel freely. Keep the frame (origin = plot centre on the ground, street -Y), the floor levels, and move the Empties with what they belong to: DOOR_ (interior door, arrow OUT of the room), EXIT_ (outer door, arrow out of the building), LIFT_ (a lift: shaft floor centre at the low stop; stops / faces), MARK_ (a mission marker: kind weapon / spawn / cover ...). Keep 1.2 m clear both sides of every door. After editing: tools/building_kit/build_buildings.sh. \u6e29\u6cc9\u65c5\u9928 (a hot-spring inn in the snow mountains): two storeys 36 x 20 m -- the \u7384\u95a2 (shoes off: doma, \u4e0b\u8db3\u7bb1, agarikamachi), the \u5e33\u5834, the lobby and the \u58f2\u5e97; the \u5927\u6d74\u5834 split \u7537\u6e6f / \u5973\u6e6f behind noren (\u8131\u8863\u6240, a hinoki \u5185\u6e6f, the wash row) with doors out to two fenced \u9732\u5929\u98a8\u5442 in the snow; the \u5bb4\u4f1a\u5834 and the kitchen; upstairs eleven \u548c\u5ba4 guest rooms; snow on the roof and along the drive. The baths are sunk into the floor (a 0.2 m rim, a seat ledge) and their water is a MARK_water surface drawn with the onsen water shader -- no collider, a body wades in."
   },
   "mesh": 11,
   "name": "Site"
  },
  {
   "extras": {
    "edit_note": "A mission building (blender/tools/build_interior_blends.py, seed blender/tools/interior_plans.py): a PLACEHOLDER shell and fit-out at its real Japanese size -- remodel freely. Keep the frame (origin = plot centre on the ground, street -Y), the floor levels, and move the Empties with what they belong to: DOOR_ (interior door, arrow OUT of the room), EXIT_ (outer door, arrow out of the building), LIFT_ (a lift: shaft floor centre at the low stop; stops / faces), MARK_ (a mission marker: kind weapon / spawn / cover ...). Keep 1.2 m clear both sides of every door. After editing: tools/building_kit/build_buildings.sh. \u6e29\u6cc9\u65c5\u9928 (a hot-spring inn in the snow mountains): two storeys 36 x 20 m -- the \u7384\u95a2 (shoes off: doma, \u4e0b\u8db3\u7bb1, agarikamachi), the \u5e33\u5834, the lobby and the \u58f2\u5e97; the \u5927\u6d74\u5834 split \u7537\u6e6f / \u5973\u6e6f behind noren (\u8131\u8863\u6240, a hinoki \u5185\u6e6f, the wash row) with doors out to two fenced \u9732\u5929\u98a8\u5442 in the snow; the \u5bb4\u4f1a\u5834 and the kitchen; upstairs eleven \u548c\u5ba4 guest rooms; snow on the roof and along the drive. The baths are sunk into the floor (a 0.2 m rim, a seat ledge) and their water is a MARK_water surface drawn with the onsen water shader -- no collider, a body wades in."
   },
   "mesh": 12,
   "name": "Stairs"
  },
  {
   "extras": {
    "edit_note": "A mission building (blender/tools/build_interior_blends.py, seed blender/tools/interior_plans.py): a PLACEHOLDER shell and fit-out at its real Japanese size -- remodel freely. Keep the frame (origin = plot centre on the ground, street -Y), the floor levels, and move the Empties with what they belong to: DOOR_ (interior door, arrow OUT of the room), EXIT_ (outer door, arrow out of the building), LIFT_ (a lift: shaft floor centre at the low stop; stops / faces), MARK_ (a mission marker: kind weapon / spawn / cover ...). Keep 1.2 m clear both sides of every door. After editing: tools/building_kit/build_buildings.sh. \u6e29\u6cc9\u65c5\u9928 (a hot-spring inn in the snow mountains): two storeys 36 x 20 m -- the \u7384\u95a2 (shoes off: doma, \u4e0b\u8db3\u7bb1, agarikamachi), the \u5e33\u5834, the lobby and the \u58f2\u5e97; the \u5927\u6d74\u5834 split \u7537\u6e6f / \u5973\u6e6f behind noren (\u8131\u8863\u6240, a hinoki \u5185\u6e6f, the wash row) with doors out to two fenced \u9732\u5929\u98a8\u5442 in the snow; the \u5bb4\u4f1a\u5834 and the kitchen; upstairs eleven \u548c\u5ba4 guest rooms; snow on the roof and along the drive. The baths are sunk into the floor (a 0.2 m rim, a seat ledge) and their water is a MARK_water surface drawn with the onsen water shader -- no collider, a body wades in."
   },
   "mesh": 13,
   "name": "Structure"
  },
  {
   "extras": {
    "edit_note": "A mission building (blender/tools/build_interior_blends.py, seed blender/tools/interior_plans.py): a PLACEHOLDER shell and fit-out at its real Japanese size -- remodel freely. Keep the frame (origin = plot centre on the ground, street -Y), the floor levels, and move the Empties with what they belong to: DOOR_ (interior door, arrow OUT of the room), EXIT_ (outer door, arrow out of the building), LIFT_ (a lift: shaft floor centre at the low stop; stops / faces), MARK_ (a mission marker: kind weapon / spawn / cover ...). Keep 1.2 m clear both sides of every door. After editing: tools/building_kit/build_buildings.sh. \u6e29\u6cc9\u65c5\u9928 (a hot-spring inn in the snow mountains): two storeys 36 x 20 m -- the \u7384\u95a2 (shoes off: doma, \u4e0b\u8db3\u7bb1, agarikamachi), the \u5e33\u5834, the lobby and the \u58f2\u5e97; the \u5927\u6d74\u5834 split \u7537\u6e6f / \u5973\u6e6f behind noren (\u8131\u8863\u6240, a hinoki \u5185\u6e6f, the wash row) with doors out to two fenced \u9732\u5929\u98a8\u5442 in the snow; the \u5bb4\u4f1a\u5834 and the kitchen; upstairs eleven \u548c\u5ba4 guest rooms; snow on the roof and along the drive. The baths are sunk into the floor (a 0.2 m rim, a seat ledge) and their water is a MARK_water surface drawn with the onsen water shader -- no collider, a body wades in."
   },
   "mesh": 14,
   "name": "Walls_0.3"
  },
  {
   "extras": {
    "edit_note": "A mission building (blender/tools/build_interior_blends.py, seed blender/tools/interior_plans.py): a PLACEHOLDER shell and fit-out at its real Japanese size -- remodel freely. Keep the frame (origin = plot centre on the ground, street -Y), the floor levels, and move the Empties with what they belong to: DOOR_ (interior door, arrow OUT of the room), EXIT_ (outer door, arrow out of the building), LIFT_ (a lift: shaft floor centre at the low stop; stops / faces), MARK_ (a mission marker: kind weapon / spawn / cover ...). Keep 1.2 m clear both sides of every door. After editing: tools/building_kit/build_buildings.sh. \u6e29\u6cc9\u65c5\u9928 (a hot-spring inn in the snow mountains): two storeys 36 x 20 m -- the \u7384\u95a2 (shoes off: doma, \u4e0b\u8db3\u7bb1, agarikamachi), the \u5e33\u5834, the lobby and the \u58f2\u5e97; the \u5927\u6d74\u5834 split \u7537\u6e6f / \u5973\u6e6f behind noren (\u8131\u8863\u6240, a hinoki \u5185\u6e6f, the wash row) with doors out to two fenced \u9732\u5929\u98a8\u5442 in the snow; the \u5bb4\u4f1a\u5834 and the kitchen; upstairs eleven \u548c\u5ba4 guest rooms; snow on the roof and along the drive. The baths are sunk into the floor (a 0.2 m rim, a seat ledge) and their water is a MARK_water surface drawn with the onsen water shader -- no collider, a body wades in."
   },
   "mesh": 15,
   "name": "Walls_3.8"
  }
 ],
 "materials": [
  {
   "doubleSided": true,
   "name": "MI_Wood",
   "pbrMetallicRoughness": {
    "baseColorFactor": [
     0.6217582821846008,
     0.4432729184627533,
     0.2785278260707855,
     1
    ],
    "metallicFactor": 0,
    "roughnessFactor": 0.699999988079071
   }
  },
  {
   "doubleSided": true,
   "name": "MI_Plaster",
   "pbrMetallicRoughness": {
    "baseColorFactor": [
     0.8999999761581421,
     0.8899999856948853,
     0.8600000143051147,
     1
    ],
    "metallicFactor": 0,
    "roughnessFactor": 0.699999988079071
   }
  },
  {
   "doubleSided": true,
   "name": "MI_RoofSlate",
   "pbrMetallicRoughness": {
    "baseColorFactor": [
     0.20000000298023224,
     0.2199999988079071,
     0.25999999046325684,
     1
    ],
    "metallicFactor": 0,
    "roughnessFactor": 0.699999988079071
   }
  },
  {
   "doubleSided": true,
   "name": "MI_PaintWhite",
   "pbrMetallicRoughness": {
    "baseColorFactor": [
     0.949999988079071,
     0.949999988079071,
     0.9300000071525574,
     1
    ],
    "metallicFactor": 0,
    "roughnessFactor": 0.699999988079071
   }
  },
  {
   "doubleSided": true,
   "name": "MI_NorenNavy",
   "pbrMetallicRoughness": {
    "baseColorFactor": [
     0.10000000149011612,
     0.14000000059604645,
     0.30000001192092896,
     1
    ],
    "metallicFactor": 0,
    "roughnessFactor": 0.8999999761581421
   }
  },
  {
   "doubleSided": true,
   "name": "MI_PlasticDark",
   "pbrMetallicRoughness": {
    "baseColorFactor": [
     0.11999999731779099,
     0.11999999731779099,
     0.12999999523162842,
     1
    ],
    "metallicFactor": 0,
    "roughnessFactor": 0.6000000238418579
   }
  },
  {
   "doubleSided": true,
   "name": "MI_FabricRed",
   "pbrMetallicRoughness": {
    "baseColorFactor": [
     0.44999998807907104,
     0.07999999821186066,
     0.07000000029802322,
     1
    ],
    "metallicFactor": 0,
    "roughnessFactor": 0.699999988079071
   }
  },
  {
   "doubleSided": true,
   "name": "MI_Hinoki",
   "pbrMetallicRoughness": {
    "baseColorFactor": [
     0.8600000143051147,
     0.7400000095367432,
     0.550000011920929,
     1
    ],
    "metallicFactor": 0,
    "roughnessFactor": 0.6000000238418579
   }
  },
  {
   "doubleSided": true,
   "name": "MI_Steel",
   "pbrMetallicRoughness": {
    "baseColorFactor": [
     0.5726980566978455,
     0.5820889472961426,
     0.5955169796943665,
     1
    ],
    "roughnessFactor": 0.699999988079071
   }
  },
  {
   "doubleSided": true,
   "name": "MI_Tatami",
   "pbrMetallicRoughness": {
    "baseColorFactor": [
     0.7200000286102295,
     0.699999988079071,
     0.46000000834465027,
     1
    ],
    "metallicFactor": 0,
    "roughnessFactor": 0.8999999761581421
   }
  },
  {
   "doubleSided": true,
   "name": "MI_PlasticWhite",
   "pbrMetallicRoughness": {
    "baseColorFactor": [
     0.9300000071525574,
     0.9300000071525574,
     0.9100000262260437,
     1
    ],
    "metallicFactor": 0,
    "roughnessFactor": 0.30000001192092896
   }
  },
  {
   "doubleSided": true,
   "name": "MI_Shoji",
   "pbrMetallicRoughness": {
    "baseColorFactor": [
     0.9599999785423279,
     0.9399999976158142,
     0.8799999952316284,
     1
    ],
    "metallicFactor": 0,
    "roughnessFactor": 0.800000011920929
   }
  },
  {
   "doubleSided": true,
   "name": "MI_PaintedMetal",
   "pbrMetallicRoughness": {
    "baseColorFactor": [
     0.8999999761581421,
     0.8999999761581421,
     0.8899999856948853,
     1
    ],
    "metallicFactor": 0.30000001192092896,
    "roughnessFactor": 0.699999988079071
   }
  },
  {
   "doubleSided": true,
   "name": "MI_GlassClear",
   "pbrMetallicRoughness": {
    "baseColorFactor": [
     0.550000011920929,
     0.6800000071525574,
     0.7200000286102295,
     1
    ],
    "metallicFactor": 0.20000000298023224,
    "roughnessFactor": 0.05000000074505806
   }
  },
  {
   "doubleSided": true,
   "name": "MI_PaintedMetalDark",
   "pbrMetallicRoughness": {
    "baseColorFactor": [
     0.1599999964237213,
     0.17000000178813934,
     0.18000000715255737,
     1
    ],
    "metallicFactor": 0.4000000059604645,
    "roughnessFactor": 0.699999988079071
   }
  },
  {
   "doubleSided": true,
   "emissiveFactor": [
    1,
    0.9800000190734863,
    0.9399999976158142
   ],
   "extensions": {
    "KHR_materials_emissive_strength": {
     "emissiveStrength": 2
    }
   },
   "name": "MI_Light",
   "pbrMetallicRoughness": {
    "baseColorFactor": [
     1,
     1,
     0.9700000286102295,
     1
    ],
    "metallicFactor": 0,
    "roughnessFactor": 0.699999988079071
   }
  },
  {
   "doubleSided": true,
   "name": "MI_Goods",
   "pbrMetallicRoughness": {
    "baseColorFactor": [
     0.4877031445503235,
     0.42102864384651184,
     0.38213247060775757,
     1
    ],
    "metallicFactor": 0,
    "roughnessFactor": 0.5
   }
  },
  {
   "doubleSided": true,
   "name": "MI_Fabric",
   "pbrMetallicRoughness": {
    "baseColorFactor": [
     0.3585456907749176,
     0.35632404685020447,
     0.3589908480644226,
     1
    ],
    "metallicFactor": 0,
    "roughnessFactor": 0.699999988079071
   }
  },
  {
   "doubleSided": true,
   "name": "MI_ConcreteSmooth",
   "pbrMetallicRoughness": {
    "baseColorFactor": [
     0.3104965388774872,
     0.3015982508659363,
     0.2871379554271698,
     1
    ],
    "metallicFactor": 0,
    "roughnessFactor": 0.699999988079071
   }
  },
  {
   "doubleSided": true,
   "name": "MI_StoneWall",
   "pbrMetallicRoughness": {
    "baseColorFactor": [
     0.5799999833106995,
     0.5699999928474426,
     0.5299999713897705,
     1
    ],
    "metallicFactor": 0,
    "roughnessFactor": 0.8999999761581421
   }
  }
 ],
 "meshes": [
  {
   "name": "OnsenRyokan_Facade",
   "primitives": [
    {
     "attributes": {
      "POSITION": 0,
      "NORMAL": 1
     },
     "indices": 2,
     "material": 0
    },
    {
     "attributes": {
      "POSITION": 3,
      "NORMAL": 4
     },
     "indices": 5,
     "material": 1
    },
    {
     "attributes": {
      "POSITION": 6,
      "NORMAL": 7
     },
     "indices": 8,
     "material": 2
    },
    {
     "attributes": {
      "POSITION": 9,
      "NORMAL": 10
     },
     "indices": 11,
     "material": 3
    },
    {
     "attributes": {
      "POSITION": 12,
      "NORMAL": 13
     },
     "indices": 14,
     "material": 4
    },
    {
     "attributes": {
      "POSITION": 15,
      "NORMAL": 16
     },
     "indices": 17,
     "material": 5
    },
    {
     "attributes": {
      "POSITION": 18,
      "NORMAL": 19
     },
     "indices": 20,
     "material": 6
    }
   ]
  },
  {
   "name": "OnsenRyokan_Furniture",
   "primitives": [
    {
     "attributes": {
      "POSITION": 21,
      "NORMAL": 22
     },
     "indices": 23,
     "material": 0
    },
    {
     "attributes": {
      "POSITION": 24,
      "NORMAL": 25
     },
     "indices": 26,
     "material": 7
    },
    {
     "attributes": {
      "POSITION": 27,
      "NORMAL": 28
     },
     "indices": 29,
     "material": 8
    },
    {
     "attributes": {
      "POSITION": 30,
      "NORMAL": 31
     },
     "indices": 14,
     "material": 9
    },
    {
     "attributes": {
      "POSITION": 32,
      "NORMAL": 33
     },
     "indices": 34,
     "material": 6
    },
    {
     "attributes": {
      "POSITION": 35,
      "NORMAL": 36
     },
     "indices": 17,
     "material": 10
    }
   ]
  },
  {
   "name": "OnsenRyokan_Glazing",
   "primitives": [
    {
     "attributes": {
      "POSITION": 37,
      "NORMAL": 38
     },
     "indices": 14,
     "material": 11
    },
    {
     "attributes": {
      "POSITION": 39,
      "NORMAL": 40
     },
     "indices": 41,
     "material": 12
    },
    {
     "attributes": {
      "POSITION": 42,
      "NORMAL": 43
     },
     "indices": 44,
     "material": 13
    }
   ]
  },
  {
   "name": "LIB_Kitchen_Fridge",
   "primitives": [
    {
     "attributes": {
      "POSITION": 45,
      "NORMAL": 46
     },
     "indices": 11,
     "material": 8
    },
    {
     "attributes": {
      "POSITION": 47,
      "NORMAL": 48
     },
     "indices": 17,
     "material": 14
    },
    {
     "attributes": {
      "POSITION": 49,
      "NORMAL": 50
     },
     "indices": 8,
     "material": 15
    }
   ]
  },
  {
   "name": "LIB_Kitchen_PrepTable",
   "primitives": [
    {
     "attributes": {
      "POSITION": 51,
      "NORMAL": 52
     },
     "indices": 53,
     "material": 8
    },
    {
     "attributes": {
      "POSITION": 54,
      "NORMAL": 55
     },
     "indices": 8,
     "material": 16
    }
   ]
  },
  {
   "name": "LIB_Office_Sofa",
   "primitives": [
    {
     "attributes": {
      "POSITION": 56,
      "NORMAL": 57
     },
     "indices": 58,
     "material": 17
    }
   ]
  },
  {
   "extras": {
    "placeholder_note": "REMOVED 2026-09-28: base mesh was from elbolilloduro BurgerPiz pack (base mesh removed); this is a same-size PLACEHOLDER BOX, needs a modeller (see kits/library/placeholders.json)"
   },
   "name": "LIB_Rest_Chair",
   "primitives": [
    {
     "attributes": {
      "POSITION": 59,
      "NORMAL": 60
     },
     "indices": 61,
     "material": 0
    }
   ]
  },
  {
   "extras": {
    "placeholder_note": "REMOVED 2026-09-28: base mesh was from elbolilloduro BurgerPiz pack (base mesh removed); this is a same-size PLACEHOLDER BOX, needs a modeller (see kits/library/placeholders.json)"
   },
   "name": "LIB_Rest_Table",
   "primitives": [
    {
     "attributes": {
      "POSITION": 62,
      "NORMAL": 63
     },
     "indices": 61,
     "material": 0
    }
   ]
  },
  {
   "name": "OnsenRyokan_Roof",
   "primitives": [
    {
     "attributes": {
      "POSITION": 64,
      "NORMAL": 65
     },
     "indices": 66,
     "material": 2
    },
    {
     "attributes": {
      "POSITION": 67,
      "NORMAL": 68
     },
     "indices": 69,
     "material": 1
    },
    {
     "attributes": {
      "POSITION": 70,
      "NORMAL": 71
     },
     "indices": 72,
     "material": 3
    }
   ]
  },
  {
   "name": "OnsenRyokan_Shafts",
   "primitives": [
    {
     "attributes": {
      "POSITION": 73,
      "NORMAL": 74
     },
     "indices": 75,
     "material": 18
    }
   ]
  },
  {
   "extras": {
    "placeholder_note": "REMOVED 2026-09-28: base mesh was from elbolilloduro 6TWELVE pack (base mesh removed); this is a same-size PLACEHOLDER BOX, needs a modeller (see kits/library/placeholders.json)"
   },
   "name": "LIB_Shop_GondolaShort",
   "primitives": [
    {
     "attributes": {
      "POSITION": 76,
      "NORMAL": 77
     },
     "indices": 61,
     "material": 12
    }
   ]
  },
  {
   "name": "OnsenRyokan_Site",
   "primitives": [
    {
     "attributes": {
      "POSITION": 78,
      "NORMAL": 79
     },
     "indices": 80,
     "material": 19
    },
    {
     "attributes": {
      "POSITION": 81,
      "NORMAL": 82
     },
     "indices": 11,
     "material": 3
    },
    {
     "attributes": {
      "POSITION": 83,
      "NORMAL": 84
     },
     "indices": 85,
     "material": 0
    }
   ]
  },
  {
   "name": "OnsenRyokan_Stairs",
   "primitives": [
    {
     "attributes": {
      "POSITION": 86,
      "NORMAL": 87
     },
     "indices": 88,
     "material": 18
    },
    {
     "attributes": {
      "POSITION": 89,
      "NORMAL": 90
     },
     "indices": 91,
     "material": 14
    },
    {
     "attributes": {
      "POSITION": 92,
      "NORMAL": 93
     },
     "indices": 94,
     "material": 1
    }
   ]
  },
  {
   "name": "OnsenRyokan_Structure",
   "primitives": [
    {
     "attributes": {
      "POSITION": 95,
      "NORMAL": 96
     },
     "indices": 97,
     "material": 0
    },
    {
     "attributes": {
      "POSITION": 98,
      "NORMAL": 99
     },
     "indices": 100,
     "material": 19
    },
    {
     "attributes": {
      "POSITION": 101,
      "NORMAL": 102
     },
     "indices": 103,
     "material": 7
    }
   ]
  },
  {
   "name": "OnsenRyokan_Walls_0.3",
   "primitives": [
    {
     "attributes": {
      "POSITION": 104,
      "NORMAL": 105
     },
     "indices": 106,
     "material": 1
    }
   ]
  },
  {
   "name": "OnsenRyokan_Walls_3.8",
   "primitives": [
    {
     "attributes": {
      "POSITION": 107,
      "NORMAL": 108
     },
     "indices": 109,
     "material": 1
    }
   ]
  }
 ],
 "accessors": [
  {
   "bufferView": 0,
   "componentType": 5126,
   "count": 960,
   "max": [
    18,
    4.400000095367432,
    13.350000381469727
   ],
   "min": [
    -18,
    0,
    -10
   ],
   "type": "VEC3"
  },
  {
   "bufferView": 1,
   "componentType": 5126,
   "count": 960,
   "type": "VEC3"
  },
  {
   "bufferView": 2,
   "componentType": 5123,
   "count": 1770,
   "type": "SCALAR"
  },
  {
   "bufferView": 3,
   "componentType": 5126,
   "count": 2426,
   "max": [
    18,
    7,
    10
   ],
   "min": [
    -18,
    0,
    -10
   ],
   "type": "VEC3"
  },
  {
   "bufferView": 4,
   "componentType": 5126,
   "count": 2426,
   "type": "VEC3"
  },
  {
   "bufferView": 5,
   "componentType": 5123,
   "count": 5322,
   "type": "SCALAR"
  },
  {
   "bufferView": 6,
   "componentType": 5126,
   "count": 24,
   "max": [
    4,
    3.450000047683716,
    13.5
   ],
   "min": [
    -4,
    3.200000047683716,
    10
   ],
   "type": "VEC3"
  },
  {
   "bufferView": 7,
   "componentType": 5126,
   "count": 24,
   "type": "VEC3"
  },
  {
   "bufferView": 8,
   "componentType": 5123,
   "count": 36,
   "type": "SCALAR"
  },
  {
   "bufferView": 9,
   "componentType": 5126,
   "count": 72,
   "max": [
    4.099999904632568,
    3.549999952316284,
    13.600000381469727
   ],
   "min": [
    -4.099999904632568,
    2.0999999046325684,
    10
   ],
   "type": "VEC3"
  },
  {
   "bufferView": 10,
   "componentType": 5126,
   "count": 72,
   "type": "VEC3"
  },
  {
   "bufferView": 11,
   "componentType": 5123,
   "count": 108,
   "type": "SCALAR"
  },
  {
   "bufferView": 12,
   "componentType": 5126,
   "count": 264,
   "max": [
    1.190000057220459,
    2.5,
    10.109999656677246
   ],
   "min": [
    -14.289999961853027,
    1.9500000476837158,
    -1.7300000190734863
   ],
   "type": "VEC3"
  },
  {
   "bufferView": 13,
   "componentType": 5126,
   "count": 264,
   "type": "VEC3"
  },
  {
   "bufferView": 14,
   "componentType": 5123,
   "count": 396,
   "type": "SCALAR"
  },
  {
   "bufferView": 15,
   "componentType": 5126,
   "count": 48,
   "max": [
    3.4200000762939453,
    2.759999990463257,
    10.619999885559082
   ],
   "min": [
    -3.4200000762939453,
    2.700000047683716,
    10.380000114440918
   ],
   "type": "VEC3"
  },
  {
   "bufferView": 16,
   "componentType": 5126,
   "count": 48,
   "type": "VEC3"
  },
  {
   "bufferView": 17,
   "componentType": 5123,
   "count": 72,
   "type": "SCALAR"
  },
  {
   "bufferView": 18,
   "componentType": 5126,
   "count": 120,
   "max": [
    14.289999961853027,
    2.5,
    -1.7100000381469727
   ],
   "min": [
    12.510000228881836,
    1.9500000476837158,
    -1.7300000190734863
   ],
   "type": "VEC3"
  },
  {
   "bufferView": 19,
   "componentType": 5126,
   "count": 120,
   "type": "VEC3"
  },
  {
   "bufferView": 20,
   "componentType": 5123,
   "count": 180,
   "type": "SCALAR"
  },
  {
   "bufferView": 21,
   "componentType": 5126,
   "count": 3408,
   "max": [
    17.57200050354004,
    4.142000198364258,
    9.5
   ],
   "min": [
    -16.802000045776367,
    0,
    -9.800000190734863
   ],
   "type": "VEC3"
  },
  {
   "bufferView": 22,
   "componentType": 5126,
   "count": 3408,
   "type": "VEC3"
  },
  {
   "bufferView": 23,
   "componentType": 5123,
   "count": 5112,
   "type": "SCALAR"
  },
  {
   "bufferView": 24,
   "componentType": 5126,
   "count": 616,
   "max": [
    17.600000381469727,
    2.0999999046325684,
    7.550000190734863
   ],
   "min": [
    -17.600000381469727,
    -0.20000000298023224,
    -9.800000190734863
   ],
   "type": "VEC3"
  },
  {
   "bufferView": 25,
   "componentType": 5126,
   "count": 616,
   "type": "VEC3"
  },
  {
   "bufferView": 26,
   "componentType": 5123,
   "count": 1008,
   "type": "SCALAR"
  },
  {
   "bufferView": 27,
   "componentType": 5126,
   "count": 232,
   "max": [
    9.5,
    1.2999999523162842,
    -5.900000095367432
   ],
   "min": [
    -9.5,
    1.149999976158142,
    -9.800000190734863
   ],
   "type": "VEC3"
  },
  {
   "bufferView": 28,
   "componentType": 5126,
   "count": 232,
   "type": "VEC3"
  },
  {
   "bufferView": 29,
   "componentType": 5123,
   "count": 348,
   "type": "SCALAR"
  },
  {
   "bufferView": 30,
   "componentType": 5126,
   "count": 264,
   "max": [
    17.700000762939453,
    3.812000036239624,
    8.600000381469727
   ],
   "min": [
    -17.700000762939453,
    0.30000001192092896,
    -9.800000190734863
   ],
   "type": "VEC3"
  },
  {
   "bufferView": 31,
   "componentType": 5126,
   "count": 264,
   "type": "VEC3"
  },
  {
   "bufferView": 32,
   "componentType": 5126,
   "count": 1488,
   "max": [
    15.170000076293945,
    3.871999979019165,
    5.869999885559082
   ],
   "min": [
    -15.170000076293945,
    0.31200000643730164,
    -8.520000457763672
   ],
   "type": "VEC3"
  },
  {
   "bufferView": 33,
   "componentType": 5126,
   "count": 1488,
   "type": "VEC3"
  },
  {
   "bufferView": 34,
   "componentType": 5123,
   "count": 2232,
   "type": "SCALAR"
  },
  {
   "bufferView": 35,
   "componentType": 5126,
   "count": 48,
   "max": [
    8.800000190734863,
    1.149999976158142,
    -9.149999618530273
   ],
   "min": [
    3.200000047683716,
    0.30000001192092896,
    -9.800000190734863
   ],
   "type": "VEC3"
  },
  {
   "bufferView": 36,
   "componentType": 5126,
   "count": 48,
   "type": "VEC3"
  },
  {
   "bufferView": 37,
   "componentType": 5126,
   "count": 264,
   "max": [
    14.649999618530273,
    2.700000047683716,
    9.911999702453613
   ],
   "min": [
    -17.91200065612793,
    1.2000000476837158,
    -7.366666793823242
   ],
   "type": "VEC3"
  },
  {
   "bufferView": 38,
   "componentType": 5126,
   "count": 264,
   "type": "VEC3"
  },
  {
   "bufferView": 39,
   "componentType": 5126,
   "count": 2640,
   "max": [
    16.28333282470703,
    6.150000095367432,
    10.010000228881836
   ],
   "min": [
    -18.010000228881836,
    -0.05000000074505806,
    -10.010000228881836
   ],
   "type": "VEC3"
  },
  {
   "bufferView": 40,
   "componentType": 5126,
   "count": 2640,
   "type": "VEC3"
  },
  {
   "bufferView": 41,
   "componentType": 5123,
   "count": 4752,
   "type": "SCALAR"
  },
  {
   "bufferView": 42,
   "componentType": 5126,
   "count": 432,
   "max": [
    16.233333587646484,
    6.099999904632568,
    9.911999702453613
   ],
   "min": [
    -16.233333587646484,
    4.300000190734863,
    -9.911999702453613
   ],
   "type": "VEC3"
  },
  {
   "bufferView": 43,
   "componentType": 5126,
   "count": 432,
   "type": "VEC3"
  },
  {
   "bufferView": 44,
   "componentType": 5123,
   "count": 648,
   "type": "SCALAR"
  },
  {
   "bufferView": 45,
   "componentType": 5126,
   "count": 72,
   "max": [
    0.6000000238418579,
    1.899999976158142,
    0.4099999964237213
   ],
   "min": [
    -0.6000000238418579,
    0,
    -0.4000000059604645
   ],
   "type": "VEC3"
  },
  {
   "bufferView": 46,
   "componentType": 5126,
   "count": 72,
   "type": "VEC3"
  },
  {
   "bufferView": 47,
   "componentType": 5126,
   "count": 48,
   "max": [
    0.5400000214576721,
    1.5,
    0.44999998807907104
   ],
   "min": [
    -0.5400000214576721,
    0.8999999761581421,
    0.4099999964237213
   ],
   "type": "VEC3"
  },
  {
   "bufferView": 48,
   "componentType": 5126,
   "count": 48,
   "type": "VEC3"
  },
  {
   "bufferView": 49,
   "componentType": 5126,
   "count": 24,
   "max": [
    0.20000000298023224,
    1.7999999523162842,
    0.41100001335144043
   ],
   "min": [
    -0.20000000298023224,
    1.7000000476837158,
    0.4099999964237213
   ],
   "type": "VEC3"
  },
  {
   "bufferView": 50,
   "componentType": 5126,
   "count": 24,
   "type": "VEC3"
  },
  {
   "bufferView": 51,
   "componentType": 5126,
   "count": 144,
   "max": [
    0.8999999761581421,
    0.8500000238418579,
    0.375
   ],
   "min": [
    -0.8999999761581421,
    0,
    -0.375
   ],
   "type": "VEC3"
  },
  {
   "bufferView": 52,
   "componentType": 5126,
   "count": 144,
   "type": "VEC3"
  },
  {
   "bufferView": 53,
   "componentType": 5123,
   "count": 216,
   "type": "SCALAR"
  },
  {
   "bufferView": 54,
   "componentType": 5126,
   "count": 24,
   "max": [
    0.6000000238418579,
    0.44999998807907104,
    0.25
   ],
   "min": [
    -0.699999988079071,
    0.18000000715255737,
    -0.25
   ],
   "type": "VEC3"
  },
  {
   "bufferView": 55,
   "componentType": 5126,
   "count": 24,
   "type": "VEC3"
  },
  {
   "bufferView": 56,
   "componentType": 5126,
   "count": 82,
   "max": [
    0.8999999761581421,
    0.800000011920929,
    0.41999998688697815
   ],
   "min": [
    -0.8999999761581421,
    0,
    -0.41999998688697815
   ],
   "type": "VEC3"
  },
  {
   "bufferView": 57,
   "componentType": 5126,
   "count": 82,
   "type": "VEC3"
  },
  {
   "bufferView": 58,
   "componentType": 5123,
   "count": 144,
   "type": "SCALAR"
  },
  {
   "bufferView": 59,
   "componentType": 5126,
   "count": 24,
   "max": [
    0.2548282742500305,
    0.8499999642372131,
    0.2184925079345703
   ],
   "min": [
    -0.25482824444770813,
    0,
    -0.21849441528320312
   ],
   "type": "VEC3"
  },
  {
   "bufferView": 60,
   "componentType": 5126,
   "count": 24,
   "type": "VEC3"
  },
  {
   "bufferView": 61,
   "componentType": 5123,
   "count": 36,
   "type": "SCALAR"
  },
  {
   "bufferView": 62,
   "componentType": 5126,
   "count": 24,
   "max": [
    0.7024393081665039,
    0.7199999690055847,
    0.40633583068847656
   ],
   "min": [
    -0.7024393081665039,
    0,
    -0.40633392333984375
   ],
   "type": "VEC3"
  },
  {
   "bufferView": 63,
   "componentType": 5126,
   "count": 24,
   "type": "VEC3"
  },
  {
   "bufferView": 64,
   "componentType": 5126,
   "count": 44,
   "max": [
    19.200000762939453,
    10.399999618530273,
    11.199999809265137
   ],
   "min": [
    -19.200000762939453,
    7,
    -11.199999809265137
   ],
   "type": "VEC3"
  },
  {
   "bufferView": 65,
   "componentType": 5126,
   "count": 44,
   "type": "VEC3"
  },
  {
   "bufferView": 66,
   "componentType": 5123,
   "count": 66,
   "type": "SCALAR"
  },
  {
   "bufferView": 67,
   "componentType": 5126,
   "count": 6,
   "max": [
    18,
    9.857142448425293,
    10
   ],
   "min": [
    -18,
    7,
    -10
   ],
   "type": "VEC3"
  },
  {
   "bufferView": 68,
   "componentType": 5126,
   "count": 6,
   "type": "VEC3"
  },
  {
   "bufferView": 69,
   "componentType": 5123,
   "count": 6,
   "type": "SCALAR"
  },
  {
   "bufferView": 70,
   "componentType": 5126,
   "count": 36,
   "max": [
    19.200000762939453,
    10.550000190734863,
    11.199999809265137
   ],
   "min": [
    -19.200000762939453,
    7.199999809265137,
    -11.199999809265137
   ],
   "type": "VEC3"
  },
  {
   "bufferView": 71,
   "componentType": 5126,
   "count": 36,
   "type": "VEC3"
  },
  {
   "bufferView": 72,
   "componentType": 5123,
   "count": 54,
   "type": "SCALAR"
  },
  {
   "bufferView": 73,
   "componentType": 5126,
   "count": 168,
   "max": [
    8.449999809265137,
    7.25,
    2.9000000953674316
   ],
   "min": [
    6.550000190734863,
    -0.8999999761581421,
    1
   ],
   "type": "VEC3"
  },
  {
   "bufferView": 74,
   "componentType": 5126,
   "count": 168,
   "type": "VEC3"
  },
  {
   "bufferView": 75,
   "componentType": 5123,
   "count": 324,
   "type": "SCALAR"
  },
  {
   "bufferView": 76,
   "componentType": 5126,
   "count": 24,
   "max": [
    1.0511170625686646,
    1.399999976158142,
    0.3704643249511719
   ],
   "min": [
    -1.0511168241500854,
    0,
    -0.37046337127685547
   ],
   "type": "VEC3"
  },
  {
   "bufferView": 77,
   "componentType": 5126,
   "count": 24,
   "type": "VEC3"
  },
  {
   "bufferView": 78,
   "componentType": 5126,
   "count": 576,
   "max": [
    21,
    1.2000000476837158,
    16
   ],
   "min": [
    -21,
    -0.029999999329447746,
    -22.5
   ],
   "type": "VEC3"
  },
  {
   "bufferView": 79,
   "componentType": 5126,
   "count": 576,
   "type": "VEC3"
  },
  {
   "bufferView": 80,
   "componentType": 5123,
   "count": 1008,
   "type": "SCALAR"
  },
  {
   "bufferView": 81,
   "componentType": 5126,
   "count": 72,
   "max": [
    21,
    1,
    16
   ],
   "min": [
    -21,
    0,
    -20.799999237060547
   ],
   "type": "VEC3"
  },
  {
   "bufferView": 82,
   "componentType": 5126,
   "count": 72,
   "type": "VEC3"
  },
  {
   "bufferView": 83,
   "componentType": 5126,
   "count": 120,
   "max": [
    17.5,
    2.4000000953674316,
    -10
   ],
   "min": [
    -17.5,
    0,
    -21
   ],
   "type": "VEC3"
  },
  {
   "bufferView": 84,
   "componentType": 5126,
   "count": 120,
   "type": "VEC3"
  },
  {
   "bufferView": 85,
   "componentType": 5123,
   "count": 216,
   "type": "SCALAR"
  },
  {
   "bufferView": 86,
   "componentType": 5126,
   "count": 996,
   "max": [
    17.799999237060547,
    3.799999952316284,
    9.800000190734863
   ],
   "min": [
    -17.799999237060547,
    0.30000001192092896,
    5.599999904632568
   ],
   "type": "VEC3"
  },
  {
   "bufferView": 87,
   "componentType": 5126,
   "count": 996,
   "type": "VEC3"
  },
  {
   "bufferView": 88,
   "componentType": 5123,
   "count": 1512,
   "type": "SCALAR"
  },
  {
   "bufferView": 89,
   "componentType": 5126,
   "count": 960,
   "max": [
    17.799999237060547,
    3.805000066757202,
    8.300000190734863
   ],
   "min": [
    -17.799999237060547,
    0.45500001311302185,
    5.599999904632568
   ],
   "type": "VEC3"
  },
  {
   "bufferView": 90,
   "componentType": 5126,
   "count": 960,
   "type": "VEC3"
  },
  {
   "bufferView": 91,
   "componentType": 5123,
   "count": 1440,
   "type": "SCALAR"
  },
  {
   "bufferView": 92,
   "componentType": 5126,
   "count": 96,
   "max": [
    17.799999237060547,
    4.900000095367432,
    8.300000190734863
   ],
   "min": [
    -16.559999465942383,
    0.30000001192092896,
    5.539999961853027
   ],
   "type": "VEC3"
  },
  {
   "bufferView": 93,
   "componentType": 5126,
   "count": 96,
   "type": "VEC3"
  },
  {
   "bufferView": 94,
   "componentType": 5123,
   "count": 144,
   "type": "SCALAR"
  },
  {
   "bufferView": 95,
   "componentType": 5126,
   "count": 368,
   "max": [
    17.979999542236328,
    3.799999952316284,
    9.979999542236328
   ],
   "min": [
    -17.979999542236328,
    -0.20000000298023224,
    -9.979999542236328
   ],
   "type": "VEC3"
  },
  {
   "bufferView": 96,
   "componentType": 5126,
   "count": 368,
   "type": "VEC3"
  },
  {
   "bufferView": 97,
   "componentType": 5123,
   "count": 684,
   "type": "SCALAR"
  },
  {
   "bufferView": 98,
   "componentType": 5126,
   "count": 24,
   "max": [
    3,
    0,
    10
   ],
   "min": [
    -3,
    -0.20000000298023224,
    7
   ],
   "type": "VEC3"
  },
  {
   "bufferView": 99,
   "componentType": 5126,
   "count": 24,
   "type": "VEC3"
  },
  {
   "bufferView": 100,
   "componentType": 5123,
   "count": 36,
   "type": "SCALAR"
  },
  {
   "bufferView": 101,
   "componentType": 5126,
   "count": 24,
   "max": [
    3,
    0.30000001192092896,
    7.099999904632568
   ],
   "min": [
    -3,
    0,
    7
   ],
   "type": "VEC3"
  },
  {
   "bufferView": 102,
   "componentType": 5126,
   "count": 24,
   "type": "VEC3"
  },
  {
   "bufferView": 103,
   "componentType": 5123,
   "count": 36,
   "type": "SCALAR"
  },
  {
   "bufferView": 104,
   "componentType": 5126,
   "count": 384,
   "max": [
    17.799999237060547,
    3.5999999046325684,
    -1.7400000095367432
   ],
   "min": [
    -17.799999237060547,
    0.30000001192092896,
    -9.800000190734863
   ],
   "type": "VEC3"
  },
  {
   "bufferView": 105,
   "componentType": 5126,
   "count": 384,
   "type": "VEC3"
  },
  {
   "bufferView": 106,
   "componentType": 5123,
   "count": 648,
   "type": "SCALAR"
  },
  {
   "bufferView": 107,
   "componentType": 5126,
   "count": 792,
   "max": [
    17.799999237060547,
    6.800000190734863,
    9.800000190734863
   ],
   "min": [
    -17.799999237060547,
    3.799999952316284,
    -9.800000190734863
   ],
   "type": "VEC3"
  },
  {
   "bufferView": 108,
   "componentType": 5126,
   "count": 792,
   "type": "VEC3"
  },
  {
   "bufferView": 109,
   "componentType": 5123,
   "count": 1332,
   "type": "SCALAR"
  }
 ],
 "bufferViews": [
  {
   "buffer": 0,
   "byteLength": 11520,
   "byteOffset": 0,
   "target": 34962
  },
  {
   "buffer": 0,
   "byteLength": 11520,
   "byteOffset": 11520,
   "target": 34962
  },
  {
   "buffer": 0,
   "byteLength": 3540,
   "byteOffset": 23040,
   "target": 34963
  },
  {
   "buffer": 0,
   "byteLength": 29112,
   "byteOffset": 26580,
   "target": 34962
  },
  {
   "buffer": 0,
   "byteLength": 29112,
   "byteOffset": 55692,
   "target": 34962
  },
  {
   "buffer": 0,
   "byteLength": 10644,
   "byteOffset": 84804,
   "target": 34963
  },
  {
   "buffer": 0,
   "byteLength": 288,
   "byteOffset": 95448,
   "target": 34962
  },
  {
   "buffer": 0,
   "byteLength": 288,
   "byteOffset": 95736,
   "target": 34962
  },
  {
   "buffer": 0,
   "byteLength": 72,
   "byteOffset": 96024,
   "target": 34963
  },
  {
   "buffer": 0,
   "byteLength": 864,
   "byteOffset": 96096,
   "target": 34962
  },
  {
   "buffer": 0,
   "byteLength": 864,
   "byteOffset": 96960,
   "target": 34962
  },
  {
   "buffer": 0,
   "byteLength": 216,
   "byteOffset": 97824,
   "target": 34963
  },
  {
   "buffer": 0,
   "byteLength": 3168,
   "byteOffset": 98040,
   "target": 34962
  },
  {
   "buffer": 0,
   "byteLength": 3168,
   "byteOffset": 101208,
   "target": 34962
  },
  {
   "buffer": 0,
   "byteLength": 792,
   "byteOffset": 104376,
   "target": 34963
  },
  {
   "buffer": 0,
   "byteLength": 576,
   "byteOffset": 105168,
   "target": 34962
  },
  {
   "buffer": 0,
   "byteLength": 576,
   "byteOffset": 105744,
   "target": 34962
  },
  {
   "buffer": 0,
   "byteLength": 144,
   "byteOffset": 106320,
   "target": 34963
  },
  {
   "buffer": 0,
   "byteLength": 1440,
   "byteOffset": 106464,
   "target": 34962
  },
  {
   "buffer": 0,
   "byteLength": 1440,
   "byteOffset": 107904,
   "target": 34962
  },
  {
   "buffer": 0,
   "byteLength": 360,
   "byteOffset": 109344,
   "target": 34963
  },
  {
   "buffer": 0,
   "byteLength": 40896,
   "byteOffset": 109704,
   "target": 34962
  },
  {
   "buffer": 0,
   "byteLength": 40896,
   "byteOffset": 150600,
   "target": 34962
  },
  {
   "buffer": 0,
   "byteLength": 10224,
   "byteOffset": 191496,
   "target": 34963
  },
  {
   "buffer": 0,
   "byteLength": 7392,
   "byteOffset": 201720,
   "target": 34962
  },
  {
   "buffer": 0,
   "byteLength": 7392,
   "byteOffset": 209112,
   "target": 34962
  },
  {
   "buffer": 0,
   "byteLength": 2016,
   "byteOffset": 216504,
   "target": 34963
  },
  {
   "buffer": 0,
   "byteLength": 2784,
   "byteOffset": 218520,
   "target": 34962
  },
  {
   "buffer": 0,
   "byteLength": 2784,
   "byteOffset": 221304,
   "target": 34962
  },
  {
   "buffer": 0,
   "byteLength": 696,
   "byteOffset": 224088,
   "target": 34963
  },
  {
   "buffer": 0,
   "byteLength": 3168,
   "byteOffset": 224784,
   "target": 34962
  },
  {
   "buffer": 0,
   "byteLength": 3168,
   "byteOffset": 227952,
   "target": 34962
  },
  {
   "buffer": 0,
   "byteLength": 17856,
   "byteOffset": 231120,
   "target": 34962
  },
  {
   "buffer": 0,
   "byteLength": 17856,
   "byteOffset": 248976,
   "target": 34962
  },
  {
   "buffer": 0,
   "byteLength": 4464,
   "byteOffset": 266832,
   "target": 34963
  },
  {
   "buffer": 0,
   "byteLength": 576,
   "byteOffset": 271296,
   "target": 34962
  },
  {
   "buffer": 0,
   "byteLength": 576,
   "byteOffset": 271872,
   "target": 34962
  },
  {
   "buffer": 0,
   "byteLength": 3168,
   "byteOffset": 272448,
   "target": 34962
  },
  {
   "buffer": 0,
   "byteLength": 3168,
   "byteOffset": 275616,
   "target": 34962
  },
  {
   "buffer": 0,
   "byteLength": 31680,
   "byteOffset": 278784,
   "target": 34962
  },
  {
   "buffer": 0,
   "byteLength": 31680,
   "byteOffset": 310464,
   "target": 34962
  },
  {
   "buffer": 0,
   "byteLength": 9504,
   "byteOffset": 342144,
   "target": 34963
  },
  {
   "buffer": 0,
   "byteLength": 5184,
   "byteOffset": 351648,
   "target": 34962
  },
  {
   "buffer": 0,
   "byteLength": 5184,
   "byteOffset": 356832,
   "target": 34962
  },
  {
   "buffer": 0,
   "byteLength": 1296,
   "byteOffset": 362016,
   "target": 34963
  },
  {
   "buffer": 0,
   "byteLength": 864,
   "byteOffset": 363312,
   "target": 34962
  },
  {
   "buffer": 0,
   "byteLength": 864,
   "byteOffset": 364176,
   "target": 34962
  },
  {
   "buffer": 0,
   "byteLength": 576,
   "byteOffset": 365040,
   "target": 34962
  },
  {
   "buffer": 0,
   "byteLength": 576,
   "byteOffset": 365616,
   "target": 34962
  },
  {
   "buffer": 0,
   "byteLength": 288,
   "byteOffset": 366192,
   "target": 34962
  },
  {
   "buffer": 0,
   "byteLength": 288,
   "byteOffset": 366480,
   "target": 34962
  },
  {
   "buffer": 0,
   "byteLength": 1728,
   "byteOffset": 366768,
   "target": 34962
  },
  {
   "buffer": 0,
   "byteLength": 1728,
   "byteOffset": 368496,
   "target": 34962
  },
  {
   "buffer": 0,
   "byteLength": 432,
   "byteOffset": 370224,
   "target": 34963
  },
  {
   "buffer": 0,
   "byteLength": 288,
   "byteOffset": 370656,
   "target": 34962
  },
  {
   "buffer": 0,
   "byteLength": 288,
   "byteOffset": 370944,
   "target": 34962
  },
  {
   "buffer": 0,
   "byteLength": 984,
   "byteOffset": 371232,
   "target": 34962
  },
  {
   "buffer": 0,
   "byteLength": 984,
   "byteOffset": 372216,
   "target": 34962
  },
  {
   "buffer": 0,
   "byteLength": 288,
   "byteOffset": 373200,
   "target": 34963
  },
  {
   "buffer": 0,
   "byteLength": 288,
   "byteOffset": 373488,
   "target": 34962
  },
  {
   "buffer": 0,
   "byteLength": 288,
   "byteOffset": 373776,
   "target": 34962
  },
  {
   "buffer": 0,
   "byteLength": 72,
   "byteOffset": 374064,
   "target": 34963
  },
  {
   "buffer": 0,
   "byteLength": 288,
   "byteOffset": 374136,
   "target": 34962
  },
  {
   "buffer": 0,
   "byteLength": 288,
   "byteOffset": 374424,
   "target": 34962
  },
  {
   "buffer": 0,
   "byteLength": 528,
   "byteOffset": 374712,
   "target": 34962
  },
  {
   "buffer": 0,
   "byteLength": 528,
   "byteOffset": 375240,
   "target": 34962
  },
  {
   "buffer": 0,
   "byteLength": 132,
   "byteOffset": 375768,
   "target": 34963
  },
  {
   "buffer": 0,
   "byteLength": 72,
   "byteOffset": 375900,
   "target": 34962
  },
  {
   "buffer": 0,
   "byteLength": 72,
   "byteOffset": 375972,
   "target": 34962
  },
  {
   "buffer": 0,
   "byteLength": 12,
   "byteOffset": 376044,
   "target": 34963
  },
  {
   "buffer": 0,
   "byteLength": 432,
   "byteOffset": 376056,
   "target": 34962
  },
  {
   "buffer": 0,
   "byteLength": 432,
   "byteOffset": 376488,
   "target": 34962
  },
  {
   "buffer": 0,
   "byteLength": 108,
   "byteOffset": 376920,
   "target": 34963
  },
  {
   "buffer": 0,
   "byteLength": 2016,
   "byteOffset": 377028,
   "target": 34962
  },
  {
   "buffer": 0,
   "byteLength": 2016,
   "byteOffset": 379044,
   "target": 34962
  },
  {
   "buffer": 0,
   "byteLength": 648,
   "byteOffset": 381060,
   "target": 34963
  },
  {
   "buffer": 0,
   "byteLength": 288,
   "byteOffset": 381708,
   "target": 34962
  },
  {
   "buffer": 0,
   "byteLength": 288,
   "byteOffset": 381996,
   "target": 34962
  },
  {
   "buffer": 0,
   "byteLength": 6912,
   "byteOffset": 382284,
   "target": 34962
  },
  {
   "buffer": 0,
   "byteLength": 6912,
   "byteOffset": 389196,
   "target": 34962
  },
  {
   "buffer": 0,
   "byteLength": 2016,
   "byteOffset": 396108,
   "target": 34963
  },
  {
   "buffer": 0,
   "byteLength": 864,
   "byteOffset": 398124,
   "target": 34962
  },
  {
   "buffer": 0,
   "byteLength": 864,
   "byteOffset": 398988,
   "target": 34962
  },
  {
   "buffer": 0,
   "byteLength": 1440,
   "byteOffset": 399852,
   "target": 34962
  },
  {
   "buffer": 0,
   "byteLength": 1440,
   "byteOffset": 401292,
   "target": 34962
  },
  {
   "buffer": 0,
   "byteLength": 432,
   "byteOffset": 402732,
   "target": 34963
  },
  {
   "buffer": 0,
   "byteLength": 11952,
   "byteOffset": 403164,
   "target": 34962
  },
  {
   "buffer": 0,
   "byteLength": 11952,
   "byteOffset": 415116,
   "target": 34962
  },
  {
   "buffer": 0,
   "byteLength": 3024,
   "byteOffset": 427068,
   "target": 34963
  },
  {
   "buffer": 0,
   "byteLength": 11520,
   "byteOffset": 430092,
   "target": 34962
  },
  {
   "buffer": 0,
   "byteLength": 11520,
   "byteOffset": 441612,
   "target": 34962
  },
  {
   "buffer": 0,
   "byteLength": 2880,
   "byteOffset": 453132,
   "target": 34963
  },
  {
   "buffer": 0,
   "byteLength": 1152,
   "byteOffset": 456012,
   "target": 34962
  },
  {
   "buffer": 0,
   "byteLength": 1152,
   "byteOffset": 457164,
   "target": 34962
  },
  {
   "buffer": 0,
   "byteLength": 288,
   "byteOffset": 458316,
   "target": 34963
  },
  {
   "buffer": 0,
   "byteLength": 4416,
   "byteOffset": 458604,
   "target": 34962
  },
  {
   "buffer": 0,
   "byteLength": 4416,
   "byteOffset": 463020,
   "target": 34962
  },
  {
   "buffer": 0,
   "byteLength": 1368,
   "byteOffset": 467436,
   "target": 34963
  },
  {
   "buffer": 0,
   "byteLength": 288,
   "byteOffset": 468804,
   "target": 34962
  },
  {
   "buffer": 0,
   "byteLength": 288,
   "byteOffset": 469092,
   "target": 34962
  },
  {
   "buffer": 0,
   "byteLength": 72,
   "byteOffset": 469380,
   "target": 34963
  },
  {
   "buffer": 0,
   "byteLength": 288,
   "byteOffset": 469452,
   "target": 34962
  },
  {
   "buffer": 0,
   "byteLength": 288,
   "byteOffset": 469740,
   "target": 34962
  },
  {
   "buffer": 0,
   "byteLength": 72,
   "byteOffset": 470028,
   "target": 34963
  },
  {
   "buffer": 0,
   "byteLength": 4608,
   "byteOffset": 470100,
   "target": 34962
  },
  {
   "buffer": 0,
   "byteLength": 4608,
   "byteOffset": 474708,
   "target": 34962
  },
  {
   "buffer": 0,
   "byteLength": 1296,
   "byteOffset": 479316,
   "target": 34963
  },
  {
   "buffer": 0,
   "byteLength": 9504,
   "byteOffset": 480612,
   "target": 34962
  },
  {
   "buffer": 0,
   "byteLength": 9504,
   "byteOffset": 490116,
   "target": 34962
  },
  {
   "buffer": 0,
   "byteLength": 2664,
   "byteOffset": 499620,
   "target": 34963
  }
 ],
 "buffers": [
  {
   "byteLength": 502284,
   "uri": "OnsenRyokan.bin"
  }
 ]
}
