{
 "asset": {
  "generator": "Khronos glTF Blender I/O v5.2.40",
  "version": "2.0",
  "extras": {
   "exported_by": "blender/tools/export_building_kit.py",
   "module_scale": 1.0
  }
 },
 "extensionsUsed": [
  "KHR_materials_emissive_strength"
 ],
 "scene": 0,
 "scenes": [
  {
   "name": "Koban",
   "nodes": [
    0,
    1,
    2,
    3,
    4,
    5,
    6,
    7,
    8,
    9,
    10,
    11,
    12,
    13,
    14,
    15,
    16
   ]
  }
 ],
 "nodes": [
  {
   "extras": {
    "edit_note": "A mission building (blender/tools/build_interior_blends.py, seed blender/tools/interior_plans.py): a PLACEHOLDER shell and fit-out at its real Japanese size -- remodel freely. Keep the frame (origin = plot centre on the ground, street -Y), the floor levels, and move the Empties with what they belong to: DOOR_ (interior door, arrow OUT of the room), EXIT_ (outer door, arrow out of the building), LIFT_ (a lift: shaft floor centre at the low stop; stops / faces), MARK_ (a mission marker: kind weapon / spawn / cover ...). Keep 1.2 m clear both sides of every door. After editing: tools/building_kit/build_buildings.sh. \u4ea4\u756a: the small police station, one storey; its armoury is one pistol locker (MARK_weapon x2)."
   },
   "mesh": 0,
   "name": "Facade"
  },
  {
   "extras": {
    "edit_note": "A mission building (blender/tools/build_interior_blends.py, seed blender/tools/interior_plans.py): a PLACEHOLDER shell and fit-out at its real Japanese size -- remodel freely. Keep the frame (origin = plot centre on the ground, street -Y), the floor levels, and move the Empties with what they belong to: DOOR_ (interior door, arrow OUT of the room), EXIT_ (outer door, arrow out of the building), LIFT_ (a lift: shaft floor centre at the low stop; stops / faces), MARK_ (a mission marker: kind weapon / spawn / cover ...). Keep 1.2 m clear both sides of every door. After editing: tools/building_kit/build_buildings.sh. \u4ea4\u756a: the small police station, one storey; its armoury is one pistol locker (MARK_weapon x2)."
   },
   "mesh": 1,
   "name": "Glazing"
  },
  {
   "extras": {
    "edit_note": "A mission building (blender/tools/build_interior_blends.py, seed blender/tools/interior_plans.py): a PLACEHOLDER shell and fit-out at its real Japanese size -- remodel freely. Keep the frame (origin = plot centre on the ground, street -Y), the floor levels, and move the Empties with what they belong to: DOOR_ (interior door, arrow OUT of the room), EXIT_ (outer door, arrow out of the building), LIFT_ (a lift: shaft floor centre at the low stop; stops / faces), MARK_ (a mission marker: kind weapon / spawn / cover ...). Keep 1.2 m clear both sides of every door. After editing: tools/building_kit/build_buildings.sh. \u4ea4\u756a: the small police station, one storey; its armoury is one pistol locker (MARK_weapon x2)."
   },
   "mesh": 2,
   "name": "Office_Cabinet",
   "rotation": [
    0,
    -0.7071068286895752,
    0,
    0.7071068286895752
   ],
   "translation": [
    2.5,
    0,
    1.399999976158142
   ]
  },
  {
   "extras": {
    "edit_note": "A mission building (blender/tools/build_interior_blends.py, seed blender/tools/interior_plans.py): a PLACEHOLDER shell and fit-out at its real Japanese size -- remodel freely. Keep the frame (origin = plot centre on the ground, street -Y), the floor levels, and move the Empties with what they belong to: DOOR_ (interior door, arrow OUT of the room), EXIT_ (outer door, arrow out of the building), LIFT_ (a lift: shaft floor centre at the low stop; stops / faces), MARK_ (a mission marker: kind weapon / spawn / cover ...). Keep 1.2 m clear both sides of every door. After editing: tools/building_kit/build_buildings.sh. \u4ea4\u756a: the small police station, one storey; its armoury is one pistol locker (MARK_weapon x2)."
   },
   "mesh": 3,
   "name": "Office_Chair",
   "rotation": [
    0,
    -1,
    0,
    4.371138828673793e-08
   ],
   "translation": [
    0,
    0,
    1.649999976158142
   ]
  },
  {
   "extras": {
    "edit_note": "A mission building (blender/tools/build_interior_blends.py, seed blender/tools/interior_plans.py): a PLACEHOLDER shell and fit-out at its real Japanese size -- remodel freely. Keep the frame (origin = plot centre on the ground, street -Y), the floor levels, and move the Empties with what they belong to: DOOR_ (interior door, arrow OUT of the room), EXIT_ (outer door, arrow out of the building), LIFT_ (a lift: shaft floor centre at the low stop; stops / faces), MARK_ (a mission marker: kind weapon / spawn / cover ...). Keep 1.2 m clear both sides of every door. After editing: tools/building_kit/build_buildings.sh. \u4ea4\u756a: the small police station, one storey; its armoury is one pistol locker (MARK_weapon x2)."
   },
   "mesh": 4,
   "name": "Office_Desk",
   "translation": [
    0,
    0,
    2.299999952316284
   ]
  },
  {
   "extras": {
    "edit_note": "A mission building (blender/tools/build_interior_blends.py, seed blender/tools/interior_plans.py): a PLACEHOLDER shell and fit-out at its real Japanese size -- remodel freely. Keep the frame (origin = plot centre on the ground, street -Y), the floor levels, and move the Empties with what they belong to: DOOR_ (interior door, arrow OUT of the room), EXIT_ (outer door, arrow out of the building), LIFT_ (a lift: shaft floor centre at the low stop; stops / faces), MARK_ (a mission marker: kind weapon / spawn / cover ...). Keep 1.2 m clear both sides of every door. After editing: tools/building_kit/build_buildings.sh. \u4ea4\u756a: the small police station, one storey; its armoury is one pistol locker (MARK_weapon x2)."
   },
   "mesh": 5,
   "name": "Office_Locker",
   "translation": [
    0.20000000298023224,
    0,
    -2.5
   ]
  },
  {
   "extras": {
    "edit_note": "A mission building (blender/tools/build_interior_blends.py, seed blender/tools/interior_plans.py): a PLACEHOLDER shell and fit-out at its real Japanese size -- remodel freely. Keep the frame (origin = plot centre on the ground, street -Y), the floor levels, and move the Empties with what they belong to: DOOR_ (interior door, arrow OUT of the room), EXIT_ (outer door, arrow out of the building), LIFT_ (a lift: shaft floor centre at the low stop; stops / faces), MARK_ (a mission marker: kind weapon / spawn / cover ...). Keep 1.2 m clear both sides of every door. After editing: tools/building_kit/build_buildings.sh. \u4ea4\u756a: the small police station, one storey; its armoury is one pistol locker (MARK_weapon x2)."
   },
   "mesh": 6,
   "name": "Police_GunLocker",
   "translation": [
    -1.7999999523162842,
    0,
    -2.5
   ]
  },
  {
   "extras": {
    "edit_note": "A mission building (blender/tools/build_interior_blends.py, seed blender/tools/interior_plans.py): a PLACEHOLDER shell and fit-out at its real Japanese size -- remodel freely. Keep the frame (origin = plot centre on the ground, street -Y), the floor levels, and move the Empties with what they belong to: DOOR_ (interior door, arrow OUT of the room), EXIT_ (outer door, arrow out of the building), LIFT_ (a lift: shaft floor centre at the low stop; stops / faces), MARK_ (a mission marker: kind weapon / spawn / cover ...). Keep 1.2 m clear both sides of every door. After editing: tools/building_kit/build_buildings.sh. \u4ea4\u756a: the small police station, one storey; its armoury is one pistol locker (MARK_weapon x2)."
   },
   "mesh": 7,
   "name": "Rest_Chair",
   "translation": [
    -1.649999976158142,
    0,
    0.15000000596046448
   ]
  },
  {
   "extras": {
    "edit_note": "A mission building (blender/tools/build_interior_blends.py, seed blender/tools/interior_plans.py): a PLACEHOLDER shell and fit-out at its real Japanese size -- remodel freely. Keep the frame (origin = plot centre on the ground, street -Y), the floor levels, and move the Empties with what they belong to: DOOR_ (interior door, arrow OUT of the room), EXIT_ (outer door, arrow out of the building), LIFT_ (a lift: shaft floor centre at the low stop; stops / faces), MARK_ (a mission marker: kind weapon / spawn / cover ...). Keep 1.2 m clear both sides of every door. After editing: tools/building_kit/build_buildings.sh. \u4ea4\u756a: the small police station, one storey; its armoury is one pistol locker (MARK_weapon x2)."
   },
   "mesh": 7,
   "name": "Rest_Chair.001",
   "translation": [
    -0.949999988079071,
    0,
    0.15000000596046448
   ]
  },
  {
   "extras": {
    "edit_note": "A mission building (blender/tools/build_interior_blends.py, seed blender/tools/interior_plans.py): a PLACEHOLDER shell and fit-out at its real Japanese size -- remodel freely. Keep the frame (origin = plot centre on the ground, street -Y), the floor levels, and move the Empties with what they belong to: DOOR_ (interior door, arrow OUT of the room), EXIT_ (outer door, arrow out of the building), LIFT_ (a lift: shaft floor centre at the low stop; stops / faces), MARK_ (a mission marker: kind weapon / spawn / cover ...). Keep 1.2 m clear both sides of every door. After editing: tools/building_kit/build_buildings.sh. \u4ea4\u756a: the small police station, one storey; its armoury is one pistol locker (MARK_weapon x2)."
   },
   "mesh": 8,
   "name": "Rest_Table",
   "translation": [
    -1.2999999523162842,
    0,
    -0.6000000238418579
   ]
  },
  {
   "extras": {
    "edit_note": "A mission building (blender/tools/build_interior_blends.py, seed blender/tools/interior_plans.py): a PLACEHOLDER shell and fit-out at its real Japanese size -- remodel freely. Keep the frame (origin = plot centre on the ground, street -Y), the floor levels, and move the Empties with what they belong to: DOOR_ (interior door, arrow OUT of the room), EXIT_ (outer door, arrow out of the building), LIFT_ (a lift: shaft floor centre at the low stop; stops / faces), MARK_ (a mission marker: kind weapon / spawn / cover ...). Keep 1.2 m clear both sides of every door. After editing: tools/building_kit/build_buildings.sh. \u4ea4\u756a: the small police station, one storey; its armoury is one pistol locker (MARK_weapon x2)."
   },
   "mesh": 9,
   "name": "Roof"
  },
  {
   "extras": {
    "edit_note": "A mission building (blender/tools/build_interior_blends.py, seed blender/tools/interior_plans.py): a PLACEHOLDER shell and fit-out at its real Japanese size -- remodel freely. Keep the frame (origin = plot centre on the ground, street -Y), the floor levels, and move the Empties with what they belong to: DOOR_ (interior door, arrow OUT of the room), EXIT_ (outer door, arrow out of the building), LIFT_ (a lift: shaft floor centre at the low stop; stops / faces), MARK_ (a mission marker: kind weapon / spawn / cover ...). Keep 1.2 m clear both sides of every door. After editing: tools/building_kit/build_buildings.sh. \u4ea4\u756a: the small police station, one storey; its armoury is one pistol locker (MARK_weapon x2)."
   },
   "mesh": 10,
   "name": "Site"
  },
  {
   "extras": {
    "edit_note": "A mission building (blender/tools/build_interior_blends.py, seed blender/tools/interior_plans.py): a PLACEHOLDER shell and fit-out at its real Japanese size -- remodel freely. Keep the frame (origin = plot centre on the ground, street -Y), the floor levels, and move the Empties with what they belong to: DOOR_ (interior door, arrow OUT of the room), EXIT_ (outer door, arrow out of the building), LIFT_ (a lift: shaft floor centre at the low stop; stops / faces), MARK_ (a mission marker: kind weapon / spawn / cover ...). Keep 1.2 m clear both sides of every door. After editing: tools/building_kit/build_buildings.sh. \u4ea4\u756a: the small police station, one storey; its armoury is one pistol locker (MARK_weapon x2)."
   },
   "mesh": 11,
   "name": "Station_Bench",
   "rotation": [
    0,
    0.7071068286895752,
    0,
    0.7071068286895752
   ],
   "translation": [
    -2.5,
    0,
    2.299999952316284
   ]
  },
  {
   "extras": {
    "edit_note": "A mission building (blender/tools/build_interior_blends.py, seed blender/tools/interior_plans.py): a PLACEHOLDER shell and fit-out at its real Japanese size -- remodel freely. Keep the frame (origin = plot centre on the ground, street -Y), the floor levels, and move the Empties with what they belong to: DOOR_ (interior door, arrow OUT of the room), EXIT_ (outer door, arrow out of the building), LIFT_ (a lift: shaft floor centre at the low stop; stops / faces), MARK_ (a mission marker: kind weapon / spawn / cover ...). Keep 1.2 m clear both sides of every door. After editing: tools/building_kit/build_buildings.sh. \u4ea4\u756a: the small police station, one storey; its armoury is one pistol locker (MARK_weapon x2)."
   },
   "mesh": 12,
   "name": "Structure"
  },
  {
   "extras": {
    "edit_note": "A mission building (blender/tools/build_interior_blends.py, seed blender/tools/interior_plans.py): a PLACEHOLDER shell and fit-out at its real Japanese size -- remodel freely. Keep the frame (origin = plot centre on the ground, street -Y), the floor levels, and move the Empties with what they belong to: DOOR_ (interior door, arrow OUT of the room), EXIT_ (outer door, arrow out of the building), LIFT_ (a lift: shaft floor centre at the low stop; stops / faces), MARK_ (a mission marker: kind weapon / spawn / cover ...). Keep 1.2 m clear both sides of every door. After editing: tools/building_kit/build_buildings.sh. \u4ea4\u756a: the small police station, one storey; its armoury is one pistol locker (MARK_weapon x2)."
   },
   "mesh": 13,
   "name": "Walls_0"
  },
  {
   "extras": {
    "edit_note": "A mission building (blender/tools/build_interior_blends.py, seed blender/tools/interior_plans.py): a PLACEHOLDER shell and fit-out at its real Japanese size -- remodel freely. Keep the frame (origin = plot centre on the ground, street -Y), the floor levels, and move the Empties with what they belong to: DOOR_ (interior door, arrow OUT of the room), EXIT_ (outer door, arrow out of the building), LIFT_ (a lift: shaft floor centre at the low stop; stops / faces), MARK_ (a mission marker: kind weapon / spawn / cover ...). Keep 1.2 m clear both sides of every door. After editing: tools/building_kit/build_buildings.sh. \u4ea4\u756a: the small police station, one storey; its armoury is one pistol locker (MARK_weapon x2)."
   },
   "mesh": 14,
   "name": "WC_Basin",
   "rotation": [
    0,
    -0.7071068286895752,
    0,
    0.7071068286895752
   ],
   "translation": [
    2.5,
    0,
    -1.2999999523162842
   ]
  },
  {
   "extras": {
    "edit_note": "A mission building (blender/tools/build_interior_blends.py, seed blender/tools/interior_plans.py): a PLACEHOLDER shell and fit-out at its real Japanese size -- remodel freely. Keep the frame (origin = plot centre on the ground, street -Y), the floor levels, and move the Empties with what they belong to: DOOR_ (interior door, arrow OUT of the room), EXIT_ (outer door, arrow out of the building), LIFT_ (a lift: shaft floor centre at the low stop; stops / faces), MARK_ (a mission marker: kind weapon / spawn / cover ...). Keep 1.2 m clear both sides of every door. After editing: tools/building_kit/build_buildings.sh. \u4ea4\u756a: the small police station, one storey; its armoury is one pistol locker (MARK_weapon x2)."
   },
   "mesh": 15,
   "name": "WC_Toilet",
   "translation": [
    1.7999999523162842,
    0,
    -2.430000066757202
   ]
  }
 ],
 "materials": [
  {
   "doubleSided": true,
   "name": "MI_TileWhite",
   "pbrMetallicRoughness": {
    "baseColorFactor": [
     0.8136419057846069,
     0.8136419057846069,
     0.8136419057846069,
     1
    ],
    "metallicFactor": 0,
    "roughnessFactor": 0.699999988079071
   }
  },
  {
   "doubleSided": true,
   "name": "MI_Plaster",
   "pbrMetallicRoughness": {
    "baseColorFactor": [
     0.8999999761581421,
     0.8899999856948853,
     0.8600000143051147,
     1
    ],
    "metallicFactor": 0,
    "roughnessFactor": 0.699999988079071
   }
  },
  {
   "doubleSided": true,
   "emissiveFactor": [
    1,
    0.0666666669426141,
    0.0444444446284094
   ],
   "extensions": {
    "KHR_materials_emissive_strength": {
     "emissiveStrength": 1.0800000143051136
    }
   },
   "name": "MI_SignRed",
   "pbrMetallicRoughness": {
    "baseColorFactor": [
     0.800000011920929,
     0.07999999821186066,
     0.05999999865889549,
     1
    ],
    "metallicFactor": 0,
    "roughnessFactor": 0.699999988079071
   }
  },
  {
   "doubleSided": true,
   "emissiveFactor": [
    0.0600000032782555,
    0.15000000596046448,
    0.30000001192092896
   ],
   "name": "MI_Sign",
   "pbrMetallicRoughness": {
    "baseColorFactor": [
     0.11999999731779099,
     0.30000001192092896,
     0.550000011920929,
     1
    ],
    "metallicFactor": 0,
    "roughnessFactor": 0.699999988079071
   }
  },
  {
   "doubleSided": true,
   "name": "MI_PaintedMetal",
   "pbrMetallicRoughness": {
    "baseColorFactor": [
     0.8999999761581421,
     0.8999999761581421,
     0.8899999856948853,
     1
    ],
    "metallicFactor": 0.30000001192092896,
    "roughnessFactor": 0.699999988079071
   }
  },
  {
   "doubleSided": true,
   "name": "MI_GlassClear",
   "pbrMetallicRoughness": {
    "baseColorFactor": [
     0.550000011920929,
     0.6800000071525574,
     0.7200000286102295,
     1
    ],
    "metallicFactor": 0.20000000298023224,
    "roughnessFactor": 0.05000000074505806
   }
  },
  {
   "doubleSided": true,
   "name": "MI_Goods",
   "pbrMetallicRoughness": {
    "baseColorFactor": [
     0.4877031445503235,
     0.42102864384651184,
     0.38213247060775757,
     1
    ],
    "metallicFactor": 0,
    "roughnessFactor": 0.5
   }
  },
  {
   "doubleSided": true,
   "name": "MI_Steel",
   "pbrMetallicRoughness": {
    "baseColorFactor": [
     0.5726980566978455,
     0.5820889472961426,
     0.5955169796943665,
     1
    ],
    "roughnessFactor": 0.699999988079071
   }
  },
  {
   "doubleSided": true,
   "name": "MI_PlasticDark",
   "pbrMetallicRoughness": {
    "baseColorFactor": [
     0.11999999731779099,
     0.11999999731779099,
     0.12999999523162842,
     1
    ],
    "metallicFactor": 0,
    "roughnessFactor": 0.6000000238418579
   }
  },
  {
   "doubleSided": true,
   "name": "MI_Fabric",
   "pbrMetallicRoughness": {
    "baseColorFactor": [
     0.3585456907749176,
     0.35632404685020447,
     0.3589908480644226,
     1
    ],
    "metallicFactor": 0,
    "roughnessFactor": 0.699999988079071
   }
  },
  {
   "doubleSided": true,
   "name": "MI_Wood",
   "pbrMetallicRoughness": {
    "baseColorFactor": [
     0.6217582821846008,
     0.4432729184627533,
     0.2785278260707855,
     1
    ],
    "metallicFactor": 0,
    "roughnessFactor": 0.699999988079071
   }
  },
  {
   "doubleSided": true,
   "name": "MI_PaintedMetalDark",
   "pbrMetallicRoughness": {
    "baseColorFactor": [
     0.1599999964237213,
     0.17000000178813934,
     0.18000000715255737,
     1
    ],
    "metallicFactor": 0.4000000059604645,
    "roughnessFactor": 0.699999988079071
   }
  },
  {
   "doubleSided": true,
   "name": "MI_ConcreteSmooth",
   "pbrMetallicRoughness": {
    "baseColorFactor": [
     0.3104965388774872,
     0.3015982508659363,
     0.2871379554271698,
     1
    ],
    "metallicFactor": 0,
    "roughnessFactor": 0.699999988079071
   }
  },
  {
   "doubleSided": true,
   "name": "MI_Terrazzo",
   "pbrMetallicRoughness": {
    "baseColorFactor": [
     0.8399999737739563,
     0.8600000143051147,
     0.8600000143051147,
     1
    ],
    "metallicFactor": 0,
    "roughnessFactor": 0.699999988079071
   }
  },
  {
   "doubleSided": true,
   "name": "MI_PlasticWhite",
   "pbrMetallicRoughness": {
    "baseColorFactor": [
     0.9300000071525574,
     0.9300000071525574,
     0.9100000262260437,
     1
    ],
    "metallicFactor": 0,
    "roughnessFactor": 0.30000001192092896
   }
  },
  {
   "doubleSided": true,
   "name": "MI_FabricRed",
   "pbrMetallicRoughness": {
    "baseColorFactor": [
     0.44999998807907104,
     0.07999999821186066,
     0.07000000029802322,
     1
    ],
    "metallicFactor": 0,
    "roughnessFactor": 0.699999988079071
   }
  },
  {
   "doubleSided": true,
   "emissiveFactor": [
    1,
    0.9800000190734863,
    0.9399999976158142
   ],
   "extensions": {
    "KHR_materials_emissive_strength": {
     "emissiveStrength": 2
    }
   },
   "name": "MI_Light",
   "pbrMetallicRoughness": {
    "baseColorFactor": [
     1,
     1,
     0.9700000286102295,
     1
    ],
    "metallicFactor": 0,
    "roughnessFactor": 0.699999988079071
   }
  }
 ],
 "meshes": [
  {
   "name": "Koban_Facade",
   "primitives": [
    {
     "attributes": {
      "POSITION": 0,
      "NORMAL": 1
     },
     "indices": 2,
     "material": 0
    },
    {
     "attributes": {
      "POSITION": 3,
      "NORMAL": 4
     },
     "indices": 5,
     "material": 1
    },
    {
     "attributes": {
      "POSITION": 6,
      "NORMAL": 7
     },
     "indices": 8,
     "material": 2
    },
    {
     "attributes": {
      "POSITION": 9,
      "NORMAL": 10
     },
     "indices": 8,
     "material": 3
    },
    {
     "attributes": {
      "POSITION": 11,
      "NORMAL": 12
     },
     "indices": 8,
     "material": 4
    }
   ]
  },
  {
   "name": "Koban_Glazing",
   "primitives": [
    {
     "attributes": {
      "POSITION": 13,
      "NORMAL": 14
     },
     "indices": 15,
     "material": 5
    },
    {
     "attributes": {
      "POSITION": 16,
      "NORMAL": 17
     },
     "indices": 18,
     "material": 4
    }
   ]
  },
  {
   "name": "LIB_Office_Cabinet",
   "primitives": [
    {
     "attributes": {
      "POSITION": 19,
      "NORMAL": 20
     },
     "indices": 8,
     "material": 4
    },
    {
     "attributes": {
      "POSITION": 21,
      "NORMAL": 22
     },
     "indices": 8,
     "material": 5
    },
    {
     "attributes": {
      "POSITION": 23,
      "NORMAL": 24
     },
     "indices": 8,
     "material": 6
    }
   ]
  },
  {
   "name": "LIB_Office_Chair",
   "primitives": [
    {
     "attributes": {
      "POSITION": 25,
      "NORMAL": 26
     },
     "indices": 8,
     "material": 7
    },
    {
     "attributes": {
      "POSITION": 27,
      "NORMAL": 28
     },
     "indices": 8,
     "material": 8
    },
    {
     "attributes": {
      "POSITION": 29,
      "NORMAL": 30
     },
     "indices": 15,
     "material": 9
    }
   ]
  },
  {
   "name": "LIB_Office_Desk",
   "primitives": [
    {
     "attributes": {
      "POSITION": 31,
      "NORMAL": 32
     },
     "indices": 8,
     "material": 10
    },
    {
     "attributes": {
      "POSITION": 33,
      "NORMAL": 34
     },
     "indices": 15,
     "material": 4
    },
    {
     "attributes": {
      "POSITION": 35,
      "NORMAL": 36
     },
     "indices": 8,
     "material": 8
    }
   ]
  },
  {
   "name": "LIB_Office_Locker",
   "primitives": [
    {
     "attributes": {
      "POSITION": 37,
      "NORMAL": 38
     },
     "indices": 8,
     "material": 4
    },
    {
     "attributes": {
      "POSITION": 39,
      "NORMAL": 40
     },
     "indices": 41,
     "material": 11
    }
   ]
  },
  {
   "name": "LIB_Police_GunLocker",
   "primitives": [
    {
     "attributes": {
      "POSITION": 42,
      "NORMAL": 43
     },
     "indices": 8,
     "material": 11
    },
    {
     "attributes": {
      "POSITION": 44,
      "NORMAL": 45
     },
     "indices": 15,
     "material": 4
    },
    {
     "attributes": {
      "POSITION": 46,
      "NORMAL": 47
     },
     "indices": 8,
     "material": 5
    },
    {
     "attributes": {
      "POSITION": 48,
      "NORMAL": 49
     },
     "indices": 50,
     "material": 8
    },
    {
     "attributes": {
      "POSITION": 51,
      "NORMAL": 52
     },
     "indices": 8,
     "material": 7
    }
   ]
  },
  {
   "extras": {
    "placeholder_note": "REMOVED 2026-09-28: base mesh was from elbolilloduro BurgerPiz pack (base mesh removed); this is a same-size PLACEHOLDER BOX, needs a modeller (see kits/library/placeholders.json)"
   },
   "name": "LIB_Rest_Chair",
   "primitives": [
    {
     "attributes": {
      "POSITION": 53,
      "NORMAL": 54
     },
     "indices": 55,
     "material": 10
    }
   ]
  },
  {
   "extras": {
    "placeholder_note": "REMOVED 2026-09-28: base mesh was from elbolilloduro BurgerPiz pack (base mesh removed); this is a same-size PLACEHOLDER BOX, needs a modeller (see kits/library/placeholders.json)"
   },
   "name": "LIB_Rest_Table",
   "primitives": [
    {
     "attributes": {
      "POSITION": 56,
      "NORMAL": 57
     },
     "indices": 55,
     "material": 10
    }
   ]
  },
  {
   "name": "Koban_Roof",
   "primitives": [
    {
     "attributes": {
      "POSITION": 58,
      "NORMAL": 59
     },
     "indices": 60,
     "material": 12
    }
   ]
  },
  {
   "name": "Koban_Site",
   "primitives": [
    {
     "attributes": {
      "POSITION": 61,
      "NORMAL": 62
     },
     "indices": 8,
     "material": 12
    }
   ]
  },
  {
   "extras": {
    "placeholder_note": "REMOVED 2026-09-28: base mesh was from elbolilloduro Metro pack (base mesh removed); this is a same-size PLACEHOLDER BOX, needs a modeller (see kits/library/placeholders.json)"
   },
   "name": "LIB_Station_Bench",
   "primitives": [
    {
     "attributes": {
      "POSITION": 63,
      "NORMAL": 64
     },
     "indices": 55,
     "material": 8
    }
   ]
  },
  {
   "name": "Koban_Structure",
   "primitives": [
    {
     "attributes": {
      "POSITION": 65,
      "NORMAL": 66
     },
     "indices": 8,
     "material": 13
    }
   ]
  },
  {
   "name": "Koban_Walls_0",
   "primitives": [
    {
     "attributes": {
      "POSITION": 67,
      "NORMAL": 68
     },
     "indices": 69,
     "material": 1
    }
   ]
  },
  {
   "name": "LIB_WC_Basin",
   "primitives": [
    {
     "attributes": {
      "POSITION": 70,
      "NORMAL": 71
     },
     "indices": 8,
     "material": 14
    },
    {
     "attributes": {
      "POSITION": 72,
      "NORMAL": 73
     },
     "indices": 8,
     "material": 0
    },
    {
     "attributes": {
      "POSITION": 74,
      "NORMAL": 75
     },
     "indices": 76,
     "material": 7
    }
   ]
  },
  {
   "name": "LIB_WC_Toilet",
   "primitives": [
    {
     "attributes": {
      "POSITION": 77,
      "NORMAL": 78
     },
     "indices": 79,
     "material": 14
    },
    {
     "attributes": {
      "POSITION": 80,
      "NORMAL": 81
     },
     "indices": 8,
     "material": 8
    },
    {
     "attributes": {
      "POSITION": 82,
      "NORMAL": 83
     },
     "indices": 8,
     "material": 3
    },
    {
     "attributes": {
      "POSITION": 84,
      "NORMAL": 85
     },
     "indices": 8,
     "material": 15
    },
    {
     "attributes": {
      "POSITION": 86,
      "NORMAL": 87
     },
     "indices": 8,
     "material": 16
    },
    {
     "attributes": {
      "POSITION": 88,
      "NORMAL": 89
     },
     "indices": 8,
     "material": 7
    }
   ]
  }
 ],
 "accessors": [
  {
   "bufferView": 0,
   "componentType": 5126,
   "count": 274,
   "max": [
    3,
    3.5999999046325684,
    4
   ],
   "min": [
    -3,
    0,
    -3
   ],
   "type": "VEC3"
  },
  {
   "bufferView": 1,
   "componentType": 5126,
   "count": 274,
   "type": "VEC3"
  },
  {
   "bufferView": 2,
   "componentType": 5123,
   "count": 480,
   "type": "SCALAR"
  },
  {
   "bufferView": 3,
   "componentType": 5126,
   "count": 258,
   "max": [
    3,
    3.5999999046325684,
    3.9000000953674316
   ],
   "min": [
    -3,
    0,
    -2.9000000953674316
   ],
   "type": "VEC3"
  },
  {
   "bufferView": 4,
   "componentType": 5126,
   "count": 258,
   "type": "VEC3"
  },
  {
   "bufferView": 5,
   "componentType": 5123,
   "count": 444,
   "type": "SCALAR"
  },
  {
   "bufferView": 6,
   "componentType": 5126,
   "count": 24,
   "max": [
    -0.949999988079071,
    3.1500000953674316,
    4.449999809265137
   ],
   "min": [
    -1.4500000476837158,
    2.75,
    4
   ],
   "type": "VEC3"
  },
  {
   "bufferView": 7,
   "componentType": 5126,
   "count": 24,
   "type": "VEC3"
  },
  {
   "bufferView": 8,
   "componentType": 5123,
   "count": 36,
   "type": "SCALAR"
  },
  {
   "bufferView": 9,
   "componentType": 5126,
   "count": 24,
   "max": [
    2.799999952316284,
    3.200000047683716,
    4.150000095367432
   ],
   "min": [
    0.30000001192092896,
    2.5999999046325684,
    4
   ],
   "type": "VEC3"
  },
  {
   "bufferView": 10,
   "componentType": 5126,
   "count": 24,
   "type": "VEC3"
  },
  {
   "bufferView": 11,
   "componentType": 5126,
   "count": 24,
   "max": [
    3,
    2.700000047683716,
    5
   ],
   "min": [
    -3,
    2.549999952316284,
    4
   ],
   "type": "VEC3"
  },
  {
   "bufferView": 12,
   "componentType": 5126,
   "count": 24,
   "type": "VEC3"
  },
  {
   "bufferView": 13,
   "componentType": 5126,
   "count": 48,
   "max": [
    2.4000000953674316,
    2.4000000953674316,
    3.9119999408721924
   ],
   "min": [
    -2.9119999408721924,
    0.8999999761581421,
    1.600000023841858
   ],
   "type": "VEC3"
  },
  {
   "bufferView": 14,
   "componentType": 5126,
   "count": 48,
   "type": "VEC3"
  },
  {
   "bufferView": 15,
   "componentType": 5123,
   "count": 72,
   "type": "SCALAR"
  },
  {
   "bufferView": 16,
   "componentType": 5126,
   "count": 320,
   "max": [
    3.009999990463257,
    2.450000047683716,
    4.010000228881836
   ],
   "min": [
    -3.009999990463257,
    -0.05000000074505806,
    -0.6499999761581421
   ],
   "type": "VEC3"
  },
  {
   "bufferView": 17,
   "componentType": 5126,
   "count": 320,
   "type": "VEC3"
  },
  {
   "bufferView": 18,
   "componentType": 5123,
   "count": 576,
   "type": "SCALAR"
  },
  {
   "bufferView": 19,
   "componentType": 5126,
   "count": 24,
   "max": [
    0.44999998807907104,
    1.7999999523162842,
    0.22499999403953552
   ],
   "min": [
    -0.44999998807907104,
    0,
    -0.22499999403953552
   ],
   "type": "VEC3"
  },
  {
   "bufferView": 20,
   "componentType": 5126,
   "count": 24,
   "type": "VEC3"
  },
  {
   "bufferView": 21,
   "componentType": 5126,
   "count": 24,
   "max": [
    0.41999998688697815,
    1.75,
    0.23499999940395355
   ],
   "min": [
    -0.41999998688697815,
    0.949999988079071,
    0.22499999403953552
   ],
   "type": "VEC3"
  },
  {
   "bufferView": 22,
   "componentType": 5126,
   "count": 24,
   "type": "VEC3"
  },
  {
   "bufferView": 23,
   "componentType": 5126,
   "count": 24,
   "max": [
    0.4000000059604645,
    1.7000000476837158,
    0.20000000298023224
   ],
   "min": [
    -0.4000000059604645,
    1,
    -0.15000000596046448
   ],
   "type": "VEC3"
  },
  {
   "bufferView": 24,
   "componentType": 5126,
   "count": 24,
   "type": "VEC3"
  },
  {
   "bufferView": 25,
   "componentType": 5126,
   "count": 24,
   "max": [
    0.029999999329447746,
    0.41999998688697815,
    0.029999999329447746
   ],
   "min": [
    -0.029999999329447746,
    0,
    -0.029999999329447746
   ],
   "type": "VEC3"
  },
  {
   "bufferView": 26,
   "componentType": 5126,
   "count": 24,
   "type": "VEC3"
  },
  {
   "bufferView": 27,
   "componentType": 5126,
   "count": 24,
   "max": [
    0.30000001192092896,
    0.05000000074505806,
    0.30000001192092896
   ],
   "min": [
    -0.30000001192092896,
    0,
    -0.30000001192092896
   ],
   "type": "VEC3"
  },
  {
   "bufferView": 28,
   "componentType": 5126,
   "count": 24,
   "type": "VEC3"
  },
  {
   "bufferView": 29,
   "componentType": 5126,
   "count": 48,
   "max": [
    0.25,
    1,
    0.25
   ],
   "min": [
    -0.25,
    0.41999998688697815,
    -0.2800000011920929
   ],
   "type": "VEC3"
  },
  {
   "bufferView": 30,
   "componentType": 5126,
   "count": 48,
   "type": "VEC3"
  },
  {
   "bufferView": 31,
   "componentType": 5126,
   "count": 24,
   "max": [
    0.6000000238418579,
    0.7200000286102295,
    0.3499999940395355
   ],
   "min": [
    -0.6000000238418579,
    0.6800000071525574,
    -0.3499999940395355
   ],
   "type": "VEC3"
  },
  {
   "bufferView": 32,
   "componentType": 5126,
   "count": 24,
   "type": "VEC3"
  },
  {
   "bufferView": 33,
   "componentType": 5126,
   "count": 48,
   "max": [
    0.6000000238418579,
    0.6800000071525574,
    0.3199999928474426
   ],
   "min": [
    -0.6000000238418579,
    0,
    -0.3199999928474426
   ],
   "type": "VEC3"
  },
  {
   "bufferView": 34,
   "componentType": 5126,
   "count": 48,
   "type": "VEC3"
  },
  {
   "bufferView": 35,
   "componentType": 5126,
   "count": 24,
   "max": [
    0.25,
    1.0499999523162842,
    -0.10000000149011612
   ],
   "min": [
    -0.25,
    0.7200000286102295,
    -0.12999999523162842
   ],
   "type": "VEC3"
  },
  {
   "bufferView": 36,
   "componentType": 5126,
   "count": 24,
   "type": "VEC3"
  },
  {
   "bufferView": 37,
   "componentType": 5126,
   "count": 24,
   "max": [
    0.44999998807907104,
    1.7999999523162842,
    0.25
   ],
   "min": [
    -0.44999998807907104,
    0,
    -0.25
   ],
   "type": "VEC3"
  },
  {
   "bufferView": 38,
   "componentType": 5126,
   "count": 24,
   "type": "VEC3"
  },
  {
   "bufferView": 39,
   "componentType": 5126,
   "count": 72,
   "max": [
    0.4399999976158142,
    1.75,
    0.25999999046325684
   ],
   "min": [
    -0.4399999976158142,
    0.05000000074505806,
    0.25
   ],
   "type": "VEC3"
  },
  {
   "bufferView": 40,
   "componentType": 5126,
   "count": 72,
   "type": "VEC3"
  },
  {
   "bufferView": 41,
   "componentType": 5123,
   "count": 108,
   "type": "SCALAR"
  },
  {
   "bufferView": 42,
   "componentType": 5126,
   "count": 24,
   "max": [
    0.5,
    1.7999999523162842,
    0.25
   ],
   "min": [
    -0.5,
    0,
    -0.25
   ],
   "type": "VEC3"
  },
  {
   "bufferView": 43,
   "componentType": 5126,
   "count": 24,
   "type": "VEC3"
  },
  {
   "bufferView": 44,
   "componentType": 5126,
   "count": 48,
   "max": [
    0.47999998927116394,
    1.7000000476837158,
    0.25999999046325684
   ],
   "min": [
    -0.47999998927116394,
    0.10000000149011612,
    0.25
   ],
   "type": "VEC3"
  },
  {
   "bufferView": 45,
   "componentType": 5126,
   "count": 48,
   "type": "VEC3"
  },
  {
   "bufferView": 46,
   "componentType": 5126,
   "count": 24,
   "max": [
    0.4000000059604645,
    1.4500000476837158,
    0.27000001072883606
   ],
   "min": [
    -0.4000000059604645,
    1.2000000476837158,
    0.25999999046325684
   ],
   "type": "VEC3"
  },
  {
   "bufferView": 47,
   "componentType": 5126,
   "count": 24,
   "type": "VEC3"
  },
  {
   "bufferView": 48,
   "componentType": 5126,
   "count": 144,
   "max": [
    0.3700000047683716,
    1.399999976158142,
    0.20000000298023224
   ],
   "min": [
    -0.36000001430511475,
    1.25,
    0.10000000149011612
   ],
   "type": "VEC3"
  },
  {
   "bufferView": 49,
   "componentType": 5126,
   "count": 144,
   "type": "VEC3"
  },
  {
   "bufferView": 50,
   "componentType": 5123,
   "count": 216,
   "type": "SCALAR"
  },
  {
   "bufferView": 51,
   "componentType": 5126,
   "count": 24,
   "max": [
    0.10000000149011612,
    1,
    0.30000001192092896
   ],
   "min": [
    0.05999999865889549,
    0.8500000238418579,
    0.25999999046325684
   ],
   "type": "VEC3"
  },
  {
   "bufferView": 52,
   "componentType": 5126,
   "count": 24,
   "type": "VEC3"
  },
  {
   "bufferView": 53,
   "componentType": 5126,
   "count": 24,
   "max": [
    0.2548282742500305,
    0.8499999642372131,
    0.2184925079345703
   ],
   "min": [
    -0.25482824444770813,
    0,
    -0.21849441528320312
   ],
   "type": "VEC3"
  },
  {
   "bufferView": 54,
   "componentType": 5126,
   "count": 24,
   "type": "VEC3"
  },
  {
   "bufferView": 55,
   "componentType": 5123,
   "count": 36,
   "type": "SCALAR"
  },
  {
   "bufferView": 56,
   "componentType": 5126,
   "count": 24,
   "max": [
    0.7024393081665039,
    0.7199999690055847,
    0.40633583068847656
   ],
   "min": [
    -0.7024393081665039,
    0,
    -0.40633392333984375
   ],
   "type": "VEC3"
  },
  {
   "bufferView": 57,
   "componentType": 5126,
   "count": 24,
   "type": "VEC3"
  },
  {
   "bufferView": 58,
   "componentType": 5126,
   "count": 88,
   "max": [
    3,
    4.699999809265137,
    4
   ],
   "min": [
    -3,
    3.4000000953674316,
    -3
   ],
   "type": "VEC3"
  },
  {
   "bufferView": 59,
   "componentType": 5126,
   "count": 88,
   "type": "VEC3"
  },
  {
   "bufferView": 60,
   "componentType": 5123,
   "count": 180,
   "type": "SCALAR"
  },
  {
   "bufferView": 61,
   "componentType": 5126,
   "count": 24,
   "max": [
    3.5,
    0.009999999776482582,
    5
   ],
   "min": [
    -3.5,
    -0.029999999329447746,
    -3.4000000953674316
   ],
   "type": "VEC3"
  },
  {
   "bufferView": 62,
   "componentType": 5126,
   "count": 24,
   "type": "VEC3"
  },
  {
   "bufferView": 63,
   "componentType": 5126,
   "count": 24,
   "max": [
    0.6487874984741211,
    0.8500001430511475,
    0.2606663703918457
   ],
   "min": [
    -0.6487874984741211,
    0,
    -0.2606658935546875
   ],
   "type": "VEC3"
  },
  {
   "bufferView": 64,
   "componentType": 5126,
   "count": 24,
   "type": "VEC3"
  },
  {
   "bufferView": 65,
   "componentType": 5126,
   "count": 24,
   "max": [
    3,
    0,
    4
   ],
   "min": [
    -3,
    -0.20000000298023224,
    -3
   ],
   "type": "VEC3"
  },
  {
   "bufferView": 66,
   "componentType": 5126,
   "count": 24,
   "type": "VEC3"
  },
  {
   "bufferView": 67,
   "componentType": 5126,
   "count": 192,
   "max": [
    2.799999952316284,
    3.4000000953674316,
    0.6600000262260437
   ],
   "min": [
    -2.799999952316284,
    0,
    -2.799999952316284
   ],
   "type": "VEC3"
  },
  {
   "bufferView": 68,
   "componentType": 5126,
   "count": 192,
   "type": "VEC3"
  },
  {
   "bufferView": 69,
   "componentType": 5123,
   "count": 324,
   "type": "SCALAR"
  },
  {
   "bufferView": 70,
   "componentType": 5126,
   "count": 24,
   "max": [
    0.32499998807907104,
    0.8399999737739563,
    0.28299999237060547
   ],
   "min": [
    -0.32499998807907104,
    0.7200000286102295,
    -0.28299999237060547
   ],
   "type": "VEC3"
  },
  {
   "bufferView": 71,
   "componentType": 5126,
   "count": 24,
   "type": "VEC3"
  },
  {
   "bufferView": 72,
   "componentType": 5126,
   "count": 24,
   "max": [
    0.2750000059604645,
    0.8450000286102295,
    0.2329999953508377
   ],
   "min": [
    -0.2750000059604645,
    0.8420000076293945,
    -0.16300000250339508
   ],
   "type": "VEC3"
  },
  {
   "bufferView": 73,
   "componentType": 5126,
   "count": 24,
   "type": "VEC3"
  },
  {
   "bufferView": 74,
   "componentType": 5126,
   "count": 66,
   "max": [
    0.019999999552965164,
    1.0800000429153442,
    -0.08299999684095383
   ],
   "min": [
    -0.019999999552965164,
    0.8399999737739563,
    -0.2630000114440918
   ],
   "type": "VEC3"
  },
  {
   "bufferView": 75,
   "componentType": 5126,
   "count": 66,
   "type": "VEC3"
  },
  {
   "bufferView": 76,
   "componentType": 5123,
   "count": 108,
   "type": "SCALAR"
  },
  {
   "bufferView": 77,
   "componentType": 5126,
   "count": 980,
   "max": [
    0.30000001192092896,
    0.800000011920929,
    0.3700000047683716
   ],
   "min": [
    -0.20000000298023224,
    0,
    -0.375
   ],
   "type": "VEC3"
  },
  {
   "bufferView": 78,
   "componentType": 5126,
   "count": 980,
   "type": "VEC3"
  },
  {
   "bufferView": 79,
   "componentType": 5123,
   "count": 1860,
   "type": "SCALAR"
  },
  {
   "bufferView": 80,
   "componentType": 5126,
   "count": 24,
   "max": [
    0.28999999165534973,
    0.4749999940395355,
    0.10000000149011612
   ],
   "min": [
    0.20999999344348907,
    0.4699999988079071,
    -0.07999999821186066
   ],
   "type": "VEC3"
  },
  {
   "bufferView": 81,
   "componentType": 5126,
   "count": 24,
   "type": "VEC3"
  },
  {
   "bufferView": 82,
   "componentType": 5126,
   "count": 24,
   "max": [
    0.27000001072883606,
    0.47999998927116394,
    0.07999999821186066
   ],
   "min": [
    0.23000000417232513,
    0.4749999940395355,
    0.05000000074505806
   ],
   "type": "VEC3"
  },
  {
   "bufferView": 83,
   "componentType": 5126,
   "count": 24,
   "type": "VEC3"
  },
  {
   "bufferView": 84,
   "componentType": 5126,
   "count": 24,
   "max": [
    0.27000001072883606,
    0.47999998927116394,
    0.029999999329447746
   ],
   "min": [
    0.23000000417232513,
    0.4749999940395355,
    0
   ],
   "type": "VEC3"
  },
  {
   "bufferView": 85,
   "componentType": 5126,
   "count": 24,
   "type": "VEC3"
  },
  {
   "bufferView": 86,
   "componentType": 5126,
   "count": 24,
   "max": [
    0.27000001072883606,
    0.47999998927116394,
    -0.019999999552965164
   ],
   "min": [
    0.23000000417232513,
    0.4749999940395355,
    -0.05000000074505806
   ],
   "type": "VEC3"
  },
  {
   "bufferView": 87,
   "componentType": 5126,
   "count": 24,
   "type": "VEC3"
  },
  {
   "bufferView": 88,
   "componentType": 5126,
   "count": 24,
   "max": [
    -0.20000000298023224,
    0.6800000071525574,
    -0.2800000011920929
   ],
   "min": [
    -0.2199999988079071,
    0.6600000262260437,
    -0.3400000035762787
   ],
   "type": "VEC3"
  },
  {
   "bufferView": 89,
   "componentType": 5126,
   "count": 24,
   "type": "VEC3"
  }
 ],
 "bufferViews": [
  {
   "buffer": 0,
   "byteLength": 3288,
   "byteOffset": 0,
   "target": 34962
  },
  {
   "buffer": 0,
   "byteLength": 3288,
   "byteOffset": 3288,
   "target": 34962
  },
  {
   "buffer": 0,
   "byteLength": 960,
   "byteOffset": 6576,
   "target": 34963
  },
  {
   "buffer": 0,
   "byteLength": 3096,
   "byteOffset": 7536,
   "target": 34962
  },
  {
   "buffer": 0,
   "byteLength": 3096,
   "byteOffset": 10632,
   "target": 34962
  },
  {
   "buffer": 0,
   "byteLength": 888,
   "byteOffset": 13728,
   "target": 34963
  },
  {
   "buffer": 0,
   "byteLength": 288,
   "byteOffset": 14616,
   "target": 34962
  },
  {
   "buffer": 0,
   "byteLength": 288,
   "byteOffset": 14904,
   "target": 34962
  },
  {
   "buffer": 0,
   "byteLength": 72,
   "byteOffset": 15192,
   "target": 34963
  },
  {
   "buffer": 0,
   "byteLength": 288,
   "byteOffset": 15264,
   "target": 34962
  },
  {
   "buffer": 0,
   "byteLength": 288,
   "byteOffset": 15552,
   "target": 34962
  },
  {
   "buffer": 0,
   "byteLength": 288,
   "byteOffset": 15840,
   "target": 34962
  },
  {
   "buffer": 0,
   "byteLength": 288,
   "byteOffset": 16128,
   "target": 34962
  },
  {
   "buffer": 0,
   "byteLength": 576,
   "byteOffset": 16416,
   "target": 34962
  },
  {
   "buffer": 0,
   "byteLength": 576,
   "byteOffset": 16992,
   "target": 34962
  },
  {
   "buffer": 0,
   "byteLength": 144,
   "byteOffset": 17568,
   "target": 34963
  },
  {
   "buffer": 0,
   "byteLength": 3840,
   "byteOffset": 17712,
   "target": 34962
  },
  {
   "buffer": 0,
   "byteLength": 3840,
   "byteOffset": 21552,
   "target": 34962
  },
  {
   "buffer": 0,
   "byteLength": 1152,
   "byteOffset": 25392,
   "target": 34963
  },
  {
   "buffer": 0,
   "byteLength": 288,
   "byteOffset": 26544,
   "target": 34962
  },
  {
   "buffer": 0,
   "byteLength": 288,
   "byteOffset": 26832,
   "target": 34962
  },
  {
   "buffer": 0,
   "byteLength": 288,
   "byteOffset": 27120,
   "target": 34962
  },
  {
   "buffer": 0,
   "byteLength": 288,
   "byteOffset": 27408,
   "target": 34962
  },
  {
   "buffer": 0,
   "byteLength": 288,
   "byteOffset": 27696,
   "target": 34962
  },
  {
   "buffer": 0,
   "byteLength": 288,
   "byteOffset": 27984,
   "target": 34962
  },
  {
   "buffer": 0,
   "byteLength": 288,
   "byteOffset": 28272,
   "target": 34962
  },
  {
   "buffer": 0,
   "byteLength": 288,
   "byteOffset": 28560,
   "target": 34962
  },
  {
   "buffer": 0,
   "byteLength": 288,
   "byteOffset": 28848,
   "target": 34962
  },
  {
   "buffer": 0,
   "byteLength": 288,
   "byteOffset": 29136,
   "target": 34962
  },
  {
   "buffer": 0,
   "byteLength": 576,
   "byteOffset": 29424,
   "target": 34962
  },
  {
   "buffer": 0,
   "byteLength": 576,
   "byteOffset": 30000,
   "target": 34962
  },
  {
   "buffer": 0,
   "byteLength": 288,
   "byteOffset": 30576,
   "target": 34962
  },
  {
   "buffer": 0,
   "byteLength": 288,
   "byteOffset": 30864,
   "target": 34962
  },
  {
   "buffer": 0,
   "byteLength": 576,
   "byteOffset": 31152,
   "target": 34962
  },
  {
   "buffer": 0,
   "byteLength": 576,
   "byteOffset": 31728,
   "target": 34962
  },
  {
   "buffer": 0,
   "byteLength": 288,
   "byteOffset": 32304,
   "target": 34962
  },
  {
   "buffer": 0,
   "byteLength": 288,
   "byteOffset": 32592,
   "target": 34962
  },
  {
   "buffer": 0,
   "byteLength": 288,
   "byteOffset": 32880,
   "target": 34962
  },
  {
   "buffer": 0,
   "byteLength": 288,
   "byteOffset": 33168,
   "target": 34962
  },
  {
   "buffer": 0,
   "byteLength": 864,
   "byteOffset": 33456,
   "target": 34962
  },
  {
   "buffer": 0,
   "byteLength": 864,
   "byteOffset": 34320,
   "target": 34962
  },
  {
   "buffer": 0,
   "byteLength": 216,
   "byteOffset": 35184,
   "target": 34963
  },
  {
   "buffer": 0,
   "byteLength": 288,
   "byteOffset": 35400,
   "target": 34962
  },
  {
   "buffer": 0,
   "byteLength": 288,
   "byteOffset": 35688,
   "target": 34962
  },
  {
   "buffer": 0,
   "byteLength": 576,
   "byteOffset": 35976,
   "target": 34962
  },
  {
   "buffer": 0,
   "byteLength": 576,
   "byteOffset": 36552,
   "target": 34962
  },
  {
   "buffer": 0,
   "byteLength": 288,
   "byteOffset": 37128,
   "target": 34962
  },
  {
   "buffer": 0,
   "byteLength": 288,
   "byteOffset": 37416,
   "target": 34962
  },
  {
   "buffer": 0,
   "byteLength": 1728,
   "byteOffset": 37704,
   "target": 34962
  },
  {
   "buffer": 0,
   "byteLength": 1728,
   "byteOffset": 39432,
   "target": 34962
  },
  {
   "buffer": 0,
   "byteLength": 432,
   "byteOffset": 41160,
   "target": 34963
  },
  {
   "buffer": 0,
   "byteLength": 288,
   "byteOffset": 41592,
   "target": 34962
  },
  {
   "buffer": 0,
   "byteLength": 288,
   "byteOffset": 41880,
   "target": 34962
  },
  {
   "buffer": 0,
   "byteLength": 288,
   "byteOffset": 42168,
   "target": 34962
  },
  {
   "buffer": 0,
   "byteLength": 288,
   "byteOffset": 42456,
   "target": 34962
  },
  {
   "buffer": 0,
   "byteLength": 72,
   "byteOffset": 42744,
   "target": 34963
  },
  {
   "buffer": 0,
   "byteLength": 288,
   "byteOffset": 42816,
   "target": 34962
  },
  {
   "buffer": 0,
   "byteLength": 288,
   "byteOffset": 43104,
   "target": 34962
  },
  {
   "buffer": 0,
   "byteLength": 1056,
   "byteOffset": 43392,
   "target": 34962
  },
  {
   "buffer": 0,
   "byteLength": 1056,
   "byteOffset": 44448,
   "target": 34962
  },
  {
   "buffer": 0,
   "byteLength": 360,
   "byteOffset": 45504,
   "target": 34963
  },
  {
   "buffer": 0,
   "byteLength": 288,
   "byteOffset": 45864,
   "target": 34962
  },
  {
   "buffer": 0,
   "byteLength": 288,
   "byteOffset": 46152,
   "target": 34962
  },
  {
   "buffer": 0,
   "byteLength": 288,
   "byteOffset": 46440,
   "target": 34962
  },
  {
   "buffer": 0,
   "byteLength": 288,
   "byteOffset": 46728,
   "target": 34962
  },
  {
   "buffer": 0,
   "byteLength": 288,
   "byteOffset": 47016,
   "target": 34962
  },
  {
   "buffer": 0,
   "byteLength": 288,
   "byteOffset": 47304,
   "target": 34962
  },
  {
   "buffer": 0,
   "byteLength": 2304,
   "byteOffset": 47592,
   "target": 34962
  },
  {
   "buffer": 0,
   "byteLength": 2304,
   "byteOffset": 49896,
   "target": 34962
  },
  {
   "buffer": 0,
   "byteLength": 648,
   "byteOffset": 52200,
   "target": 34963
  },
  {
   "buffer": 0,
   "byteLength": 288,
   "byteOffset": 52848,
   "target": 34962
  },
  {
   "buffer": 0,
   "byteLength": 288,
   "byteOffset": 53136,
   "target": 34962
  },
  {
   "buffer": 0,
   "byteLength": 288,
   "byteOffset": 53424,
   "target": 34962
  },
  {
   "buffer": 0,
   "byteLength": 288,
   "byteOffset": 53712,
   "target": 34962
  },
  {
   "buffer": 0,
   "byteLength": 792,
   "byteOffset": 54000,
   "target": 34962
  },
  {
   "buffer": 0,
   "byteLength": 792,
   "byteOffset": 54792,
   "target": 34962
  },
  {
   "buffer": 0,
   "byteLength": 216,
   "byteOffset": 55584,
   "target": 34963
  },
  {
   "buffer": 0,
   "byteLength": 11760,
   "byteOffset": 55800,
   "target": 34962
  },
  {
   "buffer": 0,
   "byteLength": 11760,
   "byteOffset": 67560,
   "target": 34962
  },
  {
   "buffer": 0,
   "byteLength": 3720,
   "byteOffset": 79320,
   "target": 34963
  },
  {
   "buffer": 0,
   "byteLength": 288,
   "byteOffset": 83040,
   "target": 34962
  },
  {
   "buffer": 0,
   "byteLength": 288,
   "byteOffset": 83328,
   "target": 34962
  },
  {
   "buffer": 0,
   "byteLength": 288,
   "byteOffset": 83616,
   "target": 34962
  },
  {
   "buffer": 0,
   "byteLength": 288,
   "byteOffset": 83904,
   "target": 34962
  },
  {
   "buffer": 0,
   "byteLength": 288,
   "byteOffset": 84192,
   "target": 34962
  },
  {
   "buffer": 0,
   "byteLength": 288,
   "byteOffset": 84480,
   "target": 34962
  },
  {
   "buffer": 0,
   "byteLength": 288,
   "byteOffset": 84768,
   "target": 34962
  },
  {
   "buffer": 0,
   "byteLength": 288,
   "byteOffset": 85056,
   "target": 34962
  },
  {
   "buffer": 0,
   "byteLength": 288,
   "byteOffset": 85344,
   "target": 34962
  },
  {
   "buffer": 0,
   "byteLength": 288,
   "byteOffset": 85632,
   "target": 34962
  }
 ],
 "buffers": [
  {
   "byteLength": 85920,
   "uri": "Koban.bin"
  }
 ]
}
