{
 "asset": {
  "generator": "Khronos glTF Blender I/O v5.2.40",
  "version": "2.0",
  "extras": {
   "exported_by": "blender/tools/export_building_kit.py",
   "module_scale": 1.0
  }
 },
 "scene": 0,
 "scenes": [
  {
   "name": "library",
   "nodes": [
    0
   ]
  }
 ],
 "nodes": [
  {
   "mesh": 0,
   "name": "Kitchen_Grill"
  }
 ],
 "materials": [
  {
   "doubleSided": true,
   "name": "MI_Steel",
   "pbrMetallicRoughness": {
    "baseColorFactor": [
     0.5726980566978455,
     0.5820889472961426,
     0.5955169796943665,
     1
    ],
    "roughnessFactor": 0.699999988079071
   }
  }
 ],
 "meshes": [
  {
   "name": "Kitchen_Grill",
   "primitives": [
    {
     "attributes": {
      "POSITION": 0,
      "NORMAL": 1,
      "TEXCOORD_0": 2
     },
     "indices": 3,
     "material": 0
    }
   ]
  }
 ],
 "accessors": [
  {
   "bufferView": 0,
   "componentType": 5126,
   "count": 675,
   "max": [
    0.6189255714416504,
    0.8999999761581421,
    0.36746811866760254
   ],
   "min": [
    -0.6189255714416504,
    0,
    -0.36746835708618164
   ],
   "type": "VEC3"
  },
  {
   "bufferView": 1,
   "componentType": 5126,
   "count": 675,
   "type": "VEC3"
  },
  {
   "bufferView": 2,
   "componentType": 5126,
   "count": 675,
   "type": "VEC2"
  },
  {
   "bufferView": 3,
   "componentType": 5123,
   "count": 1158,
   "type": "SCALAR"
  }
 ],
 "bufferViews": [
  {
   "buffer": 0,
   "byteLength": 8100,
   "byteOffset": 0,
   "target": 34962
  },
  {
   "buffer": 0,
   "byteLength": 8100,
   "byteOffset": 8100,
   "target": 34962
  },
  {
   "buffer": 0,
   "byteLength": 5400,
   "byteOffset": 16200,
   "target": 34962
  },
  {
   "buffer": 0,
   "byteLength": 2316,
   "byteOffset": 21600,
   "target": 34963
  }
 ],
 "buffers": [
  {
   "byteLength": 23916,
   "uri": "Kitchen_Grill.bin"
  }
 ]
}
