{
 "asset": {
  "generator": "Khronos glTF Blender I/O v4.3.47",
  "version": "2.0",
  "extras": {
   "normalized_by": "tools/building_kit/normalize_kit.py",
   "module_scale": 0.91
  }
 },
 "scene": 0,
 "scenes": [
  {
   "name": "Scene",
   "nodes": [
    0
   ]
  }
 ],
 "nodes": [
  {
   "mesh": 0,
   "name": "Roof_Slate_Window_1"
  }
 ],
 "materials": [
  {
   "doubleSided": true,
   "name": "MI_Roof_Slate",
   "normalTexture": {
    "index": 0
   },
   "pbrMetallicRoughness": {
    "baseColorTexture": {
     "index": 1
    },
    "metallicRoughnessTexture": {
     "index": 2
    }
   }
  },
  {
   "doubleSided": true,
   "name": "MI_Trim",
   "normalTexture": {
    "index": 3
   },
   "pbrMetallicRoughness": {
    "baseColorTexture": {
     "index": 4
    },
    "metallicRoughnessTexture": {
     "index": 5
    }
   }
  },
  {
   "alphaMode": "BLEND",
   "doubleSided": true,
   "name": "MI_Glass",
   "pbrMetallicRoughness": {
    "baseColorFactor": [
     0.05215025693178177,
     0.05215025693178177,
     0.05215025693178177,
     0.586363673210144
    ],
    "metallicFactor": 0,
    "roughnessFactor": 0.5
   }
  },
  {
   "doubleSided": true,
   "name": "MI_FakeInterior",
   "pbrMetallicRoughness": {
    "baseColorFactor": [
     0.800000011920929,
     0.800000011920929,
     0.800000011920929,
     1
    ],
    "metallicFactor": 0,
    "roughnessFactor": 0.5
   }
  },
  {
   "doubleSided": true,
   "name": "MI_Trim_MetalConcrete",
   "normalTexture": {
    "index": 6
   },
   "pbrMetallicRoughness": {
    "baseColorTexture": {
     "index": 7
    },
    "metallicRoughnessTexture": {
     "index": 8
    }
   }
  }
 ],
 "meshes": [
  {
   "name": "Plane.050",
   "primitives": [
    {
     "attributes": {
      "POSITION": 0,
      "NORMAL": 1,
      "TEXCOORD_0": 2,
      "TEXCOORD_1": 3
     },
     "indices": 4,
     "material": 0
    },
    {
     "attributes": {
      "POSITION": 5,
      "NORMAL": 6,
      "TEXCOORD_0": 7,
      "TEXCOORD_1": 8
     },
     "indices": 9,
     "material": 1
    },
    {
     "attributes": {
      "POSITION": 10,
      "NORMAL": 11,
      "TEXCOORD_0": 12,
      "TEXCOORD_1": 13
     },
     "indices": 14,
     "material": 2
    },
    {
     "attributes": {
      "POSITION": 15,
      "NORMAL": 16,
      "TEXCOORD_0": 17,
      "TEXCOORD_1": 18
     },
     "indices": 19,
     "material": 3
    },
    {
     "attributes": {
      "POSITION": 20,
      "NORMAL": 21,
      "TEXCOORD_0": 22,
      "TEXCOORD_1": 23
     },
     "indices": 24,
     "material": 4
    }
   ]
  }
 ],
 "textures": [
  {
   "sampler": 0,
   "source": 0
  },
  {
   "sampler": 0,
   "source": 1
  },
  {
   "sampler": 0,
   "source": 2
  },
  {
   "sampler": 0,
   "source": 3
  },
  {
   "sampler": 0,
   "source": 4
  },
  {
   "sampler": 0,
   "source": 5
  },
  {
   "sampler": 0,
   "source": 6
  },
  {
   "sampler": 0,
   "source": 7
  },
  {
   "sampler": 0,
   "source": 8
  }
 ],
 "images": [
  {
   "mimeType": "image/png",
   "name": "T_RoofSlate_Normal",
   "uri": "../../textures/T_RoofSlate_Normal.png"
  },
  {
   "mimeType": "image/png",
   "name": "T_RoofSlate_BaseColor",
   "uri": "../../textures/T_RoofSlate_BaseColor.png"
  },
  {
   "mimeType": "image/png",
   "name": "T_RoofSlate_ORM",
   "uri": "../../textures/T_RoofSlate_ORM.png"
  },
  {
   "mimeType": "image/png",
   "name": "T_Trim_Normal",
   "uri": "../../textures/T_Trim_Normal.png"
  },
  {
   "mimeType": "image/png",
   "name": "T_Trim_BaseColor",
   "uri": "../../textures/T_Trim_BaseColor.png"
  },
  {
   "mimeType": "image/png",
   "name": "T_Trim_ORM",
   "uri": "../../textures/T_Trim_ORM.png"
  },
  {
   "mimeType": "image/png",
   "name": "T_MetalConcrete_Normal",
   "uri": "../../textures/T_MetalConcrete_Normal.png"
  },
  {
   "mimeType": "image/png",
   "name": "T_MetalConcrete_BaseColor",
   "uri": "../../textures/T_MetalConcrete_BaseColor.png"
  },
  {
   "mimeType": "image/png",
   "name": "T_MetalConcrete_ORM",
   "uri": "../../textures/T_MetalConcrete_ORM.png"
  }
 ],
 "accessors": [
  {
   "bufferView": 0,
   "componentType": 5126,
   "count": 24,
   "max": [
    0.91,
    2.73,
    0.0
   ],
   "min": [
    -0.91,
    0.0,
    -1.82
   ],
   "type": "VEC3"
  },
  {
   "bufferView": 1,
   "componentType": 5126,
   "count": 24,
   "type": "VEC3"
  },
  {
   "bufferView": 2,
   "componentType": 5126,
   "count": 24,
   "type": "VEC2"
  },
  {
   "bufferView": 3,
   "componentType": 5126,
   "count": 24,
   "type": "VEC2"
  },
  {
   "bufferView": 4,
   "componentType": 5123,
   "count": 66,
   "type": "SCALAR"
  },
  {
   "bufferView": 5,
   "componentType": 5126,
   "count": 483,
   "max": [
    0.7015935361385346,
    2.400560483932495,
    0.1080082380771637
   ],
   "min": [
    -0.7015935361385346,
    0.028207412958145144,
    -0.8022712618112564
   ],
   "type": "VEC3"
  },
  {
   "bufferView": 6,
   "componentType": 5126,
   "count": 483,
   "type": "VEC3"
  },
  {
   "bufferView": 7,
   "componentType": 5126,
   "count": 483,
   "type": "VEC2"
  },
  {
   "bufferView": 8,
   "componentType": 5126,
   "count": 483,
   "type": "VEC2"
  },
  {
   "bufferView": 9,
   "componentType": 5123,
   "count": 996,
   "type": "SCALAR"
  },
  {
   "bufferView": 10,
   "componentType": 5126,
   "count": 16,
   "max": [
    0.2818986624479294,
    1.7806428575515747,
    -0.09655384123325349
   ],
   "min": [
    -0.2818986624479294,
    0.18903101414442064,
    -0.11976459026336671
   ],
   "type": "VEC3"
  },
  {
   "bufferView": 11,
   "componentType": 5126,
   "count": 16,
   "type": "VEC3"
  },
  {
   "bufferView": 12,
   "componentType": 5126,
   "count": 16,
   "type": "VEC2"
  },
  {
   "bufferView": 13,
   "componentType": 5126,
   "count": 16,
   "type": "VEC2"
  },
  {
   "bufferView": 14,
   "componentType": 5123,
   "count": 24,
   "type": "SCALAR"
  },
  {
   "bufferView": 15,
   "componentType": 5126,
   "count": 4,
   "max": [
    0.502013258934021,
    2.2671941804885867,
    -0.12165204167366028
   ],
   "min": [
    -0.502013258934021,
    0.020561710596084595,
    -0.12165204167366028
   ],
   "type": "VEC3"
  },
  {
   "bufferView": 16,
   "componentType": 5126,
   "count": 4,
   "type": "VEC3"
  },
  {
   "bufferView": 17,
   "componentType": 5126,
   "count": 4,
   "type": "VEC2"
  },
  {
   "bufferView": 18,
   "componentType": 5126,
   "count": 4,
   "type": "VEC2"
  },
  {
   "bufferView": 19,
   "componentType": 5123,
   "count": 6,
   "type": "SCALAR"
  },
  {
   "bufferView": 20,
   "componentType": 5126,
   "count": 8,
   "max": [
    0.91,
    2.73,
    -1.82
   ],
   "min": [
    -0.91,
    2.5479999566078186,
    -1.82
   ],
   "type": "VEC3"
  },
  {
   "bufferView": 21,
   "componentType": 5126,
   "count": 8,
   "type": "VEC3"
  },
  {
   "bufferView": 22,
   "componentType": 5126,
   "count": 8,
   "type": "VEC2"
  },
  {
   "bufferView": 23,
   "componentType": 5126,
   "count": 8,
   "type": "VEC2"
  },
  {
   "bufferView": 24,
   "componentType": 5123,
   "count": 18,
   "type": "SCALAR"
  }
 ],
 "bufferViews": [
  {
   "buffer": 0,
   "byteLength": 288,
   "byteOffset": 0,
   "target": 34962
  },
  {
   "buffer": 0,
   "byteLength": 288,
   "byteOffset": 288,
   "target": 34962
  },
  {
   "buffer": 0,
   "byteLength": 192,
   "byteOffset": 576,
   "target": 34962
  },
  {
   "buffer": 0,
   "byteLength": 192,
   "byteOffset": 768,
   "target": 34962
  },
  {
   "buffer": 0,
   "byteLength": 132,
   "byteOffset": 960,
   "target": 34963
  },
  {
   "buffer": 0,
   "byteLength": 5796,
   "byteOffset": 1092,
   "target": 34962
  },
  {
   "buffer": 0,
   "byteLength": 5796,
   "byteOffset": 6888,
   "target": 34962
  },
  {
   "buffer": 0,
   "byteLength": 3864,
   "byteOffset": 12684,
   "target": 34962
  },
  {
   "buffer": 0,
   "byteLength": 3864,
   "byteOffset": 16548,
   "target": 34962
  },
  {
   "buffer": 0,
   "byteLength": 1992,
   "byteOffset": 20412,
   "target": 34963
  },
  {
   "buffer": 0,
   "byteLength": 192,
   "byteOffset": 22404,
   "target": 34962
  },
  {
   "buffer": 0,
   "byteLength": 192,
   "byteOffset": 22596,
   "target": 34962
  },
  {
   "buffer": 0,
   "byteLength": 128,
   "byteOffset": 22788,
   "target": 34962
  },
  {
   "buffer": 0,
   "byteLength": 128,
   "byteOffset": 22916,
   "target": 34962
  },
  {
   "buffer": 0,
   "byteLength": 48,
   "byteOffset": 23044,
   "target": 34963
  },
  {
   "buffer": 0,
   "byteLength": 48,
   "byteOffset": 23092,
   "target": 34962
  },
  {
   "buffer": 0,
   "byteLength": 48,
   "byteOffset": 23140,
   "target": 34962
  },
  {
   "buffer": 0,
   "byteLength": 32,
   "byteOffset": 23188,
   "target": 34962
  },
  {
   "buffer": 0,
   "byteLength": 32,
   "byteOffset": 23220,
   "target": 34962
  },
  {
   "buffer": 0,
   "byteLength": 12,
   "byteOffset": 23252,
   "target": 34963
  },
  {
   "buffer": 0,
   "byteLength": 96,
   "byteOffset": 23264,
   "target": 34962
  },
  {
   "buffer": 0,
   "byteLength": 96,
   "byteOffset": 23360,
   "target": 34962
  },
  {
   "buffer": 0,
   "byteLength": 64,
   "byteOffset": 23456,
   "target": 34962
  },
  {
   "buffer": 0,
   "byteLength": 64,
   "byteOffset": 23520,
   "target": 34962
  },
  {
   "buffer": 0,
   "byteLength": 36,
   "byteOffset": 23584,
   "target": 34963
  }
 ],
 "samplers": [
  {
   "magFilter": 9729,
   "minFilter": 9987
  }
 ],
 "buffers": [
  {
   "byteLength": 23620,
   "uri": "Roof_Slate_Window_1.bin"
  }
 ]
}
