{
 "asset": {
  "generator": "Khronos glTF Blender I/O v5.2.40",
  "version": "2.0",
  "extras": {
   "exported_by": "blender/tools/export_building_kit.py",
   "module_scale": 0.91
  }
 },
 "scene": 0,
 "scenes": [
  {
   "extras": {
    "bk_kit": "quaternius_downtown_city",
    "bk_module_scale": 0.91,
    "bk_status": "OWNER: this file is the source of the kit's pieces. Edit a piece in its collection (origin = the piece's own origin + the collection's instance_offset), then run tools/building_kit/build_buildings.sh, which exports pieces/ with blender/tools/export_building_kit.py. A moved or resized piece is refused unless ACCEPT_BOUNDS=1."
   },
   "name": "Scene",
   "nodes": [
    0
   ]
  }
 ],
 "nodes": [
  {
   "mesh": 0,
   "name": "Brick_CornerColumn_CapShort"
  }
 ],
 "materials": [
  {
   "doubleSided": true,
   "name": "MI_Trim",
   "normalTexture": {
    "index": 0
   },
   "pbrMetallicRoughness": {
    "baseColorTexture": {
     "index": 1
    },
    "metallicRoughnessTexture": {
     "index": 2
    }
   }
  }
 ],
 "meshes": [
  {
   "name": "Cube.261",
   "primitives": [
    {
     "attributes": {
      "POSITION": 0,
      "NORMAL": 1,
      "TEXCOORD_0": 2,
      "TEXCOORD_1": 3,
      "COLOR_0": 4,
      "COLOR_1": 5
     },
     "indices": 6,
     "material": 0
    }
   ]
  }
 ],
 "textures": [
  {
   "sampler": 0,
   "source": 0
  },
  {
   "sampler": 0,
   "source": 1
  },
  {
   "sampler": 0,
   "source": 2
  }
 ],
 "images": [
  {
   "mimeType": "image/png",
   "name": "T_Trim_Normal",
   "uri": "../../textures/T_Trim_Normal.png"
  },
  {
   "mimeType": "image/png",
   "name": "T_Trim_BaseColor",
   "uri": "../../textures/T_Trim_BaseColor.png"
  },
  {
   "mimeType": "image/png",
   "name": "T_Trim_ORM",
   "uri": "../../textures/T_Trim_ORM.png"
  }
 ],
 "accessors": [
  {
   "bufferView": 0,
   "componentType": 5126,
   "count": 74,
   "max": [
    0.20930010080337524,
    2.767439365386963,
    0.20930001139640808
   ],
   "min": [
    -0.9372999668121338,
    2.547999858856201,
    -0.9372999668121338
   ],
   "type": "VEC3"
  },
  {
   "bufferView": 1,
   "componentType": 5126,
   "count": 74,
   "type": "VEC3"
  },
  {
   "bufferView": 2,
   "componentType": 5126,
   "count": 74,
   "type": "VEC2"
  },
  {
   "bufferView": 3,
   "componentType": 5126,
   "count": 74,
   "type": "VEC2"
  },
  {
   "bufferView": 4,
   "componentType": 5123,
   "count": 74,
   "normalized": true,
   "type": "VEC4"
  },
  {
   "bufferView": 5,
   "componentType": 5123,
   "count": 74,
   "normalized": true,
   "type": "VEC4"
  },
  {
   "bufferView": 6,
   "componentType": 5123,
   "count": 180,
   "type": "SCALAR"
  }
 ],
 "bufferViews": [
  {
   "buffer": 0,
   "byteLength": 888,
   "byteOffset": 0,
   "target": 34962
  },
  {
   "buffer": 0,
   "byteLength": 888,
   "byteOffset": 888,
   "target": 34962
  },
  {
   "buffer": 0,
   "byteLength": 592,
   "byteOffset": 1776,
   "target": 34962
  },
  {
   "buffer": 0,
   "byteLength": 592,
   "byteOffset": 2368,
   "target": 34962
  },
  {
   "buffer": 0,
   "byteLength": 592,
   "byteOffset": 2960,
   "target": 34962
  },
  {
   "buffer": 0,
   "byteLength": 592,
   "byteOffset": 3552,
   "target": 34962
  },
  {
   "buffer": 0,
   "byteLength": 360,
   "byteOffset": 4144,
   "target": 34963
  }
 ],
 "samplers": [
  {
   "magFilter": 9729,
   "minFilter": 9987
  }
 ],
 "buffers": [
  {
   "byteLength": 4504,
   "uri": "Brick_CornerColumn_CapShort.bin"
  }
 ]
}
