{
 "asset": {
  "generator": "Khronos glTF Blender I/O v4.3.47",
  "version": "2.0",
  "extras": {
   "normalized_by": "tools/building_kit/normalize_kit.py",
   "module_scale": 0.91
  }
 },
 "scene": 0,
 "scenes": [
  {
   "name": "Scene",
   "nodes": [
    0
   ]
  }
 ],
 "nodes": [
  {
   "mesh": 0,
   "name": "Brick_CornerColumn_Bottom"
  }
 ],
 "materials": [
  {
   "doubleSided": true,
   "name": "MI_RedBrick_Pale",
   "normalTexture": {
    "index": 0
   },
   "pbrMetallicRoughness": {
    "baseColorTexture": {
     "index": 1
    },
    "metallicRoughnessTexture": {
     "index": 2
    }
   }
  },
  {
   "doubleSided": true,
   "name": "MI_Trim",
   "normalTexture": {
    "index": 3
   },
   "pbrMetallicRoughness": {
    "baseColorTexture": {
     "index": 4
    },
    "metallicRoughnessTexture": {
     "index": 5
    }
   }
  }
 ],
 "meshes": [
  {
   "name": "Cube.215",
   "primitives": [
    {
     "attributes": {
      "POSITION": 0,
      "NORMAL": 1,
      "TEXCOORD_0": 2,
      "TEXCOORD_1": 3,
      "COLOR_0": 4,
      "COLOR_1": 5
     },
     "indices": 6,
     "material": 0
    },
    {
     "attributes": {
      "POSITION": 7,
      "NORMAL": 8,
      "TEXCOORD_0": 9,
      "TEXCOORD_1": 10,
      "COLOR_0": 11,
      "COLOR_1": 12
     },
     "indices": 13,
     "material": 1
    }
   ]
  }
 ],
 "textures": [
  {
   "sampler": 0,
   "source": 0
  },
  {
   "sampler": 0,
   "source": 1
  },
  {
   "sampler": 0,
   "source": 2
  },
  {
   "sampler": 0,
   "source": 3
  },
  {
   "sampler": 0,
   "source": 4
  },
  {
   "sampler": 0,
   "source": 5
  }
 ],
 "images": [
  {
   "mimeType": "image/png",
   "name": "T_RedBrick_Normal",
   "uri": "../../textures/T_RedBrick_Normal.png"
  },
  {
   "mimeType": "image/png",
   "name": "T_RedBrick_BaseColor",
   "uri": "../../textures/T_RedBrick_BaseColor.png"
  },
  {
   "mimeType": "image/png",
   "name": "T_RedBrick_ORM",
   "uri": "../../textures/T_RedBrick_ORM.png"
  },
  {
   "mimeType": "image/png",
   "name": "T_Trim_Normal",
   "uri": "../../textures/T_Trim_Normal.png"
  },
  {
   "mimeType": "image/png",
   "name": "T_Trim_BaseColor",
   "uri": "../../textures/T_Trim_BaseColor.png"
  },
  {
   "mimeType": "image/png",
   "name": "T_Trim_ORM",
   "uri": "../../textures/T_Trim_ORM.png"
  }
 ],
 "accessors": [
  {
   "bufferView": 0,
   "componentType": 5126,
   "count": 32,
   "max": [
    0.15470008298754692,
    2.73,
    0.1547000965476036
   ],
   "min": [
    -0.8827000802755356,
    0.38066583037376406,
    -0.8827000260353088
   ],
   "type": "VEC3"
  },
  {
   "bufferView": 1,
   "componentType": 5126,
   "count": 32,
   "type": "VEC3"
  },
  {
   "bufferView": 2,
   "componentType": 5126,
   "count": 32,
   "type": "VEC2"
  },
  {
   "bufferView": 3,
   "componentType": 5126,
   "count": 32,
   "type": "VEC2"
  },
  {
   "bufferView": 4,
   "componentType": 5121,
   "count": 32,
   "normalized": true,
   "type": "VEC4"
  },
  {
   "bufferView": 5,
   "componentType": 5123,
   "count": 32,
   "normalized": true,
   "type": "VEC4"
  },
  {
   "bufferView": 6,
   "componentType": 5123,
   "count": 48,
   "type": "SCALAR"
  },
  {
   "bufferView": 7,
   "componentType": 5126,
   "count": 84,
   "max": [
    0.2092999766767025,
    0.38066583037376406,
    0.2092999766767025
   ],
   "min": [
    -0.9373000824451447,
    0.0,
    -0.9372999739646912
   ],
   "type": "VEC3"
  },
  {
   "bufferView": 8,
   "componentType": 5126,
   "count": 84,
   "type": "VEC3"
  },
  {
   "bufferView": 9,
   "componentType": 5126,
   "count": 84,
   "type": "VEC2"
  },
  {
   "bufferView": 10,
   "componentType": 5126,
   "count": 84,
   "type": "VEC2"
  },
  {
   "bufferView": 11,
   "componentType": 5121,
   "count": 84,
   "normalized": true,
   "type": "VEC4"
  },
  {
   "bufferView": 12,
   "componentType": 5123,
   "count": 84,
   "normalized": true,
   "type": "VEC4"
  },
  {
   "bufferView": 13,
   "componentType": 5123,
   "count": 192,
   "type": "SCALAR"
  }
 ],
 "bufferViews": [
  {
   "buffer": 0,
   "byteLength": 384,
   "byteOffset": 0,
   "target": 34962
  },
  {
   "buffer": 0,
   "byteLength": 384,
   "byteOffset": 384,
   "target": 34962
  },
  {
   "buffer": 0,
   "byteLength": 256,
   "byteOffset": 768,
   "target": 34962
  },
  {
   "buffer": 0,
   "byteLength": 256,
   "byteOffset": 1024,
   "target": 34962
  },
  {
   "buffer": 0,
   "byteLength": 128,
   "byteOffset": 1280,
   "target": 34962
  },
  {
   "buffer": 0,
   "byteLength": 256,
   "byteOffset": 1408,
   "target": 34962
  },
  {
   "buffer": 0,
   "byteLength": 96,
   "byteOffset": 1664,
   "target": 34963
  },
  {
   "buffer": 0,
   "byteLength": 1008,
   "byteOffset": 1760,
   "target": 34962
  },
  {
   "buffer": 0,
   "byteLength": 1008,
   "byteOffset": 2768,
   "target": 34962
  },
  {
   "buffer": 0,
   "byteLength": 672,
   "byteOffset": 3776,
   "target": 34962
  },
  {
   "buffer": 0,
   "byteLength": 672,
   "byteOffset": 4448,
   "target": 34962
  },
  {
   "buffer": 0,
   "byteLength": 336,
   "byteOffset": 5120,
   "target": 34962
  },
  {
   "buffer": 0,
   "byteLength": 672,
   "byteOffset": 5456,
   "target": 34962
  },
  {
   "buffer": 0,
   "byteLength": 384,
   "byteOffset": 6128,
   "target": 34963
  }
 ],
 "samplers": [
  {
   "magFilter": 9729,
   "minFilter": 9987
  }
 ],
 "buffers": [
  {
   "byteLength": 6512,
   "uri": "Brick_CornerColumn_Bottom.bin"
  }
 ]
}
