{
 "asset": {
  "generator": "Khronos glTF Blender I/O v5.2.40",
  "version": "2.0",
  "extras": {
   "exported_by": "blender/tools/export_building_kit.py",
   "module_scale": 0.91
  }
 },
 "scene": 0,
 "scenes": [
  {
   "extras": {
    "bk_kit": "quaternius_downtown_city",
    "bk_module_scale": 0.91,
    "bk_status": "OWNER: this file is the source of the kit's pieces. Edit a piece in its collection (origin = the piece's own origin + the collection's instance_offset), then run tools/building_kit/build_buildings.sh, which exports pieces/ with blender/tools/export_building_kit.py. A moved or resized piece is refused unless ACCEPT_BOUNDS=1."
   },
   "name": "Scene",
   "nodes": [
    0
   ]
  }
 ],
 "nodes": [
  {
   "mesh": 0,
   "name": "Trim_Column_Center"
  }
 ],
 "materials": [
  {
   "doubleSided": true,
   "name": "MI_Trim",
   "normalTexture": {
    "index": 0
   },
   "pbrMetallicRoughness": {
    "baseColorTexture": {
     "index": 1
    },
    "metallicRoughnessTexture": {
     "index": 2
    }
   }
  }
 ],
 "meshes": [
  {
   "name": "Cube.140",
   "primitives": [
    {
     "attributes": {
      "POSITION": 0,
      "NORMAL": 1,
      "TEXCOORD_0": 2,
      "TEXCOORD_1": 3
     },
     "indices": 4,
     "material": 0
    }
   ]
  }
 ],
 "textures": [
  {
   "sampler": 0,
   "source": 0
  },
  {
   "sampler": 0,
   "source": 1
  },
  {
   "sampler": 0,
   "source": 2
  }
 ],
 "images": [
  {
   "mimeType": "image/png",
   "name": "T_Trim_Normal",
   "uri": "../../textures/T_Trim_Normal.png"
  },
  {
   "mimeType": "image/png",
   "name": "T_Trim_BaseColor",
   "uri": "../../textures/T_Trim_BaseColor.png"
  },
  {
   "mimeType": "image/png",
   "name": "T_Trim_ORM",
   "uri": "../../textures/T_Trim_ORM.png"
  }
 ],
 "accessors": [
  {
   "bufferView": 0,
   "componentType": 5126,
   "count": 114,
   "max": [
    0.3055834472179413,
    2.7300000190734863,
    0.30558350682258606
   ],
   "min": [
    -0.3055834472179413,
    0,
    -0.3055834472179413
   ],
   "type": "VEC3"
  },
  {
   "bufferView": 1,
   "componentType": 5126,
   "count": 114,
   "type": "VEC3"
  },
  {
   "bufferView": 2,
   "componentType": 5126,
   "count": 114,
   "type": "VEC2"
  },
  {
   "bufferView": 3,
   "componentType": 5126,
   "count": 114,
   "type": "VEC2"
  },
  {
   "bufferView": 4,
   "componentType": 5123,
   "count": 192,
   "type": "SCALAR"
  }
 ],
 "bufferViews": [
  {
   "buffer": 0,
   "byteLength": 1368,
   "byteOffset": 0,
   "target": 34962
  },
  {
   "buffer": 0,
   "byteLength": 1368,
   "byteOffset": 1368,
   "target": 34962
  },
  {
   "buffer": 0,
   "byteLength": 912,
   "byteOffset": 2736,
   "target": 34962
  },
  {
   "buffer": 0,
   "byteLength": 912,
   "byteOffset": 3648,
   "target": 34962
  },
  {
   "buffer": 0,
   "byteLength": 384,
   "byteOffset": 4560,
   "target": 34963
  }
 ],
 "samplers": [
  {
   "magFilter": 9729,
   "minFilter": 9987
  }
 ],
 "buffers": [
  {
   "byteLength": 4944,
   "uri": "Trim_Column_Center.bin"
  }
 ]
}
