{
 "asset": {
  "generator": "Khronos glTF Blender I/O v5.2.40",
  "version": "2.0",
  "extras": {
   "exported_by": "blender/tools/export_building_kit.py",
   "module_scale": 1.0
  }
 },
 "scene": 0,
 "scenes": [
  {
   "name": "library",
   "nodes": [
    0
   ]
  }
 ],
 "nodes": [
  {
   "extras": {
    "edit_note": "Placeholder, ours (CC0). Keep the frame: Z up, origin at the footprint centre on the ground, the side a person uses facing -Y; real size in metres. After editing: tools/building_kit/build_buildings.sh."
   },
   "mesh": 0,
   "name": "Sign_RoofBillboard_S_Green"
  }
 ],
 "materials": [
  {
   "doubleSided": true,
   "name": "MI_Steel",
   "pbrMetallicRoughness": {
    "baseColorFactor": [
     0.5726980566978455,
     0.5820889472961426,
     0.5955169796943665,
     1
    ],
    "roughnessFactor": 0.699999988079071
   }
  },
  {
   "doubleSided": true,
   "name": "MI_PlasticDark",
   "pbrMetallicRoughness": {
    "baseColorFactor": [
     0.11999999731779099,
     0.11999999731779099,
     0.12999999523162842,
     1
    ],
    "metallicFactor": 0,
    "roughnessFactor": 0.6000000238418579
   }
  },
  {
   "doubleSided": true,
   "emissiveFactor": [
    0.08000000238418581,
    0.480000026226044,
    0.20000000298023224
   ],
   "name": "MI_SignGreen",
   "pbrMetallicRoughness": {
    "baseColorFactor": [
     0.10000000149011612,
     0.550000011920929,
     0.25,
     1
    ],
    "metallicFactor": 0,
    "roughnessFactor": 0.699999988079071
   }
  }
 ],
 "meshes": [
  {
   "name": "Sign_RoofBillboard_S_Green",
   "primitives": [
    {
     "attributes": {
      "POSITION": 0,
      "NORMAL": 1
     },
     "indices": 2,
     "material": 0
    },
    {
     "attributes": {
      "POSITION": 3,
      "NORMAL": 4
     },
     "indices": 5,
     "material": 1
    },
    {
     "attributes": {
      "POSITION": 6,
      "NORMAL": 7
     },
     "indices": 5,
     "material": 2
    }
   ]
  }
 ],
 "accessors": [
  {
   "bufferView": 0,
   "componentType": 5126,
   "count": 120,
   "max": [
    2.200000047683716,
    5.849999904632568,
    0.6200000047683716
   ],
   "min": [
    -2.200000047683716,
    0,
    -1.600000023841858
   ],
   "type": "VEC3"
  },
  {
   "bufferView": 1,
   "componentType": 5126,
   "count": 120,
   "type": "VEC3"
  },
  {
   "bufferView": 2,
   "componentType": 5123,
   "count": 180,
   "type": "SCALAR"
  },
  {
   "bufferView": 3,
   "componentType": 5126,
   "count": 24,
   "max": [
    2.4000000953674316,
    5.800000190734863,
    0.30000001192092896
   ],
   "min": [
    -2.4000000953674316,
    2.799999952316284,
    -0.25
   ],
   "type": "VEC3"
  },
  {
   "bufferView": 4,
   "componentType": 5126,
   "count": 24,
   "type": "VEC3"
  },
  {
   "bufferView": 5,
   "componentType": 5123,
   "count": 36,
   "type": "SCALAR"
  },
  {
   "bufferView": 6,
   "componentType": 5126,
   "count": 24,
   "max": [
    2.200000047683716,
    5.599999904632568,
    0.33000001311302185
   ],
   "min": [
    -2.200000047683716,
    3,
    0.30000001192092896
   ],
   "type": "VEC3"
  },
  {
   "bufferView": 7,
   "componentType": 5126,
   "count": 24,
   "type": "VEC3"
  }
 ],
 "bufferViews": [
  {
   "buffer": 0,
   "byteLength": 1440,
   "byteOffset": 0,
   "target": 34962
  },
  {
   "buffer": 0,
   "byteLength": 1440,
   "byteOffset": 1440,
   "target": 34962
  },
  {
   "buffer": 0,
   "byteLength": 360,
   "byteOffset": 2880,
   "target": 34963
  },
  {
   "buffer": 0,
   "byteLength": 288,
   "byteOffset": 3240,
   "target": 34962
  },
  {
   "buffer": 0,
   "byteLength": 288,
   "byteOffset": 3528,
   "target": 34962
  },
  {
   "buffer": 0,
   "byteLength": 72,
   "byteOffset": 3816,
   "target": 34963
  },
  {
   "buffer": 0,
   "byteLength": 288,
   "byteOffset": 3888,
   "target": 34962
  },
  {
   "buffer": 0,
   "byteLength": 288,
   "byteOffset": 4176,
   "target": 34962
  }
 ],
 "buffers": [
  {
   "byteLength": 4464,
   "uri": "Sign_RoofBillboard_S_Green.bin"
  }
 ]
}
