{
 "asset": {
  "generator": "Khronos glTF Blender I/O v5.2.40",
  "version": "2.0",
  "extras": {
   "exported_by": "blender/tools/export_building_kit.py",
   "module_scale": 1.0
  }
 },
 "scene": 0,
 "scenes": [
  {
   "name": "library",
   "nodes": [
    0
   ]
  }
 ],
 "nodes": [
  {
   "extras": {
    "edit_note": "Placeholder \u8a3a\u7642\u6240 on a 14 x 18 plot, origin = plot centre, street -Y."
   },
   "mesh": 0,
   "name": "Civic_Clinic"
  }
 ],
 "materials": [
  {
   "doubleSided": true,
   "name": "MI_TileWhite",
   "pbrMetallicRoughness": {
    "baseColorFactor": [
     0.8136419057846069,
     0.8136419057846069,
     0.8136419057846069,
     1
    ],
    "metallicFactor": 0,
    "roughnessFactor": 0.699999988079071
   }
  },
  {
   "doubleSided": true,
   "name": "MI_GlassClear",
   "pbrMetallicRoughness": {
    "baseColorFactor": [
     0.550000011920929,
     0.6800000071525574,
     0.7200000286102295,
     1
    ],
    "metallicFactor": 0.20000000298023224,
    "roughnessFactor": 0.05000000074505806
   }
  },
  {
   "doubleSided": true,
   "name": "MI_TileBeige",
   "pbrMetallicRoughness": {
    "baseColorFactor": [
     0.8199999928474426,
     0.7599999904632568,
     0.6399999856948853,
     1
    ],
    "metallicFactor": 0,
    "roughnessFactor": 0.800000011920929
   }
  },
  {
   "doubleSided": true,
   "name": "MI_Window",
   "pbrMetallicRoughness": {
    "baseColorFactor": [
     0.1599999964237213,
     0.2199999988079071,
     0.2800000011920929,
     1
    ],
    "metallicFactor": 0.3499999940395355,
    "roughnessFactor": 0.11999999731779099
   }
  },
  {
   "doubleSided": true,
   "name": "MI_ConcreteSmooth",
   "pbrMetallicRoughness": {
    "baseColorFactor": [
     0.44070473313331604,
     0.43014833331108093,
     0.40880659222602844,
     1
    ],
    "metallicFactor": 0,
    "roughnessFactor": 0.699999988079071
   }
  },
  {
   "doubleSided": true,
   "name": "MI_PlasticWhite",
   "pbrMetallicRoughness": {
    "baseColorFactor": [
     0.9300000071525574,
     0.9300000071525574,
     0.9100000262260437,
     1
    ],
    "metallicFactor": 0,
    "roughnessFactor": 0.30000001192092896
   }
  },
  {
   "doubleSided": true,
   "emissiveFactor": [
    0.08000000238418581,
    0.480000026226044,
    0.20000000298023224
   ],
   "name": "MI_SignGreen",
   "pbrMetallicRoughness": {
    "baseColorFactor": [
     0.10000000149011612,
     0.550000011920929,
     0.25,
     1
    ],
    "metallicFactor": 0,
    "roughnessFactor": 0.699999988079071
   }
  }
 ],
 "meshes": [
  {
   "name": "Civic_Clinic.001",
   "primitives": [
    {
     "attributes": {
      "POSITION": 0,
      "NORMAL": 1
     },
     "indices": 2,
     "material": 0
    },
    {
     "attributes": {
      "POSITION": 3,
      "NORMAL": 4
     },
     "indices": 2,
     "material": 1
    },
    {
     "attributes": {
      "POSITION": 5,
      "NORMAL": 6
     },
     "indices": 7,
     "material": 2
    },
    {
     "attributes": {
      "POSITION": 8,
      "NORMAL": 9
     },
     "indices": 10,
     "material": 3
    },
    {
     "attributes": {
      "POSITION": 11,
      "NORMAL": 12
     },
     "indices": 13,
     "material": 4
    },
    {
     "attributes": {
      "POSITION": 14,
      "NORMAL": 15
     },
     "indices": 2,
     "material": 5
    },
    {
     "attributes": {
      "POSITION": 16,
      "NORMAL": 17
     },
     "indices": 2,
     "material": 6
    }
   ]
  }
 ],
 "accessors": [
  {
   "bufferView": 0,
   "componentType": 5126,
   "count": 24,
   "max": [
    6,
    3.5999999046325684,
    8
   ],
   "min": [
    -6,
    0,
    -5
   ],
   "type": "VEC3"
  },
  {
   "bufferView": 1,
   "componentType": 5126,
   "count": 24,
   "type": "VEC3"
  },
  {
   "bufferView": 2,
   "componentType": 5123,
   "count": 36,
   "type": "SCALAR"
  },
  {
   "bufferView": 3,
   "componentType": 5126,
   "count": 24,
   "max": [
    2,
    3,
    8.029999732971191
   ],
   "min": [
    -5,
    0.30000001192092896,
    8
   ],
   "type": "VEC3"
  },
  {
   "bufferView": 4,
   "componentType": 5126,
   "count": 24,
   "type": "VEC3"
  },
  {
   "bufferView": 5,
   "componentType": 5126,
   "count": 20,
   "max": [
    6,
    9.600000381469727,
    8
   ],
   "min": [
    -6,
    3.5999999046325684,
    -5
   ],
   "type": "VEC3"
  },
  {
   "bufferView": 6,
   "componentType": 5126,
   "count": 20,
   "type": "VEC3"
  },
  {
   "bufferView": 7,
   "componentType": 5123,
   "count": 30,
   "type": "SCALAR"
  },
  {
   "bufferView": 8,
   "componentType": 5126,
   "count": 768,
   "max": [
    6.03000020980835,
    9.100000381469727,
    8.029999732971191
   ],
   "min": [
    -6.03000020980835,
    4.5,
    -5.03000020980835
   ],
   "type": "VEC3"
  },
  {
   "bufferView": 9,
   "componentType": 5126,
   "count": 768,
   "type": "VEC3"
  },
  {
   "bufferView": 10,
   "componentType": 5123,
   "count": 1152,
   "type": "SCALAR"
  },
  {
   "bufferView": 11,
   "componentType": 5126,
   "count": 72,
   "max": [
    6,
    10.699999809265137,
    8
   ],
   "min": [
    -6,
    9.600000381469727,
    -5
   ],
   "type": "VEC3"
  },
  {
   "bufferView": 12,
   "componentType": 5126,
   "count": 72,
   "type": "VEC3"
  },
  {
   "bufferView": 13,
   "componentType": 5123,
   "count": 144,
   "type": "SCALAR"
  },
  {
   "bufferView": 14,
   "componentType": 5126,
   "count": 24,
   "max": [
    -1.2000000476837158,
    10.899999618530273,
    -1
   ],
   "min": [
    -3,
    9.600000381469727,
    -2.200000047683716
   ],
   "type": "VEC3"
  },
  {
   "bufferView": 15,
   "componentType": 5126,
   "count": 24,
   "type": "VEC3"
  },
  {
   "bufferView": 16,
   "componentType": 5126,
   "count": 24,
   "max": [
    5,
    4.300000190734863,
    8.149999618530273
   ],
   "min": [
    -5,
    3.6500000953674316,
    8
   ],
   "type": "VEC3"
  },
  {
   "bufferView": 17,
   "componentType": 5126,
   "count": 24,
   "type": "VEC3"
  }
 ],
 "bufferViews": [
  {
   "buffer": 0,
   "byteLength": 288,
   "byteOffset": 0,
   "target": 34962
  },
  {
   "buffer": 0,
   "byteLength": 288,
   "byteOffset": 288,
   "target": 34962
  },
  {
   "buffer": 0,
   "byteLength": 72,
   "byteOffset": 576,
   "target": 34963
  },
  {
   "buffer": 0,
   "byteLength": 288,
   "byteOffset": 648,
   "target": 34962
  },
  {
   "buffer": 0,
   "byteLength": 288,
   "byteOffset": 936,
   "target": 34962
  },
  {
   "buffer": 0,
   "byteLength": 240,
   "byteOffset": 1224,
   "target": 34962
  },
  {
   "buffer": 0,
   "byteLength": 240,
   "byteOffset": 1464,
   "target": 34962
  },
  {
   "buffer": 0,
   "byteLength": 60,
   "byteOffset": 1704,
   "target": 34963
  },
  {
   "buffer": 0,
   "byteLength": 9216,
   "byteOffset": 1764,
   "target": 34962
  },
  {
   "buffer": 0,
   "byteLength": 9216,
   "byteOffset": 10980,
   "target": 34962
  },
  {
   "buffer": 0,
   "byteLength": 2304,
   "byteOffset": 20196,
   "target": 34963
  },
  {
   "buffer": 0,
   "byteLength": 864,
   "byteOffset": 22500,
   "target": 34962
  },
  {
   "buffer": 0,
   "byteLength": 864,
   "byteOffset": 23364,
   "target": 34962
  },
  {
   "buffer": 0,
   "byteLength": 288,
   "byteOffset": 24228,
   "target": 34963
  },
  {
   "buffer": 0,
   "byteLength": 288,
   "byteOffset": 24516,
   "target": 34962
  },
  {
   "buffer": 0,
   "byteLength": 288,
   "byteOffset": 24804,
   "target": 34962
  },
  {
   "buffer": 0,
   "byteLength": 288,
   "byteOffset": 25092,
   "target": 34962
  },
  {
   "buffer": 0,
   "byteLength": 288,
   "byteOffset": 25380,
   "target": 34962
  }
 ],
 "buffers": [
  {
   "byteLength": 25668,
   "uri": "Civic_Clinic.bin"
  }
 ]
}
