{
 "asset": {
  "generator": "Khronos glTF Blender I/O v5.2.40",
  "version": "2.0",
  "extras": {
   "exported_by": "blender/tools/export_building_kit.py",
   "module_scale": 1.0
  }
 },
 "scene": 0,
 "scenes": [
  {
   "name": "library",
   "nodes": [
    0
   ]
  }
 ],
 "nodes": [
  {
   "extras": {
    "edit_note": "Placeholder \u533a\u5f79\u6240 on a 60 x 60 plot, origin = plot centre, street -Y."
   },
   "mesh": 0,
   "name": "Civic_WardOffice"
  }
 ],
 "materials": [
  {
   "doubleSided": true,
   "name": "MI_TileBeige",
   "pbrMetallicRoughness": {
    "baseColorFactor": [
     0.8199999928474426,
     0.7599999904632568,
     0.6399999856948853,
     1
    ],
    "metallicFactor": 0,
    "roughnessFactor": 0.800000011920929
   }
  },
  {
   "doubleSided": true,
   "name": "MI_GlassClear",
   "pbrMetallicRoughness": {
    "baseColorFactor": [
     0.550000011920929,
     0.6800000071525574,
     0.7200000286102295,
     1
    ],
    "metallicFactor": 0.20000000298023224,
    "roughnessFactor": 0.05000000074505806
   }
  },
  {
   "doubleSided": true,
   "name": "MI_Window",
   "pbrMetallicRoughness": {
    "baseColorFactor": [
     0.1599999964237213,
     0.2199999988079071,
     0.2800000011920929,
     1
    ],
    "metallicFactor": 0.3499999940395355,
    "roughnessFactor": 0.11999999731779099
   }
  },
  {
   "doubleSided": true,
   "name": "MI_ConcreteSmooth",
   "pbrMetallicRoughness": {
    "baseColorFactor": [
     0.44070473313331604,
     0.43014833331108093,
     0.40880659222602844,
     1
    ],
    "metallicFactor": 0,
    "roughnessFactor": 0.699999988079071
   }
  },
  {
   "doubleSided": true,
   "name": "MI_PlasticWhite",
   "pbrMetallicRoughness": {
    "baseColorFactor": [
     0.9300000071525574,
     0.9300000071525574,
     0.9100000262260437,
     1
    ],
    "metallicFactor": 0,
    "roughnessFactor": 0.30000001192092896
   }
  },
  {
   "doubleSided": true,
   "name": "MI_PaintedMetal",
   "pbrMetallicRoughness": {
    "baseColorFactor": [
     0.8999999761581421,
     0.8999999761581421,
     0.8899999856948853,
     1
    ],
    "metallicFactor": 0.30000001192092896,
    "roughnessFactor": 0.699999988079071
   }
  },
  {
   "doubleSided": true,
   "emissiveFactor": [
    0.0600000032782555,
    0.15000000596046448,
    0.30000001192092896
   ],
   "name": "MI_Sign",
   "pbrMetallicRoughness": {
    "baseColorFactor": [
     0.11999999731779099,
     0.30000001192092896,
     0.550000011920929,
     1
    ],
    "metallicFactor": 0,
    "roughnessFactor": 0.699999988079071
   }
  },
  {
   "doubleSided": true,
   "name": "MI_Steel",
   "pbrMetallicRoughness": {
    "baseColorFactor": [
     0.5726980566978455,
     0.5820889472961426,
     0.5955169796943665,
     1
    ],
    "roughnessFactor": 0.699999988079071
   }
  },
  {
   "doubleSided": true,
   "name": "MI_TileWhite",
   "pbrMetallicRoughness": {
    "baseColorFactor": [
     0.8136419057846069,
     0.8136419057846069,
     0.8136419057846069,
     1
    ],
    "metallicFactor": 0,
    "roughnessFactor": 0.699999988079071
   }
  }
 ],
 "meshes": [
  {
   "name": "Civic_WardOffice.001",
   "primitives": [
    {
     "attributes": {
      "POSITION": 0,
      "NORMAL": 1
     },
     "indices": 2,
     "material": 0
    },
    {
     "attributes": {
      "POSITION": 3,
      "NORMAL": 4
     },
     "indices": 5,
     "material": 1
    },
    {
     "attributes": {
      "POSITION": 6,
      "NORMAL": 7
     },
     "indices": 8,
     "material": 2
    },
    {
     "attributes": {
      "POSITION": 9,
      "NORMAL": 10
     },
     "indices": 11,
     "material": 3
    },
    {
     "attributes": {
      "POSITION": 12,
      "NORMAL": 13
     },
     "indices": 14,
     "material": 4
    },
    {
     "attributes": {
      "POSITION": 15,
      "NORMAL": 16
     },
     "indices": 17,
     "material": 5
    },
    {
     "attributes": {
      "POSITION": 18,
      "NORMAL": 19
     },
     "indices": 5,
     "material": 6
    },
    {
     "attributes": {
      "POSITION": 20,
      "NORMAL": 21
     },
     "indices": 17,
     "material": 7
    },
    {
     "attributes": {
      "POSITION": 22,
      "NORMAL": 23
     },
     "indices": 5,
     "material": 8
    }
   ]
  }
 ],
 "accessors": [
  {
   "bufferView": 0,
   "componentType": 5126,
   "count": 48,
   "max": [
    28,
    44.099998474121094,
    20
   ],
   "min": [
    -28,
    0,
    -20
   ],
   "type": "VEC3"
  },
  {
   "bufferView": 1,
   "componentType": 5126,
   "count": 48,
   "type": "VEC3"
  },
  {
   "bufferView": 2,
   "componentType": 5123,
   "count": 72,
   "type": "SCALAR"
  },
  {
   "bufferView": 3,
   "componentType": 5126,
   "count": 24,
   "max": [
    20,
    8,
    20.030000686645508
   ],
   "min": [
    -20,
    0.30000001192092896,
    20
   ],
   "type": "VEC3"
  },
  {
   "bufferView": 4,
   "componentType": 5126,
   "count": 24,
   "type": "VEC3"
  },
  {
   "bufferView": 5,
   "componentType": 5123,
   "count": 36,
   "type": "SCALAR"
  },
  {
   "bufferView": 6,
   "componentType": 5126,
   "count": 864,
   "max": [
    22.030000686645508,
    43.70000076293945,
    13.029999732971191
   ],
   "min": [
    -22.030000686645508,
    10,
    -13.029999732971191
   ],
   "type": "VEC3"
  },
  {
   "bufferView": 7,
   "componentType": 5126,
   "count": 864,
   "type": "VEC3"
  },
  {
   "bufferView": 8,
   "componentType": 5123,
   "count": 1296,
   "type": "SCALAR"
  },
  {
   "bufferView": 9,
   "componentType": 5126,
   "count": 168,
   "max": [
    28,
    47.29999923706055,
    20
   ],
   "min": [
    -28,
    9,
    -20
   ],
   "type": "VEC3"
  },
  {
   "bufferView": 10,
   "componentType": 5126,
   "count": 168,
   "type": "VEC3"
  },
  {
   "bufferView": 11,
   "componentType": 5123,
   "count": 324,
   "type": "SCALAR"
  },
  {
   "bufferView": 12,
   "componentType": 5126,
   "count": 192,
   "max": [
    1,
    45.400001525878906,
    -9
   ],
   "min": [
    -19,
    44.099998474121094,
    -10.199999809265137
   ],
   "type": "VEC3"
  },
  {
   "bufferView": 13,
   "componentType": 5126,
   "count": 192,
   "type": "VEC3"
  },
  {
   "bufferView": 14,
   "componentType": 5123,
   "count": 288,
   "type": "SCALAR"
  },
  {
   "bufferView": 15,
   "componentType": 5126,
   "count": 72,
   "max": [
    10,
    5.349999904632568,
    26
   ],
   "min": [
    -10,
    0,
    20
   ],
   "type": "VEC3"
  },
  {
   "bufferView": 16,
   "componentType": 5126,
   "count": 72,
   "type": "VEC3"
  },
  {
   "bufferView": 17,
   "componentType": 5123,
   "count": 108,
   "type": "SCALAR"
  },
  {
   "bufferView": 18,
   "componentType": 5126,
   "count": 24,
   "max": [
    8,
    8.399999618530273,
    20.149999618530273
   ],
   "min": [
    -8,
    7.199999809265137,
    20
   ],
   "type": "VEC3"
  },
  {
   "bufferView": 19,
   "componentType": 5126,
   "count": 24,
   "type": "VEC3"
  },
  {
   "bufferView": 20,
   "componentType": 5126,
   "count": 72,
   "max": [
    -17.920000076293945,
    12,
    27
   ],
   "min": [
    -24.079999923706055,
    0,
    26.84000015258789
   ],
   "type": "VEC3"
  },
  {
   "bufferView": 21,
   "componentType": 5126,
   "count": 72,
   "type": "VEC3"
  },
  {
   "bufferView": 22,
   "componentType": 5126,
   "count": 24,
   "max": [
    28,
    0.019999999552965164,
    30
   ],
   "min": [
    -28,
    -0.019999999552965164,
    20
   ],
   "type": "VEC3"
  },
  {
   "bufferView": 23,
   "componentType": 5126,
   "count": 24,
   "type": "VEC3"
  }
 ],
 "bufferViews": [
  {
   "buffer": 0,
   "byteLength": 576,
   "byteOffset": 0,
   "target": 34962
  },
  {
   "buffer": 0,
   "byteLength": 576,
   "byteOffset": 576,
   "target": 34962
  },
  {
   "buffer": 0,
   "byteLength": 144,
   "byteOffset": 1152,
   "target": 34963
  },
  {
   "buffer": 0,
   "byteLength": 288,
   "byteOffset": 1296,
   "target": 34962
  },
  {
   "buffer": 0,
   "byteLength": 288,
   "byteOffset": 1584,
   "target": 34962
  },
  {
   "buffer": 0,
   "byteLength": 72,
   "byteOffset": 1872,
   "target": 34963
  },
  {
   "buffer": 0,
   "byteLength": 10368,
   "byteOffset": 1944,
   "target": 34962
  },
  {
   "buffer": 0,
   "byteLength": 10368,
   "byteOffset": 12312,
   "target": 34962
  },
  {
   "buffer": 0,
   "byteLength": 2592,
   "byteOffset": 22680,
   "target": 34963
  },
  {
   "buffer": 0,
   "byteLength": 2016,
   "byteOffset": 25272,
   "target": 34962
  },
  {
   "buffer": 0,
   "byteLength": 2016,
   "byteOffset": 27288,
   "target": 34962
  },
  {
   "buffer": 0,
   "byteLength": 648,
   "byteOffset": 29304,
   "target": 34963
  },
  {
   "buffer": 0,
   "byteLength": 2304,
   "byteOffset": 29952,
   "target": 34962
  },
  {
   "buffer": 0,
   "byteLength": 2304,
   "byteOffset": 32256,
   "target": 34962
  },
  {
   "buffer": 0,
   "byteLength": 576,
   "byteOffset": 34560,
   "target": 34963
  },
  {
   "buffer": 0,
   "byteLength": 864,
   "byteOffset": 35136,
   "target": 34962
  },
  {
   "buffer": 0,
   "byteLength": 864,
   "byteOffset": 36000,
   "target": 34962
  },
  {
   "buffer": 0,
   "byteLength": 216,
   "byteOffset": 36864,
   "target": 34963
  },
  {
   "buffer": 0,
   "byteLength": 288,
   "byteOffset": 37080,
   "target": 34962
  },
  {
   "buffer": 0,
   "byteLength": 288,
   "byteOffset": 37368,
   "target": 34962
  },
  {
   "buffer": 0,
   "byteLength": 864,
   "byteOffset": 37656,
   "target": 34962
  },
  {
   "buffer": 0,
   "byteLength": 864,
   "byteOffset": 38520,
   "target": 34962
  },
  {
   "buffer": 0,
   "byteLength": 288,
   "byteOffset": 39384,
   "target": 34962
  },
  {
   "buffer": 0,
   "byteLength": 288,
   "byteOffset": 39672,
   "target": 34962
  }
 ],
 "buffers": [
  {
   "byteLength": 39960,
   "uri": "Civic_WardOffice.bin"
  }
 ]
}
