{
 "asset": {
  "generator": "Khronos glTF Blender I/O v5.2.40",
  "version": "2.0",
  "extras": {
   "exported_by": "blender/tools/export_building_kit.py",
   "module_scale": 1.0
  }
 },
 "extensionsUsed": [
  "KHR_materials_emissive_strength"
 ],
 "scene": 0,
 "scenes": [
  {
   "name": "library",
   "nodes": [
    0
   ]
  }
 ],
 "nodes": [
  {
   "extras": {
    "edit_note": "Placeholder \u6d88\u9632\u7f72 on a 40 x 50 plot (origin = plot centre, street -Y): the red bay shutters face the street; the training tower at the back right."
   },
   "mesh": 0,
   "name": "Civic_FireStation"
  }
 ],
 "materials": [
  {
   "doubleSided": true,
   "name": "MI_ConcreteSmooth",
   "pbrMetallicRoughness": {
    "baseColorFactor": [
     0.44070473313331604,
     0.43014833331108093,
     0.40880659222602844,
     1
    ],
    "metallicFactor": 0,
    "roughnessFactor": 0.699999988079071
   }
  },
  {
   "doubleSided": true,
   "name": "MI_CraneRed",
   "pbrMetallicRoughness": {
    "baseColorFactor": [
     0.7200000286102295,
     0.14000000059604645,
     0.10000000149011612,
     1
    ],
    "metallicFactor": 0,
    "roughnessFactor": 0.699999988079071
   }
  },
  {
   "doubleSided": true,
   "name": "MI_PaintedMetalDark",
   "pbrMetallicRoughness": {
    "baseColorFactor": [
     0.1599999964237213,
     0.17000000178813934,
     0.18000000715255737,
     1
    ],
    "metallicFactor": 0.4000000059604645,
    "roughnessFactor": 0.699999988079071
   }
  },
  {
   "doubleSided": true,
   "name": "MI_GlassClear",
   "pbrMetallicRoughness": {
    "baseColorFactor": [
     0.550000011920929,
     0.6800000071525574,
     0.7200000286102295,
     1
    ],
    "metallicFactor": 0.20000000298023224,
    "roughnessFactor": 0.05000000074505806
   }
  },
  {
   "doubleSided": true,
   "name": "MI_TileWhite",
   "pbrMetallicRoughness": {
    "baseColorFactor": [
     0.8136419057846069,
     0.8136419057846069,
     0.8136419057846069,
     1
    ],
    "metallicFactor": 0,
    "roughnessFactor": 0.699999988079071
   }
  },
  {
   "doubleSided": true,
   "name": "MI_Window",
   "pbrMetallicRoughness": {
    "baseColorFactor": [
     0.1599999964237213,
     0.2199999988079071,
     0.2800000011920929,
     1
    ],
    "metallicFactor": 0.3499999940395355,
    "roughnessFactor": 0.11999999731779099
   }
  },
  {
   "doubleSided": true,
   "name": "MI_PlasticWhite",
   "pbrMetallicRoughness": {
    "baseColorFactor": [
     0.9300000071525574,
     0.9300000071525574,
     0.9100000262260437,
     1
    ],
    "metallicFactor": 0,
    "roughnessFactor": 0.30000001192092896
   }
  },
  {
   "doubleSided": true,
   "emissiveFactor": [
    1,
    0.0666666669426141,
    0.0444444446284094
   ],
   "extensions": {
    "KHR_materials_emissive_strength": {
     "emissiveStrength": 1.0800000143051136
    }
   },
   "name": "MI_SignRed",
   "pbrMetallicRoughness": {
    "baseColorFactor": [
     0.800000011920929,
     0.07999999821186066,
     0.05999999865889549,
     1
    ],
    "metallicFactor": 0,
    "roughnessFactor": 0.699999988079071
   }
  }
 ],
 "meshes": [
  {
   "name": "Civic_FireStation.001",
   "primitives": [
    {
     "attributes": {
      "POSITION": 0,
      "NORMAL": 1
     },
     "indices": 2,
     "material": 0
    },
    {
     "attributes": {
      "POSITION": 3,
      "NORMAL": 4
     },
     "indices": 5,
     "material": 1
    },
    {
     "attributes": {
      "POSITION": 6,
      "NORMAL": 7
     },
     "indices": 8,
     "material": 2
    },
    {
     "attributes": {
      "POSITION": 9,
      "NORMAL": 10
     },
     "indices": 11,
     "material": 3
    },
    {
     "attributes": {
      "POSITION": 12,
      "NORMAL": 13
     },
     "indices": 14,
     "material": 4
    },
    {
     "attributes": {
      "POSITION": 15,
      "NORMAL": 16
     },
     "indices": 17,
     "material": 5
    },
    {
     "attributes": {
      "POSITION": 18,
      "NORMAL": 19
     },
     "indices": 20,
     "material": 6
    },
    {
     "attributes": {
      "POSITION": 21,
      "NORMAL": 22
     },
     "indices": 11,
     "material": 7
    }
   ]
  }
 ],
 "accessors": [
  {
   "bufferView": 0,
   "componentType": 5126,
   "count": 168,
   "max": [
    19,
    24,
    25
   ],
   "min": [
    -19,
    -0.019999999552965164,
    -12
   ],
   "type": "VEC3"
  },
  {
   "bufferView": 1,
   "componentType": 5126,
   "count": 168,
   "type": "VEC3"
  },
  {
   "bufferView": 2,
   "componentType": 5123,
   "count": 288,
   "type": "SCALAR"
  },
  {
   "bufferView": 3,
   "componentType": 5126,
   "count": 144,
   "max": [
    19,
    24.799999237060547,
    22.200000762939453
   ],
   "min": [
    -19,
    0,
    -12.5
   ],
   "type": "VEC3"
  },
  {
   "bufferView": 4,
   "componentType": 5126,
   "count": 144,
   "type": "VEC3"
  },
  {
   "bufferView": 5,
   "componentType": 5123,
   "count": 216,
   "type": "SCALAR"
  },
  {
   "bufferView": 6,
   "componentType": 5126,
   "count": 672,
   "max": [
    4.400000095367432,
    3.5399999618530273,
    22.06999969482422
   ],
   "min": [
    -16,
    0.5,
    22.049999237060547
   ],
   "type": "VEC3"
  },
  {
   "bufferView": 7,
   "componentType": 5126,
   "count": 672,
   "type": "VEC3"
  },
  {
   "bufferView": 8,
   "componentType": 5123,
   "count": 1008,
   "type": "SCALAR"
  },
  {
   "bufferView": 9,
   "componentType": 5126,
   "count": 24,
   "max": [
    17.5,
    3.799999952316284,
    22.030000686645508
   ],
   "min": [
    13,
    0.30000001192092896,
    22
   ],
   "type": "VEC3"
  },
  {
   "bufferView": 10,
   "componentType": 5126,
   "count": 24,
   "type": "VEC3"
  },
  {
   "bufferView": 11,
   "componentType": 5123,
   "count": 36,
   "type": "SCALAR"
  },
  {
   "bufferView": 12,
   "componentType": 5126,
   "count": 20,
   "max": [
    19,
    18.100000381469727,
    22
   ],
   "min": [
    -19,
    5.5,
    0
   ],
   "type": "VEC3"
  },
  {
   "bufferView": 13,
   "componentType": 5126,
   "count": 20,
   "type": "VEC3"
  },
  {
   "bufferView": 14,
   "componentType": 5123,
   "count": 30,
   "type": "SCALAR"
  },
  {
   "bufferView": 15,
   "componentType": 5126,
   "count": 456,
   "max": [
    19.030000686645508,
    22.200000762939453,
    22.030000686645508
   ],
   "min": [
    -19.030000686645508,
    3,
    -11.199999809265137
   ],
   "type": "VEC3"
  },
  {
   "bufferView": 16,
   "componentType": 5126,
   "count": 456,
   "type": "VEC3"
  },
  {
   "bufferView": 17,
   "componentType": 5123,
   "count": 684,
   "type": "SCALAR"
  },
  {
   "bufferView": 18,
   "componentType": 5126,
   "count": 120,
   "max": [
    -3.799999952316284,
    19.399999618530273,
    4
   ],
   "min": [
    -16,
    18.100000381469727,
    2.799999952316284
   ],
   "type": "VEC3"
  },
  {
   "bufferView": 19,
   "componentType": 5126,
   "count": 120,
   "type": "VEC3"
  },
  {
   "bufferView": 20,
   "componentType": 5123,
   "count": 180,
   "type": "SCALAR"
  },
  {
   "bufferView": 21,
   "componentType": 5126,
   "count": 24,
   "max": [
    8,
    6.5,
    22.149999618530273
   ],
   "min": [
    -8,
    5.599999904632568,
    22
   ],
   "type": "VEC3"
  },
  {
   "bufferView": 22,
   "componentType": 5126,
   "count": 24,
   "type": "VEC3"
  }
 ],
 "bufferViews": [
  {
   "buffer": 0,
   "byteLength": 2016,
   "byteOffset": 0,
   "target": 34962
  },
  {
   "buffer": 0,
   "byteLength": 2016,
   "byteOffset": 2016,
   "target": 34962
  },
  {
   "buffer": 0,
   "byteLength": 576,
   "byteOffset": 4032,
   "target": 34963
  },
  {
   "buffer": 0,
   "byteLength": 1728,
   "byteOffset": 4608,
   "target": 34962
  },
  {
   "buffer": 0,
   "byteLength": 1728,
   "byteOffset": 6336,
   "target": 34962
  },
  {
   "buffer": 0,
   "byteLength": 432,
   "byteOffset": 8064,
   "target": 34963
  },
  {
   "buffer": 0,
   "byteLength": 8064,
   "byteOffset": 8496,
   "target": 34962
  },
  {
   "buffer": 0,
   "byteLength": 8064,
   "byteOffset": 16560,
   "target": 34962
  },
  {
   "buffer": 0,
   "byteLength": 2016,
   "byteOffset": 24624,
   "target": 34963
  },
  {
   "buffer": 0,
   "byteLength": 288,
   "byteOffset": 26640,
   "target": 34962
  },
  {
   "buffer": 0,
   "byteLength": 288,
   "byteOffset": 26928,
   "target": 34962
  },
  {
   "buffer": 0,
   "byteLength": 72,
   "byteOffset": 27216,
   "target": 34963
  },
  {
   "buffer": 0,
   "byteLength": 240,
   "byteOffset": 27288,
   "target": 34962
  },
  {
   "buffer": 0,
   "byteLength": 240,
   "byteOffset": 27528,
   "target": 34962
  },
  {
   "buffer": 0,
   "byteLength": 60,
   "byteOffset": 27768,
   "target": 34963
  },
  {
   "buffer": 0,
   "byteLength": 5472,
   "byteOffset": 27828,
   "target": 34962
  },
  {
   "buffer": 0,
   "byteLength": 5472,
   "byteOffset": 33300,
   "target": 34962
  },
  {
   "buffer": 0,
   "byteLength": 1368,
   "byteOffset": 38772,
   "target": 34963
  },
  {
   "buffer": 0,
   "byteLength": 1440,
   "byteOffset": 40140,
   "target": 34962
  },
  {
   "buffer": 0,
   "byteLength": 1440,
   "byteOffset": 41580,
   "target": 34962
  },
  {
   "buffer": 0,
   "byteLength": 360,
   "byteOffset": 43020,
   "target": 34963
  },
  {
   "buffer": 0,
   "byteLength": 288,
   "byteOffset": 43380,
   "target": 34962
  },
  {
   "buffer": 0,
   "byteLength": 288,
   "byteOffset": 43668,
   "target": 34962
  }
 ],
 "buffers": [
  {
   "byteLength": 43956,
   "uri": "Civic_FireStation.bin"
  }
 ]
}
