{
 "asset": {
  "generator": "Khronos glTF Blender I/O v5.2.40",
  "version": "2.0",
  "extras": {
   "exported_by": "blender/tools/export_building_kit.py",
   "module_scale": 1.0
  }
 },
 "scene": 0,
 "scenes": [
  {
   "name": "library",
   "nodes": [
    0
   ]
  }
 ],
 "nodes": [
  {
   "extras": {
    "edit_note": "Placeholder \u4e2d\u5b66\u6821 on a 110 x 130 plot; as the elementary school."
   },
   "mesh": 0,
   "name": "Civic_SchoolJuniorHigh"
  }
 ],
 "materials": [
  {
   "doubleSided": true,
   "name": "MI_ConcreteSmooth",
   "pbrMetallicRoughness": {
    "baseColorFactor": [
     0.44070473313331604,
     0.43014833331108093,
     0.40880659222602844,
     1
    ],
    "metallicFactor": 0,
    "roughnessFactor": 0.699999988079071
   }
  },
  {
   "doubleSided": true,
   "name": "MI_Window",
   "pbrMetallicRoughness": {
    "baseColorFactor": [
     0.1599999964237213,
     0.2199999988079071,
     0.2800000011920929,
     1
    ],
    "metallicFactor": 0.3499999940395355,
    "roughnessFactor": 0.11999999731779099
   }
  },
  {
   "doubleSided": true,
   "name": "MI_PaintWhite",
   "pbrMetallicRoughness": {
    "baseColorFactor": [
     0.949999988079071,
     0.949999988079071,
     0.9300000071525574,
     1
    ],
    "metallicFactor": 0,
    "roughnessFactor": 0.699999988079071
   }
  },
  {
   "doubleSided": true,
   "name": "MI_PlasticDark",
   "pbrMetallicRoughness": {
    "baseColorFactor": [
     0.11999999731779099,
     0.11999999731779099,
     0.12999999523162842,
     1
    ],
    "metallicFactor": 0,
    "roughnessFactor": 0.6000000238418579
   }
  },
  {
   "doubleSided": true,
   "name": "MI_Corrugated",
   "pbrMetallicRoughness": {
    "baseColorFactor": [
     0.6010030508041382,
     0.6071377396583557,
     0.6176391243934631,
     1
    ],
    "metallicFactor": 0.6000000238418579,
    "roughnessFactor": 0.699999988079071
   }
  },
  {
   "doubleSided": true,
   "name": "MI_RoofCopper",
   "pbrMetallicRoughness": {
    "baseColorFactor": [
     0.36000001430511475,
     0.6000000238418579,
     0.5299999713897705,
     1
    ],
    "metallicFactor": 0.30000001192092896,
    "roughnessFactor": 0.6000000238418579
   }
  },
  {
   "doubleSided": true,
   "name": "MI_PoolWater",
   "pbrMetallicRoughness": {
    "baseColorFactor": [
     0.2199999988079071,
     0.6200000047683716,
     0.7799999713897705,
     1
    ],
    "metallicFactor": 0.10000000149011612,
    "roughnessFactor": 0.05000000074505806
   }
  },
  {
   "doubleSided": true,
   "name": "MI_PaintedMetalDark",
   "pbrMetallicRoughness": {
    "baseColorFactor": [
     0.1599999964237213,
     0.17000000178813934,
     0.18000000715255737,
     1
    ],
    "metallicFactor": 0.4000000059604645,
    "roughnessFactor": 0.699999988079071
   }
  },
  {
   "doubleSided": true,
   "name": "MI_Steel",
   "pbrMetallicRoughness": {
    "baseColorFactor": [
     0.5726980566978455,
     0.5820889472961426,
     0.5955169796943665,
     1
    ],
    "roughnessFactor": 0.699999988079071
   }
  },
  {
   "doubleSided": true,
   "name": "MI_Dirt",
   "pbrMetallicRoughness": {
    "baseColorFactor": [
     0.6600000262260437,
     0.5600000023841858,
     0.41999998688697815,
     1
    ],
    "metallicFactor": 0
   }
  }
 ],
 "meshes": [
  {
   "name": "Civic_SchoolJuniorHigh.001",
   "primitives": [
    {
     "attributes": {
      "POSITION": 0,
      "NORMAL": 1
     },
     "indices": 2,
     "material": 0
    },
    {
     "attributes": {
      "POSITION": 3,
      "NORMAL": 4
     },
     "indices": 5,
     "material": 1
    },
    {
     "attributes": {
      "POSITION": 6,
      "NORMAL": 7
     },
     "indices": 8,
     "material": 2
    },
    {
     "attributes": {
      "POSITION": 9,
      "NORMAL": 10
     },
     "indices": 11,
     "material": 3
    },
    {
     "attributes": {
      "POSITION": 12,
      "NORMAL": 13
     },
     "indices": 11,
     "material": 4
    },
    {
     "attributes": {
      "POSITION": 14,
      "NORMAL": 15
     },
     "indices": 11,
     "material": 5
    },
    {
     "attributes": {
      "POSITION": 16,
      "NORMAL": 17
     },
     "indices": 11,
     "material": 6
    },
    {
     "attributes": {
      "POSITION": 18,
      "NORMAL": 19
     },
     "indices": 20,
     "material": 7
    },
    {
     "attributes": {
      "POSITION": 21,
      "NORMAL": 22
     },
     "indices": 23,
     "material": 8
    },
    {
     "attributes": {
      "POSITION": 24,
      "NORMAL": 25
     },
     "indices": 11,
     "material": 9
    }
   ]
  }
 ],
 "accessors": [
  {
   "bufferView": 0,
   "componentType": 5126,
   "count": 181,
   "max": [
    9,
    20.799999237060547,
    64.9000015258789
   ],
   "min": [
    -51,
    0,
    -62
   ],
   "type": "VEC3"
  },
  {
   "bufferView": 1,
   "componentType": 5126,
   "count": 181,
   "type": "VEC3"
  },
  {
   "bufferView": 2,
   "componentType": 5123,
   "count": 324,
   "type": "SCALAR"
  },
  {
   "bufferView": 3,
   "componentType": 5126,
   "count": 408,
   "max": [
    49.20000076293945,
    17.200000762939453,
    -33.970001220703125
   ],
   "min": [
    -50.20000076293945,
    1,
    -62.029998779296875
   ],
   "type": "VEC3"
  },
  {
   "bufferView": 4,
   "componentType": 5126,
   "count": 408,
   "type": "VEC3"
  },
  {
   "bufferView": 5,
   "componentType": 5123,
   "count": 612,
   "type": "SCALAR"
  },
  {
   "bufferView": 6,
   "componentType": 5126,
   "count": 72,
   "max": [
    43,
    17,
    25.549999237060547
   ],
   "min": [
    -43,
    0.019999999552965164,
    -46
   ],
   "type": "VEC3"
  },
  {
   "bufferView": 7,
   "componentType": 5126,
   "count": 72,
   "type": "VEC3"
  },
  {
   "bufferView": 8,
   "componentType": 5123,
   "count": 108,
   "type": "SCALAR"
  },
  {
   "bufferView": 9,
   "componentType": 5126,
   "count": 24,
   "max": [
    -20.200000762939453,
    16.600000381469727,
    -45.86000061035156
   ],
   "min": [
    -21.799999237060547,
    15,
    -45.880001068115234
   ],
   "type": "VEC3"
  },
  {
   "bufferView": 10,
   "componentType": 5126,
   "count": 24,
   "type": "VEC3"
  },
  {
   "bufferView": 11,
   "componentType": 5123,
   "count": 36,
   "type": "SCALAR"
  },
  {
   "bufferView": 12,
   "componentType": 5126,
   "count": 24,
   "max": [
    51,
    9,
    -34
   ],
   "min": [
    13,
    0,
    -62
   ],
   "type": "VEC3"
  },
  {
   "bufferView": 13,
   "componentType": 5126,
   "count": 24,
   "type": "VEC3"
  },
  {
   "bufferView": 14,
   "componentType": 5126,
   "count": 24,
   "max": [
    51.5,
    12.5,
    -33.5
   ],
   "min": [
    12.5,
    9,
    -62.5
   ],
   "type": "VEC3"
  },
  {
   "bufferView": 15,
   "componentType": 5126,
   "count": 24,
   "type": "VEC3"
  },
  {
   "bufferView": 16,
   "componentType": 5126,
   "count": 24,
   "max": [
    7,
    0.3199999928474426,
    -47
   ],
   "min": [
    -18,
    0.30000001192092896,
    -60
   ],
   "type": "VEC3"
  },
  {
   "bufferView": 17,
   "componentType": 5126,
   "count": 24,
   "type": "VEC3"
  },
  {
   "bufferView": 18,
   "componentType": 5126,
   "count": 4872,
   "max": [
    54.540000915527344,
    2.200000047683716,
    64.54000091552734
   ],
   "min": [
    -54.540000915527344,
    0,
    -64.54000091552734
   ],
   "type": "VEC3"
  },
  {
   "bufferView": 19,
   "componentType": 5126,
   "count": 4872,
   "type": "VEC3"
  },
  {
   "bufferView": 20,
   "componentType": 5123,
   "count": 7308,
   "type": "SCALAR"
  },
  {
   "bufferView": 21,
   "componentType": 5126,
   "count": 216,
   "max": [
    54.5099983215332,
    2.0999999046325684,
    64.51000213623047
   ],
   "min": [
    -54.5099983215332,
    0.20000000298023224,
    -64.51000213623047
   ],
   "type": "VEC3"
  },
  {
   "bufferView": 22,
   "componentType": 5126,
   "count": 216,
   "type": "VEC3"
  },
  {
   "bufferView": 23,
   "componentType": 5123,
   "count": 324,
   "type": "SCALAR"
  },
  {
   "bufferView": 24,
   "componentType": 5126,
   "count": 24,
   "max": [
    52,
    0.019999999552965164,
    62
   ],
   "min": [
    -52,
    -0.019999999552965164,
    -31
   ],
   "type": "VEC3"
  },
  {
   "bufferView": 25,
   "componentType": 5126,
   "count": 24,
   "type": "VEC3"
  }
 ],
 "bufferViews": [
  {
   "buffer": 0,
   "byteLength": 2172,
   "byteOffset": 0,
   "target": 34962
  },
  {
   "buffer": 0,
   "byteLength": 2172,
   "byteOffset": 2172,
   "target": 34962
  },
  {
   "buffer": 0,
   "byteLength": 648,
   "byteOffset": 4344,
   "target": 34963
  },
  {
   "buffer": 0,
   "byteLength": 4896,
   "byteOffset": 4992,
   "target": 34962
  },
  {
   "buffer": 0,
   "byteLength": 4896,
   "byteOffset": 9888,
   "target": 34962
  },
  {
   "buffer": 0,
   "byteLength": 1224,
   "byteOffset": 14784,
   "target": 34963
  },
  {
   "buffer": 0,
   "byteLength": 864,
   "byteOffset": 16008,
   "target": 34962
  },
  {
   "buffer": 0,
   "byteLength": 864,
   "byteOffset": 16872,
   "target": 34962
  },
  {
   "buffer": 0,
   "byteLength": 216,
   "byteOffset": 17736,
   "target": 34963
  },
  {
   "buffer": 0,
   "byteLength": 288,
   "byteOffset": 17952,
   "target": 34962
  },
  {
   "buffer": 0,
   "byteLength": 288,
   "byteOffset": 18240,
   "target": 34962
  },
  {
   "buffer": 0,
   "byteLength": 72,
   "byteOffset": 18528,
   "target": 34963
  },
  {
   "buffer": 0,
   "byteLength": 288,
   "byteOffset": 18600,
   "target": 34962
  },
  {
   "buffer": 0,
   "byteLength": 288,
   "byteOffset": 18888,
   "target": 34962
  },
  {
   "buffer": 0,
   "byteLength": 288,
   "byteOffset": 19176,
   "target": 34962
  },
  {
   "buffer": 0,
   "byteLength": 288,
   "byteOffset": 19464,
   "target": 34962
  },
  {
   "buffer": 0,
   "byteLength": 288,
   "byteOffset": 19752,
   "target": 34962
  },
  {
   "buffer": 0,
   "byteLength": 288,
   "byteOffset": 20040,
   "target": 34962
  },
  {
   "buffer": 0,
   "byteLength": 58464,
   "byteOffset": 20328,
   "target": 34962
  },
  {
   "buffer": 0,
   "byteLength": 58464,
   "byteOffset": 78792,
   "target": 34962
  },
  {
   "buffer": 0,
   "byteLength": 14616,
   "byteOffset": 137256,
   "target": 34963
  },
  {
   "buffer": 0,
   "byteLength": 2592,
   "byteOffset": 151872,
   "target": 34962
  },
  {
   "buffer": 0,
   "byteLength": 2592,
   "byteOffset": 154464,
   "target": 34962
  },
  {
   "buffer": 0,
   "byteLength": 648,
   "byteOffset": 157056,
   "target": 34963
  },
  {
   "buffer": 0,
   "byteLength": 288,
   "byteOffset": 157704,
   "target": 34962
  },
  {
   "buffer": 0,
   "byteLength": 288,
   "byteOffset": 157992,
   "target": 34962
  }
 ],
 "buffers": [
  {
   "byteLength": 158280,
   "uri": "Civic_SchoolJuniorHigh.bin"
  }
 ]
}
