{
 "asset": {
  "generator": "Khronos glTF Blender I/O v5.2.40",
  "version": "2.0",
  "extras": {
   "exported_by": "blender/tools/export_building_kit.py",
   "module_scale": 1.0
  }
 },
 "scene": 0,
 "scenes": [
  {
   "name": "library",
   "nodes": [
    0
   ]
  }
 ],
 "nodes": [
  {
   "extras": {
    "edit_note": "Placeholder \u89b3\u89a7\u8eca waterfront park, 110 x 200 plot (street -Y, bay +Y, gulf +X): a 100 m wheel on a 60 m hub (two white rims, 32 gondolas, A-frame legs) in the water corner, a boarding hall under its low point, a promenade along both waterfront edges. The game assumes: the wheel's plane is Y-Z (its circle faces +-X), the wheel does not turn yet (a later runtime job: rotate a separate rim + gondola object), and the collider is the mesh itself."
   },
   "mesh": 0,
   "name": "Park_FerrisWheel"
  }
 ],
 "materials": [
  {
   "doubleSided": true,
   "name": "MI_Grass",
   "pbrMetallicRoughness": {
    "baseColorFactor": [
     0.3199999928474426,
     0.5,
     0.23999999463558197,
     1
    ],
    "metallicFactor": 0
   }
  },
  {
   "doubleSided": true,
   "name": "MI_ConcreteSmooth",
   "pbrMetallicRoughness": {
    "baseColorFactor": [
     0.44070473313331604,
     0.43014833331108093,
     0.40880659222602844,
     1
    ],
    "metallicFactor": 0,
    "roughnessFactor": 0.699999988079071
   }
  },
  {
   "doubleSided": true,
   "name": "MI_PaintedMetal",
   "pbrMetallicRoughness": {
    "baseColorFactor": [
     0.8999999761581421,
     0.8999999761581421,
     0.8899999856948853,
     1
    ],
    "metallicFactor": 0.30000001192092896,
    "roughnessFactor": 0.699999988079071
   }
  },
  {
   "doubleSided": true,
   "name": "MI_PaintWhite",
   "pbrMetallicRoughness": {
    "baseColorFactor": [
     0.949999988079071,
     0.949999988079071,
     0.9300000071525574,
     1
    ],
    "metallicFactor": 0,
    "roughnessFactor": 0.699999988079071
   }
  },
  {
   "doubleSided": true,
   "name": "MI_Steel",
   "pbrMetallicRoughness": {
    "baseColorFactor": [
     0.5726980566978455,
     0.5820889472961426,
     0.5955169796943665,
     1
    ],
    "roughnessFactor": 0.699999988079071
   }
  },
  {
   "doubleSided": true,
   "name": "MI_CraneRed",
   "pbrMetallicRoughness": {
    "baseColorFactor": [
     0.7200000286102295,
     0.14000000059604645,
     0.10000000149011612,
     1
    ],
    "metallicFactor": 0,
    "roughnessFactor": 0.699999988079071
   }
  },
  {
   "doubleSided": true,
   "name": "MI_GlassClear",
   "pbrMetallicRoughness": {
    "baseColorFactor": [
     0.550000011920929,
     0.6800000071525574,
     0.7200000286102295,
     1
    ],
    "metallicFactor": 0.20000000298023224,
    "roughnessFactor": 0.05000000074505806
   }
  },
  {
   "doubleSided": true,
   "emissiveFactor": [
    0.10000000149011612,
    0.800000011920929,
    0.8999999761581421
   ],
   "name": "MI_SignCyan",
   "pbrMetallicRoughness": {
    "baseColorFactor": [
     0.10000000149011612,
     0.75,
     0.8500000238418579,
     1
    ],
    "metallicFactor": 0,
    "roughnessFactor": 0.699999988079071
   }
  },
  {
   "doubleSided": true,
   "name": "MI_PaintYellow",
   "pbrMetallicRoughness": {
    "baseColorFactor": [
     0.949999988079071,
     0.75,
     0.10000000149011612,
     1
    ],
    "metallicFactor": 0.20000000298023224,
    "roughnessFactor": 0.699999988079071
   }
  },
  {
   "doubleSided": true,
   "emissiveFactor": [
    1,
    0.30000001192092896,
    0.6499999761581421
   ],
   "name": "MI_SignPink",
   "pbrMetallicRoughness": {
    "baseColorFactor": [
     0.949999988079071,
     0.30000001192092896,
     0.6000000238418579,
     1
    ],
    "metallicFactor": 0,
    "roughnessFactor": 0.699999988079071
   }
  },
  {
   "doubleSided": true,
   "name": "MI_TileWhite",
   "pbrMetallicRoughness": {
    "baseColorFactor": [
     0.8136419057846069,
     0.8136419057846069,
     0.8136419057846069,
     1
    ],
    "metallicFactor": 0,
    "roughnessFactor": 0.699999988079071
   }
  },
  {
   "doubleSided": true,
   "name": "MI_Wood",
   "pbrMetallicRoughness": {
    "baseColorFactor": [
     0.6217582821846008,
     0.4432729184627533,
     0.2785278260707855,
     1
    ],
    "metallicFactor": 0,
    "roughnessFactor": 0.699999988079071
   }
  }
 ],
 "meshes": [
  {
   "name": "Park_FerrisWheel",
   "primitives": [
    {
     "attributes": {
      "POSITION": 0,
      "NORMAL": 1
     },
     "indices": 2,
     "material": 0
    },
    {
     "attributes": {
      "POSITION": 3,
      "NORMAL": 4
     },
     "indices": 5,
     "material": 1
    },
    {
     "attributes": {
      "POSITION": 6,
      "NORMAL": 7
     },
     "indices": 8,
     "material": 2
    },
    {
     "attributes": {
      "POSITION": 9,
      "NORMAL": 10
     },
     "indices": 11,
     "material": 3
    },
    {
     "attributes": {
      "POSITION": 12,
      "NORMAL": 13
     },
     "indices": 14,
     "material": 4
    },
    {
     "attributes": {
      "POSITION": 15,
      "NORMAL": 16
     },
     "indices": 17,
     "material": 5
    },
    {
     "attributes": {
      "POSITION": 18,
      "NORMAL": 19
     },
     "indices": 20,
     "material": 6
    },
    {
     "attributes": {
      "POSITION": 21,
      "NORMAL": 22
     },
     "indices": 17,
     "material": 7
    },
    {
     "attributes": {
      "POSITION": 23,
      "NORMAL": 24
     },
     "indices": 17,
     "material": 8
    },
    {
     "attributes": {
      "POSITION": 25,
      "NORMAL": 26
     },
     "indices": 27,
     "material": 9
    },
    {
     "attributes": {
      "POSITION": 28,
      "NORMAL": 29
     },
     "indices": 30,
     "material": 10
    },
    {
     "attributes": {
      "POSITION": 31,
      "NORMAL": 32
     },
     "indices": 33,
     "material": 11
    }
   ]
  }
 ],
 "accessors": [
  {
   "bufferView": 0,
   "componentType": 5126,
   "count": 24,
   "max": [
    55,
    0.019999999552965164,
    100
   ],
   "min": [
    -55,
    -0.019999999552965164,
    -100
   ],
   "type": "VEC3"
  },
  {
   "bufferView": 1,
   "componentType": 5126,
   "count": 24,
   "type": "VEC3"
  },
  {
   "bufferView": 2,
   "componentType": 5123,
   "count": 36,
   "type": "SCALAR"
  },
  {
   "bufferView": 3,
   "componentType": 5126,
   "count": 186,
   "max": [
    55,
    0.800000011920929,
    100
   ],
   "min": [
    -55,
    0,
    -100
   ],
   "type": "VEC3"
  },
  {
   "bufferView": 4,
   "componentType": 5126,
   "count": 186,
   "type": "VEC3"
  },
  {
   "bufferView": 5,
   "componentType": 5123,
   "count": 288,
   "type": "SCALAR"
  },
  {
   "bufferView": 6,
   "componentType": 5126,
   "count": 594,
   "max": [
    55,
    6.099999904632568,
    100
   ],
   "min": [
    -55,
    0,
    -100
   ],
   "type": "VEC3"
  },
  {
   "bufferView": 7,
   "componentType": 5126,
   "count": 594,
   "type": "VEC3"
  },
  {
   "bufferView": 8,
   "componentType": 5123,
   "count": 900,
   "type": "SCALAR"
  },
  {
   "bufferView": 9,
   "componentType": 5126,
   "count": 2784,
   "max": [
    38.78794479370117,
    110.44903564453125,
    30.44903564453125
   ],
   "min": [
    5.2120561599731445,
    -0.3624071180820465,
    -70.44903564453125
   ],
   "type": "VEC3"
  },
  {
   "bufferView": 10,
   "componentType": 5126,
   "count": 2784,
   "type": "VEC3"
  },
  {
   "bufferView": 11,
   "componentType": 5123,
   "count": 4176,
   "type": "SCALAR"
  },
  {
   "bufferView": 12,
   "componentType": 5126,
   "count": 600,
   "max": [
    27,
    110,
    30
   ],
   "min": [
    17,
    10,
    -70
   ],
   "type": "VEC3"
  },
  {
   "bufferView": 13,
   "componentType": 5126,
   "count": 600,
   "type": "VEC3"
  },
  {
   "bufferView": 14,
   "componentType": 5123,
   "count": 1092,
   "type": "SCALAR"
  },
  {
   "bufferView": 15,
   "componentType": 5126,
   "count": 192,
   "max": [
    23.399999618530273,
    110.5,
    32.70000076293945
   ],
   "min": [
    20.600000381469727,
    5.099999904632568,
    -72.69999694824219
   ],
   "type": "VEC3"
  },
  {
   "bufferView": 16,
   "componentType": 5126,
   "count": 192,
   "type": "VEC3"
  },
  {
   "bufferView": 17,
   "componentType": 5123,
   "count": 288,
   "type": "SCALAR"
  },
  {
   "bufferView": 18,
   "componentType": 5126,
   "count": 816,
   "max": [
    34,
    110.19999694824219,
    32.75
   ],
   "min": [
    10,
    0.30000001192092896,
    -72.75
   ],
   "type": "VEC3"
  },
  {
   "bufferView": 19,
   "componentType": 5126,
   "count": 816,
   "type": "VEC3"
  },
  {
   "bufferView": 20,
   "componentType": 5123,
   "count": 1224,
   "type": "SCALAR"
  },
  {
   "bufferView": 21,
   "componentType": 5126,
   "count": 192,
   "max": [
    23.399999618530273,
    109.51044464111328,
    31.71044158935547
   ],
   "min": [
    20.600000381469727,
    6.089558124542236,
    -71.71044158935547
   ],
   "type": "VEC3"
  },
  {
   "bufferView": 22,
   "componentType": 5126,
   "count": 192,
   "type": "VEC3"
  },
  {
   "bufferView": 23,
   "componentType": 5126,
   "count": 192,
   "max": [
    23.399999618530273,
    106.57979583740234,
    28.779796600341797
   ],
   "min": [
    20.600000381469727,
    9.020204544067383,
    -68.77979278564453
   ],
   "type": "VEC3"
  },
  {
   "bufferView": 24,
   "componentType": 5126,
   "count": 192,
   "type": "VEC3"
  },
  {
   "bufferView": 25,
   "componentType": 5126,
   "count": 216,
   "max": [
    34.29999923706055,
    109.51044464111328,
    31.71044158935547
   ],
   "min": [
    20.600000381469727,
    2.200000047683716,
    -71.71044158935547
   ],
   "type": "VEC3"
  },
  {
   "bufferView": 26,
   "componentType": 5126,
   "count": 216,
   "type": "VEC3"
  },
  {
   "bufferView": 27,
   "componentType": 5123,
   "count": 324,
   "type": "SCALAR"
  },
  {
   "bufferView": 28,
   "componentType": 5126,
   "count": 24,
   "max": [
    34.20000076293945,
    5.800000190734863,
    -11
   ],
   "min": [
    34,
    0.30000001192092896,
    -29
   ],
   "type": "VEC3"
  },
  {
   "bufferView": 29,
   "componentType": 5126,
   "count": 24,
   "type": "VEC3"
  },
  {
   "bufferView": 30,
   "componentType": 5123,
   "count": 36,
   "type": "SCALAR"
  },
  {
   "bufferView": 31,
   "componentType": 5126,
   "count": 264,
   "max": [
    46.900001525878906,
    0.5,
    60.25
   ],
   "min": [
    -30.899999618530273,
    0.4000000059604645,
    -91.25
   ],
   "type": "VEC3"
  },
  {
   "bufferView": 32,
   "componentType": 5126,
   "count": 264,
   "type": "VEC3"
  },
  {
   "bufferView": 33,
   "componentType": 5123,
   "count": 396,
   "type": "SCALAR"
  }
 ],
 "bufferViews": [
  {
   "buffer": 0,
   "byteLength": 288,
   "byteOffset": 0,
   "target": 34962
  },
  {
   "buffer": 0,
   "byteLength": 288,
   "byteOffset": 288,
   "target": 34962
  },
  {
   "buffer": 0,
   "byteLength": 72,
   "byteOffset": 576,
   "target": 34963
  },
  {
   "buffer": 0,
   "byteLength": 2232,
   "byteOffset": 648,
   "target": 34962
  },
  {
   "buffer": 0,
   "byteLength": 2232,
   "byteOffset": 2880,
   "target": 34962
  },
  {
   "buffer": 0,
   "byteLength": 576,
   "byteOffset": 5112,
   "target": 34963
  },
  {
   "buffer": 0,
   "byteLength": 7128,
   "byteOffset": 5688,
   "target": 34962
  },
  {
   "buffer": 0,
   "byteLength": 7128,
   "byteOffset": 12816,
   "target": 34962
  },
  {
   "buffer": 0,
   "byteLength": 1800,
   "byteOffset": 19944,
   "target": 34963
  },
  {
   "buffer": 0,
   "byteLength": 33408,
   "byteOffset": 21744,
   "target": 34962
  },
  {
   "buffer": 0,
   "byteLength": 33408,
   "byteOffset": 55152,
   "target": 34962
  },
  {
   "buffer": 0,
   "byteLength": 8352,
   "byteOffset": 88560,
   "target": 34963
  },
  {
   "buffer": 0,
   "byteLength": 7200,
   "byteOffset": 96912,
   "target": 34962
  },
  {
   "buffer": 0,
   "byteLength": 7200,
   "byteOffset": 104112,
   "target": 34962
  },
  {
   "buffer": 0,
   "byteLength": 2184,
   "byteOffset": 111312,
   "target": 34963
  },
  {
   "buffer": 0,
   "byteLength": 2304,
   "byteOffset": 113496,
   "target": 34962
  },
  {
   "buffer": 0,
   "byteLength": 2304,
   "byteOffset": 115800,
   "target": 34962
  },
  {
   "buffer": 0,
   "byteLength": 576,
   "byteOffset": 118104,
   "target": 34963
  },
  {
   "buffer": 0,
   "byteLength": 9792,
   "byteOffset": 118680,
   "target": 34962
  },
  {
   "buffer": 0,
   "byteLength": 9792,
   "byteOffset": 128472,
   "target": 34962
  },
  {
   "buffer": 0,
   "byteLength": 2448,
   "byteOffset": 138264,
   "target": 34963
  },
  {
   "buffer": 0,
   "byteLength": 2304,
   "byteOffset": 140712,
   "target": 34962
  },
  {
   "buffer": 0,
   "byteLength": 2304,
   "byteOffset": 143016,
   "target": 34962
  },
  {
   "buffer": 0,
   "byteLength": 2304,
   "byteOffset": 145320,
   "target": 34962
  },
  {
   "buffer": 0,
   "byteLength": 2304,
   "byteOffset": 147624,
   "target": 34962
  },
  {
   "buffer": 0,
   "byteLength": 2592,
   "byteOffset": 149928,
   "target": 34962
  },
  {
   "buffer": 0,
   "byteLength": 2592,
   "byteOffset": 152520,
   "target": 34962
  },
  {
   "buffer": 0,
   "byteLength": 648,
   "byteOffset": 155112,
   "target": 34963
  },
  {
   "buffer": 0,
   "byteLength": 288,
   "byteOffset": 155760,
   "target": 34962
  },
  {
   "buffer": 0,
   "byteLength": 288,
   "byteOffset": 156048,
   "target": 34962
  },
  {
   "buffer": 0,
   "byteLength": 72,
   "byteOffset": 156336,
   "target": 34963
  },
  {
   "buffer": 0,
   "byteLength": 3168,
   "byteOffset": 156408,
   "target": 34962
  },
  {
   "buffer": 0,
   "byteLength": 3168,
   "byteOffset": 159576,
   "target": 34962
  },
  {
   "buffer": 0,
   "byteLength": 792,
   "byteOffset": 162744,
   "target": 34963
  }
 ],
 "buffers": [
  {
   "byteLength": 163536,
   "uri": "Park_FerrisWheel.bin"
  }
 ]
}
