{
 "asset": {
  "generator": "Khronos glTF Blender I/O v5.2.40",
  "version": "2.0",
  "extras": {
   "exported_by": "blender/tools/export_building_kit.py",
   "module_scale": 1.0
  }
 },
 "scene": 0,
 "scenes": [
  {
   "name": "library",
   "nodes": [
    0
   ]
  }
 ],
 "nodes": [
  {
   "extras": {
    "edit_note": "Placeholder \u516c\u5712 on a 60 x 60 plot, openings on all four sides; trees come from the nature kit (composite)."
   },
   "mesh": 0,
   "name": "Park"
  }
 ],
 "materials": [
  {
   "doubleSided": true,
   "name": "MI_Dirt",
   "pbrMetallicRoughness": {
    "baseColorFactor": [
     0.6600000262260437,
     0.5600000023841858,
     0.41999998688697815,
     1
    ],
    "metallicFactor": 0
   }
  },
  {
   "doubleSided": true,
   "name": "MI_ConcreteSmooth",
   "pbrMetallicRoughness": {
    "baseColorFactor": [
     0.44070473313331604,
     0.43014833331108093,
     0.40880659222602844,
     1
    ],
    "metallicFactor": 0,
    "roughnessFactor": 0.699999988079071
   }
  },
  {
   "doubleSided": true,
   "name": "MI_Grass",
   "pbrMetallicRoughness": {
    "baseColorFactor": [
     0.3199999928474426,
     0.5,
     0.23999999463558197,
     1
    ],
    "metallicFactor": 0
   }
  },
  {
   "doubleSided": true,
   "name": "MI_Limestone",
   "pbrMetallicRoughness": {
    "baseColorFactor": [
     0.8600000143051147,
     0.8199999928474426,
     0.699999988079071,
     1
    ],
    "metallicFactor": 0,
    "roughnessFactor": 0.800000011920929
   }
  },
  {
   "doubleSided": true,
   "name": "MI_PaintYellow",
   "pbrMetallicRoughness": {
    "baseColorFactor": [
     0.949999988079071,
     0.75,
     0.10000000149011612,
     1
    ],
    "metallicFactor": 0.20000000298023224,
    "roughnessFactor": 0.699999988079071
   }
  },
  {
   "doubleSided": true,
   "name": "MI_CraneRed",
   "pbrMetallicRoughness": {
    "baseColorFactor": [
     0.7200000286102295,
     0.14000000059604645,
     0.10000000149011612,
     1
    ],
    "metallicFactor": 0,
    "roughnessFactor": 0.699999988079071
   }
  },
  {
   "doubleSided": true,
   "name": "MI_PaintedMetal",
   "pbrMetallicRoughness": {
    "baseColorFactor": [
     0.8999999761581421,
     0.8999999761581421,
     0.8899999856948853,
     1
    ],
    "metallicFactor": 0.30000001192092896,
    "roughnessFactor": 0.699999988079071
   }
  },
  {
   "doubleSided": true,
   "name": "MI_Wood",
   "pbrMetallicRoughness": {
    "baseColorFactor": [
     0.6217582821846008,
     0.4432729184627533,
     0.2785278260707855,
     1
    ],
    "metallicFactor": 0,
    "roughnessFactor": 0.699999988079071
   }
  },
  {
   "doubleSided": true,
   "name": "MI_TileWhite",
   "pbrMetallicRoughness": {
    "baseColorFactor": [
     0.8136419057846069,
     0.8136419057846069,
     0.8136419057846069,
     1
    ],
    "metallicFactor": 0,
    "roughnessFactor": 0.699999988079071
   }
  },
  {
   "doubleSided": true,
   "name": "MI_PaintedMetalDark",
   "pbrMetallicRoughness": {
    "baseColorFactor": [
     0.1599999964237213,
     0.17000000178813934,
     0.18000000715255737,
     1
    ],
    "metallicFactor": 0.4000000059604645,
    "roughnessFactor": 0.699999988079071
   }
  },
  {
   "doubleSided": true,
   "name": "MI_Steel",
   "pbrMetallicRoughness": {
    "baseColorFactor": [
     0.5726980566978455,
     0.5820889472961426,
     0.5955169796943665,
     1
    ],
    "roughnessFactor": 0.699999988079071
   }
  }
 ],
 "meshes": [
  {
   "name": "Park.001",
   "primitives": [
    {
     "attributes": {
      "POSITION": 0,
      "NORMAL": 1
     },
     "indices": 2,
     "material": 0
    },
    {
     "attributes": {
      "POSITION": 3,
      "NORMAL": 4
     },
     "indices": 5,
     "material": 1
    },
    {
     "attributes": {
      "POSITION": 6,
      "NORMAL": 7
     },
     "indices": 2,
     "material": 2
    },
    {
     "attributes": {
      "POSITION": 8,
      "NORMAL": 9
     },
     "indices": 2,
     "material": 3
    },
    {
     "attributes": {
      "POSITION": 10,
      "NORMAL": 11
     },
     "indices": 2,
     "material": 4
    },
    {
     "attributes": {
      "POSITION": 12,
      "NORMAL": 13
     },
     "indices": 2,
     "material": 5
    },
    {
     "attributes": {
      "POSITION": 14,
      "NORMAL": 15
     },
     "indices": 16,
     "material": 6
    },
    {
     "attributes": {
      "POSITION": 17,
      "NORMAL": 18
     },
     "indices": 19,
     "material": 7
    },
    {
     "attributes": {
      "POSITION": 20,
      "NORMAL": 21
     },
     "indices": 2,
     "material": 8
    },
    {
     "attributes": {
      "POSITION": 22,
      "NORMAL": 23
     },
     "indices": 24,
     "material": 9
    },
    {
     "attributes": {
      "POSITION": 25,
      "NORMAL": 26
     },
     "indices": 27,
     "material": 10
    }
   ]
  }
 ],
 "accessors": [
  {
   "bufferView": 0,
   "componentType": 5126,
   "count": 24,
   "max": [
    29,
    0.019999999552965164,
    29
   ],
   "min": [
    -29,
    -0.019999999552965164,
    -29
   ],
   "type": "VEC3"
  },
  {
   "bufferView": 1,
   "componentType": 5126,
   "count": 24,
   "type": "VEC3"
  },
  {
   "bufferView": 2,
   "componentType": 5123,
   "count": 36,
   "type": "SCALAR"
  },
  {
   "bufferView": 3,
   "componentType": 5126,
   "count": 48,
   "max": [
    30,
    0.03999999910593033,
    30
   ],
   "min": [
    -30,
    0,
    -30
   ],
   "type": "VEC3"
  },
  {
   "bufferView": 4,
   "componentType": 5126,
   "count": 48,
   "type": "VEC3"
  },
  {
   "bufferView": 5,
   "componentType": 5123,
   "count": 72,
   "type": "SCALAR"
  },
  {
   "bufferView": 6,
   "componentType": 5126,
   "count": 24,
   "max": [
    26,
    0.029999999329447746,
    -6
   ],
   "min": [
    6,
    0,
    -26
   ],
   "type": "VEC3"
  },
  {
   "bufferView": 7,
   "componentType": 5126,
   "count": 24,
   "type": "VEC3"
  },
  {
   "bufferView": 8,
   "componentType": 5126,
   "count": 24,
   "max": [
    -6,
    0.05000000074505806,
    -6
   ],
   "min": [
    -24,
    0,
    -24
   ],
   "type": "VEC3"
  },
  {
   "bufferView": 9,
   "componentType": 5126,
   "count": 24,
   "type": "VEC3"
  },
  {
   "bufferView": 10,
   "componentType": 5126,
   "count": 24,
   "max": [
    -16,
    2.4000000953674316,
    -20
   ],
   "min": [
    -22,
    0,
    -21
   ],
   "type": "VEC3"
  },
  {
   "bufferView": 11,
   "componentType": 5126,
   "count": 24,
   "type": "VEC3"
  },
  {
   "bufferView": 12,
   "componentType": 5126,
   "count": 24,
   "max": [
    -22,
    2.4000000953674316,
    -19.799999237060547
   ],
   "min": [
    -23.5,
    0,
    -21.200000762939453
   ],
   "type": "VEC3"
  },
  {
   "bufferView": 13,
   "componentType": 5126,
   "count": 24,
   "type": "VEC3"
  },
  {
   "bufferView": 14,
   "componentType": 5126,
   "count": 312,
   "max": [
    14.800000190734863,
    2.4600000381469727,
    6.199999809265137
   ],
   "min": [
    -13.0600004196167,
    -0.023076921701431274,
    -12.055384635925293
   ],
   "type": "VEC3"
  },
  {
   "bufferView": 15,
   "componentType": 5126,
   "count": 312,
   "type": "VEC3"
  },
  {
   "bufferView": 16,
   "componentType": 5123,
   "count": 468,
   "type": "SCALAR"
  },
  {
   "bufferView": 17,
   "componentType": 5126,
   "count": 168,
   "max": [
    14.899999618530273,
    0.5,
    6.25
   ],
   "min": [
    -20,
    0,
    -11.199999809265137
   ],
   "type": "VEC3"
  },
  {
   "bufferView": 18,
   "componentType": 5126,
   "count": 168,
   "type": "VEC3"
  },
  {
   "bufferView": 19,
   "componentType": 5123,
   "count": 252,
   "type": "SCALAR"
  },
  {
   "bufferView": 20,
   "componentType": 5126,
   "count": 24,
   "max": [
    26,
    3.200000047683716,
    26
   ],
   "min": [
    18,
    0,
    20
   ],
   "type": "VEC3"
  },
  {
   "bufferView": 21,
   "componentType": 5126,
   "count": 24,
   "type": "VEC3"
  },
  {
   "bufferView": 22,
   "componentType": 5126,
   "count": 2232,
   "max": [
    29.84000015258789,
    3.5,
    29.84000015258789
   ],
   "min": [
    -29.84000015258789,
    0,
    -29.84000015258789
   ],
   "type": "VEC3"
  },
  {
   "bufferView": 23,
   "componentType": 5126,
   "count": 2232,
   "type": "VEC3"
  },
  {
   "bufferView": 24,
   "componentType": 5123,
   "count": 3348,
   "type": "SCALAR"
  },
  {
   "bufferView": 25,
   "componentType": 5126,
   "count": 192,
   "max": [
    29.809999465942383,
    0.800000011920929,
    29.809999465942383
   ],
   "min": [
    -29.809999465942383,
    0.20000000298023224,
    -29.809999465942383
   ],
   "type": "VEC3"
  },
  {
   "bufferView": 26,
   "componentType": 5126,
   "count": 192,
   "type": "VEC3"
  },
  {
   "bufferView": 27,
   "componentType": 5123,
   "count": 288,
   "type": "SCALAR"
  }
 ],
 "bufferViews": [
  {
   "buffer": 0,
   "byteLength": 288,
   "byteOffset": 0,
   "target": 34962
  },
  {
   "buffer": 0,
   "byteLength": 288,
   "byteOffset": 288,
   "target": 34962
  },
  {
   "buffer": 0,
   "byteLength": 72,
   "byteOffset": 576,
   "target": 34963
  },
  {
   "buffer": 0,
   "byteLength": 576,
   "byteOffset": 648,
   "target": 34962
  },
  {
   "buffer": 0,
   "byteLength": 576,
   "byteOffset": 1224,
   "target": 34962
  },
  {
   "buffer": 0,
   "byteLength": 144,
   "byteOffset": 1800,
   "target": 34963
  },
  {
   "buffer": 0,
   "byteLength": 288,
   "byteOffset": 1944,
   "target": 34962
  },
  {
   "buffer": 0,
   "byteLength": 288,
   "byteOffset": 2232,
   "target": 34962
  },
  {
   "buffer": 0,
   "byteLength": 288,
   "byteOffset": 2520,
   "target": 34962
  },
  {
   "buffer": 0,
   "byteLength": 288,
   "byteOffset": 2808,
   "target": 34962
  },
  {
   "buffer": 0,
   "byteLength": 288,
   "byteOffset": 3096,
   "target": 34962
  },
  {
   "buffer": 0,
   "byteLength": 288,
   "byteOffset": 3384,
   "target": 34962
  },
  {
   "buffer": 0,
   "byteLength": 288,
   "byteOffset": 3672,
   "target": 34962
  },
  {
   "buffer": 0,
   "byteLength": 288,
   "byteOffset": 3960,
   "target": 34962
  },
  {
   "buffer": 0,
   "byteLength": 3744,
   "byteOffset": 4248,
   "target": 34962
  },
  {
   "buffer": 0,
   "byteLength": 3744,
   "byteOffset": 7992,
   "target": 34962
  },
  {
   "buffer": 0,
   "byteLength": 936,
   "byteOffset": 11736,
   "target": 34963
  },
  {
   "buffer": 0,
   "byteLength": 2016,
   "byteOffset": 12672,
   "target": 34962
  },
  {
   "buffer": 0,
   "byteLength": 2016,
   "byteOffset": 14688,
   "target": 34962
  },
  {
   "buffer": 0,
   "byteLength": 504,
   "byteOffset": 16704,
   "target": 34963
  },
  {
   "buffer": 0,
   "byteLength": 288,
   "byteOffset": 17208,
   "target": 34962
  },
  {
   "buffer": 0,
   "byteLength": 288,
   "byteOffset": 17496,
   "target": 34962
  },
  {
   "buffer": 0,
   "byteLength": 26784,
   "byteOffset": 17784,
   "target": 34962
  },
  {
   "buffer": 0,
   "byteLength": 26784,
   "byteOffset": 44568,
   "target": 34962
  },
  {
   "buffer": 0,
   "byteLength": 6696,
   "byteOffset": 71352,
   "target": 34963
  },
  {
   "buffer": 0,
   "byteLength": 2304,
   "byteOffset": 78048,
   "target": 34962
  },
  {
   "buffer": 0,
   "byteLength": 2304,
   "byteOffset": 80352,
   "target": 34962
  },
  {
   "buffer": 0,
   "byteLength": 576,
   "byteOffset": 82656,
   "target": 34963
  }
 ],
 "buffers": [
  {
   "byteLength": 83232,
   "uri": "Park.bin"
  }
 ]
}
