{
 "asset": {
  "generator": "Khronos glTF Blender I/O v5.2.40",
  "version": "2.0",
  "extras": {
   "exported_by": "blender/tools/export_building_kit.py",
   "module_scale": 1.0
  }
 },
 "scene": 0,
 "scenes": [
  {
   "name": "library",
   "nodes": [
    0
   ]
  }
 ],
 "nodes": [
  {
   "extras": {
    "edit_note": "Placeholder resort hotel for a 70 x 60 reserve, the balconies and pool deck to -Y (the sea)."
   },
   "mesh": 0,
   "name": "ResortHotel"
  }
 ],
 "materials": [
  {
   "doubleSided": true,
   "name": "MI_TileWhite",
   "pbrMetallicRoughness": {
    "baseColorFactor": [
     0.8136419057846069,
     0.8136419057846069,
     0.8136419057846069,
     1
    ],
    "metallicFactor": 0,
    "roughnessFactor": 0.699999988079071
   }
  },
  {
   "doubleSided": true,
   "name": "MI_GlassClear",
   "pbrMetallicRoughness": {
    "baseColorFactor": [
     0.550000011920929,
     0.6800000071525574,
     0.7200000286102295,
     1
    ],
    "metallicFactor": 0.20000000298023224,
    "roughnessFactor": 0.05000000074505806
   }
  },
  {
   "doubleSided": true,
   "name": "MI_PaintedMetal",
   "pbrMetallicRoughness": {
    "baseColorFactor": [
     0.8999999761581421,
     0.8999999761581421,
     0.8899999856948853,
     1
    ],
    "metallicFactor": 0.30000001192092896,
    "roughnessFactor": 0.699999988079071
   }
  },
  {
   "doubleSided": true,
   "name": "MI_ConcreteSmooth",
   "pbrMetallicRoughness": {
    "baseColorFactor": [
     0.44070473313331604,
     0.43014833331108093,
     0.40880659222602844,
     1
    ],
    "metallicFactor": 0,
    "roughnessFactor": 0.699999988079071
   }
  },
  {
   "doubleSided": true,
   "name": "MI_PaintWhite",
   "pbrMetallicRoughness": {
    "baseColorFactor": [
     0.949999988079071,
     0.949999988079071,
     0.9300000071525574,
     1
    ],
    "metallicFactor": 0,
    "roughnessFactor": 0.699999988079071
   }
  },
  {
   "doubleSided": true,
   "name": "MI_Window",
   "pbrMetallicRoughness": {
    "baseColorFactor": [
     0.1599999964237213,
     0.2199999988079071,
     0.2800000011920929,
     1
    ],
    "metallicFactor": 0.3499999940395355,
    "roughnessFactor": 0.11999999731779099
   }
  },
  {
   "doubleSided": true,
   "name": "MI_PlasticWhite",
   "pbrMetallicRoughness": {
    "baseColorFactor": [
     0.9300000071525574,
     0.9300000071525574,
     0.9100000262260437,
     1
    ],
    "metallicFactor": 0,
    "roughnessFactor": 0.30000001192092896
   }
  },
  {
   "doubleSided": true,
   "emissiveFactor": [
    0.10000000149011612,
    0.800000011920929,
    0.8999999761581421
   ],
   "name": "MI_SignCyan",
   "pbrMetallicRoughness": {
    "baseColorFactor": [
     0.10000000149011612,
     0.75,
     0.8500000238418579,
     1
    ],
    "metallicFactor": 0,
    "roughnessFactor": 0.699999988079071
   }
  },
  {
   "doubleSided": true,
   "name": "MI_Limestone",
   "pbrMetallicRoughness": {
    "baseColorFactor": [
     0.8600000143051147,
     0.8199999928474426,
     0.699999988079071,
     1
    ],
    "metallicFactor": 0,
    "roughnessFactor": 0.800000011920929
   }
  },
  {
   "doubleSided": true,
   "name": "MI_PoolWater",
   "pbrMetallicRoughness": {
    "baseColorFactor": [
     0.2199999988079071,
     0.6200000047683716,
     0.7799999713897705,
     1
    ],
    "metallicFactor": 0.10000000149011612,
    "roughnessFactor": 0.05000000074505806
   }
  }
 ],
 "meshes": [
  {
   "name": "ResortHotel",
   "primitives": [
    {
     "attributes": {
      "POSITION": 0,
      "NORMAL": 1
     },
     "indices": 2,
     "material": 0
    },
    {
     "attributes": {
      "POSITION": 3,
      "NORMAL": 4
     },
     "indices": 5,
     "material": 1
    },
    {
     "attributes": {
      "POSITION": 6,
      "NORMAL": 7
     },
     "indices": 5,
     "material": 2
    },
    {
     "attributes": {
      "POSITION": 8,
      "NORMAL": 9
     },
     "indices": 10,
     "material": 3
    },
    {
     "attributes": {
      "POSITION": 11,
      "NORMAL": 12
     },
     "indices": 13,
     "material": 4
    },
    {
     "attributes": {
      "POSITION": 14,
      "NORMAL": 15
     },
     "indices": 16,
     "material": 5
    },
    {
     "attributes": {
      "POSITION": 17,
      "NORMAL": 18
     },
     "indices": 19,
     "material": 6
    },
    {
     "attributes": {
      "POSITION": 20,
      "NORMAL": 21
     },
     "indices": 2,
     "material": 7
    },
    {
     "attributes": {
      "POSITION": 22,
      "NORMAL": 23
     },
     "indices": 2,
     "material": 8
    },
    {
     "attributes": {
      "POSITION": 24,
      "NORMAL": 25
     },
     "indices": 2,
     "material": 9
    }
   ]
  }
 ],
 "accessors": [
  {
   "bufferView": 0,
   "componentType": 5126,
   "count": 24,
   "max": [
    32,
    8,
    18
   ],
   "min": [
    -32,
    0,
    -18
   ],
   "type": "VEC3"
  },
  {
   "bufferView": 1,
   "componentType": 5126,
   "count": 24,
   "type": "VEC3"
  },
  {
   "bufferView": 2,
   "componentType": 5123,
   "count": 36,
   "type": "SCALAR"
  },
  {
   "bufferView": 3,
   "componentType": 5126,
   "count": 72,
   "max": [
    30,
    60,
    18.030000686645508
   ],
   "min": [
    -30,
    0.30000001192092896,
    -18
   ],
   "type": "VEC3"
  },
  {
   "bufferView": 4,
   "componentType": 5126,
   "count": 72,
   "type": "VEC3"
  },
  {
   "bufferView": 5,
   "componentType": 5123,
   "count": 108,
   "type": "SCALAR"
  },
  {
   "bufferView": 6,
   "componentType": 5126,
   "count": 72,
   "max": [
    12,
    5.349999904632568,
    -18
   ],
   "min": [
    -12,
    0,
    -24
   ],
   "type": "VEC3"
  },
  {
   "bufferView": 7,
   "componentType": 5126,
   "count": 72,
   "type": "VEC3"
  },
  {
   "bufferView": 8,
   "componentType": 5126,
   "count": 168,
   "max": [
    32,
    59.20000076293945,
    18
   ],
   "min": [
    -32,
    8,
    -18
   ],
   "type": "VEC3"
  },
  {
   "bufferView": 9,
   "componentType": 5126,
   "count": 168,
   "type": "VEC3"
  },
  {
   "bufferView": 10,
   "componentType": 5123,
   "count": 324,
   "type": "SCALAR"
  },
  {
   "bufferView": 11,
   "componentType": 5126,
   "count": 696,
   "max": [
    28,
    56,
    10.449999809265137
   ],
   "min": [
    -28,
    8,
    -9
   ],
   "type": "VEC3"
  },
  {
   "bufferView": 12,
   "componentType": 5126,
   "count": 696,
   "type": "VEC3"
  },
  {
   "bufferView": 13,
   "componentType": 5123,
   "count": 1044,
   "type": "SCALAR"
  },
  {
   "bufferView": 14,
   "componentType": 5126,
   "count": 12960,
   "max": [
    28.030000686645508,
    55.5,
    9.029999732971191
   ],
   "min": [
    -28.030000686645508,
    8.899999618530273,
    -9.029999732971191
   ],
   "type": "VEC3"
  },
  {
   "bufferView": 15,
   "componentType": 5126,
   "count": 12960,
   "type": "VEC3"
  },
  {
   "bufferView": 16,
   "componentType": 5123,
   "count": 19440,
   "type": "SCALAR"
  },
  {
   "bufferView": 17,
   "componentType": 5126,
   "count": 144,
   "max": [
    -10.199999809265137,
    57.29999923706055,
    -5
   ],
   "min": [
    -25,
    56,
    -6.199999809265137
   ],
   "type": "VEC3"
  },
  {
   "bufferView": 18,
   "componentType": 5126,
   "count": 144,
   "type": "VEC3"
  },
  {
   "bufferView": 19,
   "componentType": 5123,
   "count": 216,
   "type": "SCALAR"
  },
  {
   "bufferView": 20,
   "componentType": 5126,
   "count": 24,
   "max": [
    12,
    55.599998474121094,
    9.149999618530273
   ],
   "min": [
    -12,
    53.400001525878906,
    9
   ],
   "type": "VEC3"
  },
  {
   "bufferView": 21,
   "componentType": 5126,
   "count": 24,
   "type": "VEC3"
  },
  {
   "bufferView": 22,
   "componentType": 5126,
   "count": 24,
   "max": [
    10,
    0.3499999940395355,
    30
   ],
   "min": [
    -30,
    0,
    19
   ],
   "type": "VEC3"
  },
  {
   "bufferView": 23,
   "componentType": 5126,
   "count": 24,
   "type": "VEC3"
  },
  {
   "bufferView": 24,
   "componentType": 5126,
   "count": 24,
   "max": [
    8,
    0.3700000047683716,
    28.5
   ],
   "min": [
    -28,
    0.3499999940395355,
    20.5
   ],
   "type": "VEC3"
  },
  {
   "bufferView": 25,
   "componentType": 5126,
   "count": 24,
   "type": "VEC3"
  }
 ],
 "bufferViews": [
  {
   "buffer": 0,
   "byteLength": 288,
   "byteOffset": 0,
   "target": 34962
  },
  {
   "buffer": 0,
   "byteLength": 288,
   "byteOffset": 288,
   "target": 34962
  },
  {
   "buffer": 0,
   "byteLength": 72,
   "byteOffset": 576,
   "target": 34963
  },
  {
   "buffer": 0,
   "byteLength": 864,
   "byteOffset": 648,
   "target": 34962
  },
  {
   "buffer": 0,
   "byteLength": 864,
   "byteOffset": 1512,
   "target": 34962
  },
  {
   "buffer": 0,
   "byteLength": 216,
   "byteOffset": 2376,
   "target": 34963
  },
  {
   "buffer": 0,
   "byteLength": 864,
   "byteOffset": 2592,
   "target": 34962
  },
  {
   "buffer": 0,
   "byteLength": 864,
   "byteOffset": 3456,
   "target": 34962
  },
  {
   "buffer": 0,
   "byteLength": 2016,
   "byteOffset": 4320,
   "target": 34962
  },
  {
   "buffer": 0,
   "byteLength": 2016,
   "byteOffset": 6336,
   "target": 34962
  },
  {
   "buffer": 0,
   "byteLength": 648,
   "byteOffset": 8352,
   "target": 34963
  },
  {
   "buffer": 0,
   "byteLength": 8352,
   "byteOffset": 9000,
   "target": 34962
  },
  {
   "buffer": 0,
   "byteLength": 8352,
   "byteOffset": 17352,
   "target": 34962
  },
  {
   "buffer": 0,
   "byteLength": 2088,
   "byteOffset": 25704,
   "target": 34963
  },
  {
   "buffer": 0,
   "byteLength": 155520,
   "byteOffset": 27792,
   "target": 34962
  },
  {
   "buffer": 0,
   "byteLength": 155520,
   "byteOffset": 183312,
   "target": 34962
  },
  {
   "buffer": 0,
   "byteLength": 38880,
   "byteOffset": 338832,
   "target": 34963
  },
  {
   "buffer": 0,
   "byteLength": 1728,
   "byteOffset": 377712,
   "target": 34962
  },
  {
   "buffer": 0,
   "byteLength": 1728,
   "byteOffset": 379440,
   "target": 34962
  },
  {
   "buffer": 0,
   "byteLength": 432,
   "byteOffset": 381168,
   "target": 34963
  },
  {
   "buffer": 0,
   "byteLength": 288,
   "byteOffset": 381600,
   "target": 34962
  },
  {
   "buffer": 0,
   "byteLength": 288,
   "byteOffset": 381888,
   "target": 34962
  },
  {
   "buffer": 0,
   "byteLength": 288,
   "byteOffset": 382176,
   "target": 34962
  },
  {
   "buffer": 0,
   "byteLength": 288,
   "byteOffset": 382464,
   "target": 34962
  },
  {
   "buffer": 0,
   "byteLength": 288,
   "byteOffset": 382752,
   "target": 34962
  },
  {
   "buffer": 0,
   "byteLength": 288,
   "byteOffset": 383040,
   "target": 34962
  }
 ],
 "buffers": [
  {
   "byteLength": 383328,
   "uri": "ResortHotel.bin"
  }
 ]
}
