{
 "asset": {
  "generator": "Khronos glTF Blender I/O v5.2.40",
  "version": "2.0",
  "extras": {
   "exported_by": "blender/tools/export_building_kit.py",
   "module_scale": 1.0
  }
 },
 "scene": 0,
 "scenes": [
  {
   "name": "library",
   "nodes": [
    0
   ]
  }
 ],
 "nodes": [
  {
   "extras": {
    "edit_note": "Placeholder \u795e\u793e on a 50 x 60 plot, the \u9ce5\u5c45 on the street at -Y. A modeller: real \u62dd\u6bbf / \u672c\u6bbf roofs."
   },
   "mesh": 0,
   "name": "Shrine"
  }
 ],
 "materials": [
  {
   "doubleSided": true,
   "name": "MI_Dirt",
   "pbrMetallicRoughness": {
    "baseColorFactor": [
     0.6600000262260437,
     0.5600000023841858,
     0.41999998688697815,
     1
    ],
    "metallicFactor": 0
   }
  },
  {
   "doubleSided": true,
   "name": "MI_Limestone",
   "pbrMetallicRoughness": {
    "baseColorFactor": [
     0.8600000143051147,
     0.8199999928474426,
     0.699999988079071,
     1
    ],
    "metallicFactor": 0,
    "roughnessFactor": 0.800000011920929
   }
  },
  {
   "doubleSided": true,
   "name": "MI_LacquerRed",
   "pbrMetallicRoughness": {
    "baseColorFactor": [
     0.6600000262260437,
     0.12999999523162842,
     0.10000000149011612,
     1
    ],
    "metallicFactor": 0,
    "roughnessFactor": 0.800000011920929
   }
  },
  {
   "doubleSided": true,
   "name": "MI_PlasticDark",
   "pbrMetallicRoughness": {
    "baseColorFactor": [
     0.11999999731779099,
     0.11999999731779099,
     0.12999999523162842,
     1
    ],
    "metallicFactor": 0,
    "roughnessFactor": 0.6000000238418579
   }
  },
  {
   "doubleSided": true,
   "name": "MI_StoneWall",
   "pbrMetallicRoughness": {
    "baseColorFactor": [
     0.5799999833106995,
     0.5699999928474426,
     0.5299999713897705,
     1
    ],
    "metallicFactor": 0,
    "roughnessFactor": 0.8999999761581421
   }
  },
  {
   "doubleSided": true,
   "name": "MI_Wood",
   "pbrMetallicRoughness": {
    "baseColorFactor": [
     0.6217582821846008,
     0.4432729184627533,
     0.2785278260707855,
     1
    ],
    "metallicFactor": 0,
    "roughnessFactor": 0.699999988079071
   }
  },
  {
   "doubleSided": true,
   "name": "MI_RoofCopper",
   "pbrMetallicRoughness": {
    "baseColorFactor": [
     0.36000001430511475,
     0.6000000238418579,
     0.5299999713897705,
     1
    ],
    "metallicFactor": 0.30000001192092896,
    "roughnessFactor": 0.6000000238418579
   }
  }
 ],
 "meshes": [
  {
   "name": "Shrine.001",
   "primitives": [
    {
     "attributes": {
      "POSITION": 0,
      "NORMAL": 1
     },
     "indices": 2,
     "material": 0
    },
    {
     "attributes": {
      "POSITION": 3,
      "NORMAL": 4
     },
     "indices": 2,
     "material": 1
    },
    {
     "attributes": {
      "POSITION": 5,
      "NORMAL": 6
     },
     "indices": 7,
     "material": 2
    },
    {
     "attributes": {
      "POSITION": 8,
      "NORMAL": 9
     },
     "indices": 2,
     "material": 3
    },
    {
     "attributes": {
      "POSITION": 10,
      "NORMAL": 11
     },
     "indices": 12,
     "material": 4
    },
    {
     "attributes": {
      "POSITION": 13,
      "NORMAL": 14
     },
     "indices": 15,
     "material": 5
    },
    {
     "attributes": {
      "POSITION": 16,
      "NORMAL": 17
     },
     "indices": 18,
     "material": 6
    }
   ]
  }
 ],
 "accessors": [
  {
   "bufferView": 0,
   "componentType": 5126,
   "count": 24,
   "max": [
    24,
    0.019999999552965164,
    29
   ],
   "min": [
    -24,
    -0.019999999552965164,
    -29
   ],
   "type": "VEC3"
  },
  {
   "bufferView": 1,
   "componentType": 5126,
   "count": 24,
   "type": "VEC3"
  },
  {
   "bufferView": 2,
   "componentType": 5123,
   "count": 36,
   "type": "SCALAR"
  },
  {
   "bufferView": 3,
   "componentType": 5126,
   "count": 24,
   "max": [
    1.7999999523162842,
    0.05999999865889549,
    30
   ],
   "min": [
    -1.7999999523162842,
    0,
    -14
   ],
   "type": "VEC3"
  },
  {
   "bufferView": 4,
   "componentType": 5126,
   "count": 24,
   "type": "VEC3"
  },
  {
   "bufferView": 5,
   "componentType": 5126,
   "count": 72,
   "max": [
    3.5999999046325684,
    6,
    26.299999237060547
   ],
   "min": [
    -3.5999999046325684,
    0,
    25.700000762939453
   ],
   "type": "VEC3"
  },
  {
   "bufferView": 6,
   "componentType": 5126,
   "count": 72,
   "type": "VEC3"
  },
  {
   "bufferView": 7,
   "componentType": 5123,
   "count": 108,
   "type": "SCALAR"
  },
  {
   "bufferView": 8,
   "componentType": 5126,
   "count": 24,
   "max": [
    4.599999904632568,
    6.599999904632568,
    26.399999618530273
   ],
   "min": [
    -4.599999904632568,
    6,
    25.600000381469727
   ],
   "type": "VEC3"
  },
  {
   "bufferView": 9,
   "componentType": 5126,
   "count": 24,
   "type": "VEC3"
  },
  {
   "bufferView": 10,
   "componentType": 5126,
   "count": 168,
   "max": [
    25,
    1.600000023841858,
    29.5
   ],
   "min": [
    -25,
    0,
    -29.5
   ],
   "type": "VEC3"
  },
  {
   "bufferView": 11,
   "componentType": 5126,
   "count": 168,
   "type": "VEC3"
  },
  {
   "bufferView": 12,
   "componentType": 5123,
   "count": 288,
   "type": "SCALAR"
  },
  {
   "bufferView": 13,
   "componentType": 5126,
   "count": 192,
   "max": [
    8.899999618530273,
    5,
    7.900000095367432
   ],
   "min": [
    -6,
    0,
    -27.200000762939453
   ],
   "type": "VEC3"
  },
  {
   "bufferView": 14,
   "componentType": 5126,
   "count": 192,
   "type": "VEC3"
  },
  {
   "bufferView": 15,
   "componentType": 5123,
   "count": 288,
   "type": "SCALAR"
  },
  {
   "bufferView": 16,
   "componentType": 5126,
   "count": 96,
   "max": [
    9.699999809265137,
    8.600000381469727,
    8.699999809265137
   ],
   "min": [
    -7.5,
    2.5999999046325684,
    -28.299999237060547
   ],
   "type": "VEC3"
  },
  {
   "bufferView": 17,
   "componentType": 5126,
   "count": 96,
   "type": "VEC3"
  },
  {
   "bufferView": 18,
   "componentType": 5123,
   "count": 144,
   "type": "SCALAR"
  }
 ],
 "bufferViews": [
  {
   "buffer": 0,
   "byteLength": 288,
   "byteOffset": 0,
   "target": 34962
  },
  {
   "buffer": 0,
   "byteLength": 288,
   "byteOffset": 288,
   "target": 34962
  },
  {
   "buffer": 0,
   "byteLength": 72,
   "byteOffset": 576,
   "target": 34963
  },
  {
   "buffer": 0,
   "byteLength": 288,
   "byteOffset": 648,
   "target": 34962
  },
  {
   "buffer": 0,
   "byteLength": 288,
   "byteOffset": 936,
   "target": 34962
  },
  {
   "buffer": 0,
   "byteLength": 864,
   "byteOffset": 1224,
   "target": 34962
  },
  {
   "buffer": 0,
   "byteLength": 864,
   "byteOffset": 2088,
   "target": 34962
  },
  {
   "buffer": 0,
   "byteLength": 216,
   "byteOffset": 2952,
   "target": 34963
  },
  {
   "buffer": 0,
   "byteLength": 288,
   "byteOffset": 3168,
   "target": 34962
  },
  {
   "buffer": 0,
   "byteLength": 288,
   "byteOffset": 3456,
   "target": 34962
  },
  {
   "buffer": 0,
   "byteLength": 2016,
   "byteOffset": 3744,
   "target": 34962
  },
  {
   "buffer": 0,
   "byteLength": 2016,
   "byteOffset": 5760,
   "target": 34962
  },
  {
   "buffer": 0,
   "byteLength": 576,
   "byteOffset": 7776,
   "target": 34963
  },
  {
   "buffer": 0,
   "byteLength": 2304,
   "byteOffset": 8352,
   "target": 34962
  },
  {
   "buffer": 0,
   "byteLength": 2304,
   "byteOffset": 10656,
   "target": 34962
  },
  {
   "buffer": 0,
   "byteLength": 576,
   "byteOffset": 12960,
   "target": 34963
  },
  {
   "buffer": 0,
   "byteLength": 1152,
   "byteOffset": 13536,
   "target": 34962
  },
  {
   "buffer": 0,
   "byteLength": 1152,
   "byteOffset": 14688,
   "target": 34962
  },
  {
   "buffer": 0,
   "byteLength": 288,
   "byteOffset": 15840,
   "target": 34963
  }
 ],
 "buffers": [
  {
   "byteLength": 16128,
   "uri": "Shrine.bin"
  }
 ]
}
