{
 "asset": {
  "generator": "Khronos glTF Blender I/O v5.2.40",
  "version": "2.0",
  "extras": {
   "exported_by": "blender/tools/export_building_kit.py",
   "module_scale": 1.0
  }
 },
 "scene": 0,
 "scenes": [
  {
   "name": "library",
   "nodes": [
    0
   ]
  }
 ],
 "nodes": [
  {
   "extras": {
    "edit_note": "Placeholder \u6e29\u6d74\u30fb\u30d7\u30fc\u30eb\u30ea\u30be\u30fc\u30c8 on a 150 x 120 plot, entrance on the street at -Y."
   },
   "mesh": 0,
   "name": "WaterResort"
  }
 ],
 "materials": [
  {
   "doubleSided": true,
   "name": "MI_ConcreteSmooth",
   "pbrMetallicRoughness": {
    "baseColorFactor": [
     0.44070473313331604,
     0.43014833331108093,
     0.40880659222602844,
     1
    ],
    "metallicFactor": 0,
    "roughnessFactor": 0.699999988079071
   }
  },
  {
   "doubleSided": true,
   "name": "MI_TileWhite",
   "pbrMetallicRoughness": {
    "baseColorFactor": [
     0.8136419057846069,
     0.8136419057846069,
     0.8136419057846069,
     1
    ],
    "metallicFactor": 0,
    "roughnessFactor": 0.699999988079071
   }
  },
  {
   "doubleSided": true,
   "name": "MI_GlassClear",
   "pbrMetallicRoughness": {
    "baseColorFactor": [
     0.550000011920929,
     0.6800000071525574,
     0.7200000286102295,
     1
    ],
    "metallicFactor": 0.20000000298023224,
    "roughnessFactor": 0.05000000074505806
   }
  },
  {
   "doubleSided": true,
   "name": "MI_PoolWater",
   "pbrMetallicRoughness": {
    "baseColorFactor": [
     0.2199999988079071,
     0.6200000047683716,
     0.7799999713897705,
     1
    ],
    "metallicFactor": 0.10000000149011612,
    "roughnessFactor": 0.05000000074505806
   }
  },
  {
   "doubleSided": true,
   "name": "MI_PaintedMetal",
   "pbrMetallicRoughness": {
    "baseColorFactor": [
     0.8999999761581421,
     0.8999999761581421,
     0.8899999856948853,
     1
    ],
    "metallicFactor": 0.30000001192092896,
    "roughnessFactor": 0.699999988079071
   }
  },
  {
   "doubleSided": true,
   "emissiveFactor": [
    0.10000000149011612,
    0.800000011920929,
    0.8999999761581421
   ],
   "name": "MI_SignCyan",
   "pbrMetallicRoughness": {
    "baseColorFactor": [
     0.10000000149011612,
     0.75,
     0.8500000238418579,
     1
    ],
    "metallicFactor": 0,
    "roughnessFactor": 0.699999988079071
   }
  },
  {
   "doubleSided": true,
   "name": "MI_Limestone",
   "pbrMetallicRoughness": {
    "baseColorFactor": [
     0.8600000143051147,
     0.8199999928474426,
     0.699999988079071,
     1
    ],
    "metallicFactor": 0,
    "roughnessFactor": 0.800000011920929
   }
  },
  {
   "doubleSided": true,
   "name": "MI_PaintYellow",
   "pbrMetallicRoughness": {
    "baseColorFactor": [
     0.949999988079071,
     0.75,
     0.10000000149011612,
     1
    ],
    "metallicFactor": 0.20000000298023224,
    "roughnessFactor": 0.699999988079071
   }
  },
  {
   "doubleSided": true,
   "name": "MI_CraneRed",
   "pbrMetallicRoughness": {
    "baseColorFactor": [
     0.7200000286102295,
     0.14000000059604645,
     0.10000000149011612,
     1
    ],
    "metallicFactor": 0,
    "roughnessFactor": 0.699999988079071
   }
  },
  {
   "doubleSided": true,
   "name": "MI_PaintedMetalDark",
   "pbrMetallicRoughness": {
    "baseColorFactor": [
     0.1599999964237213,
     0.17000000178813934,
     0.18000000715255737,
     1
    ],
    "metallicFactor": 0.4000000059604645,
    "roughnessFactor": 0.699999988079071
   }
  },
  {
   "doubleSided": true,
   "name": "MI_Steel",
   "pbrMetallicRoughness": {
    "baseColorFactor": [
     0.5726980566978455,
     0.5820889472961426,
     0.5955169796943665,
     1
    ],
    "roughnessFactor": 0.699999988079071
   }
  }
 ],
 "meshes": [
  {
   "name": "WaterResort",
   "primitives": [
    {
     "attributes": {
      "POSITION": 0,
      "NORMAL": 1
     },
     "indices": 2,
     "material": 0
    },
    {
     "attributes": {
      "POSITION": 3,
      "NORMAL": 4
     },
     "indices": 5,
     "material": 1
    },
    {
     "attributes": {
      "POSITION": 6,
      "NORMAL": 7
     },
     "indices": 8,
     "material": 2
    },
    {
     "attributes": {
      "POSITION": 9,
      "NORMAL": 10
     },
     "indices": 11,
     "material": 3
    },
    {
     "attributes": {
      "POSITION": 12,
      "NORMAL": 13
     },
     "indices": 2,
     "material": 4
    },
    {
     "attributes": {
      "POSITION": 14,
      "NORMAL": 15
     },
     "indices": 2,
     "material": 5
    },
    {
     "attributes": {
      "POSITION": 16,
      "NORMAL": 17
     },
     "indices": 18,
     "material": 6
    },
    {
     "attributes": {
      "POSITION": 19,
      "NORMAL": 20
     },
     "indices": 2,
     "material": 7
    },
    {
     "attributes": {
      "POSITION": 21,
      "NORMAL": 22
     },
     "indices": 23,
     "material": 8
    },
    {
     "attributes": {
      "POSITION": 24,
      "NORMAL": 25
     },
     "indices": 26,
     "material": 9
    },
    {
     "attributes": {
      "POSITION": 27,
      "NORMAL": 28
     },
     "indices": 29,
     "material": 10
    }
   ]
  }
 ],
 "accessors": [
  {
   "bufferView": 0,
   "componentType": 5126,
   "count": 24,
   "max": [
    74,
    0.019999999552965164,
    59
   ],
   "min": [
    -74,
    -0.019999999552965164,
    -59
   ],
   "type": "VEC3"
  },
  {
   "bufferView": 1,
   "componentType": 5126,
   "count": 24,
   "type": "VEC3"
  },
  {
   "bufferView": 2,
   "componentType": 5123,
   "count": 36,
   "type": "SCALAR"
  },
  {
   "bufferView": 3,
   "componentType": 5126,
   "count": 72,
   "max": [
    70,
    10,
    58
   ],
   "min": [
    -70,
    0,
    -20
   ],
   "type": "VEC3"
  },
  {
   "bufferView": 4,
   "componentType": 5126,
   "count": 72,
   "type": "VEC3"
  },
  {
   "bufferView": 5,
   "componentType": 5123,
   "count": 108,
   "type": "SCALAR"
  },
  {
   "bufferView": 6,
   "componentType": 5126,
   "count": 44,
   "max": [
    35,
    14,
    58.029998779296875
   ],
   "min": [
    -35,
    0.30000001192092896,
    18
   ],
   "type": "VEC3"
  },
  {
   "bufferView": 7,
   "componentType": 5126,
   "count": 44,
   "type": "VEC3"
  },
  {
   "bufferView": 8,
   "componentType": 5123,
   "count": 66,
   "type": "SCALAR"
  },
  {
   "bufferView": 9,
   "componentType": 5126,
   "count": 192,
   "max": [
    59.20000076293945,
    16.046844482421875,
    58.29999923706055
   ],
   "min": [
    -58.609130859375,
    0,
    -49.20000076293945
   ],
   "type": "VEC3"
  },
  {
   "bufferView": 10,
   "componentType": 5126,
   "count": 192,
   "type": "VEC3"
  },
  {
   "bufferView": 11,
   "componentType": 5123,
   "count": 288,
   "type": "SCALAR"
  },
  {
   "bufferView": 12,
   "componentType": 5126,
   "count": 24,
   "max": [
    10,
    5.349999904632568,
    59.5
   ],
   "min": [
    -10,
    5,
    58
   ],
   "type": "VEC3"
  },
  {
   "bufferView": 13,
   "componentType": 5126,
   "count": 24,
   "type": "VEC3"
  },
  {
   "bufferView": 14,
   "componentType": 5126,
   "count": 24,
   "max": [
    12,
    12.399999618530273,
    58.45000076293945
   ],
   "min": [
    -12,
    10.399999618530273,
    58.29999923706055
   ],
   "type": "VEC3"
  },
  {
   "bufferView": 15,
   "componentType": 5126,
   "count": 24,
   "type": "VEC3"
  },
  {
   "bufferView": 16,
   "componentType": 5126,
   "count": 104,
   "max": [
    60,
    0.3499999940395355,
    10
   ],
   "min": [
    -60,
    0,
    -50
   ],
   "type": "VEC3"
  },
  {
   "bufferView": 17,
   "componentType": 5126,
   "count": 104,
   "type": "VEC3"
  },
  {
   "bufferView": 18,
   "componentType": 5123,
   "count": 180,
   "type": "SCALAR"
  },
  {
   "bufferView": 19,
   "componentType": 5126,
   "count": 24,
   "max": [
    -58,
    16,
    -30
   ],
   "min": [
    -66,
    0,
    -38
   ],
   "type": "VEC3"
  },
  {
   "bufferView": 20,
   "componentType": 5126,
   "count": 24,
   "type": "VEC3"
  },
  {
   "bufferView": 21,
   "componentType": 5126,
   "count": 24,
   "max": [
    -39.390869140625,
    16.046844482421875,
    -5.4125590324401855
   ],
   "min": [
    -62.609130859375,
    0.2531558871269226,
    -30.587440490722656
   ],
   "type": "VEC3"
  },
  {
   "bufferView": 22,
   "componentType": 5126,
   "count": 24,
   "type": "VEC3"
  },
  {
   "bufferView": 23,
   "componentType": 5123,
   "count": 36,
   "type": "SCALAR"
  },
  {
   "bufferView": 24,
   "componentType": 5126,
   "count": 4320,
   "max": [
    74.54000091552734,
    2.4000000953674316,
    59.540000915527344
   ],
   "min": [
    -74.54000091552734,
    0,
    -59.540000915527344
   ],
   "type": "VEC3"
  },
  {
   "bufferView": 25,
   "componentType": 5126,
   "count": 4320,
   "type": "VEC3"
  },
  {
   "bufferView": 26,
   "componentType": 5123,
   "count": 6480,
   "type": "SCALAR"
  },
  {
   "bufferView": 27,
   "componentType": 5126,
   "count": 120,
   "max": [
    74.51000213623047,
    2.299999952316284,
    59.5099983215332
   ],
   "min": [
    -74.51000213623047,
    0.20000000298023224,
    -59.5099983215332
   ],
   "type": "VEC3"
  },
  {
   "bufferView": 28,
   "componentType": 5126,
   "count": 120,
   "type": "VEC3"
  },
  {
   "bufferView": 29,
   "componentType": 5123,
   "count": 180,
   "type": "SCALAR"
  }
 ],
 "bufferViews": [
  {
   "buffer": 0,
   "byteLength": 288,
   "byteOffset": 0,
   "target": 34962
  },
  {
   "buffer": 0,
   "byteLength": 288,
   "byteOffset": 288,
   "target": 34962
  },
  {
   "buffer": 0,
   "byteLength": 72,
   "byteOffset": 576,
   "target": 34963
  },
  {
   "buffer": 0,
   "byteLength": 864,
   "byteOffset": 648,
   "target": 34962
  },
  {
   "buffer": 0,
   "byteLength": 864,
   "byteOffset": 1512,
   "target": 34962
  },
  {
   "buffer": 0,
   "byteLength": 216,
   "byteOffset": 2376,
   "target": 34963
  },
  {
   "buffer": 0,
   "byteLength": 528,
   "byteOffset": 2592,
   "target": 34962
  },
  {
   "buffer": 0,
   "byteLength": 528,
   "byteOffset": 3120,
   "target": 34962
  },
  {
   "buffer": 0,
   "byteLength": 132,
   "byteOffset": 3648,
   "target": 34963
  },
  {
   "buffer": 0,
   "byteLength": 2304,
   "byteOffset": 3780,
   "target": 34962
  },
  {
   "buffer": 0,
   "byteLength": 2304,
   "byteOffset": 6084,
   "target": 34962
  },
  {
   "buffer": 0,
   "byteLength": 576,
   "byteOffset": 8388,
   "target": 34963
  },
  {
   "buffer": 0,
   "byteLength": 288,
   "byteOffset": 8964,
   "target": 34962
  },
  {
   "buffer": 0,
   "byteLength": 288,
   "byteOffset": 9252,
   "target": 34962
  },
  {
   "buffer": 0,
   "byteLength": 288,
   "byteOffset": 9540,
   "target": 34962
  },
  {
   "buffer": 0,
   "byteLength": 288,
   "byteOffset": 9828,
   "target": 34962
  },
  {
   "buffer": 0,
   "byteLength": 1248,
   "byteOffset": 10116,
   "target": 34962
  },
  {
   "buffer": 0,
   "byteLength": 1248,
   "byteOffset": 11364,
   "target": 34962
  },
  {
   "buffer": 0,
   "byteLength": 360,
   "byteOffset": 12612,
   "target": 34963
  },
  {
   "buffer": 0,
   "byteLength": 288,
   "byteOffset": 12972,
   "target": 34962
  },
  {
   "buffer": 0,
   "byteLength": 288,
   "byteOffset": 13260,
   "target": 34962
  },
  {
   "buffer": 0,
   "byteLength": 288,
   "byteOffset": 13548,
   "target": 34962
  },
  {
   "buffer": 0,
   "byteLength": 288,
   "byteOffset": 13836,
   "target": 34962
  },
  {
   "buffer": 0,
   "byteLength": 72,
   "byteOffset": 14124,
   "target": 34963
  },
  {
   "buffer": 0,
   "byteLength": 51840,
   "byteOffset": 14196,
   "target": 34962
  },
  {
   "buffer": 0,
   "byteLength": 51840,
   "byteOffset": 66036,
   "target": 34962
  },
  {
   "buffer": 0,
   "byteLength": 12960,
   "byteOffset": 117876,
   "target": 34963
  },
  {
   "buffer": 0,
   "byteLength": 1440,
   "byteOffset": 130836,
   "target": 34962
  },
  {
   "buffer": 0,
   "byteLength": 1440,
   "byteOffset": 132276,
   "target": 34962
  },
  {
   "buffer": 0,
   "byteLength": 360,
   "byteOffset": 133716,
   "target": 34963
  }
 ],
 "buffers": [
  {
   "byteLength": 134076,
   "uri": "WaterResort.bin"
  }
 ]
}
