{
 "asset": {
  "generator": "Khronos glTF Blender I/O v5.2.40",
  "version": "2.0",
  "extras": {
   "exported_by": "blender/tools/export_building_kit.py",
   "module_scale": 1.0
  }
 },
 "extensionsUsed": [
  "KHR_materials_emissive_strength"
 ],
 "scene": 0,
 "scenes": [
  {
   "name": "SafeHouseSmall",
   "nodes": [
    0,
    1,
    2,
    3,
    4,
    5,
    6,
    7,
    8,
    9,
    10,
    11,
    12,
    13,
    14,
    15,
    16,
    17,
    18,
    19
   ]
  }
 ],
 "nodes": [
  {
   "extras": {
    "edit_note": "A mission building (blender/tools/build_interior_blends.py, seed blender/tools/interior_plans.py): a PLACEHOLDER shell and fit-out at its real Japanese size -- remodel freely. Keep the frame (origin = plot centre on the ground, street -Y), the floor levels, and move the Empties with what they belong to: DOOR_ (interior door, arrow OUT of the room), EXIT_ (outer door, arrow out of the building), LIFT_ (a lift: shaft floor centre at the low stop; stops / faces), MARK_ (a mission marker: kind weapon / spawn / cover ...). Keep 1.2 m clear both sides of every door. After editing: tools/building_kit/build_buildings.sh. \u96a0\u308c\u5bb6 (small safe house): a two-storey 3.5 x 5 \u9593 wooden house -- genkan with the shoe step, LDK, \u6d17\u9762\u6240 + unit bath, a separate WC; upstairs a \u6d0b\u5ba4 and a \u548c\u5ba4 (\u7d9a\u304d\u9593) and the \u7d0d\u6238 with the stash; a stone boundary wall with a scooter spot."
   },
   "mesh": 0,
   "name": "Facade"
  },
  {
   "extras": {
    "edit_note": "A mission building (blender/tools/build_interior_blends.py, seed blender/tools/interior_plans.py): a PLACEHOLDER shell and fit-out at its real Japanese size -- remodel freely. Keep the frame (origin = plot centre on the ground, street -Y), the floor levels, and move the Empties with what they belong to: DOOR_ (interior door, arrow OUT of the room), EXIT_ (outer door, arrow out of the building), LIFT_ (a lift: shaft floor centre at the low stop; stops / faces), MARK_ (a mission marker: kind weapon / spawn / cover ...). Keep 1.2 m clear both sides of every door. After editing: tools/building_kit/build_buildings.sh. \u96a0\u308c\u5bb6 (small safe house): a two-storey 3.5 x 5 \u9593 wooden house -- genkan with the shoe step, LDK, \u6d17\u9762\u6240 + unit bath, a separate WC; upstairs a \u6d0b\u5ba4 and a \u548c\u5ba4 (\u7d9a\u304d\u9593) and the \u7d0d\u6238 with the stash; a stone boundary wall with a scooter spot."
   },
   "mesh": 1,
   "name": "Furniture"
  },
  {
   "extras": {
    "edit_note": "A mission building (blender/tools/build_interior_blends.py, seed blender/tools/interior_plans.py): a PLACEHOLDER shell and fit-out at its real Japanese size -- remodel freely. Keep the frame (origin = plot centre on the ground, street -Y), the floor levels, and move the Empties with what they belong to: DOOR_ (interior door, arrow OUT of the room), EXIT_ (outer door, arrow out of the building), LIFT_ (a lift: shaft floor centre at the low stop; stops / faces), MARK_ (a mission marker: kind weapon / spawn / cover ...). Keep 1.2 m clear both sides of every door. After editing: tools/building_kit/build_buildings.sh. \u96a0\u308c\u5bb6 (small safe house): a two-storey 3.5 x 5 \u9593 wooden house -- genkan with the shoe step, LDK, \u6d17\u9762\u6240 + unit bath, a separate WC; upstairs a \u6d0b\u5ba4 and a \u548c\u5ba4 (\u7d9a\u304d\u9593) and the \u7d0d\u6238 with the stash; a stone boundary wall with a scooter spot."
   },
   "mesh": 2,
   "name": "Glazing"
  },
  {
   "extras": {
    "edit_note": "A mission building (blender/tools/build_interior_blends.py, seed blender/tools/interior_plans.py): a PLACEHOLDER shell and fit-out at its real Japanese size -- remodel freely. Keep the frame (origin = plot centre on the ground, street -Y), the floor levels, and move the Empties with what they belong to: DOOR_ (interior door, arrow OUT of the room), EXIT_ (outer door, arrow out of the building), LIFT_ (a lift: shaft floor centre at the low stop; stops / faces), MARK_ (a mission marker: kind weapon / spawn / cover ...). Keep 1.2 m clear both sides of every door. After editing: tools/building_kit/build_buildings.sh. \u96a0\u308c\u5bb6 (small safe house): a two-storey 3.5 x 5 \u9593 wooden house -- genkan with the shoe step, LDK, \u6d17\u9762\u6240 + unit bath, a separate WC; upstairs a \u6d0b\u5ba4 and a \u548c\u5ba4 (\u7d9a\u304d\u9593) and the \u7d0d\u6238 with the stash; a stone boundary wall with a scooter spot."
   },
   "mesh": 3,
   "name": "Hotel_Bed",
   "rotation": [
    0,
    0.7071068286895752,
    0,
    0.7071068286895752
   ],
   "translation": [
    2,
    3.25,
    3.200000047683716
   ]
  },
  {
   "extras": {
    "edit_note": "A mission building (blender/tools/build_interior_blends.py, seed blender/tools/interior_plans.py): a PLACEHOLDER shell and fit-out at its real Japanese size -- remodel freely. Keep the frame (origin = plot centre on the ground, street -Y), the floor levels, and move the Empties with what they belong to: DOOR_ (interior door, arrow OUT of the room), EXIT_ (outer door, arrow out of the building), LIFT_ (a lift: shaft floor centre at the low stop; stops / faces), MARK_ (a mission marker: kind weapon / spawn / cover ...). Keep 1.2 m clear both sides of every door. After editing: tools/building_kit/build_buildings.sh. \u96a0\u308c\u5bb6 (small safe house): a two-storey 3.5 x 5 \u9593 wooden house -- genkan with the shoe step, LDK, \u6d17\u9762\u6240 + unit bath, a separate WC; upstairs a \u6d0b\u5ba4 and a \u548c\u5ba4 (\u7d9a\u304d\u9593) and the \u7d0d\u6238 with the stash; a stone boundary wall with a scooter spot."
   },
   "mesh": 4,
   "name": "Hotel_Tub",
   "translation": [
    2,
    0.44999998807907104,
    -3.9000000953674316
   ]
  },
  {
   "extras": {
    "edit_note": "A mission building (blender/tools/build_interior_blends.py, seed blender/tools/interior_plans.py): a PLACEHOLDER shell and fit-out at its real Japanese size -- remodel freely. Keep the frame (origin = plot centre on the ground, street -Y), the floor levels, and move the Empties with what they belong to: DOOR_ (interior door, arrow OUT of the room), EXIT_ (outer door, arrow out of the building), LIFT_ (a lift: shaft floor centre at the low stop; stops / faces), MARK_ (a mission marker: kind weapon / spawn / cover ...). Keep 1.2 m clear both sides of every door. After editing: tools/building_kit/build_buildings.sh. \u96a0\u308c\u5bb6 (small safe house): a two-storey 3.5 x 5 \u9593 wooden house -- genkan with the shoe step, LDK, \u6d17\u9762\u6240 + unit bath, a separate WC; upstairs a \u6d0b\u5ba4 and a \u548c\u5ba4 (\u7d9a\u304d\u9593) and the \u7d0d\u6238 with the stash; a stone boundary wall with a scooter spot."
   },
   "mesh": 5,
   "name": "Kitchen_Fridge",
   "translation": [
    2.619999885559082,
    0.44999998807907104,
    -0.44999998807907104
   ]
  },
  {
   "extras": {
    "edit_note": "A mission building (blender/tools/build_interior_blends.py, seed blender/tools/interior_plans.py): a PLACEHOLDER shell and fit-out at its real Japanese size -- remodel freely. Keep the frame (origin = plot centre on the ground, street -Y), the floor levels, and move the Empties with what they belong to: DOOR_ (interior door, arrow OUT of the room), EXIT_ (outer door, arrow out of the building), LIFT_ (a lift: shaft floor centre at the low stop; stops / faces), MARK_ (a mission marker: kind weapon / spawn / cover ...). Keep 1.2 m clear both sides of every door. After editing: tools/building_kit/build_buildings.sh. \u96a0\u308c\u5bb6 (small safe house): a two-storey 3.5 x 5 \u9593 wooden house -- genkan with the shoe step, LDK, \u6d17\u9762\u6240 + unit bath, a separate WC; upstairs a \u6d0b\u5ba4 and a \u548c\u5ba4 (\u7d9a\u304d\u9593) and the \u7d0d\u6238 with the stash; a stone boundary wall with a scooter spot."
   },
   "mesh": 6,
   "name": "Office_Desk",
   "rotation": [
    0,
    -1,
    0,
    4.371138828673793e-08
   ],
   "translation": [
    -0.30000001192092896,
    3.25,
    3.9000000953674316
   ]
  },
  {
   "extras": {
    "edit_note": "A mission building (blender/tools/build_interior_blends.py, seed blender/tools/interior_plans.py): a PLACEHOLDER shell and fit-out at its real Japanese size -- remodel freely. Keep the frame (origin = plot centre on the ground, street -Y), the floor levels, and move the Empties with what they belong to: DOOR_ (interior door, arrow OUT of the room), EXIT_ (outer door, arrow out of the building), LIFT_ (a lift: shaft floor centre at the low stop; stops / faces), MARK_ (a mission marker: kind weapon / spawn / cover ...). Keep 1.2 m clear both sides of every door. After editing: tools/building_kit/build_buildings.sh. \u96a0\u308c\u5bb6 (small safe house): a two-storey 3.5 x 5 \u9593 wooden house -- genkan with the shoe step, LDK, \u6d17\u9762\u6240 + unit bath, a separate WC; upstairs a \u6d0b\u5ba4 and a \u548c\u5ba4 (\u7d9a\u304d\u9593) and the \u7d0d\u6238 with the stash; a stone boundary wall with a scooter spot."
   },
   "mesh": 7,
   "name": "Office_Sofa",
   "translation": [
    1.899999976158142,
    0.44999998807907104,
    3.700000047683716
   ]
  },
  {
   "extras": {
    "edit_note": "A mission building (blender/tools/build_interior_blends.py, seed blender/tools/interior_plans.py): a PLACEHOLDER shell and fit-out at its real Japanese size -- remodel freely. Keep the frame (origin = plot centre on the ground, street -Y), the floor levels, and move the Empties with what they belong to: DOOR_ (interior door, arrow OUT of the room), EXIT_ (outer door, arrow out of the building), LIFT_ (a lift: shaft floor centre at the low stop; stops / faces), MARK_ (a mission marker: kind weapon / spawn / cover ...). Keep 1.2 m clear both sides of every door. After editing: tools/building_kit/build_buildings.sh. \u96a0\u308c\u5bb6 (small safe house): a two-storey 3.5 x 5 \u9593 wooden house -- genkan with the shoe step, LDK, \u6d17\u9762\u6240 + unit bath, a separate WC; upstairs a \u6d0b\u5ba4 and a \u548c\u5ba4 (\u7d9a\u304d\u9593) and the \u7d0d\u6238 with the stash; a stone boundary wall with a scooter spot."
   },
   "mesh": 8,
   "name": "Rest_Chair",
   "rotation": [
    0,
    -0.7071068286895752,
    0,
    0.7071068286895752
   ],
   "translation": [
    0.550000011920929,
    0.44999998807907104,
    1.9500000476837158
   ]
  },
  {
   "extras": {
    "edit_note": "A mission building (blender/tools/build_interior_blends.py, seed blender/tools/interior_plans.py): a PLACEHOLDER shell and fit-out at its real Japanese size -- remodel freely. Keep the frame (origin = plot centre on the ground, street -Y), the floor levels, and move the Empties with what they belong to: DOOR_ (interior door, arrow OUT of the room), EXIT_ (outer door, arrow out of the building), LIFT_ (a lift: shaft floor centre at the low stop; stops / faces), MARK_ (a mission marker: kind weapon / spawn / cover ...). Keep 1.2 m clear both sides of every door. After editing: tools/building_kit/build_buildings.sh. \u96a0\u308c\u5bb6 (small safe house): a two-storey 3.5 x 5 \u9593 wooden house -- genkan with the shoe step, LDK, \u6d17\u9762\u6240 + unit bath, a separate WC; upstairs a \u6d0b\u5ba4 and a \u548c\u5ba4 (\u7d9a\u304d\u9593) and the \u7d0d\u6238 with the stash; a stone boundary wall with a scooter spot."
   },
   "mesh": 8,
   "name": "Rest_Chair.001",
   "rotation": [
    0,
    -0.7071068286895752,
    0,
    0.7071068286895752
   ],
   "translation": [
    0.550000011920929,
    0.44999998807907104,
    1.25
   ]
  },
  {
   "extras": {
    "edit_note": "A mission building (blender/tools/build_interior_blends.py, seed blender/tools/interior_plans.py): a PLACEHOLDER shell and fit-out at its real Japanese size -- remodel freely. Keep the frame (origin = plot centre on the ground, street -Y), the floor levels, and move the Empties with what they belong to: DOOR_ (interior door, arrow OUT of the room), EXIT_ (outer door, arrow out of the building), LIFT_ (a lift: shaft floor centre at the low stop; stops / faces), MARK_ (a mission marker: kind weapon / spawn / cover ...). Keep 1.2 m clear both sides of every door. After editing: tools/building_kit/build_buildings.sh. \u96a0\u308c\u5bb6 (small safe house): a two-storey 3.5 x 5 \u9593 wooden house -- genkan with the shoe step, LDK, \u6d17\u9762\u6240 + unit bath, a separate WC; upstairs a \u6d0b\u5ba4 and a \u548c\u5ba4 (\u7d9a\u304d\u9593) and the \u7d0d\u6238 with the stash; a stone boundary wall with a scooter spot."
   },
   "mesh": 9,
   "name": "Rest_Table",
   "rotation": [
    0,
    0.7071068286895752,
    0,
    0.7071068286895752
   ],
   "translation": [
    1.2999999523162842,
    0.44999998807907104,
    1.600000023841858
   ]
  },
  {
   "extras": {
    "edit_note": "A mission building (blender/tools/build_interior_blends.py, seed blender/tools/interior_plans.py): a PLACEHOLDER shell and fit-out at its real Japanese size -- remodel freely. Keep the frame (origin = plot centre on the ground, street -Y), the floor levels, and move the Empties with what they belong to: DOOR_ (interior door, arrow OUT of the room), EXIT_ (outer door, arrow out of the building), LIFT_ (a lift: shaft floor centre at the low stop; stops / faces), MARK_ (a mission marker: kind weapon / spawn / cover ...). Keep 1.2 m clear both sides of every door. After editing: tools/building_kit/build_buildings.sh. \u96a0\u308c\u5bb6 (small safe house): a two-storey 3.5 x 5 \u9593 wooden house -- genkan with the shoe step, LDK, \u6d17\u9762\u6240 + unit bath, a separate WC; upstairs a \u6d0b\u5ba4 and a \u548c\u5ba4 (\u7d9a\u304d\u9593) and the \u7d0d\u6238 with the stash; a stone boundary wall with a scooter spot."
   },
   "mesh": 10,
   "name": "Roof"
  },
  {
   "extras": {
    "edit_note": "A mission building (blender/tools/build_interior_blends.py, seed blender/tools/interior_plans.py): a PLACEHOLDER shell and fit-out at its real Japanese size -- remodel freely. Keep the frame (origin = plot centre on the ground, street -Y), the floor levels, and move the Empties with what they belong to: DOOR_ (interior door, arrow OUT of the room), EXIT_ (outer door, arrow out of the building), LIFT_ (a lift: shaft floor centre at the low stop; stops / faces), MARK_ (a mission marker: kind weapon / spawn / cover ...). Keep 1.2 m clear both sides of every door. After editing: tools/building_kit/build_buildings.sh. \u96a0\u308c\u5bb6 (small safe house): a two-storey 3.5 x 5 \u9593 wooden house -- genkan with the shoe step, LDK, \u6d17\u9762\u6240 + unit bath, a separate WC; upstairs a \u6d0b\u5ba4 and a \u548c\u5ba4 (\u7d9a\u304d\u9593) and the \u7d0d\u6238 with the stash; a stone boundary wall with a scooter spot."
   },
   "mesh": 11,
   "name": "Shop_StockShelf",
   "translation": [
    -2.0999999046325684,
    3.25,
    -3.950000047683716
   ]
  },
  {
   "extras": {
    "edit_note": "A mission building (blender/tools/build_interior_blends.py, seed blender/tools/interior_plans.py): a PLACEHOLDER shell and fit-out at its real Japanese size -- remodel freely. Keep the frame (origin = plot centre on the ground, street -Y), the floor levels, and move the Empties with what they belong to: DOOR_ (interior door, arrow OUT of the room), EXIT_ (outer door, arrow out of the building), LIFT_ (a lift: shaft floor centre at the low stop; stops / faces), MARK_ (a mission marker: kind weapon / spawn / cover ...). Keep 1.2 m clear both sides of every door. After editing: tools/building_kit/build_buildings.sh. \u96a0\u308c\u5bb6 (small safe house): a two-storey 3.5 x 5 \u9593 wooden house -- genkan with the shoe step, LDK, \u6d17\u9762\u6240 + unit bath, a separate WC; upstairs a \u6d0b\u5ba4 and a \u548c\u5ba4 (\u7d9a\u304d\u9593) and the \u7d0d\u6238 with the stash; a stone boundary wall with a scooter spot."
   },
   "mesh": 12,
   "name": "Site"
  },
  {
   "extras": {
    "edit_note": "A mission building (blender/tools/build_interior_blends.py, seed blender/tools/interior_plans.py): a PLACEHOLDER shell and fit-out at its real Japanese size -- remodel freely. Keep the frame (origin = plot centre on the ground, street -Y), the floor levels, and move the Empties with what they belong to: DOOR_ (interior door, arrow OUT of the room), EXIT_ (outer door, arrow out of the building), LIFT_ (a lift: shaft floor centre at the low stop; stops / faces), MARK_ (a mission marker: kind weapon / spawn / cover ...). Keep 1.2 m clear both sides of every door. After editing: tools/building_kit/build_buildings.sh. \u96a0\u308c\u5bb6 (small safe house): a two-storey 3.5 x 5 \u9593 wooden house -- genkan with the shoe step, LDK, \u6d17\u9762\u6240 + unit bath, a separate WC; upstairs a \u6d0b\u5ba4 and a \u548c\u5ba4 (\u7d9a\u304d\u9593) and the \u7d0d\u6238 with the stash; a stone boundary wall with a scooter spot."
   },
   "mesh": 13,
   "name": "Stairs"
  },
  {
   "extras": {
    "edit_note": "A mission building (blender/tools/build_interior_blends.py, seed blender/tools/interior_plans.py): a PLACEHOLDER shell and fit-out at its real Japanese size -- remodel freely. Keep the frame (origin = plot centre on the ground, street -Y), the floor levels, and move the Empties with what they belong to: DOOR_ (interior door, arrow OUT of the room), EXIT_ (outer door, arrow out of the building), LIFT_ (a lift: shaft floor centre at the low stop; stops / faces), MARK_ (a mission marker: kind weapon / spawn / cover ...). Keep 1.2 m clear both sides of every door. After editing: tools/building_kit/build_buildings.sh. \u96a0\u308c\u5bb6 (small safe house): a two-storey 3.5 x 5 \u9593 wooden house -- genkan with the shoe step, LDK, \u6d17\u9762\u6240 + unit bath, a separate WC; upstairs a \u6d0b\u5ba4 and a \u548c\u5ba4 (\u7d9a\u304d\u9593) and the \u7d0d\u6238 with the stash; a stone boundary wall with a scooter spot."
   },
   "mesh": 14,
   "name": "Structure"
  },
  {
   "extras": {
    "edit_note": "A mission building (blender/tools/build_interior_blends.py, seed blender/tools/interior_plans.py): a PLACEHOLDER shell and fit-out at its real Japanese size -- remodel freely. Keep the frame (origin = plot centre on the ground, street -Y), the floor levels, and move the Empties with what they belong to: DOOR_ (interior door, arrow OUT of the room), EXIT_ (outer door, arrow out of the building), LIFT_ (a lift: shaft floor centre at the low stop; stops / faces), MARK_ (a mission marker: kind weapon / spawn / cover ...). Keep 1.2 m clear both sides of every door. After editing: tools/building_kit/build_buildings.sh. \u96a0\u308c\u5bb6 (small safe house): a two-storey 3.5 x 5 \u9593 wooden house -- genkan with the shoe step, LDK, \u6d17\u9762\u6240 + unit bath, a separate WC; upstairs a \u6d0b\u5ba4 and a \u548c\u5ba4 (\u7d9a\u304d\u9593) and the \u7d0d\u6238 with the stash; a stone boundary wall with a scooter spot."
   },
   "mesh": 15,
   "name": "Walls_0.45"
  },
  {
   "extras": {
    "edit_note": "A mission building (blender/tools/build_interior_blends.py, seed blender/tools/interior_plans.py): a PLACEHOLDER shell and fit-out at its real Japanese size -- remodel freely. Keep the frame (origin = plot centre on the ground, street -Y), the floor levels, and move the Empties with what they belong to: DOOR_ (interior door, arrow OUT of the room), EXIT_ (outer door, arrow out of the building), LIFT_ (a lift: shaft floor centre at the low stop; stops / faces), MARK_ (a mission marker: kind weapon / spawn / cover ...). Keep 1.2 m clear both sides of every door. After editing: tools/building_kit/build_buildings.sh. \u96a0\u308c\u5bb6 (small safe house): a two-storey 3.5 x 5 \u9593 wooden house -- genkan with the shoe step, LDK, \u6d17\u9762\u6240 + unit bath, a separate WC; upstairs a \u6d0b\u5ba4 and a \u548c\u5ba4 (\u7d9a\u304d\u9593) and the \u7d0d\u6238 with the stash; a stone boundary wall with a scooter spot."
   },
   "mesh": 16,
   "name": "Walls_3.25"
  },
  {
   "extras": {
    "edit_note": "A mission building (blender/tools/build_interior_blends.py, seed blender/tools/interior_plans.py): a PLACEHOLDER shell and fit-out at its real Japanese size -- remodel freely. Keep the frame (origin = plot centre on the ground, street -Y), the floor levels, and move the Empties with what they belong to: DOOR_ (interior door, arrow OUT of the room), EXIT_ (outer door, arrow out of the building), LIFT_ (a lift: shaft floor centre at the low stop; stops / faces), MARK_ (a mission marker: kind weapon / spawn / cover ...). Keep 1.2 m clear both sides of every door. After editing: tools/building_kit/build_buildings.sh. \u96a0\u308c\u5bb6 (small safe house): a two-storey 3.5 x 5 \u9593 wooden house -- genkan with the shoe step, LDK, \u6d17\u9762\u6240 + unit bath, a separate WC; upstairs a \u6d0b\u5ba4 and a \u548c\u5ba4 (\u7d9a\u304d\u9593) and the \u7d0d\u6238 with the stash; a stone boundary wall with a scooter spot."
   },
   "mesh": 17,
   "name": "WC_Basin",
   "rotation": [
    0,
    -1,
    0,
    4.371138828673793e-08
   ],
   "translation": [
    0,
    0.44999998807907104,
    -4.050000190734863
   ]
  },
  {
   "extras": {
    "edit_note": "A mission building (blender/tools/build_interior_blends.py, seed blender/tools/interior_plans.py): a PLACEHOLDER shell and fit-out at its real Japanese size -- remodel freely. Keep the frame (origin = plot centre on the ground, street -Y), the floor levels, and move the Empties with what they belong to: DOOR_ (interior door, arrow OUT of the room), EXIT_ (outer door, arrow out of the building), LIFT_ (a lift: shaft floor centre at the low stop; stops / faces), MARK_ (a mission marker: kind weapon / spawn / cover ...). Keep 1.2 m clear both sides of every door. After editing: tools/building_kit/build_buildings.sh. \u96a0\u308c\u5bb6 (small safe house): a two-storey 3.5 x 5 \u9593 wooden house -- genkan with the shoe step, LDK, \u6d17\u9762\u6240 + unit bath, a separate WC; upstairs a \u6d0b\u5ba4 and a \u548c\u5ba4 (\u7d9a\u304d\u9593) and the \u7d0d\u6238 with the stash; a stone boundary wall with a scooter spot."
   },
   "mesh": 18,
   "name": "WC_Toilet",
   "rotation": [
    0,
    -1,
    0,
    4.371138828673793e-08
   ],
   "translation": [
    -2.0999999046325684,
    0.44999998807907104,
    -3.9700000286102295
   ]
  }
 ],
 "materials": [
  {
   "doubleSided": true,
   "name": "MI_ConcreteSmooth",
   "pbrMetallicRoughness": {
    "baseColorFactor": [
     0.3104965388774872,
     0.3015982508659363,
     0.2871379554271698,
     1
    ],
    "metallicFactor": 0,
    "roughnessFactor": 0.699999988079071
   }
  },
  {
   "doubleSided": true,
   "name": "MI_TileBeige",
   "pbrMetallicRoughness": {
    "baseColorFactor": [
     0.8199999928474426,
     0.7599999904632568,
     0.6399999856948853,
     1
    ],
    "metallicFactor": 0,
    "roughnessFactor": 0.800000011920929
   }
  },
  {
   "doubleSided": true,
   "name": "MI_Plaster",
   "pbrMetallicRoughness": {
    "baseColorFactor": [
     0.8999999761581421,
     0.8899999856948853,
     0.8600000143051147,
     1
    ],
    "metallicFactor": 0,
    "roughnessFactor": 0.699999988079071
   }
  },
  {
   "doubleSided": true,
   "name": "MI_PaintedMetalDark",
   "pbrMetallicRoughness": {
    "baseColorFactor": [
     0.1599999964237213,
     0.17000000178813934,
     0.18000000715255737,
     1
    ],
    "metallicFactor": 0.4000000059604645,
    "roughnessFactor": 0.699999988079071
   }
  },
  {
   "doubleSided": true,
   "name": "MI_Wood",
   "pbrMetallicRoughness": {
    "baseColorFactor": [
     0.6217582821846008,
     0.4432729184627533,
     0.2785278260707855,
     1
    ],
    "metallicFactor": 0,
    "roughnessFactor": 0.699999988079071
   }
  },
  {
   "doubleSided": true,
   "name": "MI_PlasticWhite",
   "pbrMetallicRoughness": {
    "baseColorFactor": [
     0.9300000071525574,
     0.9300000071525574,
     0.9100000262260437,
     1
    ],
    "metallicFactor": 0,
    "roughnessFactor": 0.30000001192092896
   }
  },
  {
   "doubleSided": true,
   "name": "MI_Steel",
   "pbrMetallicRoughness": {
    "baseColorFactor": [
     0.5726980566978455,
     0.5820889472961426,
     0.5955169796943665,
     1
    ],
    "roughnessFactor": 0.699999988079071
   }
  },
  {
   "doubleSided": true,
   "name": "MI_Tatami",
   "pbrMetallicRoughness": {
    "baseColorFactor": [
     0.7200000286102295,
     0.699999988079071,
     0.46000000834465027,
     1
    ],
    "metallicFactor": 0,
    "roughnessFactor": 0.8999999761581421
   }
  },
  {
   "doubleSided": true,
   "name": "MI_Shoji",
   "pbrMetallicRoughness": {
    "baseColorFactor": [
     0.9599999785423279,
     0.9399999976158142,
     0.8799999952316284,
     1
    ],
    "metallicFactor": 0,
    "roughnessFactor": 0.800000011920929
   }
  },
  {
   "doubleSided": true,
   "name": "MI_FabricRed",
   "pbrMetallicRoughness": {
    "baseColorFactor": [
     0.44999998807907104,
     0.07999999821186066,
     0.07000000029802322,
     1
    ],
    "metallicFactor": 0,
    "roughnessFactor": 0.699999988079071
   }
  },
  {
   "doubleSided": true,
   "name": "MI_GlassClear",
   "pbrMetallicRoughness": {
    "baseColorFactor": [
     0.550000011920929,
     0.6800000071525574,
     0.7200000286102295,
     1
    ],
    "metallicFactor": 0.20000000298023224,
    "roughnessFactor": 0.05000000074505806
   }
  },
  {
   "doubleSided": true,
   "name": "MI_PaintedMetal",
   "pbrMetallicRoughness": {
    "baseColorFactor": [
     0.8999999761581421,
     0.8999999761581421,
     0.8899999856948853,
     1
    ],
    "metallicFactor": 0.30000001192092896,
    "roughnessFactor": 0.699999988079071
   }
  },
  {
   "doubleSided": true,
   "name": "MI_PaintWhite",
   "pbrMetallicRoughness": {
    "baseColorFactor": [
     0.949999988079071,
     0.949999988079071,
     0.9300000071525574,
     1
    ],
    "metallicFactor": 0,
    "roughnessFactor": 0.699999988079071
   }
  },
  {
   "doubleSided": true,
   "name": "MI_PoolWater",
   "pbrMetallicRoughness": {
    "baseColorFactor": [
     0.2199999988079071,
     0.6200000047683716,
     0.7799999713897705,
     1
    ],
    "metallicFactor": 0.10000000149011612,
    "roughnessFactor": 0.05000000074505806
   }
  },
  {
   "doubleSided": true,
   "emissiveFactor": [
    1,
    0.9800000190734863,
    0.9399999976158142
   ],
   "extensions": {
    "KHR_materials_emissive_strength": {
     "emissiveStrength": 2
    }
   },
   "name": "MI_Light",
   "pbrMetallicRoughness": {
    "baseColorFactor": [
     1,
     1,
     0.9700000286102295,
     1
    ],
    "metallicFactor": 0,
    "roughnessFactor": 0.699999988079071
   }
  },
  {
   "doubleSided": true,
   "name": "MI_PlasticDark",
   "pbrMetallicRoughness": {
    "baseColorFactor": [
     0.11999999731779099,
     0.11999999731779099,
     0.12999999523162842,
     1
    ],
    "metallicFactor": 0,
    "roughnessFactor": 0.6000000238418579
   }
  },
  {
   "doubleSided": true,
   "name": "MI_Fabric",
   "pbrMetallicRoughness": {
    "baseColorFactor": [
     0.3585456907749176,
     0.35632404685020447,
     0.3589908480644226,
     1
    ],
    "metallicFactor": 0,
    "roughnessFactor": 0.699999988079071
   }
  },
  {
   "doubleSided": true,
   "name": "MI_RoofSlate",
   "pbrMetallicRoughness": {
    "baseColorFactor": [
     0.20000000298023224,
     0.2199999988079071,
     0.25999999046325684,
     1
    ],
    "metallicFactor": 0,
    "roughnessFactor": 0.699999988079071
   }
  },
  {
   "doubleSided": true,
   "name": "MI_StoneWall",
   "pbrMetallicRoughness": {
    "baseColorFactor": [
     0.5799999833106995,
     0.5699999928474426,
     0.5299999713897705,
     1
    ],
    "metallicFactor": 0,
    "roughnessFactor": 0.8999999761581421
   }
  },
  {
   "doubleSided": true,
   "name": "MI_TileBrown",
   "pbrMetallicRoughness": {
    "baseColorFactor": [
     0.5600000023841858,
     0.4099999964237213,
     0.3100000023841858,
     1
    ],
    "metallicFactor": 0,
    "roughnessFactor": 0.800000011920929
   }
  },
  {
   "doubleSided": true,
   "name": "MI_TileWhite",
   "pbrMetallicRoughness": {
    "baseColorFactor": [
     0.8136419057846069,
     0.8136419057846069,
     0.8136419057846069,
     1
    ],
    "metallicFactor": 0,
    "roughnessFactor": 0.699999988079071
   }
  },
  {
   "doubleSided": true,
   "emissiveFactor": [
    0.0600000032782555,
    0.15000000596046448,
    0.30000001192092896
   ],
   "name": "MI_Sign",
   "pbrMetallicRoughness": {
    "baseColorFactor": [
     0.11999999731779099,
     0.30000001192092896,
     0.550000011920929,
     1
    ],
    "metallicFactor": 0,
    "roughnessFactor": 0.699999988079071
   }
  }
 ],
 "meshes": [
  {
   "name": "SafeHouseSmall_Facade",
   "primitives": [
    {
     "attributes": {
      "POSITION": 0,
      "NORMAL": 1
     },
     "indices": 2,
     "material": 0
    },
    {
     "attributes": {
      "POSITION": 3,
      "NORMAL": 4
     },
     "indices": 5,
     "material": 1
    },
    {
     "attributes": {
      "POSITION": 6,
      "NORMAL": 7
     },
     "indices": 8,
     "material": 2
    },
    {
     "attributes": {
      "POSITION": 9,
      "NORMAL": 10
     },
     "indices": 11,
     "material": 3
    }
   ]
  },
  {
   "name": "SafeHouseSmall_Furniture",
   "primitives": [
    {
     "attributes": {
      "POSITION": 12,
      "NORMAL": 13
     },
     "indices": 14,
     "material": 4
    },
    {
     "attributes": {
      "POSITION": 15,
      "NORMAL": 16
     },
     "indices": 11,
     "material": 5
    },
    {
     "attributes": {
      "POSITION": 17,
      "NORMAL": 18
     },
     "indices": 19,
     "material": 6
    },
    {
     "attributes": {
      "POSITION": 20,
      "NORMAL": 21
     },
     "indices": 22,
     "material": 7
    },
    {
     "attributes": {
      "POSITION": 23,
      "NORMAL": 24
     },
     "indices": 22,
     "material": 8
    },
    {
     "attributes": {
      "POSITION": 25,
      "NORMAL": 26
     },
     "indices": 11,
     "material": 9
    }
   ]
  },
  {
   "name": "SafeHouseSmall_Glazing",
   "primitives": [
    {
     "attributes": {
      "POSITION": 27,
      "NORMAL": 28
     },
     "indices": 29,
     "material": 10
    },
    {
     "attributes": {
      "POSITION": 30,
      "NORMAL": 31
     },
     "indices": 32,
     "material": 11
    }
   ]
  },
  {
   "name": "LIB_Hotel_Bed",
   "primitives": [
    {
     "attributes": {
      "POSITION": 33,
      "NORMAL": 34
     },
     "indices": 11,
     "material": 4
    },
    {
     "attributes": {
      "POSITION": 35,
      "NORMAL": 36
     },
     "indices": 11,
     "material": 12
    }
   ]
  },
  {
   "name": "LIB_Hotel_Tub",
   "primitives": [
    {
     "attributes": {
      "POSITION": 37,
      "NORMAL": 38
     },
     "indices": 22,
     "material": 5
    },
    {
     "attributes": {
      "POSITION": 39,
      "NORMAL": 40
     },
     "indices": 22,
     "material": 13
    }
   ]
  },
  {
   "name": "LIB_Kitchen_Fridge",
   "primitives": [
    {
     "attributes": {
      "POSITION": 41,
      "NORMAL": 42
     },
     "indices": 43,
     "material": 6
    },
    {
     "attributes": {
      "POSITION": 44,
      "NORMAL": 45
     },
     "indices": 11,
     "material": 3
    },
    {
     "attributes": {
      "POSITION": 46,
      "NORMAL": 47
     },
     "indices": 22,
     "material": 14
    }
   ]
  },
  {
   "name": "LIB_Office_Desk",
   "primitives": [
    {
     "attributes": {
      "POSITION": 48,
      "NORMAL": 49
     },
     "indices": 22,
     "material": 4
    },
    {
     "attributes": {
      "POSITION": 50,
      "NORMAL": 51
     },
     "indices": 11,
     "material": 11
    },
    {
     "attributes": {
      "POSITION": 52,
      "NORMAL": 53
     },
     "indices": 22,
     "material": 15
    }
   ]
  },
  {
   "name": "LIB_Office_Sofa",
   "primitives": [
    {
     "attributes": {
      "POSITION": 54,
      "NORMAL": 55
     },
     "indices": 56,
     "material": 16
    }
   ]
  },
  {
   "extras": {
    "placeholder_note": "REMOVED 2026-09-28: base mesh was from elbolilloduro BurgerPiz pack (base mesh removed); this is a same-size PLACEHOLDER BOX, needs a modeller (see kits/library/placeholders.json)"
   },
   "name": "LIB_Rest_Chair",
   "primitives": [
    {
     "attributes": {
      "POSITION": 57,
      "NORMAL": 58
     },
     "indices": 59,
     "material": 4
    }
   ]
  },
  {
   "extras": {
    "placeholder_note": "REMOVED 2026-09-28: base mesh was from elbolilloduro BurgerPiz pack (base mesh removed); this is a same-size PLACEHOLDER BOX, needs a modeller (see kits/library/placeholders.json)"
   },
   "name": "LIB_Rest_Table",
   "primitives": [
    {
     "attributes": {
      "POSITION": 60,
      "NORMAL": 61
     },
     "indices": 59,
     "material": 4
    }
   ]
  },
  {
   "name": "SafeHouseSmall_Roof",
   "primitives": [
    {
     "attributes": {
      "POSITION": 62,
      "NORMAL": 63
     },
     "indices": 64,
     "material": 17
    },
    {
     "attributes": {
      "POSITION": 65,
      "NORMAL": 66
     },
     "indices": 67,
     "material": 1
    }
   ]
  },
  {
   "extras": {
    "placeholder_note": "REMOVED 2026-09-28: base mesh was from elbolilloduro 6TWELVE pack (base mesh removed); this is a same-size PLACEHOLDER BOX, needs a modeller (see kits/library/placeholders.json)"
   },
   "name": "LIB_Shop_StockShelf",
   "primitives": [
    {
     "attributes": {
      "POSITION": 68,
      "NORMAL": 69
     },
     "indices": 59,
     "material": 3
    }
   ]
  },
  {
   "name": "SafeHouseSmall_Site",
   "primitives": [
    {
     "attributes": {
      "POSITION": 70,
      "NORMAL": 71
     },
     "indices": 29,
     "material": 0
    },
    {
     "attributes": {
      "POSITION": 72,
      "NORMAL": 73
     },
     "indices": 74,
     "material": 18
    },
    {
     "attributes": {
      "POSITION": 75,
      "NORMAL": 76
     },
     "indices": 11,
     "material": 19
    }
   ]
  },
  {
   "name": "SafeHouseSmall_Stairs",
   "primitives": [
    {
     "attributes": {
      "POSITION": 77,
      "NORMAL": 78
     },
     "indices": 79,
     "material": 0
    },
    {
     "attributes": {
      "POSITION": 80,
      "NORMAL": 81
     },
     "indices": 82,
     "material": 3
    },
    {
     "attributes": {
      "POSITION": 83,
      "NORMAL": 84
     },
     "indices": 11,
     "material": 2
    }
   ]
  },
  {
   "name": "SafeHouseSmall_Structure",
   "primitives": [
    {
     "attributes": {
      "POSITION": 85,
      "NORMAL": 86
     },
     "indices": 22,
     "material": 19
    },
    {
     "attributes": {
      "POSITION": 87,
      "NORMAL": 88
     },
     "indices": 89,
     "material": 4
    }
   ]
  },
  {
   "name": "SafeHouseSmall_Walls_0.45",
   "primitives": [
    {
     "attributes": {
      "POSITION": 90,
      "NORMAL": 91
     },
     "indices": 92,
     "material": 2
    }
   ]
  },
  {
   "name": "SafeHouseSmall_Walls_3.25",
   "primitives": [
    {
     "attributes": {
      "POSITION": 93,
      "NORMAL": 94
     },
     "indices": 95,
     "material": 2
    }
   ]
  },
  {
   "name": "LIB_WC_Basin",
   "primitives": [
    {
     "attributes": {
      "POSITION": 96,
      "NORMAL": 97
     },
     "indices": 22,
     "material": 5
    },
    {
     "attributes": {
      "POSITION": 98,
      "NORMAL": 99
     },
     "indices": 22,
     "material": 20
    },
    {
     "attributes": {
      "POSITION": 100,
      "NORMAL": 101
     },
     "indices": 102,
     "material": 6
    }
   ]
  },
  {
   "name": "LIB_WC_Toilet",
   "primitives": [
    {
     "attributes": {
      "POSITION": 103,
      "NORMAL": 104
     },
     "indices": 105,
     "material": 5
    },
    {
     "attributes": {
      "POSITION": 106,
      "NORMAL": 107
     },
     "indices": 22,
     "material": 15
    },
    {
     "attributes": {
      "POSITION": 108,
      "NORMAL": 109
     },
     "indices": 22,
     "material": 21
    },
    {
     "attributes": {
      "POSITION": 110,
      "NORMAL": 111
     },
     "indices": 22,
     "material": 9
    },
    {
     "attributes": {
      "POSITION": 112,
      "NORMAL": 113
     },
     "indices": 22,
     "material": 14
    },
    {
     "attributes": {
      "POSITION": 114,
      "NORMAL": 115
     },
     "indices": 22,
     "material": 6
    }
   ]
  }
 ],
 "accessors": [
  {
   "bufferView": 0,
   "componentType": 5126,
   "count": 72,
   "max": [
    3.200000047683716,
    0.15000000596046448,
    4.550000190734863
   ],
   "min": [
    -3.200000047683716,
    0,
    -4.550000190734863
   ],
   "type": "VEC3"
  },
  {
   "bufferView": 1,
   "componentType": 5126,
   "count": 72,
   "type": "VEC3"
  },
  {
   "bufferView": 2,
   "componentType": 5123,
   "count": 144,
   "type": "SCALAR"
  },
  {
   "bufferView": 3,
   "componentType": 5126,
   "count": 588,
   "max": [
    3.200000047683716,
    5.949999809265137,
    4.550000190734863
   ],
   "min": [
    -3.200000047683716,
    0.15000000596046448,
    -4.550000190734863
   ],
   "type": "VEC3"
  },
  {
   "bufferView": 4,
   "componentType": 5126,
   "count": 588,
   "type": "VEC3"
  },
  {
   "bufferView": 5,
   "componentType": 5123,
   "count": 1092,
   "type": "SCALAR"
  },
  {
   "bufferView": 6,
   "componentType": 5126,
   "count": 584,
   "max": [
    3.200000047683716,
    5.949999809265137,
    4.449999809265137
   ],
   "min": [
    -3.200000047683716,
    0.15000000596046448,
    -4.449999809265137
   ],
   "type": "VEC3"
  },
  {
   "bufferView": 7,
   "componentType": 5126,
   "count": 584,
   "type": "VEC3"
  },
  {
   "bufferView": 8,
   "componentType": 5123,
   "count": 1086,
   "type": "SCALAR"
  },
  {
   "bufferView": 9,
   "componentType": 5126,
   "count": 48,
   "max": [
    2.200000047683716,
    2.75,
    5.449999809265137
   ],
   "min": [
    -3,
    2.4000000953674316,
    4.550000190734863
   ],
   "type": "VEC3"
  },
  {
   "bufferView": 10,
   "componentType": 5126,
   "count": 48,
   "type": "VEC3"
  },
  {
   "bufferView": 11,
   "componentType": 5123,
   "count": 72,
   "type": "SCALAR"
  },
  {
   "bufferView": 12,
   "componentType": 5126,
   "count": 240,
   "max": [
    2.552000045776367,
    3.634999990463257,
    4.199999809265137
   ],
   "min": [
    -1.5800000429153442,
    0.15000000596046448,
    -4.349999904632568
   ],
   "type": "VEC3"
  },
  {
   "bufferView": 13,
   "componentType": 5126,
   "count": 240,
   "type": "VEC3"
  },
  {
   "bufferView": 14,
   "componentType": 5123,
   "count": 360,
   "type": "SCALAR"
  },
  {
   "bufferView": 15,
   "componentType": 5126,
   "count": 48,
   "max": [
    2.299999952316284,
    1.2999999523162842,
    -0.1899999976158142
   ],
   "min": [
    0.3499999940395355,
    0.44999998807907104,
    -1.5
   ],
   "type": "VEC3"
  },
  {
   "bufferView": 16,
   "componentType": 5126,
   "count": 48,
   "type": "VEC3"
  },
  {
   "bufferView": 17,
   "componentType": 5126,
   "count": 20,
   "max": [
    2.299999952316284,
    1.3300000429153442,
    -0.1899999976158142
   ],
   "min": [
    0.3499999940395355,
    1.2999999523162842,
    -0.8399999737739563
   ],
   "type": "VEC3"
  },
  {
   "bufferView": 18,
   "componentType": 5126,
   "count": 20,
   "type": "VEC3"
  },
  {
   "bufferView": 19,
   "componentType": 5123,
   "count": 30,
   "type": "SCALAR"
  },
  {
   "bufferView": 20,
   "componentType": 5126,
   "count": 24,
   "max": [
    3,
    3.26200008392334,
    -0.25
   ],
   "min": [
    -1.100000023841858,
    3.25,
    -4.349999904632568
   ],
   "type": "VEC3"
  },
  {
   "bufferView": 21,
   "componentType": 5126,
   "count": 24,
   "type": "VEC3"
  },
  {
   "bufferView": 22,
   "componentType": 5123,
   "count": 36,
   "type": "SCALAR"
  },
  {
   "bufferView": 23,
   "componentType": 5126,
   "count": 24,
   "max": [
    3,
    5.550000190734863,
    -0.30000001192092896
   ],
   "min": [
    2.0999999046325684,
    3.25,
    -1.899999976158142
   ],
   "type": "VEC3"
  },
  {
   "bufferView": 24,
   "componentType": 5126,
   "count": 24,
   "type": "VEC3"
  },
  {
   "bufferView": 25,
   "componentType": 5126,
   "count": 48,
   "max": [
    0.8700000047683716,
    3.365000009536743,
    -1.7799999713897705
   ],
   "min": [
    0.33000001311302185,
    3.305000066757202,
    -3.819999933242798
   ],
   "type": "VEC3"
  },
  {
   "bufferView": 26,
   "componentType": 5126,
   "count": 48,
   "type": "VEC3"
  },
  {
   "bufferView": 27,
   "componentType": 5126,
   "count": 168,
   "max": [
    3.111999988555908,
    5.25,
    4.461999893188477
   ],
   "min": [
    -1.2999999523162842,
    1.25,
    -4.461999893188477
   ],
   "type": "VEC3"
  },
  {
   "bufferView": 28,
   "componentType": 5126,
   "count": 168,
   "type": "VEC3"
  },
  {
   "bufferView": 29,
   "componentType": 5123,
   "count": 252,
   "type": "SCALAR"
  },
  {
   "bufferView": 30,
   "componentType": 5126,
   "count": 720,
   "max": [
    3.2100000381469727,
    5.300000190734863,
    4.559999942779541
   ],
   "min": [
    -3.2100000381469727,
    0.10000000149011612,
    -4.559999942779541
   ],
   "type": "VEC3"
  },
  {
   "bufferView": 31,
   "componentType": 5126,
   "count": 720,
   "type": "VEC3"
  },
  {
   "bufferView": 32,
   "componentType": 5123,
   "count": 1296,
   "type": "SCALAR"
  },
  {
   "bufferView": 33,
   "componentType": 5126,
   "count": 48,
   "max": [
    0.800000011920929,
    1.100000023841858,
    1
   ],
   "min": [
    -0.800000011920929,
    0,
    -1.0499999523162842
   ],
   "type": "VEC3"
  },
  {
   "bufferView": 34,
   "componentType": 5126,
   "count": 48,
   "type": "VEC3"
  },
  {
   "bufferView": 35,
   "componentType": 5126,
   "count": 48,
   "max": [
    0.7799999713897705,
    0.6800000071525574,
    0.9800000190734863
   ],
   "min": [
    -0.7799999713897705,
    0.3499999940395355,
    -0.9800000190734863
   ],
   "type": "VEC3"
  },
  {
   "bufferView": 36,
   "componentType": 5126,
   "count": 48,
   "type": "VEC3"
  },
  {
   "bufferView": 37,
   "componentType": 5126,
   "count": 24,
   "max": [
    0.800000011920929,
    0.550000011920929,
    0.375
   ],
   "min": [
    -0.800000011920929,
    0,
    -0.375
   ],
   "type": "VEC3"
  },
  {
   "bufferView": 38,
   "componentType": 5126,
   "count": 24,
   "type": "VEC3"
  },
  {
   "bufferView": 39,
   "componentType": 5126,
   "count": 24,
   "max": [
    0.699999988079071,
    0.5600000023841858,
    0.30000001192092896
   ],
   "min": [
    -0.699999988079071,
    0.20000000298023224,
    -0.30000001192092896
   ],
   "type": "VEC3"
  },
  {
   "bufferView": 40,
   "componentType": 5126,
   "count": 24,
   "type": "VEC3"
  },
  {
   "bufferView": 41,
   "componentType": 5126,
   "count": 72,
   "max": [
    0.6000000238418579,
    1.899999976158142,
    0.4099999964237213
   ],
   "min": [
    -0.6000000238418579,
    0,
    -0.4000000059604645
   ],
   "type": "VEC3"
  },
  {
   "bufferView": 42,
   "componentType": 5126,
   "count": 72,
   "type": "VEC3"
  },
  {
   "bufferView": 43,
   "componentType": 5123,
   "count": 108,
   "type": "SCALAR"
  },
  {
   "bufferView": 44,
   "componentType": 5126,
   "count": 48,
   "max": [
    0.5400000214576721,
    1.5,
    0.44999998807907104
   ],
   "min": [
    -0.5400000214576721,
    0.8999999761581421,
    0.4099999964237213
   ],
   "type": "VEC3"
  },
  {
   "bufferView": 45,
   "componentType": 5126,
   "count": 48,
   "type": "VEC3"
  },
  {
   "bufferView": 46,
   "componentType": 5126,
   "count": 24,
   "max": [
    0.20000000298023224,
    1.7999999523162842,
    0.41100001335144043
   ],
   "min": [
    -0.20000000298023224,
    1.7000000476837158,
    0.4099999964237213
   ],
   "type": "VEC3"
  },
  {
   "bufferView": 47,
   "componentType": 5126,
   "count": 24,
   "type": "VEC3"
  },
  {
   "bufferView": 48,
   "componentType": 5126,
   "count": 24,
   "max": [
    0.6000000238418579,
    0.7200000286102295,
    0.3499999940395355
   ],
   "min": [
    -0.6000000238418579,
    0.6800000071525574,
    -0.3499999940395355
   ],
   "type": "VEC3"
  },
  {
   "bufferView": 49,
   "componentType": 5126,
   "count": 24,
   "type": "VEC3"
  },
  {
   "bufferView": 50,
   "componentType": 5126,
   "count": 48,
   "max": [
    0.6000000238418579,
    0.6800000071525574,
    0.3199999928474426
   ],
   "min": [
    -0.6000000238418579,
    0,
    -0.3199999928474426
   ],
   "type": "VEC3"
  },
  {
   "bufferView": 51,
   "componentType": 5126,
   "count": 48,
   "type": "VEC3"
  },
  {
   "bufferView": 52,
   "componentType": 5126,
   "count": 24,
   "max": [
    0.25,
    1.0499999523162842,
    -0.10000000149011612
   ],
   "min": [
    -0.25,
    0.7200000286102295,
    -0.12999999523162842
   ],
   "type": "VEC3"
  },
  {
   "bufferView": 53,
   "componentType": 5126,
   "count": 24,
   "type": "VEC3"
  },
  {
   "bufferView": 54,
   "componentType": 5126,
   "count": 82,
   "max": [
    0.8999999761581421,
    0.800000011920929,
    0.41999998688697815
   ],
   "min": [
    -0.8999999761581421,
    0,
    -0.41999998688697815
   ],
   "type": "VEC3"
  },
  {
   "bufferView": 55,
   "componentType": 5126,
   "count": 82,
   "type": "VEC3"
  },
  {
   "bufferView": 56,
   "componentType": 5123,
   "count": 144,
   "type": "SCALAR"
  },
  {
   "bufferView": 57,
   "componentType": 5126,
   "count": 24,
   "max": [
    0.2548282742500305,
    0.8499999642372131,
    0.2184925079345703
   ],
   "min": [
    -0.25482824444770813,
    0,
    -0.21849441528320312
   ],
   "type": "VEC3"
  },
  {
   "bufferView": 58,
   "componentType": 5126,
   "count": 24,
   "type": "VEC3"
  },
  {
   "bufferView": 59,
   "componentType": 5123,
   "count": 36,
   "type": "SCALAR"
  },
  {
   "bufferView": 60,
   "componentType": 5126,
   "count": 24,
   "max": [
    0.7024393081665039,
    0.7199999690055847,
    0.40633583068847656
   ],
   "min": [
    -0.7024393081665039,
    0,
    -0.40633392333984375
   ],
   "type": "VEC3"
  },
  {
   "bufferView": 61,
   "componentType": 5126,
   "count": 24,
   "type": "VEC3"
  },
  {
   "bufferView": 62,
   "componentType": 5126,
   "count": 44,
   "max": [
    3.700000047683716,
    7.949999809265137,
    5.050000190734863
   ],
   "min": [
    -3.700000047683716,
    5.949999809265137,
    -5.050000190734863
   ],
   "type": "VEC3"
  },
  {
   "bufferView": 63,
   "componentType": 5126,
   "count": 44,
   "type": "VEC3"
  },
  {
   "bufferView": 64,
   "componentType": 5123,
   "count": 66,
   "type": "SCALAR"
  },
  {
   "bufferView": 65,
   "componentType": 5126,
   "count": 6,
   "max": [
    3.200000047683716,
    7.506756782531738,
    4.550000190734863
   ],
   "min": [
    -3.200000047683716,
    5.949999809265137,
    -4.550000190734863
   ],
   "type": "VEC3"
  },
  {
   "bufferView": 66,
   "componentType": 5126,
   "count": 6,
   "type": "VEC3"
  },
  {
   "bufferView": 67,
   "componentType": 5123,
   "count": 6,
   "type": "SCALAR"
  },
  {
   "bufferView": 68,
   "componentType": 5126,
   "count": 24,
   "max": [
    1.5511960983276367,
    1.8000000715255737,
    0.3707904815673828
   ],
   "min": [
    -1.5511951446533203,
    0,
    -0.3707904815673828
   ],
   "type": "VEC3"
  },
  {
   "bufferView": 69,
   "componentType": 5126,
   "count": 24,
   "type": "VEC3"
  },
  {
   "bufferView": 70,
   "componentType": 5126,
   "count": 168,
   "max": [
    4.130000114440918,
    1.2799999713897705,
    7.630000114440918
   ],
   "min": [
    -4.130000114440918,
    -0.029999999329447746,
    -5.329999923706055
   ],
   "type": "VEC3"
  },
  {
   "bufferView": 71,
   "componentType": 5126,
   "count": 168,
   "type": "VEC3"
  },
  {
   "bufferView": 72,
   "componentType": 5126,
   "count": 120,
   "max": [
    4.099999904632568,
    1.2000000476837158,
    7.599999904632568
   ],
   "min": [
    -4.099999904632568,
    0,
    -5.300000190734863
   ],
   "type": "VEC3"
  },
  {
   "bufferView": 73,
   "componentType": 5126,
   "count": 120,
   "type": "VEC3"
  },
  {
   "bufferView": 74,
   "componentType": 5123,
   "count": 180,
   "type": "SCALAR"
  },
  {
   "bufferView": 75,
   "componentType": 5126,
   "count": 48,
   "max": [
    -1.2999999523162842,
    0.15000000596046448,
    5.150000095367432
   ],
   "min": [
    -3.799999952316284,
    0,
    3.3499999046325684
   ],
   "type": "VEC3"
  },
  {
   "bufferView": 76,
   "componentType": 5126,
   "count": 48,
   "type": "VEC3"
  },
  {
   "bufferView": 77,
   "componentType": 5126,
   "count": 402,
   "max": [
    -1.2000000476837158,
    3.25,
    1.7000000476837158
   ],
   "min": [
    -3,
    0.44999998807907104,
    -1.899999976158142
   ],
   "type": "VEC3"
  },
  {
   "bufferView": 78,
   "componentType": 5126,
   "count": 402,
   "type": "VEC3"
  },
  {
   "bufferView": 79,
   "componentType": 5123,
   "count": 612,
   "type": "SCALAR"
  },
  {
   "bufferView": 80,
   "componentType": 5126,
   "count": 384,
   "max": [
    -1.2000000476837158,
    3.255000114440918,
    1.7000000476837158
   ],
   "min": [
    -3,
    0.6050000190734863,
    -0.46000000834465027
   ],
   "type": "VEC3"
  },
  {
   "bufferView": 81,
   "componentType": 5126,
   "count": 384,
   "type": "VEC3"
  },
  {
   "bufferView": 82,
   "componentType": 5123,
   "count": 576,
   "type": "SCALAR"
  },
  {
   "bufferView": 83,
   "componentType": 5126,
   "count": 48,
   "max": [
    -2.0399999618530273,
    4.349999904632568,
    1.7599999904632568
   ],
   "min": [
    -3,
    0.44999998807907104,
    -0.46000000834465027
   ],
   "type": "VEC3"
  },
  {
   "bufferView": 84,
   "componentType": 5126,
   "count": 48,
   "type": "VEC3"
  },
  {
   "bufferView": 85,
   "componentType": 5126,
   "count": 24,
   "max": [
    -1.2000000476837158,
    0.15000000596046448,
    4.349999904632568
   ],
   "min": [
    -3,
    0,
    3.0999999046325684
   ],
   "type": "VEC3"
  },
  {
   "bufferView": 86,
   "componentType": 5126,
   "count": 24,
   "type": "VEC3"
  },
  {
   "bufferView": 87,
   "componentType": 5126,
   "count": 128,
   "max": [
    3,
    3.25,
    4.349999904632568
   ],
   "min": [
    -3,
    0,
    -4.349999904632568
   ],
   "type": "VEC3"
  },
  {
   "bufferView": 88,
   "componentType": 5126,
   "count": 128,
   "type": "VEC3"
  },
  {
   "bufferView": 89,
   "componentType": 5123,
   "count": 216,
   "type": "SCALAR"
  },
  {
   "bufferView": 90,
   "componentType": 5126,
   "count": 268,
   "max": [
    3,
    3.049999952316284,
    4.349999904632568
   ],
   "min": [
    -3,
    0.44999998807907104,
    -4.349999904632568
   ],
   "type": "VEC3"
  },
  {
   "bufferView": 91,
   "componentType": 5126,
   "count": 268,
   "type": "VEC3"
  },
  {
   "bufferView": 92,
   "componentType": 5123,
   "count": 462,
   "type": "SCALAR"
  },
  {
   "bufferView": 93,
   "componentType": 5126,
   "count": 204,
   "max": [
    3,
    5.75,
    4.349999904632568
   ],
   "min": [
    -3,
    3.25,
    -4.349999904632568
   ],
   "type": "VEC3"
  },
  {
   "bufferView": 94,
   "componentType": 5126,
   "count": 204,
   "type": "VEC3"
  },
  {
   "bufferView": 95,
   "componentType": 5123,
   "count": 354,
   "type": "SCALAR"
  },
  {
   "bufferView": 96,
   "componentType": 5126,
   "count": 24,
   "max": [
    0.32499998807907104,
    0.8399999737739563,
    0.28299999237060547
   ],
   "min": [
    -0.32499998807907104,
    0.7200000286102295,
    -0.28299999237060547
   ],
   "type": "VEC3"
  },
  {
   "bufferView": 97,
   "componentType": 5126,
   "count": 24,
   "type": "VEC3"
  },
  {
   "bufferView": 98,
   "componentType": 5126,
   "count": 24,
   "max": [
    0.2750000059604645,
    0.8450000286102295,
    0.2329999953508377
   ],
   "min": [
    -0.2750000059604645,
    0.8420000076293945,
    -0.16300000250339508
   ],
   "type": "VEC3"
  },
  {
   "bufferView": 99,
   "componentType": 5126,
   "count": 24,
   "type": "VEC3"
  },
  {
   "bufferView": 100,
   "componentType": 5126,
   "count": 66,
   "max": [
    0.019999999552965164,
    1.0800000429153442,
    -0.08299999684095383
   ],
   "min": [
    -0.019999999552965164,
    0.8399999737739563,
    -0.2630000114440918
   ],
   "type": "VEC3"
  },
  {
   "bufferView": 101,
   "componentType": 5126,
   "count": 66,
   "type": "VEC3"
  },
  {
   "bufferView": 102,
   "componentType": 5123,
   "count": 108,
   "type": "SCALAR"
  },
  {
   "bufferView": 103,
   "componentType": 5126,
   "count": 980,
   "max": [
    0.30000001192092896,
    0.800000011920929,
    0.3700000047683716
   ],
   "min": [
    -0.20000000298023224,
    0,
    -0.375
   ],
   "type": "VEC3"
  },
  {
   "bufferView": 104,
   "componentType": 5126,
   "count": 980,
   "type": "VEC3"
  },
  {
   "bufferView": 105,
   "componentType": 5123,
   "count": 1860,
   "type": "SCALAR"
  },
  {
   "bufferView": 106,
   "componentType": 5126,
   "count": 24,
   "max": [
    0.28999999165534973,
    0.4749999940395355,
    0.10000000149011612
   ],
   "min": [
    0.20999999344348907,
    0.4699999988079071,
    -0.07999999821186066
   ],
   "type": "VEC3"
  },
  {
   "bufferView": 107,
   "componentType": 5126,
   "count": 24,
   "type": "VEC3"
  },
  {
   "bufferView": 108,
   "componentType": 5126,
   "count": 24,
   "max": [
    0.27000001072883606,
    0.47999998927116394,
    0.07999999821186066
   ],
   "min": [
    0.23000000417232513,
    0.4749999940395355,
    0.05000000074505806
   ],
   "type": "VEC3"
  },
  {
   "bufferView": 109,
   "componentType": 5126,
   "count": 24,
   "type": "VEC3"
  },
  {
   "bufferView": 110,
   "componentType": 5126,
   "count": 24,
   "max": [
    0.27000001072883606,
    0.47999998927116394,
    0.029999999329447746
   ],
   "min": [
    0.23000000417232513,
    0.4749999940395355,
    0
   ],
   "type": "VEC3"
  },
  {
   "bufferView": 111,
   "componentType": 5126,
   "count": 24,
   "type": "VEC3"
  },
  {
   "bufferView": 112,
   "componentType": 5126,
   "count": 24,
   "max": [
    0.27000001072883606,
    0.47999998927116394,
    -0.019999999552965164
   ],
   "min": [
    0.23000000417232513,
    0.4749999940395355,
    -0.05000000074505806
   ],
   "type": "VEC3"
  },
  {
   "bufferView": 113,
   "componentType": 5126,
   "count": 24,
   "type": "VEC3"
  },
  {
   "bufferView": 114,
   "componentType": 5126,
   "count": 24,
   "max": [
    -0.20000000298023224,
    0.6800000071525574,
    -0.2800000011920929
   ],
   "min": [
    -0.2199999988079071,
    0.6600000262260437,
    -0.3400000035762787
   ],
   "type": "VEC3"
  },
  {
   "bufferView": 115,
   "componentType": 5126,
   "count": 24,
   "type": "VEC3"
  }
 ],
 "bufferViews": [
  {
   "buffer": 0,
   "byteLength": 864,
   "byteOffset": 0,
   "target": 34962
  },
  {
   "buffer": 0,
   "byteLength": 864,
   "byteOffset": 864,
   "target": 34962
  },
  {
   "buffer": 0,
   "byteLength": 288,
   "byteOffset": 1728,
   "target": 34963
  },
  {
   "buffer": 0,
   "byteLength": 7056,
   "byteOffset": 2016,
   "target": 34962
  },
  {
   "buffer": 0,
   "byteLength": 7056,
   "byteOffset": 9072,
   "target": 34962
  },
  {
   "buffer": 0,
   "byteLength": 2184,
   "byteOffset": 16128,
   "target": 34963
  },
  {
   "buffer": 0,
   "byteLength": 7008,
   "byteOffset": 18312,
   "target": 34962
  },
  {
   "buffer": 0,
   "byteLength": 7008,
   "byteOffset": 25320,
   "target": 34962
  },
  {
   "buffer": 0,
   "byteLength": 2172,
   "byteOffset": 32328,
   "target": 34963
  },
  {
   "buffer": 0,
   "byteLength": 576,
   "byteOffset": 34500,
   "target": 34962
  },
  {
   "buffer": 0,
   "byteLength": 576,
   "byteOffset": 35076,
   "target": 34962
  },
  {
   "buffer": 0,
   "byteLength": 144,
   "byteOffset": 35652,
   "target": 34963
  },
  {
   "buffer": 0,
   "byteLength": 2880,
   "byteOffset": 35796,
   "target": 34962
  },
  {
   "buffer": 0,
   "byteLength": 2880,
   "byteOffset": 38676,
   "target": 34962
  },
  {
   "buffer": 0,
   "byteLength": 720,
   "byteOffset": 41556,
   "target": 34963
  },
  {
   "buffer": 0,
   "byteLength": 576,
   "byteOffset": 42276,
   "target": 34962
  },
  {
   "buffer": 0,
   "byteLength": 576,
   "byteOffset": 42852,
   "target": 34962
  },
  {
   "buffer": 0,
   "byteLength": 240,
   "byteOffset": 43428,
   "target": 34962
  },
  {
   "buffer": 0,
   "byteLength": 240,
   "byteOffset": 43668,
   "target": 34962
  },
  {
   "buffer": 0,
   "byteLength": 60,
   "byteOffset": 43908,
   "target": 34963
  },
  {
   "buffer": 0,
   "byteLength": 288,
   "byteOffset": 43968,
   "target": 34962
  },
  {
   "buffer": 0,
   "byteLength": 288,
   "byteOffset": 44256,
   "target": 34962
  },
  {
   "buffer": 0,
   "byteLength": 72,
   "byteOffset": 44544,
   "target": 34963
  },
  {
   "buffer": 0,
   "byteLength": 288,
   "byteOffset": 44616,
   "target": 34962
  },
  {
   "buffer": 0,
   "byteLength": 288,
   "byteOffset": 44904,
   "target": 34962
  },
  {
   "buffer": 0,
   "byteLength": 576,
   "byteOffset": 45192,
   "target": 34962
  },
  {
   "buffer": 0,
   "byteLength": 576,
   "byteOffset": 45768,
   "target": 34962
  },
  {
   "buffer": 0,
   "byteLength": 2016,
   "byteOffset": 46344,
   "target": 34962
  },
  {
   "buffer": 0,
   "byteLength": 2016,
   "byteOffset": 48360,
   "target": 34962
  },
  {
   "buffer": 0,
   "byteLength": 504,
   "byteOffset": 50376,
   "target": 34963
  },
  {
   "buffer": 0,
   "byteLength": 8640,
   "byteOffset": 50880,
   "target": 34962
  },
  {
   "buffer": 0,
   "byteLength": 8640,
   "byteOffset": 59520,
   "target": 34962
  },
  {
   "buffer": 0,
   "byteLength": 2592,
   "byteOffset": 68160,
   "target": 34963
  },
  {
   "buffer": 0,
   "byteLength": 576,
   "byteOffset": 70752,
   "target": 34962
  },
  {
   "buffer": 0,
   "byteLength": 576,
   "byteOffset": 71328,
   "target": 34962
  },
  {
   "buffer": 0,
   "byteLength": 576,
   "byteOffset": 71904,
   "target": 34962
  },
  {
   "buffer": 0,
   "byteLength": 576,
   "byteOffset": 72480,
   "target": 34962
  },
  {
   "buffer": 0,
   "byteLength": 288,
   "byteOffset": 73056,
   "target": 34962
  },
  {
   "buffer": 0,
   "byteLength": 288,
   "byteOffset": 73344,
   "target": 34962
  },
  {
   "buffer": 0,
   "byteLength": 288,
   "byteOffset": 73632,
   "target": 34962
  },
  {
   "buffer": 0,
   "byteLength": 288,
   "byteOffset": 73920,
   "target": 34962
  },
  {
   "buffer": 0,
   "byteLength": 864,
   "byteOffset": 74208,
   "target": 34962
  },
  {
   "buffer": 0,
   "byteLength": 864,
   "byteOffset": 75072,
   "target": 34962
  },
  {
   "buffer": 0,
   "byteLength": 216,
   "byteOffset": 75936,
   "target": 34963
  },
  {
   "buffer": 0,
   "byteLength": 576,
   "byteOffset": 76152,
   "target": 34962
  },
  {
   "buffer": 0,
   "byteLength": 576,
   "byteOffset": 76728,
   "target": 34962
  },
  {
   "buffer": 0,
   "byteLength": 288,
   "byteOffset": 77304,
   "target": 34962
  },
  {
   "buffer": 0,
   "byteLength": 288,
   "byteOffset": 77592,
   "target": 34962
  },
  {
   "buffer": 0,
   "byteLength": 288,
   "byteOffset": 77880,
   "target": 34962
  },
  {
   "buffer": 0,
   "byteLength": 288,
   "byteOffset": 78168,
   "target": 34962
  },
  {
   "buffer": 0,
   "byteLength": 576,
   "byteOffset": 78456,
   "target": 34962
  },
  {
   "buffer": 0,
   "byteLength": 576,
   "byteOffset": 79032,
   "target": 34962
  },
  {
   "buffer": 0,
   "byteLength": 288,
   "byteOffset": 79608,
   "target": 34962
  },
  {
   "buffer": 0,
   "byteLength": 288,
   "byteOffset": 79896,
   "target": 34962
  },
  {
   "buffer": 0,
   "byteLength": 984,
   "byteOffset": 80184,
   "target": 34962
  },
  {
   "buffer": 0,
   "byteLength": 984,
   "byteOffset": 81168,
   "target": 34962
  },
  {
   "buffer": 0,
   "byteLength": 288,
   "byteOffset": 82152,
   "target": 34963
  },
  {
   "buffer": 0,
   "byteLength": 288,
   "byteOffset": 82440,
   "target": 34962
  },
  {
   "buffer": 0,
   "byteLength": 288,
   "byteOffset": 82728,
   "target": 34962
  },
  {
   "buffer": 0,
   "byteLength": 72,
   "byteOffset": 83016,
   "target": 34963
  },
  {
   "buffer": 0,
   "byteLength": 288,
   "byteOffset": 83088,
   "target": 34962
  },
  {
   "buffer": 0,
   "byteLength": 288,
   "byteOffset": 83376,
   "target": 34962
  },
  {
   "buffer": 0,
   "byteLength": 528,
   "byteOffset": 83664,
   "target": 34962
  },
  {
   "buffer": 0,
   "byteLength": 528,
   "byteOffset": 84192,
   "target": 34962
  },
  {
   "buffer": 0,
   "byteLength": 132,
   "byteOffset": 84720,
   "target": 34963
  },
  {
   "buffer": 0,
   "byteLength": 72,
   "byteOffset": 84852,
   "target": 34962
  },
  {
   "buffer": 0,
   "byteLength": 72,
   "byteOffset": 84924,
   "target": 34962
  },
  {
   "buffer": 0,
   "byteLength": 12,
   "byteOffset": 84996,
   "target": 34963
  },
  {
   "buffer": 0,
   "byteLength": 288,
   "byteOffset": 85008,
   "target": 34962
  },
  {
   "buffer": 0,
   "byteLength": 288,
   "byteOffset": 85296,
   "target": 34962
  },
  {
   "buffer": 0,
   "byteLength": 2016,
   "byteOffset": 85584,
   "target": 34962
  },
  {
   "buffer": 0,
   "byteLength": 2016,
   "byteOffset": 87600,
   "target": 34962
  },
  {
   "buffer": 0,
   "byteLength": 1440,
   "byteOffset": 89616,
   "target": 34962
  },
  {
   "buffer": 0,
   "byteLength": 1440,
   "byteOffset": 91056,
   "target": 34962
  },
  {
   "buffer": 0,
   "byteLength": 360,
   "byteOffset": 92496,
   "target": 34963
  },
  {
   "buffer": 0,
   "byteLength": 576,
   "byteOffset": 92856,
   "target": 34962
  },
  {
   "buffer": 0,
   "byteLength": 576,
   "byteOffset": 93432,
   "target": 34962
  },
  {
   "buffer": 0,
   "byteLength": 4824,
   "byteOffset": 94008,
   "target": 34962
  },
  {
   "buffer": 0,
   "byteLength": 4824,
   "byteOffset": 98832,
   "target": 34962
  },
  {
   "buffer": 0,
   "byteLength": 1224,
   "byteOffset": 103656,
   "target": 34963
  },
  {
   "buffer": 0,
   "byteLength": 4608,
   "byteOffset": 104880,
   "target": 34962
  },
  {
   "buffer": 0,
   "byteLength": 4608,
   "byteOffset": 109488,
   "target": 34962
  },
  {
   "buffer": 0,
   "byteLength": 1152,
   "byteOffset": 114096,
   "target": 34963
  },
  {
   "buffer": 0,
   "byteLength": 576,
   "byteOffset": 115248,
   "target": 34962
  },
  {
   "buffer": 0,
   "byteLength": 576,
   "byteOffset": 115824,
   "target": 34962
  },
  {
   "buffer": 0,
   "byteLength": 288,
   "byteOffset": 116400,
   "target": 34962
  },
  {
   "buffer": 0,
   "byteLength": 288,
   "byteOffset": 116688,
   "target": 34962
  },
  {
   "buffer": 0,
   "byteLength": 1536,
   "byteOffset": 116976,
   "target": 34962
  },
  {
   "buffer": 0,
   "byteLength": 1536,
   "byteOffset": 118512,
   "target": 34962
  },
  {
   "buffer": 0,
   "byteLength": 432,
   "byteOffset": 120048,
   "target": 34963
  },
  {
   "buffer": 0,
   "byteLength": 3216,
   "byteOffset": 120480,
   "target": 34962
  },
  {
   "buffer": 0,
   "byteLength": 3216,
   "byteOffset": 123696,
   "target": 34962
  },
  {
   "buffer": 0,
   "byteLength": 924,
   "byteOffset": 126912,
   "target": 34963
  },
  {
   "buffer": 0,
   "byteLength": 2448,
   "byteOffset": 127836,
   "target": 34962
  },
  {
   "buffer": 0,
   "byteLength": 2448,
   "byteOffset": 130284,
   "target": 34962
  },
  {
   "buffer": 0,
   "byteLength": 708,
   "byteOffset": 132732,
   "target": 34963
  },
  {
   "buffer": 0,
   "byteLength": 288,
   "byteOffset": 133440,
   "target": 34962
  },
  {
   "buffer": 0,
   "byteLength": 288,
   "byteOffset": 133728,
   "target": 34962
  },
  {
   "buffer": 0,
   "byteLength": 288,
   "byteOffset": 134016,
   "target": 34962
  },
  {
   "buffer": 0,
   "byteLength": 288,
   "byteOffset": 134304,
   "target": 34962
  },
  {
   "buffer": 0,
   "byteLength": 792,
   "byteOffset": 134592,
   "target": 34962
  },
  {
   "buffer": 0,
   "byteLength": 792,
   "byteOffset": 135384,
   "target": 34962
  },
  {
   "buffer": 0,
   "byteLength": 216,
   "byteOffset": 136176,
   "target": 34963
  },
  {
   "buffer": 0,
   "byteLength": 11760,
   "byteOffset": 136392,
   "target": 34962
  },
  {
   "buffer": 0,
   "byteLength": 11760,
   "byteOffset": 148152,
   "target": 34962
  },
  {
   "buffer": 0,
   "byteLength": 3720,
   "byteOffset": 159912,
   "target": 34963
  },
  {
   "buffer": 0,
   "byteLength": 288,
   "byteOffset": 163632,
   "target": 34962
  },
  {
   "buffer": 0,
   "byteLength": 288,
   "byteOffset": 163920,
   "target": 34962
  },
  {
   "buffer": 0,
   "byteLength": 288,
   "byteOffset": 164208,
   "target": 34962
  },
  {
   "buffer": 0,
   "byteLength": 288,
   "byteOffset": 164496,
   "target": 34962
  },
  {
   "buffer": 0,
   "byteLength": 288,
   "byteOffset": 164784,
   "target": 34962
  },
  {
   "buffer": 0,
   "byteLength": 288,
   "byteOffset": 165072,
   "target": 34962
  },
  {
   "buffer": 0,
   "byteLength": 288,
   "byteOffset": 165360,
   "target": 34962
  },
  {
   "buffer": 0,
   "byteLength": 288,
   "byteOffset": 165648,
   "target": 34962
  },
  {
   "buffer": 0,
   "byteLength": 288,
   "byteOffset": 165936,
   "target": 34962
  },
  {
   "buffer": 0,
   "byteLength": 288,
   "byteOffset": 166224,
   "target": 34962
  }
 ],
 "buffers": [
  {
   "byteLength": 166512,
   "uri": "SafeHouseSmall.bin"
  }
 ]
}
