{
 "asset": {
  "generator": "Khronos glTF Blender I/O v5.2.40",
  "version": "2.0",
  "extras": {
   "exported_by": "blender/tools/export_building_kit.py",
   "module_scale": 1.0
  }
 },
 "scene": 0,
 "scenes": [
  {
   "name": "library",
   "nodes": [
    0
   ]
  }
 ],
 "nodes": [
  {
   "extras": {
    "edit_note": "Placeholder pedestrian signal. The two lenses' centres (red 3.025, green 2.675 m, 0.38 m in front of the pole) are furniture.json `lamps` -- move a lens here, move it there. Faces -Y across the crosswalk."
   },
   "mesh": 0,
   "name": "Signal_Pedestrian"
  }
 ],
 "materials": [
  {
   "doubleSided": true,
   "name": "MI_ConcreteSmooth",
   "pbrMetallicRoughness": {
    "baseColorFactor": [
     0.44070473313331604,
     0.43014833331108093,
     0.40880659222602844,
     1
    ],
    "metallicFactor": 0,
    "roughnessFactor": 0.699999988079071
   }
  },
  {
   "doubleSided": true,
   "name": "MI_PaintedMetal",
   "pbrMetallicRoughness": {
    "baseColorFactor": [
     0.8999999761581421,
     0.8999999761581421,
     0.8899999856948853,
     1
    ],
    "metallicFactor": 0.30000001192092896,
    "roughnessFactor": 0.699999988079071
   }
  },
  {
   "doubleSided": true,
   "name": "MI_PaintedMetalDark",
   "pbrMetallicRoughness": {
    "baseColorFactor": [
     0.1599999964237213,
     0.17000000178813934,
     0.18000000715255737,
     1
    ],
    "metallicFactor": 0.4000000059604645,
    "roughnessFactor": 0.699999988079071
   }
  },
  {
   "doubleSided": true,
   "name": "MI_PlasticDark",
   "pbrMetallicRoughness": {
    "baseColorFactor": [
     0.11999999731779099,
     0.11999999731779099,
     0.12999999523162842,
     1
    ],
    "metallicFactor": 0,
    "roughnessFactor": 0.6000000238418579
   }
  }
 ],
 "meshes": [
  {
   "name": "Signal_Pedestrian",
   "primitives": [
    {
     "attributes": {
      "POSITION": 0,
      "NORMAL": 1
     },
     "indices": 2,
     "material": 0
    },
    {
     "attributes": {
      "POSITION": 3,
      "NORMAL": 4
     },
     "indices": 5,
     "material": 1
    },
    {
     "attributes": {
      "POSITION": 6,
      "NORMAL": 7
     },
     "indices": 5,
     "material": 2
    },
    {
     "attributes": {
      "POSITION": 8,
      "NORMAL": 9
     },
     "indices": 10,
     "material": 3
    }
   ]
  }
 ],
 "accessors": [
  {
   "bufferView": 0,
   "componentType": 5126,
   "count": 24,
   "max": [
    0.18000000715255737,
    0.11999999731779099,
    0.18000000715255737
   ],
   "min": [
    -0.18000000715255737,
    0,
    -0.18000000715255737
   ],
   "type": "VEC3"
  },
  {
   "bufferView": 1,
   "componentType": 5126,
   "count": 24,
   "type": "VEC3"
  },
  {
   "bufferView": 2,
   "componentType": 5123,
   "count": 36,
   "type": "SCALAR"
  },
  {
   "bufferView": 3,
   "componentType": 5126,
   "count": 72,
   "max": [
    0.07999999821186066,
    3.299999952316284,
    0.10000000149011612
   ],
   "min": [
    -0.07999999821186066,
    0.11999999731779099,
    -0.07999999821186066
   ],
   "type": "VEC3"
  },
  {
   "bufferView": 4,
   "componentType": 5126,
   "count": 72,
   "type": "VEC3"
  },
  {
   "bufferView": 5,
   "componentType": 5123,
   "count": 108,
   "type": "SCALAR"
  },
  {
   "bufferView": 6,
   "componentType": 5126,
   "count": 72,
   "max": [
    0.20000000298023224,
    3.2200000286102295,
    0.46000000834465027
   ],
   "min": [
    -0.20000000298023224,
    2.4800000190734863,
    0.05999999865889549
   ],
   "type": "VEC3"
  },
  {
   "bufferView": 7,
   "componentType": 5126,
   "count": 72,
   "type": "VEC3"
  },
  {
   "bufferView": 8,
   "componentType": 5126,
   "count": 48,
   "max": [
    0.1599999964237213,
    3.180000066757202,
    0.3799999952316284
   ],
   "min": [
    -0.1599999964237213,
    2.5199999809265137,
    0.36000001430511475
   ],
   "type": "VEC3"
  },
  {
   "bufferView": 9,
   "componentType": 5126,
   "count": 48,
   "type": "VEC3"
  },
  {
   "bufferView": 10,
   "componentType": 5123,
   "count": 72,
   "type": "SCALAR"
  }
 ],
 "bufferViews": [
  {
   "buffer": 0,
   "byteLength": 288,
   "byteOffset": 0,
   "target": 34962
  },
  {
   "buffer": 0,
   "byteLength": 288,
   "byteOffset": 288,
   "target": 34962
  },
  {
   "buffer": 0,
   "byteLength": 72,
   "byteOffset": 576,
   "target": 34963
  },
  {
   "buffer": 0,
   "byteLength": 864,
   "byteOffset": 648,
   "target": 34962
  },
  {
   "buffer": 0,
   "byteLength": 864,
   "byteOffset": 1512,
   "target": 34962
  },
  {
   "buffer": 0,
   "byteLength": 216,
   "byteOffset": 2376,
   "target": 34963
  },
  {
   "buffer": 0,
   "byteLength": 864,
   "byteOffset": 2592,
   "target": 34962
  },
  {
   "buffer": 0,
   "byteLength": 864,
   "byteOffset": 3456,
   "target": 34962
  },
  {
   "buffer": 0,
   "byteLength": 576,
   "byteOffset": 4320,
   "target": 34962
  },
  {
   "buffer": 0,
   "byteLength": 576,
   "byteOffset": 4896,
   "target": 34962
  },
  {
   "buffer": 0,
   "byteLength": 144,
   "byteOffset": 5472,
   "target": 34963
  }
 ],
 "buffers": [
  {
   "byteLength": 5616,
   "uri": "Signal_Pedestrian.bin"
  }
 ]
}
