{
 "asset": {
  "generator": "Khronos glTF Blender I/O v5.2.40",
  "version": "2.0",
  "extras": {
   "exported_by": "blender/tools/export_building_kit.py",
   "module_scale": 1.0
  }
 },
 "scene": 0,
 "scenes": [
  {
   "name": "library",
   "nodes": [
    0
   ]
  }
 ],
 "nodes": [
  {
   "mesh": 0,
   "name": "Station_Bench"
  }
 ],
 "materials": [
  {
   "doubleSided": true,
   "name": "MI_PlasticDark",
   "pbrMetallicRoughness": {
    "baseColorFactor": [
     0.11999999731779099,
     0.11999999731779099,
     0.12999999523162842,
     1
    ],
    "metallicFactor": 0,
    "roughnessFactor": 0.6000000238418579
   }
  }
 ],
 "meshes": [
  {
   "name": "Station_Bench",
   "primitives": [
    {
     "attributes": {
      "POSITION": 0,
      "NORMAL": 1,
      "TEXCOORD_0": 2
     },
     "indices": 3,
     "material": 0
    }
   ]
  }
 ],
 "accessors": [
  {
   "bufferView": 0,
   "componentType": 5126,
   "count": 187,
   "max": [
    0.6487874984741211,
    0.8500001430511475,
    0.2606663703918457
   ],
   "min": [
    -0.6487874984741211,
    0,
    -0.2606658935546875
   ],
   "type": "VEC3"
  },
  {
   "bufferView": 1,
   "componentType": 5126,
   "count": 187,
   "type": "VEC3"
  },
  {
   "bufferView": 2,
   "componentType": 5126,
   "count": 187,
   "type": "VEC2"
  },
  {
   "bufferView": 3,
   "componentType": 5123,
   "count": 414,
   "type": "SCALAR"
  }
 ],
 "bufferViews": [
  {
   "buffer": 0,
   "byteLength": 2244,
   "byteOffset": 0,
   "target": 34962
  },
  {
   "buffer": 0,
   "byteLength": 2244,
   "byteOffset": 2244,
   "target": 34962
  },
  {
   "buffer": 0,
   "byteLength": 1496,
   "byteOffset": 4488,
   "target": 34962
  },
  {
   "buffer": 0,
   "byteLength": 828,
   "byteOffset": 5984,
   "target": 34963
  }
 ],
 "buffers": [
  {
   "byteLength": 6812,
   "uri": "Station_Bench.bin"
  }
 ]
}
