{
 "asset": {
  "generator": "Khronos glTF Blender I/O v5.2.40",
  "version": "2.0",
  "extras": {
   "exported_by": "blender/tools/export_building_kit.py",
   "module_scale": 1.0
  }
 },
 "scene": 0,
 "scenes": [
  {
   "extras": {
    "bk_kit": "quaternius_stylized_nature",
    "bk_module_scale": 1.0,
    "bk_status": "OWNER: this file is the source of the kit's pieces. Edit a piece in its collection (origin = the piece's own origin + the collection's instance_offset), then run tools/building_kit/build_buildings.sh, which exports pieces/ with blender/tools/export_building_kit.py. A moved or resized piece is refused unless ACCEPT_BOUNDS=1."
   },
   "name": "Scene",
   "nodes": [
    0
   ]
  }
 ],
 "nodes": [
  {
   "mesh": 0,
   "name": "TwistedTree_3"
  }
 ],
 "materials": [
  {
   "doubleSided": true,
   "name": "MI_Bark_TwistedTree",
   "normalTexture": {
    "index": 0
   },
   "pbrMetallicRoughness": {
    "baseColorTexture": {
     "index": 1
    },
    "metallicFactor": 0
   }
  },
  {
   "alphaCutoff": 0.20000000298023224,
   "alphaMode": "MASK",
   "doubleSided": true,
   "name": "MI_Leaves_TwistedTree",
   "pbrMetallicRoughness": {
    "baseColorTexture": {
     "index": 2
    },
    "metallicFactor": 0
   }
  }
 ],
 "meshes": [
  {
   "name": "tree.040",
   "primitives": [
    {
     "attributes": {
      "POSITION": 0,
      "NORMAL": 1,
      "TEXCOORD_0": 2,
      "COLOR_0": 3
     },
     "indices": 4,
     "material": 0
    },
    {
     "attributes": {
      "POSITION": 5,
      "NORMAL": 6,
      "TEXCOORD_0": 7,
      "COLOR_0": 8
     },
     "indices": 9,
     "material": 1
    }
   ]
  }
 ],
 "textures": [
  {
   "sampler": 0,
   "source": 0
  },
  {
   "sampler": 0,
   "source": 1
  },
  {
   "sampler": 0,
   "source": 2
  }
 ],
 "images": [
  {
   "mimeType": "image/png",
   "name": "Bark_TwistedTree_Normal",
   "uri": "../../textures/Bark_TwistedTree_Normal.png"
  },
  {
   "mimeType": "image/png",
   "name": "Bark_TwistedTree",
   "uri": "../../textures/Bark_TwistedTree.png"
  },
  {
   "mimeType": "image/png",
   "name": "Leaves_TwistedTree_C",
   "uri": "../../textures/Leaves_TwistedTree_C.png"
  }
 ],
 "accessors": [
  {
   "bufferView": 0,
   "componentType": 5126,
   "count": 10804,
   "max": [
    5.440822124481201,
    14.757431983947754,
    3.588460922241211
   ],
   "min": [
    -3.039580821990967,
    -0.20147468149662018,
    -5.2718305587768555
   ],
   "type": "VEC3"
  },
  {
   "bufferView": 1,
   "componentType": 5126,
   "count": 10804,
   "type": "VEC3"
  },
  {
   "bufferView": 2,
   "componentType": 5126,
   "count": 10804,
   "type": "VEC2"
  },
  {
   "bufferView": 3,
   "componentType": 5123,
   "count": 10804,
   "normalized": true,
   "type": "VEC4"
  },
  {
   "bufferView": 4,
   "componentType": 5123,
   "count": 22167,
   "type": "SCALAR"
  },
  {
   "bufferView": 5,
   "componentType": 5126,
   "count": 5400,
   "max": [
    6.867476463317871,
    15.871066093444824,
    4.985528945922852
   ],
   "min": [
    -4.49001932144165,
    1.901405930519104,
    -6.520090103149414
   ],
   "type": "VEC3"
  },
  {
   "bufferView": 6,
   "componentType": 5126,
   "count": 5400,
   "type": "VEC3"
  },
  {
   "bufferView": 7,
   "componentType": 5126,
   "count": 5400,
   "type": "VEC2"
  },
  {
   "bufferView": 8,
   "componentType": 5123,
   "count": 5400,
   "normalized": true,
   "type": "VEC4"
  },
  {
   "bufferView": 9,
   "componentType": 5123,
   "count": 8100,
   "type": "SCALAR"
  }
 ],
 "bufferViews": [
  {
   "buffer": 0,
   "byteLength": 129648,
   "byteOffset": 0,
   "target": 34962
  },
  {
   "buffer": 0,
   "byteLength": 129648,
   "byteOffset": 129648,
   "target": 34962
  },
  {
   "buffer": 0,
   "byteLength": 86432,
   "byteOffset": 259296,
   "target": 34962
  },
  {
   "buffer": 0,
   "byteLength": 86432,
   "byteOffset": 345728,
   "target": 34962
  },
  {
   "buffer": 0,
   "byteLength": 44334,
   "byteOffset": 432160,
   "target": 34963
  },
  {
   "buffer": 0,
   "byteLength": 64800,
   "byteOffset": 476496,
   "target": 34962
  },
  {
   "buffer": 0,
   "byteLength": 64800,
   "byteOffset": 541296,
   "target": 34962
  },
  {
   "buffer": 0,
   "byteLength": 43200,
   "byteOffset": 606096,
   "target": 34962
  },
  {
   "buffer": 0,
   "byteLength": 43200,
   "byteOffset": 649296,
   "target": 34962
  },
  {
   "buffer": 0,
   "byteLength": 16200,
   "byteOffset": 692496,
   "target": 34963
  }
 ],
 "samplers": [
  {
   "magFilter": 9729,
   "minFilter": 9987
  }
 ],
 "buffers": [
  {
   "byteLength": 708696,
   "uri": "TwistedTree_3.bin"
  }
 ]
}
