{
 "asset": {
  "generator": "Khronos glTF Blender I/O v5.2.40",
  "version": "2.0",
  "extras": {
   "exported_by": "blender/tools/export_building_kit.py",
   "module_scale": 1.0
  }
 },
 "scene": 0,
 "scenes": [
  {
   "extras": {
    "bk_kit": "quaternius_stylized_nature",
    "bk_module_scale": 1.0,
    "bk_status": "OWNER: this file is the source of the kit's pieces. Edit a piece in its collection (origin = the piece's own origin + the collection's instance_offset), then run tools/building_kit/build_buildings.sh, which exports pieces/ with blender/tools/export_building_kit.py. A moved or resized piece is refused unless ACCEPT_BOUNDS=1."
   },
   "name": "Scene",
   "nodes": [
    0
   ]
  }
 ],
 "nodes": [
  {
   "mesh": 0,
   "name": "TwistedTree_1"
  }
 ],
 "materials": [
  {
   "doubleSided": true,
   "name": "MI_Bark_TwistedTree",
   "normalTexture": {
    "index": 0
   },
   "pbrMetallicRoughness": {
    "baseColorTexture": {
     "index": 1
    },
    "metallicFactor": 0
   }
  },
  {
   "alphaCutoff": 0.20000000298023224,
   "alphaMode": "MASK",
   "doubleSided": true,
   "name": "MI_Leaves_TwistedTree",
   "pbrMetallicRoughness": {
    "baseColorTexture": {
     "index": 2
    },
    "metallicFactor": 0
   }
  }
 ],
 "meshes": [
  {
   "name": "tree.038",
   "primitives": [
    {
     "attributes": {
      "POSITION": 0,
      "NORMAL": 1,
      "TEXCOORD_0": 2,
      "COLOR_0": 3
     },
     "indices": 4,
     "material": 0
    },
    {
     "attributes": {
      "POSITION": 5,
      "NORMAL": 6,
      "TEXCOORD_0": 7,
      "COLOR_0": 8
     },
     "indices": 9,
     "material": 1
    }
   ]
  }
 ],
 "textures": [
  {
   "sampler": 0,
   "source": 0
  },
  {
   "sampler": 0,
   "source": 1
  },
  {
   "sampler": 0,
   "source": 2
  }
 ],
 "images": [
  {
   "mimeType": "image/png",
   "name": "Bark_TwistedTree_Normal",
   "uri": "../../textures/Bark_TwistedTree_Normal.png"
  },
  {
   "mimeType": "image/png",
   "name": "Bark_TwistedTree",
   "uri": "../../textures/Bark_TwistedTree.png"
  },
  {
   "mimeType": "image/png",
   "name": "Leaves_TwistedTree_C",
   "uri": "../../textures/Leaves_TwistedTree_C.png"
  }
 ],
 "accessors": [
  {
   "bufferView": 0,
   "componentType": 5126,
   "count": 10733,
   "max": [
    9.911966323852539,
    15.281858444213867,
    3.4427638053894043
   ],
   "min": [
    -1.498000979423523,
    -0.20147469639778137,
    -5.117466926574707
   ],
   "type": "VEC3"
  },
  {
   "bufferView": 1,
   "componentType": 5126,
   "count": 10733,
   "type": "VEC3"
  },
  {
   "bufferView": 2,
   "componentType": 5126,
   "count": 10733,
   "type": "VEC2"
  },
  {
   "bufferView": 3,
   "componentType": 5123,
   "count": 10733,
   "normalized": true,
   "type": "VEC4"
  },
  {
   "bufferView": 4,
   "componentType": 5123,
   "count": 21636,
   "type": "SCALAR"
  },
  {
   "bufferView": 5,
   "componentType": 5126,
   "count": 4704,
   "max": [
    11.341513633728027,
    16.52402114868164,
    4.822585105895996
   ],
   "min": [
    -2.174241065979004,
    2.4449024200439453,
    -6.726779460906982
   ],
   "type": "VEC3"
  },
  {
   "bufferView": 6,
   "componentType": 5126,
   "count": 4704,
   "type": "VEC3"
  },
  {
   "bufferView": 7,
   "componentType": 5126,
   "count": 4704,
   "type": "VEC2"
  },
  {
   "bufferView": 8,
   "componentType": 5123,
   "count": 4704,
   "normalized": true,
   "type": "VEC4"
  },
  {
   "bufferView": 9,
   "componentType": 5123,
   "count": 7056,
   "type": "SCALAR"
  }
 ],
 "bufferViews": [
  {
   "buffer": 0,
   "byteLength": 128796,
   "byteOffset": 0,
   "target": 34962
  },
  {
   "buffer": 0,
   "byteLength": 128796,
   "byteOffset": 128796,
   "target": 34962
  },
  {
   "buffer": 0,
   "byteLength": 85864,
   "byteOffset": 257592,
   "target": 34962
  },
  {
   "buffer": 0,
   "byteLength": 85864,
   "byteOffset": 343456,
   "target": 34962
  },
  {
   "buffer": 0,
   "byteLength": 43272,
   "byteOffset": 429320,
   "target": 34963
  },
  {
   "buffer": 0,
   "byteLength": 56448,
   "byteOffset": 472592,
   "target": 34962
  },
  {
   "buffer": 0,
   "byteLength": 56448,
   "byteOffset": 529040,
   "target": 34962
  },
  {
   "buffer": 0,
   "byteLength": 37632,
   "byteOffset": 585488,
   "target": 34962
  },
  {
   "buffer": 0,
   "byteLength": 37632,
   "byteOffset": 623120,
   "target": 34962
  },
  {
   "buffer": 0,
   "byteLength": 14112,
   "byteOffset": 660752,
   "target": 34963
  }
 ],
 "samplers": [
  {
   "magFilter": 9729,
   "minFilter": 9987
  }
 ],
 "buffers": [
  {
   "byteLength": 674864,
   "uri": "TwistedTree_1.bin"
  }
 ]
}
