{
 "asset": {
  "generator": "Khronos glTF Blender I/O v5.2.40",
  "version": "2.0",
  "extras": {
   "exported_by": "blender/tools/export_building_kit.py",
   "module_scale": 1.0
  }
 },
 "scene": 0,
 "scenes": [
  {
   "extras": {
    "bk_kit": "quaternius_stylized_nature",
    "bk_module_scale": 1.0,
    "bk_status": "OWNER: this file is the source of the kit's pieces. Edit a piece in its collection (origin = the piece's own origin + the collection's instance_offset), then run tools/building_kit/build_buildings.sh, which exports pieces/ with blender/tools/export_building_kit.py. A moved or resized piece is refused unless ACCEPT_BOUNDS=1."
   },
   "name": "Scene",
   "nodes": [
    0
   ]
  }
 ],
 "nodes": [
  {
   "mesh": 0,
   "name": "TwistedTree_5"
  }
 ],
 "materials": [
  {
   "doubleSided": true,
   "name": "MI_Bark_TwistedTree",
   "normalTexture": {
    "index": 0
   },
   "pbrMetallicRoughness": {
    "baseColorTexture": {
     "index": 1
    },
    "metallicFactor": 0
   }
  },
  {
   "alphaCutoff": 0.20000000298023224,
   "alphaMode": "MASK",
   "doubleSided": true,
   "name": "MI_Leaves_TwistedTree",
   "pbrMetallicRoughness": {
    "baseColorTexture": {
     "index": 2
    },
    "metallicFactor": 0
   }
  }
 ],
 "meshes": [
  {
   "name": "tree.042",
   "primitives": [
    {
     "attributes": {
      "POSITION": 0,
      "NORMAL": 1,
      "TEXCOORD_0": 2,
      "COLOR_0": 3
     },
     "indices": 4,
     "material": 0
    },
    {
     "attributes": {
      "POSITION": 5,
      "NORMAL": 6,
      "TEXCOORD_0": 7,
      "COLOR_0": 8
     },
     "indices": 9,
     "material": 1
    }
   ]
  }
 ],
 "textures": [
  {
   "sampler": 0,
   "source": 0
  },
  {
   "sampler": 0,
   "source": 1
  },
  {
   "sampler": 0,
   "source": 2
  }
 ],
 "images": [
  {
   "mimeType": "image/png",
   "name": "Bark_TwistedTree_Normal",
   "uri": "../../textures/Bark_TwistedTree_Normal.png"
  },
  {
   "mimeType": "image/png",
   "name": "Bark_TwistedTree",
   "uri": "../../textures/Bark_TwistedTree.png"
  },
  {
   "mimeType": "image/png",
   "name": "Leaves_TwistedTree_C",
   "uri": "../../textures/Leaves_TwistedTree_C.png"
  }
 ],
 "accessors": [
  {
   "bufferView": 0,
   "componentType": 5126,
   "count": 10885,
   "max": [
    4.437458515167236,
    14.353582382202148,
    1.6412839889526367
   ],
   "min": [
    -2.2728946208953857,
    -0.20147468149662018,
    -5.161355018615723
   ],
   "type": "VEC3"
  },
  {
   "bufferView": 1,
   "componentType": 5126,
   "count": 10885,
   "type": "VEC3"
  },
  {
   "bufferView": 2,
   "componentType": 5126,
   "count": 10885,
   "type": "VEC2"
  },
  {
   "bufferView": 3,
   "componentType": 5123,
   "count": 10885,
   "normalized": true,
   "type": "VEC4"
  },
  {
   "bufferView": 4,
   "componentType": 5123,
   "count": 21246,
   "type": "SCALAR"
  },
  {
   "bufferView": 5,
   "componentType": 5126,
   "count": 6044,
   "max": [
    5.748274803161621,
    15.460700988769531,
    3.0480315685272217
   ],
   "min": [
    -3.7464373111724854,
    5.0873823165893555,
    -6.338996887207031
   ],
   "type": "VEC3"
  },
  {
   "bufferView": 6,
   "componentType": 5126,
   "count": 6044,
   "type": "VEC3"
  },
  {
   "bufferView": 7,
   "componentType": 5126,
   "count": 6044,
   "type": "VEC2"
  },
  {
   "bufferView": 8,
   "componentType": 5123,
   "count": 6044,
   "normalized": true,
   "type": "VEC4"
  },
  {
   "bufferView": 9,
   "componentType": 5123,
   "count": 9066,
   "type": "SCALAR"
  }
 ],
 "bufferViews": [
  {
   "buffer": 0,
   "byteLength": 130620,
   "byteOffset": 0,
   "target": 34962
  },
  {
   "buffer": 0,
   "byteLength": 130620,
   "byteOffset": 130620,
   "target": 34962
  },
  {
   "buffer": 0,
   "byteLength": 87080,
   "byteOffset": 261240,
   "target": 34962
  },
  {
   "buffer": 0,
   "byteLength": 87080,
   "byteOffset": 348320,
   "target": 34962
  },
  {
   "buffer": 0,
   "byteLength": 42492,
   "byteOffset": 435400,
   "target": 34963
  },
  {
   "buffer": 0,
   "byteLength": 72528,
   "byteOffset": 477892,
   "target": 34962
  },
  {
   "buffer": 0,
   "byteLength": 72528,
   "byteOffset": 550420,
   "target": 34962
  },
  {
   "buffer": 0,
   "byteLength": 48352,
   "byteOffset": 622948,
   "target": 34962
  },
  {
   "buffer": 0,
   "byteLength": 48352,
   "byteOffset": 671300,
   "target": 34962
  },
  {
   "buffer": 0,
   "byteLength": 18132,
   "byteOffset": 719652,
   "target": 34963
  }
 ],
 "samplers": [
  {
   "magFilter": 9729,
   "minFilter": 9987
  }
 ],
 "buffers": [
  {
   "byteLength": 737784,
   "uri": "TwistedTree_5.bin"
  }
 ]
}
