{
 "asset": {
  "generator": "Khronos glTF Blender I/O v5.2.40",
  "version": "2.0",
  "extras": {
   "exported_by": "blender/tools/export_building_kit.py",
   "module_scale": 1.0
  }
 },
 "extensionsUsed": [
  "KHR_materials_emissive_strength"
 ],
 "scene": 0,
 "scenes": [
  {
   "name": "SafeHouseCitySmall",
   "nodes": [
    0,
    1,
    2,
    3,
    4,
    5,
    6,
    7,
    8,
    9,
    10,
    11,
    12,
    13,
    14,
    15,
    16,
    17,
    18,
    19,
    20,
    21,
    22,
    23,
    24,
    25
   ]
  }
 ],
 "nodes": [
  {
   "extras": {
    "edit_note": "A mission building (blender/tools/build_interior_blends.py, seed blender/tools/interior_plans.py): a PLACEHOLDER shell and fit-out at its real Japanese size -- remodel freely. Keep the frame (origin = plot centre on the ground, street -Y), the floor levels, and move the Empties with what they belong to: DOOR_ (interior door, arrow OUT of the room), EXIT_ (outer door, arrow out of the building), LIFT_ (a lift: shaft floor centre at the low stop; stops / faces), MARK_ (a mission marker: kind weapon / spawn / cover ...). Keep 1.2 m clear both sides of every door. After editing: tools/building_kit/build_buildings.sh. \u96a0\u308c\u5bb6 (city, small): a three-storey \u72ed\u5c0f\u4f4f\u5b85 on a 3 x 5 \u9593 lot -- a built-in garage for a kei car and the workroom with a gun locker on F1, genkan with the agarikamachi step; the LDK on F2 (bathrooms go upstairs in a townhouse), the bedroom, bath and the stash on F3."
   },
   "mesh": 0,
   "name": "Facade"
  },
  {
   "extras": {
    "edit_note": "A mission building (blender/tools/build_interior_blends.py, seed blender/tools/interior_plans.py): a PLACEHOLDER shell and fit-out at its real Japanese size -- remodel freely. Keep the frame (origin = plot centre on the ground, street -Y), the floor levels, and move the Empties with what they belong to: DOOR_ (interior door, arrow OUT of the room), EXIT_ (outer door, arrow out of the building), LIFT_ (a lift: shaft floor centre at the low stop; stops / faces), MARK_ (a mission marker: kind weapon / spawn / cover ...). Keep 1.2 m clear both sides of every door. After editing: tools/building_kit/build_buildings.sh. \u96a0\u308c\u5bb6 (city, small): a three-storey \u72ed\u5c0f\u4f4f\u5b85 on a 3 x 5 \u9593 lot -- a built-in garage for a kei car and the workroom with a gun locker on F1, genkan with the agarikamachi step; the LDK on F2 (bathrooms go upstairs in a townhouse), the bedroom, bath and the stash on F3."
   },
   "mesh": 1,
   "name": "Furniture"
  },
  {
   "extras": {
    "edit_note": "A mission building (blender/tools/build_interior_blends.py, seed blender/tools/interior_plans.py): a PLACEHOLDER shell and fit-out at its real Japanese size -- remodel freely. Keep the frame (origin = plot centre on the ground, street -Y), the floor levels, and move the Empties with what they belong to: DOOR_ (interior door, arrow OUT of the room), EXIT_ (outer door, arrow out of the building), LIFT_ (a lift: shaft floor centre at the low stop; stops / faces), MARK_ (a mission marker: kind weapon / spawn / cover ...). Keep 1.2 m clear both sides of every door. After editing: tools/building_kit/build_buildings.sh. \u96a0\u308c\u5bb6 (city, small): a three-storey \u72ed\u5c0f\u4f4f\u5b85 on a 3 x 5 \u9593 lot -- a built-in garage for a kei car and the workroom with a gun locker on F1, genkan with the agarikamachi step; the LDK on F2 (bathrooms go upstairs in a townhouse), the bedroom, bath and the stash on F3."
   },
   "mesh": 2,
   "name": "Glazing"
  },
  {
   "extras": {
    "edit_note": "A mission building (blender/tools/build_interior_blends.py, seed blender/tools/interior_plans.py): a PLACEHOLDER shell and fit-out at its real Japanese size -- remodel freely. Keep the frame (origin = plot centre on the ground, street -Y), the floor levels, and move the Empties with what they belong to: DOOR_ (interior door, arrow OUT of the room), EXIT_ (outer door, arrow out of the building), LIFT_ (a lift: shaft floor centre at the low stop; stops / faces), MARK_ (a mission marker: kind weapon / spawn / cover ...). Keep 1.2 m clear both sides of every door. After editing: tools/building_kit/build_buildings.sh. \u96a0\u308c\u5bb6 (city, small): a three-storey \u72ed\u5c0f\u4f4f\u5b85 on a 3 x 5 \u9593 lot -- a built-in garage for a kei car and the workroom with a gun locker on F1, genkan with the agarikamachi step; the LDK on F2 (bathrooms go upstairs in a townhouse), the bedroom, bath and the stash on F3."
   },
   "mesh": 3,
   "name": "Hotel_Bed",
   "rotation": [
    0,
    0.7071068286895752,
    0,
    0.7071068286895752
   ],
   "translation": [
    -1.5499999523162842,
    5.900000095367432,
    3.3499999046325684
   ]
  },
  {
   "extras": {
    "edit_note": "A mission building (blender/tools/build_interior_blends.py, seed blender/tools/interior_plans.py): a PLACEHOLDER shell and fit-out at its real Japanese size -- remodel freely. Keep the frame (origin = plot centre on the ground, street -Y), the floor levels, and move the Empties with what they belong to: DOOR_ (interior door, arrow OUT of the room), EXIT_ (outer door, arrow out of the building), LIFT_ (a lift: shaft floor centre at the low stop; stops / faces), MARK_ (a mission marker: kind weapon / spawn / cover ...). Keep 1.2 m clear both sides of every door. After editing: tools/building_kit/build_buildings.sh. \u96a0\u308c\u5bb6 (city, small): a three-storey \u72ed\u5c0f\u4f4f\u5b85 on a 3 x 5 \u9593 lot -- a built-in garage for a kei car and the workroom with a gun locker on F1, genkan with the agarikamachi step; the LDK on F2 (bathrooms go upstairs in a townhouse), the bedroom, bath and the stash on F3."
   },
   "mesh": 4,
   "name": "Hotel_Tub",
   "translation": [
    -1.4149999618530273,
    5.900000095367432,
    -3.9000000953674316
   ]
  },
  {
   "extras": {
    "edit_note": "A mission building (blender/tools/build_interior_blends.py, seed blender/tools/interior_plans.py): a PLACEHOLDER shell and fit-out at its real Japanese size -- remodel freely. Keep the frame (origin = plot centre on the ground, street -Y), the floor levels, and move the Empties with what they belong to: DOOR_ (interior door, arrow OUT of the room), EXIT_ (outer door, arrow out of the building), LIFT_ (a lift: shaft floor centre at the low stop; stops / faces), MARK_ (a mission marker: kind weapon / spawn / cover ...). Keep 1.2 m clear both sides of every door. After editing: tools/building_kit/build_buildings.sh. \u96a0\u308c\u5bb6 (city, small): a three-storey \u72ed\u5c0f\u4f4f\u5b85 on a 3 x 5 \u9593 lot -- a built-in garage for a kei car and the workroom with a gun locker on F1, genkan with the agarikamachi step; the LDK on F2 (bathrooms go upstairs in a townhouse), the bedroom, bath and the stash on F3."
   },
   "mesh": 5,
   "name": "Kitchen_Fridge",
   "rotation": [
    0,
    -1,
    0,
    4.371138828673793e-08
   ],
   "translation": [
    0.05000000074505806,
    3.0999999046325684,
    -3.950000047683716
   ]
  },
  {
   "extras": {
    "edit_note": "A mission building (blender/tools/build_interior_blends.py, seed blender/tools/interior_plans.py): a PLACEHOLDER shell and fit-out at its real Japanese size -- remodel freely. Keep the frame (origin = plot centre on the ground, street -Y), the floor levels, and move the Empties with what they belong to: DOOR_ (interior door, arrow OUT of the room), EXIT_ (outer door, arrow out of the building), LIFT_ (a lift: shaft floor centre at the low stop; stops / faces), MARK_ (a mission marker: kind weapon / spawn / cover ...). Keep 1.2 m clear both sides of every door. After editing: tools/building_kit/build_buildings.sh. \u96a0\u308c\u5bb6 (city, small): a three-storey \u72ed\u5c0f\u4f4f\u5b85 on a 3 x 5 \u9593 lot -- a built-in garage for a kei car and the workroom with a gun locker on F1, genkan with the agarikamachi step; the LDK on F2 (bathrooms go upstairs in a townhouse), the bedroom, bath and the stash on F3."
   },
   "mesh": 6,
   "name": "Office_Chair",
   "rotation": [
    0,
    -0.7071068286895752,
    0,
    0.7071068286895752
   ],
   "translation": [
    -1.7000000476837158,
    0,
    -2.5999999046325684
   ]
  },
  {
   "extras": {
    "edit_note": "A mission building (blender/tools/build_interior_blends.py, seed blender/tools/interior_plans.py): a PLACEHOLDER shell and fit-out at its real Japanese size -- remodel freely. Keep the frame (origin = plot centre on the ground, street -Y), the floor levels, and move the Empties with what they belong to: DOOR_ (interior door, arrow OUT of the room), EXIT_ (outer door, arrow out of the building), LIFT_ (a lift: shaft floor centre at the low stop; stops / faces), MARK_ (a mission marker: kind weapon / spawn / cover ...). Keep 1.2 m clear both sides of every door. After editing: tools/building_kit/build_buildings.sh. \u96a0\u308c\u5bb6 (city, small): a three-storey \u72ed\u5c0f\u4f4f\u5b85 on a 3 x 5 \u9593 lot -- a built-in garage for a kei car and the workroom with a gun locker on F1, genkan with the agarikamachi step; the LDK on F2 (bathrooms go upstairs in a townhouse), the bedroom, bath and the stash on F3."
   },
   "mesh": 7,
   "name": "Office_Desk",
   "rotation": [
    0,
    0.7071068286895752,
    0,
    0.7071068286895752
   ],
   "translation": [
    -2.3499999046325684,
    0,
    -2.5999999046325684
   ]
  },
  {
   "extras": {
    "edit_note": "A mission building (blender/tools/build_interior_blends.py, seed blender/tools/interior_plans.py): a PLACEHOLDER shell and fit-out at its real Japanese size -- remodel freely. Keep the frame (origin = plot centre on the ground, street -Y), the floor levels, and move the Empties with what they belong to: DOOR_ (interior door, arrow OUT of the room), EXIT_ (outer door, arrow out of the building), LIFT_ (a lift: shaft floor centre at the low stop; stops / faces), MARK_ (a mission marker: kind weapon / spawn / cover ...). Keep 1.2 m clear both sides of every door. After editing: tools/building_kit/build_buildings.sh. \u96a0\u308c\u5bb6 (city, small): a three-storey \u72ed\u5c0f\u4f4f\u5b85 on a 3 x 5 \u9593 lot -- a built-in garage for a kei car and the workroom with a gun locker on F1, genkan with the agarikamachi step; the LDK on F2 (bathrooms go upstairs in a townhouse), the bedroom, bath and the stash on F3."
   },
   "mesh": 8,
   "name": "Office_Safe",
   "translation": [
    1.2000000476837158,
    5.900000095367432,
    -4.050000190734863
   ]
  },
  {
   "extras": {
    "edit_note": "A mission building (blender/tools/build_interior_blends.py, seed blender/tools/interior_plans.py): a PLACEHOLDER shell and fit-out at its real Japanese size -- remodel freely. Keep the frame (origin = plot centre on the ground, street -Y), the floor levels, and move the Empties with what they belong to: DOOR_ (interior door, arrow OUT of the room), EXIT_ (outer door, arrow out of the building), LIFT_ (a lift: shaft floor centre at the low stop; stops / faces), MARK_ (a mission marker: kind weapon / spawn / cover ...). Keep 1.2 m clear both sides of every door. After editing: tools/building_kit/build_buildings.sh. \u96a0\u308c\u5bb6 (city, small): a three-storey \u72ed\u5c0f\u4f4f\u5b85 on a 3 x 5 \u9593 lot -- a built-in garage for a kei car and the workroom with a gun locker on F1, genkan with the agarikamachi step; the LDK on F2 (bathrooms go upstairs in a townhouse), the bedroom, bath and the stash on F3."
   },
   "mesh": 9,
   "name": "Office_Sofa",
   "translation": [
    -1.399999976158142,
    3.0999999046325684,
    3.5999999046325684
   ]
  },
  {
   "extras": {
    "edit_note": "A mission building (blender/tools/build_interior_blends.py, seed blender/tools/interior_plans.py): a PLACEHOLDER shell and fit-out at its real Japanese size -- remodel freely. Keep the frame (origin = plot centre on the ground, street -Y), the floor levels, and move the Empties with what they belong to: DOOR_ (interior door, arrow OUT of the room), EXIT_ (outer door, arrow out of the building), LIFT_ (a lift: shaft floor centre at the low stop; stops / faces), MARK_ (a mission marker: kind weapon / spawn / cover ...). Keep 1.2 m clear both sides of every door. After editing: tools/building_kit/build_buildings.sh. \u96a0\u308c\u5bb6 (city, small): a three-storey \u72ed\u5c0f\u4f4f\u5b85 on a 3 x 5 \u9593 lot -- a built-in garage for a kei car and the workroom with a gun locker on F1, genkan with the agarikamachi step; the LDK on F2 (bathrooms go upstairs in a townhouse), the bedroom, bath and the stash on F3."
   },
   "mesh": 10,
   "name": "Police_GunLocker",
   "rotation": [
    0,
    0.7071068286895752,
    0,
    0.7071068286895752
   ],
   "translation": [
    -2.450000047683716,
    0,
    -1
   ]
  },
  {
   "extras": {
    "edit_note": "A mission building (blender/tools/build_interior_blends.py, seed blender/tools/interior_plans.py): a PLACEHOLDER shell and fit-out at its real Japanese size -- remodel freely. Keep the frame (origin = plot centre on the ground, street -Y), the floor levels, and move the Empties with what they belong to: DOOR_ (interior door, arrow OUT of the room), EXIT_ (outer door, arrow out of the building), LIFT_ (a lift: shaft floor centre at the low stop; stops / faces), MARK_ (a mission marker: kind weapon / spawn / cover ...). Keep 1.2 m clear both sides of every door. After editing: tools/building_kit/build_buildings.sh. \u96a0\u308c\u5bb6 (city, small): a three-storey \u72ed\u5c0f\u4f4f\u5b85 on a 3 x 5 \u9593 lot -- a built-in garage for a kei car and the workroom with a gun locker on F1, genkan with the agarikamachi step; the LDK on F2 (bathrooms go upstairs in a townhouse), the bedroom, bath and the stash on F3."
   },
   "mesh": 11,
   "name": "Rest_Chair",
   "translation": [
    -1.5499999523162842,
    3.0999999046325684,
    -0.25
   ]
  },
  {
   "extras": {
    "edit_note": "A mission building (blender/tools/build_interior_blends.py, seed blender/tools/interior_plans.py): a PLACEHOLDER shell and fit-out at its real Japanese size -- remodel freely. Keep the frame (origin = plot centre on the ground, street -Y), the floor levels, and move the Empties with what they belong to: DOOR_ (interior door, arrow OUT of the room), EXIT_ (outer door, arrow out of the building), LIFT_ (a lift: shaft floor centre at the low stop; stops / faces), MARK_ (a mission marker: kind weapon / spawn / cover ...). Keep 1.2 m clear both sides of every door. After editing: tools/building_kit/build_buildings.sh. \u96a0\u308c\u5bb6 (city, small): a three-storey \u72ed\u5c0f\u4f4f\u5b85 on a 3 x 5 \u9593 lot -- a built-in garage for a kei car and the workroom with a gun locker on F1, genkan with the agarikamachi step; the LDK on F2 (bathrooms go upstairs in a townhouse), the bedroom, bath and the stash on F3."
   },
   "mesh": 11,
   "name": "Rest_Chair.001",
   "translation": [
    -0.8500000238418579,
    3.0999999046325684,
    -0.25
   ]
  },
  {
   "extras": {
    "edit_note": "A mission building (blender/tools/build_interior_blends.py, seed blender/tools/interior_plans.py): a PLACEHOLDER shell and fit-out at its real Japanese size -- remodel freely. Keep the frame (origin = plot centre on the ground, street -Y), the floor levels, and move the Empties with what they belong to: DOOR_ (interior door, arrow OUT of the room), EXIT_ (outer door, arrow out of the building), LIFT_ (a lift: shaft floor centre at the low stop; stops / faces), MARK_ (a mission marker: kind weapon / spawn / cover ...). Keep 1.2 m clear both sides of every door. After editing: tools/building_kit/build_buildings.sh. \u96a0\u308c\u5bb6 (city, small): a three-storey \u72ed\u5c0f\u4f4f\u5b85 on a 3 x 5 \u9593 lot -- a built-in garage for a kei car and the workroom with a gun locker on F1, genkan with the agarikamachi step; the LDK on F2 (bathrooms go upstairs in a townhouse), the bedroom, bath and the stash on F3."
   },
   "mesh": 12,
   "name": "Rest_Table",
   "translation": [
    -1.2000000476837158,
    3.0999999046325684,
    -1
   ]
  },
  {
   "extras": {
    "edit_note": "A mission building (blender/tools/build_interior_blends.py, seed blender/tools/interior_plans.py): a PLACEHOLDER shell and fit-out at its real Japanese size -- remodel freely. Keep the frame (origin = plot centre on the ground, street -Y), the floor levels, and move the Empties with what they belong to: DOOR_ (interior door, arrow OUT of the room), EXIT_ (outer door, arrow out of the building), LIFT_ (a lift: shaft floor centre at the low stop; stops / faces), MARK_ (a mission marker: kind weapon / spawn / cover ...). Keep 1.2 m clear both sides of every door. After editing: tools/building_kit/build_buildings.sh. \u96a0\u308c\u5bb6 (city, small): a three-storey \u72ed\u5c0f\u4f4f\u5b85 on a 3 x 5 \u9593 lot -- a built-in garage for a kei car and the workroom with a gun locker on F1, genkan with the agarikamachi step; the LDK on F2 (bathrooms go upstairs in a townhouse), the bedroom, bath and the stash on F3."
   },
   "mesh": 13,
   "name": "Roof"
  },
  {
   "extras": {
    "edit_note": "A mission building (blender/tools/build_interior_blends.py, seed blender/tools/interior_plans.py): a PLACEHOLDER shell and fit-out at its real Japanese size -- remodel freely. Keep the frame (origin = plot centre on the ground, street -Y), the floor levels, and move the Empties with what they belong to: DOOR_ (interior door, arrow OUT of the room), EXIT_ (outer door, arrow out of the building), LIFT_ (a lift: shaft floor centre at the low stop; stops / faces), MARK_ (a mission marker: kind weapon / spawn / cover ...). Keep 1.2 m clear both sides of every door. After editing: tools/building_kit/build_buildings.sh. \u96a0\u308c\u5bb6 (city, small): a three-storey \u72ed\u5c0f\u4f4f\u5b85 on a 3 x 5 \u9593 lot -- a built-in garage for a kei car and the workroom with a gun locker on F1, genkan with the agarikamachi step; the LDK on F2 (bathrooms go upstairs in a townhouse), the bedroom, bath and the stash on F3."
   },
   "mesh": 14,
   "name": "Shop_StockShelf",
   "rotation": [
    0,
    -0.7071068286895752,
    0,
    0.7071068286895752
   ],
   "translation": [
    2.200000047683716,
    5.900000095367432,
    -3.299999952316284
   ]
  },
  {
   "extras": {
    "edit_note": "A mission building (blender/tools/build_interior_blends.py, seed blender/tools/interior_plans.py): a PLACEHOLDER shell and fit-out at its real Japanese size -- remodel freely. Keep the frame (origin = plot centre on the ground, street -Y), the floor levels, and move the Empties with what they belong to: DOOR_ (interior door, arrow OUT of the room), EXIT_ (outer door, arrow out of the building), LIFT_ (a lift: shaft floor centre at the low stop; stops / faces), MARK_ (a mission marker: kind weapon / spawn / cover ...). Keep 1.2 m clear both sides of every door. After editing: tools/building_kit/build_buildings.sh. \u96a0\u308c\u5bb6 (city, small): a three-storey \u72ed\u5c0f\u4f4f\u5b85 on a 3 x 5 \u9593 lot -- a built-in garage for a kei car and the workroom with a gun locker on F1, genkan with the agarikamachi step; the LDK on F2 (bathrooms go upstairs in a townhouse), the bedroom, bath and the stash on F3."
   },
   "mesh": 15,
   "name": "Site"
  },
  {
   "extras": {
    "edit_note": "A mission building (blender/tools/build_interior_blends.py, seed blender/tools/interior_plans.py): a PLACEHOLDER shell and fit-out at its real Japanese size -- remodel freely. Keep the frame (origin = plot centre on the ground, street -Y), the floor levels, and move the Empties with what they belong to: DOOR_ (interior door, arrow OUT of the room), EXIT_ (outer door, arrow out of the building), LIFT_ (a lift: shaft floor centre at the low stop; stops / faces), MARK_ (a mission marker: kind weapon / spawn / cover ...). Keep 1.2 m clear both sides of every door. After editing: tools/building_kit/build_buildings.sh. \u96a0\u308c\u5bb6 (city, small): a three-storey \u72ed\u5c0f\u4f4f\u5b85 on a 3 x 5 \u9593 lot -- a built-in garage for a kei car and the workroom with a gun locker on F1, genkan with the agarikamachi step; the LDK on F2 (bathrooms go upstairs in a townhouse), the bedroom, bath and the stash on F3."
   },
   "mesh": 16,
   "name": "Stairs"
  },
  {
   "extras": {
    "edit_note": "A mission building (blender/tools/build_interior_blends.py, seed blender/tools/interior_plans.py): a PLACEHOLDER shell and fit-out at its real Japanese size -- remodel freely. Keep the frame (origin = plot centre on the ground, street -Y), the floor levels, and move the Empties with what they belong to: DOOR_ (interior door, arrow OUT of the room), EXIT_ (outer door, arrow out of the building), LIFT_ (a lift: shaft floor centre at the low stop; stops / faces), MARK_ (a mission marker: kind weapon / spawn / cover ...). Keep 1.2 m clear both sides of every door. After editing: tools/building_kit/build_buildings.sh. \u96a0\u308c\u5bb6 (city, small): a three-storey \u72ed\u5c0f\u4f4f\u5b85 on a 3 x 5 \u9593 lot -- a built-in garage for a kei car and the workroom with a gun locker on F1, genkan with the agarikamachi step; the LDK on F2 (bathrooms go upstairs in a townhouse), the bedroom, bath and the stash on F3."
   },
   "mesh": 17,
   "name": "Structure"
  },
  {
   "extras": {
    "edit_note": "A mission building (blender/tools/build_interior_blends.py, seed blender/tools/interior_plans.py): a PLACEHOLDER shell and fit-out at its real Japanese size -- remodel freely. Keep the frame (origin = plot centre on the ground, street -Y), the floor levels, and move the Empties with what they belong to: DOOR_ (interior door, arrow OUT of the room), EXIT_ (outer door, arrow out of the building), LIFT_ (a lift: shaft floor centre at the low stop; stops / faces), MARK_ (a mission marker: kind weapon / spawn / cover ...). Keep 1.2 m clear both sides of every door. After editing: tools/building_kit/build_buildings.sh. \u96a0\u308c\u5bb6 (city, small): a three-storey \u72ed\u5c0f\u4f4f\u5b85 on a 3 x 5 \u9593 lot -- a built-in garage for a kei car and the workroom with a gun locker on F1, genkan with the agarikamachi step; the LDK on F2 (bathrooms go upstairs in a townhouse), the bedroom, bath and the stash on F3."
   },
   "mesh": 18,
   "name": "Walls_0"
  },
  {
   "extras": {
    "edit_note": "A mission building (blender/tools/build_interior_blends.py, seed blender/tools/interior_plans.py): a PLACEHOLDER shell and fit-out at its real Japanese size -- remodel freely. Keep the frame (origin = plot centre on the ground, street -Y), the floor levels, and move the Empties with what they belong to: DOOR_ (interior door, arrow OUT of the room), EXIT_ (outer door, arrow out of the building), LIFT_ (a lift: shaft floor centre at the low stop; stops / faces), MARK_ (a mission marker: kind weapon / spawn / cover ...). Keep 1.2 m clear both sides of every door. After editing: tools/building_kit/build_buildings.sh. \u96a0\u308c\u5bb6 (city, small): a three-storey \u72ed\u5c0f\u4f4f\u5b85 on a 3 x 5 \u9593 lot -- a built-in garage for a kei car and the workroom with a gun locker on F1, genkan with the agarikamachi step; the LDK on F2 (bathrooms go upstairs in a townhouse), the bedroom, bath and the stash on F3."
   },
   "mesh": 19,
   "name": "Walls_3.1"
  },
  {
   "extras": {
    "edit_note": "A mission building (blender/tools/build_interior_blends.py, seed blender/tools/interior_plans.py): a PLACEHOLDER shell and fit-out at its real Japanese size -- remodel freely. Keep the frame (origin = plot centre on the ground, street -Y), the floor levels, and move the Empties with what they belong to: DOOR_ (interior door, arrow OUT of the room), EXIT_ (outer door, arrow out of the building), LIFT_ (a lift: shaft floor centre at the low stop; stops / faces), MARK_ (a mission marker: kind weapon / spawn / cover ...). Keep 1.2 m clear both sides of every door. After editing: tools/building_kit/build_buildings.sh. \u96a0\u308c\u5bb6 (city, small): a three-storey \u72ed\u5c0f\u4f4f\u5b85 on a 3 x 5 \u9593 lot -- a built-in garage for a kei car and the workroom with a gun locker on F1, genkan with the agarikamachi step; the LDK on F2 (bathrooms go upstairs in a townhouse), the bedroom, bath and the stash on F3."
   },
   "mesh": 20,
   "name": "Walls_5.9"
  },
  {
   "extras": {
    "edit_note": "A mission building (blender/tools/build_interior_blends.py, seed blender/tools/interior_plans.py): a PLACEHOLDER shell and fit-out at its real Japanese size -- remodel freely. Keep the frame (origin = plot centre on the ground, street -Y), the floor levels, and move the Empties with what they belong to: DOOR_ (interior door, arrow OUT of the room), EXIT_ (outer door, arrow out of the building), LIFT_ (a lift: shaft floor centre at the low stop; stops / faces), MARK_ (a mission marker: kind weapon / spawn / cover ...). Keep 1.2 m clear both sides of every door. After editing: tools/building_kit/build_buildings.sh. \u96a0\u308c\u5bb6 (city, small): a three-storey \u72ed\u5c0f\u4f4f\u5b85 on a 3 x 5 \u9593 lot -- a built-in garage for a kei car and the workroom with a gun locker on F1, genkan with the agarikamachi step; the LDK on F2 (bathrooms go upstairs in a townhouse), the bedroom, bath and the stash on F3."
   },
   "mesh": 21,
   "name": "WC_Basin",
   "rotation": [
    0,
    -1,
    0,
    4.371138828673793e-08
   ],
   "translation": [
    1.2999999523162842,
    3.0999999046325684,
    -4.099999904632568
   ]
  },
  {
   "extras": {
    "edit_note": "A mission building (blender/tools/build_interior_blends.py, seed blender/tools/interior_plans.py): a PLACEHOLDER shell and fit-out at its real Japanese size -- remodel freely. Keep the frame (origin = plot centre on the ground, street -Y), the floor levels, and move the Empties with what they belong to: DOOR_ (interior door, arrow OUT of the room), EXIT_ (outer door, arrow out of the building), LIFT_ (a lift: shaft floor centre at the low stop; stops / faces), MARK_ (a mission marker: kind weapon / spawn / cover ...). Keep 1.2 m clear both sides of every door. After editing: tools/building_kit/build_buildings.sh. \u96a0\u308c\u5bb6 (city, small): a three-storey \u72ed\u5c0f\u4f4f\u5b85 on a 3 x 5 \u9593 lot -- a built-in garage for a kei car and the workroom with a gun locker on F1, genkan with the agarikamachi step; the LDK on F2 (bathrooms go upstairs in a townhouse), the bedroom, bath and the stash on F3."
   },
   "mesh": 21,
   "name": "WC_Basin.001",
   "rotation": [
    0,
    0.7071068286895752,
    0,
    0.7071068286895752
   ],
   "translation": [
    -2.299999952316284,
    5.900000095367432,
    -1
   ]
  },
  {
   "extras": {
    "edit_note": "A mission building (blender/tools/build_interior_blends.py, seed blender/tools/interior_plans.py): a PLACEHOLDER shell and fit-out at its real Japanese size -- remodel freely. Keep the frame (origin = plot centre on the ground, street -Y), the floor levels, and move the Empties with what they belong to: DOOR_ (interior door, arrow OUT of the room), EXIT_ (outer door, arrow out of the building), LIFT_ (a lift: shaft floor centre at the low stop; stops / faces), MARK_ (a mission marker: kind weapon / spawn / cover ...). Keep 1.2 m clear both sides of every door. After editing: tools/building_kit/build_buildings.sh. \u96a0\u308c\u5bb6 (city, small): a three-storey \u72ed\u5c0f\u4f4f\u5b85 on a 3 x 5 \u9593 lot -- a built-in garage for a kei car and the workroom with a gun locker on F1, genkan with the agarikamachi step; the LDK on F2 (bathrooms go upstairs in a townhouse), the bedroom, bath and the stash on F3."
   },
   "mesh": 22,
   "name": "WC_Toilet",
   "rotation": [
    0,
    -0.7071068286895752,
    0,
    0.7071068286895752
   ],
   "translation": [
    2.1500000953674316,
    0,
    -3.299999952316284
   ]
  },
  {
   "extras": {
    "edit_note": "A mission building (blender/tools/build_interior_blends.py, seed blender/tools/interior_plans.py): a PLACEHOLDER shell and fit-out at its real Japanese size -- remodel freely. Keep the frame (origin = plot centre on the ground, street -Y), the floor levels, and move the Empties with what they belong to: DOOR_ (interior door, arrow OUT of the room), EXIT_ (outer door, arrow out of the building), LIFT_ (a lift: shaft floor centre at the low stop; stops / faces), MARK_ (a mission marker: kind weapon / spawn / cover ...). Keep 1.2 m clear both sides of every door. After editing: tools/building_kit/build_buildings.sh. \u96a0\u308c\u5bb6 (city, small): a three-storey \u72ed\u5c0f\u4f4f\u5b85 on a 3 x 5 \u9593 lot -- a built-in garage for a kei car and the workroom with a gun locker on F1, genkan with the agarikamachi step; the LDK on F2 (bathrooms go upstairs in a townhouse), the bedroom, bath and the stash on F3."
   },
   "mesh": 22,
   "name": "WC_Toilet.001",
   "rotation": [
    0,
    -0.7071068286895752,
    0,
    0.7071068286895752
   ],
   "translation": [
    2.1500000953674316,
    3.0999999046325684,
    -3.5999999046325684
   ]
  }
 ],
 "materials": [
  {
   "doubleSided": true,
   "name": "MI_PaintedMetalDark",
   "pbrMetallicRoughness": {
    "baseColorFactor": [
     0.1599999964237213,
     0.17000000178813934,
     0.18000000715255737,
     1
    ],
    "metallicFactor": 0.4000000059604645,
    "roughnessFactor": 0.699999988079071
   }
  },
  {
   "doubleSided": true,
   "name": "MI_Plaster",
   "pbrMetallicRoughness": {
    "baseColorFactor": [
     0.8999999761581421,
     0.8899999856948853,
     0.8600000143051147,
     1
    ],
    "metallicFactor": 0,
    "roughnessFactor": 0.699999988079071
   }
  },
  {
   "doubleSided": true,
   "name": "MI_TileWhite",
   "pbrMetallicRoughness": {
    "baseColorFactor": [
     0.8136419057846069,
     0.8136419057846069,
     0.8136419057846069,
     1
    ],
    "metallicFactor": 0,
    "roughnessFactor": 0.699999988079071
   }
  },
  {
   "doubleSided": true,
   "name": "MI_Steel",
   "pbrMetallicRoughness": {
    "baseColorFactor": [
     0.5726980566978455,
     0.5820889472961426,
     0.5955169796943665,
     1
    ],
    "roughnessFactor": 0.699999988079071
   }
  },
  {
   "doubleSided": true,
   "name": "MI_Wood",
   "pbrMetallicRoughness": {
    "baseColorFactor": [
     0.6217582821846008,
     0.4432729184627533,
     0.2785278260707855,
     1
    ],
    "metallicFactor": 0,
    "roughnessFactor": 0.699999988079071
   }
  },
  {
   "doubleSided": true,
   "name": "MI_PlasticWhite",
   "pbrMetallicRoughness": {
    "baseColorFactor": [
     0.9300000071525574,
     0.9300000071525574,
     0.9100000262260437,
     1
    ],
    "metallicFactor": 0,
    "roughnessFactor": 0.30000001192092896
   }
  },
  {
   "doubleSided": true,
   "name": "MI_PaintedMetal",
   "pbrMetallicRoughness": {
    "baseColorFactor": [
     0.8999999761581421,
     0.8999999761581421,
     0.8899999856948853,
     1
    ],
    "metallicFactor": 0.30000001192092896,
    "roughnessFactor": 0.699999988079071
   }
  },
  {
   "doubleSided": true,
   "name": "MI_GlassClear",
   "pbrMetallicRoughness": {
    "baseColorFactor": [
     0.550000011920929,
     0.6800000071525574,
     0.7200000286102295,
     1
    ],
    "metallicFactor": 0.20000000298023224,
    "roughnessFactor": 0.05000000074505806
   }
  },
  {
   "doubleSided": true,
   "name": "MI_PaintWhite",
   "pbrMetallicRoughness": {
    "baseColorFactor": [
     0.949999988079071,
     0.949999988079071,
     0.9300000071525574,
     1
    ],
    "metallicFactor": 0,
    "roughnessFactor": 0.699999988079071
   }
  },
  {
   "doubleSided": true,
   "name": "MI_PoolWater",
   "pbrMetallicRoughness": {
    "baseColorFactor": [
     0.2199999988079071,
     0.6200000047683716,
     0.7799999713897705,
     1
    ],
    "metallicFactor": 0.10000000149011612,
    "roughnessFactor": 0.05000000074505806
   }
  },
  {
   "doubleSided": true,
   "emissiveFactor": [
    1,
    0.9800000190734863,
    0.9399999976158142
   ],
   "extensions": {
    "KHR_materials_emissive_strength": {
     "emissiveStrength": 2
    }
   },
   "name": "MI_Light",
   "pbrMetallicRoughness": {
    "baseColorFactor": [
     1,
     1,
     0.9700000286102295,
     1
    ],
    "metallicFactor": 0,
    "roughnessFactor": 0.699999988079071
   }
  },
  {
   "doubleSided": true,
   "name": "MI_PlasticDark",
   "pbrMetallicRoughness": {
    "baseColorFactor": [
     0.11999999731779099,
     0.11999999731779099,
     0.12999999523162842,
     1
    ],
    "metallicFactor": 0,
    "roughnessFactor": 0.6000000238418579
   }
  },
  {
   "doubleSided": true,
   "name": "MI_Fabric",
   "pbrMetallicRoughness": {
    "baseColorFactor": [
     0.3585456907749176,
     0.35632404685020447,
     0.3589908480644226,
     1
    ],
    "metallicFactor": 0,
    "roughnessFactor": 0.699999988079071
   }
  },
  {
   "doubleSided": true,
   "name": "MI_ConcreteSmooth",
   "pbrMetallicRoughness": {
    "baseColorFactor": [
     0.3104965388774872,
     0.3015982508659363,
     0.2871379554271698,
     1
    ],
    "metallicFactor": 0,
    "roughnessFactor": 0.699999988079071
   }
  },
  {
   "doubleSided": true,
   "emissiveFactor": [
    0.0600000032782555,
    0.15000000596046448,
    0.30000001192092896
   ],
   "name": "MI_Sign",
   "pbrMetallicRoughness": {
    "baseColorFactor": [
     0.11999999731779099,
     0.30000001192092896,
     0.550000011920929,
     1
    ],
    "metallicFactor": 0,
    "roughnessFactor": 0.699999988079071
   }
  },
  {
   "doubleSided": true,
   "name": "MI_FabricRed",
   "pbrMetallicRoughness": {
    "baseColorFactor": [
     0.44999998807907104,
     0.07999999821186066,
     0.07000000029802322,
     1
    ],
    "metallicFactor": 0,
    "roughnessFactor": 0.699999988079071
   }
  }
 ],
 "meshes": [
  {
   "name": "SafeHouseCitySmall_Facade",
   "primitives": [
    {
     "attributes": {
      "POSITION": 0,
      "NORMAL": 1
     },
     "indices": 2,
     "material": 0
    },
    {
     "attributes": {
      "POSITION": 3,
      "NORMAL": 4
     },
     "indices": 5,
     "material": 1
    },
    {
     "attributes": {
      "POSITION": 6,
      "NORMAL": 7
     },
     "indices": 8,
     "material": 2
    },
    {
     "attributes": {
      "POSITION": 9,
      "NORMAL": 10
     },
     "indices": 11,
     "material": 3
    }
   ]
  },
  {
   "name": "SafeHouseCitySmall_Furniture",
   "primitives": [
    {
     "attributes": {
      "POSITION": 12,
      "NORMAL": 13
     },
     "indices": 11,
     "material": 4
    },
    {
     "attributes": {
      "POSITION": 14,
      "NORMAL": 15
     },
     "indices": 16,
     "material": 5
    },
    {
     "attributes": {
      "POSITION": 17,
      "NORMAL": 18
     },
     "indices": 19,
     "material": 3
    }
   ]
  },
  {
   "name": "SafeHouseCitySmall_Glazing",
   "primitives": [
    {
     "attributes": {
      "POSITION": 20,
      "NORMAL": 21
     },
     "indices": 22,
     "material": 6
    },
    {
     "attributes": {
      "POSITION": 23,
      "NORMAL": 24
     },
     "indices": 25,
     "material": 7
    }
   ]
  },
  {
   "name": "LIB_Hotel_Bed",
   "primitives": [
    {
     "attributes": {
      "POSITION": 26,
      "NORMAL": 27
     },
     "indices": 16,
     "material": 4
    },
    {
     "attributes": {
      "POSITION": 28,
      "NORMAL": 29
     },
     "indices": 16,
     "material": 8
    }
   ]
  },
  {
   "name": "LIB_Hotel_Tub",
   "primitives": [
    {
     "attributes": {
      "POSITION": 30,
      "NORMAL": 31
     },
     "indices": 11,
     "material": 5
    },
    {
     "attributes": {
      "POSITION": 32,
      "NORMAL": 33
     },
     "indices": 11,
     "material": 9
    }
   ]
  },
  {
   "name": "LIB_Kitchen_Fridge",
   "primitives": [
    {
     "attributes": {
      "POSITION": 34,
      "NORMAL": 35
     },
     "indices": 36,
     "material": 3
    },
    {
     "attributes": {
      "POSITION": 37,
      "NORMAL": 38
     },
     "indices": 16,
     "material": 0
    },
    {
     "attributes": {
      "POSITION": 39,
      "NORMAL": 40
     },
     "indices": 11,
     "material": 10
    }
   ]
  },
  {
   "name": "LIB_Office_Chair",
   "primitives": [
    {
     "attributes": {
      "POSITION": 41,
      "NORMAL": 42
     },
     "indices": 11,
     "material": 3
    },
    {
     "attributes": {
      "POSITION": 43,
      "NORMAL": 44
     },
     "indices": 11,
     "material": 11
    },
    {
     "attributes": {
      "POSITION": 45,
      "NORMAL": 46
     },
     "indices": 16,
     "material": 12
    }
   ]
  },
  {
   "name": "LIB_Office_Desk",
   "primitives": [
    {
     "attributes": {
      "POSITION": 47,
      "NORMAL": 48
     },
     "indices": 11,
     "material": 4
    },
    {
     "attributes": {
      "POSITION": 49,
      "NORMAL": 50
     },
     "indices": 16,
     "material": 6
    },
    {
     "attributes": {
      "POSITION": 51,
      "NORMAL": 52
     },
     "indices": 11,
     "material": 11
    }
   ]
  },
  {
   "name": "LIB_Office_Safe",
   "primitives": [
    {
     "attributes": {
      "POSITION": 53,
      "NORMAL": 54
     },
     "indices": 11,
     "material": 0
    },
    {
     "attributes": {
      "POSITION": 55,
      "NORMAL": 56
     },
     "indices": 11,
     "material": 3
    }
   ]
  },
  {
   "name": "LIB_Office_Sofa",
   "primitives": [
    {
     "attributes": {
      "POSITION": 57,
      "NORMAL": 58
     },
     "indices": 59,
     "material": 12
    }
   ]
  },
  {
   "name": "LIB_Police_GunLocker",
   "primitives": [
    {
     "attributes": {
      "POSITION": 60,
      "NORMAL": 61
     },
     "indices": 11,
     "material": 0
    },
    {
     "attributes": {
      "POSITION": 62,
      "NORMAL": 63
     },
     "indices": 16,
     "material": 6
    },
    {
     "attributes": {
      "POSITION": 64,
      "NORMAL": 65
     },
     "indices": 11,
     "material": 7
    },
    {
     "attributes": {
      "POSITION": 66,
      "NORMAL": 67
     },
     "indices": 68,
     "material": 11
    },
    {
     "attributes": {
      "POSITION": 69,
      "NORMAL": 70
     },
     "indices": 11,
     "material": 3
    }
   ]
  },
  {
   "extras": {
    "placeholder_note": "REMOVED 2026-09-28: base mesh was from elbolilloduro BurgerPiz pack (base mesh removed); this is a same-size PLACEHOLDER BOX, needs a modeller (see kits/library/placeholders.json)"
   },
   "name": "LIB_Rest_Chair",
   "primitives": [
    {
     "attributes": {
      "POSITION": 71,
      "NORMAL": 72
     },
     "indices": 73,
     "material": 4
    }
   ]
  },
  {
   "extras": {
    "placeholder_note": "REMOVED 2026-09-28: base mesh was from elbolilloduro BurgerPiz pack (base mesh removed); this is a same-size PLACEHOLDER BOX, needs a modeller (see kits/library/placeholders.json)"
   },
   "name": "LIB_Rest_Table",
   "primitives": [
    {
     "attributes": {
      "POSITION": 74,
      "NORMAL": 75
     },
     "indices": 73,
     "material": 4
    }
   ]
  },
  {
   "name": "SafeHouseCitySmall_Roof",
   "primitives": [
    {
     "attributes": {
      "POSITION": 76,
      "NORMAL": 77
     },
     "indices": 78,
     "material": 13
    },
    {
     "attributes": {
      "POSITION": 79,
      "NORMAL": 80
     },
     "indices": 11,
     "material": 5
    }
   ]
  },
  {
   "extras": {
    "placeholder_note": "REMOVED 2026-09-28: base mesh was from elbolilloduro 6TWELVE pack (base mesh removed); this is a same-size PLACEHOLDER BOX, needs a modeller (see kits/library/placeholders.json)"
   },
   "name": "LIB_Shop_StockShelf",
   "primitives": [
    {
     "attributes": {
      "POSITION": 81,
      "NORMAL": 82
     },
     "indices": 73,
     "material": 0
    }
   ]
  },
  {
   "name": "SafeHouseCitySmall_Site",
   "primitives": [
    {
     "attributes": {
      "POSITION": 83,
      "NORMAL": 84
     },
     "indices": 11,
     "material": 13
    }
   ]
  },
  {
   "name": "SafeHouseCitySmall_Stairs",
   "primitives": [
    {
     "attributes": {
      "POSITION": 85,
      "NORMAL": 86
     },
     "indices": 87,
     "material": 13
    },
    {
     "attributes": {
      "POSITION": 88,
      "NORMAL": 89
     },
     "indices": 90,
     "material": 0
    },
    {
     "attributes": {
      "POSITION": 91,
      "NORMAL": 92
     },
     "indices": 93,
     "material": 1
    }
   ]
  },
  {
   "name": "SafeHouseCitySmall_Structure",
   "primitives": [
    {
     "attributes": {
      "POSITION": 94,
      "NORMAL": 95
     },
     "indices": 11,
     "material": 13
    },
    {
     "attributes": {
      "POSITION": 96,
      "NORMAL": 97
     },
     "indices": 98,
     "material": 4
    }
   ]
  },
  {
   "name": "SafeHouseCitySmall_Walls_0",
   "primitives": [
    {
     "attributes": {
      "POSITION": 99,
      "NORMAL": 100
     },
     "indices": 101,
     "material": 1
    }
   ]
  },
  {
   "name": "SafeHouseCitySmall_Walls_3.1",
   "primitives": [
    {
     "attributes": {
      "POSITION": 102,
      "NORMAL": 103
     },
     "indices": 104,
     "material": 1
    }
   ]
  },
  {
   "name": "SafeHouseCitySmall_Walls_5.9",
   "primitives": [
    {
     "attributes": {
      "POSITION": 105,
      "NORMAL": 106
     },
     "indices": 107,
     "material": 1
    }
   ]
  },
  {
   "name": "LIB_WC_Basin",
   "primitives": [
    {
     "attributes": {
      "POSITION": 108,
      "NORMAL": 109
     },
     "indices": 11,
     "material": 5
    },
    {
     "attributes": {
      "POSITION": 110,
      "NORMAL": 111
     },
     "indices": 11,
     "material": 2
    },
    {
     "attributes": {
      "POSITION": 112,
      "NORMAL": 113
     },
     "indices": 114,
     "material": 3
    }
   ]
  },
  {
   "name": "LIB_WC_Toilet",
   "primitives": [
    {
     "attributes": {
      "POSITION": 115,
      "NORMAL": 116
     },
     "indices": 117,
     "material": 5
    },
    {
     "attributes": {
      "POSITION": 118,
      "NORMAL": 119
     },
     "indices": 11,
     "material": 11
    },
    {
     "attributes": {
      "POSITION": 120,
      "NORMAL": 121
     },
     "indices": 11,
     "material": 14
    },
    {
     "attributes": {
      "POSITION": 122,
      "NORMAL": 123
     },
     "indices": 11,
     "material": 15
    },
    {
     "attributes": {
      "POSITION": 124,
      "NORMAL": 125
     },
     "indices": 11,
     "material": 10
    },
    {
     "attributes": {
      "POSITION": 126,
      "NORMAL": 127
     },
     "indices": 11,
     "material": 3
    }
   ]
  }
 ],
 "accessors": [
  {
   "bufferView": 0,
   "componentType": 5126,
   "count": 248,
   "max": [
    2.7300000190734863,
    3.0999999046325684,
    5.25
   ],
   "min": [
    -2.7300000190734863,
    0,
    -4.550000190734863
   ],
   "type": "VEC3"
  },
  {
   "bufferView": 1,
   "componentType": 5126,
   "count": 248,
   "type": "VEC3"
  },
  {
   "bufferView": 2,
   "componentType": 5123,
   "count": 408,
   "type": "SCALAR"
  },
  {
   "bufferView": 3,
   "componentType": 5126,
   "count": 501,
   "max": [
    2.7300000190734863,
    8.5,
    4.449999809265137
   ],
   "min": [
    -2.7300000190734863,
    0,
    -4.449999809265137
   ],
   "type": "VEC3"
  },
  {
   "bufferView": 4,
   "componentType": 5126,
   "count": 501,
   "type": "VEC3"
  },
  {
   "bufferView": 5,
   "componentType": 5123,
   "count": 954,
   "type": "SCALAR"
  },
  {
   "bufferView": 6,
   "componentType": 5126,
   "count": 338,
   "max": [
    2.7300000190734863,
    8.5,
    4.550000190734863
   ],
   "min": [
    -2.7300000190734863,
    3.0999999046325684,
    -4.550000190734863
   ],
   "type": "VEC3"
  },
  {
   "bufferView": 7,
   "componentType": 5126,
   "count": 338,
   "type": "VEC3"
  },
  {
   "bufferView": 8,
   "componentType": 5123,
   "count": 630,
   "type": "SCALAR"
  },
  {
   "bufferView": 9,
   "componentType": 5126,
   "count": 24,
   "max": [
    2.5999999046325684,
    1.600000023841858,
    4.75
   ],
   "min": [
    2.4000000953674316,
    1.2999999523162842,
    4.550000190734863
   ],
   "type": "VEC3"
  },
  {
   "bufferView": 10,
   "componentType": 5126,
   "count": 24,
   "type": "VEC3"
  },
  {
   "bufferView": 11,
   "componentType": 5123,
   "count": 36,
   "type": "SCALAR"
  },
  {
   "bufferView": 12,
   "componentType": 5126,
   "count": 24,
   "max": [
    2.5299999713897705,
    0.949999988079071,
    4.199999809265137
   ],
   "min": [
    2.1500000953674316,
    0,
    3.0999999046325684
   ],
   "type": "VEC3"
  },
  {
   "bufferView": 13,
   "componentType": 5126,
   "count": 24,
   "type": "VEC3"
  },
  {
   "bufferView": 14,
   "componentType": 5126,
   "count": 48,
   "max": [
    -0.30000001192092896,
    6.25,
    -1.899999976158142
   ],
   "min": [
    -2.5299999713897705,
    3.0999999046325684,
    -4.349999904632568
   ],
   "type": "VEC3"
  },
  {
   "bufferView": 15,
   "componentType": 5126,
   "count": 48,
   "type": "VEC3"
  },
  {
   "bufferView": 16,
   "componentType": 5123,
   "count": 72,
   "type": "SCALAR"
  },
  {
   "bufferView": 17,
   "componentType": 5126,
   "count": 20,
   "max": [
    -0.30000001192092896,
    3.9800000190734863,
    -3.700000047683716
   ],
   "min": [
    -2.5299999713897705,
    3.950000047683716,
    -4.349999904632568
   ],
   "type": "VEC3"
  },
  {
   "bufferView": 18,
   "componentType": 5126,
   "count": 20,
   "type": "VEC3"
  },
  {
   "bufferView": 19,
   "componentType": 5123,
   "count": 30,
   "type": "SCALAR"
  },
  {
   "bufferView": 20,
   "componentType": 5126,
   "count": 480,
   "max": [
    2.119999885559082,
    8.149999618530273,
    4.559999942779541
   ],
   "min": [
    -2.549999952316284,
    -0.05000000074505806,
    -4.559999942779541
   ],
   "type": "VEC3"
  },
  {
   "bufferView": 21,
   "componentType": 5126,
   "count": 480,
   "type": "VEC3"
  },
  {
   "bufferView": 22,
   "componentType": 5123,
   "count": 864,
   "type": "SCALAR"
  },
  {
   "bufferView": 23,
   "componentType": 5126,
   "count": 96,
   "max": [
    0.5,
    8.100000381469727,
    4.461999893188477
   ],
   "min": [
    -2.5,
    3.4000000953674316,
    -4.461999893188477
   ],
   "type": "VEC3"
  },
  {
   "bufferView": 24,
   "componentType": 5126,
   "count": 96,
   "type": "VEC3"
  },
  {
   "bufferView": 25,
   "componentType": 5123,
   "count": 144,
   "type": "SCALAR"
  },
  {
   "bufferView": 26,
   "componentType": 5126,
   "count": 48,
   "max": [
    0.800000011920929,
    1.100000023841858,
    1
   ],
   "min": [
    -0.800000011920929,
    0,
    -1.0499999523162842
   ],
   "type": "VEC3"
  },
  {
   "bufferView": 27,
   "componentType": 5126,
   "count": 48,
   "type": "VEC3"
  },
  {
   "bufferView": 28,
   "componentType": 5126,
   "count": 48,
   "max": [
    0.7799999713897705,
    0.6800000071525574,
    0.9800000190734863
   ],
   "min": [
    -0.7799999713897705,
    0.3499999940395355,
    -0.9800000190734863
   ],
   "type": "VEC3"
  },
  {
   "bufferView": 29,
   "componentType": 5126,
   "count": 48,
   "type": "VEC3"
  },
  {
   "bufferView": 30,
   "componentType": 5126,
   "count": 24,
   "max": [
    0.800000011920929,
    0.550000011920929,
    0.375
   ],
   "min": [
    -0.800000011920929,
    0,
    -0.375
   ],
   "type": "VEC3"
  },
  {
   "bufferView": 31,
   "componentType": 5126,
   "count": 24,
   "type": "VEC3"
  },
  {
   "bufferView": 32,
   "componentType": 5126,
   "count": 24,
   "max": [
    0.699999988079071,
    0.5600000023841858,
    0.30000001192092896
   ],
   "min": [
    -0.699999988079071,
    0.20000000298023224,
    -0.30000001192092896
   ],
   "type": "VEC3"
  },
  {
   "bufferView": 33,
   "componentType": 5126,
   "count": 24,
   "type": "VEC3"
  },
  {
   "bufferView": 34,
   "componentType": 5126,
   "count": 72,
   "max": [
    0.6000000238418579,
    1.899999976158142,
    0.4099999964237213
   ],
   "min": [
    -0.6000000238418579,
    0,
    -0.4000000059604645
   ],
   "type": "VEC3"
  },
  {
   "bufferView": 35,
   "componentType": 5126,
   "count": 72,
   "type": "VEC3"
  },
  {
   "bufferView": 36,
   "componentType": 5123,
   "count": 108,
   "type": "SCALAR"
  },
  {
   "bufferView": 37,
   "componentType": 5126,
   "count": 48,
   "max": [
    0.5400000214576721,
    1.5,
    0.44999998807907104
   ],
   "min": [
    -0.5400000214576721,
    0.8999999761581421,
    0.4099999964237213
   ],
   "type": "VEC3"
  },
  {
   "bufferView": 38,
   "componentType": 5126,
   "count": 48,
   "type": "VEC3"
  },
  {
   "bufferView": 39,
   "componentType": 5126,
   "count": 24,
   "max": [
    0.20000000298023224,
    1.7999999523162842,
    0.41100001335144043
   ],
   "min": [
    -0.20000000298023224,
    1.7000000476837158,
    0.4099999964237213
   ],
   "type": "VEC3"
  },
  {
   "bufferView": 40,
   "componentType": 5126,
   "count": 24,
   "type": "VEC3"
  },
  {
   "bufferView": 41,
   "componentType": 5126,
   "count": 24,
   "max": [
    0.029999999329447746,
    0.41999998688697815,
    0.029999999329447746
   ],
   "min": [
    -0.029999999329447746,
    0,
    -0.029999999329447746
   ],
   "type": "VEC3"
  },
  {
   "bufferView": 42,
   "componentType": 5126,
   "count": 24,
   "type": "VEC3"
  },
  {
   "bufferView": 43,
   "componentType": 5126,
   "count": 24,
   "max": [
    0.30000001192092896,
    0.05000000074505806,
    0.30000001192092896
   ],
   "min": [
    -0.30000001192092896,
    0,
    -0.30000001192092896
   ],
   "type": "VEC3"
  },
  {
   "bufferView": 44,
   "componentType": 5126,
   "count": 24,
   "type": "VEC3"
  },
  {
   "bufferView": 45,
   "componentType": 5126,
   "count": 48,
   "max": [
    0.25,
    1,
    0.25
   ],
   "min": [
    -0.25,
    0.41999998688697815,
    -0.2800000011920929
   ],
   "type": "VEC3"
  },
  {
   "bufferView": 46,
   "componentType": 5126,
   "count": 48,
   "type": "VEC3"
  },
  {
   "bufferView": 47,
   "componentType": 5126,
   "count": 24,
   "max": [
    0.6000000238418579,
    0.7200000286102295,
    0.3499999940395355
   ],
   "min": [
    -0.6000000238418579,
    0.6800000071525574,
    -0.3499999940395355
   ],
   "type": "VEC3"
  },
  {
   "bufferView": 48,
   "componentType": 5126,
   "count": 24,
   "type": "VEC3"
  },
  {
   "bufferView": 49,
   "componentType": 5126,
   "count": 48,
   "max": [
    0.6000000238418579,
    0.6800000071525574,
    0.3199999928474426
   ],
   "min": [
    -0.6000000238418579,
    0,
    -0.3199999928474426
   ],
   "type": "VEC3"
  },
  {
   "bufferView": 50,
   "componentType": 5126,
   "count": 48,
   "type": "VEC3"
  },
  {
   "bufferView": 51,
   "componentType": 5126,
   "count": 24,
   "max": [
    0.25,
    1.0499999523162842,
    -0.10000000149011612
   ],
   "min": [
    -0.25,
    0.7200000286102295,
    -0.12999999523162842
   ],
   "type": "VEC3"
  },
  {
   "bufferView": 52,
   "componentType": 5126,
   "count": 24,
   "type": "VEC3"
  },
  {
   "bufferView": 53,
   "componentType": 5126,
   "count": 24,
   "max": [
    0.30000001192092896,
    1,
    0.30000001192092896
   ],
   "min": [
    -0.30000001192092896,
    0,
    -0.30000001192092896
   ],
   "type": "VEC3"
  },
  {
   "bufferView": 54,
   "componentType": 5126,
   "count": 24,
   "type": "VEC3"
  },
  {
   "bufferView": 55,
   "componentType": 5126,
   "count": 24,
   "max": [
    0.05000000074505806,
    0.6499999761581421,
    0.3100000023841858
   ],
   "min": [
    -0.05000000074505806,
    0.550000011920929,
    0.30000001192092896
   ],
   "type": "VEC3"
  },
  {
   "bufferView": 56,
   "componentType": 5126,
   "count": 24,
   "type": "VEC3"
  },
  {
   "bufferView": 57,
   "componentType": 5126,
   "count": 82,
   "max": [
    0.8999999761581421,
    0.800000011920929,
    0.41999998688697815
   ],
   "min": [
    -0.8999999761581421,
    0,
    -0.41999998688697815
   ],
   "type": "VEC3"
  },
  {
   "bufferView": 58,
   "componentType": 5126,
   "count": 82,
   "type": "VEC3"
  },
  {
   "bufferView": 59,
   "componentType": 5123,
   "count": 144,
   "type": "SCALAR"
  },
  {
   "bufferView": 60,
   "componentType": 5126,
   "count": 24,
   "max": [
    0.5,
    1.7999999523162842,
    0.25
   ],
   "min": [
    -0.5,
    0,
    -0.25
   ],
   "type": "VEC3"
  },
  {
   "bufferView": 61,
   "componentType": 5126,
   "count": 24,
   "type": "VEC3"
  },
  {
   "bufferView": 62,
   "componentType": 5126,
   "count": 48,
   "max": [
    0.47999998927116394,
    1.7000000476837158,
    0.25999999046325684
   ],
   "min": [
    -0.47999998927116394,
    0.10000000149011612,
    0.25
   ],
   "type": "VEC3"
  },
  {
   "bufferView": 63,
   "componentType": 5126,
   "count": 48,
   "type": "VEC3"
  },
  {
   "bufferView": 64,
   "componentType": 5126,
   "count": 24,
   "max": [
    0.4000000059604645,
    1.4500000476837158,
    0.27000001072883606
   ],
   "min": [
    -0.4000000059604645,
    1.2000000476837158,
    0.25999999046325684
   ],
   "type": "VEC3"
  },
  {
   "bufferView": 65,
   "componentType": 5126,
   "count": 24,
   "type": "VEC3"
  },
  {
   "bufferView": 66,
   "componentType": 5126,
   "count": 144,
   "max": [
    0.3700000047683716,
    1.399999976158142,
    0.20000000298023224
   ],
   "min": [
    -0.36000001430511475,
    1.25,
    0.10000000149011612
   ],
   "type": "VEC3"
  },
  {
   "bufferView": 67,
   "componentType": 5126,
   "count": 144,
   "type": "VEC3"
  },
  {
   "bufferView": 68,
   "componentType": 5123,
   "count": 216,
   "type": "SCALAR"
  },
  {
   "bufferView": 69,
   "componentType": 5126,
   "count": 24,
   "max": [
    0.10000000149011612,
    1,
    0.30000001192092896
   ],
   "min": [
    0.05999999865889549,
    0.8500000238418579,
    0.25999999046325684
   ],
   "type": "VEC3"
  },
  {
   "bufferView": 70,
   "componentType": 5126,
   "count": 24,
   "type": "VEC3"
  },
  {
   "bufferView": 71,
   "componentType": 5126,
   "count": 24,
   "max": [
    0.2548282742500305,
    0.8499999642372131,
    0.2184925079345703
   ],
   "min": [
    -0.25482824444770813,
    0,
    -0.21849441528320312
   ],
   "type": "VEC3"
  },
  {
   "bufferView": 72,
   "componentType": 5126,
   "count": 24,
   "type": "VEC3"
  },
  {
   "bufferView": 73,
   "componentType": 5123,
   "count": 36,
   "type": "SCALAR"
  },
  {
   "bufferView": 74,
   "componentType": 5126,
   "count": 24,
   "max": [
    0.7024393081665039,
    0.7199999690055847,
    0.40633583068847656
   ],
   "min": [
    -0.7024393081665039,
    0,
    -0.40633392333984375
   ],
   "type": "VEC3"
  },
  {
   "bufferView": 75,
   "componentType": 5126,
   "count": 24,
   "type": "VEC3"
  },
  {
   "bufferView": 76,
   "componentType": 5126,
   "count": 88,
   "max": [
    2.7100000381469727,
    9.600000381469727,
    4.53000020980835
   ],
   "min": [
    -2.7100000381469727,
    8.300000190734863,
    -4.53000020980835
   ],
   "type": "VEC3"
  },
  {
   "bufferView": 77,
   "componentType": 5126,
   "count": 88,
   "type": "VEC3"
  },
  {
   "bufferView": 78,
   "componentType": 5123,
   "count": 180,
   "type": "SCALAR"
  },
  {
   "bufferView": 79,
   "componentType": 5126,
   "count": 24,
   "max": [
    1.590000033378601,
    9.800000190734863,
    -1.0299999713897705
   ],
   "min": [
    -0.20999999344348907,
    8.5,
    -2.2300000190734863
   ],
   "type": "VEC3"
  },
  {
   "bufferView": 80,
   "componentType": 5126,
   "count": 24,
   "type": "VEC3"
  },
  {
   "bufferView": 81,
   "componentType": 5126,
   "count": 24,
   "max": [
    1.5511960983276367,
    1.8000000715255737,
    0.3707904815673828
   ],
   "min": [
    -1.5511951446533203,
    0,
    -0.3707904815673828
   ],
   "type": "VEC3"
  },
  {
   "bufferView": 82,
   "componentType": 5126,
   "count": 24,
   "type": "VEC3"
  },
  {
   "bufferView": 83,
   "componentType": 5126,
   "count": 24,
   "max": [
    2.9000000953674316,
    0.009999999776482582,
    6.5
   ],
   "min": [
    -2.9000000953674316,
    -0.029999999329447746,
    -4.800000190734863
   ],
   "type": "VEC3"
  },
  {
   "bufferView": 84,
   "componentType": 5126,
   "count": 24,
   "type": "VEC3"
  },
  {
   "bufferView": 85,
   "componentType": 5126,
   "count": 804,
   "max": [
    2.5299999713897705,
    5.900000095367432,
    1.399999976158142
   ],
   "min": [
    0.6000000238418579,
    0.30000001192092896,
    -2
   ],
   "type": "VEC3"
  },
  {
   "bufferView": 86,
   "componentType": 5126,
   "count": 804,
   "type": "VEC3"
  },
  {
   "bufferView": 87,
   "componentType": 5123,
   "count": 1224,
   "type": "SCALAR"
  },
  {
   "bufferView": 88,
   "componentType": 5126,
   "count": 768,
   "max": [
    2.5299999713897705,
    5.90500020980835,
    1.399999976158142
   ],
   "min": [
    0.6000000238418579,
    0.45500001311302185,
    -0.7599999904632568
   ],
   "type": "VEC3"
  },
  {
   "bufferView": 89,
   "componentType": 5126,
   "count": 768,
   "type": "VEC3"
  },
  {
   "bufferView": 90,
   "componentType": 5123,
   "count": 1152,
   "type": "SCALAR"
  },
  {
   "bufferView": 91,
   "componentType": 5126,
   "count": 72,
   "max": [
    1.625,
    7,
    1.4600000381469727
   ],
   "min": [
    0.6000000238418579,
    0.30000001192092896,
    -0.7599999904632568
   ],
   "type": "VEC3"
  },
  {
   "bufferView": 92,
   "componentType": 5126,
   "count": 72,
   "type": "VEC3"
  },
  {
   "bufferView": 93,
   "componentType": 5123,
   "count": 108,
   "type": "SCALAR"
  },
  {
   "bufferView": 94,
   "componentType": 5126,
   "count": 24,
   "max": [
    2.7100000381469727,
    0,
    4.53000020980835
   ],
   "min": [
    -2.7100000381469727,
    -0.20000000298023224,
    -4.53000020980835
   ],
   "type": "VEC3"
  },
  {
   "bufferView": 95,
   "componentType": 5126,
   "count": 24,
   "type": "VEC3"
  },
  {
   "bufferView": 96,
   "componentType": 5126,
   "count": 196,
   "max": [
    2.7100000381469727,
    5.900000095367432,
    4.53000020980835
   ],
   "min": [
    -2.7100000381469727,
    0,
    -4.53000020980835
   ],
   "type": "VEC3"
  },
  {
   "bufferView": 97,
   "componentType": 5126,
   "count": 196,
   "type": "VEC3"
  },
  {
   "bufferView": 98,
   "componentType": 5123,
   "count": 354,
   "type": "SCALAR"
  },
  {
   "bufferView": 99,
   "componentType": 5126,
   "count": 176,
   "max": [
    2.5299999713897705,
    2.9000000953674316,
    4.349999904632568
   ],
   "min": [
    -2.5299999713897705,
    0,
    -4.349999904632568
   ],
   "type": "VEC3"
  },
  {
   "bufferView": 100,
   "componentType": 5126,
   "count": 176,
   "type": "VEC3"
  },
  {
   "bufferView": 101,
   "componentType": 5123,
   "count": 288,
   "type": "SCALAR"
  },
  {
   "bufferView": 102,
   "componentType": 5126,
   "count": 164,
   "max": [
    2.5299999713897705,
    5.699999809265137,
    4.349999904632568
   ],
   "min": [
    0.49000000953674316,
    3.0999999046325684,
    -4.349999904632568
   ],
   "type": "VEC3"
  },
  {
   "bufferView": 103,
   "componentType": 5126,
   "count": 164,
   "type": "VEC3"
  },
  {
   "bufferView": 104,
   "componentType": 5123,
   "count": 306,
   "type": "SCALAR"
  },
  {
   "bufferView": 105,
   "componentType": 5126,
   "count": 216,
   "max": [
    2.5299999713897705,
    8.300000190734863,
    4.349999904632568
   ],
   "min": [
    -2.5299999713897705,
    5.900000095367432,
    -4.349999904632568
   ],
   "type": "VEC3"
  },
  {
   "bufferView": 106,
   "componentType": 5126,
   "count": 216,
   "type": "VEC3"
  },
  {
   "bufferView": 107,
   "componentType": 5123,
   "count": 384,
   "type": "SCALAR"
  },
  {
   "bufferView": 108,
   "componentType": 5126,
   "count": 24,
   "max": [
    0.32499998807907104,
    0.8399999737739563,
    0.28299999237060547
   ],
   "min": [
    -0.32499998807907104,
    0.7200000286102295,
    -0.28299999237060547
   ],
   "type": "VEC3"
  },
  {
   "bufferView": 109,
   "componentType": 5126,
   "count": 24,
   "type": "VEC3"
  },
  {
   "bufferView": 110,
   "componentType": 5126,
   "count": 24,
   "max": [
    0.2750000059604645,
    0.8450000286102295,
    0.2329999953508377
   ],
   "min": [
    -0.2750000059604645,
    0.8420000076293945,
    -0.16300000250339508
   ],
   "type": "VEC3"
  },
  {
   "bufferView": 111,
   "componentType": 5126,
   "count": 24,
   "type": "VEC3"
  },
  {
   "bufferView": 112,
   "componentType": 5126,
   "count": 66,
   "max": [
    0.019999999552965164,
    1.0800000429153442,
    -0.08299999684095383
   ],
   "min": [
    -0.019999999552965164,
    0.8399999737739563,
    -0.2630000114440918
   ],
   "type": "VEC3"
  },
  {
   "bufferView": 113,
   "componentType": 5126,
   "count": 66,
   "type": "VEC3"
  },
  {
   "bufferView": 114,
   "componentType": 5123,
   "count": 108,
   "type": "SCALAR"
  },
  {
   "bufferView": 115,
   "componentType": 5126,
   "count": 980,
   "max": [
    0.30000001192092896,
    0.800000011920929,
    0.3700000047683716
   ],
   "min": [
    -0.20000000298023224,
    0,
    -0.375
   ],
   "type": "VEC3"
  },
  {
   "bufferView": 116,
   "componentType": 5126,
   "count": 980,
   "type": "VEC3"
  },
  {
   "bufferView": 117,
   "componentType": 5123,
   "count": 1860,
   "type": "SCALAR"
  },
  {
   "bufferView": 118,
   "componentType": 5126,
   "count": 24,
   "max": [
    0.28999999165534973,
    0.4749999940395355,
    0.10000000149011612
   ],
   "min": [
    0.20999999344348907,
    0.4699999988079071,
    -0.07999999821186066
   ],
   "type": "VEC3"
  },
  {
   "bufferView": 119,
   "componentType": 5126,
   "count": 24,
   "type": "VEC3"
  },
  {
   "bufferView": 120,
   "componentType": 5126,
   "count": 24,
   "max": [
    0.27000001072883606,
    0.47999998927116394,
    0.07999999821186066
   ],
   "min": [
    0.23000000417232513,
    0.4749999940395355,
    0.05000000074505806
   ],
   "type": "VEC3"
  },
  {
   "bufferView": 121,
   "componentType": 5126,
   "count": 24,
   "type": "VEC3"
  },
  {
   "bufferView": 122,
   "componentType": 5126,
   "count": 24,
   "max": [
    0.27000001072883606,
    0.47999998927116394,
    0.029999999329447746
   ],
   "min": [
    0.23000000417232513,
    0.4749999940395355,
    0
   ],
   "type": "VEC3"
  },
  {
   "bufferView": 123,
   "componentType": 5126,
   "count": 24,
   "type": "VEC3"
  },
  {
   "bufferView": 124,
   "componentType": 5126,
   "count": 24,
   "max": [
    0.27000001072883606,
    0.47999998927116394,
    -0.019999999552965164
   ],
   "min": [
    0.23000000417232513,
    0.4749999940395355,
    -0.05000000074505806
   ],
   "type": "VEC3"
  },
  {
   "bufferView": 125,
   "componentType": 5126,
   "count": 24,
   "type": "VEC3"
  },
  {
   "bufferView": 126,
   "componentType": 5126,
   "count": 24,
   "max": [
    -0.20000000298023224,
    0.6800000071525574,
    -0.2800000011920929
   ],
   "min": [
    -0.2199999988079071,
    0.6600000262260437,
    -0.3400000035762787
   ],
   "type": "VEC3"
  },
  {
   "bufferView": 127,
   "componentType": 5126,
   "count": 24,
   "type": "VEC3"
  }
 ],
 "bufferViews": [
  {
   "buffer": 0,
   "byteLength": 2976,
   "byteOffset": 0,
   "target": 34962
  },
  {
   "buffer": 0,
   "byteLength": 2976,
   "byteOffset": 2976,
   "target": 34962
  },
  {
   "buffer": 0,
   "byteLength": 816,
   "byteOffset": 5952,
   "target": 34963
  },
  {
   "buffer": 0,
   "byteLength": 6012,
   "byteOffset": 6768,
   "target": 34962
  },
  {
   "buffer": 0,
   "byteLength": 6012,
   "byteOffset": 12780,
   "target": 34962
  },
  {
   "buffer": 0,
   "byteLength": 1908,
   "byteOffset": 18792,
   "target": 34963
  },
  {
   "buffer": 0,
   "byteLength": 4056,
   "byteOffset": 20700,
   "target": 34962
  },
  {
   "buffer": 0,
   "byteLength": 4056,
   "byteOffset": 24756,
   "target": 34962
  },
  {
   "buffer": 0,
   "byteLength": 1260,
   "byteOffset": 28812,
   "target": 34963
  },
  {
   "buffer": 0,
   "byteLength": 288,
   "byteOffset": 30072,
   "target": 34962
  },
  {
   "buffer": 0,
   "byteLength": 288,
   "byteOffset": 30360,
   "target": 34962
  },
  {
   "buffer": 0,
   "byteLength": 72,
   "byteOffset": 30648,
   "target": 34963
  },
  {
   "buffer": 0,
   "byteLength": 288,
   "byteOffset": 30720,
   "target": 34962
  },
  {
   "buffer": 0,
   "byteLength": 288,
   "byteOffset": 31008,
   "target": 34962
  },
  {
   "buffer": 0,
   "byteLength": 576,
   "byteOffset": 31296,
   "target": 34962
  },
  {
   "buffer": 0,
   "byteLength": 576,
   "byteOffset": 31872,
   "target": 34962
  },
  {
   "buffer": 0,
   "byteLength": 144,
   "byteOffset": 32448,
   "target": 34963
  },
  {
   "buffer": 0,
   "byteLength": 240,
   "byteOffset": 32592,
   "target": 34962
  },
  {
   "buffer": 0,
   "byteLength": 240,
   "byteOffset": 32832,
   "target": 34962
  },
  {
   "buffer": 0,
   "byteLength": 60,
   "byteOffset": 33072,
   "target": 34963
  },
  {
   "buffer": 0,
   "byteLength": 5760,
   "byteOffset": 33132,
   "target": 34962
  },
  {
   "buffer": 0,
   "byteLength": 5760,
   "byteOffset": 38892,
   "target": 34962
  },
  {
   "buffer": 0,
   "byteLength": 1728,
   "byteOffset": 44652,
   "target": 34963
  },
  {
   "buffer": 0,
   "byteLength": 1152,
   "byteOffset": 46380,
   "target": 34962
  },
  {
   "buffer": 0,
   "byteLength": 1152,
   "byteOffset": 47532,
   "target": 34962
  },
  {
   "buffer": 0,
   "byteLength": 288,
   "byteOffset": 48684,
   "target": 34963
  },
  {
   "buffer": 0,
   "byteLength": 576,
   "byteOffset": 48972,
   "target": 34962
  },
  {
   "buffer": 0,
   "byteLength": 576,
   "byteOffset": 49548,
   "target": 34962
  },
  {
   "buffer": 0,
   "byteLength": 576,
   "byteOffset": 50124,
   "target": 34962
  },
  {
   "buffer": 0,
   "byteLength": 576,
   "byteOffset": 50700,
   "target": 34962
  },
  {
   "buffer": 0,
   "byteLength": 288,
   "byteOffset": 51276,
   "target": 34962
  },
  {
   "buffer": 0,
   "byteLength": 288,
   "byteOffset": 51564,
   "target": 34962
  },
  {
   "buffer": 0,
   "byteLength": 288,
   "byteOffset": 51852,
   "target": 34962
  },
  {
   "buffer": 0,
   "byteLength": 288,
   "byteOffset": 52140,
   "target": 34962
  },
  {
   "buffer": 0,
   "byteLength": 864,
   "byteOffset": 52428,
   "target": 34962
  },
  {
   "buffer": 0,
   "byteLength": 864,
   "byteOffset": 53292,
   "target": 34962
  },
  {
   "buffer": 0,
   "byteLength": 216,
   "byteOffset": 54156,
   "target": 34963
  },
  {
   "buffer": 0,
   "byteLength": 576,
   "byteOffset": 54372,
   "target": 34962
  },
  {
   "buffer": 0,
   "byteLength": 576,
   "byteOffset": 54948,
   "target": 34962
  },
  {
   "buffer": 0,
   "byteLength": 288,
   "byteOffset": 55524,
   "target": 34962
  },
  {
   "buffer": 0,
   "byteLength": 288,
   "byteOffset": 55812,
   "target": 34962
  },
  {
   "buffer": 0,
   "byteLength": 288,
   "byteOffset": 56100,
   "target": 34962
  },
  {
   "buffer": 0,
   "byteLength": 288,
   "byteOffset": 56388,
   "target": 34962
  },
  {
   "buffer": 0,
   "byteLength": 288,
   "byteOffset": 56676,
   "target": 34962
  },
  {
   "buffer": 0,
   "byteLength": 288,
   "byteOffset": 56964,
   "target": 34962
  },
  {
   "buffer": 0,
   "byteLength": 576,
   "byteOffset": 57252,
   "target": 34962
  },
  {
   "buffer": 0,
   "byteLength": 576,
   "byteOffset": 57828,
   "target": 34962
  },
  {
   "buffer": 0,
   "byteLength": 288,
   "byteOffset": 58404,
   "target": 34962
  },
  {
   "buffer": 0,
   "byteLength": 288,
   "byteOffset": 58692,
   "target": 34962
  },
  {
   "buffer": 0,
   "byteLength": 576,
   "byteOffset": 58980,
   "target": 34962
  },
  {
   "buffer": 0,
   "byteLength": 576,
   "byteOffset": 59556,
   "target": 34962
  },
  {
   "buffer": 0,
   "byteLength": 288,
   "byteOffset": 60132,
   "target": 34962
  },
  {
   "buffer": 0,
   "byteLength": 288,
   "byteOffset": 60420,
   "target": 34962
  },
  {
   "buffer": 0,
   "byteLength": 288,
   "byteOffset": 60708,
   "target": 34962
  },
  {
   "buffer": 0,
   "byteLength": 288,
   "byteOffset": 60996,
   "target": 34962
  },
  {
   "buffer": 0,
   "byteLength": 288,
   "byteOffset": 61284,
   "target": 34962
  },
  {
   "buffer": 0,
   "byteLength": 288,
   "byteOffset": 61572,
   "target": 34962
  },
  {
   "buffer": 0,
   "byteLength": 984,
   "byteOffset": 61860,
   "target": 34962
  },
  {
   "buffer": 0,
   "byteLength": 984,
   "byteOffset": 62844,
   "target": 34962
  },
  {
   "buffer": 0,
   "byteLength": 288,
   "byteOffset": 63828,
   "target": 34963
  },
  {
   "buffer": 0,
   "byteLength": 288,
   "byteOffset": 64116,
   "target": 34962
  },
  {
   "buffer": 0,
   "byteLength": 288,
   "byteOffset": 64404,
   "target": 34962
  },
  {
   "buffer": 0,
   "byteLength": 576,
   "byteOffset": 64692,
   "target": 34962
  },
  {
   "buffer": 0,
   "byteLength": 576,
   "byteOffset": 65268,
   "target": 34962
  },
  {
   "buffer": 0,
   "byteLength": 288,
   "byteOffset": 65844,
   "target": 34962
  },
  {
   "buffer": 0,
   "byteLength": 288,
   "byteOffset": 66132,
   "target": 34962
  },
  {
   "buffer": 0,
   "byteLength": 1728,
   "byteOffset": 66420,
   "target": 34962
  },
  {
   "buffer": 0,
   "byteLength": 1728,
   "byteOffset": 68148,
   "target": 34962
  },
  {
   "buffer": 0,
   "byteLength": 432,
   "byteOffset": 69876,
   "target": 34963
  },
  {
   "buffer": 0,
   "byteLength": 288,
   "byteOffset": 70308,
   "target": 34962
  },
  {
   "buffer": 0,
   "byteLength": 288,
   "byteOffset": 70596,
   "target": 34962
  },
  {
   "buffer": 0,
   "byteLength": 288,
   "byteOffset": 70884,
   "target": 34962
  },
  {
   "buffer": 0,
   "byteLength": 288,
   "byteOffset": 71172,
   "target": 34962
  },
  {
   "buffer": 0,
   "byteLength": 72,
   "byteOffset": 71460,
   "target": 34963
  },
  {
   "buffer": 0,
   "byteLength": 288,
   "byteOffset": 71532,
   "target": 34962
  },
  {
   "buffer": 0,
   "byteLength": 288,
   "byteOffset": 71820,
   "target": 34962
  },
  {
   "buffer": 0,
   "byteLength": 1056,
   "byteOffset": 72108,
   "target": 34962
  },
  {
   "buffer": 0,
   "byteLength": 1056,
   "byteOffset": 73164,
   "target": 34962
  },
  {
   "buffer": 0,
   "byteLength": 360,
   "byteOffset": 74220,
   "target": 34963
  },
  {
   "buffer": 0,
   "byteLength": 288,
   "byteOffset": 74580,
   "target": 34962
  },
  {
   "buffer": 0,
   "byteLength": 288,
   "byteOffset": 74868,
   "target": 34962
  },
  {
   "buffer": 0,
   "byteLength": 288,
   "byteOffset": 75156,
   "target": 34962
  },
  {
   "buffer": 0,
   "byteLength": 288,
   "byteOffset": 75444,
   "target": 34962
  },
  {
   "buffer": 0,
   "byteLength": 288,
   "byteOffset": 75732,
   "target": 34962
  },
  {
   "buffer": 0,
   "byteLength": 288,
   "byteOffset": 76020,
   "target": 34962
  },
  {
   "buffer": 0,
   "byteLength": 9648,
   "byteOffset": 76308,
   "target": 34962
  },
  {
   "buffer": 0,
   "byteLength": 9648,
   "byteOffset": 85956,
   "target": 34962
  },
  {
   "buffer": 0,
   "byteLength": 2448,
   "byteOffset": 95604,
   "target": 34963
  },
  {
   "buffer": 0,
   "byteLength": 9216,
   "byteOffset": 98052,
   "target": 34962
  },
  {
   "buffer": 0,
   "byteLength": 9216,
   "byteOffset": 107268,
   "target": 34962
  },
  {
   "buffer": 0,
   "byteLength": 2304,
   "byteOffset": 116484,
   "target": 34963
  },
  {
   "buffer": 0,
   "byteLength": 864,
   "byteOffset": 118788,
   "target": 34962
  },
  {
   "buffer": 0,
   "byteLength": 864,
   "byteOffset": 119652,
   "target": 34962
  },
  {
   "buffer": 0,
   "byteLength": 216,
   "byteOffset": 120516,
   "target": 34963
  },
  {
   "buffer": 0,
   "byteLength": 288,
   "byteOffset": 120732,
   "target": 34962
  },
  {
   "buffer": 0,
   "byteLength": 288,
   "byteOffset": 121020,
   "target": 34962
  },
  {
   "buffer": 0,
   "byteLength": 2352,
   "byteOffset": 121308,
   "target": 34962
  },
  {
   "buffer": 0,
   "byteLength": 2352,
   "byteOffset": 123660,
   "target": 34962
  },
  {
   "buffer": 0,
   "byteLength": 708,
   "byteOffset": 126012,
   "target": 34963
  },
  {
   "buffer": 0,
   "byteLength": 2112,
   "byteOffset": 126720,
   "target": 34962
  },
  {
   "buffer": 0,
   "byteLength": 2112,
   "byteOffset": 128832,
   "target": 34962
  },
  {
   "buffer": 0,
   "byteLength": 576,
   "byteOffset": 130944,
   "target": 34963
  },
  {
   "buffer": 0,
   "byteLength": 1968,
   "byteOffset": 131520,
   "target": 34962
  },
  {
   "buffer": 0,
   "byteLength": 1968,
   "byteOffset": 133488,
   "target": 34962
  },
  {
   "buffer": 0,
   "byteLength": 612,
   "byteOffset": 135456,
   "target": 34963
  },
  {
   "buffer": 0,
   "byteLength": 2592,
   "byteOffset": 136068,
   "target": 34962
  },
  {
   "buffer": 0,
   "byteLength": 2592,
   "byteOffset": 138660,
   "target": 34962
  },
  {
   "buffer": 0,
   "byteLength": 768,
   "byteOffset": 141252,
   "target": 34963
  },
  {
   "buffer": 0,
   "byteLength": 288,
   "byteOffset": 142020,
   "target": 34962
  },
  {
   "buffer": 0,
   "byteLength": 288,
   "byteOffset": 142308,
   "target": 34962
  },
  {
   "buffer": 0,
   "byteLength": 288,
   "byteOffset": 142596,
   "target": 34962
  },
  {
   "buffer": 0,
   "byteLength": 288,
   "byteOffset": 142884,
   "target": 34962
  },
  {
   "buffer": 0,
   "byteLength": 792,
   "byteOffset": 143172,
   "target": 34962
  },
  {
   "buffer": 0,
   "byteLength": 792,
   "byteOffset": 143964,
   "target": 34962
  },
  {
   "buffer": 0,
   "byteLength": 216,
   "byteOffset": 144756,
   "target": 34963
  },
  {
   "buffer": 0,
   "byteLength": 11760,
   "byteOffset": 144972,
   "target": 34962
  },
  {
   "buffer": 0,
   "byteLength": 11760,
   "byteOffset": 156732,
   "target": 34962
  },
  {
   "buffer": 0,
   "byteLength": 3720,
   "byteOffset": 168492,
   "target": 34963
  },
  {
   "buffer": 0,
   "byteLength": 288,
   "byteOffset": 172212,
   "target": 34962
  },
  {
   "buffer": 0,
   "byteLength": 288,
   "byteOffset": 172500,
   "target": 34962
  },
  {
   "buffer": 0,
   "byteLength": 288,
   "byteOffset": 172788,
   "target": 34962
  },
  {
   "buffer": 0,
   "byteLength": 288,
   "byteOffset": 173076,
   "target": 34962
  },
  {
   "buffer": 0,
   "byteLength": 288,
   "byteOffset": 173364,
   "target": 34962
  },
  {
   "buffer": 0,
   "byteLength": 288,
   "byteOffset": 173652,
   "target": 34962
  },
  {
   "buffer": 0,
   "byteLength": 288,
   "byteOffset": 173940,
   "target": 34962
  },
  {
   "buffer": 0,
   "byteLength": 288,
   "byteOffset": 174228,
   "target": 34962
  },
  {
   "buffer": 0,
   "byteLength": 288,
   "byteOffset": 174516,
   "target": 34962
  },
  {
   "buffer": 0,
   "byteLength": 288,
   "byteOffset": 174804,
   "target": 34962
  }
 ],
 "buffers": [
  {
   "byteLength": 175092,
   "uri": "SafeHouseCitySmall.bin"
  }
 ]
}
