{
 "asset": {
  "generator": "Khronos glTF Blender I/O v4.3.47",
  "version": "2.0",
  "extras": {
   "normalized_by": "tools/building_kit/normalize_kit.py",
   "module_scale": 0.91
  }
 },
 "scene": 0,
 "scenes": [
  {
   "name": "Scene",
   "nodes": [
    0
   ]
  }
 ],
 "nodes": [
  {
   "mesh": 0,
   "name": "Cornice_Metal_L"
  }
 ],
 "materials": [
  {
   "doubleSided": true,
   "name": "MI_Trim_MetalConcrete",
   "normalTexture": {
    "index": 0
   },
   "pbrMetallicRoughness": {
    "baseColorTexture": {
     "index": 1
    },
    "metallicRoughnessTexture": {
     "index": 2
    }
   }
  }
 ],
 "meshes": [
  {
   "name": "Cube.120",
   "primitives": [
    {
     "attributes": {
      "POSITION": 0,
      "NORMAL": 1,
      "TEXCOORD_0": 2,
      "TEXCOORD_1": 3,
      "COLOR_0": 4
     },
     "indices": 5,
     "material": 0
    }
   ]
  }
 ],
 "textures": [
  {
   "sampler": 0,
   "source": 0
  },
  {
   "sampler": 0,
   "source": 1
  },
  {
   "sampler": 0,
   "source": 2
  }
 ],
 "images": [
  {
   "mimeType": "image/png",
   "name": "T_MetalConcrete_Normal",
   "uri": "../../textures/T_MetalConcrete_Normal.png"
  },
  {
   "mimeType": "image/png",
   "name": "T_MetalConcrete_BaseColor",
   "uri": "../../textures/T_MetalConcrete_BaseColor.png"
  },
  {
   "mimeType": "image/png",
   "name": "T_MetalConcrete_ORM",
   "uri": "../../textures/T_MetalConcrete_ORM.png"
  }
 ],
 "accessors": [
  {
   "bufferView": 0,
   "componentType": 5126,
   "count": 120,
   "max": [
    0.91,
    0.9100351476669312,
    0.0910000216960907
   ],
   "min": [
    -1.0009999132156373,
    5.424022674560547e-08,
    -0.09100002847611904
   ],
   "type": "VEC3"
  },
  {
   "bufferView": 1,
   "componentType": 5126,
   "count": 120,
   "type": "VEC3"
  },
  {
   "bufferView": 2,
   "componentType": 5126,
   "count": 120,
   "type": "VEC2"
  },
  {
   "bufferView": 3,
   "componentType": 5126,
   "count": 120,
   "type": "VEC2"
  },
  {
   "bufferView": 4,
   "componentType": 5123,
   "count": 120,
   "normalized": true,
   "type": "VEC4"
  },
  {
   "bufferView": 5,
   "componentType": 5123,
   "count": 216,
   "type": "SCALAR"
  }
 ],
 "bufferViews": [
  {
   "buffer": 0,
   "byteLength": 1440,
   "byteOffset": 0,
   "target": 34962
  },
  {
   "buffer": 0,
   "byteLength": 1440,
   "byteOffset": 1440,
   "target": 34962
  },
  {
   "buffer": 0,
   "byteLength": 960,
   "byteOffset": 2880,
   "target": 34962
  },
  {
   "buffer": 0,
   "byteLength": 960,
   "byteOffset": 3840,
   "target": 34962
  },
  {
   "buffer": 0,
   "byteLength": 960,
   "byteOffset": 4800,
   "target": 34962
  },
  {
   "buffer": 0,
   "byteLength": 432,
   "byteOffset": 5760,
   "target": 34963
  }
 ],
 "samplers": [
  {
   "magFilter": 9729,
   "minFilter": 9987
  }
 ],
 "buffers": [
  {
   "byteLength": 6192,
   "uri": "Cornice_Metal_L.bin"
  }
 ]
}
