{
 "asset": {
  "generator": "Khronos glTF Blender I/O v5.2.40",
  "version": "2.0",
  "extras": {
   "exported_by": "blender/tools/export_building_kit.py",
   "module_scale": 1.0
  }
 },
 "scene": 0,
 "scenes": [
  {
   "name": "library",
   "nodes": [
    0
   ]
  }
 ],
 "nodes": [
  {
   "extras": {
    "edit_note": "Placeholder narrow-body airliner (737-800 class), nose -Y. Static prop; collider = boxes in building_types.json (AirportAirside)."
   },
   "mesh": 0,
   "name": "Airport_Airliner"
  }
 ],
 "materials": [
  {
   "doubleSided": true,
   "name": "MI_PaintWhite",
   "pbrMetallicRoughness": {
    "baseColorFactor": [
     0.949999988079071,
     0.949999988079071,
     0.9300000071525574,
     1
    ],
    "metallicFactor": 0,
    "roughnessFactor": 0.699999988079071
   }
  },
  {
   "doubleSided": true,
   "emissiveFactor": [
    0.0600000032782555,
    0.15000000596046448,
    0.30000001192092896
   ],
   "name": "MI_Sign",
   "pbrMetallicRoughness": {
    "baseColorFactor": [
     0.11999999731779099,
     0.30000001192092896,
     0.550000011920929,
     1
    ],
    "metallicFactor": 0,
    "roughnessFactor": 0.699999988079071
   }
  },
  {
   "doubleSided": true,
   "name": "MI_Window",
   "pbrMetallicRoughness": {
    "baseColorFactor": [
     0.1599999964237213,
     0.2199999988079071,
     0.2800000011920929,
     1
    ],
    "metallicFactor": 0.3499999940395355,
    "roughnessFactor": 0.11999999731779099
   }
  },
  {
   "doubleSided": true,
   "name": "MI_Steel",
   "pbrMetallicRoughness": {
    "baseColorFactor": [
     0.5726980566978455,
     0.5820889472961426,
     0.5955169796943665,
     1
    ],
    "roughnessFactor": 0.699999988079071
   }
  },
  {
   "doubleSided": true,
   "name": "MI_PlasticDark",
   "pbrMetallicRoughness": {
    "baseColorFactor": [
     0.11999999731779099,
     0.11999999731779099,
     0.12999999523162842,
     1
    ],
    "metallicFactor": 0,
    "roughnessFactor": 0.6000000238418579
   }
  }
 ],
 "meshes": [
  {
   "name": "Airport_Airliner.001",
   "primitives": [
    {
     "attributes": {
      "POSITION": 0,
      "NORMAL": 1
     },
     "indices": 2,
     "material": 0
    },
    {
     "attributes": {
      "POSITION": 3,
      "NORMAL": 4
     },
     "indices": 5,
     "material": 1
    },
    {
     "attributes": {
      "POSITION": 6,
      "NORMAL": 7
     },
     "indices": 8,
     "material": 2
    },
    {
     "attributes": {
      "POSITION": 9,
      "NORMAL": 10
     },
     "indices": 5,
     "material": 3
    },
    {
     "attributes": {
      "POSITION": 11,
      "NORMAL": 12
     },
     "indices": 13,
     "material": 4
    }
   ]
  }
 ],
 "accessors": [
  {
   "bufferView": 0,
   "componentType": 5126,
   "count": 192,
   "max": [
    17.700000762939453,
    5.300000190734863,
    20
   ],
   "min": [
    -17.700000762939453,
    1.5,
    -20
   ],
   "type": "VEC3"
  },
  {
   "bufferView": 1,
   "componentType": 5126,
   "count": 192,
   "type": "VEC3"
  },
  {
   "bufferView": 2,
   "componentType": 5123,
   "count": 288,
   "type": "SCALAR"
  },
  {
   "bufferView": 3,
   "componentType": 5126,
   "count": 48,
   "max": [
    1.9299999475479126,
    12.5,
    15
   ],
   "min": [
    -1.9299999475479126,
    3.5999999046325684,
    -20.5
   ],
   "type": "VEC3"
  },
  {
   "bufferView": 4,
   "componentType": 5126,
   "count": 48,
   "type": "VEC3"
  },
  {
   "bufferView": 5,
   "componentType": 5123,
   "count": 72,
   "type": "SCALAR"
  },
  {
   "bufferView": 6,
   "componentType": 5126,
   "count": 1344,
   "max": [
    1.899999976158142,
    4.5,
    13
   ],
   "min": [
    -1.899999976158142,
    4.099999904632568,
    -14.300000190734863
   ],
   "type": "VEC3"
  },
  {
   "bufferView": 7,
   "componentType": 5126,
   "count": 1344,
   "type": "VEC3"
  },
  {
   "bufferView": 8,
   "componentType": 5123,
   "count": 2016,
   "type": "SCALAR"
  },
  {
   "bufferView": 9,
   "componentType": 5126,
   "count": 48,
   "max": [
    6.5,
    3,
    3.5
   ],
   "min": [
    -6.5,
    1,
    -0.5
   ],
   "type": "VEC3"
  },
  {
   "bufferView": 10,
   "componentType": 5126,
   "count": 48,
   "type": "VEC3"
  },
  {
   "bufferView": 11,
   "componentType": 5126,
   "count": 72,
   "max": [
    2.1500000953674316,
    1.600000023841858,
    15.5
   ],
   "min": [
    -2.1500000953674316,
    0,
    -2.5
   ],
   "type": "VEC3"
  },
  {
   "bufferView": 12,
   "componentType": 5126,
   "count": 72,
   "type": "VEC3"
  },
  {
   "bufferView": 13,
   "componentType": 5123,
   "count": 108,
   "type": "SCALAR"
  }
 ],
 "bufferViews": [
  {
   "buffer": 0,
   "byteLength": 2304,
   "byteOffset": 0,
   "target": 34962
  },
  {
   "buffer": 0,
   "byteLength": 2304,
   "byteOffset": 2304,
   "target": 34962
  },
  {
   "buffer": 0,
   "byteLength": 576,
   "byteOffset": 4608,
   "target": 34963
  },
  {
   "buffer": 0,
   "byteLength": 576,
   "byteOffset": 5184,
   "target": 34962
  },
  {
   "buffer": 0,
   "byteLength": 576,
   "byteOffset": 5760,
   "target": 34962
  },
  {
   "buffer": 0,
   "byteLength": 144,
   "byteOffset": 6336,
   "target": 34963
  },
  {
   "buffer": 0,
   "byteLength": 16128,
   "byteOffset": 6480,
   "target": 34962
  },
  {
   "buffer": 0,
   "byteLength": 16128,
   "byteOffset": 22608,
   "target": 34962
  },
  {
   "buffer": 0,
   "byteLength": 4032,
   "byteOffset": 38736,
   "target": 34963
  },
  {
   "buffer": 0,
   "byteLength": 576,
   "byteOffset": 42768,
   "target": 34962
  },
  {
   "buffer": 0,
   "byteLength": 576,
   "byteOffset": 43344,
   "target": 34962
  },
  {
   "buffer": 0,
   "byteLength": 864,
   "byteOffset": 43920,
   "target": 34962
  },
  {
   "buffer": 0,
   "byteLength": 864,
   "byteOffset": 44784,
   "target": 34962
  },
  {
   "buffer": 0,
   "byteLength": 216,
   "byteOffset": 45648,
   "target": 34963
  }
 ],
 "buffers": [
  {
   "byteLength": 45864,
   "uri": "Airport_Airliner.bin"
  }
 ]
}
