{
 "asset": {
  "generator": "Khronos glTF Blender I/O v5.2.40",
  "version": "2.0",
  "extras": {
   "exported_by": "blender/tools/export_building_kit.py",
   "module_scale": 0.91
  }
 },
 "scene": 0,
 "scenes": [
  {
   "extras": {
    "bk_kit": "quaternius_downtown_city",
    "bk_module_scale": 0.91,
    "bk_status": "OWNER: this file is the source of the kit's pieces. Edit a piece in its collection (origin = the piece's own origin + the collection's instance_offset), then run tools/building_kit/build_buildings.sh, which exports pieces/ with blender/tools/export_building_kit.py. A moved or resized piece is refused unless ACCEPT_BOUNDS=1."
   },
   "name": "Scene",
   "nodes": [
    0
   ]
  }
 ],
 "nodes": [
  {
   "mesh": 0,
   "name": "Prop_Planter_Single"
  }
 ],
 "materials": [
  {
   "doubleSided": true,
   "name": "MI_Trim_MetalConcrete",
   "normalTexture": {
    "index": 0
   },
   "pbrMetallicRoughness": {
    "baseColorTexture": {
     "index": 1
    },
    "metallicRoughnessTexture": {
     "index": 2
    }
   }
  },
  {
   "doubleSided": true,
   "name": "MI_Dirt",
   "normalTexture": {
    "index": 3
   },
   "pbrMetallicRoughness": {
    "baseColorTexture": {
     "index": 4
    },
    "metallicRoughnessTexture": {
     "index": 5
    }
   }
  }
 ],
 "meshes": [
  {
   "name": "Cube.016",
   "primitives": [
    {
     "attributes": {
      "POSITION": 0,
      "NORMAL": 1,
      "TEXCOORD_0": 2,
      "TEXCOORD_1": 3
     },
     "indices": 4,
     "material": 0
    },
    {
     "attributes": {
      "POSITION": 5,
      "NORMAL": 6,
      "TEXCOORD_0": 7,
      "TEXCOORD_1": 8
     },
     "indices": 9,
     "material": 1
    }
   ]
  }
 ],
 "textures": [
  {
   "sampler": 0,
   "source": 0
  },
  {
   "sampler": 0,
   "source": 1
  },
  {
   "sampler": 0,
   "source": 2
  },
  {
   "sampler": 0,
   "source": 3
  },
  {
   "sampler": 0,
   "source": 4
  },
  {
   "sampler": 0,
   "source": 5
  }
 ],
 "images": [
  {
   "mimeType": "image/png",
   "name": "T_MetalConcrete_Normal",
   "uri": "../../textures/T_MetalConcrete_Normal.png"
  },
  {
   "mimeType": "image/png",
   "name": "T_MetalConcrete_BaseColor",
   "uri": "../../textures/T_MetalConcrete_BaseColor.png"
  },
  {
   "mimeType": "image/png",
   "name": "T_MetalConcrete_ORM",
   "uri": "../../textures/T_MetalConcrete_ORM.png"
  },
  {
   "mimeType": "image/png",
   "name": "T_Dirt_Normal",
   "uri": "../../textures/T_Dirt_Normal.png"
  },
  {
   "mimeType": "image/png",
   "name": "T_Dirt_BaseColor",
   "uri": "../../textures/T_Dirt_BaseColor.png"
  },
  {
   "mimeType": "image/png",
   "name": "T_Dirt_ORM",
   "uri": "../../textures/T_Dirt_ORM.png"
  }
 ],
 "accessors": [
  {
   "bufferView": 0,
   "componentType": 5126,
   "count": 210,
   "max": [
    0.9100000262260437,
    0.5460000038146973,
    0.9100000262260437
   ],
   "min": [
    -0.9100000262260437,
    0,
    -0.9100000262260437
   ],
   "type": "VEC3"
  },
  {
   "bufferView": 1,
   "componentType": 5126,
   "count": 210,
   "type": "VEC3"
  },
  {
   "bufferView": 2,
   "componentType": 5126,
   "count": 210,
   "type": "VEC2"
  },
  {
   "bufferView": 3,
   "componentType": 5126,
   "count": 210,
   "type": "VEC2"
  },
  {
   "bufferView": 4,
   "componentType": 5123,
   "count": 336,
   "type": "SCALAR"
  },
  {
   "bufferView": 5,
   "componentType": 5126,
   "count": 8,
   "max": [
    0.7279999852180481,
    0.5228152275085449,
    0.7279999852180481
   ],
   "min": [
    -0.7279999852180481,
    0.5228152275085449,
    -0.7279999852180481
   ],
   "type": "VEC3"
  },
  {
   "bufferView": 6,
   "componentType": 5126,
   "count": 8,
   "type": "VEC3"
  },
  {
   "bufferView": 7,
   "componentType": 5126,
   "count": 8,
   "type": "VEC2"
  },
  {
   "bufferView": 8,
   "componentType": 5126,
   "count": 8,
   "type": "VEC2"
  },
  {
   "bufferView": 9,
   "componentType": 5123,
   "count": 18,
   "type": "SCALAR"
  }
 ],
 "bufferViews": [
  {
   "buffer": 0,
   "byteLength": 2520,
   "byteOffset": 0,
   "target": 34962
  },
  {
   "buffer": 0,
   "byteLength": 2520,
   "byteOffset": 2520,
   "target": 34962
  },
  {
   "buffer": 0,
   "byteLength": 1680,
   "byteOffset": 5040,
   "target": 34962
  },
  {
   "buffer": 0,
   "byteLength": 1680,
   "byteOffset": 6720,
   "target": 34962
  },
  {
   "buffer": 0,
   "byteLength": 672,
   "byteOffset": 8400,
   "target": 34963
  },
  {
   "buffer": 0,
   "byteLength": 96,
   "byteOffset": 9072,
   "target": 34962
  },
  {
   "buffer": 0,
   "byteLength": 96,
   "byteOffset": 9168,
   "target": 34962
  },
  {
   "buffer": 0,
   "byteLength": 64,
   "byteOffset": 9264,
   "target": 34962
  },
  {
   "buffer": 0,
   "byteLength": 64,
   "byteOffset": 9328,
   "target": 34962
  },
  {
   "buffer": 0,
   "byteLength": 36,
   "byteOffset": 9392,
   "target": 34963
  }
 ],
 "samplers": [
  {
   "magFilter": 9729,
   "minFilter": 9987
  }
 ],
 "buffers": [
  {
   "byteLength": 9428,
   "uri": "Prop_Planter_Single.bin"
  }
 ]
}
