{
 "asset": {
  "generator": "Khronos glTF Blender I/O v4.3.47",
  "version": "2.0",
  "extras": {
   "normalized_by": "tools/building_kit/normalize_kit.py",
   "module_scale": 0.91
  }
 },
 "scene": 0,
 "scenes": [
  {
   "name": "Scene",
   "nodes": [
    0
   ]
  }
 ],
 "nodes": [
  {
   "mesh": 0,
   "name": "Prop_Drain"
  }
 ],
 "materials": [
  {
   "doubleSided": true,
   "name": "MI_Ornaments",
   "normalTexture": {
    "index": 0
   },
   "pbrMetallicRoughness": {
    "baseColorTexture": {
     "index": 1
    },
    "metallicRoughnessTexture": {
     "index": 2
    }
   }
  }
 ],
 "meshes": [
  {
   "name": "Cube.173",
   "primitives": [
    {
     "attributes": {
      "POSITION": 0,
      "NORMAL": 1,
      "TEXCOORD_0": 2
     },
     "indices": 3,
     "material": 0
    }
   ]
  }
 ],
 "textures": [
  {
   "sampler": 0,
   "source": 0
  },
  {
   "sampler": 0,
   "source": 1
  },
  {
   "sampler": 0,
   "source": 2
  }
 ],
 "images": [
  {
   "mimeType": "image/png",
   "name": "T_Ornaments_Normal",
   "uri": "../../textures/T_Ornaments_Normal.png"
  },
  {
   "mimeType": "image/png",
   "name": "T_Ornaments_BaseColor",
   "uri": "../../textures/T_Ornaments_BaseColor.png"
  },
  {
   "mimeType": "image/png",
   "name": "T_Ornaments_ORM",
   "uri": "../../textures/T_Ornaments_ORM.png"
  }
 ],
 "accessors": [
  {
   "bufferView": 0,
   "componentType": 5126,
   "count": 20,
   "max": [
    0.2662608525156975,
    0.03676942598074675,
    0.2662608525156975
   ],
   "min": [
    -0.2662608525156975,
    0.0,
    -0.2662608525156975
   ],
   "type": "VEC3"
  },
  {
   "bufferView": 1,
   "componentType": 5126,
   "count": 20,
   "type": "VEC3"
  },
  {
   "bufferView": 2,
   "componentType": 5126,
   "count": 20,
   "type": "VEC2"
  },
  {
   "bufferView": 3,
   "componentType": 5123,
   "count": 30,
   "type": "SCALAR"
  }
 ],
 "bufferViews": [
  {
   "buffer": 0,
   "byteLength": 240,
   "byteOffset": 0,
   "target": 34962
  },
  {
   "buffer": 0,
   "byteLength": 240,
   "byteOffset": 240,
   "target": 34962
  },
  {
   "buffer": 0,
   "byteLength": 160,
   "byteOffset": 480,
   "target": 34962
  },
  {
   "buffer": 0,
   "byteLength": 60,
   "byteOffset": 640,
   "target": 34963
  }
 ],
 "samplers": [
  {
   "magFilter": 9729,
   "minFilter": 9987
  }
 ],
 "buffers": [
  {
   "byteLength": 700,
   "uri": "Prop_Drain.bin"
  }
 ]
}
