{
 "asset": {
  "generator": "Khronos glTF Blender I/O v5.2.40",
  "version": "2.0",
  "extras": {
   "exported_by": "blender/tools/export_building_kit.py",
   "module_scale": 0.91
  }
 },
 "scene": 0,
 "scenes": [
  {
   "extras": {
    "bk_kit": "quaternius_downtown_city",
    "bk_module_scale": 0.91,
    "bk_status": "OWNER: this file is the source of the kit's pieces. Edit a piece in its collection (origin = the piece's own origin + the collection's instance_offset), then run tools/building_kit/build_buildings.sh, which exports pieces/ with blender/tools/export_building_kit.py. A moved or resized piece is refused unless ACCEPT_BOUNDS=1."
   },
   "name": "Scene",
   "nodes": [
    0
   ]
  }
 ],
 "nodes": [
  {
   "mesh": 0,
   "name": "Brick_TopTrim_90Angle_R"
  }
 ],
 "materials": [
  {
   "doubleSided": true,
   "name": "MI_RedBrick_Pale",
   "normalTexture": {
    "index": 0
   },
   "pbrMetallicRoughness": {
    "baseColorTexture": {
     "index": 1
    },
    "metallicRoughnessTexture": {
     "index": 2
    }
   }
  },
  {
   "doubleSided": true,
   "name": "MI_Trim",
   "normalTexture": {
    "index": 3
   },
   "pbrMetallicRoughness": {
    "baseColorTexture": {
     "index": 4
    },
    "metallicRoughnessTexture": {
     "index": 5
    }
   }
  },
  {
   "doubleSided": true,
   "name": "MI_InteriorWall",
   "normalTexture": {
    "index": 6
   },
   "pbrMetallicRoughness": {
    "baseColorTexture": {
     "index": 7
    },
    "metallicRoughnessTexture": {
     "index": 8
    }
   }
  }
 ],
 "meshes": [
  {
   "name": "Cube.012",
   "primitives": [
    {
     "attributes": {
      "POSITION": 0,
      "NORMAL": 1,
      "TEXCOORD_0": 2,
      "TEXCOORD_1": 3,
      "COLOR_0": 4,
      "COLOR_1": 5
     },
     "indices": 6,
     "material": 0
    },
    {
     "attributes": {
      "POSITION": 7,
      "NORMAL": 8,
      "TEXCOORD_0": 9,
      "TEXCOORD_1": 10,
      "COLOR_0": 11,
      "COLOR_1": 12
     },
     "indices": 13,
     "material": 1
    },
    {
     "attributes": {
      "POSITION": 14,
      "NORMAL": 15,
      "TEXCOORD_0": 16,
      "TEXCOORD_1": 17,
      "COLOR_0": 18,
      "COLOR_1": 19
     },
     "indices": 20,
     "material": 2
    }
   ]
  }
 ],
 "textures": [
  {
   "sampler": 0,
   "source": 0
  },
  {
   "sampler": 0,
   "source": 1
  },
  {
   "sampler": 0,
   "source": 2
  },
  {
   "sampler": 0,
   "source": 3
  },
  {
   "sampler": 0,
   "source": 4
  },
  {
   "sampler": 0,
   "source": 5
  },
  {
   "sampler": 0,
   "source": 0
  },
  {
   "sampler": 0,
   "source": 1
  },
  {
   "sampler": 0,
   "source": 2
  }
 ],
 "images": [
  {
   "mimeType": "image/png",
   "name": "T_RedBrick_Normal",
   "uri": "../../textures/T_RedBrick_Normal.png"
  },
  {
   "mimeType": "image/png",
   "name": "T_RedBrick_BaseColor",
   "uri": "../../textures/T_RedBrick_BaseColor.png"
  },
  {
   "mimeType": "image/png",
   "name": "T_RedBrick_ORM",
   "uri": "../../textures/T_RedBrick_ORM.png"
  },
  {
   "mimeType": "image/png",
   "name": "T_Trim_Normal",
   "uri": "../../textures/T_Trim_Normal.png"
  },
  {
   "mimeType": "image/png",
   "name": "T_Trim_BaseColor",
   "uri": "../../textures/T_Trim_BaseColor.png"
  },
  {
   "mimeType": "image/png",
   "name": "T_Trim_ORM",
   "uri": "../../textures/T_Trim_ORM.png"
  }
 ],
 "accessors": [
  {
   "bufferView": 0,
   "componentType": 5126,
   "count": 32,
   "max": [
    0.9100000262260437,
    2.425917625427246,
    0
   ],
   "min": [
    0.26736071705818176,
    0,
    -0.546000063419342
   ],
   "type": "VEC3"
  },
  {
   "bufferView": 1,
   "componentType": 5126,
   "count": 32,
   "type": "VEC3"
  },
  {
   "bufferView": 2,
   "componentType": 5126,
   "count": 32,
   "type": "VEC2"
  },
  {
   "bufferView": 3,
   "componentType": 5126,
   "count": 32,
   "type": "VEC2"
  },
  {
   "bufferView": 4,
   "componentType": 5123,
   "count": 32,
   "normalized": true,
   "type": "VEC4"
  },
  {
   "bufferView": 5,
   "componentType": 5123,
   "count": 32,
   "normalized": true,
   "type": "VEC4"
  },
  {
   "bufferView": 6,
   "componentType": 5123,
   "count": 72,
   "type": "SCALAR"
  },
  {
   "bufferView": 7,
   "componentType": 5126,
   "count": 12,
   "max": [
    0.9100000262260437,
    2.7300000190734863,
    1.3560057077199872e-08
   ],
   "min": [
    0.26736071705818176,
    2.425917625427246,
    -0.5459999442100525
   ],
   "type": "VEC3"
  },
  {
   "bufferView": 8,
   "componentType": 5126,
   "count": 12,
   "type": "VEC3"
  },
  {
   "bufferView": 9,
   "componentType": 5126,
   "count": 12,
   "type": "VEC2"
  },
  {
   "bufferView": 10,
   "componentType": 5126,
   "count": 12,
   "type": "VEC2"
  },
  {
   "bufferView": 11,
   "componentType": 5123,
   "count": 12,
   "normalized": true,
   "type": "VEC4"
  },
  {
   "bufferView": 12,
   "componentType": 5123,
   "count": 12,
   "normalized": true,
   "type": "VEC4"
  },
  {
   "bufferView": 13,
   "componentType": 5123,
   "count": 24,
   "type": "SCALAR"
  },
  {
   "bufferView": 14,
   "componentType": 5126,
   "count": 10,
   "max": [
    0.9100000262260437,
    2.7300004959106445,
    -0.1820000857114792
   ],
   "min": [
    0.9100000262260437,
    0,
    -0.6369999647140503
   ],
   "type": "VEC3"
  },
  {
   "bufferView": 15,
   "componentType": 5126,
   "count": 10,
   "type": "VEC3"
  },
  {
   "bufferView": 16,
   "componentType": 5126,
   "count": 10,
   "type": "VEC2"
  },
  {
   "bufferView": 17,
   "componentType": 5126,
   "count": 10,
   "type": "VEC2"
  },
  {
   "bufferView": 18,
   "componentType": 5123,
   "count": 10,
   "normalized": true,
   "type": "VEC4"
  },
  {
   "bufferView": 19,
   "componentType": 5123,
   "count": 10,
   "normalized": true,
   "type": "VEC4"
  },
  {
   "bufferView": 20,
   "componentType": 5123,
   "count": 18,
   "type": "SCALAR"
  }
 ],
 "bufferViews": [
  {
   "buffer": 0,
   "byteLength": 384,
   "byteOffset": 0,
   "target": 34962
  },
  {
   "buffer": 0,
   "byteLength": 384,
   "byteOffset": 384,
   "target": 34962
  },
  {
   "buffer": 0,
   "byteLength": 256,
   "byteOffset": 768,
   "target": 34962
  },
  {
   "buffer": 0,
   "byteLength": 256,
   "byteOffset": 1024,
   "target": 34962
  },
  {
   "buffer": 0,
   "byteLength": 256,
   "byteOffset": 1280,
   "target": 34962
  },
  {
   "buffer": 0,
   "byteLength": 256,
   "byteOffset": 1536,
   "target": 34962
  },
  {
   "buffer": 0,
   "byteLength": 144,
   "byteOffset": 1792,
   "target": 34963
  },
  {
   "buffer": 0,
   "byteLength": 144,
   "byteOffset": 1936,
   "target": 34962
  },
  {
   "buffer": 0,
   "byteLength": 144,
   "byteOffset": 2080,
   "target": 34962
  },
  {
   "buffer": 0,
   "byteLength": 96,
   "byteOffset": 2224,
   "target": 34962
  },
  {
   "buffer": 0,
   "byteLength": 96,
   "byteOffset": 2320,
   "target": 34962
  },
  {
   "buffer": 0,
   "byteLength": 96,
   "byteOffset": 2416,
   "target": 34962
  },
  {
   "buffer": 0,
   "byteLength": 96,
   "byteOffset": 2512,
   "target": 34962
  },
  {
   "buffer": 0,
   "byteLength": 48,
   "byteOffset": 2608,
   "target": 34963
  },
  {
   "buffer": 0,
   "byteLength": 120,
   "byteOffset": 2656,
   "target": 34962
  },
  {
   "buffer": 0,
   "byteLength": 120,
   "byteOffset": 2776,
   "target": 34962
  },
  {
   "buffer": 0,
   "byteLength": 80,
   "byteOffset": 2896,
   "target": 34962
  },
  {
   "buffer": 0,
   "byteLength": 80,
   "byteOffset": 2976,
   "target": 34962
  },
  {
   "buffer": 0,
   "byteLength": 80,
   "byteOffset": 3056,
   "target": 34962
  },
  {
   "buffer": 0,
   "byteLength": 80,
   "byteOffset": 3136,
   "target": 34962
  },
  {
   "buffer": 0,
   "byteLength": 36,
   "byteOffset": 3216,
   "target": 34963
  }
 ],
 "samplers": [
  {
   "magFilter": 9729,
   "minFilter": 9987
  }
 ],
 "buffers": [
  {
   "byteLength": 3252,
   "uri": "Brick_TopTrim_90Angle_R.bin"
  }
 ]
}
