{
 "asset": {
  "generator": "Khronos glTF Blender I/O v5.2.40",
  "version": "2.0",
  "extras": {
   "exported_by": "blender/tools/export_building_kit.py",
   "module_scale": 0.91
  }
 },
 "scene": 0,
 "scenes": [
  {
   "extras": {
    "bk_kit": "quaternius_downtown_city",
    "bk_module_scale": 0.91,
    "bk_status": "OWNER: this file is the source of the kit's pieces. Edit a piece in its collection (origin = the piece's own origin + the collection's instance_offset), then run tools/building_kit/build_buildings.sh, which exports pieces/ with blender/tools/export_building_kit.py. A moved or resized piece is refused unless ACCEPT_BOUNDS=1."
   },
   "name": "Scene",
   "nodes": [
    0
   ]
  }
 ],
 "nodes": [
  {
   "mesh": 0,
   "name": "Brick_Window_Trim_Single"
  }
 ],
 "materials": [
  {
   "doubleSided": true,
   "name": "MI_RedBrick",
   "normalTexture": {
    "index": 0
   },
   "pbrMetallicRoughness": {
    "baseColorTexture": {
     "index": 1
    },
    "metallicRoughnessTexture": {
     "index": 2
    }
   }
  },
  {
   "doubleSided": true,
   "name": "MI_Trim",
   "normalTexture": {
    "index": 3
   },
   "pbrMetallicRoughness": {
    "baseColorTexture": {
     "index": 4
    },
    "metallicRoughnessTexture": {
     "index": 5
    }
   }
  },
  {
   "alphaMode": "BLEND",
   "doubleSided": true,
   "name": "MI_Glass",
   "pbrMetallicRoughness": {
    "baseColorFactor": [
     0.05215025693178177,
     0.05215025693178177,
     0.05215025693178177,
     0.586363673210144
    ],
    "metallicFactor": 0,
    "roughnessFactor": 0.5
   }
  },
  {
   "doubleSided": true,
   "name": "MI_FakeInterior",
   "pbrMetallicRoughness": {
    "baseColorFactor": [
     0.800000011920929,
     0.800000011920929,
     0.800000011920929,
     1
    ],
    "metallicFactor": 0,
    "roughnessFactor": 0.5
   }
  },
  {
   "doubleSided": true,
   "name": "MI_InteriorWall",
   "normalTexture": {
    "index": 6
   },
   "pbrMetallicRoughness": {
    "baseColorTexture": {
     "index": 7
    },
    "metallicRoughnessTexture": {
     "index": 8
    }
   }
  }
 ],
 "meshes": [
  {
   "name": "Cube.015",
   "primitives": [
    {
     "attributes": {
      "POSITION": 0,
      "NORMAL": 1,
      "TEXCOORD_0": 2,
      "TEXCOORD_1": 3,
      "COLOR_0": 4,
      "COLOR_1": 5
     },
     "indices": 6,
     "material": 0
    },
    {
     "attributes": {
      "POSITION": 7,
      "NORMAL": 8,
      "TEXCOORD_0": 9,
      "TEXCOORD_1": 10,
      "COLOR_0": 11,
      "COLOR_1": 12
     },
     "indices": 13,
     "material": 1
    },
    {
     "attributes": {
      "POSITION": 14,
      "NORMAL": 15,
      "TEXCOORD_0": 16,
      "TEXCOORD_1": 17,
      "COLOR_0": 18,
      "COLOR_1": 19
     },
     "indices": 20,
     "material": 2
    },
    {
     "attributes": {
      "POSITION": 21,
      "NORMAL": 22,
      "TEXCOORD_0": 23,
      "TEXCOORD_1": 24,
      "COLOR_0": 25,
      "COLOR_1": 26
     },
     "indices": 27,
     "material": 3
    },
    {
     "attributes": {
      "POSITION": 28,
      "NORMAL": 29,
      "TEXCOORD_0": 30,
      "TEXCOORD_1": 31,
      "COLOR_0": 32,
      "COLOR_1": 33
     },
     "indices": 34,
     "material": 4
    }
   ]
  }
 ],
 "textures": [
  {
   "sampler": 0,
   "source": 0
  },
  {
   "sampler": 0,
   "source": 1
  },
  {
   "sampler": 0,
   "source": 2
  },
  {
   "sampler": 0,
   "source": 3
  },
  {
   "sampler": 0,
   "source": 4
  },
  {
   "sampler": 0,
   "source": 5
  },
  {
   "sampler": 0,
   "source": 0
  },
  {
   "sampler": 0,
   "source": 1
  },
  {
   "sampler": 0,
   "source": 2
  }
 ],
 "images": [
  {
   "mimeType": "image/png",
   "name": "T_RedBrick_Normal",
   "uri": "../../textures/T_RedBrick_Normal.png"
  },
  {
   "mimeType": "image/png",
   "name": "T_RedBrick_BaseColor",
   "uri": "../../textures/T_RedBrick_BaseColor.png"
  },
  {
   "mimeType": "image/png",
   "name": "T_RedBrick_ORM",
   "uri": "../../textures/T_RedBrick_ORM.png"
  },
  {
   "mimeType": "image/png",
   "name": "T_Trim_Normal",
   "uri": "../../textures/T_Trim_Normal.png"
  },
  {
   "mimeType": "image/png",
   "name": "T_Trim_BaseColor",
   "uri": "../../textures/T_Trim_BaseColor.png"
  },
  {
   "mimeType": "image/png",
   "name": "T_Trim_ORM",
   "uri": "../../textures/T_Trim_ORM.png"
  }
 ],
 "accessors": [
  {
   "bufferView": 0,
   "componentType": 5126,
   "count": 204,
   "max": [
    0.9100000262260437,
    2.7300000190734863,
    0.02635687030851841
   ],
   "min": [
    -0.9100000262260437,
    0,
    -0.16956616938114166
   ],
   "type": "VEC3"
  },
  {
   "bufferView": 1,
   "componentType": 5126,
   "count": 204,
   "type": "VEC3"
  },
  {
   "bufferView": 2,
   "componentType": 5126,
   "count": 204,
   "type": "VEC2"
  },
  {
   "bufferView": 3,
   "componentType": 5126,
   "count": 204,
   "type": "VEC2"
  },
  {
   "bufferView": 4,
   "componentType": 5123,
   "count": 204,
   "normalized": true,
   "type": "VEC4"
  },
  {
   "bufferView": 5,
   "componentType": 5123,
   "count": 204,
   "normalized": true,
   "type": "VEC4"
  },
  {
   "bufferView": 6,
   "componentType": 5123,
   "count": 510,
   "type": "SCALAR"
  },
  {
   "bufferView": 7,
   "componentType": 5126,
   "count": 382,
   "max": [
    0.6619133949279785,
    2.2840933799743652,
    0.04038418084383011
   ],
   "min": [
    -0.6619133949279785,
    0.39129921793937683,
    -0.21156063675880432
   ],
   "type": "VEC3"
  },
  {
   "bufferView": 8,
   "componentType": 5126,
   "count": 382,
   "type": "VEC3"
  },
  {
   "bufferView": 9,
   "componentType": 5126,
   "count": 382,
   "type": "VEC2"
  },
  {
   "bufferView": 10,
   "componentType": 5126,
   "count": 382,
   "type": "VEC2"
  },
  {
   "bufferView": 11,
   "componentType": 5123,
   "count": 382,
   "normalized": true,
   "type": "VEC4"
  },
  {
   "bufferView": 12,
   "componentType": 5123,
   "count": 382,
   "normalized": true,
   "type": "VEC4"
  },
  {
   "bufferView": 13,
   "componentType": 5123,
   "count": 690,
   "type": "SCALAR"
  },
  {
   "bufferView": 14,
   "componentType": 5126,
   "count": 12,
   "max": [
    0.2066311240196228,
    1.7226192951202393,
    -0.16268840432167053
   ],
   "min": [
    -0.2066311240196228,
    0.5374922752380371,
    -0.16268840432167053
   ],
   "type": "VEC3"
  },
  {
   "bufferView": 15,
   "componentType": 5126,
   "count": 12,
   "type": "VEC3"
  },
  {
   "bufferView": 16,
   "componentType": 5126,
   "count": 12,
   "type": "VEC2"
  },
  {
   "bufferView": 17,
   "componentType": 5126,
   "count": 12,
   "type": "VEC2"
  },
  {
   "bufferView": 18,
   "componentType": 5123,
   "count": 12,
   "normalized": true,
   "type": "VEC4"
  },
  {
   "bufferView": 19,
   "componentType": 5123,
   "count": 12,
   "normalized": true,
   "type": "VEC4"
  },
  {
   "bufferView": 20,
   "componentType": 5123,
   "count": 24,
   "type": "SCALAR"
  },
  {
   "bufferView": 21,
   "componentType": 5126,
   "count": 4,
   "max": [
    0.8868441581726074,
    2.6168644428253174,
    -0.17447496950626373
   ],
   "min": [
    -0.8868441581726074,
    0.08696085959672928,
    -0.17447496950626373
   ],
   "type": "VEC3"
  },
  {
   "bufferView": 22,
   "componentType": 5126,
   "count": 4,
   "type": "VEC3"
  },
  {
   "bufferView": 23,
   "componentType": 5126,
   "count": 4,
   "type": "VEC2"
  },
  {
   "bufferView": 24,
   "componentType": 5126,
   "count": 4,
   "type": "VEC2"
  },
  {
   "bufferView": 25,
   "componentType": 5123,
   "count": 4,
   "normalized": true,
   "type": "VEC4"
  },
  {
   "bufferView": 26,
   "componentType": 5123,
   "count": 4,
   "normalized": true,
   "type": "VEC4"
  },
  {
   "bufferView": 27,
   "componentType": 5123,
   "count": 6,
   "type": "SCALAR"
  },
  {
   "bufferView": 28,
   "componentType": 5126,
   "count": 21,
   "max": [
    0.9100000262260437,
    2.7300004959106445,
    -0.1820000857114792
   ],
   "min": [
    -0.9100000262260437,
    0,
    -0.18200010061264038
   ],
   "type": "VEC3"
  },
  {
   "bufferView": 29,
   "componentType": 5126,
   "count": 21,
   "type": "VEC3"
  },
  {
   "bufferView": 30,
   "componentType": 5126,
   "count": 21,
   "type": "VEC2"
  },
  {
   "bufferView": 31,
   "componentType": 5126,
   "count": 21,
   "type": "VEC2"
  },
  {
   "bufferView": 32,
   "componentType": 5123,
   "count": 21,
   "normalized": true,
   "type": "VEC4"
  },
  {
   "bufferView": 33,
   "componentType": 5123,
   "count": 21,
   "normalized": true,
   "type": "VEC4"
  },
  {
   "bufferView": 34,
   "componentType": 5123,
   "count": 48,
   "type": "SCALAR"
  }
 ],
 "bufferViews": [
  {
   "buffer": 0,
   "byteLength": 2448,
   "byteOffset": 0,
   "target": 34962
  },
  {
   "buffer": 0,
   "byteLength": 2448,
   "byteOffset": 2448,
   "target": 34962
  },
  {
   "buffer": 0,
   "byteLength": 1632,
   "byteOffset": 4896,
   "target": 34962
  },
  {
   "buffer": 0,
   "byteLength": 1632,
   "byteOffset": 6528,
   "target": 34962
  },
  {
   "buffer": 0,
   "byteLength": 1632,
   "byteOffset": 8160,
   "target": 34962
  },
  {
   "buffer": 0,
   "byteLength": 1632,
   "byteOffset": 9792,
   "target": 34962
  },
  {
   "buffer": 0,
   "byteLength": 1020,
   "byteOffset": 11424,
   "target": 34963
  },
  {
   "buffer": 0,
   "byteLength": 4584,
   "byteOffset": 12444,
   "target": 34962
  },
  {
   "buffer": 0,
   "byteLength": 4584,
   "byteOffset": 17028,
   "target": 34962
  },
  {
   "buffer": 0,
   "byteLength": 3056,
   "byteOffset": 21612,
   "target": 34962
  },
  {
   "buffer": 0,
   "byteLength": 3056,
   "byteOffset": 24668,
   "target": 34962
  },
  {
   "buffer": 0,
   "byteLength": 3056,
   "byteOffset": 27724,
   "target": 34962
  },
  {
   "buffer": 0,
   "byteLength": 3056,
   "byteOffset": 30780,
   "target": 34962
  },
  {
   "buffer": 0,
   "byteLength": 1380,
   "byteOffset": 33836,
   "target": 34963
  },
  {
   "buffer": 0,
   "byteLength": 144,
   "byteOffset": 35216,
   "target": 34962
  },
  {
   "buffer": 0,
   "byteLength": 144,
   "byteOffset": 35360,
   "target": 34962
  },
  {
   "buffer": 0,
   "byteLength": 96,
   "byteOffset": 35504,
   "target": 34962
  },
  {
   "buffer": 0,
   "byteLength": 96,
   "byteOffset": 35600,
   "target": 34962
  },
  {
   "buffer": 0,
   "byteLength": 96,
   "byteOffset": 35696,
   "target": 34962
  },
  {
   "buffer": 0,
   "byteLength": 96,
   "byteOffset": 35792,
   "target": 34962
  },
  {
   "buffer": 0,
   "byteLength": 48,
   "byteOffset": 35888,
   "target": 34963
  },
  {
   "buffer": 0,
   "byteLength": 48,
   "byteOffset": 35936,
   "target": 34962
  },
  {
   "buffer": 0,
   "byteLength": 48,
   "byteOffset": 35984,
   "target": 34962
  },
  {
   "buffer": 0,
   "byteLength": 32,
   "byteOffset": 36032,
   "target": 34962
  },
  {
   "buffer": 0,
   "byteLength": 32,
   "byteOffset": 36064,
   "target": 34962
  },
  {
   "buffer": 0,
   "byteLength": 32,
   "byteOffset": 36096,
   "target": 34962
  },
  {
   "buffer": 0,
   "byteLength": 32,
   "byteOffset": 36128,
   "target": 34962
  },
  {
   "buffer": 0,
   "byteLength": 12,
   "byteOffset": 36160,
   "target": 34963
  },
  {
   "buffer": 0,
   "byteLength": 252,
   "byteOffset": 36172,
   "target": 34962
  },
  {
   "buffer": 0,
   "byteLength": 252,
   "byteOffset": 36424,
   "target": 34962
  },
  {
   "buffer": 0,
   "byteLength": 168,
   "byteOffset": 36676,
   "target": 34962
  },
  {
   "buffer": 0,
   "byteLength": 168,
   "byteOffset": 36844,
   "target": 34962
  },
  {
   "buffer": 0,
   "byteLength": 168,
   "byteOffset": 37012,
   "target": 34962
  },
  {
   "buffer": 0,
   "byteLength": 168,
   "byteOffset": 37180,
   "target": 34962
  },
  {
   "buffer": 0,
   "byteLength": 96,
   "byteOffset": 37348,
   "target": 34963
  }
 ],
 "samplers": [
  {
   "magFilter": 9729,
   "minFilter": 9987
  }
 ],
 "buffers": [
  {
   "byteLength": 37444,
   "uri": "Brick_Window_Trim_Single.bin"
  }
 ]
}
