{
 "asset": {
  "generator": "Khronos glTF Blender I/O v5.2.40",
  "version": "2.0",
  "extras": {
   "exported_by": "blender/tools/export_building_kit.py",
   "module_scale": 0.91
  }
 },
 "scene": 0,
 "scenes": [
  {
   "extras": {
    "bk_kit": "quaternius_downtown_city",
    "bk_module_scale": 0.91,
    "bk_status": "OWNER: this file is the source of the kit's pieces. Edit a piece in its collection (origin = the piece's own origin + the collection's instance_offset), then run tools/building_kit/build_buildings.sh, which exports pieces/ with blender/tools/export_building_kit.py. A moved or resized piece is refused unless ACCEPT_BOUNDS=1."
   },
   "name": "Scene",
   "nodes": [
    0
   ]
  }
 ],
 "nodes": [
  {
   "mesh": 0,
   "name": "Brick_Window_CurvedDouble"
  }
 ],
 "materials": [
  {
   "doubleSided": true,
   "name": "MI_RedBrick_Pale",
   "normalTexture": {
    "index": 0
   },
   "pbrMetallicRoughness": {
    "baseColorTexture": {
     "index": 1
    },
    "metallicRoughnessTexture": {
     "index": 2
    }
   }
  },
  {
   "doubleSided": true,
   "name": "MI_InteriorWall",
   "normalTexture": {
    "index": 3
   },
   "pbrMetallicRoughness": {
    "baseColorTexture": {
     "index": 4
    },
    "metallicRoughnessTexture": {
     "index": 5
    }
   }
  },
  {
   "doubleSided": true,
   "name": "MI_Trim_MetalConcrete",
   "normalTexture": {
    "index": 6
   },
   "pbrMetallicRoughness": {
    "baseColorTexture": {
     "index": 7
    },
    "metallicRoughnessTexture": {
     "index": 8
    }
   }
  },
  {
   "alphaMode": "BLEND",
   "doubleSided": true,
   "name": "MI_Glass",
   "pbrMetallicRoughness": {
    "baseColorFactor": [
     0.05215025693178177,
     0.05215025693178177,
     0.05215025693178177,
     0.586363673210144
    ],
    "metallicFactor": 0,
    "roughnessFactor": 0.5
   }
  },
  {
   "doubleSided": true,
   "name": "MI_FakeInterior",
   "pbrMetallicRoughness": {
    "baseColorFactor": [
     0.800000011920929,
     0.800000011920929,
     0.800000011920929,
     1
    ],
    "metallicFactor": 0,
    "roughnessFactor": 0.5
   }
  }
 ],
 "meshes": [
  {
   "name": "Cube.240",
   "primitives": [
    {
     "attributes": {
      "POSITION": 0,
      "NORMAL": 1,
      "TEXCOORD_0": 2,
      "TEXCOORD_1": 3,
      "COLOR_0": 4
     },
     "indices": 5,
     "material": 0
    },
    {
     "attributes": {
      "POSITION": 6,
      "NORMAL": 7,
      "TEXCOORD_0": 8,
      "TEXCOORD_1": 9,
      "COLOR_0": 10
     },
     "indices": 11,
     "material": 1
    },
    {
     "attributes": {
      "POSITION": 12,
      "NORMAL": 13,
      "TEXCOORD_0": 14,
      "TEXCOORD_1": 15,
      "COLOR_0": 16
     },
     "indices": 17,
     "material": 2
    },
    {
     "attributes": {
      "POSITION": 18,
      "NORMAL": 19,
      "TEXCOORD_0": 20,
      "TEXCOORD_1": 21,
      "COLOR_0": 22
     },
     "indices": 23,
     "material": 3
    },
    {
     "attributes": {
      "POSITION": 24,
      "NORMAL": 25,
      "TEXCOORD_0": 26,
      "TEXCOORD_1": 27,
      "COLOR_0": 28
     },
     "indices": 29,
     "material": 4
    }
   ]
  }
 ],
 "textures": [
  {
   "sampler": 0,
   "source": 0
  },
  {
   "sampler": 0,
   "source": 1
  },
  {
   "sampler": 0,
   "source": 2
  },
  {
   "sampler": 0,
   "source": 0
  },
  {
   "sampler": 0,
   "source": 1
  },
  {
   "sampler": 0,
   "source": 2
  },
  {
   "sampler": 0,
   "source": 3
  },
  {
   "sampler": 0,
   "source": 4
  },
  {
   "sampler": 0,
   "source": 5
  }
 ],
 "images": [
  {
   "mimeType": "image/png",
   "name": "T_RedBrick_Normal",
   "uri": "../../textures/T_RedBrick_Normal.png"
  },
  {
   "mimeType": "image/png",
   "name": "T_RedBrick_BaseColor",
   "uri": "../../textures/T_RedBrick_BaseColor.png"
  },
  {
   "mimeType": "image/png",
   "name": "T_RedBrick_ORM",
   "uri": "../../textures/T_RedBrick_ORM.png"
  },
  {
   "mimeType": "image/png",
   "name": "T_MetalConcrete_Normal",
   "uri": "../../textures/T_MetalConcrete_Normal.png"
  },
  {
   "mimeType": "image/png",
   "name": "T_MetalConcrete_BaseColor",
   "uri": "../../textures/T_MetalConcrete_BaseColor.png"
  },
  {
   "mimeType": "image/png",
   "name": "T_MetalConcrete_ORM",
   "uri": "../../textures/T_MetalConcrete_ORM.png"
  }
 ],
 "accessors": [
  {
   "bufferView": 0,
   "componentType": 5126,
   "count": 126,
   "max": [
    1.8200000524520874,
    2.7300000190734863,
    1.193320855463753e-07
   ],
   "min": [
    -1.8200000524520874,
    0,
    -0.15003450214862823
   ],
   "type": "VEC3"
  },
  {
   "bufferView": 1,
   "componentType": 5126,
   "count": 126,
   "type": "VEC3"
  },
  {
   "bufferView": 2,
   "componentType": 5126,
   "count": 126,
   "type": "VEC2"
  },
  {
   "bufferView": 3,
   "componentType": 5126,
   "count": 126,
   "type": "VEC2"
  },
  {
   "bufferView": 4,
   "componentType": 5123,
   "count": 126,
   "normalized": true,
   "type": "VEC4"
  },
  {
   "bufferView": 5,
   "componentType": 5123,
   "count": 288,
   "type": "SCALAR"
  },
  {
   "bufferView": 6,
   "componentType": 5126,
   "count": 28,
   "max": [
    1.8200000524520874,
    2.7300004959106445,
    -0.182000070810318
   ],
   "min": [
    -1.8200000524520874,
    0,
    -0.1820000857114792
   ],
   "type": "VEC3"
  },
  {
   "bufferView": 7,
   "componentType": 5126,
   "count": 28,
   "type": "VEC3"
  },
  {
   "bufferView": 8,
   "componentType": 5126,
   "count": 28,
   "type": "VEC2"
  },
  {
   "bufferView": 9,
   "componentType": 5126,
   "count": 28,
   "type": "VEC2"
  },
  {
   "bufferView": 10,
   "componentType": 5123,
   "count": 28,
   "normalized": true,
   "type": "VEC4"
  },
  {
   "bufferView": 11,
   "componentType": 5123,
   "count": 60,
   "type": "SCALAR"
  },
  {
   "bufferView": 12,
   "componentType": 5126,
   "count": 1481,
   "max": [
    1.1189547777175903,
    2.318957567214966,
    -0.11387811601161957
   ],
   "min": [
    -1.116117238998413,
    0.4397749602794647,
    -0.23706170916557312
   ],
   "type": "VEC3"
  },
  {
   "bufferView": 13,
   "componentType": 5126,
   "count": 1481,
   "type": "VEC3"
  },
  {
   "bufferView": 14,
   "componentType": 5126,
   "count": 1481,
   "type": "VEC2"
  },
  {
   "bufferView": 15,
   "componentType": 5126,
   "count": 1481,
   "type": "VEC2"
  },
  {
   "bufferView": 16,
   "componentType": 5123,
   "count": 1481,
   "normalized": true,
   "type": "VEC4"
  },
  {
   "bufferView": 17,
   "componentType": 5123,
   "count": 2985,
   "type": "SCALAR"
  },
  {
   "bufferView": 18,
   "componentType": 5126,
   "count": 48,
   "max": [
    1.0503873825073242,
    1.958756923675537,
    -0.17445600032806396
   ],
   "min": [
    -1.0503871440887451,
    0.512457549571991,
    -0.17445611953735352
   ],
   "type": "VEC3"
  },
  {
   "bufferView": 19,
   "componentType": 5126,
   "count": 48,
   "type": "VEC3"
  },
  {
   "bufferView": 20,
   "componentType": 5126,
   "count": 48,
   "type": "VEC2"
  },
  {
   "bufferView": 21,
   "componentType": 5126,
   "count": 48,
   "type": "VEC2"
  },
  {
   "bufferView": 22,
   "componentType": 5123,
   "count": 48,
   "normalized": true,
   "type": "VEC4"
  },
  {
   "bufferView": 23,
   "componentType": 5123,
   "count": 72,
   "type": "SCALAR"
  },
  {
   "bufferView": 24,
   "componentType": 5126,
   "count": 4,
   "max": [
    1.2976826429367065,
    2.6168644428253174,
    -0.17927056550979614
   ],
   "min": [
    -1.2976826429367065,
    0.08696085959672928,
    -0.17927056550979614
   ],
   "type": "VEC3"
  },
  {
   "bufferView": 25,
   "componentType": 5126,
   "count": 4,
   "type": "VEC3"
  },
  {
   "bufferView": 26,
   "componentType": 5126,
   "count": 4,
   "type": "VEC2"
  },
  {
   "bufferView": 27,
   "componentType": 5126,
   "count": 4,
   "type": "VEC2"
  },
  {
   "bufferView": 28,
   "componentType": 5123,
   "count": 4,
   "normalized": true,
   "type": "VEC4"
  },
  {
   "bufferView": 29,
   "componentType": 5123,
   "count": 6,
   "type": "SCALAR"
  }
 ],
 "bufferViews": [
  {
   "buffer": 0,
   "byteLength": 1512,
   "byteOffset": 0,
   "target": 34962
  },
  {
   "buffer": 0,
   "byteLength": 1512,
   "byteOffset": 1512,
   "target": 34962
  },
  {
   "buffer": 0,
   "byteLength": 1008,
   "byteOffset": 3024,
   "target": 34962
  },
  {
   "buffer": 0,
   "byteLength": 1008,
   "byteOffset": 4032,
   "target": 34962
  },
  {
   "buffer": 0,
   "byteLength": 1008,
   "byteOffset": 5040,
   "target": 34962
  },
  {
   "buffer": 0,
   "byteLength": 576,
   "byteOffset": 6048,
   "target": 34963
  },
  {
   "buffer": 0,
   "byteLength": 336,
   "byteOffset": 6624,
   "target": 34962
  },
  {
   "buffer": 0,
   "byteLength": 336,
   "byteOffset": 6960,
   "target": 34962
  },
  {
   "buffer": 0,
   "byteLength": 224,
   "byteOffset": 7296,
   "target": 34962
  },
  {
   "buffer": 0,
   "byteLength": 224,
   "byteOffset": 7520,
   "target": 34962
  },
  {
   "buffer": 0,
   "byteLength": 224,
   "byteOffset": 7744,
   "target": 34962
  },
  {
   "buffer": 0,
   "byteLength": 120,
   "byteOffset": 7968,
   "target": 34963
  },
  {
   "buffer": 0,
   "byteLength": 17772,
   "byteOffset": 8088,
   "target": 34962
  },
  {
   "buffer": 0,
   "byteLength": 17772,
   "byteOffset": 25860,
   "target": 34962
  },
  {
   "buffer": 0,
   "byteLength": 11848,
   "byteOffset": 43632,
   "target": 34962
  },
  {
   "buffer": 0,
   "byteLength": 11848,
   "byteOffset": 55480,
   "target": 34962
  },
  {
   "buffer": 0,
   "byteLength": 11848,
   "byteOffset": 67328,
   "target": 34962
  },
  {
   "buffer": 0,
   "byteLength": 5970,
   "byteOffset": 79176,
   "target": 34963
  },
  {
   "buffer": 0,
   "byteLength": 576,
   "byteOffset": 85148,
   "target": 34962
  },
  {
   "buffer": 0,
   "byteLength": 576,
   "byteOffset": 85724,
   "target": 34962
  },
  {
   "buffer": 0,
   "byteLength": 384,
   "byteOffset": 86300,
   "target": 34962
  },
  {
   "buffer": 0,
   "byteLength": 384,
   "byteOffset": 86684,
   "target": 34962
  },
  {
   "buffer": 0,
   "byteLength": 384,
   "byteOffset": 87068,
   "target": 34962
  },
  {
   "buffer": 0,
   "byteLength": 144,
   "byteOffset": 87452,
   "target": 34963
  },
  {
   "buffer": 0,
   "byteLength": 48,
   "byteOffset": 87596,
   "target": 34962
  },
  {
   "buffer": 0,
   "byteLength": 48,
   "byteOffset": 87644,
   "target": 34962
  },
  {
   "buffer": 0,
   "byteLength": 32,
   "byteOffset": 87692,
   "target": 34962
  },
  {
   "buffer": 0,
   "byteLength": 32,
   "byteOffset": 87724,
   "target": 34962
  },
  {
   "buffer": 0,
   "byteLength": 32,
   "byteOffset": 87756,
   "target": 34962
  },
  {
   "buffer": 0,
   "byteLength": 12,
   "byteOffset": 87788,
   "target": 34963
  }
 ],
 "samplers": [
  {
   "magFilter": 9729,
   "minFilter": 9987
  }
 ],
 "buffers": [
  {
   "byteLength": 87800,
   "uri": "Brick_Window_CurvedDouble.bin"
  }
 ]
}
