{
 "asset": {
  "generator": "Khronos glTF Blender I/O v5.2.40",
  "version": "2.0",
  "extras": {
   "exported_by": "blender/tools/export_building_kit.py",
   "module_scale": 0.91
  }
 },
 "scene": 0,
 "scenes": [
  {
   "extras": {
    "bk_kit": "quaternius_downtown_city",
    "bk_module_scale": 0.91,
    "bk_status": "OWNER: this file is the source of the kit's pieces. Edit a piece in its collection (origin = the piece's own origin + the collection's instance_offset), then run tools/building_kit/build_buildings.sh, which exports pieces/ with blender/tools/export_building_kit.py. A moved or resized piece is refused unless ACCEPT_BOUNDS=1."
   },
   "name": "Scene",
   "nodes": [
    0
   ]
  }
 ],
 "nodes": [
  {
   "mesh": 0,
   "name": "Brick_Window_Trim"
  }
 ],
 "materials": [
  {
   "doubleSided": true,
   "name": "MI_RedBrick",
   "normalTexture": {
    "index": 0
   },
   "pbrMetallicRoughness": {
    "baseColorTexture": {
     "index": 1
    },
    "metallicRoughnessTexture": {
     "index": 2
    }
   }
  },
  {
   "doubleSided": true,
   "name": "MI_Trim",
   "normalTexture": {
    "index": 3
   },
   "pbrMetallicRoughness": {
    "baseColorTexture": {
     "index": 4
    },
    "metallicRoughnessTexture": {
     "index": 5
    }
   }
  },
  {
   "alphaMode": "BLEND",
   "doubleSided": true,
   "name": "MI_Glass",
   "pbrMetallicRoughness": {
    "baseColorFactor": [
     0.05215025693178177,
     0.05215025693178177,
     0.05215025693178177,
     0.586363673210144
    ],
    "metallicFactor": 0,
    "roughnessFactor": 0.5
   }
  },
  {
   "doubleSided": true,
   "name": "MI_FakeInterior",
   "pbrMetallicRoughness": {
    "baseColorFactor": [
     0.800000011920929,
     0.800000011920929,
     0.800000011920929,
     1
    ],
    "metallicFactor": 0,
    "roughnessFactor": 0.5
   }
  },
  {
   "doubleSided": true,
   "name": "MI_InteriorWall",
   "normalTexture": {
    "index": 6
   },
   "pbrMetallicRoughness": {
    "baseColorTexture": {
     "index": 7
    },
    "metallicRoughnessTexture": {
     "index": 8
    }
   }
  }
 ],
 "meshes": [
  {
   "name": "Cube.10030",
   "primitives": [
    {
     "attributes": {
      "POSITION": 0,
      "NORMAL": 1,
      "TEXCOORD_0": 2,
      "TEXCOORD_1": 3,
      "TEXCOORD_2": 4,
      "COLOR_0": 5,
      "COLOR_1": 6
     },
     "indices": 7,
     "material": 0
    },
    {
     "attributes": {
      "POSITION": 8,
      "NORMAL": 9,
      "TEXCOORD_0": 10,
      "TEXCOORD_1": 11,
      "TEXCOORD_2": 12,
      "COLOR_0": 13,
      "COLOR_1": 14
     },
     "indices": 15,
     "material": 1
    },
    {
     "attributes": {
      "POSITION": 16,
      "NORMAL": 17,
      "TEXCOORD_0": 18,
      "TEXCOORD_1": 19,
      "TEXCOORD_2": 20,
      "COLOR_0": 21,
      "COLOR_1": 22
     },
     "indices": 23,
     "material": 2
    },
    {
     "attributes": {
      "POSITION": 24,
      "NORMAL": 25,
      "TEXCOORD_0": 26,
      "TEXCOORD_1": 27,
      "TEXCOORD_2": 28,
      "COLOR_0": 29,
      "COLOR_1": 30
     },
     "indices": 31,
     "material": 3
    },
    {
     "attributes": {
      "POSITION": 32,
      "NORMAL": 33,
      "TEXCOORD_0": 34,
      "TEXCOORD_1": 35,
      "TEXCOORD_2": 36,
      "COLOR_0": 37,
      "COLOR_1": 38
     },
     "indices": 39,
     "material": 4
    }
   ]
  }
 ],
 "textures": [
  {
   "sampler": 0,
   "source": 0
  },
  {
   "sampler": 0,
   "source": 1
  },
  {
   "sampler": 0,
   "source": 2
  },
  {
   "sampler": 0,
   "source": 3
  },
  {
   "sampler": 0,
   "source": 4
  },
  {
   "sampler": 0,
   "source": 5
  },
  {
   "sampler": 0,
   "source": 0
  },
  {
   "sampler": 0,
   "source": 1
  },
  {
   "sampler": 0,
   "source": 2
  }
 ],
 "images": [
  {
   "mimeType": "image/png",
   "name": "T_RedBrick_Normal",
   "uri": "../../textures/T_RedBrick_Normal.png"
  },
  {
   "mimeType": "image/png",
   "name": "T_RedBrick_BaseColor",
   "uri": "../../textures/T_RedBrick_BaseColor.png"
  },
  {
   "mimeType": "image/png",
   "name": "T_RedBrick_ORM",
   "uri": "../../textures/T_RedBrick_ORM.png"
  },
  {
   "mimeType": "image/png",
   "name": "T_Trim_Normal",
   "uri": "../../textures/T_Trim_Normal.png"
  },
  {
   "mimeType": "image/png",
   "name": "T_Trim_BaseColor",
   "uri": "../../textures/T_Trim_BaseColor.png"
  },
  {
   "mimeType": "image/png",
   "name": "T_Trim_ORM",
   "uri": "../../textures/T_Trim_ORM.png"
  }
 ],
 "accessors": [
  {
   "bufferView": 0,
   "componentType": 5126,
   "count": 68,
   "max": [
    0.9100000262260437,
    2.7300000190734863,
    1.193320855463753e-07
   ],
   "min": [
    -0.9100000262260437,
    0,
    -0.14449498057365417
   ],
   "type": "VEC3"
  },
  {
   "bufferView": 1,
   "componentType": 5126,
   "count": 68,
   "type": "VEC3"
  },
  {
   "bufferView": 2,
   "componentType": 5126,
   "count": 68,
   "type": "VEC2"
  },
  {
   "bufferView": 3,
   "componentType": 5126,
   "count": 68,
   "type": "VEC2"
  },
  {
   "bufferView": 4,
   "componentType": 5126,
   "count": 68,
   "type": "VEC2"
  },
  {
   "bufferView": 5,
   "componentType": 5123,
   "count": 68,
   "normalized": true,
   "type": "VEC4"
  },
  {
   "bufferView": 6,
   "componentType": 5123,
   "count": 68,
   "normalized": true,
   "type": "VEC4"
  },
  {
   "bufferView": 7,
   "componentType": 5123,
   "count": 144,
   "type": "SCALAR"
  },
  {
   "bufferView": 8,
   "componentType": 5126,
   "count": 882,
   "max": [
    0.6565473675727844,
    2.714365005493164,
    0.04289521276950836
   ],
   "min": [
    -0.6565473675727844,
    0,
    -0.23370377719402313
   ],
   "type": "VEC3"
  },
  {
   "bufferView": 9,
   "componentType": 5126,
   "count": 882,
   "type": "VEC3"
  },
  {
   "bufferView": 10,
   "componentType": 5126,
   "count": 882,
   "type": "VEC2"
  },
  {
   "bufferView": 11,
   "componentType": 5126,
   "count": 882,
   "type": "VEC2"
  },
  {
   "bufferView": 12,
   "componentType": 5126,
   "count": 882,
   "type": "VEC2"
  },
  {
   "bufferView": 13,
   "componentType": 5123,
   "count": 882,
   "normalized": true,
   "type": "VEC4"
  },
  {
   "bufferView": 14,
   "componentType": 5123,
   "count": 882,
   "normalized": true,
   "type": "VEC4"
  },
  {
   "bufferView": 15,
   "componentType": 5123,
   "count": 1686,
   "type": "SCALAR"
  },
  {
   "bufferView": 16,
   "componentType": 5126,
   "count": 48,
   "max": [
    0.45138221979141235,
    2.11545991897583,
    -0.18196415901184082
   ],
   "min": [
    -0.45278796553611755,
    0.28587543964385986,
    -0.18196415901184082
   ],
   "type": "VEC3"
  },
  {
   "bufferView": 17,
   "componentType": 5126,
   "count": 48,
   "type": "VEC3"
  },
  {
   "bufferView": 18,
   "componentType": 5126,
   "count": 48,
   "type": "VEC2"
  },
  {
   "bufferView": 19,
   "componentType": 5126,
   "count": 48,
   "type": "VEC2"
  },
  {
   "bufferView": 20,
   "componentType": 5126,
   "count": 48,
   "type": "VEC2"
  },
  {
   "bufferView": 21,
   "componentType": 5123,
   "count": 48,
   "normalized": true,
   "type": "VEC4"
  },
  {
   "bufferView": 22,
   "componentType": 5123,
   "count": 48,
   "normalized": true,
   "type": "VEC4"
  },
  {
   "bufferView": 23,
   "componentType": 5123,
   "count": 72,
   "type": "SCALAR"
  },
  {
   "bufferView": 24,
   "componentType": 5126,
   "count": 4,
   "max": [
    0.8355998992919922,
    2.6168644428253174,
    -0.17603357136249542
   ],
   "min": [
    -0.8355998992919922,
    0.08696085959672928,
    -0.17603357136249542
   ],
   "type": "VEC3"
  },
  {
   "bufferView": 25,
   "componentType": 5126,
   "count": 4,
   "type": "VEC3"
  },
  {
   "bufferView": 26,
   "componentType": 5126,
   "count": 4,
   "type": "VEC2"
  },
  {
   "bufferView": 27,
   "componentType": 5126,
   "count": 4,
   "type": "VEC2"
  },
  {
   "bufferView": 28,
   "componentType": 5126,
   "count": 4,
   "type": "VEC2"
  },
  {
   "bufferView": 29,
   "componentType": 5123,
   "count": 4,
   "normalized": true,
   "type": "VEC4"
  },
  {
   "bufferView": 30,
   "componentType": 5123,
   "count": 4,
   "normalized": true,
   "type": "VEC4"
  },
  {
   "bufferView": 31,
   "componentType": 5123,
   "count": 6,
   "type": "SCALAR"
  },
  {
   "bufferView": 32,
   "componentType": 5126,
   "count": 20,
   "max": [
    0.9100000262260437,
    2.7300004959106445,
    -0.182000070810318
   ],
   "min": [
    -0.9100000262260437,
    0,
    -0.1820000857114792
   ],
   "type": "VEC3"
  },
  {
   "bufferView": 33,
   "componentType": 5126,
   "count": 20,
   "type": "VEC3"
  },
  {
   "bufferView": 34,
   "componentType": 5126,
   "count": 20,
   "type": "VEC2"
  },
  {
   "bufferView": 35,
   "componentType": 5126,
   "count": 20,
   "type": "VEC2"
  },
  {
   "bufferView": 36,
   "componentType": 5126,
   "count": 20,
   "type": "VEC2"
  },
  {
   "bufferView": 37,
   "componentType": 5123,
   "count": 20,
   "normalized": true,
   "type": "VEC4"
  },
  {
   "bufferView": 38,
   "componentType": 5123,
   "count": 20,
   "normalized": true,
   "type": "VEC4"
  },
  {
   "bufferView": 39,
   "componentType": 5123,
   "count": 48,
   "type": "SCALAR"
  }
 ],
 "bufferViews": [
  {
   "buffer": 0,
   "byteLength": 816,
   "byteOffset": 0,
   "target": 34962
  },
  {
   "buffer": 0,
   "byteLength": 816,
   "byteOffset": 816,
   "target": 34962
  },
  {
   "buffer": 0,
   "byteLength": 544,
   "byteOffset": 1632,
   "target": 34962
  },
  {
   "buffer": 0,
   "byteLength": 544,
   "byteOffset": 2176,
   "target": 34962
  },
  {
   "buffer": 0,
   "byteLength": 544,
   "byteOffset": 2720,
   "target": 34962
  },
  {
   "buffer": 0,
   "byteLength": 544,
   "byteOffset": 3264,
   "target": 34962
  },
  {
   "buffer": 0,
   "byteLength": 544,
   "byteOffset": 3808,
   "target": 34962
  },
  {
   "buffer": 0,
   "byteLength": 288,
   "byteOffset": 4352,
   "target": 34963
  },
  {
   "buffer": 0,
   "byteLength": 10584,
   "byteOffset": 4640,
   "target": 34962
  },
  {
   "buffer": 0,
   "byteLength": 10584,
   "byteOffset": 15224,
   "target": 34962
  },
  {
   "buffer": 0,
   "byteLength": 7056,
   "byteOffset": 25808,
   "target": 34962
  },
  {
   "buffer": 0,
   "byteLength": 7056,
   "byteOffset": 32864,
   "target": 34962
  },
  {
   "buffer": 0,
   "byteLength": 7056,
   "byteOffset": 39920,
   "target": 34962
  },
  {
   "buffer": 0,
   "byteLength": 7056,
   "byteOffset": 46976,
   "target": 34962
  },
  {
   "buffer": 0,
   "byteLength": 7056,
   "byteOffset": 54032,
   "target": 34962
  },
  {
   "buffer": 0,
   "byteLength": 3372,
   "byteOffset": 61088,
   "target": 34963
  },
  {
   "buffer": 0,
   "byteLength": 576,
   "byteOffset": 64460,
   "target": 34962
  },
  {
   "buffer": 0,
   "byteLength": 576,
   "byteOffset": 65036,
   "target": 34962
  },
  {
   "buffer": 0,
   "byteLength": 384,
   "byteOffset": 65612,
   "target": 34962
  },
  {
   "buffer": 0,
   "byteLength": 384,
   "byteOffset": 65996,
   "target": 34962
  },
  {
   "buffer": 0,
   "byteLength": 384,
   "byteOffset": 66380,
   "target": 34962
  },
  {
   "buffer": 0,
   "byteLength": 384,
   "byteOffset": 66764,
   "target": 34962
  },
  {
   "buffer": 0,
   "byteLength": 384,
   "byteOffset": 67148,
   "target": 34962
  },
  {
   "buffer": 0,
   "byteLength": 144,
   "byteOffset": 67532,
   "target": 34963
  },
  {
   "buffer": 0,
   "byteLength": 48,
   "byteOffset": 67676,
   "target": 34962
  },
  {
   "buffer": 0,
   "byteLength": 48,
   "byteOffset": 67724,
   "target": 34962
  },
  {
   "buffer": 0,
   "byteLength": 32,
   "byteOffset": 67772,
   "target": 34962
  },
  {
   "buffer": 0,
   "byteLength": 32,
   "byteOffset": 67804,
   "target": 34962
  },
  {
   "buffer": 0,
   "byteLength": 32,
   "byteOffset": 67836,
   "target": 34962
  },
  {
   "buffer": 0,
   "byteLength": 32,
   "byteOffset": 67868,
   "target": 34962
  },
  {
   "buffer": 0,
   "byteLength": 32,
   "byteOffset": 67900,
   "target": 34962
  },
  {
   "buffer": 0,
   "byteLength": 12,
   "byteOffset": 67932,
   "target": 34963
  },
  {
   "buffer": 0,
   "byteLength": 240,
   "byteOffset": 67944,
   "target": 34962
  },
  {
   "buffer": 0,
   "byteLength": 240,
   "byteOffset": 68184,
   "target": 34962
  },
  {
   "buffer": 0,
   "byteLength": 160,
   "byteOffset": 68424,
   "target": 34962
  },
  {
   "buffer": 0,
   "byteLength": 160,
   "byteOffset": 68584,
   "target": 34962
  },
  {
   "buffer": 0,
   "byteLength": 160,
   "byteOffset": 68744,
   "target": 34962
  },
  {
   "buffer": 0,
   "byteLength": 160,
   "byteOffset": 68904,
   "target": 34962
  },
  {
   "buffer": 0,
   "byteLength": 160,
   "byteOffset": 69064,
   "target": 34962
  },
  {
   "buffer": 0,
   "byteLength": 96,
   "byteOffset": 69224,
   "target": 34963
  }
 ],
 "samplers": [
  {
   "magFilter": 9729,
   "minFilter": 9987
  }
 ],
 "buffers": [
  {
   "byteLength": 69320,
   "uri": "Brick_Window_Trim.bin"
  }
 ]
}
