{
 "asset": {
  "generator": "Khronos glTF Blender I/O v5.2.40",
  "version": "2.0",
  "extras": {
   "exported_by": "blender/tools/export_building_kit.py",
   "module_scale": 0.91
  }
 },
 "scene": 0,
 "scenes": [
  {
   "extras": {
    "bk_kit": "quaternius_downtown_city",
    "bk_module_scale": 0.91,
    "bk_status": "OWNER: this file is the source of the kit's pieces. Edit a piece in its collection (origin = the piece's own origin + the collection's instance_offset), then run tools/building_kit/build_buildings.sh, which exports pieces/ with blender/tools/export_building_kit.py. A moved or resized piece is refused unless ACCEPT_BOUNDS=1."
   },
   "name": "Scene",
   "nodes": [
    0
   ]
  }
 ],
 "nodes": [
  {
   "mesh": 0,
   "name": "Metal_Window"
  }
 ],
 "materials": [
  {
   "doubleSided": true,
   "name": "MI_RedBrick",
   "normalTexture": {
    "index": 0
   },
   "pbrMetallicRoughness": {
    "baseColorTexture": {
     "index": 1
    },
    "metallicRoughnessTexture": {
     "index": 2
    }
   }
  },
  {
   "doubleSided": true,
   "name": "MI_Trim_MetalConcrete",
   "normalTexture": {
    "index": 3
   },
   "pbrMetallicRoughness": {
    "baseColorTexture": {
     "index": 4
    },
    "metallicRoughnessTexture": {
     "index": 5
    }
   }
  },
  {
   "alphaMode": "BLEND",
   "doubleSided": true,
   "name": "MI_Glass",
   "pbrMetallicRoughness": {
    "baseColorFactor": [
     0.05215025693178177,
     0.05215025693178177,
     0.05215025693178177,
     0.586363673210144
    ],
    "metallicFactor": 0,
    "roughnessFactor": 0.5
   }
  },
  {
   "doubleSided": true,
   "name": "MI_FakeInterior",
   "pbrMetallicRoughness": {
    "baseColorFactor": [
     0.800000011920929,
     0.800000011920929,
     0.800000011920929,
     1
    ],
    "metallicFactor": 0,
    "roughnessFactor": 0.5
   }
  },
  {
   "doubleSided": true,
   "name": "MI_InteriorWall",
   "normalTexture": {
    "index": 6
   },
   "pbrMetallicRoughness": {
    "baseColorTexture": {
     "index": 7
    },
    "metallicRoughnessTexture": {
     "index": 8
    }
   }
  }
 ],
 "meshes": [
  {
   "name": "Cube.044",
   "primitives": [
    {
     "attributes": {
      "POSITION": 0,
      "NORMAL": 1,
      "TEXCOORD_0": 2,
      "TEXCOORD_1": 3,
      "COLOR_0": 4,
      "COLOR_1": 5
     },
     "indices": 6,
     "material": 0
    },
    {
     "attributes": {
      "POSITION": 7,
      "NORMAL": 8,
      "TEXCOORD_0": 9,
      "TEXCOORD_1": 10,
      "COLOR_0": 11,
      "COLOR_1": 12
     },
     "indices": 13,
     "material": 1
    },
    {
     "attributes": {
      "POSITION": 14,
      "NORMAL": 15,
      "TEXCOORD_0": 16,
      "TEXCOORD_1": 17,
      "COLOR_0": 18,
      "COLOR_1": 19
     },
     "indices": 20,
     "material": 2
    },
    {
     "attributes": {
      "POSITION": 21,
      "NORMAL": 22,
      "TEXCOORD_0": 23,
      "TEXCOORD_1": 24,
      "COLOR_0": 25,
      "COLOR_1": 26
     },
     "indices": 27,
     "material": 3
    },
    {
     "attributes": {
      "POSITION": 28,
      "NORMAL": 29,
      "TEXCOORD_0": 30,
      "TEXCOORD_1": 31,
      "COLOR_0": 32,
      "COLOR_1": 33
     },
     "indices": 34,
     "material": 4
    }
   ]
  }
 ],
 "textures": [
  {
   "sampler": 0,
   "source": 0
  },
  {
   "sampler": 0,
   "source": 1
  },
  {
   "sampler": 0,
   "source": 2
  },
  {
   "sampler": 0,
   "source": 3
  },
  {
   "sampler": 0,
   "source": 4
  },
  {
   "sampler": 0,
   "source": 5
  },
  {
   "sampler": 0,
   "source": 0
  },
  {
   "sampler": 0,
   "source": 1
  },
  {
   "sampler": 0,
   "source": 2
  }
 ],
 "images": [
  {
   "mimeType": "image/png",
   "name": "T_RedBrick_Normal",
   "uri": "../../textures/T_RedBrick_Normal.png"
  },
  {
   "mimeType": "image/png",
   "name": "T_RedBrick_BaseColor",
   "uri": "../../textures/T_RedBrick_BaseColor.png"
  },
  {
   "mimeType": "image/png",
   "name": "T_RedBrick_ORM",
   "uri": "../../textures/T_RedBrick_ORM.png"
  },
  {
   "mimeType": "image/png",
   "name": "T_MetalConcrete_Normal",
   "uri": "../../textures/T_MetalConcrete_Normal.png"
  },
  {
   "mimeType": "image/png",
   "name": "T_MetalConcrete_BaseColor",
   "uri": "../../textures/T_MetalConcrete_BaseColor.png"
  },
  {
   "mimeType": "image/png",
   "name": "T_MetalConcrete_ORM",
   "uri": "../../textures/T_MetalConcrete_ORM.png"
  }
 ],
 "accessors": [
  {
   "bufferView": 0,
   "componentType": 5126,
   "count": 46,
   "max": [
    1.8200000524520874,
    2.7300000190734863,
    1.193320855463753e-07
   ],
   "min": [
    -1.8200000524520874,
    0,
    -0.09100005775690079
   ],
   "type": "VEC3"
  },
  {
   "bufferView": 1,
   "componentType": 5126,
   "count": 46,
   "type": "VEC3"
  },
  {
   "bufferView": 2,
   "componentType": 5126,
   "count": 46,
   "type": "VEC2"
  },
  {
   "bufferView": 3,
   "componentType": 5126,
   "count": 46,
   "type": "VEC2"
  },
  {
   "bufferView": 4,
   "componentType": 5123,
   "count": 46,
   "normalized": true,
   "type": "VEC4"
  },
  {
   "bufferView": 5,
   "componentType": 5123,
   "count": 46,
   "normalized": true,
   "type": "VEC4"
  },
  {
   "bufferView": 6,
   "componentType": 5123,
   "count": 120,
   "type": "SCALAR"
  },
  {
   "bufferView": 7,
   "componentType": 5126,
   "count": 660,
   "max": [
    1.3650000095367432,
    2.7300000190734863,
    0
   ],
   "min": [
    -1.3650000095367432,
    -0.0005366799305193126,
    -0.20375093817710876
   ],
   "type": "VEC3"
  },
  {
   "bufferView": 8,
   "componentType": 5126,
   "count": 660,
   "type": "VEC3"
  },
  {
   "bufferView": 9,
   "componentType": 5126,
   "count": 660,
   "type": "VEC2"
  },
  {
   "bufferView": 10,
   "componentType": 5126,
   "count": 660,
   "type": "VEC2"
  },
  {
   "bufferView": 11,
   "componentType": 5123,
   "count": 660,
   "normalized": true,
   "type": "VEC4"
  },
  {
   "bufferView": 12,
   "componentType": 5123,
   "count": 660,
   "normalized": true,
   "type": "VEC4"
  },
  {
   "bufferView": 13,
   "componentType": 5123,
   "count": 1500,
   "type": "SCALAR"
  },
  {
   "bufferView": 14,
   "componentType": 5126,
   "count": 28,
   "max": [
    1.301378846168518,
    2.2114639282226562,
    -0.12603576481342316
   ],
   "min": [
    -1.301378846168518,
    0.03775108978152275,
    -0.12603576481342316
   ],
   "type": "VEC3"
  },
  {
   "bufferView": 15,
   "componentType": 5126,
   "count": 28,
   "type": "VEC3"
  },
  {
   "bufferView": 16,
   "componentType": 5126,
   "count": 28,
   "type": "VEC2"
  },
  {
   "bufferView": 17,
   "componentType": 5126,
   "count": 28,
   "type": "VEC2"
  },
  {
   "bufferView": 18,
   "componentType": 5123,
   "count": 28,
   "normalized": true,
   "type": "VEC4"
  },
  {
   "bufferView": 19,
   "componentType": 5123,
   "count": 28,
   "normalized": true,
   "type": "VEC4"
  },
  {
   "bufferView": 20,
   "componentType": 5123,
   "count": 48,
   "type": "SCALAR"
  },
  {
   "bufferView": 21,
   "componentType": 5126,
   "count": 4,
   "max": [
    1.4620459079742432,
    2.7208781242370605,
    -0.128485769033432
   ],
   "min": [
    -1.4620459079742432,
    0.01422135904431343,
    -0.128485769033432
   ],
   "type": "VEC3"
  },
  {
   "bufferView": 22,
   "componentType": 5126,
   "count": 4,
   "type": "VEC3"
  },
  {
   "bufferView": 23,
   "componentType": 5126,
   "count": 4,
   "type": "VEC2"
  },
  {
   "bufferView": 24,
   "componentType": 5126,
   "count": 4,
   "type": "VEC2"
  },
  {
   "bufferView": 25,
   "componentType": 5123,
   "count": 4,
   "normalized": true,
   "type": "VEC4"
  },
  {
   "bufferView": 26,
   "componentType": 5123,
   "count": 4,
   "normalized": true,
   "type": "VEC4"
  },
  {
   "bufferView": 27,
   "componentType": 5123,
   "count": 6,
   "type": "SCALAR"
  },
  {
   "bufferView": 28,
   "componentType": 5126,
   "count": 26,
   "max": [
    1.8200000524520874,
    2.7300004959106445,
    -0.1820000857114792
   ],
   "min": [
    -1.8200000524520874,
    0,
    -0.1820000857114792
   ],
   "type": "VEC3"
  },
  {
   "bufferView": 29,
   "componentType": 5126,
   "count": 26,
   "type": "VEC3"
  },
  {
   "bufferView": 30,
   "componentType": 5126,
   "count": 26,
   "type": "VEC2"
  },
  {
   "bufferView": 31,
   "componentType": 5126,
   "count": 26,
   "type": "VEC2"
  },
  {
   "bufferView": 32,
   "componentType": 5123,
   "count": 26,
   "normalized": true,
   "type": "VEC4"
  },
  {
   "bufferView": 33,
   "componentType": 5123,
   "count": 26,
   "normalized": true,
   "type": "VEC4"
  },
  {
   "bufferView": 34,
   "componentType": 5123,
   "count": 60,
   "type": "SCALAR"
  }
 ],
 "bufferViews": [
  {
   "buffer": 0,
   "byteLength": 552,
   "byteOffset": 0,
   "target": 34962
  },
  {
   "buffer": 0,
   "byteLength": 552,
   "byteOffset": 552,
   "target": 34962
  },
  {
   "buffer": 0,
   "byteLength": 368,
   "byteOffset": 1104,
   "target": 34962
  },
  {
   "buffer": 0,
   "byteLength": 368,
   "byteOffset": 1472,
   "target": 34962
  },
  {
   "buffer": 0,
   "byteLength": 368,
   "byteOffset": 1840,
   "target": 34962
  },
  {
   "buffer": 0,
   "byteLength": 368,
   "byteOffset": 2208,
   "target": 34962
  },
  {
   "buffer": 0,
   "byteLength": 240,
   "byteOffset": 2576,
   "target": 34963
  },
  {
   "buffer": 0,
   "byteLength": 7920,
   "byteOffset": 2816,
   "target": 34962
  },
  {
   "buffer": 0,
   "byteLength": 7920,
   "byteOffset": 10736,
   "target": 34962
  },
  {
   "buffer": 0,
   "byteLength": 5280,
   "byteOffset": 18656,
   "target": 34962
  },
  {
   "buffer": 0,
   "byteLength": 5280,
   "byteOffset": 23936,
   "target": 34962
  },
  {
   "buffer": 0,
   "byteLength": 5280,
   "byteOffset": 29216,
   "target": 34962
  },
  {
   "buffer": 0,
   "byteLength": 5280,
   "byteOffset": 34496,
   "target": 34962
  },
  {
   "buffer": 0,
   "byteLength": 3000,
   "byteOffset": 39776,
   "target": 34963
  },
  {
   "buffer": 0,
   "byteLength": 336,
   "byteOffset": 42776,
   "target": 34962
  },
  {
   "buffer": 0,
   "byteLength": 336,
   "byteOffset": 43112,
   "target": 34962
  },
  {
   "buffer": 0,
   "byteLength": 224,
   "byteOffset": 43448,
   "target": 34962
  },
  {
   "buffer": 0,
   "byteLength": 224,
   "byteOffset": 43672,
   "target": 34962
  },
  {
   "buffer": 0,
   "byteLength": 224,
   "byteOffset": 43896,
   "target": 34962
  },
  {
   "buffer": 0,
   "byteLength": 224,
   "byteOffset": 44120,
   "target": 34962
  },
  {
   "buffer": 0,
   "byteLength": 96,
   "byteOffset": 44344,
   "target": 34963
  },
  {
   "buffer": 0,
   "byteLength": 48,
   "byteOffset": 44440,
   "target": 34962
  },
  {
   "buffer": 0,
   "byteLength": 48,
   "byteOffset": 44488,
   "target": 34962
  },
  {
   "buffer": 0,
   "byteLength": 32,
   "byteOffset": 44536,
   "target": 34962
  },
  {
   "buffer": 0,
   "byteLength": 32,
   "byteOffset": 44568,
   "target": 34962
  },
  {
   "buffer": 0,
   "byteLength": 32,
   "byteOffset": 44600,
   "target": 34962
  },
  {
   "buffer": 0,
   "byteLength": 32,
   "byteOffset": 44632,
   "target": 34962
  },
  {
   "buffer": 0,
   "byteLength": 12,
   "byteOffset": 44664,
   "target": 34963
  },
  {
   "buffer": 0,
   "byteLength": 312,
   "byteOffset": 44676,
   "target": 34962
  },
  {
   "buffer": 0,
   "byteLength": 312,
   "byteOffset": 44988,
   "target": 34962
  },
  {
   "buffer": 0,
   "byteLength": 208,
   "byteOffset": 45300,
   "target": 34962
  },
  {
   "buffer": 0,
   "byteLength": 208,
   "byteOffset": 45508,
   "target": 34962
  },
  {
   "buffer": 0,
   "byteLength": 208,
   "byteOffset": 45716,
   "target": 34962
  },
  {
   "buffer": 0,
   "byteLength": 208,
   "byteOffset": 45924,
   "target": 34962
  },
  {
   "buffer": 0,
   "byteLength": 120,
   "byteOffset": 46132,
   "target": 34963
  }
 ],
 "samplers": [
  {
   "magFilter": 9729,
   "minFilter": 9987
  }
 ],
 "buffers": [
  {
   "byteLength": 46252,
   "uri": "Metal_Window.bin"
  }
 ]
}
