{
 "asset": {
  "generator": "Khronos glTF Blender I/O v5.2.40",
  "version": "2.0",
  "extras": {
   "exported_by": "blender/tools/export_building_kit.py",
   "module_scale": 0.91
  }
 },
 "scene": 0,
 "scenes": [
  {
   "extras": {
    "bk_kit": "quaternius_downtown_city",
    "bk_module_scale": 0.91,
    "bk_status": "OWNER: this file is the source of the kit's pieces. Edit a piece in its collection (origin = the piece's own origin + the collection's instance_offset), then run tools/building_kit/build_buildings.sh, which exports pieces/ with blender/tools/export_building_kit.py. A moved or resized piece is refused unless ACCEPT_BOUNDS=1."
   },
   "name": "Scene",
   "nodes": [
    0
   ]
  }
 ],
 "nodes": [
  {
   "mesh": 0,
   "name": "Trim_Window"
  }
 ],
 "materials": [
  {
   "doubleSided": true,
   "name": "MI_Trim",
   "normalTexture": {
    "index": 0
   },
   "pbrMetallicRoughness": {
    "baseColorTexture": {
     "index": 1
    },
    "metallicRoughnessTexture": {
     "index": 2
    }
   }
  },
  {
   "alphaMode": "BLEND",
   "doubleSided": true,
   "name": "MI_Glass",
   "pbrMetallicRoughness": {
    "baseColorFactor": [
     0.05215025693178177,
     0.05215025693178177,
     0.05215025693178177,
     0.586363673210144
    ],
    "metallicFactor": 0,
    "roughnessFactor": 0.5
   }
  },
  {
   "doubleSided": true,
   "name": "MI_Trim_Dark",
   "normalTexture": {
    "index": 3
   },
   "pbrMetallicRoughness": {
    "baseColorTexture": {
     "index": 4
    },
    "metallicRoughnessTexture": {
     "index": 5
    }
   }
  },
  {
   "doubleSided": true,
   "name": "MI_FakeInterior",
   "pbrMetallicRoughness": {
    "baseColorFactor": [
     0.800000011920929,
     0.800000011920929,
     0.800000011920929,
     1
    ],
    "metallicFactor": 0,
    "roughnessFactor": 0.5
   }
  },
  {
   "doubleSided": true,
   "name": "MI_InteriorWall",
   "normalTexture": {
    "index": 6
   },
   "pbrMetallicRoughness": {
    "baseColorTexture": {
     "index": 7
    },
    "metallicRoughnessTexture": {
     "index": 8
    }
   }
  }
 ],
 "meshes": [
  {
   "name": "Cube.862",
   "primitives": [
    {
     "attributes": {
      "POSITION": 0,
      "NORMAL": 1,
      "TEXCOORD_0": 2,
      "TEXCOORD_1": 3,
      "COLOR_0": 4,
      "COLOR_1": 5
     },
     "indices": 6,
     "material": 0
    },
    {
     "attributes": {
      "POSITION": 7,
      "NORMAL": 8,
      "TEXCOORD_0": 9,
      "TEXCOORD_1": 10,
      "COLOR_0": 11,
      "COLOR_1": 12
     },
     "indices": 13,
     "material": 1
    },
    {
     "attributes": {
      "POSITION": 14,
      "NORMAL": 15,
      "TEXCOORD_0": 16,
      "TEXCOORD_1": 17,
      "COLOR_0": 18,
      "COLOR_1": 19
     },
     "indices": 20,
     "material": 2
    },
    {
     "attributes": {
      "POSITION": 21,
      "NORMAL": 22,
      "TEXCOORD_0": 23,
      "TEXCOORD_1": 24,
      "COLOR_0": 25,
      "COLOR_1": 26
     },
     "indices": 27,
     "material": 3
    },
    {
     "attributes": {
      "POSITION": 28,
      "NORMAL": 29,
      "TEXCOORD_0": 30,
      "TEXCOORD_1": 31,
      "COLOR_0": 32,
      "COLOR_1": 33
     },
     "indices": 34,
     "material": 4
    }
   ]
  }
 ],
 "textures": [
  {
   "sampler": 0,
   "source": 0
  },
  {
   "sampler": 0,
   "source": 1
  },
  {
   "sampler": 0,
   "source": 2
  },
  {
   "sampler": 0,
   "source": 0
  },
  {
   "sampler": 0,
   "source": 1
  },
  {
   "sampler": 0,
   "source": 2
  },
  {
   "sampler": 0,
   "source": 3
  },
  {
   "sampler": 0,
   "source": 4
  },
  {
   "sampler": 0,
   "source": 5
  }
 ],
 "images": [
  {
   "mimeType": "image/png",
   "name": "T_Trim_Normal",
   "uri": "../../textures/T_Trim_Normal.png"
  },
  {
   "mimeType": "image/png",
   "name": "T_Trim_BaseColor",
   "uri": "../../textures/T_Trim_BaseColor.png"
  },
  {
   "mimeType": "image/png",
   "name": "T_Trim_ORM",
   "uri": "../../textures/T_Trim_ORM.png"
  },
  {
   "mimeType": "image/png",
   "name": "T_RedBrick_Normal",
   "uri": "../../textures/T_RedBrick_Normal.png"
  },
  {
   "mimeType": "image/png",
   "name": "T_RedBrick_BaseColor",
   "uri": "../../textures/T_RedBrick_BaseColor.png"
  },
  {
   "mimeType": "image/png",
   "name": "T_RedBrick_ORM",
   "uri": "../../textures/T_RedBrick_ORM.png"
  }
 ],
 "accessors": [
  {
   "bufferView": 0,
   "componentType": 5126,
   "count": 204,
   "max": [
    0.9100000262260437,
    2.7300000190734863,
    1.193320855463753e-07
   ],
   "min": [
    -0.9100000262260437,
    0,
    -0.17477352917194366
   ],
   "type": "VEC3"
  },
  {
   "bufferView": 1,
   "componentType": 5126,
   "count": 204,
   "type": "VEC3"
  },
  {
   "bufferView": 2,
   "componentType": 5126,
   "count": 204,
   "type": "VEC2"
  },
  {
   "bufferView": 3,
   "componentType": 5126,
   "count": 204,
   "type": "VEC2"
  },
  {
   "bufferView": 4,
   "componentType": 5123,
   "count": 204,
   "normalized": true,
   "type": "VEC4"
  },
  {
   "bufferView": 5,
   "componentType": 5123,
   "count": 204,
   "normalized": true,
   "type": "VEC4"
  },
  {
   "bufferView": 6,
   "componentType": 5123,
   "count": 450,
   "type": "SCALAR"
  },
  {
   "bufferView": 7,
   "componentType": 5126,
   "count": 36,
   "max": [
    0.4492643177509308,
    2.015136241912842,
    -0.1508464813232422
   ],
   "min": [
    -0.45278799533843994,
    1.0421255826950073,
    -0.1508464813232422
   ],
   "type": "VEC3"
  },
  {
   "bufferView": 8,
   "componentType": 5126,
   "count": 36,
   "type": "VEC3"
  },
  {
   "bufferView": 9,
   "componentType": 5126,
   "count": 36,
   "type": "VEC2"
  },
  {
   "bufferView": 10,
   "componentType": 5126,
   "count": 36,
   "type": "VEC2"
  },
  {
   "bufferView": 11,
   "componentType": 5123,
   "count": 36,
   "normalized": true,
   "type": "VEC4"
  },
  {
   "bufferView": 12,
   "componentType": 5123,
   "count": 36,
   "normalized": true,
   "type": "VEC4"
  },
  {
   "bufferView": 13,
   "componentType": 5123,
   "count": 54,
   "type": "SCALAR"
  },
  {
   "bufferView": 14,
   "componentType": 5126,
   "count": 602,
   "max": [
    0.48104768991470337,
    2.0424931049346924,
    -0.09018866717815399
   ],
   "min": [
    -0.4844960570335388,
    0.9993011951446533,
    -0.21817149221897125
   ],
   "type": "VEC3"
  },
  {
   "bufferView": 15,
   "componentType": 5126,
   "count": 602,
   "type": "VEC3"
  },
  {
   "bufferView": 16,
   "componentType": 5126,
   "count": 602,
   "type": "VEC2"
  },
  {
   "bufferView": 17,
   "componentType": 5126,
   "count": 602,
   "type": "VEC2"
  },
  {
   "bufferView": 18,
   "componentType": 5123,
   "count": 602,
   "normalized": true,
   "type": "VEC4"
  },
  {
   "bufferView": 19,
   "componentType": 5123,
   "count": 602,
   "normalized": true,
   "type": "VEC4"
  },
  {
   "bufferView": 20,
   "componentType": 5123,
   "count": 1164,
   "type": "SCALAR"
  },
  {
   "bufferView": 21,
   "componentType": 5126,
   "count": 4,
   "max": [
    0.8984072208404541,
    2.5435099601745605,
    -0.17847345769405365
   ],
   "min": [
    -0.8984072208404541,
    0.013606485910713673,
    -0.17847345769405365
   ],
   "type": "VEC3"
  },
  {
   "bufferView": 22,
   "componentType": 5126,
   "count": 4,
   "type": "VEC3"
  },
  {
   "bufferView": 23,
   "componentType": 5126,
   "count": 4,
   "type": "VEC2"
  },
  {
   "bufferView": 24,
   "componentType": 5126,
   "count": 4,
   "type": "VEC2"
  },
  {
   "bufferView": 25,
   "componentType": 5123,
   "count": 4,
   "normalized": true,
   "type": "VEC4"
  },
  {
   "bufferView": 26,
   "componentType": 5123,
   "count": 4,
   "normalized": true,
   "type": "VEC4"
  },
  {
   "bufferView": 27,
   "componentType": 5123,
   "count": 6,
   "type": "SCALAR"
  },
  {
   "bufferView": 28,
   "componentType": 5126,
   "count": 20,
   "max": [
    0.9100000262260437,
    2.7300004959106445,
    -0.1820000857114792
   ],
   "min": [
    -0.9100000262260437,
    0,
    -0.18200010061264038
   ],
   "type": "VEC3"
  },
  {
   "bufferView": 29,
   "componentType": 5126,
   "count": 20,
   "type": "VEC3"
  },
  {
   "bufferView": 30,
   "componentType": 5126,
   "count": 20,
   "type": "VEC2"
  },
  {
   "bufferView": 31,
   "componentType": 5126,
   "count": 20,
   "type": "VEC2"
  },
  {
   "bufferView": 32,
   "componentType": 5123,
   "count": 20,
   "normalized": true,
   "type": "VEC4"
  },
  {
   "bufferView": 33,
   "componentType": 5123,
   "count": 20,
   "normalized": true,
   "type": "VEC4"
  },
  {
   "bufferView": 34,
   "componentType": 5123,
   "count": 48,
   "type": "SCALAR"
  }
 ],
 "bufferViews": [
  {
   "buffer": 0,
   "byteLength": 2448,
   "byteOffset": 0,
   "target": 34962
  },
  {
   "buffer": 0,
   "byteLength": 2448,
   "byteOffset": 2448,
   "target": 34962
  },
  {
   "buffer": 0,
   "byteLength": 1632,
   "byteOffset": 4896,
   "target": 34962
  },
  {
   "buffer": 0,
   "byteLength": 1632,
   "byteOffset": 6528,
   "target": 34962
  },
  {
   "buffer": 0,
   "byteLength": 1632,
   "byteOffset": 8160,
   "target": 34962
  },
  {
   "buffer": 0,
   "byteLength": 1632,
   "byteOffset": 9792,
   "target": 34962
  },
  {
   "buffer": 0,
   "byteLength": 900,
   "byteOffset": 11424,
   "target": 34963
  },
  {
   "buffer": 0,
   "byteLength": 432,
   "byteOffset": 12324,
   "target": 34962
  },
  {
   "buffer": 0,
   "byteLength": 432,
   "byteOffset": 12756,
   "target": 34962
  },
  {
   "buffer": 0,
   "byteLength": 288,
   "byteOffset": 13188,
   "target": 34962
  },
  {
   "buffer": 0,
   "byteLength": 288,
   "byteOffset": 13476,
   "target": 34962
  },
  {
   "buffer": 0,
   "byteLength": 288,
   "byteOffset": 13764,
   "target": 34962
  },
  {
   "buffer": 0,
   "byteLength": 288,
   "byteOffset": 14052,
   "target": 34962
  },
  {
   "buffer": 0,
   "byteLength": 108,
   "byteOffset": 14340,
   "target": 34963
  },
  {
   "buffer": 0,
   "byteLength": 7224,
   "byteOffset": 14448,
   "target": 34962
  },
  {
   "buffer": 0,
   "byteLength": 7224,
   "byteOffset": 21672,
   "target": 34962
  },
  {
   "buffer": 0,
   "byteLength": 4816,
   "byteOffset": 28896,
   "target": 34962
  },
  {
   "buffer": 0,
   "byteLength": 4816,
   "byteOffset": 33712,
   "target": 34962
  },
  {
   "buffer": 0,
   "byteLength": 4816,
   "byteOffset": 38528,
   "target": 34962
  },
  {
   "buffer": 0,
   "byteLength": 4816,
   "byteOffset": 43344,
   "target": 34962
  },
  {
   "buffer": 0,
   "byteLength": 2328,
   "byteOffset": 48160,
   "target": 34963
  },
  {
   "buffer": 0,
   "byteLength": 48,
   "byteOffset": 50488,
   "target": 34962
  },
  {
   "buffer": 0,
   "byteLength": 48,
   "byteOffset": 50536,
   "target": 34962
  },
  {
   "buffer": 0,
   "byteLength": 32,
   "byteOffset": 50584,
   "target": 34962
  },
  {
   "buffer": 0,
   "byteLength": 32,
   "byteOffset": 50616,
   "target": 34962
  },
  {
   "buffer": 0,
   "byteLength": 32,
   "byteOffset": 50648,
   "target": 34962
  },
  {
   "buffer": 0,
   "byteLength": 32,
   "byteOffset": 50680,
   "target": 34962
  },
  {
   "buffer": 0,
   "byteLength": 12,
   "byteOffset": 50712,
   "target": 34963
  },
  {
   "buffer": 0,
   "byteLength": 240,
   "byteOffset": 50724,
   "target": 34962
  },
  {
   "buffer": 0,
   "byteLength": 240,
   "byteOffset": 50964,
   "target": 34962
  },
  {
   "buffer": 0,
   "byteLength": 160,
   "byteOffset": 51204,
   "target": 34962
  },
  {
   "buffer": 0,
   "byteLength": 160,
   "byteOffset": 51364,
   "target": 34962
  },
  {
   "buffer": 0,
   "byteLength": 160,
   "byteOffset": 51524,
   "target": 34962
  },
  {
   "buffer": 0,
   "byteLength": 160,
   "byteOffset": 51684,
   "target": 34962
  },
  {
   "buffer": 0,
   "byteLength": 96,
   "byteOffset": 51844,
   "target": 34963
  }
 ],
 "samplers": [
  {
   "magFilter": 9729,
   "minFilter": 9987
  }
 ],
 "buffers": [
  {
   "byteLength": 51940,
   "uri": "Trim_Window.bin"
  }
 ]
}
