{
 "asset": {
  "generator": "Khronos glTF Blender I/O v5.2.40",
  "version": "2.0",
  "extras": {
   "exported_by": "blender/tools/export_building_kit.py",
   "module_scale": 1.0
  }
 },
 "scene": 0,
 "scenes": [
  {
   "extras": {
    "bk_kit": "quaternius_stylized_nature",
    "bk_module_scale": 1.0,
    "bk_status": "OWNER: this file is the source of the kit's pieces. Edit a piece in its collection (origin = the piece's own origin + the collection's instance_offset), then run tools/building_kit/build_buildings.sh, which exports pieces/ with blender/tools/export_building_kit.py. A moved or resized piece is refused unless ACCEPT_BOUNDS=1."
   },
   "name": "Scene",
   "nodes": [
    0
   ]
  }
 ],
 "nodes": [
  {
   "mesh": 0,
   "name": "Pine_5"
  }
 ],
 "materials": [
  {
   "alphaCutoff": 0.20000000298023224,
   "alphaMode": "MASK",
   "doubleSided": true,
   "name": "MI_Bark_NormalTree",
   "normalTexture": {
    "index": 0
   },
   "pbrMetallicRoughness": {
    "baseColorTexture": {
     "index": 1
    },
    "metallicFactor": 0
   }
  },
  {
   "alphaCutoff": 0.20000000298023224,
   "alphaMode": "MASK",
   "doubleSided": true,
   "name": "MI_Leaves_Pine",
   "pbrMetallicRoughness": {
    "baseColorTexture": {
     "index": 2
    },
    "metallicFactor": 0
   }
  }
 ],
 "meshes": [
  {
   "name": "tree.032",
   "primitives": [
    {
     "attributes": {
      "POSITION": 0,
      "NORMAL": 1,
      "TEXCOORD_0": 2,
      "COLOR_0": 3
     },
     "indices": 4,
     "material": 0
    },
    {
     "attributes": {
      "POSITION": 5,
      "NORMAL": 6,
      "TEXCOORD_0": 7,
      "COLOR_0": 8
     },
     "indices": 9,
     "material": 1
    }
   ]
  }
 ],
 "textures": [
  {
   "sampler": 0,
   "source": 0
  },
  {
   "sampler": 0,
   "source": 1
  },
  {
   "sampler": 0,
   "source": 2
  }
 ],
 "images": [
  {
   "mimeType": "image/png",
   "name": "Bark_NormalTree_Normal",
   "uri": "../../textures/Bark_NormalTree_Normal.png"
  },
  {
   "mimeType": "image/png",
   "name": "Bark_NormalTree",
   "uri": "../../textures/Bark_NormalTree.png"
  },
  {
   "mimeType": "image/png",
   "name": "Leaf_Pine_C",
   "uri": "../../textures/Leaf_Pine_C.png"
  }
 ],
 "accessors": [
  {
   "bufferView": 0,
   "componentType": 5126,
   "count": 621,
   "max": [
    0.6472557783126831,
    8.332257270812988,
    0.4739142060279846
   ],
   "min": [
    -0.47391438484191895,
    -0.23508861660957336,
    -1.5000479221343994
   ],
   "type": "VEC3"
  },
  {
   "bufferView": 1,
   "componentType": 5126,
   "count": 621,
   "type": "VEC3"
  },
  {
   "bufferView": 2,
   "componentType": 5126,
   "count": 621,
   "type": "VEC2"
  },
  {
   "bufferView": 3,
   "componentType": 5123,
   "count": 621,
   "normalized": true,
   "type": "VEC4"
  },
  {
   "bufferView": 4,
   "componentType": 5123,
   "count": 1464,
   "type": "SCALAR"
  },
  {
   "bufferView": 5,
   "componentType": 5126,
   "count": 1880,
   "max": [
    3.432434320449829,
    8.48871898651123,
    2.4435970783233643
   ],
   "min": [
    -2.987706422805786,
    1.453586220741272,
    -3.7784042358398438
   ],
   "type": "VEC3"
  },
  {
   "bufferView": 6,
   "componentType": 5126,
   "count": 1880,
   "type": "VEC3"
  },
  {
   "bufferView": 7,
   "componentType": 5126,
   "count": 1880,
   "type": "VEC2"
  },
  {
   "bufferView": 8,
   "componentType": 5123,
   "count": 1880,
   "normalized": true,
   "type": "VEC4"
  },
  {
   "bufferView": 9,
   "componentType": 5123,
   "count": 3474,
   "type": "SCALAR"
  }
 ],
 "bufferViews": [
  {
   "buffer": 0,
   "byteLength": 7452,
   "byteOffset": 0,
   "target": 34962
  },
  {
   "buffer": 0,
   "byteLength": 7452,
   "byteOffset": 7452,
   "target": 34962
  },
  {
   "buffer": 0,
   "byteLength": 4968,
   "byteOffset": 14904,
   "target": 34962
  },
  {
   "buffer": 0,
   "byteLength": 4968,
   "byteOffset": 19872,
   "target": 34962
  },
  {
   "buffer": 0,
   "byteLength": 2928,
   "byteOffset": 24840,
   "target": 34963
  },
  {
   "buffer": 0,
   "byteLength": 22560,
   "byteOffset": 27768,
   "target": 34962
  },
  {
   "buffer": 0,
   "byteLength": 22560,
   "byteOffset": 50328,
   "target": 34962
  },
  {
   "buffer": 0,
   "byteLength": 15040,
   "byteOffset": 72888,
   "target": 34962
  },
  {
   "buffer": 0,
   "byteLength": 15040,
   "byteOffset": 87928,
   "target": 34962
  },
  {
   "buffer": 0,
   "byteLength": 6948,
   "byteOffset": 102968,
   "target": 34963
  }
 ],
 "samplers": [
  {
   "magFilter": 9729,
   "minFilter": 9987
  }
 ],
 "buffers": [
  {
   "byteLength": 109916,
   "uri": "Pine_5.bin"
  }
 ]
}
