{
 "asset": {
  "generator": "Khronos glTF Blender I/O v5.2.40",
  "version": "2.0",
  "extras": {
   "exported_by": "blender/tools/export_building_kit.py",
   "module_scale": 1.0
  }
 },
 "scene": 0,
 "scenes": [
  {
   "extras": {
    "bk_kit": "quaternius_stylized_nature",
    "bk_module_scale": 1.0,
    "bk_status": "OWNER: this file is the source of the kit's pieces. Edit a piece in its collection (origin = the piece's own origin + the collection's instance_offset), then run tools/building_kit/build_buildings.sh, which exports pieces/ with blender/tools/export_building_kit.py. A moved or resized piece is refused unless ACCEPT_BOUNDS=1."
   },
   "name": "Scene",
   "nodes": [
    0
   ]
  }
 ],
 "nodes": [
  {
   "mesh": 0,
   "name": "CommonTree_3"
  }
 ],
 "materials": [
  {
   "alphaCutoff": 0.20000000298023224,
   "alphaMode": "MASK",
   "doubleSided": true,
   "name": "MI_Bark_NormalTree",
   "normalTexture": {
    "index": 0
   },
   "pbrMetallicRoughness": {
    "baseColorTexture": {
     "index": 1
    },
    "metallicFactor": 0
   }
  },
  {
   "alphaCutoff": 0.20000000298023224,
   "alphaMode": "MASK",
   "doubleSided": true,
   "name": "MI_Leaves_NormalTree",
   "pbrMetallicRoughness": {
    "baseColorTexture": {
     "index": 2
    },
    "metallicFactor": 0
   }
  }
 ],
 "meshes": [
  {
   "name": "tree.025",
   "primitives": [
    {
     "attributes": {
      "POSITION": 0,
      "NORMAL": 1,
      "TEXCOORD_0": 2,
      "COLOR_0": 3
     },
     "indices": 4,
     "material": 0
    },
    {
     "attributes": {
      "POSITION": 5,
      "NORMAL": 6,
      "TEXCOORD_0": 7,
      "COLOR_0": 8
     },
     "indices": 9,
     "material": 1
    }
   ]
  }
 ],
 "textures": [
  {
   "sampler": 0,
   "source": 0
  },
  {
   "sampler": 0,
   "source": 1
  },
  {
   "sampler": 0,
   "source": 2
  }
 ],
 "images": [
  {
   "mimeType": "image/png",
   "name": "Bark_NormalTree_Normal",
   "uri": "../../textures/Bark_NormalTree_Normal.png"
  },
  {
   "mimeType": "image/png",
   "name": "Bark_NormalTree",
   "uri": "../../textures/Bark_NormalTree.png"
  },
  {
   "mimeType": "image/png",
   "name": "Leaves_NormalTree_C",
   "uri": "../../textures/Leaves_NormalTree_C.png"
  }
 ],
 "accessors": [
  {
   "bufferView": 0,
   "componentType": 5126,
   "count": 2470,
   "max": [
    1.0429332256317139,
    7.97797966003418,
    1.102728247642517
   ],
   "min": [
    -0.848488450050354,
    -0.24277201294898987,
    -0.8173294067382812
   ],
   "type": "VEC3"
  },
  {
   "bufferView": 1,
   "componentType": 5126,
   "count": 2470,
   "type": "VEC3"
  },
  {
   "bufferView": 2,
   "componentType": 5126,
   "count": 2470,
   "type": "VEC2"
  },
  {
   "bufferView": 3,
   "componentType": 5123,
   "count": 2470,
   "normalized": true,
   "type": "VEC4"
  },
  {
   "bufferView": 4,
   "componentType": 5123,
   "count": 5115,
   "type": "SCALAR"
  },
  {
   "bufferView": 5,
   "componentType": 5126,
   "count": 3600,
   "max": [
    2.076380968093872,
    9.182417869567871,
    2.1801114082336426
   ],
   "min": [
    -1.9864652156829834,
    2.5763165950775146,
    -2.0609655380249023
   ],
   "type": "VEC3"
  },
  {
   "bufferView": 6,
   "componentType": 5126,
   "count": 3600,
   "type": "VEC3"
  },
  {
   "bufferView": 7,
   "componentType": 5126,
   "count": 3600,
   "type": "VEC2"
  },
  {
   "bufferView": 8,
   "componentType": 5123,
   "count": 3600,
   "normalized": true,
   "type": "VEC4"
  },
  {
   "bufferView": 9,
   "componentType": 5123,
   "count": 5400,
   "type": "SCALAR"
  }
 ],
 "bufferViews": [
  {
   "buffer": 0,
   "byteLength": 29640,
   "byteOffset": 0,
   "target": 34962
  },
  {
   "buffer": 0,
   "byteLength": 29640,
   "byteOffset": 29640,
   "target": 34962
  },
  {
   "buffer": 0,
   "byteLength": 19760,
   "byteOffset": 59280,
   "target": 34962
  },
  {
   "buffer": 0,
   "byteLength": 19760,
   "byteOffset": 79040,
   "target": 34962
  },
  {
   "buffer": 0,
   "byteLength": 10230,
   "byteOffset": 98800,
   "target": 34963
  },
  {
   "buffer": 0,
   "byteLength": 43200,
   "byteOffset": 109032,
   "target": 34962
  },
  {
   "buffer": 0,
   "byteLength": 43200,
   "byteOffset": 152232,
   "target": 34962
  },
  {
   "buffer": 0,
   "byteLength": 28800,
   "byteOffset": 195432,
   "target": 34962
  },
  {
   "buffer": 0,
   "byteLength": 28800,
   "byteOffset": 224232,
   "target": 34962
  },
  {
   "buffer": 0,
   "byteLength": 10800,
   "byteOffset": 253032,
   "target": 34963
  }
 ],
 "samplers": [
  {
   "magFilter": 9729,
   "minFilter": 9987
  }
 ],
 "buffers": [
  {
   "byteLength": 263832,
   "uri": "CommonTree_3.bin"
  }
 ]
}
