{
 "asset": {
  "generator": "Khronos glTF Blender I/O v5.2.40",
  "version": "2.0",
  "extras": {
   "exported_by": "blender/tools/export_building_kit.py",
   "module_scale": 1.0
  }
 },
 "scene": 0,
 "scenes": [
  {
   "extras": {
    "bk_kit": "quaternius_stylized_nature",
    "bk_module_scale": 1.0,
    "bk_status": "OWNER: this file is the source of the kit's pieces. Edit a piece in its collection (origin = the piece's own origin + the collection's instance_offset), then run tools/building_kit/build_buildings.sh, which exports pieces/ with blender/tools/export_building_kit.py. A moved or resized piece is refused unless ACCEPT_BOUNDS=1."
   },
   "name": "Scene",
   "nodes": [
    0
   ]
  }
 ],
 "nodes": [
  {
   "mesh": 0,
   "name": "CommonTree_4"
  }
 ],
 "materials": [
  {
   "alphaCutoff": 0.20000000298023224,
   "alphaMode": "MASK",
   "doubleSided": true,
   "name": "MI_Bark_NormalTree",
   "normalTexture": {
    "index": 0
   },
   "pbrMetallicRoughness": {
    "baseColorTexture": {
     "index": 1
    },
    "metallicFactor": 0
   }
  },
  {
   "alphaCutoff": 0.20000000298023224,
   "alphaMode": "MASK",
   "doubleSided": true,
   "name": "MI_Leaves_NormalTree",
   "pbrMetallicRoughness": {
    "baseColorTexture": {
     "index": 2
    },
    "metallicFactor": 0
   }
  }
 ],
 "meshes": [
  {
   "name": "tree.026",
   "primitives": [
    {
     "attributes": {
      "POSITION": 0,
      "NORMAL": 1,
      "TEXCOORD_0": 2,
      "COLOR_0": 3
     },
     "indices": 4,
     "material": 0
    },
    {
     "attributes": {
      "POSITION": 5,
      "NORMAL": 6,
      "TEXCOORD_0": 7,
      "COLOR_0": 8
     },
     "indices": 9,
     "material": 1
    }
   ]
  }
 ],
 "textures": [
  {
   "sampler": 0,
   "source": 0
  },
  {
   "sampler": 0,
   "source": 1
  },
  {
   "sampler": 0,
   "source": 2
  }
 ],
 "images": [
  {
   "mimeType": "image/png",
   "name": "Bark_NormalTree_Normal",
   "uri": "../../textures/Bark_NormalTree_Normal.png"
  },
  {
   "mimeType": "image/png",
   "name": "Bark_NormalTree",
   "uri": "../../textures/Bark_NormalTree.png"
  },
  {
   "mimeType": "image/png",
   "name": "Leaves_NormalTree_C",
   "uri": "../../textures/Leaves_NormalTree_C.png"
  }
 ],
 "accessors": [
  {
   "bufferView": 0,
   "componentType": 5126,
   "count": 4920,
   "max": [
    1.236419439315796,
    7.957448959350586,
    1.0542998313903809
   ],
   "min": [
    -1.167366862297058,
    -0.24277201294898987,
    -1.212726354598999
   ],
   "type": "VEC3"
  },
  {
   "bufferView": 1,
   "componentType": 5126,
   "count": 4920,
   "type": "VEC3"
  },
  {
   "bufferView": 2,
   "componentType": 5126,
   "count": 4920,
   "type": "VEC2"
  },
  {
   "bufferView": 3,
   "componentType": 5123,
   "count": 4920,
   "normalized": true,
   "type": "VEC4"
  },
  {
   "bufferView": 4,
   "componentType": 5123,
   "count": 9840,
   "type": "SCALAR"
  },
  {
   "bufferView": 5,
   "componentType": 5126,
   "count": 1572,
   "max": [
    2.028430461883545,
    9.195609092712402,
    1.6757631301879883
   ],
   "min": [
    -1.7970952987670898,
    5.8085174560546875,
    -2.0796103477478027
   ],
   "type": "VEC3"
  },
  {
   "bufferView": 6,
   "componentType": 5126,
   "count": 1572,
   "type": "VEC3"
  },
  {
   "bufferView": 7,
   "componentType": 5126,
   "count": 1572,
   "type": "VEC2"
  },
  {
   "bufferView": 8,
   "componentType": 5123,
   "count": 1572,
   "normalized": true,
   "type": "VEC4"
  },
  {
   "bufferView": 9,
   "componentType": 5123,
   "count": 2358,
   "type": "SCALAR"
  }
 ],
 "bufferViews": [
  {
   "buffer": 0,
   "byteLength": 59040,
   "byteOffset": 0,
   "target": 34962
  },
  {
   "buffer": 0,
   "byteLength": 59040,
   "byteOffset": 59040,
   "target": 34962
  },
  {
   "buffer": 0,
   "byteLength": 39360,
   "byteOffset": 118080,
   "target": 34962
  },
  {
   "buffer": 0,
   "byteLength": 39360,
   "byteOffset": 157440,
   "target": 34962
  },
  {
   "buffer": 0,
   "byteLength": 19680,
   "byteOffset": 196800,
   "target": 34963
  },
  {
   "buffer": 0,
   "byteLength": 18864,
   "byteOffset": 216480,
   "target": 34962
  },
  {
   "buffer": 0,
   "byteLength": 18864,
   "byteOffset": 235344,
   "target": 34962
  },
  {
   "buffer": 0,
   "byteLength": 12576,
   "byteOffset": 254208,
   "target": 34962
  },
  {
   "buffer": 0,
   "byteLength": 12576,
   "byteOffset": 266784,
   "target": 34962
  },
  {
   "buffer": 0,
   "byteLength": 4716,
   "byteOffset": 279360,
   "target": 34963
  }
 ],
 "samplers": [
  {
   "magFilter": 9729,
   "minFilter": 9987
  }
 ],
 "buffers": [
  {
   "byteLength": 284076,
   "uri": "CommonTree_4.bin"
  }
 ]
}
