{
 "asset": {
  "generator": "Khronos glTF Blender I/O v5.2.40",
  "version": "2.0",
  "extras": {
   "exported_by": "blender/tools/export_building_kit.py",
   "module_scale": 1.0
  }
 },
 "scene": 0,
 "scenes": [
  {
   "name": "library",
   "nodes": [
    0
   ]
  }
 ],
 "nodes": [
  {
   "extras": {
    "edit_note": "Placeholder \u99d0\u8f2a\u5834 rack, 6 x 2 m, ten slots; bikes nose in to +Y."
   },
   "mesh": 0,
   "name": "Plaza_BikeRack"
  }
 ],
 "materials": [
  {
   "doubleSided": true,
   "name": "MI_AsphaltLot",
   "pbrMetallicRoughness": {
    "baseColorFactor": [
     0.23894542455673218,
     0.2290288507938385,
     0.22325706481933594,
     1
    ],
    "metallicFactor": 0,
    "roughnessFactor": 0.699999988079071
   }
  },
  {
   "doubleSided": true,
   "name": "MI_Steel",
   "pbrMetallicRoughness": {
    "baseColorFactor": [
     0.5726980566978455,
     0.5820889472961426,
     0.5955169796943665,
     1
    ],
    "roughnessFactor": 0.699999988079071
   }
  },
  {
   "doubleSided": true,
   "name": "MI_PaintedMetal",
   "pbrMetallicRoughness": {
    "baseColorFactor": [
     0.8999999761581421,
     0.8999999761581421,
     0.8899999856948853,
     1
    ],
    "metallicFactor": 0.30000001192092896,
    "roughnessFactor": 0.699999988079071
   }
  }
 ],
 "meshes": [
  {
   "name": "Plaza_BikeRack",
   "primitives": [
    {
     "attributes": {
      "POSITION": 0,
      "NORMAL": 1
     },
     "indices": 2,
     "material": 0
    },
    {
     "attributes": {
      "POSITION": 3,
      "NORMAL": 4
     },
     "indices": 5,
     "material": 1
    },
    {
     "attributes": {
      "POSITION": 6,
      "NORMAL": 7
     },
     "indices": 8,
     "material": 2
    }
   ]
  }
 ],
 "accessors": [
  {
   "bufferView": 0,
   "componentType": 5126,
   "count": 24,
   "max": [
    3,
    0.019999999552965164,
    1
   ],
   "min": [
    -3,
    0,
    -1
   ],
   "type": "VEC3"
  },
  {
   "bufferView": 1,
   "componentType": 5126,
   "count": 24,
   "type": "VEC3"
  },
  {
   "bufferView": 2,
   "componentType": 5123,
   "count": 36,
   "type": "SCALAR"
  },
  {
   "bufferView": 3,
   "componentType": 5126,
   "count": 240,
   "max": [
    2.7300000190734863,
    0.44999998807907104,
    -0.20000000298023224
   ],
   "min": [
    -2.7300000190734863,
    0,
    -1
   ],
   "type": "VEC3"
  },
  {
   "bufferView": 4,
   "componentType": 5126,
   "count": 240,
   "type": "VEC3"
  },
  {
   "bufferView": 5,
   "componentType": 5123,
   "count": 360,
   "type": "SCALAR"
  },
  {
   "bufferView": 6,
   "componentType": 5126,
   "count": 72,
   "max": [
    3,
    2.25,
    0.6000000238418579
   ],
   "min": [
    -3,
    0,
    -1
   ],
   "type": "VEC3"
  },
  {
   "bufferView": 7,
   "componentType": 5126,
   "count": 72,
   "type": "VEC3"
  },
  {
   "bufferView": 8,
   "componentType": 5123,
   "count": 108,
   "type": "SCALAR"
  }
 ],
 "bufferViews": [
  {
   "buffer": 0,
   "byteLength": 288,
   "byteOffset": 0,
   "target": 34962
  },
  {
   "buffer": 0,
   "byteLength": 288,
   "byteOffset": 288,
   "target": 34962
  },
  {
   "buffer": 0,
   "byteLength": 72,
   "byteOffset": 576,
   "target": 34963
  },
  {
   "buffer": 0,
   "byteLength": 2880,
   "byteOffset": 648,
   "target": 34962
  },
  {
   "buffer": 0,
   "byteLength": 2880,
   "byteOffset": 3528,
   "target": 34962
  },
  {
   "buffer": 0,
   "byteLength": 720,
   "byteOffset": 6408,
   "target": 34963
  },
  {
   "buffer": 0,
   "byteLength": 864,
   "byteOffset": 7128,
   "target": 34962
  },
  {
   "buffer": 0,
   "byteLength": 864,
   "byteOffset": 7992,
   "target": 34962
  },
  {
   "buffer": 0,
   "byteLength": 216,
   "byteOffset": 8856,
   "target": 34963
  }
 ],
 "buffers": [
  {
   "byteLength": 9072,
   "uri": "Plaza_BikeRack.bin"
  }
 ]
}
