{
 "asset": {
  "generator": "Khronos glTF Blender I/O v5.2.40",
  "version": "2.0",
  "extras": {
   "exported_by": "blender/tools/export_building_kit.py",
   "module_scale": 1.0
  }
 },
 "extensionsUsed": [
  "KHR_materials_emissive_strength"
 ],
 "scene": 0,
 "scenes": [
  {
   "name": "Station_ground_hub",
   "nodes": [
    0
   ]
  }
 ],
 "nodes": [
  {
   "extras": {
    "edit_note": "A large ground hub's store (hand L), past the annex's +X end. Its only way in is the sliding glass door in GH_AnnexLarge's +X end wall, from the UNPAID hall: keep this piece's -X side open to that wall, and keep the paid strip's side of it solid. The street side is display glass (no door)."
   },
   "mesh": 0,
   "name": "GH_AnnexStore_L"
  }
 ],
 "materials": [
  {
   "doubleSided": true,
   "name": "MI_ConcreteSmooth",
   "pbrMetallicRoughness": {
    "baseColorFactor": [
     0.44070473313331604,
     0.43014833331108093,
     0.40880659222602844,
     1
    ],
    "metallicFactor": 0,
    "roughnessFactor": 0.699999988079071
   }
  },
  {
   "doubleSided": true,
   "name": "MI_Terrazzo",
   "pbrMetallicRoughness": {
    "baseColorFactor": [
     0.8372589945793152,
     0.8621084094047546,
     0.8569295406341553,
     1
    ],
    "metallicFactor": 0,
    "roughnessFactor": 0.699999988079071
   }
  },
  {
   "doubleSided": true,
   "name": "MI_Plaster",
   "pbrMetallicRoughness": {
    "baseColorFactor": [
     0.7144945859909058,
     0.7096679210662842,
     0.6731035709381104,
     1
    ],
    "metallicFactor": 0,
    "roughnessFactor": 0.699999988079071
   }
  },
  {
   "doubleSided": true,
   "name": "MI_GlassClear",
   "pbrMetallicRoughness": {
    "baseColorFactor": [
     0.550000011920929,
     0.6800000071525574,
     0.7200000286102295,
     1
    ],
    "metallicFactor": 0.20000000298023224,
    "roughnessFactor": 0.05000000074505806
   }
  },
  {
   "doubleSided": true,
   "emissiveFactor": [
    0.0600000032782555,
    0.15000000596046448,
    0.30000001192092896
   ],
   "name": "MI_Sign",
   "pbrMetallicRoughness": {
    "baseColorFactor": [
     0.11999999731779099,
     0.30000001192092896,
     0.550000011920929,
     1
    ],
    "metallicFactor": 0,
    "roughnessFactor": 0.699999988079071
   }
  },
  {
   "doubleSided": true,
   "name": "MI_RoofSlate",
   "pbrMetallicRoughness": {
    "baseColorFactor": [
     0.20000000298023224,
     0.2199999988079071,
     0.25999999046325684,
     1
    ],
    "metallicFactor": 0,
    "roughnessFactor": 0.699999988079071
   }
  },
  {
   "doubleSided": true,
   "name": "MI_Wood",
   "pbrMetallicRoughness": {
    "baseColorFactor": [
     0.6217582821846008,
     0.4432729184627533,
     0.2785278260707855,
     1
    ],
    "metallicFactor": 0,
    "roughnessFactor": 0.699999988079071
   }
  },
  {
   "doubleSided": true,
   "name": "MI_Goods",
   "pbrMetallicRoughness": {
    "baseColorFactor": [
     0.4877031445503235,
     0.42102864384651184,
     0.38213247060775757,
     1
    ],
    "metallicFactor": 0,
    "roughnessFactor": 0.5
   }
  },
  {
   "doubleSided": true,
   "name": "MI_PlasticWhite",
   "pbrMetallicRoughness": {
    "baseColorFactor": [
     0.9300000071525574,
     0.9300000071525574,
     0.9100000262260437,
     1
    ],
    "metallicFactor": 0,
    "roughnessFactor": 0.30000001192092896
   }
  },
  {
   "doubleSided": true,
   "emissiveFactor": [
    1,
    0.9800000190734863,
    0.9399999976158142
   ],
   "extensions": {
    "KHR_materials_emissive_strength": {
     "emissiveStrength": 2
    }
   },
   "name": "MI_Light",
   "pbrMetallicRoughness": {
    "baseColorFactor": [
     1,
     1,
     0.9700000286102295,
     1
    ],
    "metallicFactor": 0,
    "roughnessFactor": 0.699999988079071
   }
  }
 ],
 "meshes": [
  {
   "name": "GH_AnnexStore_L",
   "primitives": [
    {
     "attributes": {
      "POSITION": 0,
      "NORMAL": 1
     },
     "indices": 2,
     "material": 0
    },
    {
     "attributes": {
      "POSITION": 3,
      "NORMAL": 4
     },
     "indices": 5,
     "material": 1
    },
    {
     "attributes": {
      "POSITION": 6,
      "NORMAL": 7
     },
     "indices": 8,
     "material": 2
    },
    {
     "attributes": {
      "POSITION": 9,
      "NORMAL": 10
     },
     "indices": 11,
     "material": 3
    },
    {
     "attributes": {
      "POSITION": 12,
      "NORMAL": 13
     },
     "indices": 14,
     "material": 4
    },
    {
     "attributes": {
      "POSITION": 15,
      "NORMAL": 16
     },
     "indices": 14,
     "material": 5
    },
    {
     "attributes": {
      "POSITION": 17,
      "NORMAL": 18
     },
     "indices": 19,
     "material": 6
    },
    {
     "attributes": {
      "POSITION": 20,
      "NORMAL": 21
     },
     "indices": 22,
     "material": 7
    },
    {
     "attributes": {
      "POSITION": 23,
      "NORMAL": 24
     },
     "indices": 14,
     "material": 8
    },
    {
     "attributes": {
      "POSITION": 25,
      "NORMAL": 26
     },
     "indices": 11,
     "material": 9
    }
   ]
  }
 ],
 "accessors": [
  {
   "bufferView": 0,
   "componentType": 5126,
   "count": 48,
   "max": [
    5,
    4,
    7.75
   ],
   "min": [
    -5,
    -3.0999999046325684,
    -7.75
   ],
   "type": "VEC3"
  },
  {
   "bufferView": 1,
   "componentType": 5126,
   "count": 48,
   "type": "VEC3"
  },
  {
   "bufferView": 2,
   "componentType": 5123,
   "count": 72,
   "type": "SCALAR"
  },
  {
   "bufferView": 3,
   "componentType": 5126,
   "count": 20,
   "max": [
    5,
    0.009999999776482582,
    7.75
   ],
   "min": [
    -5,
    0,
    -7.75
   ],
   "type": "VEC3"
  },
  {
   "bufferView": 4,
   "componentType": 5126,
   "count": 20,
   "type": "VEC3"
  },
  {
   "bufferView": 5,
   "componentType": 5123,
   "count": 30,
   "type": "SCALAR"
  },
  {
   "bufferView": 6,
   "componentType": 5126,
   "count": 140,
   "max": [
    5,
    4,
    7.75
   ],
   "min": [
    -5,
    0,
    -7.75
   ],
   "type": "VEC3"
  },
  {
   "bufferView": 7,
   "componentType": 5126,
   "count": 140,
   "type": "VEC3"
  },
  {
   "bufferView": 8,
   "componentType": 5123,
   "count": 252,
   "type": "SCALAR"
  },
  {
   "bufferView": 9,
   "componentType": 5126,
   "count": 48,
   "max": [
    4.800000190734863,
    2.799999952316284,
    -7.690000057220459
   ],
   "min": [
    -4.800000190734863,
    0.6000000238418579,
    -7.730000019073486
   ],
   "type": "VEC3"
  },
  {
   "bufferView": 10,
   "componentType": 5126,
   "count": 48,
   "type": "VEC3"
  },
  {
   "bufferView": 11,
   "componentType": 5123,
   "count": 72,
   "type": "SCALAR"
  },
  {
   "bufferView": 12,
   "componentType": 5126,
   "count": 24,
   "max": [
    4.5,
    3.5,
    -7.75
   ],
   "min": [
    -4.5,
    2.950000047683716,
    -7.829999923706055
   ],
   "type": "VEC3"
  },
  {
   "bufferView": 13,
   "componentType": 5126,
   "count": 24,
   "type": "VEC3"
  },
  {
   "bufferView": 14,
   "componentType": 5123,
   "count": 36,
   "type": "SCALAR"
  },
  {
   "bufferView": 15,
   "componentType": 5126,
   "count": 24,
   "max": [
    5,
    4.019999980926514,
    7.75
   ],
   "min": [
    -5,
    4,
    -7.849999904632568
   ],
   "type": "VEC3"
  },
  {
   "bufferView": 16,
   "componentType": 5126,
   "count": 24,
   "type": "VEC3"
  },
  {
   "bufferView": 17,
   "componentType": 5126,
   "count": 96,
   "max": [
    4.800000190734863,
    1.899999976158142,
    7.550000190734863
   ],
   "min": [
    -4.699999809265137,
    0,
    -6.25
   ],
   "type": "VEC3"
  },
  {
   "bufferView": 18,
   "componentType": 5126,
   "count": 96,
   "type": "VEC3"
  },
  {
   "bufferView": 19,
   "componentType": 5123,
   "count": 144,
   "type": "SCALAR"
  },
  {
   "bufferView": 20,
   "componentType": 5126,
   "count": 72,
   "max": [
    4.449999809265137,
    1.600000023841858,
    7.53000020980835
   ],
   "min": [
    -4.650000095367432,
    0.5,
    -1.850000023841858
   ],
   "type": "VEC3"
  },
  {
   "bufferView": 21,
   "componentType": 5126,
   "count": 72,
   "type": "VEC3"
  },
  {
   "bufferView": 22,
   "componentType": 5123,
   "count": 108,
   "type": "SCALAR"
  },
  {
   "bufferView": 23,
   "componentType": 5126,
   "count": 24,
   "max": [
    -4,
    1,
    -4.550000190734863
   ],
   "min": [
    -4.599999904632568,
    0,
    -6.349999904632568
   ],
   "type": "VEC3"
  },
  {
   "bufferView": 24,
   "componentType": 5126,
   "count": 24,
   "type": "VEC3"
  },
  {
   "bufferView": 25,
   "componentType": 5126,
   "count": 48,
   "max": [
    2,
    3.700000047683716,
    3.200000047683716
   ],
   "min": [
    -2,
    3.6500000953674316,
    -3.200000047683716
   ],
   "type": "VEC3"
  },
  {
   "bufferView": 26,
   "componentType": 5126,
   "count": 48,
   "type": "VEC3"
  }
 ],
 "bufferViews": [
  {
   "buffer": 0,
   "byteLength": 576,
   "byteOffset": 0,
   "target": 34962
  },
  {
   "buffer": 0,
   "byteLength": 576,
   "byteOffset": 576,
   "target": 34962
  },
  {
   "buffer": 0,
   "byteLength": 144,
   "byteOffset": 1152,
   "target": 34963
  },
  {
   "buffer": 0,
   "byteLength": 240,
   "byteOffset": 1296,
   "target": 34962
  },
  {
   "buffer": 0,
   "byteLength": 240,
   "byteOffset": 1536,
   "target": 34962
  },
  {
   "buffer": 0,
   "byteLength": 60,
   "byteOffset": 1776,
   "target": 34963
  },
  {
   "buffer": 0,
   "byteLength": 1680,
   "byteOffset": 1836,
   "target": 34962
  },
  {
   "buffer": 0,
   "byteLength": 1680,
   "byteOffset": 3516,
   "target": 34962
  },
  {
   "buffer": 0,
   "byteLength": 504,
   "byteOffset": 5196,
   "target": 34963
  },
  {
   "buffer": 0,
   "byteLength": 576,
   "byteOffset": 5700,
   "target": 34962
  },
  {
   "buffer": 0,
   "byteLength": 576,
   "byteOffset": 6276,
   "target": 34962
  },
  {
   "buffer": 0,
   "byteLength": 144,
   "byteOffset": 6852,
   "target": 34963
  },
  {
   "buffer": 0,
   "byteLength": 288,
   "byteOffset": 6996,
   "target": 34962
  },
  {
   "buffer": 0,
   "byteLength": 288,
   "byteOffset": 7284,
   "target": 34962
  },
  {
   "buffer": 0,
   "byteLength": 72,
   "byteOffset": 7572,
   "target": 34963
  },
  {
   "buffer": 0,
   "byteLength": 288,
   "byteOffset": 7644,
   "target": 34962
  },
  {
   "buffer": 0,
   "byteLength": 288,
   "byteOffset": 7932,
   "target": 34962
  },
  {
   "buffer": 0,
   "byteLength": 1152,
   "byteOffset": 8220,
   "target": 34962
  },
  {
   "buffer": 0,
   "byteLength": 1152,
   "byteOffset": 9372,
   "target": 34962
  },
  {
   "buffer": 0,
   "byteLength": 288,
   "byteOffset": 10524,
   "target": 34963
  },
  {
   "buffer": 0,
   "byteLength": 864,
   "byteOffset": 10812,
   "target": 34962
  },
  {
   "buffer": 0,
   "byteLength": 864,
   "byteOffset": 11676,
   "target": 34962
  },
  {
   "buffer": 0,
   "byteLength": 216,
   "byteOffset": 12540,
   "target": 34963
  },
  {
   "buffer": 0,
   "byteLength": 288,
   "byteOffset": 12756,
   "target": 34962
  },
  {
   "buffer": 0,
   "byteLength": 288,
   "byteOffset": 13044,
   "target": 34962
  },
  {
   "buffer": 0,
   "byteLength": 576,
   "byteOffset": 13332,
   "target": 34962
  },
  {
   "buffer": 0,
   "byteLength": 576,
   "byteOffset": 13908,
   "target": 34962
  }
 ],
 "buffers": [
  {
   "byteLength": 14484,
   "uri": "GH_AnnexStore_L.bin"
  }
 ]
}
