{
 "asset": {
  "generator": "Khronos glTF Blender I/O v5.2.40",
  "version": "2.0",
  "extras": {
   "exported_by": "blender/tools/export_building_kit.py",
   "module_scale": 1.0
  }
 },
 "scene": 0,
 "scenes": [
  {
   "name": "Station_ground_hub",
   "nodes": [
    0
   ]
  }
 ],
 "nodes": [
  {
   "extras": {
    "edit_note": "The fence across a platform's far end (\u30db\u30fc\u30e0\u7aef\u306e\u67f5): the end without a building."
   },
   "mesh": 0,
   "name": "GH_EndFence_129"
  }
 ],
 "materials": [
  {
   "doubleSided": true,
   "name": "MI_PaintedMetal",
   "pbrMetallicRoughness": {
    "baseColorFactor": [
     0.8999999761581421,
     0.8999999761581421,
     0.8899999856948853,
     1
    ],
    "metallicFactor": 0.30000001192092896,
    "roughnessFactor": 0.699999988079071
   }
  }
 ],
 "meshes": [
  {
   "name": "GH_EndFence_129",
   "primitives": [
    {
     "attributes": {
      "POSITION": 0,
      "NORMAL": 1
     },
     "indices": 2,
     "material": 0
    }
   ]
  }
 ],
 "accessors": [
  {
   "bufferView": 0,
   "componentType": 5126,
   "count": 1344,
   "max": [
    0.03999999910593033,
    1.7999999523162842,
    6.449999809265137
   ],
   "min": [
    -0.03999999910593033,
    0,
    -6.449999809265137
   ],
   "type": "VEC3"
  },
  {
   "bufferView": 1,
   "componentType": 5126,
   "count": 1344,
   "type": "VEC3"
  },
  {
   "bufferView": 2,
   "componentType": 5123,
   "count": 2016,
   "type": "SCALAR"
  }
 ],
 "bufferViews": [
  {
   "buffer": 0,
   "byteLength": 16128,
   "byteOffset": 0,
   "target": 34962
  },
  {
   "buffer": 0,
   "byteLength": 16128,
   "byteOffset": 16128,
   "target": 34962
  },
  {
   "buffer": 0,
   "byteLength": 4032,
   "byteOffset": 32256,
   "target": 34963
  }
 ],
 "buffers": [
  {
   "byteLength": 36288,
   "uri": "GH_EndFence_129.bin"
  }
 ]
}
