{
 "asset": {
  "generator": "Khronos glTF Blender I/O v5.2.40",
  "version": "2.0",
  "extras": {
   "exported_by": "blender/tools/export_building_kit.py",
   "module_scale": 0.91
  }
 },
 "scene": 0,
 "scenes": [
  {
   "extras": {
    "bk_kit": "quaternius_downtown_city",
    "bk_module_scale": 0.91,
    "bk_status": "OWNER: this file is the source of the kit's pieces. Edit a piece in its collection (origin = the piece's own origin + the collection's instance_offset), then run tools/building_kit/build_buildings.sh, which exports pieces/ with blender/tools/export_building_kit.py. A moved or resized piece is refused unless ACCEPT_BOUNDS=1."
   },
   "name": "Scene",
   "nodes": [
    0
   ]
  }
 ],
 "nodes": [
  {
   "mesh": 0,
   "name": "Building_Medium_2.001"
  }
 ],
 "materials": [
  {
   "doubleSided": true,
   "name": "MI_InteriorFloor",
   "normalTexture": {
    "index": 0
   },
   "pbrMetallicRoughness": {
    "baseColorTexture": {
     "index": 1
    },
    "metallicRoughnessTexture": {
     "index": 2
    }
   }
  },
  {
   "doubleSided": true,
   "name": "MI_Trim_Green",
   "normalTexture": {
    "index": 3
   },
   "pbrMetallicRoughness": {
    "baseColorTexture": {
     "index": 4
    },
    "metallicRoughnessTexture": {
     "index": 5
    }
   }
  },
  {
   "doubleSided": true,
   "name": "MI_FakeInterior_1",
   "pbrMetallicRoughness": {
    "baseColorTexture": {
     "index": 6
    },
    "metallicFactor": 0,
    "roughnessFactor": 0.5
   }
  },
  {
   "doubleSided": true,
   "name": "MI_FakeInterior_2",
   "pbrMetallicRoughness": {
    "baseColorTexture": {
     "index": 7
    },
    "metallicFactor": 0,
    "roughnessFactor": 0.5
   }
  },
  {
   "doubleSided": true,
   "name": "MI_FakeInterior_3",
   "pbrMetallicRoughness": {
    "baseColorTexture": {
     "index": 8
    },
    "metallicFactor": 0,
    "roughnessFactor": 0.5
   }
  },
  {
   "doubleSided": true,
   "name": "MI_FakeInterior_4",
   "pbrMetallicRoughness": {
    "baseColorTexture": {
     "index": 9
    },
    "metallicFactor": 0,
    "roughnessFactor": 0.5
   }
  },
  {
   "doubleSided": true,
   "name": "MI_InteriorWall",
   "normalTexture": {
    "index": 10
   },
   "pbrMetallicRoughness": {
    "baseColorTexture": {
     "index": 11
    },
    "metallicRoughnessTexture": {
     "index": 12
    }
   }
  },
  {
   "doubleSided": true,
   "name": "MI_Trim",
   "normalTexture": {
    "index": 13
   },
   "pbrMetallicRoughness": {
    "baseColorTexture": {
     "index": 14
    },
    "metallicRoughnessTexture": {
     "index": 15
    }
   }
  },
  {
   "alphaMode": "BLEND",
   "doubleSided": true,
   "name": "MI_Glass",
   "pbrMetallicRoughness": {
    "baseColorFactor": [
     0.05215025693178177,
     0.05215025693178177,
     0.05215025693178177,
     0.586363673210144
    ],
    "metallicFactor": 0,
    "roughnessFactor": 0.5
   }
  },
  {
   "doubleSided": true,
   "name": "MI_Trim_Dark",
   "normalTexture": {
    "index": 16
   },
   "pbrMetallicRoughness": {
    "baseColorTexture": {
     "index": 17
    },
    "metallicRoughnessTexture": {
     "index": 18
    }
   }
  },
  {
   "doubleSided": true,
   "name": "MI_RedBrick",
   "normalTexture": {
    "index": 19
   },
   "pbrMetallicRoughness": {
    "baseColorTexture": {
     "index": 20
    },
    "metallicRoughnessTexture": {
     "index": 21
    }
   }
  },
  {
   "doubleSided": true,
   "name": "MI_Asphalt",
   "normalTexture": {
    "index": 22
   },
   "pbrMetallicRoughness": {
    "baseColorTexture": {
     "index": 23
    },
    "metallicRoughnessTexture": {
     "index": 24
    }
   }
  }
 ],
 "meshes": [
  {
   "name": "Plane.002",
   "primitives": [
    {
     "attributes": {
      "POSITION": 0,
      "NORMAL": 1,
      "TEXCOORD_0": 2,
      "TEXCOORD_1": 3,
      "TEXCOORD_2": 4,
      "COLOR_0": 5
     },
     "indices": 6,
     "material": 0
    },
    {
     "attributes": {
      "POSITION": 7,
      "NORMAL": 8,
      "TEXCOORD_0": 9,
      "TEXCOORD_1": 10,
      "TEXCOORD_2": 11,
      "COLOR_0": 12
     },
     "indices": 13,
     "material": 1
    },
    {
     "attributes": {
      "POSITION": 14,
      "NORMAL": 15,
      "TEXCOORD_0": 16,
      "TEXCOORD_1": 17,
      "TEXCOORD_2": 18,
      "COLOR_0": 19
     },
     "indices": 20,
     "material": 2
    },
    {
     "attributes": {
      "POSITION": 21,
      "NORMAL": 22,
      "TEXCOORD_0": 23,
      "TEXCOORD_1": 24,
      "TEXCOORD_2": 25,
      "COLOR_0": 26
     },
     "indices": 27,
     "material": 3
    },
    {
     "attributes": {
      "POSITION": 28,
      "NORMAL": 29,
      "TEXCOORD_0": 30,
      "TEXCOORD_1": 31,
      "TEXCOORD_2": 32,
      "COLOR_0": 33
     },
     "indices": 34,
     "material": 4
    },
    {
     "attributes": {
      "POSITION": 35,
      "NORMAL": 36,
      "TEXCOORD_0": 37,
      "TEXCOORD_1": 38,
      "TEXCOORD_2": 39,
      "COLOR_0": 40
     },
     "indices": 41,
     "material": 5
    },
    {
     "attributes": {
      "POSITION": 42,
      "NORMAL": 43,
      "TEXCOORD_0": 44,
      "TEXCOORD_1": 45,
      "TEXCOORD_2": 46,
      "COLOR_0": 47
     },
     "indices": 48,
     "material": 6
    },
    {
     "attributes": {
      "POSITION": 49,
      "NORMAL": 50,
      "TEXCOORD_0": 51,
      "TEXCOORD_1": 52,
      "TEXCOORD_2": 53,
      "COLOR_0": 54
     },
     "indices": 55,
     "material": 7
    },
    {
     "attributes": {
      "POSITION": 56,
      "NORMAL": 57,
      "TEXCOORD_0": 58,
      "TEXCOORD_1": 59,
      "TEXCOORD_2": 60,
      "COLOR_0": 61
     },
     "indices": 62,
     "material": 8
    },
    {
     "attributes": {
      "POSITION": 63,
      "NORMAL": 64,
      "TEXCOORD_0": 65,
      "TEXCOORD_1": 66,
      "TEXCOORD_2": 67,
      "COLOR_0": 68
     },
     "indices": 69,
     "material": 9
    },
    {
     "attributes": {
      "POSITION": 70,
      "NORMAL": 71,
      "TEXCOORD_0": 72,
      "TEXCOORD_1": 73,
      "TEXCOORD_2": 74,
      "COLOR_0": 75
     },
     "indices": 76,
     "material": 10
    },
    {
     "attributes": {
      "POSITION": 77,
      "NORMAL": 78,
      "TEXCOORD_0": 79,
      "TEXCOORD_1": 80,
      "TEXCOORD_2": 81,
      "COLOR_0": 82
     },
     "indices": 83,
     "material": 11
    }
   ]
  }
 ],
 "textures": [
  {
   "sampler": 0,
   "source": 0
  },
  {
   "sampler": 0,
   "source": 1
  },
  {
   "sampler": 0,
   "source": 2
  },
  {
   "sampler": 0,
   "source": 3
  },
  {
   "sampler": 0,
   "source": 4
  },
  {
   "sampler": 0,
   "source": 5
  },
  {
   "sampler": 0,
   "source": 6
  },
  {
   "sampler": 0,
   "source": 7
  },
  {
   "sampler": 0,
   "source": 6
  },
  {
   "sampler": 0,
   "source": 8
  },
  {
   "sampler": 0,
   "source": 9
  },
  {
   "sampler": 0,
   "source": 10
  },
  {
   "sampler": 0,
   "source": 11
  },
  {
   "sampler": 0,
   "source": 3
  },
  {
   "sampler": 0,
   "source": 4
  },
  {
   "sampler": 0,
   "source": 5
  },
  {
   "sampler": 0,
   "source": 3
  },
  {
   "sampler": 0,
   "source": 4
  },
  {
   "sampler": 0,
   "source": 5
  },
  {
   "sampler": 0,
   "source": 9
  },
  {
   "sampler": 0,
   "source": 10
  },
  {
   "sampler": 0,
   "source": 11
  },
  {
   "sampler": 0,
   "source": 12
  },
  {
   "sampler": 0,
   "source": 13
  },
  {
   "sampler": 0,
   "source": 14
  }
 ],
 "images": [
  {
   "mimeType": "image/png",
   "name": "T_MarbleFloor_Normal",
   "uri": "../../textures/T_MarbleFloor_Normal.png"
  },
  {
   "mimeType": "image/png",
   "name": "T_MarbleFloor_BaseColor",
   "uri": "../../textures/T_MarbleFloor_BaseColor.png"
  },
  {
   "mimeType": "image/png",
   "name": "T_MarbleFloor_ORM",
   "uri": "../../textures/T_MarbleFloor_ORM.png"
  },
  {
   "mimeType": "image/png",
   "name": "T_Trim_Normal",
   "uri": "../../textures/T_Trim_Normal.png"
  },
  {
   "mimeType": "image/png",
   "name": "T_Trim_BaseColor",
   "uri": "../../textures/T_Trim_BaseColor.png"
  },
  {
   "mimeType": "image/png",
   "name": "T_Trim_ORM",
   "uri": "../../textures/T_Trim_ORM.png"
  },
  {
   "mimeType": "image/png",
   "name": "T_lit_interior_1",
   "uri": "../../textures/T_lit_interior_1.png"
  },
  {
   "mimeType": "image/png",
   "name": "T_lit_interior_2",
   "uri": "../../textures/T_lit_interior_2.png"
  },
  {
   "mimeType": "image/png",
   "name": "T_dark_interior",
   "uri": "../../textures/T_dark_interior.png"
  },
  {
   "mimeType": "image/png",
   "name": "T_RedBrick_Normal",
   "uri": "../../textures/T_RedBrick_Normal.png"
  },
  {
   "mimeType": "image/png",
   "name": "T_RedBrick_BaseColor",
   "uri": "../../textures/T_RedBrick_BaseColor.png"
  },
  {
   "mimeType": "image/png",
   "name": "T_RedBrick_ORM",
   "uri": "../../textures/T_RedBrick_ORM.png"
  },
  {
   "mimeType": "image/png",
   "name": "T_Concrete_Normal",
   "uri": "../../textures/T_Concrete_Normal.png"
  },
  {
   "mimeType": "image/png",
   "name": "T_Concrete_Asphalt_BaseColor",
   "uri": "../../textures/T_Concrete_Asphalt_BaseColor.png"
  },
  {
   "mimeType": "image/png",
   "name": "T_Concrete_ORM",
   "uri": "../../textures/T_Concrete_ORM.png"
  }
 ],
 "accessors": [
  {
   "bufferView": 0,
   "componentType": 5126,
   "count": 24,
   "max": [
    6.369964599609375,
    0,
    -0.004674304276704788
   ],
   "min": [
    -6.370035171508789,
    0,
    -10.883434295654297
   ],
   "type": "VEC3"
  },
  {
   "bufferView": 1,
   "componentType": 5126,
   "count": 24,
   "type": "VEC3"
  },
  {
   "bufferView": 2,
   "componentType": 5126,
   "count": 24,
   "type": "VEC2"
  },
  {
   "bufferView": 3,
   "componentType": 5126,
   "count": 24,
   "type": "VEC2"
  },
  {
   "bufferView": 4,
   "componentType": 5126,
   "count": 24,
   "type": "VEC2"
  },
  {
   "bufferView": 5,
   "componentType": 5123,
   "count": 24,
   "normalized": true,
   "type": "VEC4"
  },
  {
   "bufferView": 6,
   "componentType": 5123,
   "count": 36,
   "type": "SCALAR"
  },
  {
   "bufferView": 7,
   "componentType": 5126,
   "count": 2170,
   "max": [
    6.436822414398193,
    3.3162076473236084,
    0.14438499510288239
   ],
   "min": [
    -6.436891078948975,
    -0.009350384585559368,
    -0.15921957790851593
   ],
   "type": "VEC3"
  },
  {
   "bufferView": 8,
   "componentType": 5126,
   "count": 2170,
   "type": "VEC3"
  },
  {
   "bufferView": 9,
   "componentType": 5126,
   "count": 2170,
   "type": "VEC2"
  },
  {
   "bufferView": 10,
   "componentType": 5126,
   "count": 2170,
   "type": "VEC2"
  },
  {
   "bufferView": 11,
   "componentType": 5126,
   "count": 2170,
   "type": "VEC2"
  },
  {
   "bufferView": 12,
   "componentType": 5123,
   "count": 2170,
   "normalized": true,
   "type": "VEC4"
  },
  {
   "bufferView": 13,
   "componentType": 5123,
   "count": 4608,
   "type": "SCALAR"
  },
  {
   "bufferView": 14,
   "componentType": 5126,
   "count": 36,
   "max": [
    4.543975353240967,
    18.996864318847656,
    -0.13790935277938843
   ],
   "min": [
    -6.364044666290283,
    0.08696085959672928,
    -0.1427050530910492
   ],
   "type": "VEC3"
  },
  {
   "bufferView": 15,
   "componentType": 5126,
   "count": 36,
   "type": "VEC3"
  },
  {
   "bufferView": 16,
   "componentType": 5126,
   "count": 36,
   "type": "VEC2"
  },
  {
   "bufferView": 17,
   "componentType": 5126,
   "count": 36,
   "type": "VEC2"
  },
  {
   "bufferView": 18,
   "componentType": 5126,
   "count": 36,
   "type": "VEC2"
  },
  {
   "bufferView": 19,
   "componentType": 5123,
   "count": 36,
   "normalized": true,
   "type": "VEC4"
  },
  {
   "bufferView": 20,
   "componentType": 5123,
   "count": 54,
   "type": "SCALAR"
  },
  {
   "bufferView": 21,
   "componentType": 5126,
   "count": 24,
   "max": [
    6.363975524902344,
    18.996864318847656,
    -0.13790935277938843
   ],
   "min": [
    -4.526878356933594,
    0.08696085959672928,
    -0.1427050530910492
   ],
   "type": "VEC3"
  },
  {
   "bufferView": 22,
   "componentType": 5126,
   "count": 24,
   "type": "VEC3"
  },
  {
   "bufferView": 23,
   "componentType": 5126,
   "count": 24,
   "type": "VEC2"
  },
  {
   "bufferView": 24,
   "componentType": 5126,
   "count": 24,
   "type": "VEC2"
  },
  {
   "bufferView": 25,
   "componentType": 5126,
   "count": 24,
   "type": "VEC2"
  },
  {
   "bufferView": 26,
   "componentType": 5123,
   "count": 24,
   "normalized": true,
   "type": "VEC4"
  },
  {
   "bufferView": 27,
   "componentType": 5123,
   "count": 36,
   "type": "SCALAR"
  },
  {
   "bufferView": 28,
   "componentType": 5126,
   "count": 24,
   "max": [
    4.4755659103393555,
    16.266864776611328,
    -0.13790935277938843
   ],
   "min": [
    -4.544044494628906,
    0.08696085959672928,
    -0.1427050530910492
   ],
   "type": "VEC3"
  },
  {
   "bufferView": 29,
   "componentType": 5126,
   "count": 24,
   "type": "VEC3"
  },
  {
   "bufferView": 30,
   "componentType": 5126,
   "count": 24,
   "type": "VEC2"
  },
  {
   "bufferView": 31,
   "componentType": 5126,
   "count": 24,
   "type": "VEC2"
  },
  {
   "bufferView": 32,
   "componentType": 5126,
   "count": 24,
   "type": "VEC2"
  },
  {
   "bufferView": 33,
   "componentType": 5123,
   "count": 24,
   "normalized": true,
   "type": "VEC4"
  },
  {
   "bufferView": 34,
   "componentType": 5123,
   "count": 36,
   "type": "SCALAR"
  },
  {
   "bufferView": 35,
   "componentType": 5126,
   "count": 20,
   "max": [
    4.53837251663208,
    16.266864776611328,
    -0.13790935277938843
   ],
   "min": [
    -4.475634574890137,
    0.08696085959672928,
    -0.1427050530910492
   ],
   "type": "VEC3"
  },
  {
   "bufferView": 36,
   "componentType": 5126,
   "count": 20,
   "type": "VEC3"
  },
  {
   "bufferView": 37,
   "componentType": 5126,
   "count": 20,
   "type": "VEC2"
  },
  {
   "bufferView": 38,
   "componentType": 5126,
   "count": 20,
   "type": "VEC2"
  },
  {
   "bufferView": 39,
   "componentType": 5126,
   "count": 20,
   "type": "VEC2"
  },
  {
   "bufferView": 40,
   "componentType": 5123,
   "count": 20,
   "normalized": true,
   "type": "VEC4"
  },
  {
   "bufferView": 41,
   "componentType": 5123,
   "count": 30,
   "type": "SCALAR"
  },
  {
   "bufferView": 42,
   "componentType": 5126,
   "count": 2182,
   "max": [
    6.369964599609375,
    21.84000015258789,
    0.036565616726875305
   ],
   "min": [
    -6.370034694671631,
    0,
    -10.883434295654297
   ],
   "type": "VEC3"
  },
  {
   "bufferView": 43,
   "componentType": 5126,
   "count": 2182,
   "type": "VEC3"
  },
  {
   "bufferView": 44,
   "componentType": 5126,
   "count": 2182,
   "type": "VEC2"
  },
  {
   "bufferView": 45,
   "componentType": 5126,
   "count": 2182,
   "type": "VEC2"
  },
  {
   "bufferView": 46,
   "componentType": 5126,
   "count": 2182,
   "type": "VEC2"
  },
  {
   "bufferView": 47,
   "componentType": 5123,
   "count": 2182,
   "normalized": true,
   "type": "VEC4"
  },
  {
   "bufferView": 48,
   "componentType": 5123,
   "count": 3978,
   "type": "SCALAR"
  },
  {
   "bufferView": 49,
   "componentType": 5126,
   "count": 29006,
   "max": [
    6.850301265716553,
    22.7485294342041,
    0.5169001221656799
   ],
   "min": [
    -6.850370407104492,
    -2.1696091323519795e-07,
    -11.363770484924316
   ],
   "type": "VEC3"
  },
  {
   "bufferView": 50,
   "componentType": 5126,
   "count": 29006,
   "type": "VEC3"
  },
  {
   "bufferView": 51,
   "componentType": 5126,
   "count": 29006,
   "type": "VEC2"
  },
  {
   "bufferView": 52,
   "componentType": 5126,
   "count": 29006,
   "type": "VEC2"
  },
  {
   "bufferView": 53,
   "componentType": 5126,
   "count": 29006,
   "type": "VEC2"
  },
  {
   "bufferView": 54,
   "componentType": 5123,
   "count": 29006,
   "normalized": true,
   "type": "VEC4"
  },
  {
   "bufferView": 55,
   "componentType": 5123,
   "count": 51636,
   "type": "SCALAR"
  },
  {
   "bufferView": 56,
   "componentType": 5126,
   "count": 728,
   "max": [
    6.034237384796143,
    18.102619171142578,
    -0.09983991831541061
   ],
   "min": [
    -6.058994293212891,
    0.5784151554107666,
    -0.14539840817451477
   ],
   "type": "VEC3"
  },
  {
   "bufferView": 57,
   "componentType": 5126,
   "count": 728,
   "type": "VEC3"
  },
  {
   "bufferView": 58,
   "componentType": 5126,
   "count": 728,
   "type": "VEC2"
  },
  {
   "bufferView": 59,
   "componentType": 5126,
   "count": 728,
   "type": "VEC2"
  },
  {
   "bufferView": 60,
   "componentType": 5126,
   "count": 728,
   "type": "VEC2"
  },
  {
   "bufferView": 61,
   "componentType": 5123,
   "count": 728,
   "normalized": true,
   "type": "VEC4"
  },
  {
   "bufferView": 62,
   "componentType": 5123,
   "count": 1206,
   "type": "SCALAR"
  },
  {
   "bufferView": 63,
   "componentType": 5126,
   "count": 3010,
   "max": [
    4.121013641357422,
    4.772493362426758,
    -0.05362297222018242
   ],
   "min": [
    -4.12453031539917,
    3.7293012142181396,
    -0.18160571157932281
   ],
   "type": "VEC3"
  },
  {
   "bufferView": 64,
   "componentType": 5126,
   "count": 3010,
   "type": "VEC3"
  },
  {
   "bufferView": 65,
   "componentType": 5126,
   "count": 3010,
   "type": "VEC2"
  },
  {
   "bufferView": 66,
   "componentType": 5126,
   "count": 3010,
   "type": "VEC2"
  },
  {
   "bufferView": 67,
   "componentType": 5126,
   "count": 3010,
   "type": "VEC2"
  },
  {
   "bufferView": 68,
   "componentType": 5123,
   "count": 3010,
   "normalized": true,
   "type": "VEC4"
  },
  {
   "bufferView": 69,
   "componentType": 5123,
   "count": 5820,
   "type": "SCALAR"
  },
  {
   "bufferView": 70,
   "componentType": 5126,
   "count": 4704,
   "max": [
    6.453953266143799,
    21.84000015258789,
    0.1935819536447525
   ],
   "min": [
    -6.474852085113525,
    5.458127021789551,
    -10.883434295654297
   ],
   "type": "VEC3"
  },
  {
   "bufferView": 71,
   "componentType": 5126,
   "count": 4704,
   "type": "VEC3"
  },
  {
   "bufferView": 72,
   "componentType": 5126,
   "count": 4704,
   "type": "VEC2"
  },
  {
   "bufferView": 73,
   "componentType": 5126,
   "count": 4704,
   "type": "VEC2"
  },
  {
   "bufferView": 74,
   "componentType": 5126,
   "count": 4704,
   "type": "VEC2"
  },
  {
   "bufferView": 75,
   "componentType": 5123,
   "count": 4704,
   "normalized": true,
   "type": "VEC4"
  },
  {
   "bufferView": 76,
   "componentType": 5123,
   "count": 9324,
   "type": "SCALAR"
  },
  {
   "bufferView": 77,
   "componentType": 5126,
   "count": 48,
   "max": [
    6.369965076446533,
    22.5679988861084,
    0.036565616726875305
   ],
   "min": [
    -6.370034694671631,
    21.7856502532959,
    -10.883434295654297
   ],
   "type": "VEC3"
  },
  {
   "bufferView": 78,
   "componentType": 5126,
   "count": 48,
   "type": "VEC3"
  },
  {
   "bufferView": 79,
   "componentType": 5126,
   "count": 48,
   "type": "VEC2"
  },
  {
   "bufferView": 80,
   "componentType": 5126,
   "count": 48,
   "type": "VEC2"
  },
  {
   "bufferView": 81,
   "componentType": 5126,
   "count": 48,
   "type": "VEC2"
  },
  {
   "bufferView": 82,
   "componentType": 5123,
   "count": 48,
   "normalized": true,
   "type": "VEC4"
  },
  {
   "bufferView": 83,
   "componentType": 5123,
   "count": 72,
   "type": "SCALAR"
  }
 ],
 "bufferViews": [
  {
   "buffer": 0,
   "byteLength": 288,
   "byteOffset": 0,
   "target": 34962
  },
  {
   "buffer": 0,
   "byteLength": 288,
   "byteOffset": 288,
   "target": 34962
  },
  {
   "buffer": 0,
   "byteLength": 192,
   "byteOffset": 576,
   "target": 34962
  },
  {
   "buffer": 0,
   "byteLength": 192,
   "byteOffset": 768,
   "target": 34962
  },
  {
   "buffer": 0,
   "byteLength": 192,
   "byteOffset": 960,
   "target": 34962
  },
  {
   "buffer": 0,
   "byteLength": 192,
   "byteOffset": 1152,
   "target": 34962
  },
  {
   "buffer": 0,
   "byteLength": 72,
   "byteOffset": 1344,
   "target": 34963
  },
  {
   "buffer": 0,
   "byteLength": 26040,
   "byteOffset": 1416,
   "target": 34962
  },
  {
   "buffer": 0,
   "byteLength": 26040,
   "byteOffset": 27456,
   "target": 34962
  },
  {
   "buffer": 0,
   "byteLength": 17360,
   "byteOffset": 53496,
   "target": 34962
  },
  {
   "buffer": 0,
   "byteLength": 17360,
   "byteOffset": 70856,
   "target": 34962
  },
  {
   "buffer": 0,
   "byteLength": 17360,
   "byteOffset": 88216,
   "target": 34962
  },
  {
   "buffer": 0,
   "byteLength": 17360,
   "byteOffset": 105576,
   "target": 34962
  },
  {
   "buffer": 0,
   "byteLength": 9216,
   "byteOffset": 122936,
   "target": 34963
  },
  {
   "buffer": 0,
   "byteLength": 432,
   "byteOffset": 132152,
   "target": 34962
  },
  {
   "buffer": 0,
   "byteLength": 432,
   "byteOffset": 132584,
   "target": 34962
  },
  {
   "buffer": 0,
   "byteLength": 288,
   "byteOffset": 133016,
   "target": 34962
  },
  {
   "buffer": 0,
   "byteLength": 288,
   "byteOffset": 133304,
   "target": 34962
  },
  {
   "buffer": 0,
   "byteLength": 288,
   "byteOffset": 133592,
   "target": 34962
  },
  {
   "buffer": 0,
   "byteLength": 288,
   "byteOffset": 133880,
   "target": 34962
  },
  {
   "buffer": 0,
   "byteLength": 108,
   "byteOffset": 134168,
   "target": 34963
  },
  {
   "buffer": 0,
   "byteLength": 288,
   "byteOffset": 134276,
   "target": 34962
  },
  {
   "buffer": 0,
   "byteLength": 288,
   "byteOffset": 134564,
   "target": 34962
  },
  {
   "buffer": 0,
   "byteLength": 192,
   "byteOffset": 134852,
   "target": 34962
  },
  {
   "buffer": 0,
   "byteLength": 192,
   "byteOffset": 135044,
   "target": 34962
  },
  {
   "buffer": 0,
   "byteLength": 192,
   "byteOffset": 135236,
   "target": 34962
  },
  {
   "buffer": 0,
   "byteLength": 192,
   "byteOffset": 135428,
   "target": 34962
  },
  {
   "buffer": 0,
   "byteLength": 72,
   "byteOffset": 135620,
   "target": 34963
  },
  {
   "buffer": 0,
   "byteLength": 288,
   "byteOffset": 135692,
   "target": 34962
  },
  {
   "buffer": 0,
   "byteLength": 288,
   "byteOffset": 135980,
   "target": 34962
  },
  {
   "buffer": 0,
   "byteLength": 192,
   "byteOffset": 136268,
   "target": 34962
  },
  {
   "buffer": 0,
   "byteLength": 192,
   "byteOffset": 136460,
   "target": 34962
  },
  {
   "buffer": 0,
   "byteLength": 192,
   "byteOffset": 136652,
   "target": 34962
  },
  {
   "buffer": 0,
   "byteLength": 192,
   "byteOffset": 136844,
   "target": 34962
  },
  {
   "buffer": 0,
   "byteLength": 72,
   "byteOffset": 137036,
   "target": 34963
  },
  {
   "buffer": 0,
   "byteLength": 240,
   "byteOffset": 137108,
   "target": 34962
  },
  {
   "buffer": 0,
   "byteLength": 240,
   "byteOffset": 137348,
   "target": 34962
  },
  {
   "buffer": 0,
   "byteLength": 160,
   "byteOffset": 137588,
   "target": 34962
  },
  {
   "buffer": 0,
   "byteLength": 160,
   "byteOffset": 137748,
   "target": 34962
  },
  {
   "buffer": 0,
   "byteLength": 160,
   "byteOffset": 137908,
   "target": 34962
  },
  {
   "buffer": 0,
   "byteLength": 160,
   "byteOffset": 138068,
   "target": 34962
  },
  {
   "buffer": 0,
   "byteLength": 60,
   "byteOffset": 138228,
   "target": 34963
  },
  {
   "buffer": 0,
   "byteLength": 26184,
   "byteOffset": 138288,
   "target": 34962
  },
  {
   "buffer": 0,
   "byteLength": 26184,
   "byteOffset": 164472,
   "target": 34962
  },
  {
   "buffer": 0,
   "byteLength": 17456,
   "byteOffset": 190656,
   "target": 34962
  },
  {
   "buffer": 0,
   "byteLength": 17456,
   "byteOffset": 208112,
   "target": 34962
  },
  {
   "buffer": 0,
   "byteLength": 17456,
   "byteOffset": 225568,
   "target": 34962
  },
  {
   "buffer": 0,
   "byteLength": 17456,
   "byteOffset": 243024,
   "target": 34962
  },
  {
   "buffer": 0,
   "byteLength": 7956,
   "byteOffset": 260480,
   "target": 34963
  },
  {
   "buffer": 0,
   "byteLength": 348072,
   "byteOffset": 268436,
   "target": 34962
  },
  {
   "buffer": 0,
   "byteLength": 348072,
   "byteOffset": 616508,
   "target": 34962
  },
  {
   "buffer": 0,
   "byteLength": 232048,
   "byteOffset": 964580,
   "target": 34962
  },
  {
   "buffer": 0,
   "byteLength": 232048,
   "byteOffset": 1196628,
   "target": 34962
  },
  {
   "buffer": 0,
   "byteLength": 232048,
   "byteOffset": 1428676,
   "target": 34962
  },
  {
   "buffer": 0,
   "byteLength": 232048,
   "byteOffset": 1660724,
   "target": 34962
  },
  {
   "buffer": 0,
   "byteLength": 103272,
   "byteOffset": 1892772,
   "target": 34963
  },
  {
   "buffer": 0,
   "byteLength": 8736,
   "byteOffset": 1996044,
   "target": 34962
  },
  {
   "buffer": 0,
   "byteLength": 8736,
   "byteOffset": 2004780,
   "target": 34962
  },
  {
   "buffer": 0,
   "byteLength": 5824,
   "byteOffset": 2013516,
   "target": 34962
  },
  {
   "buffer": 0,
   "byteLength": 5824,
   "byteOffset": 2019340,
   "target": 34962
  },
  {
   "buffer": 0,
   "byteLength": 5824,
   "byteOffset": 2025164,
   "target": 34962
  },
  {
   "buffer": 0,
   "byteLength": 5824,
   "byteOffset": 2030988,
   "target": 34962
  },
  {
   "buffer": 0,
   "byteLength": 2412,
   "byteOffset": 2036812,
   "target": 34963
  },
  {
   "buffer": 0,
   "byteLength": 36120,
   "byteOffset": 2039224,
   "target": 34962
  },
  {
   "buffer": 0,
   "byteLength": 36120,
   "byteOffset": 2075344,
   "target": 34962
  },
  {
   "buffer": 0,
   "byteLength": 24080,
   "byteOffset": 2111464,
   "target": 34962
  },
  {
   "buffer": 0,
   "byteLength": 24080,
   "byteOffset": 2135544,
   "target": 34962
  },
  {
   "buffer": 0,
   "byteLength": 24080,
   "byteOffset": 2159624,
   "target": 34962
  },
  {
   "buffer": 0,
   "byteLength": 24080,
   "byteOffset": 2183704,
   "target": 34962
  },
  {
   "buffer": 0,
   "byteLength": 11640,
   "byteOffset": 2207784,
   "target": 34963
  },
  {
   "buffer": 0,
   "byteLength": 56448,
   "byteOffset": 2219424,
   "target": 34962
  },
  {
   "buffer": 0,
   "byteLength": 56448,
   "byteOffset": 2275872,
   "target": 34962
  },
  {
   "buffer": 0,
   "byteLength": 37632,
   "byteOffset": 2332320,
   "target": 34962
  },
  {
   "buffer": 0,
   "byteLength": 37632,
   "byteOffset": 2369952,
   "target": 34962
  },
  {
   "buffer": 0,
   "byteLength": 37632,
   "byteOffset": 2407584,
   "target": 34962
  },
  {
   "buffer": 0,
   "byteLength": 37632,
   "byteOffset": 2445216,
   "target": 34962
  },
  {
   "buffer": 0,
   "byteLength": 18648,
   "byteOffset": 2482848,
   "target": 34963
  },
  {
   "buffer": 0,
   "byteLength": 576,
   "byteOffset": 2501496,
   "target": 34962
  },
  {
   "buffer": 0,
   "byteLength": 576,
   "byteOffset": 2502072,
   "target": 34962
  },
  {
   "buffer": 0,
   "byteLength": 384,
   "byteOffset": 2502648,
   "target": 34962
  },
  {
   "buffer": 0,
   "byteLength": 384,
   "byteOffset": 2503032,
   "target": 34962
  },
  {
   "buffer": 0,
   "byteLength": 384,
   "byteOffset": 2503416,
   "target": 34962
  },
  {
   "buffer": 0,
   "byteLength": 384,
   "byteOffset": 2503800,
   "target": 34962
  },
  {
   "buffer": 0,
   "byteLength": 144,
   "byteOffset": 2504184,
   "target": 34963
  }
 ],
 "samplers": [
  {
   "magFilter": 9729,
   "minFilter": 9987
  }
 ],
 "buffers": [
  {
   "byteLength": 2504328,
   "uri": "Building_Medium_2_001.bin"
  }
 ]
}
