{
 "asset": {
  "generator": "Khronos glTF Blender I/O v5.2.40",
  "version": "2.0",
  "extras": {
   "exported_by": "blender/tools/export_building_kit.py",
   "module_scale": 0.91
  }
 },
 "scene": 0,
 "scenes": [
  {
   "extras": {
    "bk_kit": "quaternius_downtown_city",
    "bk_module_scale": 0.91,
    "bk_status": "OWNER: this file is the source of the kit's pieces. Edit a piece in its collection (origin = the piece's own origin + the collection's instance_offset), then run tools/building_kit/build_buildings.sh, which exports pieces/ with blender/tools/export_building_kit.py. A moved or resized piece is refused unless ACCEPT_BOUNDS=1."
   },
   "name": "Scene",
   "nodes": [
    0
   ]
  }
 ],
 "nodes": [
  {
   "mesh": 0,
   "name": "Building_Small_1"
  }
 ],
 "materials": [
  {
   "doubleSided": true,
   "name": "MI_RedBrick_Pale",
   "normalTexture": {
    "index": 0
   },
   "pbrMetallicRoughness": {
    "baseColorTexture": {
     "index": 1
    },
    "metallicRoughnessTexture": {
     "index": 2
    }
   }
  },
  {
   "doubleSided": true,
   "name": "MI_Trim",
   "normalTexture": {
    "index": 3
   },
   "pbrMetallicRoughness": {
    "baseColorTexture": {
     "index": 4
    },
    "metallicRoughnessTexture": {
     "index": 5
    }
   }
  },
  {
   "doubleSided": true,
   "name": "MI_InteriorWall",
   "normalTexture": {
    "index": 6
   },
   "pbrMetallicRoughness": {
    "baseColorTexture": {
     "index": 7
    },
    "metallicRoughnessTexture": {
     "index": 8
    }
   }
  },
  {
   "doubleSided": true,
   "name": "MI_Trim_MetalConcrete",
   "normalTexture": {
    "index": 9
   },
   "pbrMetallicRoughness": {
    "baseColorTexture": {
     "index": 10
    },
    "metallicRoughnessTexture": {
     "index": 11
    }
   }
  },
  {
   "alphaMode": "BLEND",
   "doubleSided": true,
   "name": "MI_Glass",
   "pbrMetallicRoughness": {
    "baseColorFactor": [
     0.05215025693178177,
     0.05215025693178177,
     0.05215025693178177,
     0.586363673210144
    ],
    "metallicFactor": 0,
    "roughnessFactor": 0.5
   }
  },
  {
   "doubleSided": true,
   "name": "MI_FakeInterior_2",
   "pbrMetallicRoughness": {
    "baseColorTexture": {
     "index": 12
    },
    "metallicFactor": 0,
    "roughnessFactor": 0.5
   }
  },
  {
   "doubleSided": true,
   "name": "MI_Trim_Dark",
   "normalTexture": {
    "index": 13
   },
   "pbrMetallicRoughness": {
    "baseColorTexture": {
     "index": 14
    },
    "metallicRoughnessTexture": {
     "index": 15
    }
   }
  },
  {
   "doubleSided": true,
   "name": "MI_FakeInterior_1",
   "pbrMetallicRoughness": {
    "baseColorTexture": {
     "index": 16
    },
    "metallicFactor": 0,
    "roughnessFactor": 0.5
   }
  },
  {
   "doubleSided": true,
   "name": "MI_Concrete",
   "normalTexture": {
    "index": 17
   },
   "pbrMetallicRoughness": {
    "baseColorTexture": {
     "index": 18
    },
    "metallicRoughnessTexture": {
     "index": 19
    }
   }
  },
  {
   "doubleSided": true,
   "name": "MI_FakeInterior_4",
   "pbrMetallicRoughness": {
    "baseColorTexture": {
     "index": 20
    },
    "metallicFactor": 0,
    "roughnessFactor": 0.5
   }
  },
  {
   "doubleSided": true,
   "name": "MI_FakeInterior_3",
   "pbrMetallicRoughness": {
    "baseColorTexture": {
     "index": 21
    },
    "metallicFactor": 0,
    "roughnessFactor": 0.5
   }
  },
  {
   "doubleSided": true,
   "name": "MI_Asphalt",
   "normalTexture": {
    "index": 22
   },
   "pbrMetallicRoughness": {
    "baseColorTexture": {
     "index": 23
    },
    "metallicRoughnessTexture": {
     "index": 24
    }
   }
  },
  {
   "doubleSided": true,
   "name": "MI_InteriorFloor",
   "normalTexture": {
    "index": 25
   },
   "pbrMetallicRoughness": {
    "baseColorTexture": {
     "index": 26
    },
    "metallicRoughnessTexture": {
     "index": 27
    }
   }
  }
 ],
 "meshes": [
  {
   "name": "Cube.5047",
   "primitives": [
    {
     "attributes": {
      "POSITION": 0,
      "NORMAL": 1,
      "TEXCOORD_0": 2,
      "TEXCOORD_1": 3,
      "COLOR_0": 4,
      "COLOR_1": 5
     },
     "indices": 6,
     "material": 0
    },
    {
     "attributes": {
      "POSITION": 7,
      "NORMAL": 8,
      "TEXCOORD_0": 9,
      "TEXCOORD_1": 10,
      "COLOR_0": 11,
      "COLOR_1": 12
     },
     "indices": 13,
     "material": 1
    },
    {
     "attributes": {
      "POSITION": 14,
      "NORMAL": 15,
      "TEXCOORD_0": 16,
      "TEXCOORD_1": 17,
      "COLOR_0": 18,
      "COLOR_1": 19
     },
     "indices": 20,
     "material": 2
    },
    {
     "attributes": {
      "POSITION": 21,
      "NORMAL": 22,
      "TEXCOORD_0": 23,
      "TEXCOORD_1": 24,
      "COLOR_0": 25,
      "COLOR_1": 26
     },
     "indices": 27,
     "material": 3
    },
    {
     "attributes": {
      "POSITION": 28,
      "NORMAL": 29,
      "TEXCOORD_0": 30,
      "TEXCOORD_1": 31,
      "COLOR_0": 32,
      "COLOR_1": 33
     },
     "indices": 34,
     "material": 4
    },
    {
     "attributes": {
      "POSITION": 35,
      "NORMAL": 36,
      "TEXCOORD_0": 37,
      "TEXCOORD_1": 38,
      "COLOR_0": 39,
      "COLOR_1": 40
     },
     "indices": 41,
     "material": 5
    },
    {
     "attributes": {
      "POSITION": 42,
      "NORMAL": 43,
      "TEXCOORD_0": 44,
      "TEXCOORD_1": 45,
      "COLOR_0": 46,
      "COLOR_1": 47
     },
     "indices": 48,
     "material": 6
    },
    {
     "attributes": {
      "POSITION": 49,
      "NORMAL": 50,
      "TEXCOORD_0": 51,
      "TEXCOORD_1": 52,
      "COLOR_0": 53,
      "COLOR_1": 54
     },
     "indices": 55,
     "material": 7
    },
    {
     "attributes": {
      "POSITION": 56,
      "NORMAL": 57,
      "TEXCOORD_0": 58,
      "TEXCOORD_1": 59,
      "COLOR_0": 60,
      "COLOR_1": 61
     },
     "indices": 62,
     "material": 8
    },
    {
     "attributes": {
      "POSITION": 63,
      "NORMAL": 64,
      "TEXCOORD_0": 65,
      "TEXCOORD_1": 66,
      "COLOR_0": 67,
      "COLOR_1": 68
     },
     "indices": 69,
     "material": 9
    },
    {
     "attributes": {
      "POSITION": 70,
      "NORMAL": 71,
      "TEXCOORD_0": 72,
      "TEXCOORD_1": 73,
      "COLOR_0": 74,
      "COLOR_1": 75
     },
     "indices": 41,
     "material": 10
    },
    {
     "attributes": {
      "POSITION": 76,
      "NORMAL": 77,
      "TEXCOORD_0": 78,
      "TEXCOORD_1": 79,
      "COLOR_0": 80,
      "COLOR_1": 81
     },
     "indices": 82,
     "material": 11
    },
    {
     "attributes": {
      "POSITION": 83,
      "NORMAL": 84,
      "TEXCOORD_0": 85,
      "TEXCOORD_1": 86,
      "COLOR_0": 87,
      "COLOR_1": 88
     },
     "indices": 89,
     "material": 12
    }
   ]
  }
 ],
 "textures": [
  {
   "sampler": 0,
   "source": 0
  },
  {
   "sampler": 0,
   "source": 1
  },
  {
   "sampler": 0,
   "source": 2
  },
  {
   "sampler": 0,
   "source": 3
  },
  {
   "sampler": 0,
   "source": 4
  },
  {
   "sampler": 0,
   "source": 5
  },
  {
   "sampler": 0,
   "source": 0
  },
  {
   "sampler": 0,
   "source": 1
  },
  {
   "sampler": 0,
   "source": 2
  },
  {
   "sampler": 0,
   "source": 6
  },
  {
   "sampler": 0,
   "source": 7
  },
  {
   "sampler": 0,
   "source": 8
  },
  {
   "sampler": 0,
   "source": 9
  },
  {
   "sampler": 0,
   "source": 3
  },
  {
   "sampler": 0,
   "source": 4
  },
  {
   "sampler": 0,
   "source": 5
  },
  {
   "sampler": 0,
   "source": 10
  },
  {
   "sampler": 0,
   "source": 11
  },
  {
   "sampler": 0,
   "source": 12
  },
  {
   "sampler": 0,
   "source": 13
  },
  {
   "sampler": 0,
   "source": 14
  },
  {
   "sampler": 0,
   "source": 10
  },
  {
   "sampler": 0,
   "source": 11
  },
  {
   "sampler": 0,
   "source": 15
  },
  {
   "sampler": 0,
   "source": 13
  },
  {
   "sampler": 0,
   "source": 16
  },
  {
   "sampler": 0,
   "source": 17
  },
  {
   "sampler": 0,
   "source": 18
  }
 ],
 "images": [
  {
   "mimeType": "image/png",
   "name": "T_RedBrick_Normal",
   "uri": "../../textures/T_RedBrick_Normal.png"
  },
  {
   "mimeType": "image/png",
   "name": "T_RedBrick_BaseColor",
   "uri": "../../textures/T_RedBrick_BaseColor.png"
  },
  {
   "mimeType": "image/png",
   "name": "T_RedBrick_ORM",
   "uri": "../../textures/T_RedBrick_ORM.png"
  },
  {
   "mimeType": "image/png",
   "name": "T_Trim_Normal",
   "uri": "../../textures/T_Trim_Normal.png"
  },
  {
   "mimeType": "image/png",
   "name": "T_Trim_BaseColor",
   "uri": "../../textures/T_Trim_BaseColor.png"
  },
  {
   "mimeType": "image/png",
   "name": "T_Trim_ORM",
   "uri": "../../textures/T_Trim_ORM.png"
  },
  {
   "mimeType": "image/png",
   "name": "T_MetalConcrete_Normal",
   "uri": "../../textures/T_MetalConcrete_Normal.png"
  },
  {
   "mimeType": "image/png",
   "name": "T_MetalConcrete_BaseColor",
   "uri": "../../textures/T_MetalConcrete_BaseColor.png"
  },
  {
   "mimeType": "image/png",
   "name": "T_MetalConcrete_ORM",
   "uri": "../../textures/T_MetalConcrete_ORM.png"
  },
  {
   "mimeType": "image/png",
   "name": "T_lit_interior_2",
   "uri": "../../textures/T_lit_interior_2.png"
  },
  {
   "mimeType": "image/png",
   "name": "T_lit_interior_1",
   "uri": "../../textures/T_lit_interior_1.png"
  },
  {
   "mimeType": "image/png",
   "name": "T_Concrete_Normal",
   "uri": "../../textures/T_Concrete_Normal.png"
  },
  {
   "mimeType": "image/png",
   "name": "T_Concrete_BaseColor",
   "uri": "../../textures/T_Concrete_BaseColor.png"
  },
  {
   "mimeType": "image/png",
   "name": "T_Concrete_ORM",
   "uri": "../../textures/T_Concrete_ORM.png"
  },
  {
   "mimeType": "image/png",
   "name": "T_dark_interior",
   "uri": "../../textures/T_dark_interior.png"
  },
  {
   "mimeType": "image/png",
   "name": "T_Concrete_Asphalt_BaseColor",
   "uri": "../../textures/T_Concrete_Asphalt_BaseColor.png"
  },
  {
   "mimeType": "image/png",
   "name": "T_MarbleFloor_Normal",
   "uri": "../../textures/T_MarbleFloor_Normal.png"
  },
  {
   "mimeType": "image/png",
   "name": "T_MarbleFloor_BaseColor",
   "uri": "../../textures/T_MarbleFloor_BaseColor.png"
  },
  {
   "mimeType": "image/png",
   "name": "T_MarbleFloor_ORM",
   "uri": "../../textures/T_MarbleFloor_ORM.png"
  }
 ],
 "accessors": [
  {
   "bufferView": 0,
   "componentType": 5126,
   "count": 3002,
   "max": [
    4.704699993133545,
    15.089334487915039,
    0.1547001302242279
   ],
   "min": [
    -6.524700164794922,
    0.3806658387184143,
    -11.074700355529785
   ],
   "type": "VEC3"
  },
  {
   "bufferView": 1,
   "componentType": 5126,
   "count": 3002,
   "type": "VEC3"
  },
  {
   "bufferView": 2,
   "componentType": 5126,
   "count": 3002,
   "type": "VEC2"
  },
  {
   "bufferView": 3,
   "componentType": 5126,
   "count": 3002,
   "type": "VEC2"
  },
  {
   "bufferView": 4,
   "componentType": 5123,
   "count": 3002,
   "normalized": true,
   "type": "VEC4"
  },
  {
   "bufferView": 5,
   "componentType": 5123,
   "count": 3002,
   "normalized": true,
   "type": "VEC4"
  },
  {
   "bufferView": 6,
   "componentType": 5123,
   "count": 5484,
   "type": "SCALAR"
  },
  {
   "bufferView": 7,
   "componentType": 5126,
   "count": 1045,
   "max": [
    4.759300231933594,
    15.482760429382324,
    0.20930014550685883
   ],
   "min": [
    -6.579300403594971,
    0,
    -11.129300117492676
   ],
   "type": "VEC3"
  },
  {
   "bufferView": 8,
   "componentType": 5126,
   "count": 1045,
   "type": "VEC3"
  },
  {
   "bufferView": 9,
   "componentType": 5126,
   "count": 1045,
   "type": "VEC2"
  },
  {
   "bufferView": 10,
   "componentType": 5126,
   "count": 1045,
   "type": "VEC2"
  },
  {
   "bufferView": 11,
   "componentType": 5123,
   "count": 1045,
   "normalized": true,
   "type": "VEC4"
  },
  {
   "bufferView": 12,
   "componentType": 5123,
   "count": 1045,
   "normalized": true,
   "type": "VEC4"
  },
  {
   "bufferView": 13,
   "componentType": 5123,
   "count": 2352,
   "type": "SCALAR"
  },
  {
   "bufferView": 14,
   "componentType": 5126,
   "count": 1238,
   "max": [
    4.550000190734863,
    14.5600004196167,
    0
   ],
   "min": [
    -6.369999885559082,
    0,
    -10.920000076293945
   ],
   "type": "VEC3"
  },
  {
   "bufferView": 15,
   "componentType": 5126,
   "count": 1238,
   "type": "VEC3"
  },
  {
   "bufferView": 16,
   "componentType": 5126,
   "count": 1238,
   "type": "VEC2"
  },
  {
   "bufferView": 17,
   "componentType": 5126,
   "count": 1238,
   "type": "VEC2"
  },
  {
   "bufferView": 18,
   "componentType": 5123,
   "count": 1238,
   "normalized": true,
   "type": "VEC4"
  },
  {
   "bufferView": 19,
   "componentType": 5123,
   "count": 1238,
   "normalized": true,
   "type": "VEC4"
  },
  {
   "bufferView": 20,
   "componentType": 5123,
   "count": 2142,
   "type": "SCALAR"
  },
  {
   "bufferView": 21,
   "componentType": 5126,
   "count": 19485,
   "max": [
    4.641001224517822,
    15.4700345993042,
    2.0984671115875244
   ],
   "min": [
    -6.461000442504883,
    -0.01087182853370905,
    -11.011001586914062
   ],
   "type": "VEC3"
  },
  {
   "bufferView": 22,
   "componentType": 5126,
   "count": 19485,
   "type": "VEC3"
  },
  {
   "bufferView": 23,
   "componentType": 5126,
   "count": 19485,
   "type": "VEC2"
  },
  {
   "bufferView": 24,
   "componentType": 5126,
   "count": 19485,
   "type": "VEC2"
  },
  {
   "bufferView": 25,
   "componentType": 5123,
   "count": 19485,
   "normalized": true,
   "type": "VEC4"
  },
  {
   "bufferView": 26,
   "componentType": 5123,
   "count": 19485,
   "normalized": true,
   "type": "VEC4"
  },
  {
   "bufferView": 27,
   "componentType": 5123,
   "count": 37977,
   "type": "SCALAR"
  },
  {
   "bufferView": 28,
   "componentType": 5126,
   "count": 541,
   "max": [
    3.7803876399993896,
    13.4917573928833,
    -0.060751549899578094
   ],
   "min": [
    -5.6003875732421875,
    0.9634162187576294,
    -0.17445611953735352
   ],
   "type": "VEC3"
  },
  {
   "bufferView": 29,
   "componentType": 5126,
   "count": 541,
   "type": "VEC3"
  },
  {
   "bufferView": 30,
   "componentType": 5126,
   "count": 541,
   "type": "VEC2"
  },
  {
   "bufferView": 31,
   "componentType": 5126,
   "count": 541,
   "type": "VEC2"
  },
  {
   "bufferView": 32,
   "componentType": 5123,
   "count": 541,
   "normalized": true,
   "type": "VEC4"
  },
  {
   "bufferView": 33,
   "componentType": 5123,
   "count": 541,
   "normalized": true,
   "type": "VEC4"
  },
  {
   "bufferView": 34,
   "componentType": 5123,
   "count": 885,
   "type": "SCALAR"
  },
  {
   "bufferView": 35,
   "componentType": 5126,
   "count": 12,
   "max": [
    4.027683258056641,
    14.380465507507324,
    -0.1754087507724762
   ],
   "min": [
    -5.847682952880859,
    3.7269604206085205,
    -0.17927056550979614
   ],
   "type": "VEC3"
  },
  {
   "bufferView": 36,
   "componentType": 5126,
   "count": 12,
   "type": "VEC3"
  },
  {
   "bufferView": 37,
   "componentType": 5126,
   "count": 12,
   "type": "VEC2"
  },
  {
   "bufferView": 38,
   "componentType": 5126,
   "count": 12,
   "type": "VEC2"
  },
  {
   "bufferView": 39,
   "componentType": 5123,
   "count": 12,
   "normalized": true,
   "type": "VEC4"
  },
  {
   "bufferView": 40,
   "componentType": 5123,
   "count": 12,
   "normalized": true,
   "type": "VEC4"
  },
  {
   "bufferView": 41,
   "componentType": 5123,
   "count": 18,
   "type": "SCALAR"
  },
  {
   "bufferView": 42,
   "componentType": 5126,
   "count": 2783,
   "max": [
    4.588229179382324,
    14.5600004196167,
    0.08969726413488388
   ],
   "min": [
    -6.408229351043701,
    0,
    -10.958229064941406
   ],
   "type": "VEC3"
  },
  {
   "bufferView": 43,
   "componentType": 5126,
   "count": 2783,
   "type": "VEC3"
  },
  {
   "bufferView": 44,
   "componentType": 5126,
   "count": 2783,
   "type": "VEC2"
  },
  {
   "bufferView": 45,
   "componentType": 5126,
   "count": 2783,
   "type": "VEC2"
  },
  {
   "bufferView": 46,
   "componentType": 5123,
   "count": 2783,
   "normalized": true,
   "type": "VEC4"
  },
  {
   "bufferView": 47,
   "componentType": 5123,
   "count": 2783,
   "normalized": true,
   "type": "VEC4"
  },
  {
   "bufferView": 48,
   "componentType": 5123,
   "count": 5838,
   "type": "SCALAR"
  },
  {
   "bufferView": 49,
   "componentType": 5126,
   "count": 12,
   "max": [
    0.3876826763153076,
    14.380465507507324,
    -0.1754087507724762
   ],
   "min": [
    -5.4258904457092285,
    6.456961154937744,
    -0.17927056550979614
   ],
   "type": "VEC3"
  },
  {
   "bufferView": 50,
   "componentType": 5126,
   "count": 12,
   "type": "VEC3"
  },
  {
   "bufferView": 51,
   "componentType": 5126,
   "count": 12,
   "type": "VEC2"
  },
  {
   "bufferView": 52,
   "componentType": 5126,
   "count": 12,
   "type": "VEC2"
  },
  {
   "bufferView": 53,
   "componentType": 5123,
   "count": 12,
   "normalized": true,
   "type": "VEC4"
  },
  {
   "bufferView": 54,
   "componentType": 5123,
   "count": 12,
   "normalized": true,
   "type": "VEC4"
  },
  {
   "bufferView": 55,
   "componentType": 5123,
   "count": 18,
   "type": "SCALAR"
  },
  {
   "bufferView": 56,
   "componentType": 5126,
   "count": 72,
   "max": [
    0.9100000262260437,
    0.9161412119865417,
    1.8116133213043213
   ],
   "min": [
    -0.9100000262260437,
    0,
    5.0850212929276495e-09
   ],
   "type": "VEC3"
  },
  {
   "bufferView": 57,
   "componentType": 5126,
   "count": 72,
   "type": "VEC3"
  },
  {
   "bufferView": 58,
   "componentType": 5126,
   "count": 72,
   "type": "VEC2"
  },
  {
   "bufferView": 59,
   "componentType": 5126,
   "count": 72,
   "type": "VEC2"
  },
  {
   "bufferView": 60,
   "componentType": 5123,
   "count": 72,
   "normalized": true,
   "type": "VEC4"
  },
  {
   "bufferView": 61,
   "componentType": 5123,
   "count": 72,
   "normalized": true,
   "type": "VEC4"
  },
  {
   "bufferView": 62,
   "componentType": 5123,
   "count": 210,
   "type": "SCALAR"
  },
  {
   "bufferView": 63,
   "componentType": 5126,
   "count": 12,
   "max": [
    4.027683258056641,
    11.716864585876465,
    -0.17927056550979614
   ],
   "min": [
    -5.847682952880859,
    3.7269604206085205,
    -0.17927056550979614
   ],
   "type": "VEC3"
  },
  {
   "bufferView": 64,
   "componentType": 5126,
   "count": 12,
   "type": "VEC3"
  },
  {
   "bufferView": 65,
   "componentType": 5126,
   "count": 12,
   "type": "VEC2"
  },
  {
   "bufferView": 66,
   "componentType": 5126,
   "count": 12,
   "type": "VEC2"
  },
  {
   "bufferView": 67,
   "componentType": 5123,
   "count": 12,
   "normalized": true,
   "type": "VEC4"
  },
  {
   "bufferView": 68,
   "componentType": 5123,
   "count": 12,
   "normalized": true,
   "type": "VEC4"
  },
  {
   "bufferView": 69,
   "componentType": 5123,
   "count": 18,
   "type": "SCALAR"
  },
  {
   "bufferView": 70,
   "componentType": 5126,
   "count": 12,
   "max": [
    4.027683258056641,
    14.380465507507324,
    -0.1754087507724762
   ],
   "min": [
    -5.847682952880859,
    3.7269604206085205,
    -0.17927056550979614
   ],
   "type": "VEC3"
  },
  {
   "bufferView": 71,
   "componentType": 5126,
   "count": 12,
   "type": "VEC3"
  },
  {
   "bufferView": 72,
   "componentType": 5126,
   "count": 12,
   "type": "VEC2"
  },
  {
   "bufferView": 73,
   "componentType": 5126,
   "count": 12,
   "type": "VEC2"
  },
  {
   "bufferView": 74,
   "componentType": 5123,
   "count": 12,
   "normalized": true,
   "type": "VEC4"
  },
  {
   "bufferView": 75,
   "componentType": 5123,
   "count": 12,
   "normalized": true,
   "type": "VEC4"
  },
  {
   "bufferView": 76,
   "componentType": 5126,
   "count": 32,
   "max": [
    4.550000190734863,
    15.287999153137207,
    0
   ],
   "min": [
    -6.369999885559082,
    14.492469787597656,
    -10.920000076293945
   ],
   "type": "VEC3"
  },
  {
   "bufferView": 77,
   "componentType": 5126,
   "count": 32,
   "type": "VEC3"
  },
  {
   "bufferView": 78,
   "componentType": 5126,
   "count": 32,
   "type": "VEC2"
  },
  {
   "bufferView": 79,
   "componentType": 5126,
   "count": 32,
   "type": "VEC2"
  },
  {
   "bufferView": 80,
   "componentType": 5123,
   "count": 32,
   "normalized": true,
   "type": "VEC4"
  },
  {
   "bufferView": 81,
   "componentType": 5123,
   "count": 32,
   "normalized": true,
   "type": "VEC4"
  },
  {
   "bufferView": 82,
   "componentType": 5123,
   "count": 48,
   "type": "SCALAR"
  },
  {
   "bufferView": 83,
   "componentType": 5126,
   "count": 16,
   "max": [
    4.550000190734863,
    0.9100000262260437,
    0
   ],
   "min": [
    -6.369999885559082,
    0.9100000262260437,
    -10.920000076293945
   ],
   "type": "VEC3"
  },
  {
   "bufferView": 84,
   "componentType": 5126,
   "count": 16,
   "type": "VEC3"
  },
  {
   "bufferView": 85,
   "componentType": 5126,
   "count": 16,
   "type": "VEC2"
  },
  {
   "bufferView": 86,
   "componentType": 5126,
   "count": 16,
   "type": "VEC2"
  },
  {
   "bufferView": 87,
   "componentType": 5123,
   "count": 16,
   "normalized": true,
   "type": "VEC4"
  },
  {
   "bufferView": 88,
   "componentType": 5123,
   "count": 16,
   "normalized": true,
   "type": "VEC4"
  },
  {
   "bufferView": 89,
   "componentType": 5123,
   "count": 24,
   "type": "SCALAR"
  }
 ],
 "bufferViews": [
  {
   "buffer": 0,
   "byteLength": 36024,
   "byteOffset": 0,
   "target": 34962
  },
  {
   "buffer": 0,
   "byteLength": 36024,
   "byteOffset": 36024,
   "target": 34962
  },
  {
   "buffer": 0,
   "byteLength": 24016,
   "byteOffset": 72048,
   "target": 34962
  },
  {
   "buffer": 0,
   "byteLength": 24016,
   "byteOffset": 96064,
   "target": 34962
  },
  {
   "buffer": 0,
   "byteLength": 24016,
   "byteOffset": 120080,
   "target": 34962
  },
  {
   "buffer": 0,
   "byteLength": 24016,
   "byteOffset": 144096,
   "target": 34962
  },
  {
   "buffer": 0,
   "byteLength": 10968,
   "byteOffset": 168112,
   "target": 34963
  },
  {
   "buffer": 0,
   "byteLength": 12540,
   "byteOffset": 179080,
   "target": 34962
  },
  {
   "buffer": 0,
   "byteLength": 12540,
   "byteOffset": 191620,
   "target": 34962
  },
  {
   "buffer": 0,
   "byteLength": 8360,
   "byteOffset": 204160,
   "target": 34962
  },
  {
   "buffer": 0,
   "byteLength": 8360,
   "byteOffset": 212520,
   "target": 34962
  },
  {
   "buffer": 0,
   "byteLength": 8360,
   "byteOffset": 220880,
   "target": 34962
  },
  {
   "buffer": 0,
   "byteLength": 8360,
   "byteOffset": 229240,
   "target": 34962
  },
  {
   "buffer": 0,
   "byteLength": 4704,
   "byteOffset": 237600,
   "target": 34963
  },
  {
   "buffer": 0,
   "byteLength": 14856,
   "byteOffset": 242304,
   "target": 34962
  },
  {
   "buffer": 0,
   "byteLength": 14856,
   "byteOffset": 257160,
   "target": 34962
  },
  {
   "buffer": 0,
   "byteLength": 9904,
   "byteOffset": 272016,
   "target": 34962
  },
  {
   "buffer": 0,
   "byteLength": 9904,
   "byteOffset": 281920,
   "target": 34962
  },
  {
   "buffer": 0,
   "byteLength": 9904,
   "byteOffset": 291824,
   "target": 34962
  },
  {
   "buffer": 0,
   "byteLength": 9904,
   "byteOffset": 301728,
   "target": 34962
  },
  {
   "buffer": 0,
   "byteLength": 4284,
   "byteOffset": 311632,
   "target": 34963
  },
  {
   "buffer": 0,
   "byteLength": 233820,
   "byteOffset": 315916,
   "target": 34962
  },
  {
   "buffer": 0,
   "byteLength": 233820,
   "byteOffset": 549736,
   "target": 34962
  },
  {
   "buffer": 0,
   "byteLength": 155880,
   "byteOffset": 783556,
   "target": 34962
  },
  {
   "buffer": 0,
   "byteLength": 155880,
   "byteOffset": 939436,
   "target": 34962
  },
  {
   "buffer": 0,
   "byteLength": 155880,
   "byteOffset": 1095316,
   "target": 34962
  },
  {
   "buffer": 0,
   "byteLength": 155880,
   "byteOffset": 1251196,
   "target": 34962
  },
  {
   "buffer": 0,
   "byteLength": 75954,
   "byteOffset": 1407076,
   "target": 34963
  },
  {
   "buffer": 0,
   "byteLength": 6492,
   "byteOffset": 1483032,
   "target": 34962
  },
  {
   "buffer": 0,
   "byteLength": 6492,
   "byteOffset": 1489524,
   "target": 34962
  },
  {
   "buffer": 0,
   "byteLength": 4328,
   "byteOffset": 1496016,
   "target": 34962
  },
  {
   "buffer": 0,
   "byteLength": 4328,
   "byteOffset": 1500344,
   "target": 34962
  },
  {
   "buffer": 0,
   "byteLength": 4328,
   "byteOffset": 1504672,
   "target": 34962
  },
  {
   "buffer": 0,
   "byteLength": 4328,
   "byteOffset": 1509000,
   "target": 34962
  },
  {
   "buffer": 0,
   "byteLength": 1770,
   "byteOffset": 1513328,
   "target": 34963
  },
  {
   "buffer": 0,
   "byteLength": 144,
   "byteOffset": 1515100,
   "target": 34962
  },
  {
   "buffer": 0,
   "byteLength": 144,
   "byteOffset": 1515244,
   "target": 34962
  },
  {
   "buffer": 0,
   "byteLength": 96,
   "byteOffset": 1515388,
   "target": 34962
  },
  {
   "buffer": 0,
   "byteLength": 96,
   "byteOffset": 1515484,
   "target": 34962
  },
  {
   "buffer": 0,
   "byteLength": 96,
   "byteOffset": 1515580,
   "target": 34962
  },
  {
   "buffer": 0,
   "byteLength": 96,
   "byteOffset": 1515676,
   "target": 34962
  },
  {
   "buffer": 0,
   "byteLength": 36,
   "byteOffset": 1515772,
   "target": 34963
  },
  {
   "buffer": 0,
   "byteLength": 33396,
   "byteOffset": 1515808,
   "target": 34962
  },
  {
   "buffer": 0,
   "byteLength": 33396,
   "byteOffset": 1549204,
   "target": 34962
  },
  {
   "buffer": 0,
   "byteLength": 22264,
   "byteOffset": 1582600,
   "target": 34962
  },
  {
   "buffer": 0,
   "byteLength": 22264,
   "byteOffset": 1604864,
   "target": 34962
  },
  {
   "buffer": 0,
   "byteLength": 22264,
   "byteOffset": 1627128,
   "target": 34962
  },
  {
   "buffer": 0,
   "byteLength": 22264,
   "byteOffset": 1649392,
   "target": 34962
  },
  {
   "buffer": 0,
   "byteLength": 11676,
   "byteOffset": 1671656,
   "target": 34963
  },
  {
   "buffer": 0,
   "byteLength": 144,
   "byteOffset": 1683332,
   "target": 34962
  },
  {
   "buffer": 0,
   "byteLength": 144,
   "byteOffset": 1683476,
   "target": 34962
  },
  {
   "buffer": 0,
   "byteLength": 96,
   "byteOffset": 1683620,
   "target": 34962
  },
  {
   "buffer": 0,
   "byteLength": 96,
   "byteOffset": 1683716,
   "target": 34962
  },
  {
   "buffer": 0,
   "byteLength": 96,
   "byteOffset": 1683812,
   "target": 34962
  },
  {
   "buffer": 0,
   "byteLength": 96,
   "byteOffset": 1683908,
   "target": 34962
  },
  {
   "buffer": 0,
   "byteLength": 36,
   "byteOffset": 1684004,
   "target": 34963
  },
  {
   "buffer": 0,
   "byteLength": 864,
   "byteOffset": 1684040,
   "target": 34962
  },
  {
   "buffer": 0,
   "byteLength": 864,
   "byteOffset": 1684904,
   "target": 34962
  },
  {
   "buffer": 0,
   "byteLength": 576,
   "byteOffset": 1685768,
   "target": 34962
  },
  {
   "buffer": 0,
   "byteLength": 576,
   "byteOffset": 1686344,
   "target": 34962
  },
  {
   "buffer": 0,
   "byteLength": 576,
   "byteOffset": 1686920,
   "target": 34962
  },
  {
   "buffer": 0,
   "byteLength": 576,
   "byteOffset": 1687496,
   "target": 34962
  },
  {
   "buffer": 0,
   "byteLength": 420,
   "byteOffset": 1688072,
   "target": 34963
  },
  {
   "buffer": 0,
   "byteLength": 144,
   "byteOffset": 1688492,
   "target": 34962
  },
  {
   "buffer": 0,
   "byteLength": 144,
   "byteOffset": 1688636,
   "target": 34962
  },
  {
   "buffer": 0,
   "byteLength": 96,
   "byteOffset": 1688780,
   "target": 34962
  },
  {
   "buffer": 0,
   "byteLength": 96,
   "byteOffset": 1688876,
   "target": 34962
  },
  {
   "buffer": 0,
   "byteLength": 96,
   "byteOffset": 1688972,
   "target": 34962
  },
  {
   "buffer": 0,
   "byteLength": 96,
   "byteOffset": 1689068,
   "target": 34962
  },
  {
   "buffer": 0,
   "byteLength": 36,
   "byteOffset": 1689164,
   "target": 34963
  },
  {
   "buffer": 0,
   "byteLength": 144,
   "byteOffset": 1689200,
   "target": 34962
  },
  {
   "buffer": 0,
   "byteLength": 144,
   "byteOffset": 1689344,
   "target": 34962
  },
  {
   "buffer": 0,
   "byteLength": 96,
   "byteOffset": 1689488,
   "target": 34962
  },
  {
   "buffer": 0,
   "byteLength": 96,
   "byteOffset": 1689584,
   "target": 34962
  },
  {
   "buffer": 0,
   "byteLength": 96,
   "byteOffset": 1689680,
   "target": 34962
  },
  {
   "buffer": 0,
   "byteLength": 96,
   "byteOffset": 1689776,
   "target": 34962
  },
  {
   "buffer": 0,
   "byteLength": 384,
   "byteOffset": 1689872,
   "target": 34962
  },
  {
   "buffer": 0,
   "byteLength": 384,
   "byteOffset": 1690256,
   "target": 34962
  },
  {
   "buffer": 0,
   "byteLength": 256,
   "byteOffset": 1690640,
   "target": 34962
  },
  {
   "buffer": 0,
   "byteLength": 256,
   "byteOffset": 1690896,
   "target": 34962
  },
  {
   "buffer": 0,
   "byteLength": 256,
   "byteOffset": 1691152,
   "target": 34962
  },
  {
   "buffer": 0,
   "byteLength": 256,
   "byteOffset": 1691408,
   "target": 34962
  },
  {
   "buffer": 0,
   "byteLength": 96,
   "byteOffset": 1691664,
   "target": 34963
  },
  {
   "buffer": 0,
   "byteLength": 192,
   "byteOffset": 1691760,
   "target": 34962
  },
  {
   "buffer": 0,
   "byteLength": 192,
   "byteOffset": 1691952,
   "target": 34962
  },
  {
   "buffer": 0,
   "byteLength": 128,
   "byteOffset": 1692144,
   "target": 34962
  },
  {
   "buffer": 0,
   "byteLength": 128,
   "byteOffset": 1692272,
   "target": 34962
  },
  {
   "buffer": 0,
   "byteLength": 128,
   "byteOffset": 1692400,
   "target": 34962
  },
  {
   "buffer": 0,
   "byteLength": 128,
   "byteOffset": 1692528,
   "target": 34962
  },
  {
   "buffer": 0,
   "byteLength": 48,
   "byteOffset": 1692656,
   "target": 34963
  }
 ],
 "samplers": [
  {
   "magFilter": 9729,
   "minFilter": 9987
  }
 ],
 "buffers": [
  {
   "byteLength": 1692704,
   "uri": "Building_Small_1.bin"
  }
 ]
}
