{
 "asset": {
  "generator": "Khronos glTF Blender I/O v5.2.40",
  "version": "2.0",
  "extras": {
   "exported_by": "blender/tools/export_building_kit.py",
   "module_scale": 1.0
  }
 },
 "scene": 0,
 "scenes": [
  {
   "name": "ParkingGarage",
   "nodes": [
    0,
    1,
    2,
    3,
    4,
    5,
    6
   ]
  }
 ],
 "nodes": [
  {
   "extras": {
    "edit_note": "A mission building (blender/tools/build_interior_blends.py, seed blender/tools/interior_plans.py): a PLACEHOLDER shell and fit-out at its real Japanese size -- remodel freely. Keep the frame (origin = plot centre on the ground, street -Y), the floor levels, and move the Empties with what they belong to: DOOR_ (interior door, arrow OUT of the room), EXIT_ (outer door, arrow out of the building), LIFT_ (a lift: shaft floor centre at the low stop; stops / faces), MARK_ (a mission marker: kind weapon / spawn / cover ...). Keep 1.2 m clear both sides of every door. After editing: tools/building_kit/build_buildings.sh. \u7acb\u4f53\u99d0\u8eca\u5834 (\u81ea\u8d70\u5f0f): a self-park car park 23 x 40 m, ground + three decks (the top one open to the sky) -- up ramps on the west, down ramps on the east (20 m for each 3 m storey, 15 %), 2.5 x 5.0 m bays either side of a 6 m aisle, wheel stops, a gate booth and arm at the south entrance, a stair tower on the south-east corner and a lift beside it to every deck."
   },
   "mesh": 0,
   "name": "Facade"
  },
  {
   "extras": {
    "edit_note": "A mission building (blender/tools/build_interior_blends.py, seed blender/tools/interior_plans.py): a PLACEHOLDER shell and fit-out at its real Japanese size -- remodel freely. Keep the frame (origin = plot centre on the ground, street -Y), the floor levels, and move the Empties with what they belong to: DOOR_ (interior door, arrow OUT of the room), EXIT_ (outer door, arrow out of the building), LIFT_ (a lift: shaft floor centre at the low stop; stops / faces), MARK_ (a mission marker: kind weapon / spawn / cover ...). Keep 1.2 m clear both sides of every door. After editing: tools/building_kit/build_buildings.sh. \u7acb\u4f53\u99d0\u8eca\u5834 (\u81ea\u8d70\u5f0f): a self-park car park 23 x 40 m, ground + three decks (the top one open to the sky) -- up ramps on the west, down ramps on the east (20 m for each 3 m storey, 15 %), 2.5 x 5.0 m bays either side of a 6 m aisle, wheel stops, a gate booth and arm at the south entrance, a stair tower on the south-east corner and a lift beside it to every deck."
   },
   "mesh": 1,
   "name": "Glazing"
  },
  {
   "extras": {
    "edit_note": "A mission building (blender/tools/build_interior_blends.py, seed blender/tools/interior_plans.py): a PLACEHOLDER shell and fit-out at its real Japanese size -- remodel freely. Keep the frame (origin = plot centre on the ground, street -Y), the floor levels, and move the Empties with what they belong to: DOOR_ (interior door, arrow OUT of the room), EXIT_ (outer door, arrow out of the building), LIFT_ (a lift: shaft floor centre at the low stop; stops / faces), MARK_ (a mission marker: kind weapon / spawn / cover ...). Keep 1.2 m clear both sides of every door. After editing: tools/building_kit/build_buildings.sh. \u7acb\u4f53\u99d0\u8eca\u5834 (\u81ea\u8d70\u5f0f): a self-park car park 23 x 40 m, ground + three decks (the top one open to the sky) -- up ramps on the west, down ramps on the east (20 m for each 3 m storey, 15 %), 2.5 x 5.0 m bays either side of a 6 m aisle, wheel stops, a gate booth and arm at the south entrance, a stair tower on the south-east corner and a lift beside it to every deck."
   },
   "mesh": 2,
   "name": "Roof"
  },
  {
   "extras": {
    "edit_note": "A mission building (blender/tools/build_interior_blends.py, seed blender/tools/interior_plans.py): a PLACEHOLDER shell and fit-out at its real Japanese size -- remodel freely. Keep the frame (origin = plot centre on the ground, street -Y), the floor levels, and move the Empties with what they belong to: DOOR_ (interior door, arrow OUT of the room), EXIT_ (outer door, arrow out of the building), LIFT_ (a lift: shaft floor centre at the low stop; stops / faces), MARK_ (a mission marker: kind weapon / spawn / cover ...). Keep 1.2 m clear both sides of every door. After editing: tools/building_kit/build_buildings.sh. \u7acb\u4f53\u99d0\u8eca\u5834 (\u81ea\u8d70\u5f0f): a self-park car park 23 x 40 m, ground + three decks (the top one open to the sky) -- up ramps on the west, down ramps on the east (20 m for each 3 m storey, 15 %), 2.5 x 5.0 m bays either side of a 6 m aisle, wheel stops, a gate booth and arm at the south entrance, a stair tower on the south-east corner and a lift beside it to every deck."
   },
   "mesh": 3,
   "name": "Shafts"
  },
  {
   "extras": {
    "edit_note": "A mission building (blender/tools/build_interior_blends.py, seed blender/tools/interior_plans.py): a PLACEHOLDER shell and fit-out at its real Japanese size -- remodel freely. Keep the frame (origin = plot centre on the ground, street -Y), the floor levels, and move the Empties with what they belong to: DOOR_ (interior door, arrow OUT of the room), EXIT_ (outer door, arrow out of the building), LIFT_ (a lift: shaft floor centre at the low stop; stops / faces), MARK_ (a mission marker: kind weapon / spawn / cover ...). Keep 1.2 m clear both sides of every door. After editing: tools/building_kit/build_buildings.sh. \u7acb\u4f53\u99d0\u8eca\u5834 (\u81ea\u8d70\u5f0f): a self-park car park 23 x 40 m, ground + three decks (the top one open to the sky) -- up ramps on the west, down ramps on the east (20 m for each 3 m storey, 15 %), 2.5 x 5.0 m bays either side of a 6 m aisle, wheel stops, a gate booth and arm at the south entrance, a stair tower on the south-east corner and a lift beside it to every deck."
   },
   "mesh": 4,
   "name": "Site"
  },
  {
   "extras": {
    "edit_note": "A mission building (blender/tools/build_interior_blends.py, seed blender/tools/interior_plans.py): a PLACEHOLDER shell and fit-out at its real Japanese size -- remodel freely. Keep the frame (origin = plot centre on the ground, street -Y), the floor levels, and move the Empties with what they belong to: DOOR_ (interior door, arrow OUT of the room), EXIT_ (outer door, arrow out of the building), LIFT_ (a lift: shaft floor centre at the low stop; stops / faces), MARK_ (a mission marker: kind weapon / spawn / cover ...). Keep 1.2 m clear both sides of every door. After editing: tools/building_kit/build_buildings.sh. \u7acb\u4f53\u99d0\u8eca\u5834 (\u81ea\u8d70\u5f0f): a self-park car park 23 x 40 m, ground + three decks (the top one open to the sky) -- up ramps on the west, down ramps on the east (20 m for each 3 m storey, 15 %), 2.5 x 5.0 m bays either side of a 6 m aisle, wheel stops, a gate booth and arm at the south entrance, a stair tower on the south-east corner and a lift beside it to every deck."
   },
   "mesh": 5,
   "name": "Stairs"
  },
  {
   "extras": {
    "edit_note": "A mission building (blender/tools/build_interior_blends.py, seed blender/tools/interior_plans.py): a PLACEHOLDER shell and fit-out at its real Japanese size -- remodel freely. Keep the frame (origin = plot centre on the ground, street -Y), the floor levels, and move the Empties with what they belong to: DOOR_ (interior door, arrow OUT of the room), EXIT_ (outer door, arrow out of the building), LIFT_ (a lift: shaft floor centre at the low stop; stops / faces), MARK_ (a mission marker: kind weapon / spawn / cover ...). Keep 1.2 m clear both sides of every door. After editing: tools/building_kit/build_buildings.sh. \u7acb\u4f53\u99d0\u8eca\u5834 (\u81ea\u8d70\u5f0f): a self-park car park 23 x 40 m, ground + three decks (the top one open to the sky) -- up ramps on the west, down ramps on the east (20 m for each 3 m storey, 15 %), 2.5 x 5.0 m bays either side of a 6 m aisle, wheel stops, a gate booth and arm at the south entrance, a stair tower on the south-east corner and a lift beside it to every deck."
   },
   "mesh": 6,
   "name": "Structure"
  }
 ],
 "materials": [
  {
   "doubleSided": true,
   "name": "MI_ConcreteSmooth",
   "pbrMetallicRoughness": {
    "baseColorFactor": [
     0.3104965388774872,
     0.3015982508659363,
     0.2871379554271698,
     1
    ],
    "metallicFactor": 0,
    "roughnessFactor": 0.699999988079071
   }
  },
  {
   "doubleSided": true,
   "name": "MI_Plaster",
   "pbrMetallicRoughness": {
    "baseColorFactor": [
     0.8999999761581421,
     0.8899999856948853,
     0.8600000143051147,
     1
    ],
    "metallicFactor": 0,
    "roughnessFactor": 0.699999988079071
   }
  },
  {
   "doubleSided": true,
   "name": "MI_PaintedMetal",
   "pbrMetallicRoughness": {
    "baseColorFactor": [
     0.8999999761581421,
     0.8999999761581421,
     0.8899999856948853,
     1
    ],
    "metallicFactor": 0.30000001192092896,
    "roughnessFactor": 0.699999988079071
   }
  },
  {
   "doubleSided": true,
   "name": "MI_AsphaltLot",
   "pbrMetallicRoughness": {
    "baseColorFactor": [
     0.23894542455673218,
     0.2290288507938385,
     0.22325706481933594,
     1
    ],
    "metallicFactor": 0,
    "roughnessFactor": 0.699999988079071
   }
  },
  {
   "doubleSided": true,
   "name": "MI_PaintedMetalDark",
   "pbrMetallicRoughness": {
    "baseColorFactor": [
     0.1599999964237213,
     0.17000000178813934,
     0.18000000715255737,
     1
    ],
    "metallicFactor": 0.4000000059604645,
    "roughnessFactor": 0.699999988079071
   }
  },
  {
   "doubleSided": true,
   "name": "MI_PaintYellow",
   "pbrMetallicRoughness": {
    "baseColorFactor": [
     0.949999988079071,
     0.75,
     0.10000000149011612,
     1
    ],
    "metallicFactor": 0.20000000298023224,
    "roughnessFactor": 0.699999988079071
   }
  },
  {
   "doubleSided": true,
   "emissiveFactor": [
    1,
    0.800000011920929,
    0.10000000149011612
   ],
   "name": "MI_SignYellow",
   "pbrMetallicRoughness": {
    "baseColorFactor": [
     0.949999988079071,
     0.800000011920929,
     0.10000000149011612,
     1
    ],
    "metallicFactor": 0,
    "roughnessFactor": 0.699999988079071
   }
  },
  {
   "doubleSided": true,
   "name": "MI_PaintWhite",
   "pbrMetallicRoughness": {
    "baseColorFactor": [
     0.949999988079071,
     0.949999988079071,
     0.9300000071525574,
     1
    ],
    "metallicFactor": 0,
    "roughnessFactor": 0.699999988079071
   }
  }
 ],
 "meshes": [
  {
   "name": "ParkingGarage_Facade",
   "primitives": [
    {
     "attributes": {
      "POSITION": 0,
      "NORMAL": 1
     },
     "indices": 2,
     "material": 0
    },
    {
     "attributes": {
      "POSITION": 3,
      "NORMAL": 4
     },
     "indices": 5,
     "material": 1
    }
   ]
  },
  {
   "name": "ParkingGarage_Glazing",
   "primitives": [
    {
     "attributes": {
      "POSITION": 6,
      "NORMAL": 7
     },
     "indices": 8,
     "material": 2
    }
   ]
  },
  {
   "name": "ParkingGarage_Roof",
   "primitives": [
    {
     "attributes": {
      "POSITION": 9,
      "NORMAL": 10
     },
     "indices": 11,
     "material": 0
    }
   ]
  },
  {
   "name": "ParkingGarage_Shafts",
   "primitives": [
    {
     "attributes": {
      "POSITION": 12,
      "NORMAL": 13
     },
     "indices": 14,
     "material": 0
    }
   ]
  },
  {
   "name": "ParkingGarage_Site",
   "primitives": [
    {
     "attributes": {
      "POSITION": 15,
      "NORMAL": 16
     },
     "indices": 17,
     "material": 3
    },
    {
     "attributes": {
      "POSITION": 18,
      "NORMAL": 19
     },
     "indices": 17,
     "material": 4
    },
    {
     "attributes": {
      "POSITION": 20,
      "NORMAL": 21
     },
     "indices": 17,
     "material": 5
    },
    {
     "attributes": {
      "POSITION": 22,
      "NORMAL": 23
     },
     "indices": 17,
     "material": 6
    }
   ]
  },
  {
   "name": "ParkingGarage_Stairs",
   "primitives": [
    {
     "attributes": {
      "POSITION": 24,
      "NORMAL": 25
     },
     "indices": 26,
     "material": 0
    },
    {
     "attributes": {
      "POSITION": 27,
      "NORMAL": 28
     },
     "indices": 29,
     "material": 4
    },
    {
     "attributes": {
      "POSITION": 30,
      "NORMAL": 31
     },
     "indices": 32,
     "material": 1
    }
   ]
  },
  {
   "name": "ParkingGarage_Structure",
   "primitives": [
    {
     "attributes": {
      "POSITION": 33,
      "NORMAL": 34
     },
     "indices": 35,
     "material": 0
    },
    {
     "attributes": {
      "POSITION": 36,
      "NORMAL": 37
     },
     "indices": 38,
     "material": 5
    },
    {
     "attributes": {
      "POSITION": 39,
      "NORMAL": 40
     },
     "indices": 41,
     "material": 7
    }
   ]
  }
 ],
 "accessors": [
  {
   "bufferView": 0,
   "componentType": 5126,
   "count": 168,
   "max": [
    14.850000381469727,
    10.199999809265137,
    19.799999237060547
   ],
   "min": [
    11.850000381469727,
    0,
    14
   ],
   "type": "VEC3"
  },
  {
   "bufferView": 1,
   "componentType": 5126,
   "count": 168,
   "type": "VEC3"
  },
  {
   "bufferView": 2,
   "componentType": 5123,
   "count": 276,
   "type": "SCALAR"
  },
  {
   "bufferView": 3,
   "componentType": 5126,
   "count": 156,
   "max": [
    14.850000381469727,
    10.199999809265137,
    19.700000762939453
   ],
   "min": [
    11.850000381469727,
    0,
    14.100000381469727
   ],
   "type": "VEC3"
  },
  {
   "bufferView": 4,
   "componentType": 5126,
   "count": 156,
   "type": "VEC3"
  },
  {
   "bufferView": 5,
   "componentType": 5123,
   "count": 252,
   "type": "SCALAR"
  },
  {
   "bufferView": 6,
   "componentType": 5126,
   "count": 80,
   "max": [
    13.850000381469727,
    2.1500000953674316,
    19.809999465942383
   ],
   "min": [
    12.850000381469727,
    -0.05000000074505806,
    19.59000015258789
   ],
   "type": "VEC3"
  },
  {
   "bufferView": 7,
   "componentType": 5126,
   "count": 80,
   "type": "VEC3"
  },
  {
   "bufferView": 8,
   "componentType": 5123,
   "count": 144,
   "type": "SCALAR"
  },
  {
   "bufferView": 9,
   "componentType": 5126,
   "count": 36,
   "max": [
    14.850000381469727,
    12.399999618530273,
    19.799999237060547
   ],
   "min": [
    11.850000381469727,
    10.199999809265137,
    14
   ],
   "type": "VEC3"
  },
  {
   "bufferView": 10,
   "componentType": 5126,
   "count": 36,
   "type": "VEC3"
  },
  {
   "bufferView": 11,
   "componentType": 5123,
   "count": 66,
   "type": "SCALAR"
  },
  {
   "bufferView": 12,
   "componentType": 5126,
   "count": 168,
   "max": [
    13.75,
    12.449999809265137,
    13.850000381469727
   ],
   "min": [
    11.850000381469727,
    -1.2000000476837158,
    11.949999809265137
   ],
   "type": "VEC3"
  },
  {
   "bufferView": 13,
   "componentType": 5126,
   "count": 168,
   "type": "VEC3"
  },
  {
   "bufferView": 14,
   "componentType": 5123,
   "count": 324,
   "type": "SCALAR"
  },
  {
   "bufferView": 15,
   "componentType": 5126,
   "count": 24,
   "max": [
    17.5,
    0.009999999776482582,
    26
   ],
   "min": [
    -14,
    -0.029999999329447746,
    -22
   ],
   "type": "VEC3"
  },
  {
   "bufferView": 16,
   "componentType": 5126,
   "count": 24,
   "type": "VEC3"
  },
  {
   "bufferView": 17,
   "componentType": 5123,
   "count": 36,
   "type": "SCALAR"
  },
  {
   "bufferView": 18,
   "componentType": 5126,
   "count": 24,
   "max": [
    1.2000000476837158,
    2.5999999046325684,
    22.600000381469727
   ],
   "min": [
    -1.2000000476837158,
    0,
    21.200000762939453
   ],
   "type": "VEC3"
  },
  {
   "bufferView": 19,
   "componentType": 5126,
   "count": 24,
   "type": "VEC3"
  },
  {
   "bufferView": 20,
   "componentType": 5126,
   "count": 24,
   "max": [
    -1.2999999523162842,
    1,
    21.899999618530273
   ],
   "min": [
    -4.5,
    0.8999999761581421,
    21.799999237060547
   ],
   "type": "VEC3"
  },
  {
   "bufferView": 21,
   "componentType": 5126,
   "count": 24,
   "type": "VEC3"
  },
  {
   "bufferView": 22,
   "componentType": 5126,
   "count": 24,
   "max": [
    11.5,
    7.599999904632568,
    20.299999237060547
   ],
   "min": [
    -11.5,
    6.300000190734863,
    20
   ],
   "type": "VEC3"
  },
  {
   "bufferView": 23,
   "componentType": 5126,
   "count": 24,
   "type": "VEC3"
  },
  {
   "bufferView": 24,
   "componentType": 5126,
   "count": 1206,
   "max": [
    14.600000381469727,
    9,
    18.149999618530273
   ],
   "min": [
    12.100000381469727,
    0,
    14.100000381469727
   ],
   "type": "VEC3"
  },
  {
   "bufferView": 25,
   "componentType": 5126,
   "count": 1206,
   "type": "VEC3"
  },
  {
   "bufferView": 26,
   "componentType": 5123,
   "count": 1836,
   "type": "SCALAR"
  },
  {
   "bufferView": 27,
   "componentType": 5126,
   "count": 1152,
   "max": [
    14.600000381469727,
    9.005000114440918,
    18.149999618530273
   ],
   "min": [
    12.100000381469727,
    0.16750000417232513,
    15.989999771118164
   ],
   "type": "VEC3"
  },
  {
   "bufferView": 28,
   "componentType": 5126,
   "count": 1152,
   "type": "VEC3"
  },
  {
   "bufferView": 29,
   "componentType": 5123,
   "count": 1728,
   "type": "SCALAR"
  },
  {
   "bufferView": 30,
   "componentType": 5126,
   "count": 96,
   "max": [
    13.40999984741211,
    10.100000381469727,
    18.209999084472656
   ],
   "min": [
    12.100000381469727,
    0,
    15.989999771118164
   ],
   "type": "VEC3"
  },
  {
   "bufferView": 31,
   "componentType": 5126,
   "count": 96,
   "type": "VEC3"
  },
  {
   "bufferView": 32,
   "componentType": 5123,
   "count": 144,
   "type": "SCALAR"
  },
  {
   "bufferView": 33,
   "componentType": 5126,
   "count": 2502,
   "max": [
    12.100000381469727,
    10.100000381469727,
    20
   ],
   "min": [
    -11.5,
    -0.30000001192092896,
    -20
   ],
   "type": "VEC3"
  },
  {
   "bufferView": 34,
   "componentType": 5126,
   "count": 2502,
   "type": "VEC3"
  },
  {
   "bufferView": 35,
   "componentType": 5123,
   "count": 4116,
   "type": "SCALAR"
  },
  {
   "bufferView": 36,
   "componentType": 5126,
   "count": 336,
   "max": [
    11.199999809265137,
    9.130000114440918,
    12.5
   ],
   "min": [
    -11.199999809265137,
    0.11999999731779099,
    -12.5
   ],
   "type": "VEC3"
  },
  {
   "bufferView": 37,
   "componentType": 5126,
   "count": 336,
   "type": "VEC3"
  },
  {
   "bufferView": 38,
   "componentType": 5123,
   "count": 504,
   "type": "SCALAR"
  },
  {
   "bufferView": 39,
   "componentType": 5126,
   "count": 2688,
   "max": [
    8.050000190734863,
    9.01099967956543,
    14.050000190734863
   ],
   "min": [
    -8.050000190734863,
    0.0010000000474974513,
    -14
   ],
   "type": "VEC3"
  },
  {
   "bufferView": 40,
   "componentType": 5126,
   "count": 2688,
   "type": "VEC3"
  },
  {
   "bufferView": 41,
   "componentType": 5123,
   "count": 4032,
   "type": "SCALAR"
  }
 ],
 "bufferViews": [
  {
   "buffer": 0,
   "byteLength": 2016,
   "byteOffset": 0,
   "target": 34962
  },
  {
   "buffer": 0,
   "byteLength": 2016,
   "byteOffset": 2016,
   "target": 34962
  },
  {
   "buffer": 0,
   "byteLength": 552,
   "byteOffset": 4032,
   "target": 34963
  },
  {
   "buffer": 0,
   "byteLength": 1872,
   "byteOffset": 4584,
   "target": 34962
  },
  {
   "buffer": 0,
   "byteLength": 1872,
   "byteOffset": 6456,
   "target": 34962
  },
  {
   "buffer": 0,
   "byteLength": 504,
   "byteOffset": 8328,
   "target": 34963
  },
  {
   "buffer": 0,
   "byteLength": 960,
   "byteOffset": 8832,
   "target": 34962
  },
  {
   "buffer": 0,
   "byteLength": 960,
   "byteOffset": 9792,
   "target": 34962
  },
  {
   "buffer": 0,
   "byteLength": 288,
   "byteOffset": 10752,
   "target": 34963
  },
  {
   "buffer": 0,
   "byteLength": 432,
   "byteOffset": 11040,
   "target": 34962
  },
  {
   "buffer": 0,
   "byteLength": 432,
   "byteOffset": 11472,
   "target": 34962
  },
  {
   "buffer": 0,
   "byteLength": 132,
   "byteOffset": 11904,
   "target": 34963
  },
  {
   "buffer": 0,
   "byteLength": 2016,
   "byteOffset": 12036,
   "target": 34962
  },
  {
   "buffer": 0,
   "byteLength": 2016,
   "byteOffset": 14052,
   "target": 34962
  },
  {
   "buffer": 0,
   "byteLength": 648,
   "byteOffset": 16068,
   "target": 34963
  },
  {
   "buffer": 0,
   "byteLength": 288,
   "byteOffset": 16716,
   "target": 34962
  },
  {
   "buffer": 0,
   "byteLength": 288,
   "byteOffset": 17004,
   "target": 34962
  },
  {
   "buffer": 0,
   "byteLength": 72,
   "byteOffset": 17292,
   "target": 34963
  },
  {
   "buffer": 0,
   "byteLength": 288,
   "byteOffset": 17364,
   "target": 34962
  },
  {
   "buffer": 0,
   "byteLength": 288,
   "byteOffset": 17652,
   "target": 34962
  },
  {
   "buffer": 0,
   "byteLength": 288,
   "byteOffset": 17940,
   "target": 34962
  },
  {
   "buffer": 0,
   "byteLength": 288,
   "byteOffset": 18228,
   "target": 34962
  },
  {
   "buffer": 0,
   "byteLength": 288,
   "byteOffset": 18516,
   "target": 34962
  },
  {
   "buffer": 0,
   "byteLength": 288,
   "byteOffset": 18804,
   "target": 34962
  },
  {
   "buffer": 0,
   "byteLength": 14472,
   "byteOffset": 19092,
   "target": 34962
  },
  {
   "buffer": 0,
   "byteLength": 14472,
   "byteOffset": 33564,
   "target": 34962
  },
  {
   "buffer": 0,
   "byteLength": 3672,
   "byteOffset": 48036,
   "target": 34963
  },
  {
   "buffer": 0,
   "byteLength": 13824,
   "byteOffset": 51708,
   "target": 34962
  },
  {
   "buffer": 0,
   "byteLength": 13824,
   "byteOffset": 65532,
   "target": 34962
  },
  {
   "buffer": 0,
   "byteLength": 3456,
   "byteOffset": 79356,
   "target": 34963
  },
  {
   "buffer": 0,
   "byteLength": 1152,
   "byteOffset": 82812,
   "target": 34962
  },
  {
   "buffer": 0,
   "byteLength": 1152,
   "byteOffset": 83964,
   "target": 34962
  },
  {
   "buffer": 0,
   "byteLength": 288,
   "byteOffset": 85116,
   "target": 34963
  },
  {
   "buffer": 0,
   "byteLength": 30024,
   "byteOffset": 85404,
   "target": 34962
  },
  {
   "buffer": 0,
   "byteLength": 30024,
   "byteOffset": 115428,
   "target": 34962
  },
  {
   "buffer": 0,
   "byteLength": 8232,
   "byteOffset": 145452,
   "target": 34963
  },
  {
   "buffer": 0,
   "byteLength": 4032,
   "byteOffset": 153684,
   "target": 34962
  },
  {
   "buffer": 0,
   "byteLength": 4032,
   "byteOffset": 157716,
   "target": 34962
  },
  {
   "buffer": 0,
   "byteLength": 1008,
   "byteOffset": 161748,
   "target": 34963
  },
  {
   "buffer": 0,
   "byteLength": 32256,
   "byteOffset": 162756,
   "target": 34962
  },
  {
   "buffer": 0,
   "byteLength": 32256,
   "byteOffset": 195012,
   "target": 34962
  },
  {
   "buffer": 0,
   "byteLength": 8064,
   "byteOffset": 227268,
   "target": 34963
  }
 ],
 "buffers": [
  {
   "byteLength": 235332,
   "uri": "ParkingGarage.bin"
  }
 ]
}
