{
 "asset": {
  "generator": "Khronos glTF Blender I/O v5.2.40",
  "version": "2.0",
  "extras": {
   "exported_by": "blender/tools/export_building_kit.py",
   "module_scale": 1.0
  }
 },
 "scene": 0,
 "scenes": [
  {
   "name": "library",
   "nodes": [
    0
   ]
  }
 ],
 "nodes": [
  {
   "extras": {
    "edit_note": "Placeholder patrol ship, 90 x 12 m, bow -Y, origin AT THE WATERLINE (the MilitaryPier composite sets it 9.6 m below the pier deck: the pier's land height). Static prop, collider = its box."
   },
   "mesh": 0,
   "name": "Mil_PatrolShip"
  }
 ],
 "materials": [
  {
   "doubleSided": true,
   "name": "MI_JetGrey",
   "pbrMetallicRoughness": {
    "baseColorFactor": [
     0.550000011920929,
     0.5799999833106995,
     0.6100000143051147,
     1
    ],
    "metallicFactor": 0.20000000298023224,
    "roughnessFactor": 0.5
   }
  },
  {
   "doubleSided": true,
   "name": "MI_Window",
   "pbrMetallicRoughness": {
    "baseColorFactor": [
     0.1599999964237213,
     0.2199999988079071,
     0.2800000011920929,
     1
    ],
    "metallicFactor": 0.3499999940395355,
    "roughnessFactor": 0.11999999731779099
   }
  },
  {
   "doubleSided": true,
   "name": "MI_PaintWhite",
   "pbrMetallicRoughness": {
    "baseColorFactor": [
     0.949999988079071,
     0.949999988079071,
     0.9300000071525574,
     1
    ],
    "metallicFactor": 0,
    "roughnessFactor": 0.699999988079071
   }
  },
  {
   "doubleSided": true,
   "name": "MI_CraneRed",
   "pbrMetallicRoughness": {
    "baseColorFactor": [
     0.7200000286102295,
     0.14000000059604645,
     0.10000000149011612,
     1
    ],
    "metallicFactor": 0,
    "roughnessFactor": 0.699999988079071
   }
  }
 ],
 "meshes": [
  {
   "name": "Mil_PatrolShip",
   "primitives": [
    {
     "attributes": {
      "POSITION": 0,
      "NORMAL": 1
     },
     "indices": 2,
     "material": 0
    },
    {
     "attributes": {
      "POSITION": 3,
      "NORMAL": 4
     },
     "indices": 5,
     "material": 1
    },
    {
     "attributes": {
      "POSITION": 6,
      "NORMAL": 7
     },
     "indices": 5,
     "material": 2
    },
    {
     "attributes": {
      "POSITION": 8,
      "NORMAL": 9
     },
     "indices": 5,
     "material": 3
    }
   ]
  }
 ],
 "accessors": [
  {
   "bufferView": 0,
   "componentType": 5126,
   "count": 166,
   "max": [
    6,
    24,
    45
   ],
   "min": [
    -6,
    -3,
    -40
   ],
   "type": "VEC3"
  },
  {
   "bufferView": 1,
   "componentType": 5126,
   "count": 166,
   "type": "VEC3"
  },
  {
   "bufferView": 2,
   "componentType": 5123,
   "count": 252,
   "type": "SCALAR"
  },
  {
   "bufferView": 3,
   "componentType": 5126,
   "count": 24,
   "max": [
    4.03000020980835,
    11.300000190734863,
    12.029999732971191
   ],
   "min": [
    -4.03000020980835,
    10,
    11.899999618530273
   ],
   "type": "VEC3"
  },
  {
   "bufferView": 4,
   "componentType": 5126,
   "count": 24,
   "type": "VEC3"
  },
  {
   "bufferView": 5,
   "componentType": 5123,
   "count": 36,
   "type": "SCALAR"
  },
  {
   "bufferView": 6,
   "componentType": 5126,
   "count": 24,
   "max": [
    -6,
    3,
    30
   ],
   "min": [
    -6.03000020980835,
    1,
    24
   ],
   "type": "VEC3"
  },
  {
   "bufferView": 7,
   "componentType": 5126,
   "count": 24,
   "type": "VEC3"
  },
  {
   "bufferView": 8,
   "componentType": 5126,
   "count": 24,
   "max": [
    6,
    0,
    35
   ],
   "min": [
    -6,
    -0.20000000298023224,
    -40
   ],
   "type": "VEC3"
  },
  {
   "bufferView": 9,
   "componentType": 5126,
   "count": 24,
   "type": "VEC3"
  }
 ],
 "bufferViews": [
  {
   "buffer": 0,
   "byteLength": 1992,
   "byteOffset": 0,
   "target": 34962
  },
  {
   "buffer": 0,
   "byteLength": 1992,
   "byteOffset": 1992,
   "target": 34962
  },
  {
   "buffer": 0,
   "byteLength": 504,
   "byteOffset": 3984,
   "target": 34963
  },
  {
   "buffer": 0,
   "byteLength": 288,
   "byteOffset": 4488,
   "target": 34962
  },
  {
   "buffer": 0,
   "byteLength": 288,
   "byteOffset": 4776,
   "target": 34962
  },
  {
   "buffer": 0,
   "byteLength": 72,
   "byteOffset": 5064,
   "target": 34963
  },
  {
   "buffer": 0,
   "byteLength": 288,
   "byteOffset": 5136,
   "target": 34962
  },
  {
   "buffer": 0,
   "byteLength": 288,
   "byteOffset": 5424,
   "target": 34962
  },
  {
   "buffer": 0,
   "byteLength": 288,
   "byteOffset": 5712,
   "target": 34962
  },
  {
   "buffer": 0,
   "byteLength": 288,
   "byteOffset": 6000,
   "target": 34962
  }
 ],
 "buffers": [
  {
   "byteLength": 6288,
   "uri": "Mil_PatrolShip.bin"
  }
 ]
}
