{
 "asset": {
  "generator": "Khronos glTF Blender I/O v5.2.40",
  "version": "2.0",
  "extras": {
   "exported_by": "blender/tools/export_building_kit.py",
   "module_scale": 1.0
  }
 },
 "extensionsUsed": [
  "KHR_materials_emissive_strength"
 ],
 "scene": 0,
 "scenes": [
  {
   "name": "library",
   "nodes": [
    0
   ]
  }
 ],
 "nodes": [
  {
   "extras": {
    "edit_note": "Placeholder, ours (CC0). Keep the frame: Z up, origin at the footprint centre on the ground, the side a person uses facing -Y; real size in metres. After editing: tools/building_kit/build_buildings.sh."
   },
   "mesh": 0,
   "name": "Gas_Canopy"
  }
 ],
 "materials": [
  {
   "doubleSided": true,
   "name": "MI_PaintedMetal",
   "pbrMetallicRoughness": {
    "baseColorFactor": [
     0.8999999761581421,
     0.8999999761581421,
     0.8899999856948853,
     1
    ],
    "metallicFactor": 0.30000001192092896,
    "roughnessFactor": 0.699999988079071
   }
  },
  {
   "doubleSided": true,
   "name": "MI_FasciaGas",
   "pbrMetallicRoughness": {
    "baseColorFactor": [
     0.7295598983764648,
     0.7718988060951233,
     0.8544511198997498,
     1
    ],
    "metallicFactor": 0,
    "roughnessFactor": 0.4000000059604645
   }
  },
  {
   "doubleSided": true,
   "emissiveFactor": [
    1,
    0.9800000190734863,
    0.9399999976158142
   ],
   "extensions": {
    "KHR_materials_emissive_strength": {
     "emissiveStrength": 2
    }
   },
   "name": "MI_Light",
   "pbrMetallicRoughness": {
    "baseColorFactor": [
     1,
     1,
     0.9700000286102295,
     1
    ],
    "metallicFactor": 0,
    "roughnessFactor": 0.699999988079071
   }
  }
 ],
 "meshes": [
  {
   "name": "Gas_Canopy.001",
   "primitives": [
    {
     "attributes": {
      "POSITION": 0,
      "NORMAL": 1
     },
     "indices": 2,
     "material": 0
    },
    {
     "attributes": {
      "POSITION": 3,
      "NORMAL": 4
     },
     "indices": 5,
     "material": 1
    },
    {
     "attributes": {
      "POSITION": 6,
      "NORMAL": 7
     },
     "indices": 8,
     "material": 2
    }
   ]
  }
 ],
 "accessors": [
  {
   "bufferView": 0,
   "componentType": 5126,
   "count": 24,
   "max": [
    9.100000381469727,
    5,
    5.460000038146973
   ],
   "min": [
    -9.100000381469727,
    4.699999809265137,
    -5.460000038146973
   ],
   "type": "VEC3"
  },
  {
   "bufferView": 1,
   "componentType": 5126,
   "count": 24,
   "type": "VEC3"
  },
  {
   "bufferView": 2,
   "componentType": 5123,
   "count": 36,
   "type": "SCALAR"
  },
  {
   "bufferView": 3,
   "componentType": 5126,
   "count": 80,
   "max": [
    9.220000267028809,
    5.599999904632568,
    5.579999923706055
   ],
   "min": [
    -9.220000267028809,
    4.650000095367432,
    -5.579999923706055
   ],
   "type": "VEC3"
  },
  {
   "bufferView": 4,
   "componentType": 5126,
   "count": 80,
   "type": "VEC3"
  },
  {
   "bufferView": 5,
   "componentType": 5123,
   "count": 144,
   "type": "SCALAR"
  },
  {
   "bufferView": 6,
   "componentType": 5126,
   "count": 432,
   "max": [
    8.183333396911621,
    4.699999809265137,
    3.940000057220459
   ],
   "min": [
    -8.183333396911621,
    4.670000076293945,
    -3.940000057220459
   ],
   "type": "VEC3"
  },
  {
   "bufferView": 7,
   "componentType": 5126,
   "count": 432,
   "type": "VEC3"
  },
  {
   "bufferView": 8,
   "componentType": 5123,
   "count": 648,
   "type": "SCALAR"
  }
 ],
 "bufferViews": [
  {
   "buffer": 0,
   "byteLength": 288,
   "byteOffset": 0,
   "target": 34962
  },
  {
   "buffer": 0,
   "byteLength": 288,
   "byteOffset": 288,
   "target": 34962
  },
  {
   "buffer": 0,
   "byteLength": 72,
   "byteOffset": 576,
   "target": 34963
  },
  {
   "buffer": 0,
   "byteLength": 960,
   "byteOffset": 648,
   "target": 34962
  },
  {
   "buffer": 0,
   "byteLength": 960,
   "byteOffset": 1608,
   "target": 34962
  },
  {
   "buffer": 0,
   "byteLength": 288,
   "byteOffset": 2568,
   "target": 34963
  },
  {
   "buffer": 0,
   "byteLength": 5184,
   "byteOffset": 2856,
   "target": 34962
  },
  {
   "buffer": 0,
   "byteLength": 5184,
   "byteOffset": 8040,
   "target": 34962
  },
  {
   "buffer": 0,
   "byteLength": 1296,
   "byteOffset": 13224,
   "target": 34963
  }
 ],
 "buffers": [
  {
   "byteLength": 14520,
   "uri": "Gas_Canopy.bin"
  }
 ]
}
