{
 "asset": {
  "generator": "Khronos glTF Blender I/O v5.2.40",
  "version": "2.0",
  "extras": {
   "exported_by": "blender/tools/export_building_kit.py",
   "module_scale": 1.0
  }
 },
 "scene": 0,
 "scenes": [
  {
   "extras": {
    "bk_kit": "quaternius_stylized_nature",
    "bk_module_scale": 1.0,
    "bk_status": "OWNER: this file is the source of the kit's pieces. Edit a piece in its collection (origin = the piece's own origin + the collection's instance_offset), then run tools/building_kit/build_buildings.sh, which exports pieces/ with blender/tools/export_building_kit.py. A moved or resized piece is refused unless ACCEPT_BOUNDS=1."
   },
   "name": "Scene",
   "nodes": [
    0
   ]
  }
 ],
 "nodes": [
  {
   "mesh": 0,
   "name": "Flower_4_Group"
  }
 ],
 "materials": [
  {
   "alphaCutoff": 0.20000000298023224,
   "alphaMode": "MASK",
   "doubleSided": true,
   "name": "MI_Leaves",
   "pbrMetallicRoughness": {
    "baseColorTexture": {
     "index": 0
    },
    "metallicFactor": 0
   }
  },
  {
   "alphaCutoff": 0.20000000298023224,
   "alphaMode": "MASK",
   "doubleSided": true,
   "name": "MI_Flowers",
   "pbrMetallicRoughness": {
    "baseColorTexture": {
     "index": 1
    },
    "metallicFactor": 0
   }
  }
 ],
 "meshes": [
  {
   "name": "Plane.003",
   "primitives": [
    {
     "attributes": {
      "POSITION": 0,
      "NORMAL": 1,
      "TEXCOORD_0": 2,
      "COLOR_0": 3
     },
     "indices": 4,
     "material": 0
    },
    {
     "attributes": {
      "POSITION": 5,
      "NORMAL": 6,
      "TEXCOORD_0": 7,
      "COLOR_0": 8
     },
     "indices": 9,
     "material": 1
    }
   ]
  }
 ],
 "textures": [
  {
   "sampler": 0,
   "source": 0
  },
  {
   "sampler": 0,
   "source": 1
  }
 ],
 "images": [
  {
   "mimeType": "image/png",
   "name": "Leaves",
   "uri": "../../textures/Leaves.png"
  },
  {
   "mimeType": "image/png",
   "name": "Flowers",
   "uri": "../../textures/Flowers.png"
  }
 ],
 "accessors": [
  {
   "bufferView": 0,
   "componentType": 5126,
   "count": 302,
   "max": [
    0.1313626766204834,
    0.4818134307861328,
    0.11086196452379227
   ],
   "min": [
    -0.16593386232852936,
    -0.011969498358666897,
    -0.12980778515338898
   ],
   "type": "VEC3"
  },
  {
   "bufferView": 1,
   "componentType": 5126,
   "count": 302,
   "type": "VEC3"
  },
  {
   "bufferView": 2,
   "componentType": 5126,
   "count": 302,
   "type": "VEC2"
  },
  {
   "bufferView": 3,
   "componentType": 5123,
   "count": 302,
   "normalized": true,
   "type": "VEC4"
  },
  {
   "bufferView": 4,
   "componentType": 5123,
   "count": 1470,
   "type": "SCALAR"
  },
  {
   "bufferView": 5,
   "componentType": 5126,
   "count": 1000,
   "max": [
    0.17831939458847046,
    0.5102518200874329,
    0.15358944237232208
   ],
   "min": [
    -0.195591002702713,
    0.23562495410442352,
    -0.13359159231185913
   ],
   "type": "VEC3"
  },
  {
   "bufferView": 6,
   "componentType": 5126,
   "count": 1000,
   "type": "VEC3"
  },
  {
   "bufferView": 7,
   "componentType": 5126,
   "count": 1000,
   "type": "VEC2"
  },
  {
   "bufferView": 8,
   "componentType": 5123,
   "count": 1000,
   "normalized": true,
   "type": "VEC4"
  },
  {
   "bufferView": 9,
   "componentType": 5123,
   "count": 3600,
   "type": "SCALAR"
  }
 ],
 "bufferViews": [
  {
   "buffer": 0,
   "byteLength": 3624,
   "byteOffset": 0,
   "target": 34962
  },
  {
   "buffer": 0,
   "byteLength": 3624,
   "byteOffset": 3624,
   "target": 34962
  },
  {
   "buffer": 0,
   "byteLength": 2416,
   "byteOffset": 7248,
   "target": 34962
  },
  {
   "buffer": 0,
   "byteLength": 2416,
   "byteOffset": 9664,
   "target": 34962
  },
  {
   "buffer": 0,
   "byteLength": 2940,
   "byteOffset": 12080,
   "target": 34963
  },
  {
   "buffer": 0,
   "byteLength": 12000,
   "byteOffset": 15020,
   "target": 34962
  },
  {
   "buffer": 0,
   "byteLength": 12000,
   "byteOffset": 27020,
   "target": 34962
  },
  {
   "buffer": 0,
   "byteLength": 8000,
   "byteOffset": 39020,
   "target": 34962
  },
  {
   "buffer": 0,
   "byteLength": 8000,
   "byteOffset": 47020,
   "target": 34962
  },
  {
   "buffer": 0,
   "byteLength": 7200,
   "byteOffset": 55020,
   "target": 34963
  }
 ],
 "samplers": [
  {
   "magFilter": 9729,
   "minFilter": 9987
  }
 ],
 "buffers": [
  {
   "byteLength": 62220,
   "uri": "Flower_4_Group.bin"
  }
 ]
}
