{
 "asset": {
  "generator": "Khronos glTF Blender I/O v5.2.40",
  "version": "2.0",
  "extras": {
   "exported_by": "blender/tools/export_building_kit.py",
   "module_scale": 1.0
  }
 },
 "scene": 0,
 "scenes": [
  {
   "extras": {
    "bk_kit": "quaternius_stylized_nature",
    "bk_module_scale": 1.0,
    "bk_status": "OWNER: this file is the source of the kit's pieces. Edit a piece in its collection (origin = the piece's own origin + the collection's instance_offset), then run tools/building_kit/build_buildings.sh, which exports pieces/ with blender/tools/export_building_kit.py. A moved or resized piece is refused unless ACCEPT_BOUNDS=1."
   },
   "name": "Scene",
   "nodes": [
    0
   ]
  }
 ],
 "nodes": [
  {
   "mesh": 0,
   "name": "Flower_3_Single"
  }
 ],
 "materials": [
  {
   "alphaCutoff": 0.20000000298023224,
   "alphaMode": "MASK",
   "doubleSided": true,
   "name": "MI_Leaves",
   "pbrMetallicRoughness": {
    "baseColorTexture": {
     "index": 0
    },
    "metallicFactor": 0
   }
  },
  {
   "alphaCutoff": 0.20000000298023224,
   "alphaMode": "MASK",
   "doubleSided": true,
   "name": "MI_Flowers",
   "pbrMetallicRoughness": {
    "baseColorTexture": {
     "index": 1
    },
    "metallicFactor": 0
   }
  }
 ],
 "meshes": [
  {
   "name": "Plane.020",
   "primitives": [
    {
     "attributes": {
      "POSITION": 0,
      "NORMAL": 1,
      "TEXCOORD_0": 2,
      "COLOR_0": 3
     },
     "indices": 4,
     "material": 0
    },
    {
     "attributes": {
      "POSITION": 5,
      "NORMAL": 6,
      "TEXCOORD_0": 7,
      "COLOR_0": 8
     },
     "indices": 9,
     "material": 1
    }
   ]
  }
 ],
 "textures": [
  {
   "sampler": 0,
   "source": 0
  },
  {
   "sampler": 0,
   "source": 1
  }
 ],
 "images": [
  {
   "mimeType": "image/png",
   "name": "Leaves",
   "uri": "../../textures/Leaves.png"
  },
  {
   "mimeType": "image/png",
   "name": "Flowers",
   "uri": "../../textures/Flowers.png"
  }
 ],
 "accessors": [
  {
   "bufferView": 0,
   "componentType": 5126,
   "count": 216,
   "max": [
    0.0894329622387886,
    0.3720482885837555,
    0.0746784657239914
   ],
   "min": [
    -0.10095511376857758,
    -0.0038486605044454336,
    -0.1093512773513794
   ],
   "type": "VEC3"
  },
  {
   "bufferView": 1,
   "componentType": 5126,
   "count": 216,
   "type": "VEC3"
  },
  {
   "bufferView": 2,
   "componentType": 5126,
   "count": 216,
   "type": "VEC2"
  },
  {
   "bufferView": 3,
   "componentType": 5123,
   "count": 216,
   "normalized": true,
   "type": "VEC4"
  },
  {
   "bufferView": 4,
   "componentType": 5123,
   "count": 810,
   "type": "SCALAR"
  },
  {
   "bufferView": 5,
   "componentType": 5126,
   "count": 16,
   "max": [
    0.08836448937654495,
    0.4304720163345337,
    0.07493129372596741
   ],
   "min": [
    -0.0572199709713459,
    0.368626207113266,
    -0.07791752368211746
   ],
   "type": "VEC3"
  },
  {
   "bufferView": 6,
   "componentType": 5126,
   "count": 16,
   "type": "VEC3"
  },
  {
   "bufferView": 7,
   "componentType": 5126,
   "count": 16,
   "type": "VEC2"
  },
  {
   "bufferView": 8,
   "componentType": 5123,
   "count": 16,
   "normalized": true,
   "type": "VEC4"
  },
  {
   "bufferView": 9,
   "componentType": 5123,
   "count": 45,
   "type": "SCALAR"
  }
 ],
 "bufferViews": [
  {
   "buffer": 0,
   "byteLength": 2592,
   "byteOffset": 0,
   "target": 34962
  },
  {
   "buffer": 0,
   "byteLength": 2592,
   "byteOffset": 2592,
   "target": 34962
  },
  {
   "buffer": 0,
   "byteLength": 1728,
   "byteOffset": 5184,
   "target": 34962
  },
  {
   "buffer": 0,
   "byteLength": 1728,
   "byteOffset": 6912,
   "target": 34962
  },
  {
   "buffer": 0,
   "byteLength": 1620,
   "byteOffset": 8640,
   "target": 34963
  },
  {
   "buffer": 0,
   "byteLength": 192,
   "byteOffset": 10260,
   "target": 34962
  },
  {
   "buffer": 0,
   "byteLength": 192,
   "byteOffset": 10452,
   "target": 34962
  },
  {
   "buffer": 0,
   "byteLength": 128,
   "byteOffset": 10644,
   "target": 34962
  },
  {
   "buffer": 0,
   "byteLength": 128,
   "byteOffset": 10772,
   "target": 34962
  },
  {
   "buffer": 0,
   "byteLength": 90,
   "byteOffset": 10900,
   "target": 34963
  }
 ],
 "samplers": [
  {
   "magFilter": 9729,
   "minFilter": 9987
  }
 ],
 "buffers": [
  {
   "byteLength": 10992,
   "uri": "Flower_3_Single.bin"
  }
 ]
}
