{
 "asset": {
  "generator": "Khronos glTF Blender I/O v5.2.40",
  "version": "2.0",
  "extras": {
   "exported_by": "blender/tools/export_building_kit.py",
   "module_scale": 1.0
  }
 },
 "extensionsUsed": [
  "KHR_materials_emissive_strength"
 ],
 "scene": 0,
 "scenes": [
  {
   "name": "SafeHouseLarge",
   "nodes": [
    0,
    1,
    2,
    3,
    4,
    5,
    6,
    7,
    8,
    9,
    10,
    11,
    12,
    13,
    14,
    15,
    16,
    17,
    18,
    19,
    20,
    21,
    22,
    23,
    24,
    25,
    26,
    27,
    28,
    29,
    30
   ]
  }
 ],
 "nodes": [
  {
   "extras": {
    "edit_note": "A mission building (blender/tools/build_interior_blends.py, seed blender/tools/interior_plans.py): a PLACEHOLDER shell and fit-out at its real Japanese size -- remodel freely. Keep the frame (origin = plot centre on the ground, street -Y), the floor levels, and move the Empties with what they belong to: DOOR_ (interior door, arrow OUT of the room), EXIT_ (outer door, arrow out of the building), LIFT_ (a lift: shaft floor centre at the low stop; stops / faces), MARK_ (a mission marker: kind weapon / spawn / cover ...). Keep 1.2 m clear both sides of every door. After editing: tools/building_kit/build_buildings.sh. \u96a0\u308c\u5bb6 (large safe house): a 7 x 5.5 \u9593 two-storey house with a built-in two-car garage -- genkan, \u30ea\u30d3\u30f3\u30b0\u968e\u6bb5 LDK with a \u5bfe\u9762 kitchen, a 6-\u7573 \u548c\u5ba4 with \u62bc\u5165\u308c, WC, \u6d17\u9762\u6240 + unit bath; upstairs the master bedroom (balcony), the study with the safe and the gun locker, two more rooms, a WC and the storeroom; a 1.6 m block wall with a car gate and a camera."
   },
   "mesh": 0,
   "name": "Facade"
  },
  {
   "extras": {
    "edit_note": "A mission building (blender/tools/build_interior_blends.py, seed blender/tools/interior_plans.py): a PLACEHOLDER shell and fit-out at its real Japanese size -- remodel freely. Keep the frame (origin = plot centre on the ground, street -Y), the floor levels, and move the Empties with what they belong to: DOOR_ (interior door, arrow OUT of the room), EXIT_ (outer door, arrow out of the building), LIFT_ (a lift: shaft floor centre at the low stop; stops / faces), MARK_ (a mission marker: kind weapon / spawn / cover ...). Keep 1.2 m clear both sides of every door. After editing: tools/building_kit/build_buildings.sh. \u96a0\u308c\u5bb6 (large safe house): a 7 x 5.5 \u9593 two-storey house with a built-in two-car garage -- genkan, \u30ea\u30d3\u30f3\u30b0\u968e\u6bb5 LDK with a \u5bfe\u9762 kitchen, a 6-\u7573 \u548c\u5ba4 with \u62bc\u5165\u308c, WC, \u6d17\u9762\u6240 + unit bath; upstairs the master bedroom (balcony), the study with the safe and the gun locker, two more rooms, a WC and the storeroom; a 1.6 m block wall with a car gate and a camera."
   },
   "mesh": 1,
   "name": "Furniture"
  },
  {
   "extras": {
    "edit_note": "A mission building (blender/tools/build_interior_blends.py, seed blender/tools/interior_plans.py): a PLACEHOLDER shell and fit-out at its real Japanese size -- remodel freely. Keep the frame (origin = plot centre on the ground, street -Y), the floor levels, and move the Empties with what they belong to: DOOR_ (interior door, arrow OUT of the room), EXIT_ (outer door, arrow out of the building), LIFT_ (a lift: shaft floor centre at the low stop; stops / faces), MARK_ (a mission marker: kind weapon / spawn / cover ...). Keep 1.2 m clear both sides of every door. After editing: tools/building_kit/build_buildings.sh. \u96a0\u308c\u5bb6 (large safe house): a 7 x 5.5 \u9593 two-storey house with a built-in two-car garage -- genkan, \u30ea\u30d3\u30f3\u30b0\u968e\u6bb5 LDK with a \u5bfe\u9762 kitchen, a 6-\u7573 \u548c\u5ba4 with \u62bc\u5165\u308c, WC, \u6d17\u9762\u6240 + unit bath; upstairs the master bedroom (balcony), the study with the safe and the gun locker, two more rooms, a WC and the storeroom; a 1.6 m block wall with a car gate and a camera."
   },
   "mesh": 2,
   "name": "Glazing"
  },
  {
   "extras": {
    "edit_note": "A mission building (blender/tools/build_interior_blends.py, seed blender/tools/interior_plans.py): a PLACEHOLDER shell and fit-out at its real Japanese size -- remodel freely. Keep the frame (origin = plot centre on the ground, street -Y), the floor levels, and move the Empties with what they belong to: DOOR_ (interior door, arrow OUT of the room), EXIT_ (outer door, arrow out of the building), LIFT_ (a lift: shaft floor centre at the low stop; stops / faces), MARK_ (a mission marker: kind weapon / spawn / cover ...). Keep 1.2 m clear both sides of every door. After editing: tools/building_kit/build_buildings.sh. \u96a0\u308c\u5bb6 (large safe house): a 7 x 5.5 \u9593 two-storey house with a built-in two-car garage -- genkan, \u30ea\u30d3\u30f3\u30b0\u968e\u6bb5 LDK with a \u5bfe\u9762 kitchen, a 6-\u7573 \u548c\u5ba4 with \u62bc\u5165\u308c, WC, \u6d17\u9762\u6240 + unit bath; upstairs the master bedroom (balcony), the study with the safe and the gun locker, two more rooms, a WC and the storeroom; a 1.6 m block wall with a car gate and a camera."
   },
   "mesh": 3,
   "name": "Hotel_Bed",
   "rotation": [
    0,
    0.7071068286895752,
    0,
    0.7071068286895752
   ],
   "translation": [
    -3,
    3.25,
    3.299999952316284
   ]
  },
  {
   "extras": {
    "edit_note": "A mission building (blender/tools/build_interior_blends.py, seed blender/tools/interior_plans.py): a PLACEHOLDER shell and fit-out at its real Japanese size -- remodel freely. Keep the frame (origin = plot centre on the ground, street -Y), the floor levels, and move the Empties with what they belong to: DOOR_ (interior door, arrow OUT of the room), EXIT_ (outer door, arrow out of the building), LIFT_ (a lift: shaft floor centre at the low stop; stops / faces), MARK_ (a mission marker: kind weapon / spawn / cover ...). Keep 1.2 m clear both sides of every door. After editing: tools/building_kit/build_buildings.sh. \u96a0\u308c\u5bb6 (large safe house): a 7 x 5.5 \u9593 two-storey house with a built-in two-car garage -- genkan, \u30ea\u30d3\u30f3\u30b0\u968e\u6bb5 LDK with a \u5bfe\u9762 kitchen, a 6-\u7573 \u548c\u5ba4 with \u62bc\u5165\u308c, WC, \u6d17\u9762\u6240 + unit bath; upstairs the master bedroom (balcony), the study with the safe and the gun locker, two more rooms, a WC and the storeroom; a 1.6 m block wall with a car gate and a camera."
   },
   "mesh": 3,
   "name": "Hotel_Bed.001",
   "rotation": [
    0,
    0.7071068286895752,
    0,
    0.7071068286895752
   ],
   "translation": [
    4.199999809265137,
    3.25,
    3.5999999046325684
   ]
  },
  {
   "extras": {
    "edit_note": "A mission building (blender/tools/build_interior_blends.py, seed blender/tools/interior_plans.py): a PLACEHOLDER shell and fit-out at its real Japanese size -- remodel freely. Keep the frame (origin = plot centre on the ground, street -Y), the floor levels, and move the Empties with what they belong to: DOOR_ (interior door, arrow OUT of the room), EXIT_ (outer door, arrow out of the building), LIFT_ (a lift: shaft floor centre at the low stop; stops / faces), MARK_ (a mission marker: kind weapon / spawn / cover ...). Keep 1.2 m clear both sides of every door. After editing: tools/building_kit/build_buildings.sh. \u96a0\u308c\u5bb6 (large safe house): a 7 x 5.5 \u9593 two-storey house with a built-in two-car garage -- genkan, \u30ea\u30d3\u30f3\u30b0\u968e\u6bb5 LDK with a \u5bfe\u9762 kitchen, a 6-\u7573 \u548c\u5ba4 with \u62bc\u5165\u308c, WC, \u6d17\u9762\u6240 + unit bath; upstairs the master bedroom (balcony), the study with the safe and the gun locker, two more rooms, a WC and the storeroom; a 1.6 m block wall with a car gate and a camera."
   },
   "mesh": 3,
   "name": "Hotel_Bed.002",
   "rotation": [
    0,
    0.7071068286895752,
    0,
    0.7071068286895752
   ],
   "translation": [
    -2.200000047683716,
    3.25,
    -3.799999952316284
   ]
  },
  {
   "extras": {
    "edit_note": "A mission building (blender/tools/build_interior_blends.py, seed blender/tools/interior_plans.py): a PLACEHOLDER shell and fit-out at its real Japanese size -- remodel freely. Keep the frame (origin = plot centre on the ground, street -Y), the floor levels, and move the Empties with what they belong to: DOOR_ (interior door, arrow OUT of the room), EXIT_ (outer door, arrow out of the building), LIFT_ (a lift: shaft floor centre at the low stop; stops / faces), MARK_ (a mission marker: kind weapon / spawn / cover ...). Keep 1.2 m clear both sides of every door. After editing: tools/building_kit/build_buildings.sh. \u96a0\u308c\u5bb6 (large safe house): a 7 x 5.5 \u9593 two-storey house with a built-in two-car garage -- genkan, \u30ea\u30d3\u30f3\u30b0\u968e\u6bb5 LDK with a \u5bfe\u9762 kitchen, a 6-\u7573 \u548c\u5ba4 with \u62bc\u5165\u308c, WC, \u6d17\u9762\u6240 + unit bath; upstairs the master bedroom (balcony), the study with the safe and the gun locker, two more rooms, a WC and the storeroom; a 1.6 m block wall with a car gate and a camera."
   },
   "mesh": 4,
   "name": "Hotel_Tub",
   "translation": [
    4.835000038146973,
    0.44999998807907104,
    -4.550000190734863
   ]
  },
  {
   "extras": {
    "edit_note": "A mission building (blender/tools/build_interior_blends.py, seed blender/tools/interior_plans.py): a PLACEHOLDER shell and fit-out at its real Japanese size -- remodel freely. Keep the frame (origin = plot centre on the ground, street -Y), the floor levels, and move the Empties with what they belong to: DOOR_ (interior door, arrow OUT of the room), EXIT_ (outer door, arrow out of the building), LIFT_ (a lift: shaft floor centre at the low stop; stops / faces), MARK_ (a mission marker: kind weapon / spawn / cover ...). Keep 1.2 m clear both sides of every door. After editing: tools/building_kit/build_buildings.sh. \u96a0\u308c\u5bb6 (large safe house): a 7 x 5.5 \u9593 two-storey house with a built-in two-car garage -- genkan, \u30ea\u30d3\u30f3\u30b0\u968e\u6bb5 LDK with a \u5bfe\u9762 kitchen, a 6-\u7573 \u548c\u5ba4 with \u62bc\u5165\u308c, WC, \u6d17\u9762\u6240 + unit bath; upstairs the master bedroom (balcony), the study with the safe and the gun locker, two more rooms, a WC and the storeroom; a 1.6 m block wall with a car gate and a camera."
   },
   "mesh": 5,
   "name": "Kitchen_Fridge",
   "translation": [
    -3.6500000953674316,
    0.44999998807907104,
    4.349999904632568
   ]
  },
  {
   "extras": {
    "edit_note": "A mission building (blender/tools/build_interior_blends.py, seed blender/tools/interior_plans.py): a PLACEHOLDER shell and fit-out at its real Japanese size -- remodel freely. Keep the frame (origin = plot centre on the ground, street -Y), the floor levels, and move the Empties with what they belong to: DOOR_ (interior door, arrow OUT of the room), EXIT_ (outer door, arrow out of the building), LIFT_ (a lift: shaft floor centre at the low stop; stops / faces), MARK_ (a mission marker: kind weapon / spawn / cover ...). Keep 1.2 m clear both sides of every door. After editing: tools/building_kit/build_buildings.sh. \u96a0\u308c\u5bb6 (large safe house): a 7 x 5.5 \u9593 two-storey house with a built-in two-car garage -- genkan, \u30ea\u30d3\u30f3\u30b0\u968e\u6bb5 LDK with a \u5bfe\u9762 kitchen, a 6-\u7573 \u548c\u5ba4 with \u62bc\u5165\u308c, WC, \u6d17\u9762\u6240 + unit bath; upstairs the master bedroom (balcony), the study with the safe and the gun locker, two more rooms, a WC and the storeroom; a 1.6 m block wall with a car gate and a camera."
   },
   "mesh": 6,
   "name": "Office_Cabinet",
   "rotation": [
    0,
    0.7071068286895752,
    0,
    0.7071068286895752
   ],
   "translation": [
    -5.800000190734863,
    3.25,
    2
   ]
  },
  {
   "extras": {
    "edit_note": "A mission building (blender/tools/build_interior_blends.py, seed blender/tools/interior_plans.py): a PLACEHOLDER shell and fit-out at its real Japanese size -- remodel freely. Keep the frame (origin = plot centre on the ground, street -Y), the floor levels, and move the Empties with what they belong to: DOOR_ (interior door, arrow OUT of the room), EXIT_ (outer door, arrow out of the building), LIFT_ (a lift: shaft floor centre at the low stop; stops / faces), MARK_ (a mission marker: kind weapon / spawn / cover ...). Keep 1.2 m clear both sides of every door. After editing: tools/building_kit/build_buildings.sh. \u96a0\u308c\u5bb6 (large safe house): a 7 x 5.5 \u9593 two-storey house with a built-in two-car garage -- genkan, \u30ea\u30d3\u30f3\u30b0\u968e\u6bb5 LDK with a \u5bfe\u9762 kitchen, a 6-\u7573 \u548c\u5ba4 with \u62bc\u5165\u308c, WC, \u6d17\u9762\u6240 + unit bath; upstairs the master bedroom (balcony), the study with the safe and the gun locker, two more rooms, a WC and the storeroom; a 1.6 m block wall with a car gate and a camera."
   },
   "mesh": 7,
   "name": "Office_Chair",
   "translation": [
    0.8999999761581421,
    3.25,
    3.549999952316284
   ]
  },
  {
   "extras": {
    "edit_note": "A mission building (blender/tools/build_interior_blends.py, seed blender/tools/interior_plans.py): a PLACEHOLDER shell and fit-out at its real Japanese size -- remodel freely. Keep the frame (origin = plot centre on the ground, street -Y), the floor levels, and move the Empties with what they belong to: DOOR_ (interior door, arrow OUT of the room), EXIT_ (outer door, arrow out of the building), LIFT_ (a lift: shaft floor centre at the low stop; stops / faces), MARK_ (a mission marker: kind weapon / spawn / cover ...). Keep 1.2 m clear both sides of every door. After editing: tools/building_kit/build_buildings.sh. \u96a0\u308c\u5bb6 (large safe house): a 7 x 5.5 \u9593 two-storey house with a built-in two-car garage -- genkan, \u30ea\u30d3\u30f3\u30b0\u968e\u6bb5 LDK with a \u5bfe\u9762 kitchen, a 6-\u7573 \u548c\u5ba4 with \u62bc\u5165\u308c, WC, \u6d17\u9762\u6240 + unit bath; upstairs the master bedroom (balcony), the study with the safe and the gun locker, two more rooms, a WC and the storeroom; a 1.6 m block wall with a car gate and a camera."
   },
   "mesh": 8,
   "name": "Office_Desk",
   "rotation": [
    0,
    -1,
    0,
    4.371138828673793e-08
   ],
   "translation": [
    0.8999999761581421,
    3.25,
    4.199999809265137
   ]
  },
  {
   "extras": {
    "edit_note": "A mission building (blender/tools/build_interior_blends.py, seed blender/tools/interior_plans.py): a PLACEHOLDER shell and fit-out at its real Japanese size -- remodel freely. Keep the frame (origin = plot centre on the ground, street -Y), the floor levels, and move the Empties with what they belong to: DOOR_ (interior door, arrow OUT of the room), EXIT_ (outer door, arrow out of the building), LIFT_ (a lift: shaft floor centre at the low stop; stops / faces), MARK_ (a mission marker: kind weapon / spawn / cover ...). Keep 1.2 m clear both sides of every door. After editing: tools/building_kit/build_buildings.sh. \u96a0\u308c\u5bb6 (large safe house): a 7 x 5.5 \u9593 two-storey house with a built-in two-car garage -- genkan, \u30ea\u30d3\u30f3\u30b0\u968e\u6bb5 LDK with a \u5bfe\u9762 kitchen, a 6-\u7573 \u548c\u5ba4 with \u62bc\u5165\u308c, WC, \u6d17\u9762\u6240 + unit bath; upstairs the master bedroom (balcony), the study with the safe and the gun locker, two more rooms, a WC and the storeroom; a 1.6 m block wall with a car gate and a camera."
   },
   "mesh": 8,
   "name": "Office_Desk.001",
   "rotation": [
    0,
    -0.7071068286895752,
    0,
    0.7071068286895752
   ],
   "translation": [
    5.5,
    3.25,
    1.2999999523162842
   ]
  },
  {
   "extras": {
    "edit_note": "A mission building (blender/tools/build_interior_blends.py, seed blender/tools/interior_plans.py): a PLACEHOLDER shell and fit-out at its real Japanese size -- remodel freely. Keep the frame (origin = plot centre on the ground, street -Y), the floor levels, and move the Empties with what they belong to: DOOR_ (interior door, arrow OUT of the room), EXIT_ (outer door, arrow out of the building), LIFT_ (a lift: shaft floor centre at the low stop; stops / faces), MARK_ (a mission marker: kind weapon / spawn / cover ...). Keep 1.2 m clear both sides of every door. After editing: tools/building_kit/build_buildings.sh. \u96a0\u308c\u5bb6 (large safe house): a 7 x 5.5 \u9593 two-storey house with a built-in two-car garage -- genkan, \u30ea\u30d3\u30f3\u30b0\u968e\u6bb5 LDK with a \u5bfe\u9762 kitchen, a 6-\u7573 \u548c\u5ba4 with \u62bc\u5165\u308c, WC, \u6d17\u9762\u6240 + unit bath; upstairs the master bedroom (balcony), the study with the safe and the gun locker, two more rooms, a WC and the storeroom; a 1.6 m block wall with a car gate and a camera."
   },
   "mesh": 9,
   "name": "Office_Safe",
   "rotation": [
    0,
    0.7071068286895752,
    0,
    0.7071068286895752
   ],
   "translation": [
    0,
    3.25,
    1.2000000476837158
   ]
  },
  {
   "extras": {
    "edit_note": "A mission building (blender/tools/build_interior_blends.py, seed blender/tools/interior_plans.py): a PLACEHOLDER shell and fit-out at its real Japanese size -- remodel freely. Keep the frame (origin = plot centre on the ground, street -Y), the floor levels, and move the Empties with what they belong to: DOOR_ (interior door, arrow OUT of the room), EXIT_ (outer door, arrow out of the building), LIFT_ (a lift: shaft floor centre at the low stop; stops / faces), MARK_ (a mission marker: kind weapon / spawn / cover ...). Keep 1.2 m clear both sides of every door. After editing: tools/building_kit/build_buildings.sh. \u96a0\u308c\u5bb6 (large safe house): a 7 x 5.5 \u9593 two-storey house with a built-in two-car garage -- genkan, \u30ea\u30d3\u30f3\u30b0\u968e\u6bb5 LDK with a \u5bfe\u9762 kitchen, a 6-\u7573 \u548c\u5ba4 with \u62bc\u5165\u308c, WC, \u6d17\u9762\u6240 + unit bath; upstairs the master bedroom (balcony), the study with the safe and the gun locker, two more rooms, a WC and the storeroom; a 1.6 m block wall with a car gate and a camera."
   },
   "mesh": 10,
   "name": "Office_Sofa",
   "rotation": [
    0,
    0.7071068286895752,
    0,
    0.7071068286895752
   ],
   "translation": [
    -5.300000190734863,
    0.44999998807907104,
    0.8999999761581421
   ]
  },
  {
   "extras": {
    "edit_note": "A mission building (blender/tools/build_interior_blends.py, seed blender/tools/interior_plans.py): a PLACEHOLDER shell and fit-out at its real Japanese size -- remodel freely. Keep the frame (origin = plot centre on the ground, street -Y), the floor levels, and move the Empties with what they belong to: DOOR_ (interior door, arrow OUT of the room), EXIT_ (outer door, arrow out of the building), LIFT_ (a lift: shaft floor centre at the low stop; stops / faces), MARK_ (a mission marker: kind weapon / spawn / cover ...). Keep 1.2 m clear both sides of every door. After editing: tools/building_kit/build_buildings.sh. \u96a0\u308c\u5bb6 (large safe house): a 7 x 5.5 \u9593 two-storey house with a built-in two-car garage -- genkan, \u30ea\u30d3\u30f3\u30b0\u968e\u6bb5 LDK with a \u5bfe\u9762 kitchen, a 6-\u7573 \u548c\u5ba4 with \u62bc\u5165\u308c, WC, \u6d17\u9762\u6240 + unit bath; upstairs the master bedroom (balcony), the study with the safe and the gun locker, two more rooms, a WC and the storeroom; a 1.6 m block wall with a car gate and a camera."
   },
   "mesh": 11,
   "name": "Police_GunLocker",
   "rotation": [
    0,
    -0.7071068286895752,
    0,
    0.7071068286895752
   ],
   "translation": [
    1.850000023841858,
    3.25,
    2.200000047683716
   ]
  },
  {
   "extras": {
    "edit_note": "A mission building (blender/tools/build_interior_blends.py, seed blender/tools/interior_plans.py): a PLACEHOLDER shell and fit-out at its real Japanese size -- remodel freely. Keep the frame (origin = plot centre on the ground, street -Y), the floor levels, and move the Empties with what they belong to: DOOR_ (interior door, arrow OUT of the room), EXIT_ (outer door, arrow out of the building), LIFT_ (a lift: shaft floor centre at the low stop; stops / faces), MARK_ (a mission marker: kind weapon / spawn / cover ...). Keep 1.2 m clear both sides of every door. After editing: tools/building_kit/build_buildings.sh. \u96a0\u308c\u5bb6 (large safe house): a 7 x 5.5 \u9593 two-storey house with a built-in two-car garage -- genkan, \u30ea\u30d3\u30f3\u30b0\u968e\u6bb5 LDK with a \u5bfe\u9762 kitchen, a 6-\u7573 \u548c\u5ba4 with \u62bc\u5165\u308c, WC, \u6d17\u9762\u6240 + unit bath; upstairs the master bedroom (balcony), the study with the safe and the gun locker, two more rooms, a WC and the storeroom; a 1.6 m block wall with a car gate and a camera."
   },
   "mesh": 12,
   "name": "Rest_Chair",
   "translation": [
    -3.6500000953674316,
    0.44999998807907104,
    3.6500000953674316
   ]
  },
  {
   "extras": {
    "edit_note": "A mission building (blender/tools/build_interior_blends.py, seed blender/tools/interior_plans.py): a PLACEHOLDER shell and fit-out at its real Japanese size -- remodel freely. Keep the frame (origin = plot centre on the ground, street -Y), the floor levels, and move the Empties with what they belong to: DOOR_ (interior door, arrow OUT of the room), EXIT_ (outer door, arrow out of the building), LIFT_ (a lift: shaft floor centre at the low stop; stops / faces), MARK_ (a mission marker: kind weapon / spawn / cover ...). Keep 1.2 m clear both sides of every door. After editing: tools/building_kit/build_buildings.sh. \u96a0\u308c\u5bb6 (large safe house): a 7 x 5.5 \u9593 two-storey house with a built-in two-car garage -- genkan, \u30ea\u30d3\u30f3\u30b0\u968e\u6bb5 LDK with a \u5bfe\u9762 kitchen, a 6-\u7573 \u548c\u5ba4 with \u62bc\u5165\u308c, WC, \u6d17\u9762\u6240 + unit bath; upstairs the master bedroom (balcony), the study with the safe and the gun locker, two more rooms, a WC and the storeroom; a 1.6 m block wall with a car gate and a camera."
   },
   "mesh": 12,
   "name": "Rest_Chair.001",
   "rotation": [
    0,
    -1,
    0,
    4.371138828673793e-08
   ],
   "translation": [
    -3.6500000953674316,
    0.44999998807907104,
    2.1500000953674316
   ]
  },
  {
   "extras": {
    "edit_note": "A mission building (blender/tools/build_interior_blends.py, seed blender/tools/interior_plans.py): a PLACEHOLDER shell and fit-out at its real Japanese size -- remodel freely. Keep the frame (origin = plot centre on the ground, street -Y), the floor levels, and move the Empties with what they belong to: DOOR_ (interior door, arrow OUT of the room), EXIT_ (outer door, arrow out of the building), LIFT_ (a lift: shaft floor centre at the low stop; stops / faces), MARK_ (a mission marker: kind weapon / spawn / cover ...). Keep 1.2 m clear both sides of every door. After editing: tools/building_kit/build_buildings.sh. \u96a0\u308c\u5bb6 (large safe house): a 7 x 5.5 \u9593 two-storey house with a built-in two-car garage -- genkan, \u30ea\u30d3\u30f3\u30b0\u968e\u6bb5 LDK with a \u5bfe\u9762 kitchen, a 6-\u7573 \u548c\u5ba4 with \u62bc\u5165\u308c, WC, \u6d17\u9762\u6240 + unit bath; upstairs the master bedroom (balcony), the study with the safe and the gun locker, two more rooms, a WC and the storeroom; a 1.6 m block wall with a car gate and a camera."
   },
   "mesh": 12,
   "name": "Rest_Chair.002",
   "translation": [
    -2.950000047683716,
    0.44999998807907104,
    3.6500000953674316
   ]
  },
  {
   "extras": {
    "edit_note": "A mission building (blender/tools/build_interior_blends.py, seed blender/tools/interior_plans.py): a PLACEHOLDER shell and fit-out at its real Japanese size -- remodel freely. Keep the frame (origin = plot centre on the ground, street -Y), the floor levels, and move the Empties with what they belong to: DOOR_ (interior door, arrow OUT of the room), EXIT_ (outer door, arrow out of the building), LIFT_ (a lift: shaft floor centre at the low stop; stops / faces), MARK_ (a mission marker: kind weapon / spawn / cover ...). Keep 1.2 m clear both sides of every door. After editing: tools/building_kit/build_buildings.sh. \u96a0\u308c\u5bb6 (large safe house): a 7 x 5.5 \u9593 two-storey house with a built-in two-car garage -- genkan, \u30ea\u30d3\u30f3\u30b0\u968e\u6bb5 LDK with a \u5bfe\u9762 kitchen, a 6-\u7573 \u548c\u5ba4 with \u62bc\u5165\u308c, WC, \u6d17\u9762\u6240 + unit bath; upstairs the master bedroom (balcony), the study with the safe and the gun locker, two more rooms, a WC and the storeroom; a 1.6 m block wall with a car gate and a camera."
   },
   "mesh": 12,
   "name": "Rest_Chair.003",
   "rotation": [
    0,
    -1,
    0,
    4.371138828673793e-08
   ],
   "translation": [
    -2.950000047683716,
    0.44999998807907104,
    2.1500000953674316
   ]
  },
  {
   "extras": {
    "edit_note": "A mission building (blender/tools/build_interior_blends.py, seed blender/tools/interior_plans.py): a PLACEHOLDER shell and fit-out at its real Japanese size -- remodel freely. Keep the frame (origin = plot centre on the ground, street -Y), the floor levels, and move the Empties with what they belong to: DOOR_ (interior door, arrow OUT of the room), EXIT_ (outer door, arrow out of the building), LIFT_ (a lift: shaft floor centre at the low stop; stops / faces), MARK_ (a mission marker: kind weapon / spawn / cover ...). Keep 1.2 m clear both sides of every door. After editing: tools/building_kit/build_buildings.sh. \u96a0\u308c\u5bb6 (large safe house): a 7 x 5.5 \u9593 two-storey house with a built-in two-car garage -- genkan, \u30ea\u30d3\u30f3\u30b0\u968e\u6bb5 LDK with a \u5bfe\u9762 kitchen, a 6-\u7573 \u548c\u5ba4 with \u62bc\u5165\u308c, WC, \u6d17\u9762\u6240 + unit bath; upstairs the master bedroom (balcony), the study with the safe and the gun locker, two more rooms, a WC and the storeroom; a 1.6 m block wall with a car gate and a camera."
   },
   "mesh": 13,
   "name": "Rest_Table",
   "translation": [
    -3.299999952316284,
    0.44999998807907104,
    2.9000000953674316
   ]
  },
  {
   "extras": {
    "edit_note": "A mission building (blender/tools/build_interior_blends.py, seed blender/tools/interior_plans.py): a PLACEHOLDER shell and fit-out at its real Japanese size -- remodel freely. Keep the frame (origin = plot centre on the ground, street -Y), the floor levels, and move the Empties with what they belong to: DOOR_ (interior door, arrow OUT of the room), EXIT_ (outer door, arrow out of the building), LIFT_ (a lift: shaft floor centre at the low stop; stops / faces), MARK_ (a mission marker: kind weapon / spawn / cover ...). Keep 1.2 m clear both sides of every door. After editing: tools/building_kit/build_buildings.sh. \u96a0\u308c\u5bb6 (large safe house): a 7 x 5.5 \u9593 two-storey house with a built-in two-car garage -- genkan, \u30ea\u30d3\u30f3\u30b0\u968e\u6bb5 LDK with a \u5bfe\u9762 kitchen, a 6-\u7573 \u548c\u5ba4 with \u62bc\u5165\u308c, WC, \u6d17\u9762\u6240 + unit bath; upstairs the master bedroom (balcony), the study with the safe and the gun locker, two more rooms, a WC and the storeroom; a 1.6 m block wall with a car gate and a camera."
   },
   "mesh": 14,
   "name": "Roof"
  },
  {
   "extras": {
    "edit_note": "A mission building (blender/tools/build_interior_blends.py, seed blender/tools/interior_plans.py): a PLACEHOLDER shell and fit-out at its real Japanese size -- remodel freely. Keep the frame (origin = plot centre on the ground, street -Y), the floor levels, and move the Empties with what they belong to: DOOR_ (interior door, arrow OUT of the room), EXIT_ (outer door, arrow out of the building), LIFT_ (a lift: shaft floor centre at the low stop; stops / faces), MARK_ (a mission marker: kind weapon / spawn / cover ...). Keep 1.2 m clear both sides of every door. After editing: tools/building_kit/build_buildings.sh. \u96a0\u308c\u5bb6 (large safe house): a 7 x 5.5 \u9593 two-storey house with a built-in two-car garage -- genkan, \u30ea\u30d3\u30f3\u30b0\u968e\u6bb5 LDK with a \u5bfe\u9762 kitchen, a 6-\u7573 \u548c\u5ba4 with \u62bc\u5165\u308c, WC, \u6d17\u9762\u6240 + unit bath; upstairs the master bedroom (balcony), the study with the safe and the gun locker, two more rooms, a WC and the storeroom; a 1.6 m block wall with a car gate and a camera."
   },
   "mesh": 15,
   "name": "Shop_StockShelf",
   "translation": [
    4.300000190734863,
    3.25,
    -4.599999904632568
   ]
  },
  {
   "extras": {
    "edit_note": "A mission building (blender/tools/build_interior_blends.py, seed blender/tools/interior_plans.py): a PLACEHOLDER shell and fit-out at its real Japanese size -- remodel freely. Keep the frame (origin = plot centre on the ground, street -Y), the floor levels, and move the Empties with what they belong to: DOOR_ (interior door, arrow OUT of the room), EXIT_ (outer door, arrow out of the building), LIFT_ (a lift: shaft floor centre at the low stop; stops / faces), MARK_ (a mission marker: kind weapon / spawn / cover ...). Keep 1.2 m clear both sides of every door. After editing: tools/building_kit/build_buildings.sh. \u96a0\u308c\u5bb6 (large safe house): a 7 x 5.5 \u9593 two-storey house with a built-in two-car garage -- genkan, \u30ea\u30d3\u30f3\u30b0\u968e\u6bb5 LDK with a \u5bfe\u9762 kitchen, a 6-\u7573 \u548c\u5ba4 with \u62bc\u5165\u308c, WC, \u6d17\u9762\u6240 + unit bath; upstairs the master bedroom (balcony), the study with the safe and the gun locker, two more rooms, a WC and the storeroom; a 1.6 m block wall with a car gate and a camera."
   },
   "mesh": 16,
   "name": "Site"
  },
  {
   "extras": {
    "edit_note": "A mission building (blender/tools/build_interior_blends.py, seed blender/tools/interior_plans.py): a PLACEHOLDER shell and fit-out at its real Japanese size -- remodel freely. Keep the frame (origin = plot centre on the ground, street -Y), the floor levels, and move the Empties with what they belong to: DOOR_ (interior door, arrow OUT of the room), EXIT_ (outer door, arrow out of the building), LIFT_ (a lift: shaft floor centre at the low stop; stops / faces), MARK_ (a mission marker: kind weapon / spawn / cover ...). Keep 1.2 m clear both sides of every door. After editing: tools/building_kit/build_buildings.sh. \u96a0\u308c\u5bb6 (large safe house): a 7 x 5.5 \u9593 two-storey house with a built-in two-car garage -- genkan, \u30ea\u30d3\u30f3\u30b0\u968e\u6bb5 LDK with a \u5bfe\u9762 kitchen, a 6-\u7573 \u548c\u5ba4 with \u62bc\u5165\u308c, WC, \u6d17\u9762\u6240 + unit bath; upstairs the master bedroom (balcony), the study with the safe and the gun locker, two more rooms, a WC and the storeroom; a 1.6 m block wall with a car gate and a camera."
   },
   "mesh": 17,
   "name": "Stairs"
  },
  {
   "extras": {
    "edit_note": "A mission building (blender/tools/build_interior_blends.py, seed blender/tools/interior_plans.py): a PLACEHOLDER shell and fit-out at its real Japanese size -- remodel freely. Keep the frame (origin = plot centre on the ground, street -Y), the floor levels, and move the Empties with what they belong to: DOOR_ (interior door, arrow OUT of the room), EXIT_ (outer door, arrow out of the building), LIFT_ (a lift: shaft floor centre at the low stop; stops / faces), MARK_ (a mission marker: kind weapon / spawn / cover ...). Keep 1.2 m clear both sides of every door. After editing: tools/building_kit/build_buildings.sh. \u96a0\u308c\u5bb6 (large safe house): a 7 x 5.5 \u9593 two-storey house with a built-in two-car garage -- genkan, \u30ea\u30d3\u30f3\u30b0\u968e\u6bb5 LDK with a \u5bfe\u9762 kitchen, a 6-\u7573 \u548c\u5ba4 with \u62bc\u5165\u308c, WC, \u6d17\u9762\u6240 + unit bath; upstairs the master bedroom (balcony), the study with the safe and the gun locker, two more rooms, a WC and the storeroom; a 1.6 m block wall with a car gate and a camera."
   },
   "mesh": 18,
   "name": "Structure"
  },
  {
   "extras": {
    "edit_note": "A mission building (blender/tools/build_interior_blends.py, seed blender/tools/interior_plans.py): a PLACEHOLDER shell and fit-out at its real Japanese size -- remodel freely. Keep the frame (origin = plot centre on the ground, street -Y), the floor levels, and move the Empties with what they belong to: DOOR_ (interior door, arrow OUT of the room), EXIT_ (outer door, arrow out of the building), LIFT_ (a lift: shaft floor centre at the low stop; stops / faces), MARK_ (a mission marker: kind weapon / spawn / cover ...). Keep 1.2 m clear both sides of every door. After editing: tools/building_kit/build_buildings.sh. \u96a0\u308c\u5bb6 (large safe house): a 7 x 5.5 \u9593 two-storey house with a built-in two-car garage -- genkan, \u30ea\u30d3\u30f3\u30b0\u968e\u6bb5 LDK with a \u5bfe\u9762 kitchen, a 6-\u7573 \u548c\u5ba4 with \u62bc\u5165\u308c, WC, \u6d17\u9762\u6240 + unit bath; upstairs the master bedroom (balcony), the study with the safe and the gun locker, two more rooms, a WC and the storeroom; a 1.6 m block wall with a car gate and a camera."
   },
   "mesh": 19,
   "name": "Walls_0"
  },
  {
   "extras": {
    "edit_note": "A mission building (blender/tools/build_interior_blends.py, seed blender/tools/interior_plans.py): a PLACEHOLDER shell and fit-out at its real Japanese size -- remodel freely. Keep the frame (origin = plot centre on the ground, street -Y), the floor levels, and move the Empties with what they belong to: DOOR_ (interior door, arrow OUT of the room), EXIT_ (outer door, arrow out of the building), LIFT_ (a lift: shaft floor centre at the low stop; stops / faces), MARK_ (a mission marker: kind weapon / spawn / cover ...). Keep 1.2 m clear both sides of every door. After editing: tools/building_kit/build_buildings.sh. \u96a0\u308c\u5bb6 (large safe house): a 7 x 5.5 \u9593 two-storey house with a built-in two-car garage -- genkan, \u30ea\u30d3\u30f3\u30b0\u968e\u6bb5 LDK with a \u5bfe\u9762 kitchen, a 6-\u7573 \u548c\u5ba4 with \u62bc\u5165\u308c, WC, \u6d17\u9762\u6240 + unit bath; upstairs the master bedroom (balcony), the study with the safe and the gun locker, two more rooms, a WC and the storeroom; a 1.6 m block wall with a car gate and a camera."
   },
   "mesh": 20,
   "name": "Walls_0.45"
  },
  {
   "extras": {
    "edit_note": "A mission building (blender/tools/build_interior_blends.py, seed blender/tools/interior_plans.py): a PLACEHOLDER shell and fit-out at its real Japanese size -- remodel freely. Keep the frame (origin = plot centre on the ground, street -Y), the floor levels, and move the Empties with what they belong to: DOOR_ (interior door, arrow OUT of the room), EXIT_ (outer door, arrow out of the building), LIFT_ (a lift: shaft floor centre at the low stop; stops / faces), MARK_ (a mission marker: kind weapon / spawn / cover ...). Keep 1.2 m clear both sides of every door. After editing: tools/building_kit/build_buildings.sh. \u96a0\u308c\u5bb6 (large safe house): a 7 x 5.5 \u9593 two-storey house with a built-in two-car garage -- genkan, \u30ea\u30d3\u30f3\u30b0\u968e\u6bb5 LDK with a \u5bfe\u9762 kitchen, a 6-\u7573 \u548c\u5ba4 with \u62bc\u5165\u308c, WC, \u6d17\u9762\u6240 + unit bath; upstairs the master bedroom (balcony), the study with the safe and the gun locker, two more rooms, a WC and the storeroom; a 1.6 m block wall with a car gate and a camera."
   },
   "mesh": 21,
   "name": "Walls_3.25"
  },
  {
   "extras": {
    "edit_note": "A mission building (blender/tools/build_interior_blends.py, seed blender/tools/interior_plans.py): a PLACEHOLDER shell and fit-out at its real Japanese size -- remodel freely. Keep the frame (origin = plot centre on the ground, street -Y), the floor levels, and move the Empties with what they belong to: DOOR_ (interior door, arrow OUT of the room), EXIT_ (outer door, arrow out of the building), LIFT_ (a lift: shaft floor centre at the low stop; stops / faces), MARK_ (a mission marker: kind weapon / spawn / cover ...). Keep 1.2 m clear both sides of every door. After editing: tools/building_kit/build_buildings.sh. \u96a0\u308c\u5bb6 (large safe house): a 7 x 5.5 \u9593 two-storey house with a built-in two-car garage -- genkan, \u30ea\u30d3\u30f3\u30b0\u968e\u6bb5 LDK with a \u5bfe\u9762 kitchen, a 6-\u7573 \u548c\u5ba4 with \u62bc\u5165\u308c, WC, \u6d17\u9762\u6240 + unit bath; upstairs the master bedroom (balcony), the study with the safe and the gun locker, two more rooms, a WC and the storeroom; a 1.6 m block wall with a car gate and a camera."
   },
   "mesh": 22,
   "name": "WC_Basin",
   "rotation": [
    0,
    0.7071068286895752,
    0,
    0.7071068286895752
   ],
   "translation": [
    1.399999976158142,
    0.44999998807907104,
    -3
   ]
  },
  {
   "extras": {
    "edit_note": "A mission building (blender/tools/build_interior_blends.py, seed blender/tools/interior_plans.py): a PLACEHOLDER shell and fit-out at its real Japanese size -- remodel freely. Keep the frame (origin = plot centre on the ground, street -Y), the floor levels, and move the Empties with what they belong to: DOOR_ (interior door, arrow OUT of the room), EXIT_ (outer door, arrow out of the building), LIFT_ (a lift: shaft floor centre at the low stop; stops / faces), MARK_ (a mission marker: kind weapon / spawn / cover ...). Keep 1.2 m clear both sides of every door. After editing: tools/building_kit/build_buildings.sh. \u96a0\u308c\u5bb6 (large safe house): a 7 x 5.5 \u9593 two-storey house with a built-in two-car garage -- genkan, \u30ea\u30d3\u30f3\u30b0\u968e\u6bb5 LDK with a \u5bfe\u9762 kitchen, a 6-\u7573 \u548c\u5ba4 with \u62bc\u5165\u308c, WC, \u6d17\u9762\u6240 + unit bath; upstairs the master bedroom (balcony), the study with the safe and the gun locker, two more rooms, a WC and the storeroom; a 1.6 m block wall with a car gate and a camera."
   },
   "mesh": 23,
   "name": "WC_Toilet",
   "rotation": [
    0,
    -1,
    0,
    4.371138828673793e-08
   ],
   "translation": [
    0.25,
    0.44999998807907104,
    -4.619999885559082
   ]
  },
  {
   "extras": {
    "edit_note": "A mission building (blender/tools/build_interior_blends.py, seed blender/tools/interior_plans.py): a PLACEHOLDER shell and fit-out at its real Japanese size -- remodel freely. Keep the frame (origin = plot centre on the ground, street -Y), the floor levels, and move the Empties with what they belong to: DOOR_ (interior door, arrow OUT of the room), EXIT_ (outer door, arrow out of the building), LIFT_ (a lift: shaft floor centre at the low stop; stops / faces), MARK_ (a mission marker: kind weapon / spawn / cover ...). Keep 1.2 m clear both sides of every door. After editing: tools/building_kit/build_buildings.sh. \u96a0\u308c\u5bb6 (large safe house): a 7 x 5.5 \u9593 two-storey house with a built-in two-car garage -- genkan, \u30ea\u30d3\u30f3\u30b0\u968e\u6bb5 LDK with a \u5bfe\u9762 kitchen, a 6-\u7573 \u548c\u5ba4 with \u62bc\u5165\u308c, WC, \u6d17\u9762\u6240 + unit bath; upstairs the master bedroom (balcony), the study with the safe and the gun locker, two more rooms, a WC and the storeroom; a 1.6 m block wall with a car gate and a camera."
   },
   "mesh": 23,
   "name": "WC_Toilet.001",
   "rotation": [
    0,
    -1,
    0,
    4.371138828673793e-08
   ],
   "translation": [
    1.7000000476837158,
    3.25,
    -4.619999885559082
   ]
  }
 ],
 "materials": [
  {
   "doubleSided": true,
   "name": "MI_ConcreteSmooth",
   "pbrMetallicRoughness": {
    "baseColorFactor": [
     0.3104965388774872,
     0.3015982508659363,
     0.2871379554271698,
     1
    ],
    "metallicFactor": 0,
    "roughnessFactor": 0.699999988079071
   }
  },
  {
   "doubleSided": true,
   "name": "MI_PaintWhite",
   "pbrMetallicRoughness": {
    "baseColorFactor": [
     0.949999988079071,
     0.949999988079071,
     0.9300000071525574,
     1
    ],
    "metallicFactor": 0,
    "roughnessFactor": 0.699999988079071
   }
  },
  {
   "doubleSided": true,
   "name": "MI_Plaster",
   "pbrMetallicRoughness": {
    "baseColorFactor": [
     0.8999999761581421,
     0.8899999856948853,
     0.8600000143051147,
     1
    ],
    "metallicFactor": 0,
    "roughnessFactor": 0.699999988079071
   }
  },
  {
   "doubleSided": true,
   "name": "MI_TileBrown",
   "pbrMetallicRoughness": {
    "baseColorFactor": [
     0.5600000023841858,
     0.4099999964237213,
     0.3100000023841858,
     1
    ],
    "metallicFactor": 0,
    "roughnessFactor": 0.800000011920929
   }
  },
  {
   "doubleSided": true,
   "name": "MI_GlassClear",
   "pbrMetallicRoughness": {
    "baseColorFactor": [
     0.550000011920929,
     0.6800000071525574,
     0.7200000286102295,
     1
    ],
    "metallicFactor": 0.20000000298023224,
    "roughnessFactor": 0.05000000074505806
   }
  },
  {
   "doubleSided": true,
   "name": "MI_PaintedMetalDark",
   "pbrMetallicRoughness": {
    "baseColorFactor": [
     0.1599999964237213,
     0.17000000178813934,
     0.18000000715255737,
     1
    ],
    "metallicFactor": 0.4000000059604645,
    "roughnessFactor": 0.699999988079071
   }
  },
  {
   "doubleSided": true,
   "name": "MI_Wood",
   "pbrMetallicRoughness": {
    "baseColorFactor": [
     0.6217582821846008,
     0.4432729184627533,
     0.2785278260707855,
     1
    ],
    "metallicFactor": 0,
    "roughnessFactor": 0.699999988079071
   }
  },
  {
   "doubleSided": true,
   "name": "MI_PlasticWhite",
   "pbrMetallicRoughness": {
    "baseColorFactor": [
     0.9300000071525574,
     0.9300000071525574,
     0.9100000262260437,
     1
    ],
    "metallicFactor": 0,
    "roughnessFactor": 0.30000001192092896
   }
  },
  {
   "doubleSided": true,
   "name": "MI_Steel",
   "pbrMetallicRoughness": {
    "baseColorFactor": [
     0.5726980566978455,
     0.5820889472961426,
     0.5955169796943665,
     1
    ],
    "roughnessFactor": 0.699999988079071
   }
  },
  {
   "doubleSided": true,
   "name": "MI_PlasticDark",
   "pbrMetallicRoughness": {
    "baseColorFactor": [
     0.11999999731779099,
     0.11999999731779099,
     0.12999999523162842,
     1
    ],
    "metallicFactor": 0,
    "roughnessFactor": 0.6000000238418579
   }
  },
  {
   "doubleSided": true,
   "name": "MI_Tatami",
   "pbrMetallicRoughness": {
    "baseColorFactor": [
     0.7200000286102295,
     0.699999988079071,
     0.46000000834465027,
     1
    ],
    "metallicFactor": 0,
    "roughnessFactor": 0.8999999761581421
   }
  },
  {
   "doubleSided": true,
   "name": "MI_Shoji",
   "pbrMetallicRoughness": {
    "baseColorFactor": [
     0.9599999785423279,
     0.9399999976158142,
     0.8799999952316284,
     1
    ],
    "metallicFactor": 0,
    "roughnessFactor": 0.800000011920929
   }
  },
  {
   "doubleSided": true,
   "name": "MI_FabricRed",
   "pbrMetallicRoughness": {
    "baseColorFactor": [
     0.44999998807907104,
     0.07999999821186066,
     0.07000000029802322,
     1
    ],
    "metallicFactor": 0,
    "roughnessFactor": 0.699999988079071
   }
  },
  {
   "doubleSided": true,
   "name": "MI_PaintedMetal",
   "pbrMetallicRoughness": {
    "baseColorFactor": [
     0.8999999761581421,
     0.8999999761581421,
     0.8899999856948853,
     1
    ],
    "metallicFactor": 0.30000001192092896,
    "roughnessFactor": 0.699999988079071
   }
  },
  {
   "doubleSided": true,
   "name": "MI_PoolWater",
   "pbrMetallicRoughness": {
    "baseColorFactor": [
     0.2199999988079071,
     0.6200000047683716,
     0.7799999713897705,
     1
    ],
    "metallicFactor": 0.10000000149011612,
    "roughnessFactor": 0.05000000074505806
   }
  },
  {
   "doubleSided": true,
   "emissiveFactor": [
    1,
    0.9800000190734863,
    0.9399999976158142
   ],
   "extensions": {
    "KHR_materials_emissive_strength": {
     "emissiveStrength": 2
    }
   },
   "name": "MI_Light",
   "pbrMetallicRoughness": {
    "baseColorFactor": [
     1,
     1,
     0.9700000286102295,
     1
    ],
    "metallicFactor": 0,
    "roughnessFactor": 0.699999988079071
   }
  },
  {
   "doubleSided": true,
   "name": "MI_Goods",
   "pbrMetallicRoughness": {
    "baseColorFactor": [
     0.4877031445503235,
     0.42102864384651184,
     0.38213247060775757,
     1
    ],
    "metallicFactor": 0,
    "roughnessFactor": 0.5
   }
  },
  {
   "doubleSided": true,
   "name": "MI_Fabric",
   "pbrMetallicRoughness": {
    "baseColorFactor": [
     0.3585456907749176,
     0.35632404685020447,
     0.3589908480644226,
     1
    ],
    "metallicFactor": 0,
    "roughnessFactor": 0.699999988079071
   }
  },
  {
   "doubleSided": true,
   "name": "MI_RoofSlate",
   "pbrMetallicRoughness": {
    "baseColorFactor": [
     0.20000000298023224,
     0.2199999988079071,
     0.25999999046325684,
     1
    ],
    "metallicFactor": 0,
    "roughnessFactor": 0.699999988079071
   }
  },
  {
   "doubleSided": true,
   "name": "MI_Grass",
   "pbrMetallicRoughness": {
    "baseColorFactor": [
     0.3199999928474426,
     0.5,
     0.23999999463558197,
     1
    ],
    "metallicFactor": 0
   }
  },
  {
   "doubleSided": true,
   "name": "MI_StoneWall",
   "pbrMetallicRoughness": {
    "baseColorFactor": [
     0.5799999833106995,
     0.5699999928474426,
     0.5299999713897705,
     1
    ],
    "metallicFactor": 0,
    "roughnessFactor": 0.8999999761581421
   }
  },
  {
   "doubleSided": true,
   "name": "MI_TileWhite",
   "pbrMetallicRoughness": {
    "baseColorFactor": [
     0.8136419057846069,
     0.8136419057846069,
     0.8136419057846069,
     1
    ],
    "metallicFactor": 0,
    "roughnessFactor": 0.699999988079071
   }
  },
  {
   "doubleSided": true,
   "emissiveFactor": [
    0.0600000032782555,
    0.15000000596046448,
    0.30000001192092896
   ],
   "name": "MI_Sign",
   "pbrMetallicRoughness": {
    "baseColorFactor": [
     0.11999999731779099,
     0.30000001192092896,
     0.550000011920929,
     1
    ],
    "metallicFactor": 0,
    "roughnessFactor": 0.699999988079071
   }
  }
 ],
 "meshes": [
  {
   "name": "SafeHouseLarge_Facade",
   "primitives": [
    {
     "attributes": {
      "POSITION": 0,
      "NORMAL": 1
     },
     "indices": 2,
     "material": 0
    },
    {
     "attributes": {
      "POSITION": 3,
      "NORMAL": 4
     },
     "indices": 5,
     "material": 1
    },
    {
     "attributes": {
      "POSITION": 6,
      "NORMAL": 7
     },
     "indices": 8,
     "material": 2
    },
    {
     "attributes": {
      "POSITION": 9,
      "NORMAL": 10
     },
     "indices": 11,
     "material": 3
    },
    {
     "attributes": {
      "POSITION": 12,
      "NORMAL": 13
     },
     "indices": 11,
     "material": 4
    },
    {
     "attributes": {
      "POSITION": 14,
      "NORMAL": 15
     },
     "indices": 16,
     "material": 5
    }
   ]
  },
  {
   "name": "SafeHouseLarge_Furniture",
   "primitives": [
    {
     "attributes": {
      "POSITION": 17,
      "NORMAL": 18
     },
     "indices": 19,
     "material": 6
    },
    {
     "attributes": {
      "POSITION": 20,
      "NORMAL": 21
     },
     "indices": 22,
     "material": 7
    },
    {
     "attributes": {
      "POSITION": 23,
      "NORMAL": 24
     },
     "indices": 25,
     "material": 8
    },
    {
     "attributes": {
      "POSITION": 26,
      "NORMAL": 27
     },
     "indices": 11,
     "material": 9
    },
    {
     "attributes": {
      "POSITION": 28,
      "NORMAL": 29
     },
     "indices": 11,
     "material": 10
    },
    {
     "attributes": {
      "POSITION": 30,
      "NORMAL": 31
     },
     "indices": 32,
     "material": 11
    },
    {
     "attributes": {
      "POSITION": 33,
      "NORMAL": 34
     },
     "indices": 16,
     "material": 12
    }
   ]
  },
  {
   "name": "SafeHouseLarge_Glazing",
   "primitives": [
    {
     "attributes": {
      "POSITION": 35,
      "NORMAL": 36
     },
     "indices": 37,
     "material": 4
    },
    {
     "attributes": {
      "POSITION": 38,
      "NORMAL": 39
     },
     "indices": 40,
     "material": 13
    },
    {
     "attributes": {
      "POSITION": 41,
      "NORMAL": 42
     },
     "indices": 11,
     "material": 11
    }
   ]
  },
  {
   "name": "LIB_Hotel_Bed",
   "primitives": [
    {
     "attributes": {
      "POSITION": 43,
      "NORMAL": 44
     },
     "indices": 16,
     "material": 6
    },
    {
     "attributes": {
      "POSITION": 45,
      "NORMAL": 46
     },
     "indices": 16,
     "material": 1
    }
   ]
  },
  {
   "name": "LIB_Hotel_Tub",
   "primitives": [
    {
     "attributes": {
      "POSITION": 47,
      "NORMAL": 48
     },
     "indices": 11,
     "material": 7
    },
    {
     "attributes": {
      "POSITION": 49,
      "NORMAL": 50
     },
     "indices": 11,
     "material": 14
    }
   ]
  },
  {
   "name": "LIB_Kitchen_Fridge",
   "primitives": [
    {
     "attributes": {
      "POSITION": 51,
      "NORMAL": 52
     },
     "indices": 22,
     "material": 8
    },
    {
     "attributes": {
      "POSITION": 53,
      "NORMAL": 54
     },
     "indices": 16,
     "material": 5
    },
    {
     "attributes": {
      "POSITION": 55,
      "NORMAL": 56
     },
     "indices": 11,
     "material": 15
    }
   ]
  },
  {
   "name": "LIB_Office_Cabinet",
   "primitives": [
    {
     "attributes": {
      "POSITION": 57,
      "NORMAL": 58
     },
     "indices": 11,
     "material": 13
    },
    {
     "attributes": {
      "POSITION": 59,
      "NORMAL": 60
     },
     "indices": 11,
     "material": 4
    },
    {
     "attributes": {
      "POSITION": 61,
      "NORMAL": 62
     },
     "indices": 11,
     "material": 16
    }
   ]
  },
  {
   "name": "LIB_Office_Chair",
   "primitives": [
    {
     "attributes": {
      "POSITION": 63,
      "NORMAL": 64
     },
     "indices": 11,
     "material": 8
    },
    {
     "attributes": {
      "POSITION": 65,
      "NORMAL": 66
     },
     "indices": 11,
     "material": 9
    },
    {
     "attributes": {
      "POSITION": 67,
      "NORMAL": 68
     },
     "indices": 16,
     "material": 17
    }
   ]
  },
  {
   "name": "LIB_Office_Desk",
   "primitives": [
    {
     "attributes": {
      "POSITION": 69,
      "NORMAL": 70
     },
     "indices": 11,
     "material": 6
    },
    {
     "attributes": {
      "POSITION": 71,
      "NORMAL": 72
     },
     "indices": 16,
     "material": 13
    },
    {
     "attributes": {
      "POSITION": 73,
      "NORMAL": 74
     },
     "indices": 11,
     "material": 9
    }
   ]
  },
  {
   "name": "LIB_Office_Safe",
   "primitives": [
    {
     "attributes": {
      "POSITION": 75,
      "NORMAL": 76
     },
     "indices": 11,
     "material": 5
    },
    {
     "attributes": {
      "POSITION": 77,
      "NORMAL": 78
     },
     "indices": 11,
     "material": 8
    }
   ]
  },
  {
   "name": "LIB_Office_Sofa",
   "primitives": [
    {
     "attributes": {
      "POSITION": 79,
      "NORMAL": 80
     },
     "indices": 81,
     "material": 17
    }
   ]
  },
  {
   "name": "LIB_Police_GunLocker",
   "primitives": [
    {
     "attributes": {
      "POSITION": 82,
      "NORMAL": 83
     },
     "indices": 11,
     "material": 5
    },
    {
     "attributes": {
      "POSITION": 84,
      "NORMAL": 85
     },
     "indices": 16,
     "material": 13
    },
    {
     "attributes": {
      "POSITION": 86,
      "NORMAL": 87
     },
     "indices": 11,
     "material": 4
    },
    {
     "attributes": {
      "POSITION": 88,
      "NORMAL": 89
     },
     "indices": 90,
     "material": 9
    },
    {
     "attributes": {
      "POSITION": 91,
      "NORMAL": 92
     },
     "indices": 11,
     "material": 8
    }
   ]
  },
  {
   "extras": {
    "placeholder_note": "REMOVED 2026-09-28: base mesh was from elbolilloduro BurgerPiz pack (base mesh removed); this is a same-size PLACEHOLDER BOX, needs a modeller (see kits/library/placeholders.json)"
   },
   "name": "LIB_Rest_Chair",
   "primitives": [
    {
     "attributes": {
      "POSITION": 93,
      "NORMAL": 94
     },
     "indices": 95,
     "material": 6
    }
   ]
  },
  {
   "extras": {
    "placeholder_note": "REMOVED 2026-09-28: base mesh was from elbolilloduro BurgerPiz pack (base mesh removed); this is a same-size PLACEHOLDER BOX, needs a modeller (see kits/library/placeholders.json)"
   },
   "name": "LIB_Rest_Table",
   "primitives": [
    {
     "attributes": {
      "POSITION": 96,
      "NORMAL": 97
     },
     "indices": 95,
     "material": 6
    }
   ]
  },
  {
   "name": "SafeHouseLarge_Roof",
   "primitives": [
    {
     "attributes": {
      "POSITION": 98,
      "NORMAL": 99
     },
     "indices": 100,
     "material": 18
    },
    {
     "attributes": {
      "POSITION": 101,
      "NORMAL": 102
     },
     "indices": 103,
     "material": 1
    }
   ]
  },
  {
   "extras": {
    "placeholder_note": "REMOVED 2026-09-28: base mesh was from elbolilloduro 6TWELVE pack (base mesh removed); this is a same-size PLACEHOLDER BOX, needs a modeller (see kits/library/placeholders.json)"
   },
   "name": "LIB_Shop_StockShelf",
   "primitives": [
    {
     "attributes": {
      "POSITION": 104,
      "NORMAL": 105
     },
     "indices": 95,
     "material": 5
    }
   ]
  },
  {
   "name": "SafeHouseLarge_Site",
   "primitives": [
    {
     "attributes": {
      "POSITION": 106,
      "NORMAL": 107
     },
     "indices": 108,
     "material": 0
    },
    {
     "attributes": {
      "POSITION": 109,
      "NORMAL": 110
     },
     "indices": 16,
     "material": 19
    },
    {
     "attributes": {
      "POSITION": 111,
      "NORMAL": 112
     },
     "indices": 113,
     "material": 20
    },
    {
     "attributes": {
      "POSITION": 114,
      "NORMAL": 115
     },
     "indices": 16,
     "material": 9
    },
    {
     "attributes": {
      "POSITION": 116,
      "NORMAL": 117
     },
     "indices": 11,
     "material": 3
    }
   ]
  },
  {
   "name": "SafeHouseLarge_Stairs",
   "primitives": [
    {
     "attributes": {
      "POSITION": 118,
      "NORMAL": 119
     },
     "indices": 120,
     "material": 0
    },
    {
     "attributes": {
      "POSITION": 121,
      "NORMAL": 122
     },
     "indices": 123,
     "material": 5
    },
    {
     "attributes": {
      "POSITION": 124,
      "NORMAL": 125
     },
     "indices": 16,
     "material": 2
    }
   ]
  },
  {
   "name": "SafeHouseLarge_Structure",
   "primitives": [
    {
     "attributes": {
      "POSITION": 126,
      "NORMAL": 127
     },
     "indices": 128,
     "material": 3
    },
    {
     "attributes": {
      "POSITION": 129,
      "NORMAL": 130
     },
     "indices": 131,
     "material": 6
    },
    {
     "attributes": {
      "POSITION": 132,
      "NORMAL": 133
     },
     "indices": 134,
     "material": 0
    }
   ]
  },
  {
   "name": "SafeHouseLarge_Walls_0",
   "primitives": [
    {
     "attributes": {
      "POSITION": 135,
      "NORMAL": 136
     },
     "indices": 137,
     "material": 2
    }
   ]
  },
  {
   "name": "SafeHouseLarge_Walls_0.45",
   "primitives": [
    {
     "attributes": {
      "POSITION": 138,
      "NORMAL": 139
     },
     "indices": 140,
     "material": 2
    }
   ]
  },
  {
   "name": "SafeHouseLarge_Walls_3.25",
   "primitives": [
    {
     "attributes": {
      "POSITION": 141,
      "NORMAL": 142
     },
     "indices": 143,
     "material": 2
    }
   ]
  },
  {
   "name": "LIB_WC_Basin",
   "primitives": [
    {
     "attributes": {
      "POSITION": 144,
      "NORMAL": 145
     },
     "indices": 11,
     "material": 7
    },
    {
     "attributes": {
      "POSITION": 146,
      "NORMAL": 147
     },
     "indices": 11,
     "material": 21
    },
    {
     "attributes": {
      "POSITION": 148,
      "NORMAL": 149
     },
     "indices": 150,
     "material": 8
    }
   ]
  },
  {
   "name": "LIB_WC_Toilet",
   "primitives": [
    {
     "attributes": {
      "POSITION": 151,
      "NORMAL": 152
     },
     "indices": 153,
     "material": 7
    },
    {
     "attributes": {
      "POSITION": 154,
      "NORMAL": 155
     },
     "indices": 11,
     "material": 9
    },
    {
     "attributes": {
      "POSITION": 156,
      "NORMAL": 157
     },
     "indices": 11,
     "material": 22
    },
    {
     "attributes": {
      "POSITION": 158,
      "NORMAL": 159
     },
     "indices": 11,
     "material": 12
    },
    {
     "attributes": {
      "POSITION": 160,
      "NORMAL": 161
     },
     "indices": 11,
     "material": 15
    },
    {
     "attributes": {
      "POSITION": 162,
      "NORMAL": 163
     },
     "indices": 11,
     "material": 8
    }
   ]
  }
 ],
 "accessors": [
  {
   "bufferView": 0,
   "componentType": 5126,
   "count": 96,
   "max": [
    6.369999885559082,
    3.299999952316284,
    6
   ],
   "min": [
    -6.369999885559082,
    0,
    -5.199999809265137
   ],
   "type": "VEC3"
  },
  {
   "bufferView": 1,
   "componentType": 5126,
   "count": 96,
   "type": "VEC3"
  },
  {
   "bufferView": 2,
   "componentType": 5123,
   "count": 180,
   "type": "SCALAR"
  },
  {
   "bufferView": 3,
   "componentType": 5126,
   "count": 854,
   "max": [
    6.369999885559082,
    5.949999809265137,
    4.800000190734863
   ],
   "min": [
    -6.369999885559082,
    0.15000000596046448,
    -5.199999809265137
   ],
   "type": "VEC3"
  },
  {
   "bufferView": 4,
   "componentType": 5126,
   "count": 854,
   "type": "VEC3"
  },
  {
   "bufferView": 5,
   "componentType": 5123,
   "count": 1614,
   "type": "SCALAR"
  },
  {
   "bufferView": 6,
   "componentType": 5126,
   "count": 827,
   "max": [
    6.369999885559082,
    5.949999809265137,
    4.699999809265137
   ],
   "min": [
    -6.369999885559082,
    0.15000000596046448,
    -5.099999904632568
   ],
   "type": "VEC3"
  },
  {
   "bufferView": 7,
   "componentType": 5126,
   "count": 827,
   "type": "VEC3"
  },
  {
   "bufferView": 8,
   "componentType": 5123,
   "count": 1554,
   "type": "SCALAR"
  },
  {
   "bufferView": 9,
   "componentType": 5126,
   "count": 24,
   "max": [
    5.96999979019165,
    0.15000000596046448,
    4.820000171661377
   ],
   "min": [
    1.2000000476837158,
    0,
    4.800000190734863
   ],
   "type": "VEC3"
  },
  {
   "bufferView": 10,
   "componentType": 5126,
   "count": 24,
   "type": "VEC3"
  },
  {
   "bufferView": 11,
   "componentType": 5123,
   "count": 36,
   "type": "SCALAR"
  },
  {
   "bufferView": 12,
   "componentType": 5126,
   "count": 24,
   "max": [
    -0.800000011920929,
    4.400000095367432,
    6
   ],
   "min": [
    -6.199999809265137,
    3.299999952316284,
    5.900000095367432
   ],
   "type": "VEC3"
  },
  {
   "bufferView": 13,
   "componentType": 5126,
   "count": 24,
   "type": "VEC3"
  },
  {
   "bufferView": 14,
   "componentType": 5126,
   "count": 48,
   "max": [
    6.170000076293945,
    2.5999999046325684,
    5.699999809265137
   ],
   "min": [
    -1.2999999523162842,
    2.25,
    4.800000190734863
   ],
   "type": "VEC3"
  },
  {
   "bufferView": 15,
   "componentType": 5126,
   "count": 48,
   "type": "VEC3"
  },
  {
   "bufferView": 16,
   "componentType": 5123,
   "count": 72,
   "type": "SCALAR"
  },
  {
   "bufferView": 17,
   "componentType": 5126,
   "count": 216,
   "max": [
    -0.8180000185966492,
    1.100000023841858,
    4.449999809265137
   ],
   "min": [
    -2.6619999408721924,
    0.15000000596046448,
    -5
   ],
   "type": "VEC3"
  },
  {
   "bufferView": 18,
   "componentType": 5126,
   "count": 216,
   "type": "VEC3"
  },
  {
   "bufferView": 19,
   "componentType": 5123,
   "count": 324,
   "type": "SCALAR"
  },
  {
   "bufferView": 20,
   "componentType": 5126,
   "count": 72,
   "max": [
    4,
    1.2999999523162842,
    4.599999904632568
   ],
   "min": [
    -6.099999904632568,
    0.44999998807907104,
    -1.600000023841858
   ],
   "type": "VEC3"
  },
  {
   "bufferView": 21,
   "componentType": 5126,
   "count": 72,
   "type": "VEC3"
  },
  {
   "bufferView": 22,
   "componentType": 5123,
   "count": 108,
   "type": "SCALAR"
  },
  {
   "bufferView": 23,
   "componentType": 5126,
   "count": 40,
   "max": [
    -4.099999904632568,
    1.3300000429153442,
    4.599999904632568
   ],
   "min": [
    -6.099999904632568,
    1.2999999523162842,
    2.200000047683716
   ],
   "type": "VEC3"
  },
  {
   "bufferView": 24,
   "componentType": 5126,
   "count": 40,
   "type": "VEC3"
  },
  {
   "bufferView": 25,
   "componentType": 5123,
   "count": 60,
   "type": "SCALAR"
  },
  {
   "bufferView": 26,
   "componentType": 5126,
   "count": 24,
   "max": [
    -2.9000000953674316,
    1,
    1.2999999523162842
   ],
   "min": [
    -3.299999952316284,
    0.44999998807907104,
    0.20000000298023224
   ],
   "type": "VEC3"
  },
  {
   "bufferView": 27,
   "componentType": 5126,
   "count": 24,
   "type": "VEC3"
  },
  {
   "bufferView": 28,
   "componentType": 5126,
   "count": 24,
   "max": [
    -0.46000000834465027,
    0.4620000123977661,
    -1.3600000143051147
   ],
   "min": [
    -3.559999942779541,
    0.44999998807907104,
    -5
   ],
   "type": "VEC3"
  },
  {
   "bufferView": 29,
   "componentType": 5126,
   "count": 24,
   "type": "VEC3"
  },
  {
   "bufferView": 30,
   "componentType": 5126,
   "count": 24,
   "max": [
    -1.7999999523162842,
    2.75,
    -4.099999904632568
   ],
   "min": [
    -3.559999942779541,
    0.44999998807907104,
    -5
   ],
   "type": "VEC3"
  },
  {
   "bufferView": 31,
   "componentType": 5126,
   "count": 24,
   "type": "VEC3"
  },
  {
   "bufferView": 32,
   "componentType": 5123,
   "count": 36,
   "type": "SCALAR"
  },
  {
   "bufferView": 33,
   "componentType": 5126,
   "count": 48,
   "max": [
    -1.7300000190734863,
    0.5220000147819519,
    -1.5800000429153442
   ],
   "min": [
    -2.2699999809265137,
    0.4620000123977661,
    -3.619999885559082
   ],
   "type": "VEC3"
  },
  {
   "bufferView": 34,
   "componentType": 5126,
   "count": 48,
   "type": "VEC3"
  },
  {
   "bufferView": 35,
   "componentType": 5126,
   "count": 264,
   "max": [
    6.2820000648498535,
    5.349999904632568,
    4.711999893188477
   ],
   "min": [
    -6.2820000648498535,
    0.75,
    -5.111999988555908
   ],
   "type": "VEC3"
  },
  {
   "bufferView": 36,
   "componentType": 5126,
   "count": 264,
   "type": "VEC3"
  },
  {
   "bufferView": 37,
   "componentType": 5123,
   "count": 396,
   "type": "SCALAR"
  },
  {
   "bufferView": 38,
   "componentType": 5126,
   "count": 1040,
   "max": [
    6.380000114440918,
    5.400000095367432,
    4.809999942779541
   ],
   "min": [
    -6.380000114440918,
    0.10000000149011612,
    -5.210000038146973
   ],
   "type": "VEC3"
  },
  {
   "bufferView": 39,
   "componentType": 5126,
   "count": 1040,
   "type": "VEC3"
  },
  {
   "bufferView": 40,
   "componentType": 5123,
   "count": 1872,
   "type": "SCALAR"
  },
  {
   "bufferView": 41,
   "componentType": 5126,
   "count": 24,
   "max": [
    -6.257999897003174,
    2.450000047683716,
    -2.5999999046325684
   ],
   "min": [
    -6.2820000648498535,
    1.75,
    -3.4000000953674316
   ],
   "type": "VEC3"
  },
  {
   "bufferView": 42,
   "componentType": 5126,
   "count": 24,
   "type": "VEC3"
  },
  {
   "bufferView": 43,
   "componentType": 5126,
   "count": 48,
   "max": [
    0.800000011920929,
    1.100000023841858,
    1
   ],
   "min": [
    -0.800000011920929,
    0,
    -1.0499999523162842
   ],
   "type": "VEC3"
  },
  {
   "bufferView": 44,
   "componentType": 5126,
   "count": 48,
   "type": "VEC3"
  },
  {
   "bufferView": 45,
   "componentType": 5126,
   "count": 48,
   "max": [
    0.7799999713897705,
    0.6800000071525574,
    0.9800000190734863
   ],
   "min": [
    -0.7799999713897705,
    0.3499999940395355,
    -0.9800000190734863
   ],
   "type": "VEC3"
  },
  {
   "bufferView": 46,
   "componentType": 5126,
   "count": 48,
   "type": "VEC3"
  },
  {
   "bufferView": 47,
   "componentType": 5126,
   "count": 24,
   "max": [
    0.800000011920929,
    0.550000011920929,
    0.375
   ],
   "min": [
    -0.800000011920929,
    0,
    -0.375
   ],
   "type": "VEC3"
  },
  {
   "bufferView": 48,
   "componentType": 5126,
   "count": 24,
   "type": "VEC3"
  },
  {
   "bufferView": 49,
   "componentType": 5126,
   "count": 24,
   "max": [
    0.699999988079071,
    0.5600000023841858,
    0.30000001192092896
   ],
   "min": [
    -0.699999988079071,
    0.20000000298023224,
    -0.30000001192092896
   ],
   "type": "VEC3"
  },
  {
   "bufferView": 50,
   "componentType": 5126,
   "count": 24,
   "type": "VEC3"
  },
  {
   "bufferView": 51,
   "componentType": 5126,
   "count": 72,
   "max": [
    0.6000000238418579,
    1.899999976158142,
    0.4099999964237213
   ],
   "min": [
    -0.6000000238418579,
    0,
    -0.4000000059604645
   ],
   "type": "VEC3"
  },
  {
   "bufferView": 52,
   "componentType": 5126,
   "count": 72,
   "type": "VEC3"
  },
  {
   "bufferView": 53,
   "componentType": 5126,
   "count": 48,
   "max": [
    0.5400000214576721,
    1.5,
    0.44999998807907104
   ],
   "min": [
    -0.5400000214576721,
    0.8999999761581421,
    0.4099999964237213
   ],
   "type": "VEC3"
  },
  {
   "bufferView": 54,
   "componentType": 5126,
   "count": 48,
   "type": "VEC3"
  },
  {
   "bufferView": 55,
   "componentType": 5126,
   "count": 24,
   "max": [
    0.20000000298023224,
    1.7999999523162842,
    0.41100001335144043
   ],
   "min": [
    -0.20000000298023224,
    1.7000000476837158,
    0.4099999964237213
   ],
   "type": "VEC3"
  },
  {
   "bufferView": 56,
   "componentType": 5126,
   "count": 24,
   "type": "VEC3"
  },
  {
   "bufferView": 57,
   "componentType": 5126,
   "count": 24,
   "max": [
    0.44999998807907104,
    1.7999999523162842,
    0.22499999403953552
   ],
   "min": [
    -0.44999998807907104,
    0,
    -0.22499999403953552
   ],
   "type": "VEC3"
  },
  {
   "bufferView": 58,
   "componentType": 5126,
   "count": 24,
   "type": "VEC3"
  },
  {
   "bufferView": 59,
   "componentType": 5126,
   "count": 24,
   "max": [
    0.41999998688697815,
    1.75,
    0.23499999940395355
   ],
   "min": [
    -0.41999998688697815,
    0.949999988079071,
    0.22499999403953552
   ],
   "type": "VEC3"
  },
  {
   "bufferView": 60,
   "componentType": 5126,
   "count": 24,
   "type": "VEC3"
  },
  {
   "bufferView": 61,
   "componentType": 5126,
   "count": 24,
   "max": [
    0.4000000059604645,
    1.7000000476837158,
    0.20000000298023224
   ],
   "min": [
    -0.4000000059604645,
    1,
    -0.15000000596046448
   ],
   "type": "VEC3"
  },
  {
   "bufferView": 62,
   "componentType": 5126,
   "count": 24,
   "type": "VEC3"
  },
  {
   "bufferView": 63,
   "componentType": 5126,
   "count": 24,
   "max": [
    0.029999999329447746,
    0.41999998688697815,
    0.029999999329447746
   ],
   "min": [
    -0.029999999329447746,
    0,
    -0.029999999329447746
   ],
   "type": "VEC3"
  },
  {
   "bufferView": 64,
   "componentType": 5126,
   "count": 24,
   "type": "VEC3"
  },
  {
   "bufferView": 65,
   "componentType": 5126,
   "count": 24,
   "max": [
    0.30000001192092896,
    0.05000000074505806,
    0.30000001192092896
   ],
   "min": [
    -0.30000001192092896,
    0,
    -0.30000001192092896
   ],
   "type": "VEC3"
  },
  {
   "bufferView": 66,
   "componentType": 5126,
   "count": 24,
   "type": "VEC3"
  },
  {
   "bufferView": 67,
   "componentType": 5126,
   "count": 48,
   "max": [
    0.25,
    1,
    0.25
   ],
   "min": [
    -0.25,
    0.41999998688697815,
    -0.2800000011920929
   ],
   "type": "VEC3"
  },
  {
   "bufferView": 68,
   "componentType": 5126,
   "count": 48,
   "type": "VEC3"
  },
  {
   "bufferView": 69,
   "componentType": 5126,
   "count": 24,
   "max": [
    0.6000000238418579,
    0.7200000286102295,
    0.3499999940395355
   ],
   "min": [
    -0.6000000238418579,
    0.6800000071525574,
    -0.3499999940395355
   ],
   "type": "VEC3"
  },
  {
   "bufferView": 70,
   "componentType": 5126,
   "count": 24,
   "type": "VEC3"
  },
  {
   "bufferView": 71,
   "componentType": 5126,
   "count": 48,
   "max": [
    0.6000000238418579,
    0.6800000071525574,
    0.3199999928474426
   ],
   "min": [
    -0.6000000238418579,
    0,
    -0.3199999928474426
   ],
   "type": "VEC3"
  },
  {
   "bufferView": 72,
   "componentType": 5126,
   "count": 48,
   "type": "VEC3"
  },
  {
   "bufferView": 73,
   "componentType": 5126,
   "count": 24,
   "max": [
    0.25,
    1.0499999523162842,
    -0.10000000149011612
   ],
   "min": [
    -0.25,
    0.7200000286102295,
    -0.12999999523162842
   ],
   "type": "VEC3"
  },
  {
   "bufferView": 74,
   "componentType": 5126,
   "count": 24,
   "type": "VEC3"
  },
  {
   "bufferView": 75,
   "componentType": 5126,
   "count": 24,
   "max": [
    0.30000001192092896,
    1,
    0.30000001192092896
   ],
   "min": [
    -0.30000001192092896,
    0,
    -0.30000001192092896
   ],
   "type": "VEC3"
  },
  {
   "bufferView": 76,
   "componentType": 5126,
   "count": 24,
   "type": "VEC3"
  },
  {
   "bufferView": 77,
   "componentType": 5126,
   "count": 24,
   "max": [
    0.05000000074505806,
    0.6499999761581421,
    0.3100000023841858
   ],
   "min": [
    -0.05000000074505806,
    0.550000011920929,
    0.30000001192092896
   ],
   "type": "VEC3"
  },
  {
   "bufferView": 78,
   "componentType": 5126,
   "count": 24,
   "type": "VEC3"
  },
  {
   "bufferView": 79,
   "componentType": 5126,
   "count": 82,
   "max": [
    0.8999999761581421,
    0.800000011920929,
    0.41999998688697815
   ],
   "min": [
    -0.8999999761581421,
    0,
    -0.41999998688697815
   ],
   "type": "VEC3"
  },
  {
   "bufferView": 80,
   "componentType": 5126,
   "count": 82,
   "type": "VEC3"
  },
  {
   "bufferView": 81,
   "componentType": 5123,
   "count": 144,
   "type": "SCALAR"
  },
  {
   "bufferView": 82,
   "componentType": 5126,
   "count": 24,
   "max": [
    0.5,
    1.7999999523162842,
    0.25
   ],
   "min": [
    -0.5,
    0,
    -0.25
   ],
   "type": "VEC3"
  },
  {
   "bufferView": 83,
   "componentType": 5126,
   "count": 24,
   "type": "VEC3"
  },
  {
   "bufferView": 84,
   "componentType": 5126,
   "count": 48,
   "max": [
    0.47999998927116394,
    1.7000000476837158,
    0.25999999046325684
   ],
   "min": [
    -0.47999998927116394,
    0.10000000149011612,
    0.25
   ],
   "type": "VEC3"
  },
  {
   "bufferView": 85,
   "componentType": 5126,
   "count": 48,
   "type": "VEC3"
  },
  {
   "bufferView": 86,
   "componentType": 5126,
   "count": 24,
   "max": [
    0.4000000059604645,
    1.4500000476837158,
    0.27000001072883606
   ],
   "min": [
    -0.4000000059604645,
    1.2000000476837158,
    0.25999999046325684
   ],
   "type": "VEC3"
  },
  {
   "bufferView": 87,
   "componentType": 5126,
   "count": 24,
   "type": "VEC3"
  },
  {
   "bufferView": 88,
   "componentType": 5126,
   "count": 144,
   "max": [
    0.3700000047683716,
    1.399999976158142,
    0.20000000298023224
   ],
   "min": [
    -0.36000001430511475,
    1.25,
    0.10000000149011612
   ],
   "type": "VEC3"
  },
  {
   "bufferView": 89,
   "componentType": 5126,
   "count": 144,
   "type": "VEC3"
  },
  {
   "bufferView": 90,
   "componentType": 5123,
   "count": 216,
   "type": "SCALAR"
  },
  {
   "bufferView": 91,
   "componentType": 5126,
   "count": 24,
   "max": [
    0.10000000149011612,
    1,
    0.30000001192092896
   ],
   "min": [
    0.05999999865889549,
    0.8500000238418579,
    0.25999999046325684
   ],
   "type": "VEC3"
  },
  {
   "bufferView": 92,
   "componentType": 5126,
   "count": 24,
   "type": "VEC3"
  },
  {
   "bufferView": 93,
   "componentType": 5126,
   "count": 24,
   "max": [
    0.2548282742500305,
    0.8499999642372131,
    0.2184925079345703
   ],
   "min": [
    -0.25482824444770813,
    0,
    -0.21849441528320312
   ],
   "type": "VEC3"
  },
  {
   "bufferView": 94,
   "componentType": 5126,
   "count": 24,
   "type": "VEC3"
  },
  {
   "bufferView": 95,
   "componentType": 5123,
   "count": 36,
   "type": "SCALAR"
  },
  {
   "bufferView": 96,
   "componentType": 5126,
   "count": 24,
   "max": [
    0.7024393081665039,
    0.7199999690055847,
    0.40633583068847656
   ],
   "min": [
    -0.7024393081665039,
    0,
    -0.40633392333984375
   ],
   "type": "VEC3"
  },
  {
   "bufferView": 97,
   "componentType": 5126,
   "count": 24,
   "type": "VEC3"
  },
  {
   "bufferView": 98,
   "componentType": 5126,
   "count": 44,
   "max": [
    6.96999979019165,
    8.050000190734863,
    5.400000095367432
   ],
   "min": [
    -6.96999979019165,
    5.949999809265137,
    -5.800000190734863
   ],
   "type": "VEC3"
  },
  {
   "bufferView": 99,
   "componentType": 5126,
   "count": 44,
   "type": "VEC3"
  },
  {
   "bufferView": 100,
   "componentType": 5123,
   "count": 66,
   "type": "SCALAR"
  },
  {
   "bufferView": 101,
   "componentType": 5126,
   "count": 6,
   "max": [
    6.369999885559082,
    7.64642858505249,
    4.800000190734863
   ],
   "min": [
    -6.369999885559082,
    5.949999809265137,
    -5.199999809265137
   ],
   "type": "VEC3"
  },
  {
   "bufferView": 102,
   "componentType": 5126,
   "count": 6,
   "type": "VEC3"
  },
  {
   "bufferView": 103,
   "componentType": 5123,
   "count": 6,
   "type": "SCALAR"
  },
  {
   "bufferView": 104,
   "componentType": 5126,
   "count": 24,
   "max": [
    1.5511960983276367,
    1.8000000715255737,
    0.3707904815673828
   ],
   "min": [
    -1.5511951446533203,
    0,
    -0.3707904815673828
   ],
   "type": "VEC3"
  },
  {
   "bufferView": 105,
   "componentType": 5126,
   "count": 24,
   "type": "VEC3"
  },
  {
   "bufferView": 106,
   "componentType": 5126,
   "count": 168,
   "max": [
    8.630000114440918,
    1.6799999475479126,
    10.130000114440918
   ],
   "min": [
    -8.630000114440918,
    -0.029999999329447746,
    -7.630000114440918
   ],
   "type": "VEC3"
  },
  {
   "bufferView": 107,
   "componentType": 5126,
   "count": 168,
   "type": "VEC3"
  },
  {
   "bufferView": 108,
   "componentType": 5123,
   "count": 252,
   "type": "SCALAR"
  },
  {
   "bufferView": 109,
   "componentType": 5126,
   "count": 48,
   "max": [
    -3,
    0.019999999552965164,
    9.800000190734863
   ],
   "min": [
    -8.300000190734863,
    0,
    -7.300000190734863
   ],
   "type": "VEC3"
  },
  {
   "bufferView": 110,
   "componentType": 5126,
   "count": 48,
   "type": "VEC3"
  },
  {
   "bufferView": 111,
   "componentType": 5126,
   "count": 192,
   "max": [
    8.600000381469727,
    1.899999976158142,
    10.199999809265137
   ],
   "min": [
    -8.600000381469727,
    0,
    -7.599999904632568
   ],
   "type": "VEC3"
  },
  {
   "bufferView": 112,
   "componentType": 5126,
   "count": 192,
   "type": "VEC3"
  },
  {
   "bufferView": 113,
   "componentType": 5123,
   "count": 288,
   "type": "SCALAR"
  },
  {
   "bufferView": 114,
   "componentType": 5126,
   "count": 48,
   "max": [
    6.199999809265137,
    2.5,
    9.899999618530273
   ],
   "min": [
    -1.2000000476837158,
    1.4500000476837158,
    9.600000381469727
   ],
   "type": "VEC3"
  },
  {
   "bufferView": 115,
   "componentType": 5126,
   "count": 48,
   "type": "VEC3"
  },
  {
   "bufferView": 116,
   "componentType": 5126,
   "count": 24,
   "max": [
    0.3499999940395355,
    0.15000000596046448,
    5.400000095367432
   ],
   "min": [
    -1.0499999523162842,
    0,
    4.800000190734863
   ],
   "type": "VEC3"
  },
  {
   "bufferView": 117,
   "componentType": 5126,
   "count": 24,
   "type": "VEC3"
  },
  {
   "bufferView": 118,
   "componentType": 5126,
   "count": 402,
   "max": [
    -3.6700000762939453,
    3.25,
    -1.2000000476837158
   ],
   "min": [
    -6.170000076293945,
    0.44999998807907104,
    -5
   ],
   "type": "VEC3"
  },
  {
   "bufferView": 119,
   "componentType": 5126,
   "count": 402,
   "type": "VEC3"
  },
  {
   "bufferView": 120,
   "componentType": 5123,
   "count": 612,
   "type": "SCALAR"
  },
  {
   "bufferView": 121,
   "componentType": 5126,
   "count": 384,
   "max": [
    -3.6700000762939453,
    3.255000114440918,
    -1.2000000476837158
   ],
   "min": [
    -6.170000076293945,
    0.6050000190734863,
    -3.359999895095825
   ],
   "type": "VEC3"
  },
  {
   "bufferView": 122,
   "componentType": 5126,
   "count": 384,
   "type": "VEC3"
  },
  {
   "bufferView": 123,
   "componentType": 5123,
   "count": 576,
   "type": "SCALAR"
  },
  {
   "bufferView": 124,
   "componentType": 5126,
   "count": 48,
   "max": [
    -4.860000133514404,
    4.349999904632568,
    -1.1399999856948853
   ],
   "min": [
    -6.170000076293945,
    0.44999998807907104,
    -3.359999895095825
   ],
   "type": "VEC3"
  },
  {
   "bufferView": 125,
   "componentType": 5126,
   "count": 48,
   "type": "VEC3"
  },
  {
   "bufferView": 126,
   "componentType": 5126,
   "count": 68,
   "max": [
    0.9399999976158142,
    0.22499999403953552,
    4.599999904632568
   ],
   "min": [
    -1.7999999523162842,
    -0.20000000298023224,
    1.399999976158142
   ],
   "type": "VEC3"
  },
  {
   "bufferView": 127,
   "componentType": 5126,
   "count": 68,
   "type": "VEC3"
  },
  {
   "bufferView": 128,
   "componentType": 5123,
   "count": 108,
   "type": "SCALAR"
  },
  {
   "bufferView": 129,
   "componentType": 5126,
   "count": 200,
   "max": [
    6.170000076293945,
    3.25,
    4.599999904632568
   ],
   "min": [
    -6.170000076293945,
    0,
    -5
   ],
   "type": "VEC3"
  },
  {
   "bufferView": 130,
   "componentType": 5126,
   "count": 200,
   "type": "VEC3"
  },
  {
   "bufferView": 131,
   "componentType": 5123,
   "count": 354,
   "type": "SCALAR"
  },
  {
   "bufferView": 132,
   "componentType": 5126,
   "count": 24,
   "max": [
    6.170000076293945,
    0,
    4.599999904632568
   ],
   "min": [
    1,
    -0.20000000298023224,
    -1
   ],
   "type": "VEC3"
  },
  {
   "bufferView": 133,
   "componentType": 5126,
   "count": 24,
   "type": "VEC3"
  },
  {
   "bufferView": 134,
   "componentType": 5123,
   "count": 36,
   "type": "SCALAR"
  },
  {
   "bufferView": 135,
   "componentType": 5126,
   "count": 88,
   "max": [
    6.170000076293945,
    3.049999952316284,
    4.599999904632568
   ],
   "min": [
    0.9399999976158142,
    0,
    -1.059999942779541
   ],
   "type": "VEC3"
  },
  {
   "bufferView": 136,
   "componentType": 5126,
   "count": 88,
   "type": "VEC3"
  },
  {
   "bufferView": 137,
   "componentType": 5123,
   "count": 144,
   "type": "SCALAR"
  },
  {
   "bufferView": 138,
   "componentType": 5126,
   "count": 408,
   "max": [
    3.4600000381469727,
    3.049999952316284,
    4.599999904632568
   ],
   "min": [
    -3.680000066757202,
    0.44999998807907104,
    -5
   ],
   "type": "VEC3"
  },
  {
   "bufferView": 139,
   "componentType": 5126,
   "count": 408,
   "type": "VEC3"
  },
  {
   "bufferView": 140,
   "componentType": 5123,
   "count": 684,
   "type": "SCALAR"
  },
  {
   "bufferView": 141,
   "componentType": 5126,
   "count": 460,
   "max": [
    6.170000076293945,
    5.75,
    4.599999904632568
   ],
   "min": [
    -6.170000076293945,
    3.25,
    -5
   ],
   "type": "VEC3"
  },
  {
   "bufferView": 142,
   "componentType": 5126,
   "count": 460,
   "type": "VEC3"
  },
  {
   "bufferView": 143,
   "componentType": 5123,
   "count": 786,
   "type": "SCALAR"
  },
  {
   "bufferView": 144,
   "componentType": 5126,
   "count": 24,
   "max": [
    0.32499998807907104,
    0.8399999737739563,
    0.28299999237060547
   ],
   "min": [
    -0.32499998807907104,
    0.7200000286102295,
    -0.28299999237060547
   ],
   "type": "VEC3"
  },
  {
   "bufferView": 145,
   "componentType": 5126,
   "count": 24,
   "type": "VEC3"
  },
  {
   "bufferView": 146,
   "componentType": 5126,
   "count": 24,
   "max": [
    0.2750000059604645,
    0.8450000286102295,
    0.2329999953508377
   ],
   "min": [
    -0.2750000059604645,
    0.8420000076293945,
    -0.16300000250339508
   ],
   "type": "VEC3"
  },
  {
   "bufferView": 147,
   "componentType": 5126,
   "count": 24,
   "type": "VEC3"
  },
  {
   "bufferView": 148,
   "componentType": 5126,
   "count": 66,
   "max": [
    0.019999999552965164,
    1.0800000429153442,
    -0.08299999684095383
   ],
   "min": [
    -0.019999999552965164,
    0.8399999737739563,
    -0.2630000114440918
   ],
   "type": "VEC3"
  },
  {
   "bufferView": 149,
   "componentType": 5126,
   "count": 66,
   "type": "VEC3"
  },
  {
   "bufferView": 150,
   "componentType": 5123,
   "count": 108,
   "type": "SCALAR"
  },
  {
   "bufferView": 151,
   "componentType": 5126,
   "count": 980,
   "max": [
    0.30000001192092896,
    0.800000011920929,
    0.3700000047683716
   ],
   "min": [
    -0.20000000298023224,
    0,
    -0.375
   ],
   "type": "VEC3"
  },
  {
   "bufferView": 152,
   "componentType": 5126,
   "count": 980,
   "type": "VEC3"
  },
  {
   "bufferView": 153,
   "componentType": 5123,
   "count": 1860,
   "type": "SCALAR"
  },
  {
   "bufferView": 154,
   "componentType": 5126,
   "count": 24,
   "max": [
    0.28999999165534973,
    0.4749999940395355,
    0.10000000149011612
   ],
   "min": [
    0.20999999344348907,
    0.4699999988079071,
    -0.07999999821186066
   ],
   "type": "VEC3"
  },
  {
   "bufferView": 155,
   "componentType": 5126,
   "count": 24,
   "type": "VEC3"
  },
  {
   "bufferView": 156,
   "componentType": 5126,
   "count": 24,
   "max": [
    0.27000001072883606,
    0.47999998927116394,
    0.07999999821186066
   ],
   "min": [
    0.23000000417232513,
    0.4749999940395355,
    0.05000000074505806
   ],
   "type": "VEC3"
  },
  {
   "bufferView": 157,
   "componentType": 5126,
   "count": 24,
   "type": "VEC3"
  },
  {
   "bufferView": 158,
   "componentType": 5126,
   "count": 24,
   "max": [
    0.27000001072883606,
    0.47999998927116394,
    0.029999999329447746
   ],
   "min": [
    0.23000000417232513,
    0.4749999940395355,
    0
   ],
   "type": "VEC3"
  },
  {
   "bufferView": 159,
   "componentType": 5126,
   "count": 24,
   "type": "VEC3"
  },
  {
   "bufferView": 160,
   "componentType": 5126,
   "count": 24,
   "max": [
    0.27000001072883606,
    0.47999998927116394,
    -0.019999999552965164
   ],
   "min": [
    0.23000000417232513,
    0.4749999940395355,
    -0.05000000074505806
   ],
   "type": "VEC3"
  },
  {
   "bufferView": 161,
   "componentType": 5126,
   "count": 24,
   "type": "VEC3"
  },
  {
   "bufferView": 162,
   "componentType": 5126,
   "count": 24,
   "max": [
    -0.20000000298023224,
    0.6800000071525574,
    -0.2800000011920929
   ],
   "min": [
    -0.2199999988079071,
    0.6600000262260437,
    -0.3400000035762787
   ],
   "type": "VEC3"
  },
  {
   "bufferView": 163,
   "componentType": 5126,
   "count": 24,
   "type": "VEC3"
  }
 ],
 "bufferViews": [
  {
   "buffer": 0,
   "byteLength": 1152,
   "byteOffset": 0,
   "target": 34962
  },
  {
   "buffer": 0,
   "byteLength": 1152,
   "byteOffset": 1152,
   "target": 34962
  },
  {
   "buffer": 0,
   "byteLength": 360,
   "byteOffset": 2304,
   "target": 34963
  },
  {
   "buffer": 0,
   "byteLength": 10248,
   "byteOffset": 2664,
   "target": 34962
  },
  {
   "buffer": 0,
   "byteLength": 10248,
   "byteOffset": 12912,
   "target": 34962
  },
  {
   "buffer": 0,
   "byteLength": 3228,
   "byteOffset": 23160,
   "target": 34963
  },
  {
   "buffer": 0,
   "byteLength": 9924,
   "byteOffset": 26388,
   "target": 34962
  },
  {
   "buffer": 0,
   "byteLength": 9924,
   "byteOffset": 36312,
   "target": 34962
  },
  {
   "buffer": 0,
   "byteLength": 3108,
   "byteOffset": 46236,
   "target": 34963
  },
  {
   "buffer": 0,
   "byteLength": 288,
   "byteOffset": 49344,
   "target": 34962
  },
  {
   "buffer": 0,
   "byteLength": 288,
   "byteOffset": 49632,
   "target": 34962
  },
  {
   "buffer": 0,
   "byteLength": 72,
   "byteOffset": 49920,
   "target": 34963
  },
  {
   "buffer": 0,
   "byteLength": 288,
   "byteOffset": 49992,
   "target": 34962
  },
  {
   "buffer": 0,
   "byteLength": 288,
   "byteOffset": 50280,
   "target": 34962
  },
  {
   "buffer": 0,
   "byteLength": 576,
   "byteOffset": 50568,
   "target": 34962
  },
  {
   "buffer": 0,
   "byteLength": 576,
   "byteOffset": 51144,
   "target": 34962
  },
  {
   "buffer": 0,
   "byteLength": 144,
   "byteOffset": 51720,
   "target": 34963
  },
  {
   "buffer": 0,
   "byteLength": 2592,
   "byteOffset": 51864,
   "target": 34962
  },
  {
   "buffer": 0,
   "byteLength": 2592,
   "byteOffset": 54456,
   "target": 34962
  },
  {
   "buffer": 0,
   "byteLength": 648,
   "byteOffset": 57048,
   "target": 34963
  },
  {
   "buffer": 0,
   "byteLength": 864,
   "byteOffset": 57696,
   "target": 34962
  },
  {
   "buffer": 0,
   "byteLength": 864,
   "byteOffset": 58560,
   "target": 34962
  },
  {
   "buffer": 0,
   "byteLength": 216,
   "byteOffset": 59424,
   "target": 34963
  },
  {
   "buffer": 0,
   "byteLength": 480,
   "byteOffset": 59640,
   "target": 34962
  },
  {
   "buffer": 0,
   "byteLength": 480,
   "byteOffset": 60120,
   "target": 34962
  },
  {
   "buffer": 0,
   "byteLength": 120,
   "byteOffset": 60600,
   "target": 34963
  },
  {
   "buffer": 0,
   "byteLength": 288,
   "byteOffset": 60720,
   "target": 34962
  },
  {
   "buffer": 0,
   "byteLength": 288,
   "byteOffset": 61008,
   "target": 34962
  },
  {
   "buffer": 0,
   "byteLength": 288,
   "byteOffset": 61296,
   "target": 34962
  },
  {
   "buffer": 0,
   "byteLength": 288,
   "byteOffset": 61584,
   "target": 34962
  },
  {
   "buffer": 0,
   "byteLength": 288,
   "byteOffset": 61872,
   "target": 34962
  },
  {
   "buffer": 0,
   "byteLength": 288,
   "byteOffset": 62160,
   "target": 34962
  },
  {
   "buffer": 0,
   "byteLength": 72,
   "byteOffset": 62448,
   "target": 34963
  },
  {
   "buffer": 0,
   "byteLength": 576,
   "byteOffset": 62520,
   "target": 34962
  },
  {
   "buffer": 0,
   "byteLength": 576,
   "byteOffset": 63096,
   "target": 34962
  },
  {
   "buffer": 0,
   "byteLength": 3168,
   "byteOffset": 63672,
   "target": 34962
  },
  {
   "buffer": 0,
   "byteLength": 3168,
   "byteOffset": 66840,
   "target": 34962
  },
  {
   "buffer": 0,
   "byteLength": 792,
   "byteOffset": 70008,
   "target": 34963
  },
  {
   "buffer": 0,
   "byteLength": 12480,
   "byteOffset": 70800,
   "target": 34962
  },
  {
   "buffer": 0,
   "byteLength": 12480,
   "byteOffset": 83280,
   "target": 34962
  },
  {
   "buffer": 0,
   "byteLength": 3744,
   "byteOffset": 95760,
   "target": 34963
  },
  {
   "buffer": 0,
   "byteLength": 288,
   "byteOffset": 99504,
   "target": 34962
  },
  {
   "buffer": 0,
   "byteLength": 288,
   "byteOffset": 99792,
   "target": 34962
  },
  {
   "buffer": 0,
   "byteLength": 576,
   "byteOffset": 100080,
   "target": 34962
  },
  {
   "buffer": 0,
   "byteLength": 576,
   "byteOffset": 100656,
   "target": 34962
  },
  {
   "buffer": 0,
   "byteLength": 576,
   "byteOffset": 101232,
   "target": 34962
  },
  {
   "buffer": 0,
   "byteLength": 576,
   "byteOffset": 101808,
   "target": 34962
  },
  {
   "buffer": 0,
   "byteLength": 288,
   "byteOffset": 102384,
   "target": 34962
  },
  {
   "buffer": 0,
   "byteLength": 288,
   "byteOffset": 102672,
   "target": 34962
  },
  {
   "buffer": 0,
   "byteLength": 288,
   "byteOffset": 102960,
   "target": 34962
  },
  {
   "buffer": 0,
   "byteLength": 288,
   "byteOffset": 103248,
   "target": 34962
  },
  {
   "buffer": 0,
   "byteLength": 864,
   "byteOffset": 103536,
   "target": 34962
  },
  {
   "buffer": 0,
   "byteLength": 864,
   "byteOffset": 104400,
   "target": 34962
  },
  {
   "buffer": 0,
   "byteLength": 576,
   "byteOffset": 105264,
   "target": 34962
  },
  {
   "buffer": 0,
   "byteLength": 576,
   "byteOffset": 105840,
   "target": 34962
  },
  {
   "buffer": 0,
   "byteLength": 288,
   "byteOffset": 106416,
   "target": 34962
  },
  {
   "buffer": 0,
   "byteLength": 288,
   "byteOffset": 106704,
   "target": 34962
  },
  {
   "buffer": 0,
   "byteLength": 288,
   "byteOffset": 106992,
   "target": 34962
  },
  {
   "buffer": 0,
   "byteLength": 288,
   "byteOffset": 107280,
   "target": 34962
  },
  {
   "buffer": 0,
   "byteLength": 288,
   "byteOffset": 107568,
   "target": 34962
  },
  {
   "buffer": 0,
   "byteLength": 288,
   "byteOffset": 107856,
   "target": 34962
  },
  {
   "buffer": 0,
   "byteLength": 288,
   "byteOffset": 108144,
   "target": 34962
  },
  {
   "buffer": 0,
   "byteLength": 288,
   "byteOffset": 108432,
   "target": 34962
  },
  {
   "buffer": 0,
   "byteLength": 288,
   "byteOffset": 108720,
   "target": 34962
  },
  {
   "buffer": 0,
   "byteLength": 288,
   "byteOffset": 109008,
   "target": 34962
  },
  {
   "buffer": 0,
   "byteLength": 288,
   "byteOffset": 109296,
   "target": 34962
  },
  {
   "buffer": 0,
   "byteLength": 288,
   "byteOffset": 109584,
   "target": 34962
  },
  {
   "buffer": 0,
   "byteLength": 576,
   "byteOffset": 109872,
   "target": 34962
  },
  {
   "buffer": 0,
   "byteLength": 576,
   "byteOffset": 110448,
   "target": 34962
  },
  {
   "buffer": 0,
   "byteLength": 288,
   "byteOffset": 111024,
   "target": 34962
  },
  {
   "buffer": 0,
   "byteLength": 288,
   "byteOffset": 111312,
   "target": 34962
  },
  {
   "buffer": 0,
   "byteLength": 576,
   "byteOffset": 111600,
   "target": 34962
  },
  {
   "buffer": 0,
   "byteLength": 576,
   "byteOffset": 112176,
   "target": 34962
  },
  {
   "buffer": 0,
   "byteLength": 288,
   "byteOffset": 112752,
   "target": 34962
  },
  {
   "buffer": 0,
   "byteLength": 288,
   "byteOffset": 113040,
   "target": 34962
  },
  {
   "buffer": 0,
   "byteLength": 288,
   "byteOffset": 113328,
   "target": 34962
  },
  {
   "buffer": 0,
   "byteLength": 288,
   "byteOffset": 113616,
   "target": 34962
  },
  {
   "buffer": 0,
   "byteLength": 288,
   "byteOffset": 113904,
   "target": 34962
  },
  {
   "buffer": 0,
   "byteLength": 288,
   "byteOffset": 114192,
   "target": 34962
  },
  {
   "buffer": 0,
   "byteLength": 984,
   "byteOffset": 114480,
   "target": 34962
  },
  {
   "buffer": 0,
   "byteLength": 984,
   "byteOffset": 115464,
   "target": 34962
  },
  {
   "buffer": 0,
   "byteLength": 288,
   "byteOffset": 116448,
   "target": 34963
  },
  {
   "buffer": 0,
   "byteLength": 288,
   "byteOffset": 116736,
   "target": 34962
  },
  {
   "buffer": 0,
   "byteLength": 288,
   "byteOffset": 117024,
   "target": 34962
  },
  {
   "buffer": 0,
   "byteLength": 576,
   "byteOffset": 117312,
   "target": 34962
  },
  {
   "buffer": 0,
   "byteLength": 576,
   "byteOffset": 117888,
   "target": 34962
  },
  {
   "buffer": 0,
   "byteLength": 288,
   "byteOffset": 118464,
   "target": 34962
  },
  {
   "buffer": 0,
   "byteLength": 288,
   "byteOffset": 118752,
   "target": 34962
  },
  {
   "buffer": 0,
   "byteLength": 1728,
   "byteOffset": 119040,
   "target": 34962
  },
  {
   "buffer": 0,
   "byteLength": 1728,
   "byteOffset": 120768,
   "target": 34962
  },
  {
   "buffer": 0,
   "byteLength": 432,
   "byteOffset": 122496,
   "target": 34963
  },
  {
   "buffer": 0,
   "byteLength": 288,
   "byteOffset": 122928,
   "target": 34962
  },
  {
   "buffer": 0,
   "byteLength": 288,
   "byteOffset": 123216,
   "target": 34962
  },
  {
   "buffer": 0,
   "byteLength": 288,
   "byteOffset": 123504,
   "target": 34962
  },
  {
   "buffer": 0,
   "byteLength": 288,
   "byteOffset": 123792,
   "target": 34962
  },
  {
   "buffer": 0,
   "byteLength": 72,
   "byteOffset": 124080,
   "target": 34963
  },
  {
   "buffer": 0,
   "byteLength": 288,
   "byteOffset": 124152,
   "target": 34962
  },
  {
   "buffer": 0,
   "byteLength": 288,
   "byteOffset": 124440,
   "target": 34962
  },
  {
   "buffer": 0,
   "byteLength": 528,
   "byteOffset": 124728,
   "target": 34962
  },
  {
   "buffer": 0,
   "byteLength": 528,
   "byteOffset": 125256,
   "target": 34962
  },
  {
   "buffer": 0,
   "byteLength": 132,
   "byteOffset": 125784,
   "target": 34963
  },
  {
   "buffer": 0,
   "byteLength": 72,
   "byteOffset": 125916,
   "target": 34962
  },
  {
   "buffer": 0,
   "byteLength": 72,
   "byteOffset": 125988,
   "target": 34962
  },
  {
   "buffer": 0,
   "byteLength": 12,
   "byteOffset": 126060,
   "target": 34963
  },
  {
   "buffer": 0,
   "byteLength": 288,
   "byteOffset": 126072,
   "target": 34962
  },
  {
   "buffer": 0,
   "byteLength": 288,
   "byteOffset": 126360,
   "target": 34962
  },
  {
   "buffer": 0,
   "byteLength": 2016,
   "byteOffset": 126648,
   "target": 34962
  },
  {
   "buffer": 0,
   "byteLength": 2016,
   "byteOffset": 128664,
   "target": 34962
  },
  {
   "buffer": 0,
   "byteLength": 504,
   "byteOffset": 130680,
   "target": 34963
  },
  {
   "buffer": 0,
   "byteLength": 576,
   "byteOffset": 131184,
   "target": 34962
  },
  {
   "buffer": 0,
   "byteLength": 576,
   "byteOffset": 131760,
   "target": 34962
  },
  {
   "buffer": 0,
   "byteLength": 2304,
   "byteOffset": 132336,
   "target": 34962
  },
  {
   "buffer": 0,
   "byteLength": 2304,
   "byteOffset": 134640,
   "target": 34962
  },
  {
   "buffer": 0,
   "byteLength": 576,
   "byteOffset": 136944,
   "target": 34963
  },
  {
   "buffer": 0,
   "byteLength": 576,
   "byteOffset": 137520,
   "target": 34962
  },
  {
   "buffer": 0,
   "byteLength": 576,
   "byteOffset": 138096,
   "target": 34962
  },
  {
   "buffer": 0,
   "byteLength": 288,
   "byteOffset": 138672,
   "target": 34962
  },
  {
   "buffer": 0,
   "byteLength": 288,
   "byteOffset": 138960,
   "target": 34962
  },
  {
   "buffer": 0,
   "byteLength": 4824,
   "byteOffset": 139248,
   "target": 34962
  },
  {
   "buffer": 0,
   "byteLength": 4824,
   "byteOffset": 144072,
   "target": 34962
  },
  {
   "buffer": 0,
   "byteLength": 1224,
   "byteOffset": 148896,
   "target": 34963
  },
  {
   "buffer": 0,
   "byteLength": 4608,
   "byteOffset": 150120,
   "target": 34962
  },
  {
   "buffer": 0,
   "byteLength": 4608,
   "byteOffset": 154728,
   "target": 34962
  },
  {
   "buffer": 0,
   "byteLength": 1152,
   "byteOffset": 159336,
   "target": 34963
  },
  {
   "buffer": 0,
   "byteLength": 576,
   "byteOffset": 160488,
   "target": 34962
  },
  {
   "buffer": 0,
   "byteLength": 576,
   "byteOffset": 161064,
   "target": 34962
  },
  {
   "buffer": 0,
   "byteLength": 816,
   "byteOffset": 161640,
   "target": 34962
  },
  {
   "buffer": 0,
   "byteLength": 816,
   "byteOffset": 162456,
   "target": 34962
  },
  {
   "buffer": 0,
   "byteLength": 216,
   "byteOffset": 163272,
   "target": 34963
  },
  {
   "buffer": 0,
   "byteLength": 2400,
   "byteOffset": 163488,
   "target": 34962
  },
  {
   "buffer": 0,
   "byteLength": 2400,
   "byteOffset": 165888,
   "target": 34962
  },
  {
   "buffer": 0,
   "byteLength": 708,
   "byteOffset": 168288,
   "target": 34963
  },
  {
   "buffer": 0,
   "byteLength": 288,
   "byteOffset": 168996,
   "target": 34962
  },
  {
   "buffer": 0,
   "byteLength": 288,
   "byteOffset": 169284,
   "target": 34962
  },
  {
   "buffer": 0,
   "byteLength": 72,
   "byteOffset": 169572,
   "target": 34963
  },
  {
   "buffer": 0,
   "byteLength": 1056,
   "byteOffset": 169644,
   "target": 34962
  },
  {
   "buffer": 0,
   "byteLength": 1056,
   "byteOffset": 170700,
   "target": 34962
  },
  {
   "buffer": 0,
   "byteLength": 288,
   "byteOffset": 171756,
   "target": 34963
  },
  {
   "buffer": 0,
   "byteLength": 4896,
   "byteOffset": 172044,
   "target": 34962
  },
  {
   "buffer": 0,
   "byteLength": 4896,
   "byteOffset": 176940,
   "target": 34962
  },
  {
   "buffer": 0,
   "byteLength": 1368,
   "byteOffset": 181836,
   "target": 34963
  },
  {
   "buffer": 0,
   "byteLength": 5520,
   "byteOffset": 183204,
   "target": 34962
  },
  {
   "buffer": 0,
   "byteLength": 5520,
   "byteOffset": 188724,
   "target": 34962
  },
  {
   "buffer": 0,
   "byteLength": 1572,
   "byteOffset": 194244,
   "target": 34963
  },
  {
   "buffer": 0,
   "byteLength": 288,
   "byteOffset": 195816,
   "target": 34962
  },
  {
   "buffer": 0,
   "byteLength": 288,
   "byteOffset": 196104,
   "target": 34962
  },
  {
   "buffer": 0,
   "byteLength": 288,
   "byteOffset": 196392,
   "target": 34962
  },
  {
   "buffer": 0,
   "byteLength": 288,
   "byteOffset": 196680,
   "target": 34962
  },
  {
   "buffer": 0,
   "byteLength": 792,
   "byteOffset": 196968,
   "target": 34962
  },
  {
   "buffer": 0,
   "byteLength": 792,
   "byteOffset": 197760,
   "target": 34962
  },
  {
   "buffer": 0,
   "byteLength": 216,
   "byteOffset": 198552,
   "target": 34963
  },
  {
   "buffer": 0,
   "byteLength": 11760,
   "byteOffset": 198768,
   "target": 34962
  },
  {
   "buffer": 0,
   "byteLength": 11760,
   "byteOffset": 210528,
   "target": 34962
  },
  {
   "buffer": 0,
   "byteLength": 3720,
   "byteOffset": 222288,
   "target": 34963
  },
  {
   "buffer": 0,
   "byteLength": 288,
   "byteOffset": 226008,
   "target": 34962
  },
  {
   "buffer": 0,
   "byteLength": 288,
   "byteOffset": 226296,
   "target": 34962
  },
  {
   "buffer": 0,
   "byteLength": 288,
   "byteOffset": 226584,
   "target": 34962
  },
  {
   "buffer": 0,
   "byteLength": 288,
   "byteOffset": 226872,
   "target": 34962
  },
  {
   "buffer": 0,
   "byteLength": 288,
   "byteOffset": 227160,
   "target": 34962
  },
  {
   "buffer": 0,
   "byteLength": 288,
   "byteOffset": 227448,
   "target": 34962
  },
  {
   "buffer": 0,
   "byteLength": 288,
   "byteOffset": 227736,
   "target": 34962
  },
  {
   "buffer": 0,
   "byteLength": 288,
   "byteOffset": 228024,
   "target": 34962
  },
  {
   "buffer": 0,
   "byteLength": 288,
   "byteOffset": 228312,
   "target": 34962
  },
  {
   "buffer": 0,
   "byteLength": 288,
   "byteOffset": 228600,
   "target": 34962
  }
 ],
 "buffers": [
  {
   "byteLength": 228888,
   "uri": "SafeHouseLarge.bin"
  }
 ]
}
