{
 "asset": {
  "generator": "Khronos glTF Blender I/O v5.2.40",
  "version": "2.0",
  "extras": {
   "exported_by": "blender/tools/export_building_kit.py",
   "module_scale": 0.91
  }
 },
 "scene": 0,
 "scenes": [
  {
   "extras": {
    "bk_kit": "quaternius_downtown_city",
    "bk_module_scale": 0.91,
    "bk_status": "OWNER: this file is the source of the kit's pieces. Edit a piece in its collection (origin = the piece's own origin + the collection's instance_offset), then run tools/building_kit/build_buildings.sh, which exports pieces/ with blender/tools/export_building_kit.py. A moved or resized piece is refused unless ACCEPT_BOUNDS=1."
   },
   "name": "Scene",
   "nodes": [
    0
   ]
  }
 ],
 "nodes": [
  {
   "mesh": 0,
   "name": "Door_3"
  }
 ],
 "materials": [
  {
   "doubleSided": true,
   "name": "MI_Trim_MetalConcrete",
   "normalTexture": {
    "index": 0
   },
   "pbrMetallicRoughness": {
    "baseColorTexture": {
     "index": 1
    },
    "metallicRoughnessTexture": {
     "index": 2
    }
   }
  },
  {
   "alphaMode": "BLEND",
   "doubleSided": true,
   "name": "MI_Glass",
   "pbrMetallicRoughness": {
    "baseColorFactor": [
     0.05215025693178177,
     0.05215025693178177,
     0.05215025693178177,
     0.586363673210144
    ],
    "metallicFactor": 0,
    "roughnessFactor": 0.5
   }
  }
 ],
 "meshes": [
  {
   "name": "Cube.206",
   "primitives": [
    {
     "attributes": {
      "POSITION": 0,
      "NORMAL": 1,
      "TEXCOORD_0": 2,
      "TEXCOORD_1": 3,
      "COLOR_0": 4,
      "COLOR_1": 5
     },
     "indices": 6,
     "material": 0
    },
    {
     "attributes": {
      "POSITION": 7,
      "NORMAL": 8,
      "TEXCOORD_0": 9,
      "TEXCOORD_1": 10,
      "COLOR_0": 11,
      "COLOR_1": 12
     },
     "indices": 13,
     "material": 1
    }
   ]
  }
 ],
 "textures": [
  {
   "sampler": 0,
   "source": 0
  },
  {
   "sampler": 0,
   "source": 1
  },
  {
   "sampler": 0,
   "source": 2
  }
 ],
 "images": [
  {
   "mimeType": "image/png",
   "name": "T_MetalConcrete_Normal",
   "uri": "../../textures/T_MetalConcrete_Normal.png"
  },
  {
   "mimeType": "image/png",
   "name": "T_MetalConcrete_BaseColor",
   "uri": "../../textures/T_MetalConcrete_BaseColor.png"
  },
  {
   "mimeType": "image/png",
   "name": "T_MetalConcrete_ORM",
   "uri": "../../textures/T_MetalConcrete_ORM.png"
  }
 ],
 "accessors": [
  {
   "bufferView": 0,
   "componentType": 5126,
   "count": 426,
   "max": [
    1.2294610662877403e-08,
    2.002000093460083,
    0.0852816104888916
   ],
   "min": [
    -0.9099997878074646,
    0,
    -0.08610749989748001
   ],
   "type": "VEC3"
  },
  {
   "bufferView": 1,
   "componentType": 5126,
   "count": 426,
   "type": "VEC3"
  },
  {
   "bufferView": 2,
   "componentType": 5126,
   "count": 426,
   "type": "VEC2"
  },
  {
   "bufferView": 3,
   "componentType": 5126,
   "count": 426,
   "type": "VEC2"
  },
  {
   "bufferView": 4,
   "componentType": 5123,
   "count": 426,
   "normalized": true,
   "type": "VEC4"
  },
  {
   "bufferView": 5,
   "componentType": 5123,
   "count": 426,
   "normalized": true,
   "type": "VEC4"
  },
  {
   "bufferView": 6,
   "componentType": 5123,
   "count": 828,
   "type": "SCALAR"
  },
  {
   "bufferView": 7,
   "componentType": 5126,
   "count": 4,
   "max": [
    -0.08930905908346176,
    1.9074139595031738,
    0.0029514837078750134
   ],
   "min": [
    -0.8206909894943237,
    0.1603742092847824,
    0.002951371716335416
   ],
   "type": "VEC3"
  },
  {
   "bufferView": 8,
   "componentType": 5126,
   "count": 4,
   "type": "VEC3"
  },
  {
   "bufferView": 9,
   "componentType": 5126,
   "count": 4,
   "type": "VEC2"
  },
  {
   "bufferView": 10,
   "componentType": 5126,
   "count": 4,
   "type": "VEC2"
  },
  {
   "bufferView": 11,
   "componentType": 5123,
   "count": 4,
   "normalized": true,
   "type": "VEC4"
  },
  {
   "bufferView": 12,
   "componentType": 5123,
   "count": 4,
   "normalized": true,
   "type": "VEC4"
  },
  {
   "bufferView": 13,
   "componentType": 5123,
   "count": 6,
   "type": "SCALAR"
  }
 ],
 "bufferViews": [
  {
   "buffer": 0,
   "byteLength": 5112,
   "byteOffset": 0,
   "target": 34962
  },
  {
   "buffer": 0,
   "byteLength": 5112,
   "byteOffset": 5112,
   "target": 34962
  },
  {
   "buffer": 0,
   "byteLength": 3408,
   "byteOffset": 10224,
   "target": 34962
  },
  {
   "buffer": 0,
   "byteLength": 3408,
   "byteOffset": 13632,
   "target": 34962
  },
  {
   "buffer": 0,
   "byteLength": 3408,
   "byteOffset": 17040,
   "target": 34962
  },
  {
   "buffer": 0,
   "byteLength": 3408,
   "byteOffset": 20448,
   "target": 34962
  },
  {
   "buffer": 0,
   "byteLength": 1656,
   "byteOffset": 23856,
   "target": 34963
  },
  {
   "buffer": 0,
   "byteLength": 48,
   "byteOffset": 25512,
   "target": 34962
  },
  {
   "buffer": 0,
   "byteLength": 48,
   "byteOffset": 25560,
   "target": 34962
  },
  {
   "buffer": 0,
   "byteLength": 32,
   "byteOffset": 25608,
   "target": 34962
  },
  {
   "buffer": 0,
   "byteLength": 32,
   "byteOffset": 25640,
   "target": 34962
  },
  {
   "buffer": 0,
   "byteLength": 32,
   "byteOffset": 25672,
   "target": 34962
  },
  {
   "buffer": 0,
   "byteLength": 32,
   "byteOffset": 25704,
   "target": 34962
  },
  {
   "buffer": 0,
   "byteLength": 12,
   "byteOffset": 25736,
   "target": 34963
  }
 ],
 "samplers": [
  {
   "magFilter": 9729,
   "minFilter": 9987
  }
 ],
 "buffers": [
  {
   "byteLength": 25748,
   "uri": "Door_3.bin"
  }
 ]
}
