{
 "asset": {
  "generator": "Khronos glTF Blender I/O v5.2.40",
  "version": "2.0",
  "extras": {
   "exported_by": "blender/tools/export_building_kit.py",
   "module_scale": 1.0
  }
 },
 "scene": 0,
 "scenes": [
  {
   "name": "Station_elevated_hub",
   "nodes": [
    0
   ]
  }
 ],
 "nodes": [
  {
   "extras": {
    "edit_note": "The F1 end wall, across the hall and both wings; its +X face is the station's end. It stops under the rail deck (the train runs on)."
   },
   "mesh": 0,
   "name": "EH_EndWall_4"
  }
 ],
 "materials": [
  {
   "doubleSided": true,
   "name": "MI_Plaster",
   "pbrMetallicRoughness": {
    "baseColorFactor": [
     0.7144945859909058,
     0.7096679210662842,
     0.6731035709381104,
     1
    ],
    "metallicFactor": 0,
    "roughnessFactor": 0.699999988079071
   }
  }
 ],
 "meshes": [
  {
   "name": "EH_EndWall_4",
   "primitives": [
    {
     "attributes": {
      "POSITION": 0,
      "NORMAL": 1
     },
     "indices": 2,
     "material": 0
    }
   ]
  }
 ],
 "accessors": [
  {
   "bufferView": 0,
   "componentType": 5126,
   "count": 64,
   "max": [
    0,
    -0.800000011920929,
    15.350000381469727
   ],
   "min": [
    -0.30000001192092896,
    -9.4399995803833,
    -15.350000381469727
   ],
   "type": "VEC3"
  },
  {
   "bufferView": 1,
   "componentType": 5126,
   "count": 64,
   "type": "VEC3"
  },
  {
   "bufferView": 2,
   "componentType": 5123,
   "count": 108,
   "type": "SCALAR"
  }
 ],
 "bufferViews": [
  {
   "buffer": 0,
   "byteLength": 768,
   "byteOffset": 0,
   "target": 34962
  },
  {
   "buffer": 0,
   "byteLength": 768,
   "byteOffset": 768,
   "target": 34962
  },
  {
   "buffer": 0,
   "byteLength": 216,
   "byteOffset": 1536,
   "target": 34963
  }
 ],
 "buffers": [
  {
   "byteLength": 1752,
   "uri": "EH_EndWall_4.bin"
  }
 ]
}
