{
 "asset": {
  "generator": "Khronos glTF Blender I/O v5.2.40",
  "version": "2.0",
  "extras": {
   "exported_by": "blender/tools/export_building_kit.py",
   "module_scale": 1.0
  }
 },
 "extensionsUsed": [
  "KHR_materials_emissive_strength"
 ],
 "scene": 0,
 "scenes": [
  {
   "name": "Station_elevated_hub",
   "nodes": [
    0
   ]
  }
 ],
 "nodes": [
  {
   "extras": {
    "edit_note": "An elevated hub's F1 module (the fare line, 3 lanes at -14, -0, 14 m across). The floor's top is the street, 7.84 m below the origin (the bed). The GATE_ Empties are the ticket-gate lanes; +X is the unpaid (street-door) side; the service counter closes the line at +Y."
   },
   "mesh": 0,
   "name": "EH_FloorGate_345_3x14"
  }
 ],
 "materials": [
  {
   "doubleSided": true,
   "name": "MI_ConcreteSmooth",
   "pbrMetallicRoughness": {
    "baseColorFactor": [
     0.44070473313331604,
     0.43014833331108093,
     0.40880659222602844,
     1
    ],
    "metallicFactor": 0,
    "roughnessFactor": 0.699999988079071
   }
  },
  {
   "doubleSided": true,
   "name": "MI_Terrazzo",
   "pbrMetallicRoughness": {
    "baseColorFactor": [
     0.8372589945793152,
     0.8621084094047546,
     0.8569295406341553,
     1
    ],
    "metallicFactor": 0,
    "roughnessFactor": 0.699999988079071
   }
  },
  {
   "doubleSided": true,
   "name": "MI_Plaster",
   "pbrMetallicRoughness": {
    "baseColorFactor": [
     0.7144945859909058,
     0.7096679210662842,
     0.6731035709381104,
     1
    ],
    "metallicFactor": 0,
    "roughnessFactor": 0.699999988079071
   }
  },
  {
   "doubleSided": true,
   "emissiveFactor": [
    1,
    0.9800000190734863,
    0.9399999976158142
   ],
   "extensions": {
    "KHR_materials_emissive_strength": {
     "emissiveStrength": 2
    }
   },
   "name": "MI_Light",
   "pbrMetallicRoughness": {
    "baseColorFactor": [
     1,
     1,
     0.9700000286102295,
     1
    ],
    "metallicFactor": 0,
    "roughnessFactor": 0.699999988079071
   }
  },
  {
   "doubleSided": true,
   "name": "MI_PlasticWhite",
   "pbrMetallicRoughness": {
    "baseColorFactor": [
     0.9300000071525574,
     0.9300000071525574,
     0.9100000262260437,
     1
    ],
    "metallicFactor": 0,
    "roughnessFactor": 0.30000001192092896
   }
  },
  {
   "doubleSided": true,
   "name": "MI_PaintedMetal",
   "pbrMetallicRoughness": {
    "baseColorFactor": [
     0.8999999761581421,
     0.8999999761581421,
     0.8899999856948853,
     1
    ],
    "metallicFactor": 0.30000001192092896,
    "roughnessFactor": 0.699999988079071
   }
  },
  {
   "doubleSided": true,
   "name": "MI_GlassClear",
   "pbrMetallicRoughness": {
    "baseColorFactor": [
     0.550000011920929,
     0.6800000071525574,
     0.7200000286102295,
     1
    ],
    "metallicFactor": 0.20000000298023224,
    "roughnessFactor": 0.05000000074505806
   }
  },
  {
   "doubleSided": true,
   "name": "MI_Wood",
   "pbrMetallicRoughness": {
    "baseColorFactor": [
     0.6217582821846008,
     0.4432729184627533,
     0.2785278260707855,
     1
    ],
    "metallicFactor": 0,
    "roughnessFactor": 0.699999988079071
   }
  },
  {
   "doubleSided": true,
   "emissiveFactor": [
    0.0600000032782555,
    0.15000000596046448,
    0.30000001192092896
   ],
   "name": "MI_Sign",
   "pbrMetallicRoughness": {
    "baseColorFactor": [
     0.11999999731779099,
     0.30000001192092896,
     0.550000011920929,
     1
    ],
    "metallicFactor": 0,
    "roughnessFactor": 0.699999988079071
   }
  }
 ],
 "meshes": [
  {
   "name": "EH_FloorGate_345_3x14",
   "primitives": [
    {
     "attributes": {
      "POSITION": 0,
      "NORMAL": 1
     },
     "indices": 2,
     "material": 0
    },
    {
     "attributes": {
      "POSITION": 3,
      "NORMAL": 4
     },
     "indices": 2,
     "material": 1
    },
    {
     "attributes": {
      "POSITION": 5,
      "NORMAL": 6
     },
     "indices": 7,
     "material": 2
    },
    {
     "attributes": {
      "POSITION": 8,
      "NORMAL": 9
     },
     "indices": 10,
     "material": 3
    },
    {
     "attributes": {
      "POSITION": 11,
      "NORMAL": 12
     },
     "indices": 13,
     "material": 4
    },
    {
     "attributes": {
      "POSITION": 14,
      "NORMAL": 15
     },
     "indices": 16,
     "material": 5
    },
    {
     "attributes": {
      "POSITION": 17,
      "NORMAL": 18
     },
     "indices": 19,
     "material": 6
    },
    {
     "attributes": {
      "POSITION": 20,
      "NORMAL": 21
     },
     "indices": 22,
     "material": 7
    },
    {
     "attributes": {
      "POSITION": 23,
      "NORMAL": 24
     },
     "indices": 2,
     "material": 8
    }
   ]
  }
 ],
 "accessors": [
  {
   "bufferView": 0,
   "componentType": 5126,
   "count": 24,
   "max": [
    2.5,
    -7.840000152587891,
    23.799999237060547
   ],
   "min": [
    -2.5,
    -9.4399995803833,
    -23.799999237060547
   ],
   "type": "VEC3"
  },
  {
   "bufferView": 1,
   "componentType": 5126,
   "count": 24,
   "type": "VEC3"
  },
  {
   "bufferView": 2,
   "componentType": 5123,
   "count": 36,
   "type": "SCALAR"
  },
  {
   "bufferView": 3,
   "componentType": 5126,
   "count": 24,
   "max": [
    2.5,
    -7.829999923706055,
    23.5
   ],
   "min": [
    -2.5,
    -7.840000152587891,
    -23.5
   ],
   "type": "VEC3"
  },
  {
   "bufferView": 4,
   "componentType": 5126,
   "count": 24,
   "type": "VEC3"
  },
  {
   "bufferView": 5,
   "componentType": 5126,
   "count": 92,
   "max": [
    2.5,
    -3.990000009536743,
    21
   ],
   "min": [
    -2.5,
    -5.440000057220459,
    -22.899999618530273
   ],
   "type": "VEC3"
  },
  {
   "bufferView": 6,
   "componentType": 5126,
   "count": 92,
   "type": "VEC3"
  },
  {
   "bufferView": 7,
   "componentType": 5123,
   "count": 138,
   "type": "SCALAR"
  },
  {
   "bufferView": 8,
   "componentType": 5126,
   "count": 72,
   "max": [
    1.7000000476837158,
    -4.039999961853027,
    15.300000190734863
   ],
   "min": [
    -1.7000000476837158,
    -4.070000171661377,
    -15.300000190734863
   ],
   "type": "VEC3"
  },
  {
   "bufferView": 9,
   "componentType": 5126,
   "count": 72,
   "type": "VEC3"
  },
  {
   "bufferView": 10,
   "componentType": 5123,
   "count": 108,
   "type": "SCALAR"
  },
  {
   "bufferView": 11,
   "componentType": 5126,
   "count": 384,
   "max": [
    1.5,
    -6.840000152587891,
    16.424999237060547
   ],
   "min": [
    -1.5,
    -7.840000152587891,
    -22.899999618530273
   ],
   "type": "VEC3"
  },
  {
   "bufferView": 12,
   "componentType": 5126,
   "count": 384,
   "type": "VEC3"
  },
  {
   "bufferView": 13,
   "componentType": 5123,
   "count": 576,
   "type": "SCALAR"
  },
  {
   "bufferView": 14,
   "componentType": 5126,
   "count": 864,
   "max": [
    0.029999999329447746,
    -6.739999771118164,
    23.829999923706055
   ],
   "min": [
    -0.029999999329447746,
    -7.840000152587891,
    -23.829999923706055
   ],
   "type": "VEC3"
  },
  {
   "bufferView": 15,
   "componentType": 5126,
   "count": 864,
   "type": "VEC3"
  },
  {
   "bufferView": 16,
   "componentType": 5123,
   "count": 1296,
   "type": "SCALAR"
  },
  {
   "bufferView": 17,
   "componentType": 5126,
   "count": 20,
   "max": [
    1.5,
    -5.440000057220459,
    -17.899999618530273
   ],
   "min": [
    -1.5,
    -6.840000152587891,
    -22.899999618530273
   ],
   "type": "VEC3"
  },
  {
   "bufferView": 18,
   "componentType": 5126,
   "count": 20,
   "type": "VEC3"
  },
  {
   "bufferView": 19,
   "componentType": 5123,
   "count": 30,
   "type": "SCALAR"
  },
  {
   "bufferView": 20,
   "componentType": 5126,
   "count": 48,
   "max": [
    1.850000023841858,
    -6.840000152587891,
    -18.299999237060547
   ],
   "min": [
    -1.850000023841858,
    -6.889999866485596,
    -22.5
   ],
   "type": "VEC3"
  },
  {
   "bufferView": 21,
   "componentType": 5126,
   "count": 48,
   "type": "VEC3"
  },
  {
   "bufferView": 22,
   "componentType": 5123,
   "count": 72,
   "type": "SCALAR"
  },
  {
   "bufferView": 23,
   "componentType": 5126,
   "count": 24,
   "max": [
    1.2999999523162842,
    -5.090000152587891,
    -17.84000015258789
   ],
   "min": [
    -1.2999999523162842,
    -5.389999866485596,
    -17.899999618530273
   ],
   "type": "VEC3"
  },
  {
   "bufferView": 24,
   "componentType": 5126,
   "count": 24,
   "type": "VEC3"
  }
 ],
 "bufferViews": [
  {
   "buffer": 0,
   "byteLength": 288,
   "byteOffset": 0,
   "target": 34962
  },
  {
   "buffer": 0,
   "byteLength": 288,
   "byteOffset": 288,
   "target": 34962
  },
  {
   "buffer": 0,
   "byteLength": 72,
   "byteOffset": 576,
   "target": 34963
  },
  {
   "buffer": 0,
   "byteLength": 288,
   "byteOffset": 648,
   "target": 34962
  },
  {
   "buffer": 0,
   "byteLength": 288,
   "byteOffset": 936,
   "target": 34962
  },
  {
   "buffer": 0,
   "byteLength": 1104,
   "byteOffset": 1224,
   "target": 34962
  },
  {
   "buffer": 0,
   "byteLength": 1104,
   "byteOffset": 2328,
   "target": 34962
  },
  {
   "buffer": 0,
   "byteLength": 276,
   "byteOffset": 3432,
   "target": 34963
  },
  {
   "buffer": 0,
   "byteLength": 864,
   "byteOffset": 3708,
   "target": 34962
  },
  {
   "buffer": 0,
   "byteLength": 864,
   "byteOffset": 4572,
   "target": 34962
  },
  {
   "buffer": 0,
   "byteLength": 216,
   "byteOffset": 5436,
   "target": 34963
  },
  {
   "buffer": 0,
   "byteLength": 4608,
   "byteOffset": 5652,
   "target": 34962
  },
  {
   "buffer": 0,
   "byteLength": 4608,
   "byteOffset": 10260,
   "target": 34962
  },
  {
   "buffer": 0,
   "byteLength": 1152,
   "byteOffset": 14868,
   "target": 34963
  },
  {
   "buffer": 0,
   "byteLength": 10368,
   "byteOffset": 16020,
   "target": 34962
  },
  {
   "buffer": 0,
   "byteLength": 10368,
   "byteOffset": 26388,
   "target": 34962
  },
  {
   "buffer": 0,
   "byteLength": 2592,
   "byteOffset": 36756,
   "target": 34963
  },
  {
   "buffer": 0,
   "byteLength": 240,
   "byteOffset": 39348,
   "target": 34962
  },
  {
   "buffer": 0,
   "byteLength": 240,
   "byteOffset": 39588,
   "target": 34962
  },
  {
   "buffer": 0,
   "byteLength": 60,
   "byteOffset": 39828,
   "target": 34963
  },
  {
   "buffer": 0,
   "byteLength": 576,
   "byteOffset": 39888,
   "target": 34962
  },
  {
   "buffer": 0,
   "byteLength": 576,
   "byteOffset": 40464,
   "target": 34962
  },
  {
   "buffer": 0,
   "byteLength": 144,
   "byteOffset": 41040,
   "target": 34963
  },
  {
   "buffer": 0,
   "byteLength": 288,
   "byteOffset": 41184,
   "target": 34962
  },
  {
   "buffer": 0,
   "byteLength": 288,
   "byteOffset": 41472,
   "target": 34962
  }
 ],
 "buffers": [
  {
   "byteLength": 41760,
   "uri": "EH_FloorGate_345_3x14.bin"
  }
 ]
}
