{
 "asset": {
  "generator": "Khronos glTF Blender I/O v5.2.40",
  "version": "2.0",
  "extras": {
   "exported_by": "blender/tools/export_building_kit.py",
   "module_scale": 1.0
  }
 },
 "scene": 0,
 "scenes": [
  {
   "name": "Station_elevated_hub",
   "nodes": [
    0
   ]
  }
 ],
 "nodes": [
  {
   "extras": {
    "edit_note": "The paid box's long-side fare line at F1 (hand L): a gate bank in the -X half, GATE_ arrows toward the wing (the unpaid side), in the rail wall's line (the column at the +X end is the side piece's). Keep it closed from end to end: the paid area leaks through any gap."
   },
   "mesh": 0,
   "name": "EH_FareSideGate_4_L"
  }
 ],
 "materials": [
  {
   "doubleSided": true,
   "name": "MI_PlasticWhite",
   "pbrMetallicRoughness": {
    "baseColorFactor": [
     0.9300000071525574,
     0.9300000071525574,
     0.9100000262260437,
     1
    ],
    "metallicFactor": 0,
    "roughnessFactor": 0.30000001192092896
   }
  }
 ],
 "meshes": [
  {
   "name": "EH_FareSideGate_4_L",
   "primitives": [
    {
     "attributes": {
      "POSITION": 0,
      "NORMAL": 1
     },
     "indices": 2,
     "material": 0
    }
   ]
  }
 ],
 "accessors": [
  {
   "bufferView": 0,
   "componentType": 5126,
   "count": 72,
   "max": [
    -0.05000000074505806,
    -6.840000152587891,
    -9.600000381469727
   ],
   "min": [
    -2.450000047683716,
    -7.840000152587891,
    -10.800000190734863
   ],
   "type": "VEC3"
  },
  {
   "bufferView": 1,
   "componentType": 5126,
   "count": 72,
   "type": "VEC3"
  },
  {
   "bufferView": 2,
   "componentType": 5123,
   "count": 108,
   "type": "SCALAR"
  }
 ],
 "bufferViews": [
  {
   "buffer": 0,
   "byteLength": 864,
   "byteOffset": 0,
   "target": 34962
  },
  {
   "buffer": 0,
   "byteLength": 864,
   "byteOffset": 864,
   "target": 34962
  },
  {
   "buffer": 0,
   "byteLength": 216,
   "byteOffset": 1728,
   "target": 34963
  }
 ],
 "buffers": [
  {
   "byteLength": 1944,
   "uri": "EH_FareSideGate_4_L.bin"
  }
 ]
}
