{
 "asset": {
  "generator": "Khronos glTF Blender I/O v5.2.40",
  "version": "2.0",
  "extras": {
   "exported_by": "blender/tools/export_building_kit.py",
   "module_scale": 1.0
  }
 },
 "scene": 0,
 "scenes": [
  {
   "extras": {
    "bk_kit": "quaternius_stylized_nature",
    "bk_module_scale": 1.0,
    "bk_status": "OWNER: this file is the source of the kit's pieces. Edit a piece in its collection (origin = the piece's own origin + the collection's instance_offset), then run tools/building_kit/build_buildings.sh, which exports pieces/ with blender/tools/export_building_kit.py. A moved or resized piece is refused unless ACCEPT_BOUNDS=1."
   },
   "name": "Scene",
   "nodes": [
    0
   ]
  }
 ],
 "nodes": [
  {
   "mesh": 0,
   "name": "Bush_Common_Flowers"
  }
 ],
 "materials": [
  {
   "alphaCutoff": 0.20000000298023224,
   "alphaMode": "MASK",
   "doubleSided": true,
   "name": "MI_Leaves_NormalTree",
   "pbrMetallicRoughness": {
    "baseColorTexture": {
     "index": 0
    },
    "metallicFactor": 0
   }
  },
  {
   "alphaCutoff": 0.20000000298023224,
   "alphaMode": "MASK",
   "doubleSided": true,
   "name": "MI_Flowers",
   "pbrMetallicRoughness": {
    "baseColorTexture": {
     "index": 1
    },
    "metallicFactor": 0
   }
  }
 ],
 "meshes": [
  {
   "name": "tree.009",
   "primitives": [
    {
     "attributes": {
      "POSITION": 0,
      "NORMAL": 1,
      "TEXCOORD_0": 2,
      "COLOR_0": 3
     },
     "indices": 4,
     "material": 0
    },
    {
     "attributes": {
      "POSITION": 5,
      "NORMAL": 6,
      "TEXCOORD_0": 7,
      "COLOR_0": 8
     },
     "indices": 9,
     "material": 1
    }
   ]
  }
 ],
 "textures": [
  {
   "sampler": 0,
   "source": 0
  },
  {
   "sampler": 0,
   "source": 1
  }
 ],
 "images": [
  {
   "mimeType": "image/png",
   "name": "Leaves_NormalTree_C",
   "uri": "../../textures/Leaves_NormalTree_C.png"
  },
  {
   "mimeType": "image/png",
   "name": "Flowers",
   "uri": "../../textures/Flowers.png"
  }
 ],
 "accessors": [
  {
   "bufferView": 0,
   "componentType": 5126,
   "count": 1800,
   "max": [
    0.9913685917854309,
    1.3470909595489502,
    0.9907516837120056
   ],
   "min": [
    -0.9234761595726013,
    -0.234694704413414,
    -0.9743891954421997
   ],
   "type": "VEC3"
  },
  {
   "bufferView": 1,
   "componentType": 5126,
   "count": 1800,
   "type": "VEC3"
  },
  {
   "bufferView": 2,
   "componentType": 5126,
   "count": 1800,
   "type": "VEC2"
  },
  {
   "bufferView": 3,
   "componentType": 5123,
   "count": 1800,
   "normalized": true,
   "type": "VEC4"
  },
  {
   "bufferView": 4,
   "componentType": 5123,
   "count": 2700,
   "type": "SCALAR"
  },
  {
   "bufferView": 5,
   "componentType": 5126,
   "count": 819,
   "max": [
    0.9718135595321655,
    1.328537940979004,
    0.98771071434021
   ],
   "min": [
    -0.7453983426094055,
    0.2586841881275177,
    -0.9251851439476013
   ],
   "type": "VEC3"
  },
  {
   "bufferView": 6,
   "componentType": 5126,
   "count": 819,
   "type": "VEC3"
  },
  {
   "bufferView": 7,
   "componentType": 5126,
   "count": 819,
   "type": "VEC2"
  },
  {
   "bufferView": 8,
   "componentType": 5123,
   "count": 819,
   "normalized": true,
   "type": "VEC4"
  },
  {
   "bufferView": 9,
   "componentType": 5123,
   "count": 1404,
   "type": "SCALAR"
  }
 ],
 "bufferViews": [
  {
   "buffer": 0,
   "byteLength": 21600,
   "byteOffset": 0,
   "target": 34962
  },
  {
   "buffer": 0,
   "byteLength": 21600,
   "byteOffset": 21600,
   "target": 34962
  },
  {
   "buffer": 0,
   "byteLength": 14400,
   "byteOffset": 43200,
   "target": 34962
  },
  {
   "buffer": 0,
   "byteLength": 14400,
   "byteOffset": 57600,
   "target": 34962
  },
  {
   "buffer": 0,
   "byteLength": 5400,
   "byteOffset": 72000,
   "target": 34963
  },
  {
   "buffer": 0,
   "byteLength": 9828,
   "byteOffset": 77400,
   "target": 34962
  },
  {
   "buffer": 0,
   "byteLength": 9828,
   "byteOffset": 87228,
   "target": 34962
  },
  {
   "buffer": 0,
   "byteLength": 6552,
   "byteOffset": 97056,
   "target": 34962
  },
  {
   "buffer": 0,
   "byteLength": 6552,
   "byteOffset": 103608,
   "target": 34962
  },
  {
   "buffer": 0,
   "byteLength": 2808,
   "byteOffset": 110160,
   "target": 34963
  }
 ],
 "samplers": [
  {
   "magFilter": 9729,
   "minFilter": 9987
  }
 ],
 "buffers": [
  {
   "byteLength": 112968,
   "uri": "Bush_Common_Flowers.bin"
  }
 ]
}
