{
 "asset": {
  "generator": "Khronos glTF Blender I/O v5.2.40",
  "version": "2.0",
  "extras": {
   "exported_by": "blender/tools/export_building_kit.py",
   "module_scale": 1.0
  }
 },
 "extensionsUsed": [
  "KHR_materials_emissive_strength"
 ],
 "scene": 0,
 "scenes": [
  {
   "name": "MilControlTower",
   "nodes": [
    0,
    1,
    2,
    3,
    4,
    5,
    6,
    7,
    8,
    9,
    10,
    11,
    12,
    13,
    14,
    15,
    16
   ]
  }
 ],
 "nodes": [
  {
   "extras": {
    "edit_note": "A mission building (blender/tools/build_interior_blends.py, seed blender/tools/interior_plans.py): a PLACEHOLDER shell and fit-out at its real Japanese size -- remodel freely. Keep the frame (origin = plot centre on the ground, street -Y), the floor levels, and move the Empties with what they belong to: DOOR_ (interior door, arrow OUT of the room), EXIT_ (outer door, arrow out of the building), LIFT_ (a lift: shaft floor centre at the low stop; stops / faces), MARK_ (a mission marker: kind weapon / spawn / cover ...). Keep 1.2 m clear both sides of every door. After editing: tools/building_kit/build_buildings.sh. \u7ba1\u5236\u5854 (control tower): an operations room below, a stair and a lift up five levels, the glass cab at 20 m (a sniper spot)."
   },
   "mesh": 0,
   "name": "Facade"
  },
  {
   "extras": {
    "edit_note": "A mission building (blender/tools/build_interior_blends.py, seed blender/tools/interior_plans.py): a PLACEHOLDER shell and fit-out at its real Japanese size -- remodel freely. Keep the frame (origin = plot centre on the ground, street -Y), the floor levels, and move the Empties with what they belong to: DOOR_ (interior door, arrow OUT of the room), EXIT_ (outer door, arrow out of the building), LIFT_ (a lift: shaft floor centre at the low stop; stops / faces), MARK_ (a mission marker: kind weapon / spawn / cover ...). Keep 1.2 m clear both sides of every door. After editing: tools/building_kit/build_buildings.sh. \u7ba1\u5236\u5854 (control tower): an operations room below, a stair and a lift up five levels, the glass cab at 20 m (a sniper spot)."
   },
   "mesh": 1,
   "name": "Glazing"
  },
  {
   "extras": {
    "edit_note": "A mission building (blender/tools/build_interior_blends.py, seed blender/tools/interior_plans.py): a PLACEHOLDER shell and fit-out at its real Japanese size -- remodel freely. Keep the frame (origin = plot centre on the ground, street -Y), the floor levels, and move the Empties with what they belong to: DOOR_ (interior door, arrow OUT of the room), EXIT_ (outer door, arrow out of the building), LIFT_ (a lift: shaft floor centre at the low stop; stops / faces), MARK_ (a mission marker: kind weapon / spawn / cover ...). Keep 1.2 m clear both sides of every door. After editing: tools/building_kit/build_buildings.sh. \u7ba1\u5236\u5854 (control tower): an operations room below, a stair and a lift up five levels, the glass cab at 20 m (a sniper spot)."
   },
   "mesh": 2,
   "name": "Office_Chair",
   "translation": [
    -4.599999904632568,
    0,
    -0.15000000596046448
   ]
  },
  {
   "extras": {
    "edit_note": "A mission building (blender/tools/build_interior_blends.py, seed blender/tools/interior_plans.py): a PLACEHOLDER shell and fit-out at its real Japanese size -- remodel freely. Keep the frame (origin = plot centre on the ground, street -Y), the floor levels, and move the Empties with what they belong to: DOOR_ (interior door, arrow OUT of the room), EXIT_ (outer door, arrow out of the building), LIFT_ (a lift: shaft floor centre at the low stop; stops / faces), MARK_ (a mission marker: kind weapon / spawn / cover ...). Keep 1.2 m clear both sides of every door. After editing: tools/building_kit/build_buildings.sh. \u7ba1\u5236\u5854 (control tower): an operations room below, a stair and a lift up five levels, the glass cab at 20 m (a sniper spot)."
   },
   "mesh": 2,
   "name": "Office_Chair.001",
   "rotation": [
    0,
    -1,
    0,
    4.371138828673793e-08
   ],
   "translation": [
    -4.599999904632568,
    0,
    -1.850000023841858
   ]
  },
  {
   "extras": {
    "edit_note": "A mission building (blender/tools/build_interior_blends.py, seed blender/tools/interior_plans.py): a PLACEHOLDER shell and fit-out at its real Japanese size -- remodel freely. Keep the frame (origin = plot centre on the ground, street -Y), the floor levels, and move the Empties with what they belong to: DOOR_ (interior door, arrow OUT of the room), EXIT_ (outer door, arrow out of the building), LIFT_ (a lift: shaft floor centre at the low stop; stops / faces), MARK_ (a mission marker: kind weapon / spawn / cover ...). Keep 1.2 m clear both sides of every door. After editing: tools/building_kit/build_buildings.sh. \u7ba1\u5236\u5854 (control tower): an operations room below, a stair and a lift up five levels, the glass cab at 20 m (a sniper spot)."
   },
   "mesh": 2,
   "name": "Office_Chair.002",
   "translation": [
    -3.4000000953674316,
    0,
    -0.15000000596046448
   ]
  },
  {
   "extras": {
    "edit_note": "A mission building (blender/tools/build_interior_blends.py, seed blender/tools/interior_plans.py): a PLACEHOLDER shell and fit-out at its real Japanese size -- remodel freely. Keep the frame (origin = plot centre on the ground, street -Y), the floor levels, and move the Empties with what they belong to: DOOR_ (interior door, arrow OUT of the room), EXIT_ (outer door, arrow out of the building), LIFT_ (a lift: shaft floor centre at the low stop; stops / faces), MARK_ (a mission marker: kind weapon / spawn / cover ...). Keep 1.2 m clear both sides of every door. After editing: tools/building_kit/build_buildings.sh. \u7ba1\u5236\u5854 (control tower): an operations room below, a stair and a lift up five levels, the glass cab at 20 m (a sniper spot)."
   },
   "mesh": 2,
   "name": "Office_Chair.003",
   "rotation": [
    0,
    -1,
    0,
    4.371138828673793e-08
   ],
   "translation": [
    -3.4000000953674316,
    0,
    -1.850000023841858
   ]
  },
  {
   "extras": {
    "edit_note": "A mission building (blender/tools/build_interior_blends.py, seed blender/tools/interior_plans.py): a PLACEHOLDER shell and fit-out at its real Japanese size -- remodel freely. Keep the frame (origin = plot centre on the ground, street -Y), the floor levels, and move the Empties with what they belong to: DOOR_ (interior door, arrow OUT of the room), EXIT_ (outer door, arrow out of the building), LIFT_ (a lift: shaft floor centre at the low stop; stops / faces), MARK_ (a mission marker: kind weapon / spawn / cover ...). Keep 1.2 m clear both sides of every door. After editing: tools/building_kit/build_buildings.sh. \u7ba1\u5236\u5854 (control tower): an operations room below, a stair and a lift up five levels, the glass cab at 20 m (a sniper spot)."
   },
   "mesh": 2,
   "name": "Office_Chair.004",
   "translation": [
    7,
    20,
    1.7000000476837158
   ]
  },
  {
   "extras": {
    "edit_note": "A mission building (blender/tools/build_interior_blends.py, seed blender/tools/interior_plans.py): a PLACEHOLDER shell and fit-out at its real Japanese size -- remodel freely. Keep the frame (origin = plot centre on the ground, street -Y), the floor levels, and move the Empties with what they belong to: DOOR_ (interior door, arrow OUT of the room), EXIT_ (outer door, arrow out of the building), LIFT_ (a lift: shaft floor centre at the low stop; stops / faces), MARK_ (a mission marker: kind weapon / spawn / cover ...). Keep 1.2 m clear both sides of every door. After editing: tools/building_kit/build_buildings.sh. \u7ba1\u5236\u5854 (control tower): an operations room below, a stair and a lift up five levels, the glass cab at 20 m (a sniper spot)."
   },
   "mesh": 3,
   "name": "Office_Desk",
   "rotation": [
    0,
    -1,
    0,
    4.371138828673793e-08
   ],
   "translation": [
    7,
    20,
    2.4000000953674316
   ]
  },
  {
   "extras": {
    "edit_note": "A mission building (blender/tools/build_interior_blends.py, seed blender/tools/interior_plans.py): a PLACEHOLDER shell and fit-out at its real Japanese size -- remodel freely. Keep the frame (origin = plot centre on the ground, street -Y), the floor levels, and move the Empties with what they belong to: DOOR_ (interior door, arrow OUT of the room), EXIT_ (outer door, arrow out of the building), LIFT_ (a lift: shaft floor centre at the low stop; stops / faces), MARK_ (a mission marker: kind weapon / spawn / cover ...). Keep 1.2 m clear both sides of every door. After editing: tools/building_kit/build_buildings.sh. \u7ba1\u5236\u5854 (control tower): an operations room below, a stair and a lift up five levels, the glass cab at 20 m (a sniper spot)."
   },
   "mesh": 3,
   "name": "Office_Desk.001",
   "rotation": [
    0,
    -1,
    0,
    4.371138828673793e-08
   ],
   "translation": [
    9.300000190734863,
    20,
    2.4000000953674316
   ]
  },
  {
   "extras": {
    "edit_note": "A mission building (blender/tools/build_interior_blends.py, seed blender/tools/interior_plans.py): a PLACEHOLDER shell and fit-out at its real Japanese size -- remodel freely. Keep the frame (origin = plot centre on the ground, street -Y), the floor levels, and move the Empties with what they belong to: DOOR_ (interior door, arrow OUT of the room), EXIT_ (outer door, arrow out of the building), LIFT_ (a lift: shaft floor centre at the low stop; stops / faces), MARK_ (a mission marker: kind weapon / spawn / cover ...). Keep 1.2 m clear both sides of every door. After editing: tools/building_kit/build_buildings.sh. \u7ba1\u5236\u5854 (control tower): an operations room below, a stair and a lift up five levels, the glass cab at 20 m (a sniper spot)."
   },
   "mesh": 3,
   "name": "Office_Desk.002",
   "rotation": [
    0,
    -0.7071068286895752,
    0,
    0.7071068286895752
   ],
   "translation": [
    10.399999618530273,
    20,
    -3
   ]
  },
  {
   "extras": {
    "edit_note": "A mission building (blender/tools/build_interior_blends.py, seed blender/tools/interior_plans.py): a PLACEHOLDER shell and fit-out at its real Japanese size -- remodel freely. Keep the frame (origin = plot centre on the ground, street -Y), the floor levels, and move the Empties with what they belong to: DOOR_ (interior door, arrow OUT of the room), EXIT_ (outer door, arrow out of the building), LIFT_ (a lift: shaft floor centre at the low stop; stops / faces), MARK_ (a mission marker: kind weapon / spawn / cover ...). Keep 1.2 m clear both sides of every door. After editing: tools/building_kit/build_buildings.sh. \u7ba1\u5236\u5854 (control tower): an operations room below, a stair and a lift up five levels, the glass cab at 20 m (a sniper spot)."
   },
   "mesh": 4,
   "name": "Office_DeskIsland",
   "translation": [
    -4,
    0,
    -1
   ]
  },
  {
   "extras": {
    "edit_note": "A mission building (blender/tools/build_interior_blends.py, seed blender/tools/interior_plans.py): a PLACEHOLDER shell and fit-out at its real Japanese size -- remodel freely. Keep the frame (origin = plot centre on the ground, street -Y), the floor levels, and move the Empties with what they belong to: DOOR_ (interior door, arrow OUT of the room), EXIT_ (outer door, arrow out of the building), LIFT_ (a lift: shaft floor centre at the low stop; stops / faces), MARK_ (a mission marker: kind weapon / spawn / cover ...). Keep 1.2 m clear both sides of every door. After editing: tools/building_kit/build_buildings.sh. \u7ba1\u5236\u5854 (control tower): an operations room below, a stair and a lift up five levels, the glass cab at 20 m (a sniper spot)."
   },
   "mesh": 5,
   "name": "Office_ServerRack",
   "rotation": [
    0,
    0.7071068286895752,
    0,
    0.7071068286895752
   ],
   "translation": [
    -9.399999618530273,
    0,
    -4
   ]
  },
  {
   "extras": {
    "edit_note": "A mission building (blender/tools/build_interior_blends.py, seed blender/tools/interior_plans.py): a PLACEHOLDER shell and fit-out at its real Japanese size -- remodel freely. Keep the frame (origin = plot centre on the ground, street -Y), the floor levels, and move the Empties with what they belong to: DOOR_ (interior door, arrow OUT of the room), EXIT_ (outer door, arrow out of the building), LIFT_ (a lift: shaft floor centre at the low stop; stops / faces), MARK_ (a mission marker: kind weapon / spawn / cover ...). Keep 1.2 m clear both sides of every door. After editing: tools/building_kit/build_buildings.sh. \u7ba1\u5236\u5854 (control tower): an operations room below, a stair and a lift up five levels, the glass cab at 20 m (a sniper spot)."
   },
   "mesh": 6,
   "name": "Roof"
  },
  {
   "extras": {
    "edit_note": "A mission building (blender/tools/build_interior_blends.py, seed blender/tools/interior_plans.py): a PLACEHOLDER shell and fit-out at its real Japanese size -- remodel freely. Keep the frame (origin = plot centre on the ground, street -Y), the floor levels, and move the Empties with what they belong to: DOOR_ (interior door, arrow OUT of the room), EXIT_ (outer door, arrow out of the building), LIFT_ (a lift: shaft floor centre at the low stop; stops / faces), MARK_ (a mission marker: kind weapon / spawn / cover ...). Keep 1.2 m clear both sides of every door. After editing: tools/building_kit/build_buildings.sh. \u7ba1\u5236\u5854 (control tower): an operations room below, a stair and a lift up five levels, the glass cab at 20 m (a sniper spot)."
   },
   "mesh": 7,
   "name": "Shafts"
  },
  {
   "extras": {
    "edit_note": "A mission building (blender/tools/build_interior_blends.py, seed blender/tools/interior_plans.py): a PLACEHOLDER shell and fit-out at its real Japanese size -- remodel freely. Keep the frame (origin = plot centre on the ground, street -Y), the floor levels, and move the Empties with what they belong to: DOOR_ (interior door, arrow OUT of the room), EXIT_ (outer door, arrow out of the building), LIFT_ (a lift: shaft floor centre at the low stop; stops / faces), MARK_ (a mission marker: kind weapon / spawn / cover ...). Keep 1.2 m clear both sides of every door. After editing: tools/building_kit/build_buildings.sh. \u7ba1\u5236\u5854 (control tower): an operations room below, a stair and a lift up five levels, the glass cab at 20 m (a sniper spot)."
   },
   "mesh": 8,
   "name": "Stairs"
  },
  {
   "extras": {
    "edit_note": "A mission building (blender/tools/build_interior_blends.py, seed blender/tools/interior_plans.py): a PLACEHOLDER shell and fit-out at its real Japanese size -- remodel freely. Keep the frame (origin = plot centre on the ground, street -Y), the floor levels, and move the Empties with what they belong to: DOOR_ (interior door, arrow OUT of the room), EXIT_ (outer door, arrow out of the building), LIFT_ (a lift: shaft floor centre at the low stop; stops / faces), MARK_ (a mission marker: kind weapon / spawn / cover ...). Keep 1.2 m clear both sides of every door. After editing: tools/building_kit/build_buildings.sh. \u7ba1\u5236\u5854 (control tower): an operations room below, a stair and a lift up five levels, the glass cab at 20 m (a sniper spot)."
   },
   "mesh": 9,
   "name": "Structure"
  },
  {
   "extras": {
    "edit_note": "A mission building (blender/tools/build_interior_blends.py, seed blender/tools/interior_plans.py): a PLACEHOLDER shell and fit-out at its real Japanese size -- remodel freely. Keep the frame (origin = plot centre on the ground, street -Y), the floor levels, and move the Empties with what they belong to: DOOR_ (interior door, arrow OUT of the room), EXIT_ (outer door, arrow out of the building), LIFT_ (a lift: shaft floor centre at the low stop; stops / faces), MARK_ (a mission marker: kind weapon / spawn / cover ...). Keep 1.2 m clear both sides of every door. After editing: tools/building_kit/build_buildings.sh. \u7ba1\u5236\u5854 (control tower): an operations room below, a stair and a lift up five levels, the glass cab at 20 m (a sniper spot)."
   },
   "mesh": 10,
   "name": "Walls_0"
  }
 ],
 "materials": [
  {
   "doubleSided": true,
   "name": "MI_PaintWhite",
   "pbrMetallicRoughness": {
    "baseColorFactor": [
     0.949999988079071,
     0.949999988079071,
     0.9300000071525574,
     1
    ],
    "metallicFactor": 0,
    "roughnessFactor": 0.699999988079071
   }
  },
  {
   "doubleSided": true,
   "name": "MI_Plaster",
   "pbrMetallicRoughness": {
    "baseColorFactor": [
     0.8999999761581421,
     0.8899999856948853,
     0.8600000143051147,
     1
    ],
    "metallicFactor": 0,
    "roughnessFactor": 0.699999988079071
   }
  },
  {
   "doubleSided": true,
   "name": "MI_GlassClear",
   "pbrMetallicRoughness": {
    "baseColorFactor": [
     0.550000011920929,
     0.6800000071525574,
     0.7200000286102295,
     1
    ],
    "metallicFactor": 0.20000000298023224,
    "roughnessFactor": 0.05000000074505806
   }
  },
  {
   "doubleSided": true,
   "name": "MI_PaintedMetal",
   "pbrMetallicRoughness": {
    "baseColorFactor": [
     0.8999999761581421,
     0.8999999761581421,
     0.8899999856948853,
     1
    ],
    "metallicFactor": 0.30000001192092896,
    "roughnessFactor": 0.699999988079071
   }
  },
  {
   "doubleSided": true,
   "name": "MI_Steel",
   "pbrMetallicRoughness": {
    "baseColorFactor": [
     0.5726980566978455,
     0.5820889472961426,
     0.5955169796943665,
     1
    ],
    "roughnessFactor": 0.699999988079071
   }
  },
  {
   "doubleSided": true,
   "name": "MI_PlasticDark",
   "pbrMetallicRoughness": {
    "baseColorFactor": [
     0.11999999731779099,
     0.11999999731779099,
     0.12999999523162842,
     1
    ],
    "metallicFactor": 0,
    "roughnessFactor": 0.6000000238418579
   }
  },
  {
   "doubleSided": true,
   "name": "MI_Fabric",
   "pbrMetallicRoughness": {
    "baseColorFactor": [
     0.3585456907749176,
     0.35632404685020447,
     0.3589908480644226,
     1
    ],
    "metallicFactor": 0,
    "roughnessFactor": 0.699999988079071
   }
  },
  {
   "doubleSided": true,
   "name": "MI_Wood",
   "pbrMetallicRoughness": {
    "baseColorFactor": [
     0.6217582821846008,
     0.4432729184627533,
     0.2785278260707855,
     1
    ],
    "metallicFactor": 0,
    "roughnessFactor": 0.699999988079071
   }
  },
  {
   "doubleSided": true,
   "emissiveFactor": [
    1,
    0.9800000190734863,
    0.9399999976158142
   ],
   "extensions": {
    "KHR_materials_emissive_strength": {
     "emissiveStrength": 2
    }
   },
   "name": "MI_Light",
   "pbrMetallicRoughness": {
    "baseColorFactor": [
     1,
     1,
     0.9700000286102295,
     1
    ],
    "metallicFactor": 0,
    "roughnessFactor": 0.699999988079071
   }
  },
  {
   "doubleSided": true,
   "name": "MI_ConcreteSmooth",
   "pbrMetallicRoughness": {
    "baseColorFactor": [
     0.3104965388774872,
     0.3015982508659363,
     0.2871379554271698,
     1
    ],
    "metallicFactor": 0,
    "roughnessFactor": 0.699999988079071
   }
  },
  {
   "doubleSided": true,
   "name": "MI_PaintedMetalDark",
   "pbrMetallicRoughness": {
    "baseColorFactor": [
     0.1599999964237213,
     0.17000000178813934,
     0.18000000715255737,
     1
    ],
    "metallicFactor": 0.4000000059604645,
    "roughnessFactor": 0.699999988079071
   }
  },
  {
   "doubleSided": true,
   "name": "MI_Terrazzo",
   "pbrMetallicRoughness": {
    "baseColorFactor": [
     0.8399999737739563,
     0.8600000143051147,
     0.8600000143051147,
     1
    ],
    "metallicFactor": 0,
    "roughnessFactor": 0.699999988079071
   }
  }
 ],
 "meshes": [
  {
   "name": "MilControlTower_Facade",
   "primitives": [
    {
     "attributes": {
      "POSITION": 0,
      "NORMAL": 1
     },
     "indices": 2,
     "material": 0
    },
    {
     "attributes": {
      "POSITION": 3,
      "NORMAL": 4
     },
     "indices": 5,
     "material": 1
    }
   ]
  },
  {
   "name": "MilControlTower_Glazing",
   "primitives": [
    {
     "attributes": {
      "POSITION": 6,
      "NORMAL": 7
     },
     "indices": 8,
     "material": 2
    },
    {
     "attributes": {
      "POSITION": 9,
      "NORMAL": 10
     },
     "indices": 11,
     "material": 3
    }
   ]
  },
  {
   "name": "LIB_Office_Chair",
   "primitives": [
    {
     "attributes": {
      "POSITION": 12,
      "NORMAL": 13
     },
     "indices": 14,
     "material": 4
    },
    {
     "attributes": {
      "POSITION": 15,
      "NORMAL": 16
     },
     "indices": 14,
     "material": 5
    },
    {
     "attributes": {
      "POSITION": 17,
      "NORMAL": 18
     },
     "indices": 19,
     "material": 6
    }
   ]
  },
  {
   "name": "LIB_Office_Desk",
   "primitives": [
    {
     "attributes": {
      "POSITION": 20,
      "NORMAL": 21
     },
     "indices": 14,
     "material": 7
    },
    {
     "attributes": {
      "POSITION": 22,
      "NORMAL": 23
     },
     "indices": 19,
     "material": 3
    },
    {
     "attributes": {
      "POSITION": 24,
      "NORMAL": 25
     },
     "indices": 14,
     "material": 5
    }
   ]
  },
  {
   "name": "LIB_Office_DeskIsland",
   "primitives": [
    {
     "attributes": {
      "POSITION": 26,
      "NORMAL": 27
     },
     "indices": 14,
     "material": 7
    },
    {
     "attributes": {
      "POSITION": 28,
      "NORMAL": 29
     },
     "indices": 30,
     "material": 3
    },
    {
     "attributes": {
      "POSITION": 31,
      "NORMAL": 32
     },
     "indices": 14,
     "material": 6
    },
    {
     "attributes": {
      "POSITION": 33,
      "NORMAL": 34
     },
     "indices": 35,
     "material": 5
    }
   ]
  },
  {
   "name": "LIB_Office_ServerRack",
   "primitives": [
    {
     "attributes": {
      "POSITION": 36,
      "NORMAL": 37
     },
     "indices": 14,
     "material": 5
    },
    {
     "attributes": {
      "POSITION": 38,
      "NORMAL": 39
     },
     "indices": 40,
     "material": 8
    }
   ]
  },
  {
   "name": "MilControlTower_Roof",
   "primitives": [
    {
     "attributes": {
      "POSITION": 41,
      "NORMAL": 42
     },
     "indices": 43,
     "material": 9
    },
    {
     "attributes": {
      "POSITION": 44,
      "NORMAL": 45
     },
     "indices": 14,
     "material": 0
    },
    {
     "attributes": {
      "POSITION": 46,
      "NORMAL": 47
     },
     "indices": 14,
     "material": 4
    }
   ]
  },
  {
   "name": "MilControlTower_Shafts",
   "primitives": [
    {
     "attributes": {
      "POSITION": 48,
      "NORMAL": 49
     },
     "indices": 50,
     "material": 9
    }
   ]
  },
  {
   "name": "MilControlTower_Stairs",
   "primitives": [
    {
     "attributes": {
      "POSITION": 51,
      "NORMAL": 52
     },
     "indices": 53,
     "material": 9
    },
    {
     "attributes": {
      "POSITION": 54,
      "NORMAL": 55
     },
     "indices": 56,
     "material": 10
    },
    {
     "attributes": {
      "POSITION": 57,
      "NORMAL": 58
     },
     "indices": 59,
     "material": 1
    }
   ]
  },
  {
   "name": "MilControlTower_Structure",
   "primitives": [
    {
     "attributes": {
      "POSITION": 60,
      "NORMAL": 61
     },
     "indices": 14,
     "material": 11
    },
    {
     "attributes": {
      "POSITION": 62,
      "NORMAL": 63
     },
     "indices": 64,
     "material": 9
    },
    {
     "attributes": {
      "POSITION": 65,
      "NORMAL": 66
     },
     "indices": 67,
     "material": 6
    }
   ]
  },
  {
   "name": "MilControlTower_Walls_0",
   "primitives": [
    {
     "attributes": {
      "POSITION": 68,
      "NORMAL": 69
     },
     "indices": 70,
     "material": 1
    }
   ]
  }
 ],
 "accessors": [
  {
   "bufferView": 0,
   "componentType": 5126,
   "count": 954,
   "max": [
    11,
    23.200000762939453,
    6
   ],
   "min": [
    -10,
    0,
    -7
   ],
   "type": "VEC3"
  },
  {
   "bufferView": 1,
   "componentType": 5126,
   "count": 954,
   "type": "VEC3"
  },
  {
   "bufferView": 2,
   "componentType": 5123,
   "count": 1758,
   "type": "SCALAR"
  },
  {
   "bufferView": 3,
   "componentType": 5126,
   "count": 594,
   "max": [
    10,
    20,
    5.900000095367432
   ],
   "min": [
    -10,
    0,
    -5.900000095367432
   ],
   "type": "VEC3"
  },
  {
   "bufferView": 4,
   "componentType": 5126,
   "count": 594,
   "type": "VEC3"
  },
  {
   "bufferView": 5,
   "componentType": 5123,
   "count": 1062,
   "type": "SCALAR"
  },
  {
   "bufferView": 6,
   "componentType": 5126,
   "count": 288,
   "max": [
    10.911999702453613,
    23,
    5.9120001792907715
   ],
   "min": [
    -9.911999702453613,
    0.8999999761581421,
    -6.9120001792907715
   ],
   "type": "VEC3"
  },
  {
   "bufferView": 7,
   "componentType": 5126,
   "count": 288,
   "type": "VEC3"
  },
  {
   "bufferView": 8,
   "componentType": 5123,
   "count": 432,
   "type": "SCALAR"
  },
  {
   "bufferView": 9,
   "componentType": 5126,
   "count": 880,
   "max": [
    11.010000228881836,
    23.049999237060547,
    6.010000228881836
   ],
   "min": [
    -10.010000228881836,
    -0.05000000074505806,
    -7.010000228881836
   ],
   "type": "VEC3"
  },
  {
   "bufferView": 10,
   "componentType": 5126,
   "count": 880,
   "type": "VEC3"
  },
  {
   "bufferView": 11,
   "componentType": 5123,
   "count": 1584,
   "type": "SCALAR"
  },
  {
   "bufferView": 12,
   "componentType": 5126,
   "count": 24,
   "max": [
    0.029999999329447746,
    0.41999998688697815,
    0.029999999329447746
   ],
   "min": [
    -0.029999999329447746,
    0,
    -0.029999999329447746
   ],
   "type": "VEC3"
  },
  {
   "bufferView": 13,
   "componentType": 5126,
   "count": 24,
   "type": "VEC3"
  },
  {
   "bufferView": 14,
   "componentType": 5123,
   "count": 36,
   "type": "SCALAR"
  },
  {
   "bufferView": 15,
   "componentType": 5126,
   "count": 24,
   "max": [
    0.30000001192092896,
    0.05000000074505806,
    0.30000001192092896
   ],
   "min": [
    -0.30000001192092896,
    0,
    -0.30000001192092896
   ],
   "type": "VEC3"
  },
  {
   "bufferView": 16,
   "componentType": 5126,
   "count": 24,
   "type": "VEC3"
  },
  {
   "bufferView": 17,
   "componentType": 5126,
   "count": 48,
   "max": [
    0.25,
    1,
    0.25
   ],
   "min": [
    -0.25,
    0.41999998688697815,
    -0.2800000011920929
   ],
   "type": "VEC3"
  },
  {
   "bufferView": 18,
   "componentType": 5126,
   "count": 48,
   "type": "VEC3"
  },
  {
   "bufferView": 19,
   "componentType": 5123,
   "count": 72,
   "type": "SCALAR"
  },
  {
   "bufferView": 20,
   "componentType": 5126,
   "count": 24,
   "max": [
    0.6000000238418579,
    0.7200000286102295,
    0.3499999940395355
   ],
   "min": [
    -0.6000000238418579,
    0.6800000071525574,
    -0.3499999940395355
   ],
   "type": "VEC3"
  },
  {
   "bufferView": 21,
   "componentType": 5126,
   "count": 24,
   "type": "VEC3"
  },
  {
   "bufferView": 22,
   "componentType": 5126,
   "count": 48,
   "max": [
    0.6000000238418579,
    0.6800000071525574,
    0.3199999928474426
   ],
   "min": [
    -0.6000000238418579,
    0,
    -0.3199999928474426
   ],
   "type": "VEC3"
  },
  {
   "bufferView": 23,
   "componentType": 5126,
   "count": 48,
   "type": "VEC3"
  },
  {
   "bufferView": 24,
   "componentType": 5126,
   "count": 24,
   "max": [
    0.25,
    1.0499999523162842,
    -0.10000000149011612
   ],
   "min": [
    -0.25,
    0.7200000286102295,
    -0.12999999523162842
   ],
   "type": "VEC3"
  },
  {
   "bufferView": 25,
   "componentType": 5126,
   "count": 24,
   "type": "VEC3"
  },
  {
   "bufferView": 26,
   "componentType": 5126,
   "count": 24,
   "max": [
    1.2000000476837158,
    0.7200000286102295,
    0.699999988079071
   ],
   "min": [
    -1.2000000476837158,
    0.6800000071525574,
    -0.699999988079071
   ],
   "type": "VEC3"
  },
  {
   "bufferView": 27,
   "componentType": 5126,
   "count": 24,
   "type": "VEC3"
  },
  {
   "bufferView": 28,
   "componentType": 5126,
   "count": 72,
   "max": [
    1.2000000476837158,
    0.6800000071525574,
    0.6700000166893005
   ],
   "min": [
    -1.2000000476837158,
    0,
    -0.6700000166893005
   ],
   "type": "VEC3"
  },
  {
   "bufferView": 29,
   "componentType": 5126,
   "count": 72,
   "type": "VEC3"
  },
  {
   "bufferView": 30,
   "componentType": 5123,
   "count": 108,
   "type": "SCALAR"
  },
  {
   "bufferView": 31,
   "componentType": 5126,
   "count": 24,
   "max": [
    1.2000000476837158,
    1.100000023841858,
    0.019999999552965164
   ],
   "min": [
    -1.2000000476837158,
    0.7200000286102295,
    -0.019999999552965164
   ],
   "type": "VEC3"
  },
  {
   "bufferView": 32,
   "componentType": 5126,
   "count": 24,
   "type": "VEC3"
  },
  {
   "bufferView": 33,
   "componentType": 5126,
   "count": 96,
   "max": [
    0.8500000238418579,
    1.0499999523162842,
    0.19499999284744263
   ],
   "min": [
    -0.8500000238418579,
    0.7200000286102295,
    -0.19499999284744263
   ],
   "type": "VEC3"
  },
  {
   "bufferView": 34,
   "componentType": 5126,
   "count": 96,
   "type": "VEC3"
  },
  {
   "bufferView": 35,
   "componentType": 5123,
   "count": 144,
   "type": "SCALAR"
  },
  {
   "bufferView": 36,
   "componentType": 5126,
   "count": 24,
   "max": [
    0.30000001192092896,
    2,
    0.5
   ],
   "min": [
    -0.30000001192092896,
    0,
    -0.5
   ],
   "type": "VEC3"
  },
  {
   "bufferView": 37,
   "componentType": 5126,
   "count": 24,
   "type": "VEC3"
  },
  {
   "bufferView": 38,
   "componentType": 5126,
   "count": 240,
   "max": [
    0.25,
    1.7300000190734863,
    0.5099999904632568
   ],
   "min": [
    -0.25,
    0.15000000596046448,
    0.5
   ],
   "type": "VEC3"
  },
  {
   "bufferView": 39,
   "componentType": 5126,
   "count": 240,
   "type": "VEC3"
  },
  {
   "bufferView": 40,
   "componentType": 5123,
   "count": 360,
   "type": "SCALAR"
  },
  {
   "bufferView": 41,
   "componentType": 5126,
   "count": 114,
   "max": [
    10,
    5,
    6
   ],
   "min": [
    -10,
    4,
    -6
   ],
   "type": "VEC3"
  },
  {
   "bufferView": 42,
   "componentType": 5126,
   "count": 114,
   "type": "VEC3"
  },
  {
   "bufferView": 43,
   "componentType": 5123,
   "count": 216,
   "type": "SCALAR"
  },
  {
   "bufferView": 44,
   "componentType": 5126,
   "count": 24,
   "max": [
    11.600000381469727,
    23.5,
    3.5999999046325684
   ],
   "min": [
    0.4000000059604645,
    23.200000762939453,
    -7.599999904632568
   ],
   "type": "VEC3"
  },
  {
   "bufferView": 45,
   "componentType": 5126,
   "count": 24,
   "type": "VEC3"
  },
  {
   "bufferView": 46,
   "componentType": 5126,
   "count": 24,
   "max": [
    6.199999809265137,
    26,
    -1.7999999523162842
   ],
   "min": [
    5.800000190734863,
    23.5,
    -2.200000047683716
   ],
   "type": "VEC3"
  },
  {
   "bufferView": 47,
   "componentType": 5126,
   "count": 24,
   "type": "VEC3"
  },
  {
   "bufferView": 48,
   "componentType": 5126,
   "count": 168,
   "max": [
    8.850000381469727,
    23.450000762939453,
    0.6499999761581421
   ],
   "min": [
    6.949999809265137,
    -1.2000000476837158,
    -1.25
   ],
   "type": "VEC3"
  },
  {
   "bufferView": 49,
   "componentType": 5126,
   "count": 168,
   "type": "VEC3"
  },
  {
   "bufferView": 50,
   "componentType": 5123,
   "count": 324,
   "type": "SCALAR"
  },
  {
   "bufferView": 51,
   "componentType": 5126,
   "count": 2730,
   "max": [
    5.099999904632568,
    20,
    0.30000001192092896
   ],
   "min": [
    2.299999952316284,
    0,
    -5.699999809265137
   ],
   "type": "VEC3"
  },
  {
   "bufferView": 52,
   "componentType": 5126,
   "count": 2730,
   "type": "VEC3"
  },
  {
   "bufferView": 53,
   "componentType": 5123,
   "count": 4140,
   "type": "SCALAR"
  },
  {
   "bufferView": 54,
   "componentType": 5126,
   "count": 2640,
   "max": [
    5.099999904632568,
    20.0049991607666,
    0.30000001192092896
   ],
   "min": [
    2.299999952316284,
    0.16181817650794983,
    -2.6700000762939453
   ],
   "type": "VEC3"
  },
  {
   "bufferView": 55,
   "componentType": 5126,
   "count": 2640,
   "type": "VEC3"
  },
  {
   "bufferView": 56,
   "componentType": 5123,
   "count": 3960,
   "type": "SCALAR"
  },
  {
   "bufferView": 57,
   "componentType": 5126,
   "count": 144,
   "max": [
    3.759999990463257,
    21.100000381469727,
    0.36000001430511475
   ],
   "min": [
    2.299999952316284,
    0,
    -2.6700000762939453
   ],
   "type": "VEC3"
  },
  {
   "bufferView": 58,
   "componentType": 5126,
   "count": 144,
   "type": "VEC3"
  },
  {
   "bufferView": 59,
   "componentType": 5123,
   "count": 216,
   "type": "SCALAR"
  },
  {
   "bufferView": 60,
   "componentType": 5126,
   "count": 24,
   "max": [
    10,
    0,
    6
   ],
   "min": [
    -10,
    -0.20000000298023224,
    -6
   ],
   "type": "VEC3"
  },
  {
   "bufferView": 61,
   "componentType": 5126,
   "count": 24,
   "type": "VEC3"
  },
  {
   "bufferView": 62,
   "componentType": 5126,
   "count": 544,
   "max": [
    10,
    16,
    2
   ],
   "min": [
    2,
    3.799999952316284,
    -6
   ],
   "type": "VEC3"
  },
  {
   "bufferView": 63,
   "componentType": 5126,
   "count": 544,
   "type": "VEC3"
  },
  {
   "bufferView": 64,
   "componentType": 5123,
   "count": 1008,
   "type": "SCALAR"
  },
  {
   "bufferView": 65,
   "componentType": 5126,
   "count": 136,
   "max": [
    11,
    20,
    3
   ],
   "min": [
    1,
    19.799999237060547,
    -7
   ],
   "type": "VEC3"
  },
  {
   "bufferView": 66,
   "componentType": 5126,
   "count": 136,
   "type": "VEC3"
  },
  {
   "bufferView": 67,
   "componentType": 5123,
   "count": 252,
   "type": "SCALAR"
  },
  {
   "bufferView": 68,
   "componentType": 5126,
   "count": 88,
   "max": [
    9.800000190734863,
    4,
    2.059999942779541
   ],
   "min": [
    1.940000057220459,
    0,
    -5.800000190734863
   ],
   "type": "VEC3"
  },
  {
   "bufferView": 69,
   "componentType": 5126,
   "count": 88,
   "type": "VEC3"
  },
  {
   "bufferView": 70,
   "componentType": 5123,
   "count": 144,
   "type": "SCALAR"
  }
 ],
 "bufferViews": [
  {
   "buffer": 0,
   "byteLength": 11448,
   "byteOffset": 0,
   "target": 34962
  },
  {
   "buffer": 0,
   "byteLength": 11448,
   "byteOffset": 11448,
   "target": 34962
  },
  {
   "buffer": 0,
   "byteLength": 3516,
   "byteOffset": 22896,
   "target": 34963
  },
  {
   "buffer": 0,
   "byteLength": 7128,
   "byteOffset": 26412,
   "target": 34962
  },
  {
   "buffer": 0,
   "byteLength": 7128,
   "byteOffset": 33540,
   "target": 34962
  },
  {
   "buffer": 0,
   "byteLength": 2124,
   "byteOffset": 40668,
   "target": 34963
  },
  {
   "buffer": 0,
   "byteLength": 3456,
   "byteOffset": 42792,
   "target": 34962
  },
  {
   "buffer": 0,
   "byteLength": 3456,
   "byteOffset": 46248,
   "target": 34962
  },
  {
   "buffer": 0,
   "byteLength": 864,
   "byteOffset": 49704,
   "target": 34963
  },
  {
   "buffer": 0,
   "byteLength": 10560,
   "byteOffset": 50568,
   "target": 34962
  },
  {
   "buffer": 0,
   "byteLength": 10560,
   "byteOffset": 61128,
   "target": 34962
  },
  {
   "buffer": 0,
   "byteLength": 3168,
   "byteOffset": 71688,
   "target": 34963
  },
  {
   "buffer": 0,
   "byteLength": 288,
   "byteOffset": 74856,
   "target": 34962
  },
  {
   "buffer": 0,
   "byteLength": 288,
   "byteOffset": 75144,
   "target": 34962
  },
  {
   "buffer": 0,
   "byteLength": 72,
   "byteOffset": 75432,
   "target": 34963
  },
  {
   "buffer": 0,
   "byteLength": 288,
   "byteOffset": 75504,
   "target": 34962
  },
  {
   "buffer": 0,
   "byteLength": 288,
   "byteOffset": 75792,
   "target": 34962
  },
  {
   "buffer": 0,
   "byteLength": 576,
   "byteOffset": 76080,
   "target": 34962
  },
  {
   "buffer": 0,
   "byteLength": 576,
   "byteOffset": 76656,
   "target": 34962
  },
  {
   "buffer": 0,
   "byteLength": 144,
   "byteOffset": 77232,
   "target": 34963
  },
  {
   "buffer": 0,
   "byteLength": 288,
   "byteOffset": 77376,
   "target": 34962
  },
  {
   "buffer": 0,
   "byteLength": 288,
   "byteOffset": 77664,
   "target": 34962
  },
  {
   "buffer": 0,
   "byteLength": 576,
   "byteOffset": 77952,
   "target": 34962
  },
  {
   "buffer": 0,
   "byteLength": 576,
   "byteOffset": 78528,
   "target": 34962
  },
  {
   "buffer": 0,
   "byteLength": 288,
   "byteOffset": 79104,
   "target": 34962
  },
  {
   "buffer": 0,
   "byteLength": 288,
   "byteOffset": 79392,
   "target": 34962
  },
  {
   "buffer": 0,
   "byteLength": 288,
   "byteOffset": 79680,
   "target": 34962
  },
  {
   "buffer": 0,
   "byteLength": 288,
   "byteOffset": 79968,
   "target": 34962
  },
  {
   "buffer": 0,
   "byteLength": 864,
   "byteOffset": 80256,
   "target": 34962
  },
  {
   "buffer": 0,
   "byteLength": 864,
   "byteOffset": 81120,
   "target": 34962
  },
  {
   "buffer": 0,
   "byteLength": 216,
   "byteOffset": 81984,
   "target": 34963
  },
  {
   "buffer": 0,
   "byteLength": 288,
   "byteOffset": 82200,
   "target": 34962
  },
  {
   "buffer": 0,
   "byteLength": 288,
   "byteOffset": 82488,
   "target": 34962
  },
  {
   "buffer": 0,
   "byteLength": 1152,
   "byteOffset": 82776,
   "target": 34962
  },
  {
   "buffer": 0,
   "byteLength": 1152,
   "byteOffset": 83928,
   "target": 34962
  },
  {
   "buffer": 0,
   "byteLength": 288,
   "byteOffset": 85080,
   "target": 34963
  },
  {
   "buffer": 0,
   "byteLength": 288,
   "byteOffset": 85368,
   "target": 34962
  },
  {
   "buffer": 0,
   "byteLength": 288,
   "byteOffset": 85656,
   "target": 34962
  },
  {
   "buffer": 0,
   "byteLength": 2880,
   "byteOffset": 85944,
   "target": 34962
  },
  {
   "buffer": 0,
   "byteLength": 2880,
   "byteOffset": 88824,
   "target": 34962
  },
  {
   "buffer": 0,
   "byteLength": 720,
   "byteOffset": 91704,
   "target": 34963
  },
  {
   "buffer": 0,
   "byteLength": 1368,
   "byteOffset": 92424,
   "target": 34962
  },
  {
   "buffer": 0,
   "byteLength": 1368,
   "byteOffset": 93792,
   "target": 34962
  },
  {
   "buffer": 0,
   "byteLength": 432,
   "byteOffset": 95160,
   "target": 34963
  },
  {
   "buffer": 0,
   "byteLength": 288,
   "byteOffset": 95592,
   "target": 34962
  },
  {
   "buffer": 0,
   "byteLength": 288,
   "byteOffset": 95880,
   "target": 34962
  },
  {
   "buffer": 0,
   "byteLength": 288,
   "byteOffset": 96168,
   "target": 34962
  },
  {
   "buffer": 0,
   "byteLength": 288,
   "byteOffset": 96456,
   "target": 34962
  },
  {
   "buffer": 0,
   "byteLength": 2016,
   "byteOffset": 96744,
   "target": 34962
  },
  {
   "buffer": 0,
   "byteLength": 2016,
   "byteOffset": 98760,
   "target": 34962
  },
  {
   "buffer": 0,
   "byteLength": 648,
   "byteOffset": 100776,
   "target": 34963
  },
  {
   "buffer": 0,
   "byteLength": 32760,
   "byteOffset": 101424,
   "target": 34962
  },
  {
   "buffer": 0,
   "byteLength": 32760,
   "byteOffset": 134184,
   "target": 34962
  },
  {
   "buffer": 0,
   "byteLength": 8280,
   "byteOffset": 166944,
   "target": 34963
  },
  {
   "buffer": 0,
   "byteLength": 31680,
   "byteOffset": 175224,
   "target": 34962
  },
  {
   "buffer": 0,
   "byteLength": 31680,
   "byteOffset": 206904,
   "target": 34962
  },
  {
   "buffer": 0,
   "byteLength": 7920,
   "byteOffset": 238584,
   "target": 34963
  },
  {
   "buffer": 0,
   "byteLength": 1728,
   "byteOffset": 246504,
   "target": 34962
  },
  {
   "buffer": 0,
   "byteLength": 1728,
   "byteOffset": 248232,
   "target": 34962
  },
  {
   "buffer": 0,
   "byteLength": 432,
   "byteOffset": 249960,
   "target": 34963
  },
  {
   "buffer": 0,
   "byteLength": 288,
   "byteOffset": 250392,
   "target": 34962
  },
  {
   "buffer": 0,
   "byteLength": 288,
   "byteOffset": 250680,
   "target": 34962
  },
  {
   "buffer": 0,
   "byteLength": 6528,
   "byteOffset": 250968,
   "target": 34962
  },
  {
   "buffer": 0,
   "byteLength": 6528,
   "byteOffset": 257496,
   "target": 34962
  },
  {
   "buffer": 0,
   "byteLength": 2016,
   "byteOffset": 264024,
   "target": 34963
  },
  {
   "buffer": 0,
   "byteLength": 1632,
   "byteOffset": 266040,
   "target": 34962
  },
  {
   "buffer": 0,
   "byteLength": 1632,
   "byteOffset": 267672,
   "target": 34962
  },
  {
   "buffer": 0,
   "byteLength": 504,
   "byteOffset": 269304,
   "target": 34963
  },
  {
   "buffer": 0,
   "byteLength": 1056,
   "byteOffset": 269808,
   "target": 34962
  },
  {
   "buffer": 0,
   "byteLength": 1056,
   "byteOffset": 270864,
   "target": 34962
  },
  {
   "buffer": 0,
   "byteLength": 288,
   "byteOffset": 271920,
   "target": 34963
  }
 ],
 "buffers": [
  {
   "byteLength": 272208,
   "uri": "MilControlTower.bin"
  }
 ]
}
