{
 "asset": {
  "generator": "Khronos glTF Blender I/O v5.2.40",
  "version": "2.0",
  "extras": {
   "exported_by": "blender/tools/export_building_kit.py",
   "module_scale": 1.0
  }
 },
 "extensionsUsed": [
  "KHR_materials_emissive_strength"
 ],
 "scene": 0,
 "scenes": [
  {
   "name": "FireBranch",
   "nodes": [
    0,
    1,
    2,
    3,
    4,
    5,
    6,
    7,
    8,
    9,
    10,
    11,
    12,
    13,
    14,
    15,
    16,
    17,
    18,
    19,
    20,
    21,
    22,
    23,
    24,
    25,
    26,
    27,
    28,
    29
   ]
  }
 ],
 "nodes": [
  {
   "extras": {
    "edit_note": "A mission building (blender/tools/build_interior_blends.py, seed blender/tools/interior_plans.py): a PLACEHOLDER shell and fit-out at its real Japanese size -- remodel freely. Keep the frame (origin = plot centre on the ground, street -Y), the floor levels, and move the Empties with what they belong to: DOOR_ (interior door, arrow OUT of the room), EXIT_ (outer door, arrow out of the building), LIFT_ (a lift: shaft floor centre at the low stop; stops / faces), MARK_ (a mission marker: kind weapon / spawn / cover ...). Keep 1.2 m clear both sides of every door. After editing: tools/building_kit/build_buildings.sh. \u6d88\u9632\u51fa\u5f35\u6240: the small fire station, one storey, two bays (a pumper and an ambulance)."
   },
   "mesh": 0,
   "name": "Facade"
  },
  {
   "extras": {
    "edit_note": "A mission building (blender/tools/build_interior_blends.py, seed blender/tools/interior_plans.py): a PLACEHOLDER shell and fit-out at its real Japanese size -- remodel freely. Keep the frame (origin = plot centre on the ground, street -Y), the floor levels, and move the Empties with what they belong to: DOOR_ (interior door, arrow OUT of the room), EXIT_ (outer door, arrow out of the building), LIFT_ (a lift: shaft floor centre at the low stop; stops / faces), MARK_ (a mission marker: kind weapon / spawn / cover ...). Keep 1.2 m clear both sides of every door. After editing: tools/building_kit/build_buildings.sh. \u6d88\u9632\u51fa\u5f35\u6240: the small fire station, one storey, two bays (a pumper and an ambulance)."
   },
   "mesh": 1,
   "name": "Fire_Bunk",
   "rotation": [
    0,
    0.7071068286895752,
    0,
    0.7071068286895752
   ],
   "translation": [
    1.399999976158142,
    0,
    -5
   ]
  },
  {
   "extras": {
    "edit_note": "A mission building (blender/tools/build_interior_blends.py, seed blender/tools/interior_plans.py): a PLACEHOLDER shell and fit-out at its real Japanese size -- remodel freely. Keep the frame (origin = plot centre on the ground, street -Y), the floor levels, and move the Empties with what they belong to: DOOR_ (interior door, arrow OUT of the room), EXIT_ (outer door, arrow out of the building), LIFT_ (a lift: shaft floor centre at the low stop; stops / faces), MARK_ (a mission marker: kind weapon / spawn / cover ...). Keep 1.2 m clear both sides of every door. After editing: tools/building_kit/build_buildings.sh. \u6d88\u9632\u51fa\u5f35\u6240: the small fire station, one storey, two bays (a pumper and an ambulance)."
   },
   "mesh": 1,
   "name": "Fire_Bunk.001",
   "rotation": [
    0,
    0.7071068286895752,
    0,
    0.7071068286895752
   ],
   "translation": [
    3.5999999046325684,
    0,
    -5
   ]
  },
  {
   "extras": {
    "edit_note": "A mission building (blender/tools/build_interior_blends.py, seed blender/tools/interior_plans.py): a PLACEHOLDER shell and fit-out at its real Japanese size -- remodel freely. Keep the frame (origin = plot centre on the ground, street -Y), the floor levels, and move the Empties with what they belong to: DOOR_ (interior door, arrow OUT of the room), EXIT_ (outer door, arrow out of the building), LIFT_ (a lift: shaft floor centre at the low stop; stops / faces), MARK_ (a mission marker: kind weapon / spawn / cover ...). Keep 1.2 m clear both sides of every door. After editing: tools/building_kit/build_buildings.sh. \u6d88\u9632\u51fa\u5f35\u6240: the small fire station, one storey, two bays (a pumper and an ambulance)."
   },
   "mesh": 2,
   "name": "Fire_GearRack",
   "translation": [
    -7,
    0,
    -0.6000000238418579
   ]
  },
  {
   "extras": {
    "edit_note": "A mission building (blender/tools/build_interior_blends.py, seed blender/tools/interior_plans.py): a PLACEHOLDER shell and fit-out at its real Japanese size -- remodel freely. Keep the frame (origin = plot centre on the ground, street -Y), the floor levels, and move the Empties with what they belong to: DOOR_ (interior door, arrow OUT of the room), EXIT_ (outer door, arrow out of the building), LIFT_ (a lift: shaft floor centre at the low stop; stops / faces), MARK_ (a mission marker: kind weapon / spawn / cover ...). Keep 1.2 m clear both sides of every door. After editing: tools/building_kit/build_buildings.sh. \u6d88\u9632\u51fa\u5f35\u6240: the small fire station, one storey, two bays (a pumper and an ambulance)."
   },
   "mesh": 2,
   "name": "Fire_GearRack.001",
   "translation": [
    -1.2999999523162842,
    0,
    -0.6000000238418579
   ]
  },
  {
   "extras": {
    "edit_note": "A mission building (blender/tools/build_interior_blends.py, seed blender/tools/interior_plans.py): a PLACEHOLDER shell and fit-out at its real Japanese size -- remodel freely. Keep the frame (origin = plot centre on the ground, street -Y), the floor levels, and move the Empties with what they belong to: DOOR_ (interior door, arrow OUT of the room), EXIT_ (outer door, arrow out of the building), LIFT_ (a lift: shaft floor centre at the low stop; stops / faces), MARK_ (a mission marker: kind weapon / spawn / cover ...). Keep 1.2 m clear both sides of every door. After editing: tools/building_kit/build_buildings.sh. \u6d88\u9632\u51fa\u5f35\u6240: the small fire station, one storey, two bays (a pumper and an ambulance)."
   },
   "mesh": 3,
   "name": "Glazing"
  },
  {
   "extras": {
    "edit_note": "A mission building (blender/tools/build_interior_blends.py, seed blender/tools/interior_plans.py): a PLACEHOLDER shell and fit-out at its real Japanese size -- remodel freely. Keep the frame (origin = plot centre on the ground, street -Y), the floor levels, and move the Empties with what they belong to: DOOR_ (interior door, arrow OUT of the room), EXIT_ (outer door, arrow out of the building), LIFT_ (a lift: shaft floor centre at the low stop; stops / faces), MARK_ (a mission marker: kind weapon / spawn / cover ...). Keep 1.2 m clear both sides of every door. After editing: tools/building_kit/build_buildings.sh. \u6d88\u9632\u51fa\u5f35\u6240: the small fire station, one storey, two bays (a pumper and an ambulance)."
   },
   "mesh": 4,
   "name": "Kitchen_Fridge",
   "rotation": [
    0,
    -0.7071068286895752,
    0,
    0.7071068286895752
   ],
   "translation": [
    7.199999809265137,
    0,
    2.5999999046325684
   ]
  },
  {
   "extras": {
    "edit_note": "A mission building (blender/tools/build_interior_blends.py, seed blender/tools/interior_plans.py): a PLACEHOLDER shell and fit-out at its real Japanese size -- remodel freely. Keep the frame (origin = plot centre on the ground, street -Y), the floor levels, and move the Empties with what they belong to: DOOR_ (interior door, arrow OUT of the room), EXIT_ (outer door, arrow out of the building), LIFT_ (a lift: shaft floor centre at the low stop; stops / faces), MARK_ (a mission marker: kind weapon / spawn / cover ...). Keep 1.2 m clear both sides of every door. After editing: tools/building_kit/build_buildings.sh. \u6d88\u9632\u51fa\u5f35\u6240: the small fire station, one storey, two bays (a pumper and an ambulance)."
   },
   "mesh": 5,
   "name": "Kitchen_Sink",
   "rotation": [
    0,
    -0.7071068286895752,
    0,
    0.7071068286895752
   ],
   "translation": [
    7.349999904632568,
    0,
    0.6000000238418579
   ]
  },
  {
   "extras": {
    "edit_note": "A mission building (blender/tools/build_interior_blends.py, seed blender/tools/interior_plans.py): a PLACEHOLDER shell and fit-out at its real Japanese size -- remodel freely. Keep the frame (origin = plot centre on the ground, street -Y), the floor levels, and move the Empties with what they belong to: DOOR_ (interior door, arrow OUT of the room), EXIT_ (outer door, arrow out of the building), LIFT_ (a lift: shaft floor centre at the low stop; stops / faces), MARK_ (a mission marker: kind weapon / spawn / cover ...). Keep 1.2 m clear both sides of every door. After editing: tools/building_kit/build_buildings.sh. \u6d88\u9632\u51fa\u5f35\u6240: the small fire station, one storey, two bays (a pumper and an ambulance)."
   },
   "mesh": 6,
   "name": "Office_Cabinet",
   "rotation": [
    0,
    0.7071068286895752,
    0,
    0.7071068286895752
   ],
   "translation": [
    0.44999998807907104,
    0,
    5
   ]
  },
  {
   "extras": {
    "edit_note": "A mission building (blender/tools/build_interior_blends.py, seed blender/tools/interior_plans.py): a PLACEHOLDER shell and fit-out at its real Japanese size -- remodel freely. Keep the frame (origin = plot centre on the ground, street -Y), the floor levels, and move the Empties with what they belong to: DOOR_ (interior door, arrow OUT of the room), EXIT_ (outer door, arrow out of the building), LIFT_ (a lift: shaft floor centre at the low stop; stops / faces), MARK_ (a mission marker: kind weapon / spawn / cover ...). Keep 1.2 m clear both sides of every door. After editing: tools/building_kit/build_buildings.sh. \u6d88\u9632\u51fa\u5f35\u6240: the small fire station, one storey, two bays (a pumper and an ambulance)."
   },
   "mesh": 7,
   "name": "Office_Chair",
   "rotation": [
    0,
    -1,
    0,
    4.371138828673793e-08
   ],
   "translation": [
    2.200000047683716,
    0,
    4.349999904632568
   ]
  },
  {
   "extras": {
    "edit_note": "A mission building (blender/tools/build_interior_blends.py, seed blender/tools/interior_plans.py): a PLACEHOLDER shell and fit-out at its real Japanese size -- remodel freely. Keep the frame (origin = plot centre on the ground, street -Y), the floor levels, and move the Empties with what they belong to: DOOR_ (interior door, arrow OUT of the room), EXIT_ (outer door, arrow out of the building), LIFT_ (a lift: shaft floor centre at the low stop; stops / faces), MARK_ (a mission marker: kind weapon / spawn / cover ...). Keep 1.2 m clear both sides of every door. After editing: tools/building_kit/build_buildings.sh. \u6d88\u9632\u51fa\u5f35\u6240: the small fire station, one storey, two bays (a pumper and an ambulance)."
   },
   "mesh": 7,
   "name": "Office_Chair.001",
   "rotation": [
    0,
    -1,
    0,
    4.371138828673793e-08
   ],
   "translation": [
    7,
    0,
    4.349999904632568
   ]
  },
  {
   "extras": {
    "edit_note": "A mission building (blender/tools/build_interior_blends.py, seed blender/tools/interior_plans.py): a PLACEHOLDER shell and fit-out at its real Japanese size -- remodel freely. Keep the frame (origin = plot centre on the ground, street -Y), the floor levels, and move the Empties with what they belong to: DOOR_ (interior door, arrow OUT of the room), EXIT_ (outer door, arrow out of the building), LIFT_ (a lift: shaft floor centre at the low stop; stops / faces), MARK_ (a mission marker: kind weapon / spawn / cover ...). Keep 1.2 m clear both sides of every door. After editing: tools/building_kit/build_buildings.sh. \u6d88\u9632\u51fa\u5f35\u6240: the small fire station, one storey, two bays (a pumper and an ambulance)."
   },
   "mesh": 8,
   "name": "Office_Desk",
   "translation": [
    2.200000047683716,
    0,
    5
   ]
  },
  {
   "extras": {
    "edit_note": "A mission building (blender/tools/build_interior_blends.py, seed blender/tools/interior_plans.py): a PLACEHOLDER shell and fit-out at its real Japanese size -- remodel freely. Keep the frame (origin = plot centre on the ground, street -Y), the floor levels, and move the Empties with what they belong to: DOOR_ (interior door, arrow OUT of the room), EXIT_ (outer door, arrow out of the building), LIFT_ (a lift: shaft floor centre at the low stop; stops / faces), MARK_ (a mission marker: kind weapon / spawn / cover ...). Keep 1.2 m clear both sides of every door. After editing: tools/building_kit/build_buildings.sh. \u6d88\u9632\u51fa\u5f35\u6240: the small fire station, one storey, two bays (a pumper and an ambulance)."
   },
   "mesh": 8,
   "name": "Office_Desk.001",
   "translation": [
    7,
    0,
    5
   ]
  },
  {
   "extras": {
    "edit_note": "A mission building (blender/tools/build_interior_blends.py, seed blender/tools/interior_plans.py): a PLACEHOLDER shell and fit-out at its real Japanese size -- remodel freely. Keep the frame (origin = plot centre on the ground, street -Y), the floor levels, and move the Empties with what they belong to: DOOR_ (interior door, arrow OUT of the room), EXIT_ (outer door, arrow out of the building), LIFT_ (a lift: shaft floor centre at the low stop; stops / faces), MARK_ (a mission marker: kind weapon / spawn / cover ...). Keep 1.2 m clear both sides of every door. After editing: tools/building_kit/build_buildings.sh. \u6d88\u9632\u51fa\u5f35\u6240: the small fire station, one storey, two bays (a pumper and an ambulance)."
   },
   "mesh": 9,
   "name": "Office_Locker",
   "translation": [
    2.5,
    0,
    -7.5
   ]
  },
  {
   "extras": {
    "edit_note": "A mission building (blender/tools/build_interior_blends.py, seed blender/tools/interior_plans.py): a PLACEHOLDER shell and fit-out at its real Japanese size -- remodel freely. Keep the frame (origin = plot centre on the ground, street -Y), the floor levels, and move the Empties with what they belong to: DOOR_ (interior door, arrow OUT of the room), EXIT_ (outer door, arrow out of the building), LIFT_ (a lift: shaft floor centre at the low stop; stops / faces), MARK_ (a mission marker: kind weapon / spawn / cover ...). Keep 1.2 m clear both sides of every door. After editing: tools/building_kit/build_buildings.sh. \u6d88\u9632\u51fa\u5f35\u6240: the small fire station, one storey, two bays (a pumper and an ambulance)."
   },
   "mesh": 10,
   "name": "Office_Reception",
   "translation": [
    4.5,
    0,
    7.800000190734863
   ]
  },
  {
   "extras": {
    "edit_note": "A mission building (blender/tools/build_interior_blends.py, seed blender/tools/interior_plans.py): a PLACEHOLDER shell and fit-out at its real Japanese size -- remodel freely. Keep the frame (origin = plot centre on the ground, street -Y), the floor levels, and move the Empties with what they belong to: DOOR_ (interior door, arrow OUT of the room), EXIT_ (outer door, arrow out of the building), LIFT_ (a lift: shaft floor centre at the low stop; stops / faces), MARK_ (a mission marker: kind weapon / spawn / cover ...). Keep 1.2 m clear both sides of every door. After editing: tools/building_kit/build_buildings.sh. \u6d88\u9632\u51fa\u5f35\u6240: the small fire station, one storey, two bays (a pumper and an ambulance)."
   },
   "mesh": 11,
   "name": "Office_Sofa",
   "rotation": [
    0,
    0.7071068286895752,
    0,
    0.7071068286895752
   ],
   "translation": [
    1,
    0,
    -0.4000000059604645
   ]
  },
  {
   "extras": {
    "edit_note": "A mission building (blender/tools/build_interior_blends.py, seed blender/tools/interior_plans.py): a PLACEHOLDER shell and fit-out at its real Japanese size -- remodel freely. Keep the frame (origin = plot centre on the ground, street -Y), the floor levels, and move the Empties with what they belong to: DOOR_ (interior door, arrow OUT of the room), EXIT_ (outer door, arrow out of the building), LIFT_ (a lift: shaft floor centre at the low stop; stops / faces), MARK_ (a mission marker: kind weapon / spawn / cover ...). Keep 1.2 m clear both sides of every door. After editing: tools/building_kit/build_buildings.sh. \u6d88\u9632\u51fa\u5f35\u6240: the small fire station, one storey, two bays (a pumper and an ambulance)."
   },
   "mesh": 12,
   "name": "Rest_Chair",
   "translation": [
    3.450000047683716,
    0,
    1.5499999523162842
   ]
  },
  {
   "extras": {
    "edit_note": "A mission building (blender/tools/build_interior_blends.py, seed blender/tools/interior_plans.py): a PLACEHOLDER shell and fit-out at its real Japanese size -- remodel freely. Keep the frame (origin = plot centre on the ground, street -Y), the floor levels, and move the Empties with what they belong to: DOOR_ (interior door, arrow OUT of the room), EXIT_ (outer door, arrow out of the building), LIFT_ (a lift: shaft floor centre at the low stop; stops / faces), MARK_ (a mission marker: kind weapon / spawn / cover ...). Keep 1.2 m clear both sides of every door. After editing: tools/building_kit/build_buildings.sh. \u6d88\u9632\u51fa\u5f35\u6240: the small fire station, one storey, two bays (a pumper and an ambulance)."
   },
   "mesh": 12,
   "name": "Rest_Chair.001",
   "rotation": [
    0,
    -1,
    0,
    4.371138828673793e-08
   ],
   "translation": [
    3.450000047683716,
    0,
    0.05000000074505806
   ]
  },
  {
   "extras": {
    "edit_note": "A mission building (blender/tools/build_interior_blends.py, seed blender/tools/interior_plans.py): a PLACEHOLDER shell and fit-out at its real Japanese size -- remodel freely. Keep the frame (origin = plot centre on the ground, street -Y), the floor levels, and move the Empties with what they belong to: DOOR_ (interior door, arrow OUT of the room), EXIT_ (outer door, arrow out of the building), LIFT_ (a lift: shaft floor centre at the low stop; stops / faces), MARK_ (a mission marker: kind weapon / spawn / cover ...). Keep 1.2 m clear both sides of every door. After editing: tools/building_kit/build_buildings.sh. \u6d88\u9632\u51fa\u5f35\u6240: the small fire station, one storey, two bays (a pumper and an ambulance)."
   },
   "mesh": 12,
   "name": "Rest_Chair.002",
   "translation": [
    4.150000095367432,
    0,
    1.5499999523162842
   ]
  },
  {
   "extras": {
    "edit_note": "A mission building (blender/tools/build_interior_blends.py, seed blender/tools/interior_plans.py): a PLACEHOLDER shell and fit-out at its real Japanese size -- remodel freely. Keep the frame (origin = plot centre on the ground, street -Y), the floor levels, and move the Empties with what they belong to: DOOR_ (interior door, arrow OUT of the room), EXIT_ (outer door, arrow out of the building), LIFT_ (a lift: shaft floor centre at the low stop; stops / faces), MARK_ (a mission marker: kind weapon / spawn / cover ...). Keep 1.2 m clear both sides of every door. After editing: tools/building_kit/build_buildings.sh. \u6d88\u9632\u51fa\u5f35\u6240: the small fire station, one storey, two bays (a pumper and an ambulance)."
   },
   "mesh": 12,
   "name": "Rest_Chair.003",
   "rotation": [
    0,
    -1,
    0,
    4.371138828673793e-08
   ],
   "translation": [
    4.150000095367432,
    0,
    0.05000000074505806
   ]
  },
  {
   "extras": {
    "edit_note": "A mission building (blender/tools/build_interior_blends.py, seed blender/tools/interior_plans.py): a PLACEHOLDER shell and fit-out at its real Japanese size -- remodel freely. Keep the frame (origin = plot centre on the ground, street -Y), the floor levels, and move the Empties with what they belong to: DOOR_ (interior door, arrow OUT of the room), EXIT_ (outer door, arrow out of the building), LIFT_ (a lift: shaft floor centre at the low stop; stops / faces), MARK_ (a mission marker: kind weapon / spawn / cover ...). Keep 1.2 m clear both sides of every door. After editing: tools/building_kit/build_buildings.sh. \u6d88\u9632\u51fa\u5f35\u6240: the small fire station, one storey, two bays (a pumper and an ambulance)."
   },
   "mesh": 13,
   "name": "Rest_Table",
   "translation": [
    3.799999952316284,
    0,
    0.800000011920929
   ]
  },
  {
   "extras": {
    "edit_note": "A mission building (blender/tools/build_interior_blends.py, seed blender/tools/interior_plans.py): a PLACEHOLDER shell and fit-out at its real Japanese size -- remodel freely. Keep the frame (origin = plot centre on the ground, street -Y), the floor levels, and move the Empties with what they belong to: DOOR_ (interior door, arrow OUT of the room), EXIT_ (outer door, arrow out of the building), LIFT_ (a lift: shaft floor centre at the low stop; stops / faces), MARK_ (a mission marker: kind weapon / spawn / cover ...). Keep 1.2 m clear both sides of every door. After editing: tools/building_kit/build_buildings.sh. \u6d88\u9632\u51fa\u5f35\u6240: the small fire station, one storey, two bays (a pumper and an ambulance)."
   },
   "mesh": 14,
   "name": "Roof"
  },
  {
   "extras": {
    "edit_note": "A mission building (blender/tools/build_interior_blends.py, seed blender/tools/interior_plans.py): a PLACEHOLDER shell and fit-out at its real Japanese size -- remodel freely. Keep the frame (origin = plot centre on the ground, street -Y), the floor levels, and move the Empties with what they belong to: DOOR_ (interior door, arrow OUT of the room), EXIT_ (outer door, arrow out of the building), LIFT_ (a lift: shaft floor centre at the low stop; stops / faces), MARK_ (a mission marker: kind weapon / spawn / cover ...). Keep 1.2 m clear both sides of every door. After editing: tools/building_kit/build_buildings.sh. \u6d88\u9632\u51fa\u5f35\u6240: the small fire station, one storey, two bays (a pumper and an ambulance)."
   },
   "mesh": 15,
   "name": "Shop_StockShelf",
   "translation": [
    -6.199999809265137,
    0,
    -7.400000095367432
   ]
  },
  {
   "extras": {
    "edit_note": "A mission building (blender/tools/build_interior_blends.py, seed blender/tools/interior_plans.py): a PLACEHOLDER shell and fit-out at its real Japanese size -- remodel freely. Keep the frame (origin = plot centre on the ground, street -Y), the floor levels, and move the Empties with what they belong to: DOOR_ (interior door, arrow OUT of the room), EXIT_ (outer door, arrow out of the building), LIFT_ (a lift: shaft floor centre at the low stop; stops / faces), MARK_ (a mission marker: kind weapon / spawn / cover ...). Keep 1.2 m clear both sides of every door. After editing: tools/building_kit/build_buildings.sh. \u6d88\u9632\u51fa\u5f35\u6240: the small fire station, one storey, two bays (a pumper and an ambulance)."
   },
   "mesh": 15,
   "name": "Shop_StockShelf.001",
   "translation": [
    -1.600000023841858,
    0,
    -7.400000095367432
   ]
  },
  {
   "extras": {
    "edit_note": "A mission building (blender/tools/build_interior_blends.py, seed blender/tools/interior_plans.py): a PLACEHOLDER shell and fit-out at its real Japanese size -- remodel freely. Keep the frame (origin = plot centre on the ground, street -Y), the floor levels, and move the Empties with what they belong to: DOOR_ (interior door, arrow OUT of the room), EXIT_ (outer door, arrow out of the building), LIFT_ (a lift: shaft floor centre at the low stop; stops / faces), MARK_ (a mission marker: kind weapon / spawn / cover ...). Keep 1.2 m clear both sides of every door. After editing: tools/building_kit/build_buildings.sh. \u6d88\u9632\u51fa\u5f35\u6240: the small fire station, one storey, two bays (a pumper and an ambulance)."
   },
   "mesh": 16,
   "name": "Site"
  },
  {
   "extras": {
    "edit_note": "A mission building (blender/tools/build_interior_blends.py, seed blender/tools/interior_plans.py): a PLACEHOLDER shell and fit-out at its real Japanese size -- remodel freely. Keep the frame (origin = plot centre on the ground, street -Y), the floor levels, and move the Empties with what they belong to: DOOR_ (interior door, arrow OUT of the room), EXIT_ (outer door, arrow out of the building), LIFT_ (a lift: shaft floor centre at the low stop; stops / faces), MARK_ (a mission marker: kind weapon / spawn / cover ...). Keep 1.2 m clear both sides of every door. After editing: tools/building_kit/build_buildings.sh. \u6d88\u9632\u51fa\u5f35\u6240: the small fire station, one storey, two bays (a pumper and an ambulance)."
   },
   "mesh": 17,
   "name": "Structure"
  },
  {
   "extras": {
    "edit_note": "A mission building (blender/tools/build_interior_blends.py, seed blender/tools/interior_plans.py): a PLACEHOLDER shell and fit-out at its real Japanese size -- remodel freely. Keep the frame (origin = plot centre on the ground, street -Y), the floor levels, and move the Empties with what they belong to: DOOR_ (interior door, arrow OUT of the room), EXIT_ (outer door, arrow out of the building), LIFT_ (a lift: shaft floor centre at the low stop; stops / faces), MARK_ (a mission marker: kind weapon / spawn / cover ...). Keep 1.2 m clear both sides of every door. After editing: tools/building_kit/build_buildings.sh. \u6d88\u9632\u51fa\u5f35\u6240: the small fire station, one storey, two bays (a pumper and an ambulance)."
   },
   "mesh": 18,
   "name": "Walls_0"
  },
  {
   "extras": {
    "edit_note": "A mission building (blender/tools/build_interior_blends.py, seed blender/tools/interior_plans.py): a PLACEHOLDER shell and fit-out at its real Japanese size -- remodel freely. Keep the frame (origin = plot centre on the ground, street -Y), the floor levels, and move the Empties with what they belong to: DOOR_ (interior door, arrow OUT of the room), EXIT_ (outer door, arrow out of the building), LIFT_ (a lift: shaft floor centre at the low stop; stops / faces), MARK_ (a mission marker: kind weapon / spawn / cover ...). Keep 1.2 m clear both sides of every door. After editing: tools/building_kit/build_buildings.sh. \u6d88\u9632\u51fa\u5f35\u6240: the small fire station, one storey, two bays (a pumper and an ambulance)."
   },
   "mesh": 19,
   "name": "Warehouse_Pallet",
   "translation": [
    -6.900000095367432,
    0,
    -3.200000047683716
   ]
  },
  {
   "extras": {
    "edit_note": "A mission building (blender/tools/build_interior_blends.py, seed blender/tools/interior_plans.py): a PLACEHOLDER shell and fit-out at its real Japanese size -- remodel freely. Keep the frame (origin = plot centre on the ground, street -Y), the floor levels, and move the Empties with what they belong to: DOOR_ (interior door, arrow OUT of the room), EXIT_ (outer door, arrow out of the building), LIFT_ (a lift: shaft floor centre at the low stop; stops / faces), MARK_ (a mission marker: kind weapon / spawn / cover ...). Keep 1.2 m clear both sides of every door. After editing: tools/building_kit/build_buildings.sh. \u6d88\u9632\u51fa\u5f35\u6240: the small fire station, one storey, two bays (a pumper and an ambulance)."
   },
   "mesh": 20,
   "name": "WC_Basin",
   "rotation": [
    0,
    0.7071068286895752,
    0,
    0.7071068286895752
   ],
   "translation": [
    7.550000190734863,
    0,
    -4
   ]
  },
  {
   "extras": {
    "edit_note": "A mission building (blender/tools/build_interior_blends.py, seed blender/tools/interior_plans.py): a PLACEHOLDER shell and fit-out at its real Japanese size -- remodel freely. Keep the frame (origin = plot centre on the ground, street -Y), the floor levels, and move the Empties with what they belong to: DOOR_ (interior door, arrow OUT of the room), EXIT_ (outer door, arrow out of the building), LIFT_ (a lift: shaft floor centre at the low stop; stops / faces), MARK_ (a mission marker: kind weapon / spawn / cover ...). Keep 1.2 m clear both sides of every door. After editing: tools/building_kit/build_buildings.sh. \u6d88\u9632\u51fa\u5f35\u6240: the small fire station, one storey, two bays (a pumper and an ambulance)."
   },
   "mesh": 21,
   "name": "WC_Toilet",
   "translation": [
    6.300000190734863,
    0,
    -7.429999828338623
   ]
  }
 ],
 "materials": [
  {
   "doubleSided": true,
   "name": "MI_TileWhite",
   "pbrMetallicRoughness": {
    "baseColorFactor": [
     0.8136419057846069,
     0.8136419057846069,
     0.8136419057846069,
     1
    ],
    "metallicFactor": 0,
    "roughnessFactor": 0.699999988079071
   }
  },
  {
   "doubleSided": true,
   "name": "MI_Plaster",
   "pbrMetallicRoughness": {
    "baseColorFactor": [
     0.8999999761581421,
     0.8899999856948853,
     0.8600000143051147,
     1
    ],
    "metallicFactor": 0,
    "roughnessFactor": 0.699999988079071
   }
  },
  {
   "doubleSided": true,
   "name": "MI_CraneRed",
   "pbrMetallicRoughness": {
    "baseColorFactor": [
     0.7200000286102295,
     0.14000000059604645,
     0.10000000149011612,
     1
    ],
    "metallicFactor": 0,
    "roughnessFactor": 0.699999988079071
   }
  },
  {
   "doubleSided": true,
   "emissiveFactor": [
    1,
    0.0666666669426141,
    0.0444444446284094
   ],
   "extensions": {
    "KHR_materials_emissive_strength": {
     "emissiveStrength": 1.0800000143051136
    }
   },
   "name": "MI_SignRed",
   "pbrMetallicRoughness": {
    "baseColorFactor": [
     0.800000011920929,
     0.07999999821186066,
     0.05999999865889549,
     1
    ],
    "metallicFactor": 0,
    "roughnessFactor": 0.699999988079071
   }
  },
  {
   "doubleSided": true,
   "name": "MI_PaintedMetal",
   "pbrMetallicRoughness": {
    "baseColorFactor": [
     0.8999999761581421,
     0.8999999761581421,
     0.8899999856948853,
     1
    ],
    "metallicFactor": 0.30000001192092896,
    "roughnessFactor": 0.699999988079071
   }
  },
  {
   "doubleSided": true,
   "name": "MI_Fabric",
   "pbrMetallicRoughness": {
    "baseColorFactor": [
     0.3585456907749176,
     0.35632404685020447,
     0.3589908480644226,
     1
    ],
    "metallicFactor": 0,
    "roughnessFactor": 0.699999988079071
   }
  },
  {
   "doubleSided": true,
   "name": "MI_Steel",
   "pbrMetallicRoughness": {
    "baseColorFactor": [
     0.5726980566978455,
     0.5820889472961426,
     0.5955169796943665,
     1
    ],
    "roughnessFactor": 0.699999988079071
   }
  },
  {
   "doubleSided": true,
   "name": "MI_PaintedMetalDark",
   "pbrMetallicRoughness": {
    "baseColorFactor": [
     0.1599999964237213,
     0.17000000178813934,
     0.18000000715255737,
     1
    ],
    "metallicFactor": 0.4000000059604645,
    "roughnessFactor": 0.699999988079071
   }
  },
  {
   "doubleSided": true,
   "name": "MI_Olive",
   "pbrMetallicRoughness": {
    "baseColorFactor": [
     0.3400000035762787,
     0.3700000047683716,
     0.25,
     1
    ],
    "metallicFactor": 0,
    "roughnessFactor": 0.699999988079071
   }
  },
  {
   "doubleSided": true,
   "name": "MI_PaintYellow",
   "pbrMetallicRoughness": {
    "baseColorFactor": [
     0.949999988079071,
     0.75,
     0.10000000149011612,
     1
    ],
    "metallicFactor": 0.20000000298023224,
    "roughnessFactor": 0.699999988079071
   }
  },
  {
   "doubleSided": true,
   "name": "MI_PlasticDark",
   "pbrMetallicRoughness": {
    "baseColorFactor": [
     0.11999999731779099,
     0.11999999731779099,
     0.12999999523162842,
     1
    ],
    "metallicFactor": 0,
    "roughnessFactor": 0.6000000238418579
   }
  },
  {
   "doubleSided": true,
   "name": "MI_GlassClear",
   "pbrMetallicRoughness": {
    "baseColorFactor": [
     0.550000011920929,
     0.6800000071525574,
     0.7200000286102295,
     1
    ],
    "metallicFactor": 0.20000000298023224,
    "roughnessFactor": 0.05000000074505806
   }
  },
  {
   "doubleSided": true,
   "emissiveFactor": [
    1,
    0.9800000190734863,
    0.9399999976158142
   ],
   "extensions": {
    "KHR_materials_emissive_strength": {
     "emissiveStrength": 2
    }
   },
   "name": "MI_Light",
   "pbrMetallicRoughness": {
    "baseColorFactor": [
     1,
     1,
     0.9700000286102295,
     1
    ],
    "metallicFactor": 0,
    "roughnessFactor": 0.699999988079071
   }
  },
  {
   "doubleSided": true,
   "name": "MI_Goods",
   "pbrMetallicRoughness": {
    "baseColorFactor": [
     0.4877031445503235,
     0.42102864384651184,
     0.38213247060775757,
     1
    ],
    "metallicFactor": 0,
    "roughnessFactor": 0.5
   }
  },
  {
   "doubleSided": true,
   "name": "MI_Wood",
   "pbrMetallicRoughness": {
    "baseColorFactor": [
     0.6217582821846008,
     0.4432729184627533,
     0.2785278260707855,
     1
    ],
    "metallicFactor": 0,
    "roughnessFactor": 0.699999988079071
   }
  },
  {
   "doubleSided": true,
   "name": "MI_ConcreteSmooth",
   "pbrMetallicRoughness": {
    "baseColorFactor": [
     0.3104965388774872,
     0.3015982508659363,
     0.2871379554271698,
     1
    ],
    "metallicFactor": 0,
    "roughnessFactor": 0.699999988079071
   }
  },
  {
   "doubleSided": true,
   "name": "MI_PlasticWhite",
   "pbrMetallicRoughness": {
    "baseColorFactor": [
     0.9300000071525574,
     0.9300000071525574,
     0.9100000262260437,
     1
    ],
    "metallicFactor": 0,
    "roughnessFactor": 0.30000001192092896
   }
  },
  {
   "doubleSided": true,
   "name": "MI_Corrugated",
   "pbrMetallicRoughness": {
    "baseColorFactor": [
     0.6010030508041382,
     0.6071377396583557,
     0.6176391243934631,
     1
    ],
    "metallicFactor": 0.6000000238418579,
    "roughnessFactor": 0.699999988079071
   }
  },
  {
   "doubleSided": true,
   "emissiveFactor": [
    0.0600000032782555,
    0.15000000596046448,
    0.30000001192092896
   ],
   "name": "MI_Sign",
   "pbrMetallicRoughness": {
    "baseColorFactor": [
     0.11999999731779099,
     0.30000001192092896,
     0.550000011920929,
     1
    ],
    "metallicFactor": 0,
    "roughnessFactor": 0.699999988079071
   }
  },
  {
   "doubleSided": true,
   "name": "MI_FabricRed",
   "pbrMetallicRoughness": {
    "baseColorFactor": [
     0.44999998807907104,
     0.07999999821186066,
     0.07000000029802322,
     1
    ],
    "metallicFactor": 0,
    "roughnessFactor": 0.699999988079071
   }
  }
 ],
 "meshes": [
  {
   "name": "FireBranch_Facade",
   "primitives": [
    {
     "attributes": {
      "POSITION": 0,
      "NORMAL": 1
     },
     "indices": 2,
     "material": 0
    },
    {
     "attributes": {
      "POSITION": 3,
      "NORMAL": 4
     },
     "indices": 5,
     "material": 1
    },
    {
     "attributes": {
      "POSITION": 6,
      "NORMAL": 7
     },
     "indices": 8,
     "material": 2
    },
    {
     "attributes": {
      "POSITION": 9,
      "NORMAL": 10
     },
     "indices": 11,
     "material": 3
    }
   ]
  },
  {
   "name": "LIB_Fire_Bunk",
   "primitives": [
    {
     "attributes": {
      "POSITION": 12,
      "NORMAL": 13
     },
     "indices": 14,
     "material": 4
    },
    {
     "attributes": {
      "POSITION": 15,
      "NORMAL": 16
     },
     "indices": 17,
     "material": 5
    }
   ]
  },
  {
   "name": "LIB_Fire_GearRack",
   "primitives": [
    {
     "attributes": {
      "POSITION": 18,
      "NORMAL": 19
     },
     "indices": 11,
     "material": 6
    },
    {
     "attributes": {
      "POSITION": 20,
      "NORMAL": 21
     },
     "indices": 22,
     "material": 7
    },
    {
     "attributes": {
      "POSITION": 23,
      "NORMAL": 24
     },
     "indices": 25,
     "material": 8
    },
    {
     "attributes": {
      "POSITION": 26,
      "NORMAL": 27
     },
     "indices": 25,
     "material": 9
    },
    {
     "attributes": {
      "POSITION": 28,
      "NORMAL": 29
     },
     "indices": 25,
     "material": 10
    }
   ]
  },
  {
   "name": "FireBranch_Glazing",
   "primitives": [
    {
     "attributes": {
      "POSITION": 30,
      "NORMAL": 31
     },
     "indices": 32,
     "material": 11
    },
    {
     "attributes": {
      "POSITION": 33,
      "NORMAL": 34
     },
     "indices": 35,
     "material": 4
    }
   ]
  },
  {
   "name": "LIB_Kitchen_Fridge",
   "primitives": [
    {
     "attributes": {
      "POSITION": 36,
      "NORMAL": 37
     },
     "indices": 8,
     "material": 6
    },
    {
     "attributes": {
      "POSITION": 38,
      "NORMAL": 39
     },
     "indices": 17,
     "material": 7
    },
    {
     "attributes": {
      "POSITION": 40,
      "NORMAL": 41
     },
     "indices": 11,
     "material": 12
    }
   ]
  },
  {
   "name": "LIB_Kitchen_Sink",
   "primitives": [
    {
     "attributes": {
      "POSITION": 42,
      "NORMAL": 43
     },
     "indices": 44,
     "material": 6
    },
    {
     "attributes": {
      "POSITION": 45,
      "NORMAL": 46
     },
     "indices": 17,
     "material": 7
    }
   ]
  },
  {
   "name": "LIB_Office_Cabinet",
   "primitives": [
    {
     "attributes": {
      "POSITION": 47,
      "NORMAL": 48
     },
     "indices": 11,
     "material": 4
    },
    {
     "attributes": {
      "POSITION": 49,
      "NORMAL": 50
     },
     "indices": 11,
     "material": 11
    },
    {
     "attributes": {
      "POSITION": 51,
      "NORMAL": 52
     },
     "indices": 11,
     "material": 13
    }
   ]
  },
  {
   "name": "LIB_Office_Chair",
   "primitives": [
    {
     "attributes": {
      "POSITION": 53,
      "NORMAL": 54
     },
     "indices": 11,
     "material": 6
    },
    {
     "attributes": {
      "POSITION": 55,
      "NORMAL": 56
     },
     "indices": 11,
     "material": 10
    },
    {
     "attributes": {
      "POSITION": 57,
      "NORMAL": 58
     },
     "indices": 17,
     "material": 5
    }
   ]
  },
  {
   "name": "LIB_Office_Desk",
   "primitives": [
    {
     "attributes": {
      "POSITION": 59,
      "NORMAL": 60
     },
     "indices": 11,
     "material": 14
    },
    {
     "attributes": {
      "POSITION": 61,
      "NORMAL": 62
     },
     "indices": 17,
     "material": 4
    },
    {
     "attributes": {
      "POSITION": 63,
      "NORMAL": 64
     },
     "indices": 11,
     "material": 10
    }
   ]
  },
  {
   "name": "LIB_Office_Locker",
   "primitives": [
    {
     "attributes": {
      "POSITION": 65,
      "NORMAL": 66
     },
     "indices": 11,
     "material": 4
    },
    {
     "attributes": {
      "POSITION": 67,
      "NORMAL": 68
     },
     "indices": 8,
     "material": 7
    }
   ]
  },
  {
   "name": "LIB_Office_Reception",
   "primitives": [
    {
     "attributes": {
      "POSITION": 69,
      "NORMAL": 70
     },
     "indices": 71,
     "material": 14
    },
    {
     "attributes": {
      "POSITION": 72,
      "NORMAL": 73
     },
     "indices": 11,
     "material": 6
    },
    {
     "attributes": {
      "POSITION": 74,
      "NORMAL": 75
     },
     "indices": 17,
     "material": 10
    }
   ]
  },
  {
   "name": "LIB_Office_Sofa",
   "primitives": [
    {
     "attributes": {
      "POSITION": 76,
      "NORMAL": 77
     },
     "indices": 78,
     "material": 5
    }
   ]
  },
  {
   "extras": {
    "placeholder_note": "REMOVED 2026-09-28: base mesh was from elbolilloduro BurgerPiz pack (base mesh removed); this is a same-size PLACEHOLDER BOX, needs a modeller (see kits/library/placeholders.json)"
   },
   "name": "LIB_Rest_Chair",
   "primitives": [
    {
     "attributes": {
      "POSITION": 79,
      "NORMAL": 80
     },
     "indices": 81,
     "material": 14
    }
   ]
  },
  {
   "extras": {
    "placeholder_note": "REMOVED 2026-09-28: base mesh was from elbolilloduro BurgerPiz pack (base mesh removed); this is a same-size PLACEHOLDER BOX, needs a modeller (see kits/library/placeholders.json)"
   },
   "name": "LIB_Rest_Table",
   "primitives": [
    {
     "attributes": {
      "POSITION": 82,
      "NORMAL": 83
     },
     "indices": 81,
     "material": 14
    }
   ]
  },
  {
   "name": "FireBranch_Roof",
   "primitives": [
    {
     "attributes": {
      "POSITION": 84,
      "NORMAL": 85
     },
     "indices": 86,
     "material": 15
    },
    {
     "attributes": {
      "POSITION": 87,
      "NORMAL": 88
     },
     "indices": 17,
     "material": 16
    }
   ]
  },
  {
   "extras": {
    "placeholder_note": "REMOVED 2026-09-28: base mesh was from elbolilloduro 6TWELVE pack (base mesh removed); this is a same-size PLACEHOLDER BOX, needs a modeller (see kits/library/placeholders.json)"
   },
   "name": "LIB_Shop_StockShelf",
   "primitives": [
    {
     "attributes": {
      "POSITION": 89,
      "NORMAL": 90
     },
     "indices": 81,
     "material": 7
    }
   ]
  },
  {
   "name": "FireBranch_Site",
   "primitives": [
    {
     "attributes": {
      "POSITION": 91,
      "NORMAL": 92
     },
     "indices": 11,
     "material": 15
    }
   ]
  },
  {
   "name": "FireBranch_Structure",
   "primitives": [
    {
     "attributes": {
      "POSITION": 93,
      "NORMAL": 94
     },
     "indices": 11,
     "material": 15
    }
   ]
  },
  {
   "name": "FireBranch_Walls_0",
   "primitives": [
    {
     "attributes": {
      "POSITION": 95,
      "NORMAL": 96
     },
     "indices": 97,
     "material": 1
    }
   ]
  },
  {
   "name": "LIB_Warehouse_Pallet",
   "primitives": [
    {
     "attributes": {
      "POSITION": 98,
      "NORMAL": 99
     },
     "indices": 11,
     "material": 14
    },
    {
     "attributes": {
      "POSITION": 100,
      "NORMAL": 101
     },
     "indices": 11,
     "material": 17
    }
   ]
  },
  {
   "name": "LIB_WC_Basin",
   "primitives": [
    {
     "attributes": {
      "POSITION": 102,
      "NORMAL": 103
     },
     "indices": 11,
     "material": 16
    },
    {
     "attributes": {
      "POSITION": 104,
      "NORMAL": 105
     },
     "indices": 11,
     "material": 0
    },
    {
     "attributes": {
      "POSITION": 106,
      "NORMAL": 107
     },
     "indices": 108,
     "material": 6
    }
   ]
  },
  {
   "name": "LIB_WC_Toilet",
   "primitives": [
    {
     "attributes": {
      "POSITION": 109,
      "NORMAL": 110
     },
     "indices": 111,
     "material": 16
    },
    {
     "attributes": {
      "POSITION": 112,
      "NORMAL": 113
     },
     "indices": 11,
     "material": 10
    },
    {
     "attributes": {
      "POSITION": 114,
      "NORMAL": 115
     },
     "indices": 11,
     "material": 18
    },
    {
     "attributes": {
      "POSITION": 116,
      "NORMAL": 117
     },
     "indices": 11,
     "material": 19
    },
    {
     "attributes": {
      "POSITION": 118,
      "NORMAL": 119
     },
     "indices": 11,
     "material": 12
    },
    {
     "attributes": {
      "POSITION": 120,
      "NORMAL": 121
     },
     "indices": 11,
     "material": 6
    }
   ]
  }
 ],
 "accessors": [
  {
   "bufferView": 0,
   "componentType": 5126,
   "count": 490,
   "max": [
    8,
    5.400000095367432,
    10
   ],
   "min": [
    -8,
    0,
    -8
   ],
   "type": "VEC3"
  },
  {
   "bufferView": 1,
   "componentType": 5126,
   "count": 490,
   "type": "VEC3"
  },
  {
   "bufferView": 2,
   "componentType": 5123,
   "count": 876,
   "type": "SCALAR"
  },
  {
   "bufferView": 3,
   "componentType": 5126,
   "count": 502,
   "max": [
    8,
    5.400000095367432,
    9.899999618530273
   ],
   "min": [
    -8,
    0,
    -7.900000095367432
   ],
   "type": "VEC3"
  },
  {
   "bufferView": 4,
   "componentType": 5126,
   "count": 502,
   "type": "VEC3"
  },
  {
   "bufferView": 5,
   "componentType": 5123,
   "count": 906,
   "type": "SCALAR"
  },
  {
   "bufferView": 6,
   "componentType": 5126,
   "count": 72,
   "max": [
    8,
    5.300000190734863,
    10.350000381469727
   ],
   "min": [
    -8,
    4.25,
    10
   ],
   "type": "VEC3"
  },
  {
   "bufferView": 7,
   "componentType": 5126,
   "count": 72,
   "type": "VEC3"
  },
  {
   "bufferView": 8,
   "componentType": 5123,
   "count": 108,
   "type": "SCALAR"
  },
  {
   "bufferView": 9,
   "componentType": 5126,
   "count": 24,
   "max": [
    7,
    3.5999999046325684,
    10.350000381469727
   ],
   "min": [
    2.5,
    3,
    10.199999809265137
   ],
   "type": "VEC3"
  },
  {
   "bufferView": 10,
   "componentType": 5126,
   "count": 24,
   "type": "VEC3"
  },
  {
   "bufferView": 11,
   "componentType": 5123,
   "count": 36,
   "type": "SCALAR"
  },
  {
   "bufferView": 12,
   "componentType": 5126,
   "count": 144,
   "max": [
    1,
    1.7000000476837158,
    0.46000000834465027
   ],
   "min": [
    -1,
    0,
    -0.46000000834465027
   ],
   "type": "VEC3"
  },
  {
   "bufferView": 13,
   "componentType": 5126,
   "count": 144,
   "type": "VEC3"
  },
  {
   "bufferView": 14,
   "componentType": 5123,
   "count": 216,
   "type": "SCALAR"
  },
  {
   "bufferView": 15,
   "componentType": 5126,
   "count": 48,
   "max": [
    0.949999988079071,
    1.399999976158142,
    0.4000000059604645
   ],
   "min": [
    -0.949999988079071,
    0.3799999952316284,
    -0.4000000059604645
   ],
   "type": "VEC3"
  },
  {
   "bufferView": 16,
   "componentType": 5126,
   "count": 48,
   "type": "VEC3"
  },
  {
   "bufferView": 17,
   "componentType": 5123,
   "count": 72,
   "type": "SCALAR"
  },
  {
   "bufferView": 18,
   "componentType": 5126,
   "count": 24,
   "max": [
    0.8999999761581421,
    1.899999976158142,
    -0.25
   ],
   "min": [
    -0.8999999761581421,
    0,
    -0.30000001192092896
   ],
   "type": "VEC3"
  },
  {
   "bufferView": 19,
   "componentType": 5126,
   "count": 24,
   "type": "VEC3"
  },
  {
   "bufferView": 20,
   "componentType": 5126,
   "count": 24,
   "max": [
    0.8999999761581421,
    0.05000000074505806,
    0.30000001192092896
   ],
   "min": [
    -0.8999999761581421,
    0,
    -0.30000001192092896
   ],
   "type": "VEC3"
  },
  {
   "bufferView": 21,
   "componentType": 5126,
   "count": 24,
   "type": "VEC3"
  },
  {
   "bufferView": 22,
   "componentType": 5123,
   "count": 36,
   "type": "SCALAR"
  },
  {
   "bufferView": 23,
   "componentType": 5126,
   "count": 96,
   "max": [
    0.8700000047683716,
    1.600000023841858,
    0.05000000074505806
   ],
   "min": [
    -0.8799999952316284,
    0.8999999761581421,
    -0.25
   ],
   "type": "VEC3"
  },
  {
   "bufferView": 24,
   "componentType": 5126,
   "count": 96,
   "type": "VEC3"
  },
  {
   "bufferView": 25,
   "componentType": 5123,
   "count": 144,
   "type": "SCALAR"
  },
  {
   "bufferView": 26,
   "componentType": 5126,
   "count": 96,
   "max": [
    0.8199999928474426,
    1.850000023841858,
    0.10000000149011612
   ],
   "min": [
    -0.8299999833106995,
    1.6200000047683716,
    -0.20000000298023224
   ],
   "type": "VEC3"
  },
  {
   "bufferView": 27,
   "componentType": 5126,
   "count": 96,
   "type": "VEC3"
  },
  {
   "bufferView": 28,
   "componentType": 5126,
   "count": 96,
   "max": [
    0.8500000238418579,
    0.44999998807907104,
    0.20000000298023224
   ],
   "min": [
    -0.8600000143051147,
    0.05000000074505806,
    -0.20000000298023224
   ],
   "type": "VEC3"
  },
  {
   "bufferView": 29,
   "componentType": 5126,
   "count": 96,
   "type": "VEC3"
  },
  {
   "bufferView": 30,
   "componentType": 5126,
   "count": 120,
   "max": [
    7.9120001792907715,
    2.4000000953674316,
    9.911999702453613
   ],
   "min": [
    0.800000011920929,
    0.8999999761581421,
    -6
   ],
   "type": "VEC3"
  },
  {
   "bufferView": 31,
   "componentType": 5126,
   "count": 120,
   "type": "VEC3"
  },
  {
   "bufferView": 32,
   "componentType": 5123,
   "count": 180,
   "type": "SCALAR"
  },
  {
   "bufferView": 33,
   "componentType": 5126,
   "count": 560,
   "max": [
    8.010000228881836,
    2.450000047683716,
    10.010000228881836
   ],
   "min": [
    -4.300000190734863,
    -0.05000000074505806,
    -8.010000228881836
   ],
   "type": "VEC3"
  },
  {
   "bufferView": 34,
   "componentType": 5126,
   "count": 560,
   "type": "VEC3"
  },
  {
   "bufferView": 35,
   "componentType": 5123,
   "count": 1008,
   "type": "SCALAR"
  },
  {
   "bufferView": 36,
   "componentType": 5126,
   "count": 72,
   "max": [
    0.6000000238418579,
    1.899999976158142,
    0.4099999964237213
   ],
   "min": [
    -0.6000000238418579,
    0,
    -0.4000000059604645
   ],
   "type": "VEC3"
  },
  {
   "bufferView": 37,
   "componentType": 5126,
   "count": 72,
   "type": "VEC3"
  },
  {
   "bufferView": 38,
   "componentType": 5126,
   "count": 48,
   "max": [
    0.5400000214576721,
    1.5,
    0.44999998807907104
   ],
   "min": [
    -0.5400000214576721,
    0.8999999761581421,
    0.4099999964237213
   ],
   "type": "VEC3"
  },
  {
   "bufferView": 39,
   "componentType": 5126,
   "count": 48,
   "type": "VEC3"
  },
  {
   "bufferView": 40,
   "componentType": 5126,
   "count": 24,
   "max": [
    0.20000000298023224,
    1.7999999523162842,
    0.41100001335144043
   ],
   "min": [
    -0.20000000298023224,
    1.7000000476837158,
    0.4099999964237213
   ],
   "type": "VEC3"
  },
  {
   "bufferView": 41,
   "componentType": 5126,
   "count": 24,
   "type": "VEC3"
  },
  {
   "bufferView": 42,
   "componentType": 5126,
   "count": 80,
   "max": [
    0.8999999761581421,
    1.149999976158142,
    0.375
   ],
   "min": [
    -0.8999999761581421,
    0,
    -0.375
   ],
   "type": "VEC3"
  },
  {
   "bufferView": 43,
   "componentType": 5126,
   "count": 80,
   "type": "VEC3"
  },
  {
   "bufferView": 44,
   "componentType": 5123,
   "count": 138,
   "type": "SCALAR"
  },
  {
   "bufferView": 45,
   "componentType": 5126,
   "count": 48,
   "max": [
    0.6499999761581421,
    0.8510000109672546,
    0.25
   ],
   "min": [
    -0.75,
    0.8399999737739563,
    -0.20000000298023224
   ],
   "type": "VEC3"
  },
  {
   "bufferView": 46,
   "componentType": 5126,
   "count": 48,
   "type": "VEC3"
  },
  {
   "bufferView": 47,
   "componentType": 5126,
   "count": 24,
   "max": [
    0.44999998807907104,
    1.7999999523162842,
    0.22499999403953552
   ],
   "min": [
    -0.44999998807907104,
    0,
    -0.22499999403953552
   ],
   "type": "VEC3"
  },
  {
   "bufferView": 48,
   "componentType": 5126,
   "count": 24,
   "type": "VEC3"
  },
  {
   "bufferView": 49,
   "componentType": 5126,
   "count": 24,
   "max": [
    0.41999998688697815,
    1.75,
    0.23499999940395355
   ],
   "min": [
    -0.41999998688697815,
    0.949999988079071,
    0.22499999403953552
   ],
   "type": "VEC3"
  },
  {
   "bufferView": 50,
   "componentType": 5126,
   "count": 24,
   "type": "VEC3"
  },
  {
   "bufferView": 51,
   "componentType": 5126,
   "count": 24,
   "max": [
    0.4000000059604645,
    1.7000000476837158,
    0.20000000298023224
   ],
   "min": [
    -0.4000000059604645,
    1,
    -0.15000000596046448
   ],
   "type": "VEC3"
  },
  {
   "bufferView": 52,
   "componentType": 5126,
   "count": 24,
   "type": "VEC3"
  },
  {
   "bufferView": 53,
   "componentType": 5126,
   "count": 24,
   "max": [
    0.029999999329447746,
    0.41999998688697815,
    0.029999999329447746
   ],
   "min": [
    -0.029999999329447746,
    0,
    -0.029999999329447746
   ],
   "type": "VEC3"
  },
  {
   "bufferView": 54,
   "componentType": 5126,
   "count": 24,
   "type": "VEC3"
  },
  {
   "bufferView": 55,
   "componentType": 5126,
   "count": 24,
   "max": [
    0.30000001192092896,
    0.05000000074505806,
    0.30000001192092896
   ],
   "min": [
    -0.30000001192092896,
    0,
    -0.30000001192092896
   ],
   "type": "VEC3"
  },
  {
   "bufferView": 56,
   "componentType": 5126,
   "count": 24,
   "type": "VEC3"
  },
  {
   "bufferView": 57,
   "componentType": 5126,
   "count": 48,
   "max": [
    0.25,
    1,
    0.25
   ],
   "min": [
    -0.25,
    0.41999998688697815,
    -0.2800000011920929
   ],
   "type": "VEC3"
  },
  {
   "bufferView": 58,
   "componentType": 5126,
   "count": 48,
   "type": "VEC3"
  },
  {
   "bufferView": 59,
   "componentType": 5126,
   "count": 24,
   "max": [
    0.6000000238418579,
    0.7200000286102295,
    0.3499999940395355
   ],
   "min": [
    -0.6000000238418579,
    0.6800000071525574,
    -0.3499999940395355
   ],
   "type": "VEC3"
  },
  {
   "bufferView": 60,
   "componentType": 5126,
   "count": 24,
   "type": "VEC3"
  },
  {
   "bufferView": 61,
   "componentType": 5126,
   "count": 48,
   "max": [
    0.6000000238418579,
    0.6800000071525574,
    0.3199999928474426
   ],
   "min": [
    -0.6000000238418579,
    0,
    -0.3199999928474426
   ],
   "type": "VEC3"
  },
  {
   "bufferView": 62,
   "componentType": 5126,
   "count": 48,
   "type": "VEC3"
  },
  {
   "bufferView": 63,
   "componentType": 5126,
   "count": 24,
   "max": [
    0.25,
    1.0499999523162842,
    -0.10000000149011612
   ],
   "min": [
    -0.25,
    0.7200000286102295,
    -0.12999999523162842
   ],
   "type": "VEC3"
  },
  {
   "bufferView": 64,
   "componentType": 5126,
   "count": 24,
   "type": "VEC3"
  },
  {
   "bufferView": 65,
   "componentType": 5126,
   "count": 24,
   "max": [
    0.44999998807907104,
    1.7999999523162842,
    0.25
   ],
   "min": [
    -0.44999998807907104,
    0,
    -0.25
   ],
   "type": "VEC3"
  },
  {
   "bufferView": 66,
   "componentType": 5126,
   "count": 24,
   "type": "VEC3"
  },
  {
   "bufferView": 67,
   "componentType": 5126,
   "count": 72,
   "max": [
    0.4399999976158142,
    1.75,
    0.25999999046325684
   ],
   "min": [
    -0.4399999976158142,
    0.05000000074505806,
    0.25
   ],
   "type": "VEC3"
  },
  {
   "bufferView": 68,
   "componentType": 5126,
   "count": 72,
   "type": "VEC3"
  },
  {
   "bufferView": 69,
   "componentType": 5126,
   "count": 84,
   "max": [
    1.2000000476837158,
    1.100000023841858,
    0.4000000059604645
   ],
   "min": [
    -1.2000000476837158,
    0,
    -0.4000000059604645
   ],
   "type": "VEC3"
  },
  {
   "bufferView": 70,
   "componentType": 5126,
   "count": 84,
   "type": "VEC3"
  },
  {
   "bufferView": 71,
   "componentType": 5123,
   "count": 144,
   "type": "SCALAR"
  },
  {
   "bufferView": 72,
   "componentType": 5126,
   "count": 24,
   "max": [
    1.25,
    1.100000023841858,
    0.44999998807907104
   ],
   "min": [
    -1.25,
    1.0499999523162842,
    0.20000000298023224
   ],
   "type": "VEC3"
  },
  {
   "bufferView": 73,
   "componentType": 5126,
   "count": 24,
   "type": "VEC3"
  },
  {
   "bufferView": 74,
   "componentType": 5126,
   "count": 48,
   "max": [
    0.6499999761581421,
    1.0499999523162842,
    -0.05000000074505806
   ],
   "min": [
    -0.5,
    0.7200000286102295,
    -0.10000000149011612
   ],
   "type": "VEC3"
  },
  {
   "bufferView": 75,
   "componentType": 5126,
   "count": 48,
   "type": "VEC3"
  },
  {
   "bufferView": 76,
   "componentType": 5126,
   "count": 82,
   "max": [
    0.8999999761581421,
    0.800000011920929,
    0.41999998688697815
   ],
   "min": [
    -0.8999999761581421,
    0,
    -0.41999998688697815
   ],
   "type": "VEC3"
  },
  {
   "bufferView": 77,
   "componentType": 5126,
   "count": 82,
   "type": "VEC3"
  },
  {
   "bufferView": 78,
   "componentType": 5123,
   "count": 144,
   "type": "SCALAR"
  },
  {
   "bufferView": 79,
   "componentType": 5126,
   "count": 24,
   "max": [
    0.2548282742500305,
    0.8499999642372131,
    0.2184925079345703
   ],
   "min": [
    -0.25482824444770813,
    0,
    -0.21849441528320312
   ],
   "type": "VEC3"
  },
  {
   "bufferView": 80,
   "componentType": 5126,
   "count": 24,
   "type": "VEC3"
  },
  {
   "bufferView": 81,
   "componentType": 5123,
   "count": 36,
   "type": "SCALAR"
  },
  {
   "bufferView": 82,
   "componentType": 5126,
   "count": 24,
   "max": [
    0.7024393081665039,
    0.7199999690055847,
    0.40633583068847656
   ],
   "min": [
    -0.7024393081665039,
    0,
    -0.40633392333984375
   ],
   "type": "VEC3"
  },
  {
   "bufferView": 83,
   "componentType": 5126,
   "count": 24,
   "type": "VEC3"
  },
  {
   "bufferView": 84,
   "componentType": 5126,
   "count": 88,
   "max": [
    8,
    6.5,
    10
   ],
   "min": [
    -8,
    5.199999809265137,
    -8
   ],
   "type": "VEC3"
  },
  {
   "bufferView": 85,
   "componentType": 5126,
   "count": 88,
   "type": "VEC3"
  },
  {
   "bufferView": 86,
   "componentType": 5123,
   "count": 180,
   "type": "SCALAR"
  },
  {
   "bufferView": 87,
   "componentType": 5126,
   "count": 48,
   "max": [
    -1.100000023841858,
    6.699999809265137,
    -4.5
   ],
   "min": [
    -5.5,
    5.400000095367432,
    -5.699999809265137
   ],
   "type": "VEC3"
  },
  {
   "bufferView": 88,
   "componentType": 5126,
   "count": 48,
   "type": "VEC3"
  },
  {
   "bufferView": 89,
   "componentType": 5126,
   "count": 24,
   "max": [
    1.5511960983276367,
    1.8000000715255737,
    0.3707904815673828
   ],
   "min": [
    -1.5511951446533203,
    0,
    -0.3707904815673828
   ],
   "type": "VEC3"
  },
  {
   "bufferView": 90,
   "componentType": 5126,
   "count": 24,
   "type": "VEC3"
  },
  {
   "bufferView": 91,
   "componentType": 5126,
   "count": 24,
   "max": [
    10,
    0.009999999776482582,
    12.5
   ],
   "min": [
    -10,
    -0.029999999329447746,
    -12.5
   ],
   "type": "VEC3"
  },
  {
   "bufferView": 92,
   "componentType": 5126,
   "count": 24,
   "type": "VEC3"
  },
  {
   "bufferView": 93,
   "componentType": 5126,
   "count": 24,
   "max": [
    8,
    0,
    10
   ],
   "min": [
    -8,
    -0.20000000298023224,
    -8
   ],
   "type": "VEC3"
  },
  {
   "bufferView": 94,
   "componentType": 5126,
   "count": 24,
   "type": "VEC3"
  },
  {
   "bufferView": 95,
   "componentType": 5126,
   "count": 360,
   "max": [
    7.800000190734863,
    5.199999809265137,
    9.800000190734863
   ],
   "min": [
    -7.800000190734863,
    0,
    -7.800000190734863
   ],
   "type": "VEC3"
  },
  {
   "bufferView": 96,
   "componentType": 5126,
   "count": 360,
   "type": "VEC3"
  },
  {
   "bufferView": 97,
   "componentType": 5123,
   "count": 612,
   "type": "SCALAR"
  },
  {
   "bufferView": 98,
   "componentType": 5126,
   "count": 24,
   "max": [
    0.550000011920929,
    0.15000000596046448,
    0.550000011920929
   ],
   "min": [
    -0.550000011920929,
    0,
    -0.550000011920929
   ],
   "type": "VEC3"
  },
  {
   "bufferView": 99,
   "componentType": 5126,
   "count": 24,
   "type": "VEC3"
  },
  {
   "bufferView": 100,
   "componentType": 5126,
   "count": 24,
   "max": [
    0.5,
    1.350000023841858,
    0.5
   ],
   "min": [
    -0.5,
    0.15000000596046448,
    -0.5
   ],
   "type": "VEC3"
  },
  {
   "bufferView": 101,
   "componentType": 5126,
   "count": 24,
   "type": "VEC3"
  },
  {
   "bufferView": 102,
   "componentType": 5126,
   "count": 24,
   "max": [
    0.32499998807907104,
    0.8399999737739563,
    0.28299999237060547
   ],
   "min": [
    -0.32499998807907104,
    0.7200000286102295,
    -0.28299999237060547
   ],
   "type": "VEC3"
  },
  {
   "bufferView": 103,
   "componentType": 5126,
   "count": 24,
   "type": "VEC3"
  },
  {
   "bufferView": 104,
   "componentType": 5126,
   "count": 24,
   "max": [
    0.2750000059604645,
    0.8450000286102295,
    0.2329999953508377
   ],
   "min": [
    -0.2750000059604645,
    0.8420000076293945,
    -0.16300000250339508
   ],
   "type": "VEC3"
  },
  {
   "bufferView": 105,
   "componentType": 5126,
   "count": 24,
   "type": "VEC3"
  },
  {
   "bufferView": 106,
   "componentType": 5126,
   "count": 66,
   "max": [
    0.019999999552965164,
    1.0800000429153442,
    -0.08299999684095383
   ],
   "min": [
    -0.019999999552965164,
    0.8399999737739563,
    -0.2630000114440918
   ],
   "type": "VEC3"
  },
  {
   "bufferView": 107,
   "componentType": 5126,
   "count": 66,
   "type": "VEC3"
  },
  {
   "bufferView": 108,
   "componentType": 5123,
   "count": 108,
   "type": "SCALAR"
  },
  {
   "bufferView": 109,
   "componentType": 5126,
   "count": 980,
   "max": [
    0.30000001192092896,
    0.800000011920929,
    0.3700000047683716
   ],
   "min": [
    -0.20000000298023224,
    0,
    -0.375
   ],
   "type": "VEC3"
  },
  {
   "bufferView": 110,
   "componentType": 5126,
   "count": 980,
   "type": "VEC3"
  },
  {
   "bufferView": 111,
   "componentType": 5123,
   "count": 1860,
   "type": "SCALAR"
  },
  {
   "bufferView": 112,
   "componentType": 5126,
   "count": 24,
   "max": [
    0.28999999165534973,
    0.4749999940395355,
    0.10000000149011612
   ],
   "min": [
    0.20999999344348907,
    0.4699999988079071,
    -0.07999999821186066
   ],
   "type": "VEC3"
  },
  {
   "bufferView": 113,
   "componentType": 5126,
   "count": 24,
   "type": "VEC3"
  },
  {
   "bufferView": 114,
   "componentType": 5126,
   "count": 24,
   "max": [
    0.27000001072883606,
    0.47999998927116394,
    0.07999999821186066
   ],
   "min": [
    0.23000000417232513,
    0.4749999940395355,
    0.05000000074505806
   ],
   "type": "VEC3"
  },
  {
   "bufferView": 115,
   "componentType": 5126,
   "count": 24,
   "type": "VEC3"
  },
  {
   "bufferView": 116,
   "componentType": 5126,
   "count": 24,
   "max": [
    0.27000001072883606,
    0.47999998927116394,
    0.029999999329447746
   ],
   "min": [
    0.23000000417232513,
    0.4749999940395355,
    0
   ],
   "type": "VEC3"
  },
  {
   "bufferView": 117,
   "componentType": 5126,
   "count": 24,
   "type": "VEC3"
  },
  {
   "bufferView": 118,
   "componentType": 5126,
   "count": 24,
   "max": [
    0.27000001072883606,
    0.47999998927116394,
    -0.019999999552965164
   ],
   "min": [
    0.23000000417232513,
    0.4749999940395355,
    -0.05000000074505806
   ],
   "type": "VEC3"
  },
  {
   "bufferView": 119,
   "componentType": 5126,
   "count": 24,
   "type": "VEC3"
  },
  {
   "bufferView": 120,
   "componentType": 5126,
   "count": 24,
   "max": [
    -0.20000000298023224,
    0.6800000071525574,
    -0.2800000011920929
   ],
   "min": [
    -0.2199999988079071,
    0.6600000262260437,
    -0.3400000035762787
   ],
   "type": "VEC3"
  },
  {
   "bufferView": 121,
   "componentType": 5126,
   "count": 24,
   "type": "VEC3"
  }
 ],
 "bufferViews": [
  {
   "buffer": 0,
   "byteLength": 5880,
   "byteOffset": 0,
   "target": 34962
  },
  {
   "buffer": 0,
   "byteLength": 5880,
   "byteOffset": 5880,
   "target": 34962
  },
  {
   "buffer": 0,
   "byteLength": 1752,
   "byteOffset": 11760,
   "target": 34963
  },
  {
   "buffer": 0,
   "byteLength": 6024,
   "byteOffset": 13512,
   "target": 34962
  },
  {
   "buffer": 0,
   "byteLength": 6024,
   "byteOffset": 19536,
   "target": 34962
  },
  {
   "buffer": 0,
   "byteLength": 1812,
   "byteOffset": 25560,
   "target": 34963
  },
  {
   "buffer": 0,
   "byteLength": 864,
   "byteOffset": 27372,
   "target": 34962
  },
  {
   "buffer": 0,
   "byteLength": 864,
   "byteOffset": 28236,
   "target": 34962
  },
  {
   "buffer": 0,
   "byteLength": 216,
   "byteOffset": 29100,
   "target": 34963
  },
  {
   "buffer": 0,
   "byteLength": 288,
   "byteOffset": 29316,
   "target": 34962
  },
  {
   "buffer": 0,
   "byteLength": 288,
   "byteOffset": 29604,
   "target": 34962
  },
  {
   "buffer": 0,
   "byteLength": 72,
   "byteOffset": 29892,
   "target": 34963
  },
  {
   "buffer": 0,
   "byteLength": 1728,
   "byteOffset": 29964,
   "target": 34962
  },
  {
   "buffer": 0,
   "byteLength": 1728,
   "byteOffset": 31692,
   "target": 34962
  },
  {
   "buffer": 0,
   "byteLength": 432,
   "byteOffset": 33420,
   "target": 34963
  },
  {
   "buffer": 0,
   "byteLength": 576,
   "byteOffset": 33852,
   "target": 34962
  },
  {
   "buffer": 0,
   "byteLength": 576,
   "byteOffset": 34428,
   "target": 34962
  },
  {
   "buffer": 0,
   "byteLength": 144,
   "byteOffset": 35004,
   "target": 34963
  },
  {
   "buffer": 0,
   "byteLength": 288,
   "byteOffset": 35148,
   "target": 34962
  },
  {
   "buffer": 0,
   "byteLength": 288,
   "byteOffset": 35436,
   "target": 34962
  },
  {
   "buffer": 0,
   "byteLength": 288,
   "byteOffset": 35724,
   "target": 34962
  },
  {
   "buffer": 0,
   "byteLength": 288,
   "byteOffset": 36012,
   "target": 34962
  },
  {
   "buffer": 0,
   "byteLength": 72,
   "byteOffset": 36300,
   "target": 34963
  },
  {
   "buffer": 0,
   "byteLength": 1152,
   "byteOffset": 36372,
   "target": 34962
  },
  {
   "buffer": 0,
   "byteLength": 1152,
   "byteOffset": 37524,
   "target": 34962
  },
  {
   "buffer": 0,
   "byteLength": 288,
   "byteOffset": 38676,
   "target": 34963
  },
  {
   "buffer": 0,
   "byteLength": 1152,
   "byteOffset": 38964,
   "target": 34962
  },
  {
   "buffer": 0,
   "byteLength": 1152,
   "byteOffset": 40116,
   "target": 34962
  },
  {
   "buffer": 0,
   "byteLength": 1152,
   "byteOffset": 41268,
   "target": 34962
  },
  {
   "buffer": 0,
   "byteLength": 1152,
   "byteOffset": 42420,
   "target": 34962
  },
  {
   "buffer": 0,
   "byteLength": 1440,
   "byteOffset": 43572,
   "target": 34962
  },
  {
   "buffer": 0,
   "byteLength": 1440,
   "byteOffset": 45012,
   "target": 34962
  },
  {
   "buffer": 0,
   "byteLength": 360,
   "byteOffset": 46452,
   "target": 34963
  },
  {
   "buffer": 0,
   "byteLength": 6720,
   "byteOffset": 46812,
   "target": 34962
  },
  {
   "buffer": 0,
   "byteLength": 6720,
   "byteOffset": 53532,
   "target": 34962
  },
  {
   "buffer": 0,
   "byteLength": 2016,
   "byteOffset": 60252,
   "target": 34963
  },
  {
   "buffer": 0,
   "byteLength": 864,
   "byteOffset": 62268,
   "target": 34962
  },
  {
   "buffer": 0,
   "byteLength": 864,
   "byteOffset": 63132,
   "target": 34962
  },
  {
   "buffer": 0,
   "byteLength": 576,
   "byteOffset": 63996,
   "target": 34962
  },
  {
   "buffer": 0,
   "byteLength": 576,
   "byteOffset": 64572,
   "target": 34962
  },
  {
   "buffer": 0,
   "byteLength": 288,
   "byteOffset": 65148,
   "target": 34962
  },
  {
   "buffer": 0,
   "byteLength": 288,
   "byteOffset": 65436,
   "target": 34962
  },
  {
   "buffer": 0,
   "byteLength": 960,
   "byteOffset": 65724,
   "target": 34962
  },
  {
   "buffer": 0,
   "byteLength": 960,
   "byteOffset": 66684,
   "target": 34962
  },
  {
   "buffer": 0,
   "byteLength": 276,
   "byteOffset": 67644,
   "target": 34963
  },
  {
   "buffer": 0,
   "byteLength": 576,
   "byteOffset": 67920,
   "target": 34962
  },
  {
   "buffer": 0,
   "byteLength": 576,
   "byteOffset": 68496,
   "target": 34962
  },
  {
   "buffer": 0,
   "byteLength": 288,
   "byteOffset": 69072,
   "target": 34962
  },
  {
   "buffer": 0,
   "byteLength": 288,
   "byteOffset": 69360,
   "target": 34962
  },
  {
   "buffer": 0,
   "byteLength": 288,
   "byteOffset": 69648,
   "target": 34962
  },
  {
   "buffer": 0,
   "byteLength": 288,
   "byteOffset": 69936,
   "target": 34962
  },
  {
   "buffer": 0,
   "byteLength": 288,
   "byteOffset": 70224,
   "target": 34962
  },
  {
   "buffer": 0,
   "byteLength": 288,
   "byteOffset": 70512,
   "target": 34962
  },
  {
   "buffer": 0,
   "byteLength": 288,
   "byteOffset": 70800,
   "target": 34962
  },
  {
   "buffer": 0,
   "byteLength": 288,
   "byteOffset": 71088,
   "target": 34962
  },
  {
   "buffer": 0,
   "byteLength": 288,
   "byteOffset": 71376,
   "target": 34962
  },
  {
   "buffer": 0,
   "byteLength": 288,
   "byteOffset": 71664,
   "target": 34962
  },
  {
   "buffer": 0,
   "byteLength": 576,
   "byteOffset": 71952,
   "target": 34962
  },
  {
   "buffer": 0,
   "byteLength": 576,
   "byteOffset": 72528,
   "target": 34962
  },
  {
   "buffer": 0,
   "byteLength": 288,
   "byteOffset": 73104,
   "target": 34962
  },
  {
   "buffer": 0,
   "byteLength": 288,
   "byteOffset": 73392,
   "target": 34962
  },
  {
   "buffer": 0,
   "byteLength": 576,
   "byteOffset": 73680,
   "target": 34962
  },
  {
   "buffer": 0,
   "byteLength": 576,
   "byteOffset": 74256,
   "target": 34962
  },
  {
   "buffer": 0,
   "byteLength": 288,
   "byteOffset": 74832,
   "target": 34962
  },
  {
   "buffer": 0,
   "byteLength": 288,
   "byteOffset": 75120,
   "target": 34962
  },
  {
   "buffer": 0,
   "byteLength": 288,
   "byteOffset": 75408,
   "target": 34962
  },
  {
   "buffer": 0,
   "byteLength": 288,
   "byteOffset": 75696,
   "target": 34962
  },
  {
   "buffer": 0,
   "byteLength": 864,
   "byteOffset": 75984,
   "target": 34962
  },
  {
   "buffer": 0,
   "byteLength": 864,
   "byteOffset": 76848,
   "target": 34962
  },
  {
   "buffer": 0,
   "byteLength": 1008,
   "byteOffset": 77712,
   "target": 34962
  },
  {
   "buffer": 0,
   "byteLength": 1008,
   "byteOffset": 78720,
   "target": 34962
  },
  {
   "buffer": 0,
   "byteLength": 288,
   "byteOffset": 79728,
   "target": 34963
  },
  {
   "buffer": 0,
   "byteLength": 288,
   "byteOffset": 80016,
   "target": 34962
  },
  {
   "buffer": 0,
   "byteLength": 288,
   "byteOffset": 80304,
   "target": 34962
  },
  {
   "buffer": 0,
   "byteLength": 576,
   "byteOffset": 80592,
   "target": 34962
  },
  {
   "buffer": 0,
   "byteLength": 576,
   "byteOffset": 81168,
   "target": 34962
  },
  {
   "buffer": 0,
   "byteLength": 984,
   "byteOffset": 81744,
   "target": 34962
  },
  {
   "buffer": 0,
   "byteLength": 984,
   "byteOffset": 82728,
   "target": 34962
  },
  {
   "buffer": 0,
   "byteLength": 288,
   "byteOffset": 83712,
   "target": 34963
  },
  {
   "buffer": 0,
   "byteLength": 288,
   "byteOffset": 84000,
   "target": 34962
  },
  {
   "buffer": 0,
   "byteLength": 288,
   "byteOffset": 84288,
   "target": 34962
  },
  {
   "buffer": 0,
   "byteLength": 72,
   "byteOffset": 84576,
   "target": 34963
  },
  {
   "buffer": 0,
   "byteLength": 288,
   "byteOffset": 84648,
   "target": 34962
  },
  {
   "buffer": 0,
   "byteLength": 288,
   "byteOffset": 84936,
   "target": 34962
  },
  {
   "buffer": 0,
   "byteLength": 1056,
   "byteOffset": 85224,
   "target": 34962
  },
  {
   "buffer": 0,
   "byteLength": 1056,
   "byteOffset": 86280,
   "target": 34962
  },
  {
   "buffer": 0,
   "byteLength": 360,
   "byteOffset": 87336,
   "target": 34963
  },
  {
   "buffer": 0,
   "byteLength": 576,
   "byteOffset": 87696,
   "target": 34962
  },
  {
   "buffer": 0,
   "byteLength": 576,
   "byteOffset": 88272,
   "target": 34962
  },
  {
   "buffer": 0,
   "byteLength": 288,
   "byteOffset": 88848,
   "target": 34962
  },
  {
   "buffer": 0,
   "byteLength": 288,
   "byteOffset": 89136,
   "target": 34962
  },
  {
   "buffer": 0,
   "byteLength": 288,
   "byteOffset": 89424,
   "target": 34962
  },
  {
   "buffer": 0,
   "byteLength": 288,
   "byteOffset": 89712,
   "target": 34962
  },
  {
   "buffer": 0,
   "byteLength": 288,
   "byteOffset": 90000,
   "target": 34962
  },
  {
   "buffer": 0,
   "byteLength": 288,
   "byteOffset": 90288,
   "target": 34962
  },
  {
   "buffer": 0,
   "byteLength": 4320,
   "byteOffset": 90576,
   "target": 34962
  },
  {
   "buffer": 0,
   "byteLength": 4320,
   "byteOffset": 94896,
   "target": 34962
  },
  {
   "buffer": 0,
   "byteLength": 1224,
   "byteOffset": 99216,
   "target": 34963
  },
  {
   "buffer": 0,
   "byteLength": 288,
   "byteOffset": 100440,
   "target": 34962
  },
  {
   "buffer": 0,
   "byteLength": 288,
   "byteOffset": 100728,
   "target": 34962
  },
  {
   "buffer": 0,
   "byteLength": 288,
   "byteOffset": 101016,
   "target": 34962
  },
  {
   "buffer": 0,
   "byteLength": 288,
   "byteOffset": 101304,
   "target": 34962
  },
  {
   "buffer": 0,
   "byteLength": 288,
   "byteOffset": 101592,
   "target": 34962
  },
  {
   "buffer": 0,
   "byteLength": 288,
   "byteOffset": 101880,
   "target": 34962
  },
  {
   "buffer": 0,
   "byteLength": 288,
   "byteOffset": 102168,
   "target": 34962
  },
  {
   "buffer": 0,
   "byteLength": 288,
   "byteOffset": 102456,
   "target": 34962
  },
  {
   "buffer": 0,
   "byteLength": 792,
   "byteOffset": 102744,
   "target": 34962
  },
  {
   "buffer": 0,
   "byteLength": 792,
   "byteOffset": 103536,
   "target": 34962
  },
  {
   "buffer": 0,
   "byteLength": 216,
   "byteOffset": 104328,
   "target": 34963
  },
  {
   "buffer": 0,
   "byteLength": 11760,
   "byteOffset": 104544,
   "target": 34962
  },
  {
   "buffer": 0,
   "byteLength": 11760,
   "byteOffset": 116304,
   "target": 34962
  },
  {
   "buffer": 0,
   "byteLength": 3720,
   "byteOffset": 128064,
   "target": 34963
  },
  {
   "buffer": 0,
   "byteLength": 288,
   "byteOffset": 131784,
   "target": 34962
  },
  {
   "buffer": 0,
   "byteLength": 288,
   "byteOffset": 132072,
   "target": 34962
  },
  {
   "buffer": 0,
   "byteLength": 288,
   "byteOffset": 132360,
   "target": 34962
  },
  {
   "buffer": 0,
   "byteLength": 288,
   "byteOffset": 132648,
   "target": 34962
  },
  {
   "buffer": 0,
   "byteLength": 288,
   "byteOffset": 132936,
   "target": 34962
  },
  {
   "buffer": 0,
   "byteLength": 288,
   "byteOffset": 133224,
   "target": 34962
  },
  {
   "buffer": 0,
   "byteLength": 288,
   "byteOffset": 133512,
   "target": 34962
  },
  {
   "buffer": 0,
   "byteLength": 288,
   "byteOffset": 133800,
   "target": 34962
  },
  {
   "buffer": 0,
   "byteLength": 288,
   "byteOffset": 134088,
   "target": 34962
  },
  {
   "buffer": 0,
   "byteLength": 288,
   "byteOffset": 134376,
   "target": 34962
  }
 ],
 "buffers": [
  {
   "byteLength": 134664,
   "uri": "FireBranch.bin"
  }
 ]
}
