{
 "asset": {
  "generator": "Khronos glTF Blender I/O v5.2.40",
  "version": "2.0",
  "extras": {
   "exported_by": "blender/tools/export_building_kit.py",
   "module_scale": 1.0
  }
 },
 "scene": 0,
 "scenes": [
  {
   "name": "library",
   "nodes": [
    0
   ]
  }
 ],
 "nodes": [
  {
   "extras": {
    "edit_note": "Placeholder, ours (CC0). Keep the frame: Z up, origin at the footprint centre on the ground, the side a person uses facing -Y; real size in metres. After editing: tools/building_kit/build_buildings.sh."
   },
   "mesh": 0,
   "name": "WC_Basin"
  }
 ],
 "materials": [
  {
   "doubleSided": true,
   "name": "MI_PlasticWhite",
   "pbrMetallicRoughness": {
    "baseColorFactor": [
     0.9300000071525574,
     0.9300000071525574,
     0.9100000262260437,
     1
    ],
    "metallicFactor": 0,
    "roughnessFactor": 0.30000001192092896
   }
  },
  {
   "doubleSided": true,
   "name": "MI_TileWhite",
   "pbrMetallicRoughness": {
    "baseColorFactor": [
     0.8136419057846069,
     0.8136419057846069,
     0.8136419057846069,
     1
    ],
    "metallicFactor": 0,
    "roughnessFactor": 0.699999988079071
   }
  },
  {
   "doubleSided": true,
   "name": "MI_Steel",
   "pbrMetallicRoughness": {
    "baseColorFactor": [
     0.5726980566978455,
     0.5820889472961426,
     0.5955169796943665,
     1
    ],
    "roughnessFactor": 0.699999988079071
   }
  }
 ],
 "meshes": [
  {
   "name": "WC_Basin.001",
   "primitives": [
    {
     "attributes": {
      "POSITION": 0,
      "NORMAL": 1
     },
     "indices": 2,
     "material": 0
    },
    {
     "attributes": {
      "POSITION": 3,
      "NORMAL": 4
     },
     "indices": 2,
     "material": 1
    },
    {
     "attributes": {
      "POSITION": 5,
      "NORMAL": 6
     },
     "indices": 7,
     "material": 2
    }
   ]
  }
 ],
 "accessors": [
  {
   "bufferView": 0,
   "componentType": 5126,
   "count": 24,
   "max": [
    0.32499998807907104,
    0.8399999737739563,
    0.28299999237060547
   ],
   "min": [
    -0.32499998807907104,
    0.7200000286102295,
    -0.28299999237060547
   ],
   "type": "VEC3"
  },
  {
   "bufferView": 1,
   "componentType": 5126,
   "count": 24,
   "type": "VEC3"
  },
  {
   "bufferView": 2,
   "componentType": 5123,
   "count": 36,
   "type": "SCALAR"
  },
  {
   "bufferView": 3,
   "componentType": 5126,
   "count": 24,
   "max": [
    0.2750000059604645,
    0.8450000286102295,
    0.2329999953508377
   ],
   "min": [
    -0.2750000059604645,
    0.8420000076293945,
    -0.16300000250339508
   ],
   "type": "VEC3"
  },
  {
   "bufferView": 4,
   "componentType": 5126,
   "count": 24,
   "type": "VEC3"
  },
  {
   "bufferView": 5,
   "componentType": 5126,
   "count": 66,
   "max": [
    0.019999999552965164,
    1.0800000429153442,
    -0.08299999684095383
   ],
   "min": [
    -0.019999999552965164,
    0.8399999737739563,
    -0.2630000114440918
   ],
   "type": "VEC3"
  },
  {
   "bufferView": 6,
   "componentType": 5126,
   "count": 66,
   "type": "VEC3"
  },
  {
   "bufferView": 7,
   "componentType": 5123,
   "count": 108,
   "type": "SCALAR"
  }
 ],
 "bufferViews": [
  {
   "buffer": 0,
   "byteLength": 288,
   "byteOffset": 0,
   "target": 34962
  },
  {
   "buffer": 0,
   "byteLength": 288,
   "byteOffset": 288,
   "target": 34962
  },
  {
   "buffer": 0,
   "byteLength": 72,
   "byteOffset": 576,
   "target": 34963
  },
  {
   "buffer": 0,
   "byteLength": 288,
   "byteOffset": 648,
   "target": 34962
  },
  {
   "buffer": 0,
   "byteLength": 288,
   "byteOffset": 936,
   "target": 34962
  },
  {
   "buffer": 0,
   "byteLength": 792,
   "byteOffset": 1224,
   "target": 34962
  },
  {
   "buffer": 0,
   "byteLength": 792,
   "byteOffset": 2016,
   "target": 34962
  },
  {
   "buffer": 0,
   "byteLength": 216,
   "byteOffset": 2808,
   "target": 34963
  }
 ],
 "buffers": [
  {
   "byteLength": 3024,
   "uri": "WC_Basin.bin"
  }
 ]
}
