{
 "asset": {
  "generator": "Khronos glTF Blender I/O v5.2.40",
  "version": "2.0",
  "extras": {
   "exported_by": "blender/tools/build_street_poles.py",
   "bounds_blender": [
    [
     -0.7894,
     -0.1868,
     -0.0161
    ],
    [
     0.6354,
     0.1868,
     5.8291
    ]
   ],
   "ped_bottom": 2.5,
   "lenses": 2
  }
 },
 "extensionsUsed": [
  "KHR_materials_specular",
  "KHR_materials_ior"
 ],
 "scene": 0,
 "scenes": [
  {
   "name": "Scene",
   "nodes": [
    0
   ]
  }
 ],
 "nodes": [
  {
   "mesh": 0,
   "name": "PedSignal_JP"
  }
 ],
 "materials": [
  {
   "doubleSided": true,
   "extensions": {
    "KHR_materials_specular": {
     "specularFactor": 0
    },
    "KHR_materials_ior": {
     "ior": 1.4500000476837158
    }
   },
   "name": "MI_ZombieAtlas",
   "pbrMetallicRoughness": {
    "baseColorTexture": {
     "index": 0
    },
    "metallicFactor": 0
   }
  },
  {
   "doubleSided": true,
   "name": "MI_SignalLens",
   "pbrMetallicRoughness": {
    "baseColorFactor": [
     0.03999999910593033,
     0.04500000178813934,
     0.05000000074505806,
     1
    ],
    "metallicFactor": 0,
    "roughnessFactor": 0.5
   }
  }
 ],
 "meshes": [
  {
   "name": "PedSignal_JP",
   "primitives": [
    {
     "attributes": {
      "POSITION": 0,
      "NORMAL": 1,
      "TEXCOORD_0": 2
     },
     "indices": 3,
     "material": 0
    },
    {
     "attributes": {
      "POSITION": 4,
      "NORMAL": 5,
      "TEXCOORD_0": 6
     },
     "indices": 7,
     "material": 1
    }
   ]
  }
 ],
 "textures": [
  {
   "sampler": 0,
   "source": 0
  }
 ],
 "images": [
  {
   "mimeType": "image/png",
   "name": "Zombie_Atlas.png.001",
   "uri": "../../textures/Zombie_Atlas.png"
  }
 ],
 "accessors": [
  {
   "bufferView": 0,
   "componentType": 5126,
   "count": 464,
   "max": [
    0.6353595852851868,
    5.829094886779785,
    0.18684984743595123
   ],
   "min": [
    -0.7894124984741211,
    -0.016130462288856506,
    -0.18684984743595123
   ],
   "type": "VEC3"
  },
  {
   "bufferView": 1,
   "componentType": 5126,
   "count": 464,
   "type": "VEC3"
  },
  {
   "bufferView": 2,
   "componentType": 5126,
   "count": 464,
   "type": "VEC2"
  },
  {
   "bufferView": 3,
   "componentType": 5123,
   "count": 1374,
   "type": "SCALAR"
  },
  {
   "bufferView": 4,
   "componentType": 5126,
   "count": 16,
   "max": [
    -0.4862681031227112,
    3.2440030574798584,
    0.06796517968177795
   ],
   "min": [
    -0.7713851928710938,
    2.6418910026550293,
    0.06796514242887497
   ],
   "type": "VEC3"
  },
  {
   "bufferView": 5,
   "componentType": 5126,
   "count": 16,
   "type": "VEC3"
  },
  {
   "bufferView": 6,
   "componentType": 5126,
   "count": 16,
   "type": "VEC2"
  },
  {
   "bufferView": 7,
   "componentType": 5123,
   "count": 36,
   "type": "SCALAR"
  }
 ],
 "bufferViews": [
  {
   "buffer": 0,
   "byteLength": 5568,
   "byteOffset": 0,
   "target": 34962
  },
  {
   "buffer": 0,
   "byteLength": 5568,
   "byteOffset": 5568,
   "target": 34962
  },
  {
   "buffer": 0,
   "byteLength": 3712,
   "byteOffset": 11136,
   "target": 34962
  },
  {
   "buffer": 0,
   "byteLength": 2748,
   "byteOffset": 14848,
   "target": 34963
  },
  {
   "buffer": 0,
   "byteLength": 192,
   "byteOffset": 17596,
   "target": 34962
  },
  {
   "buffer": 0,
   "byteLength": 192,
   "byteOffset": 17788,
   "target": 34962
  },
  {
   "buffer": 0,
   "byteLength": 128,
   "byteOffset": 17980,
   "target": 34962
  },
  {
   "buffer": 0,
   "byteLength": 72,
   "byteOffset": 18108,
   "target": 34963
  }
 ],
 "samplers": [
  {
   "magFilter": 9729,
   "minFilter": 9987
  }
 ],
 "buffers": [
  {
   "byteLength": 18180,
   "uri": "PedSignal_JP.bin"
  }
 ]
}
