{
 "asset": {
  "generator": "Khronos glTF Blender I/O v5.2.40",
  "version": "2.0",
  "extras": {
   "exported_by": "blender/tools/build_street_poles.py",
   "bounds_blender": [
    [
     -0.1821,
     -0.1701,
     -0.0147
    ],
    [
     0.1821,
     2.7552,
     10.3321
    ]
   ],
   "stretch": 3.704
  }
 },
 "extensionsUsed": [
  "KHR_materials_specular",
  "KHR_materials_ior"
 ],
 "scene": 0,
 "scenes": [
  {
   "name": "Scene",
   "nodes": [
    0
   ]
  }
 ],
 "nodes": [
  {
   "mesh": 0,
   "name": "StreetLight_JP"
  }
 ],
 "materials": [
  {
   "doubleSided": true,
   "extensions": {
    "KHR_materials_specular": {
     "specularFactor": 0
    },
    "KHR_materials_ior": {
     "ior": 1.4500000476837158
    }
   },
   "name": "MI_ZombieAtlas",
   "pbrMetallicRoughness": {
    "baseColorTexture": {
     "index": 0
    },
    "metallicFactor": 0
   }
  },
  {
   "doubleSided": true,
   "name": "MI_LampGlass"
  }
 ],
 "meshes": [
  {
   "name": "StreetLight_JP",
   "primitives": [
    {
     "attributes": {
      "POSITION": 0,
      "NORMAL": 1,
      "TEXCOORD_0": 2
     },
     "indices": 3,
     "material": 0
    },
    {
     "attributes": {
      "POSITION": 4,
      "NORMAL": 5,
      "TEXCOORD_0": 6
     },
     "indices": 7,
     "material": 1
    }
   ]
  }
 ],
 "textures": [
  {
   "sampler": 0,
   "source": 0
  }
 ],
 "images": [
  {
   "mimeType": "image/png",
   "name": "Zombie_Atlas.png.001",
   "uri": "../../textures/Zombie_Atlas.png"
  }
 ],
 "accessors": [
  {
   "bufferView": 0,
   "componentType": 5126,
   "count": 276,
   "max": [
    0.182143896818161,
    10.332103729248047,
    0.17007791996002197
   ],
   "min": [
    -0.18214473128318787,
    -0.014682567678391933,
    -2.755209445953369
   ],
   "type": "VEC3"
  },
  {
   "bufferView": 1,
   "componentType": 5126,
   "count": 276,
   "type": "VEC3"
  },
  {
   "bufferView": 2,
   "componentType": 5126,
   "count": 276,
   "type": "VEC2"
  },
  {
   "bufferView": 3,
   "componentType": 5123,
   "count": 1008,
   "type": "SCALAR"
  },
  {
   "bufferView": 4,
   "componentType": 5126,
   "count": 74,
   "max": [
    0.170650452375412,
    10.147869110107422,
    -2.081857919692993
   ],
   "min": [
    -0.17065146565437317,
    10,
    -2.6913089752197266
   ],
   "type": "VEC3"
  },
  {
   "bufferView": 5,
   "componentType": 5126,
   "count": 74,
   "type": "VEC3"
  },
  {
   "bufferView": 6,
   "componentType": 5126,
   "count": 74,
   "type": "VEC2"
  },
  {
   "bufferView": 7,
   "componentType": 5123,
   "count": 270,
   "type": "SCALAR"
  }
 ],
 "bufferViews": [
  {
   "buffer": 0,
   "byteLength": 3312,
   "byteOffset": 0,
   "target": 34962
  },
  {
   "buffer": 0,
   "byteLength": 3312,
   "byteOffset": 3312,
   "target": 34962
  },
  {
   "buffer": 0,
   "byteLength": 2208,
   "byteOffset": 6624,
   "target": 34962
  },
  {
   "buffer": 0,
   "byteLength": 2016,
   "byteOffset": 8832,
   "target": 34963
  },
  {
   "buffer": 0,
   "byteLength": 888,
   "byteOffset": 10848,
   "target": 34962
  },
  {
   "buffer": 0,
   "byteLength": 888,
   "byteOffset": 11736,
   "target": 34962
  },
  {
   "buffer": 0,
   "byteLength": 592,
   "byteOffset": 12624,
   "target": 34962
  },
  {
   "buffer": 0,
   "byteLength": 540,
   "byteOffset": 13216,
   "target": 34963
  }
 ],
 "samplers": [
  {
   "magFilter": 9729,
   "minFilter": 9987
  }
 ],
 "buffers": [
  {
   "byteLength": 13756,
   "uri": "StreetLight_JP.bin"
  }
 ]
}
