{
 "asset": {
  "generator": "Khronos glTF Blender I/O v5.2.40",
  "version": "2.0",
  "extras": {
   "exported_by": "blender/tools/build_street_poles.py",
   "bounds_blender": [
    [
     -2.7552,
     -0.1821,
     -0.0147
    ],
    [
     2.7552,
     0.1821,
     10.3321
    ]
   ],
   "stretch": 3.704
  }
 },
 "extensionsUsed": [
  "KHR_materials_specular",
  "KHR_materials_ior"
 ],
 "scene": 0,
 "scenes": [
  {
   "name": "Scene",
   "nodes": [
    0
   ]
  }
 ],
 "nodes": [
  {
   "mesh": 0,
   "name": "StreetLight_JP_Twin"
  }
 ],
 "materials": [
  {
   "doubleSided": true,
   "extensions": {
    "KHR_materials_specular": {
     "specularFactor": 0
    },
    "KHR_materials_ior": {
     "ior": 1.4500000476837158
    }
   },
   "name": "MI_ZombieAtlas",
   "pbrMetallicRoughness": {
    "baseColorTexture": {
     "index": 0
    },
    "metallicFactor": 0
   }
  },
  {
   "doubleSided": true,
   "name": "MI_LampGlass"
  }
 ],
 "meshes": [
  {
   "name": "StreetLight_JP_Twin",
   "primitives": [
    {
     "attributes": {
      "POSITION": 0,
      "NORMAL": 1,
      "TEXCOORD_0": 2
     },
     "indices": 3,
     "material": 0
    },
    {
     "attributes": {
      "POSITION": 4,
      "NORMAL": 5,
      "TEXCOORD_0": 6
     },
     "indices": 7,
     "material": 1
    }
   ]
  }
 ],
 "textures": [
  {
   "sampler": 0,
   "source": 0
  }
 ],
 "images": [
  {
   "mimeType": "image/png",
   "name": "Zombie_Atlas.png.001",
   "uri": "../../textures/Zombie_Atlas.png"
  }
 ],
 "accessors": [
  {
   "bufferView": 0,
   "componentType": 5126,
   "count": 436,
   "max": [
    2.755209445953369,
    10.332103729248047,
    0.18214386701583862
   ],
   "min": [
    -2.755209445953369,
    -0.014682567678391933,
    -0.18214474618434906
   ],
   "type": "VEC3"
  },
  {
   "bufferView": 1,
   "componentType": 5126,
   "count": 436,
   "type": "VEC3"
  },
  {
   "bufferView": 2,
   "componentType": 5126,
   "count": 436,
   "type": "VEC2"
  },
  {
   "bufferView": 3,
   "componentType": 5123,
   "count": 1662,
   "type": "SCALAR"
  },
  {
   "bufferView": 4,
   "componentType": 5126,
   "count": 148,
   "max": [
    2.6913089752197266,
    10.147869110107422,
    0.1706504225730896
   ],
   "min": [
    -2.6913089752197266,
    10,
    -0.17065149545669556
   ],
   "type": "VEC3"
  },
  {
   "bufferView": 5,
   "componentType": 5126,
   "count": 148,
   "type": "VEC3"
  },
  {
   "bufferView": 6,
   "componentType": 5126,
   "count": 148,
   "type": "VEC2"
  },
  {
   "bufferView": 7,
   "componentType": 5123,
   "count": 540,
   "type": "SCALAR"
  }
 ],
 "bufferViews": [
  {
   "buffer": 0,
   "byteLength": 5232,
   "byteOffset": 0,
   "target": 34962
  },
  {
   "buffer": 0,
   "byteLength": 5232,
   "byteOffset": 5232,
   "target": 34962
  },
  {
   "buffer": 0,
   "byteLength": 3488,
   "byteOffset": 10464,
   "target": 34962
  },
  {
   "buffer": 0,
   "byteLength": 3324,
   "byteOffset": 13952,
   "target": 34963
  },
  {
   "buffer": 0,
   "byteLength": 1776,
   "byteOffset": 17276,
   "target": 34962
  },
  {
   "buffer": 0,
   "byteLength": 1776,
   "byteOffset": 19052,
   "target": 34962
  },
  {
   "buffer": 0,
   "byteLength": 1184,
   "byteOffset": 20828,
   "target": 34962
  },
  {
   "buffer": 0,
   "byteLength": 1080,
   "byteOffset": 22012,
   "target": 34963
  }
 ],
 "samplers": [
  {
   "magFilter": 9729,
   "minFilter": 9987
  }
 ],
 "buffers": [
  {
   "byteLength": 23092,
   "uri": "StreetLight_JP_Twin.bin"
  }
 ]
}
