{
 "asset": {
  "generator": "Khronos glTF Blender I/O v5.2.40",
  "version": "2.0",
  "extras": {
   "exported_by": "blender/tools/build_street_poles.py",
   "bounds_blender": [
    [
     -0.1868,
     -0.6387,
     -0.0161
    ],
    [
     5.5442,
     0.6354,
     5.8291
    ]
   ],
   "head_bottom": 4.7,
   "ped_bottom": 2.5,
   "lenses": 3,
   "plates": 2
  }
 },
 "extensionsUsed": [
  "KHR_materials_specular",
  "KHR_materials_ior"
 ],
 "scene": 0,
 "scenes": [
  {
   "name": "Scene",
   "nodes": [
    0
   ]
  }
 ],
 "nodes": [
  {
   "mesh": 0,
   "name": "TrafficLight_JP"
  }
 ],
 "materials": [
  {
   "doubleSided": true,
   "extensions": {
    "KHR_materials_specular": {
     "specularFactor": 0
    },
    "KHR_materials_ior": {
     "ior": 1.4500000476837158
    }
   },
   "name": "MI_ZombieAtlas",
   "pbrMetallicRoughness": {
    "baseColorTexture": {
     "index": 0
    },
    "metallicFactor": 0
   }
  },
  {
   "doubleSided": true,
   "name": "MI_SignalLens",
   "pbrMetallicRoughness": {
    "baseColorFactor": [
     0.03999999910593033,
     0.04500000178813934,
     0.05000000074505806,
     1
    ],
    "metallicFactor": 0,
    "roughnessFactor": 0.5
   }
  }
 ],
 "meshes": [
  {
   "name": "TrafficLight_JP",
   "primitives": [
    {
     "attributes": {
      "POSITION": 0,
      "NORMAL": 1,
      "TEXCOORD_0": 2
     },
     "indices": 3,
     "material": 0
    },
    {
     "attributes": {
      "POSITION": 4,
      "NORMAL": 5,
      "TEXCOORD_0": 6
     },
     "indices": 7,
     "material": 1
    }
   ]
  }
 ],
 "textures": [
  {
   "sampler": 0,
   "source": 0
  }
 ],
 "images": [
  {
   "mimeType": "image/png",
   "name": "Zombie_Atlas.png.001",
   "uri": "../../textures/Zombie_Atlas.png"
  }
 ],
 "accessors": [
  {
   "bufferView": 0,
   "componentType": 5126,
   "count": 834,
   "max": [
    5.54423713684082,
    5.829094886779785,
    0.6386697888374329
   ],
   "min": [
    -0.18684983253479004,
    -0.016130462288856506,
    -0.6353595852851868
   ],
   "type": "VEC3"
  },
  {
   "bufferView": 1,
   "componentType": 5126,
   "count": 834,
   "type": "VEC3"
  },
  {
   "bufferView": 2,
   "componentType": 5126,
   "count": 834,
   "type": "VEC2"
  },
  {
   "bufferView": 3,
   "componentType": 5123,
   "count": 2520,
   "type": "SCALAR"
  },
  {
   "bufferView": 4,
   "componentType": 5126,
   "count": 154,
   "max": [
    5.499819755554199,
    5.019034385681152,
    0.4141920208930969
   ],
   "min": [
    4.578283786773682,
    4.761338233947754,
    -0.4162665605545044
   ],
   "type": "VEC3"
  },
  {
   "bufferView": 5,
   "componentType": 5126,
   "count": 154,
   "type": "VEC3"
  },
  {
   "bufferView": 6,
   "componentType": 5126,
   "count": 154,
   "type": "VEC2"
  },
  {
   "bufferView": 7,
   "componentType": 5123,
   "count": 504,
   "type": "SCALAR"
  }
 ],
 "bufferViews": [
  {
   "buffer": 0,
   "byteLength": 10008,
   "byteOffset": 0,
   "target": 34962
  },
  {
   "buffer": 0,
   "byteLength": 10008,
   "byteOffset": 10008,
   "target": 34962
  },
  {
   "buffer": 0,
   "byteLength": 6672,
   "byteOffset": 20016,
   "target": 34962
  },
  {
   "buffer": 0,
   "byteLength": 5040,
   "byteOffset": 26688,
   "target": 34963
  },
  {
   "buffer": 0,
   "byteLength": 1848,
   "byteOffset": 31728,
   "target": 34962
  },
  {
   "buffer": 0,
   "byteLength": 1848,
   "byteOffset": 33576,
   "target": 34962
  },
  {
   "buffer": 0,
   "byteLength": 1232,
   "byteOffset": 35424,
   "target": 34962
  },
  {
   "buffer": 0,
   "byteLength": 1008,
   "byteOffset": 36656,
   "target": 34963
  }
 ],
 "samplers": [
  {
   "magFilter": 9729,
   "minFilter": 9987
  }
 ],
 "buffers": [
  {
   "byteLength": 37664,
   "uri": "TrafficLight_JP.bin"
  }
 ]
}
