{
 "asset": {
  "generator": "Khronos glTF Blender I/O v5.2.40",
  "version": "2.0",
  "extras": {
   "exported_by": "blender/tools/export_building_kit.py",
   "module_scale": 1.0
  }
 },
 "scene": 0,
 "scenes": [
  {
   "name": "Station_open_air",
   "nodes": [
    0
   ]
  }
 ],
 "nodes": [
  {
   "extras": {
    "edit_note": "An open-air station's end building (hand L). The -X face is where the platform comes in at platform level; the +X face is the street entrance. The track-side wall stands ON the platform edge line (the gauge is 0.2 m beyond it) -- never move it toward the track. The GATE_ Empties are the ticket-gate lanes: keep one between each pair of cabinets. The other hand (_L/_R) is a mirror: make the same change there."
   },
   "mesh": 0,
   "name": "OA_Building_3_L"
  }
 ],
 "materials": [
  {
   "doubleSided": true,
   "name": "MI_Terrazzo",
   "pbrMetallicRoughness": {
    "baseColorFactor": [
     0.8372589945793152,
     0.8621084094047546,
     0.8569295406341553,
     1
    ],
    "metallicFactor": 0,
    "roughnessFactor": 0.699999988079071
   }
  },
  {
   "doubleSided": true,
   "name": "MI_ConcreteSmooth",
   "pbrMetallicRoughness": {
    "baseColorFactor": [
     0.44070473313331604,
     0.43014833331108093,
     0.40880659222602844,
     1
    ],
    "metallicFactor": 0,
    "roughnessFactor": 0.699999988079071
   }
  },
  {
   "doubleSided": true,
   "name": "MI_Plaster",
   "pbrMetallicRoughness": {
    "baseColorFactor": [
     0.7144945859909058,
     0.7096679210662842,
     0.6731035709381104,
     1
    ],
    "metallicFactor": 0,
    "roughnessFactor": 0.699999988079071
   }
  },
  {
   "doubleSided": true,
   "emissiveFactor": [
    0.0600000032782555,
    0.15000000596046448,
    0.30000001192092896
   ],
   "name": "MI_Sign",
   "pbrMetallicRoughness": {
    "baseColorFactor": [
     0.11999999731779099,
     0.30000001192092896,
     0.550000011920929,
     1
    ],
    "metallicFactor": 0,
    "roughnessFactor": 0.699999988079071
   }
  },
  {
   "doubleSided": true,
   "name": "MI_PlasticWhite",
   "pbrMetallicRoughness": {
    "baseColorFactor": [
     0.9300000071525574,
     0.9300000071525574,
     0.9100000262260437,
     1
    ],
    "metallicFactor": 0,
    "roughnessFactor": 0.30000001192092896
   }
  },
  {
   "doubleSided": true,
   "name": "MI_PaintedMetal",
   "pbrMetallicRoughness": {
    "baseColorFactor": [
     0.8999999761581421,
     0.8999999761581421,
     0.8899999856948853,
     1
    ],
    "metallicFactor": 0.30000001192092896,
    "roughnessFactor": 0.699999988079071
   }
  },
  {
   "doubleSided": true,
   "name": "MI_PlasticDark",
   "pbrMetallicRoughness": {
    "baseColorFactor": [
     0.11999999731779099,
     0.11999999731779099,
     0.12999999523162842,
     1
    ],
    "metallicFactor": 0,
    "roughnessFactor": 0.6000000238418579
   }
  }
 ],
 "meshes": [
  {
   "name": "OA_Building_3_L",
   "primitives": [
    {
     "attributes": {
      "POSITION": 0,
      "NORMAL": 1
     },
     "indices": 2,
     "material": 0
    },
    {
     "attributes": {
      "POSITION": 3,
      "NORMAL": 4
     },
     "indices": 5,
     "material": 1
    },
    {
     "attributes": {
      "POSITION": 6,
      "NORMAL": 7
     },
     "indices": 8,
     "material": 2
    },
    {
     "attributes": {
      "POSITION": 9,
      "NORMAL": 10
     },
     "indices": 2,
     "material": 3
    },
    {
     "attributes": {
      "POSITION": 11,
      "NORMAL": 12
     },
     "indices": 13,
     "material": 4
    },
    {
     "attributes": {
      "POSITION": 14,
      "NORMAL": 15
     },
     "indices": 16,
     "material": 5
    },
    {
     "attributes": {
      "POSITION": 17,
      "NORMAL": 18
     },
     "indices": 16,
     "material": 6
    }
   ]
  }
 ],
 "accessors": [
  {
   "bufferView": 0,
   "componentType": 5126,
   "count": 24,
   "max": [
    4.5,
    0,
    3
   ],
   "min": [
    -4.5,
    -0.20000000298023224,
    -3
   ],
   "type": "VEC3"
  },
  {
   "bufferView": 1,
   "componentType": 5126,
   "count": 24,
   "type": "VEC3"
  },
  {
   "bufferView": 2,
   "componentType": 5123,
   "count": 36,
   "type": "SCALAR"
  },
  {
   "bufferView": 3,
   "componentType": 5126,
   "count": 160,
   "max": [
    4.5,
    4.400000095367432,
    3
   ],
   "min": [
    -4.5,
    0,
    -3
   ],
   "type": "VEC3"
  },
  {
   "bufferView": 4,
   "componentType": 5126,
   "count": 160,
   "type": "VEC3"
  },
  {
   "bufferView": 5,
   "componentType": 5123,
   "count": 288,
   "type": "SCALAR"
  },
  {
   "bufferView": 6,
   "componentType": 5126,
   "count": 135,
   "max": [
    4.5,
    4.199999809265137,
    3
   ],
   "min": [
    -4.5,
    0,
    -3
   ],
   "type": "VEC3"
  },
  {
   "bufferView": 7,
   "componentType": 5126,
   "count": 135,
   "type": "VEC3"
  },
  {
   "bufferView": 8,
   "componentType": 5123,
   "count": 252,
   "type": "SCALAR"
  },
  {
   "bufferView": 9,
   "componentType": 5126,
   "count": 24,
   "max": [
    4.579999923706055,
    3.299999952316284,
    2.200000047683716
   ],
   "min": [
    4.5,
    2.700000047683716,
    -2.200000047683716
   ],
   "type": "VEC3"
  },
  {
   "bufferView": 10,
   "componentType": 5126,
   "count": 24,
   "type": "VEC3"
  },
  {
   "bufferView": 11,
   "componentType": 5126,
   "count": 72,
   "max": [
    1.899999976158142,
    1,
    1.274999976158142
   ],
   "min": [
    0.699999988079071,
    0,
    -1.274999976158142
   ],
   "type": "VEC3"
  },
  {
   "bufferView": 12,
   "componentType": 5126,
   "count": 72,
   "type": "VEC3"
  },
  {
   "bufferView": 13,
   "componentType": 5123,
   "count": 108,
   "type": "SCALAR"
  },
  {
   "bufferView": 14,
   "componentType": 5126,
   "count": 48,
   "max": [
    1.3300000429153442,
    1.100000023841858,
    2.799999952316284
   ],
   "min": [
    1.2699999809265137,
    0,
    -2.799999952316284
   ],
   "type": "VEC3"
  },
  {
   "bufferView": 15,
   "componentType": 5126,
   "count": 48,
   "type": "VEC3"
  },
  {
   "bufferView": 16,
   "componentType": 5123,
   "count": 72,
   "type": "SCALAR"
  },
  {
   "bufferView": 17,
   "componentType": 5126,
   "count": 48,
   "max": [
    3.5999999046325684,
    1.7999999523162842,
    -2.200000047683716
   ],
   "min": [
    2.200000047683716,
    0,
    -2.799999952316284
   ],
   "type": "VEC3"
  },
  {
   "bufferView": 18,
   "componentType": 5126,
   "count": 48,
   "type": "VEC3"
  }
 ],
 "bufferViews": [
  {
   "buffer": 0,
   "byteLength": 288,
   "byteOffset": 0,
   "target": 34962
  },
  {
   "buffer": 0,
   "byteLength": 288,
   "byteOffset": 288,
   "target": 34962
  },
  {
   "buffer": 0,
   "byteLength": 72,
   "byteOffset": 576,
   "target": 34963
  },
  {
   "buffer": 0,
   "byteLength": 1920,
   "byteOffset": 648,
   "target": 34962
  },
  {
   "buffer": 0,
   "byteLength": 1920,
   "byteOffset": 2568,
   "target": 34962
  },
  {
   "buffer": 0,
   "byteLength": 576,
   "byteOffset": 4488,
   "target": 34963
  },
  {
   "buffer": 0,
   "byteLength": 1620,
   "byteOffset": 5064,
   "target": 34962
  },
  {
   "buffer": 0,
   "byteLength": 1620,
   "byteOffset": 6684,
   "target": 34962
  },
  {
   "buffer": 0,
   "byteLength": 504,
   "byteOffset": 8304,
   "target": 34963
  },
  {
   "buffer": 0,
   "byteLength": 288,
   "byteOffset": 8808,
   "target": 34962
  },
  {
   "buffer": 0,
   "byteLength": 288,
   "byteOffset": 9096,
   "target": 34962
  },
  {
   "buffer": 0,
   "byteLength": 864,
   "byteOffset": 9384,
   "target": 34962
  },
  {
   "buffer": 0,
   "byteLength": 864,
   "byteOffset": 10248,
   "target": 34962
  },
  {
   "buffer": 0,
   "byteLength": 216,
   "byteOffset": 11112,
   "target": 34963
  },
  {
   "buffer": 0,
   "byteLength": 576,
   "byteOffset": 11328,
   "target": 34962
  },
  {
   "buffer": 0,
   "byteLength": 576,
   "byteOffset": 11904,
   "target": 34962
  },
  {
   "buffer": 0,
   "byteLength": 144,
   "byteOffset": 12480,
   "target": 34963
  },
  {
   "buffer": 0,
   "byteLength": 576,
   "byteOffset": 12624,
   "target": 34962
  },
  {
   "buffer": 0,
   "byteLength": 576,
   "byteOffset": 13200,
   "target": 34962
  }
 ],
 "buffers": [
  {
   "byteLength": 13776,
   "uri": "OA_Building_3_L.bin"
  }
 ]
}
