{
 "asset": {
  "generator": "Khronos glTF Blender I/O v5.2.40",
  "version": "2.0",
  "extras": {
   "exported_by": "blender/tools/export_building_kit.py",
   "module_scale": 1.0
  }
 },
 "scene": 0,
 "scenes": [
  {
   "name": "Station_open_air",
   "nodes": [
    0
   ]
  }
 ],
 "nodes": [
  {
   "extras": {
    "edit_note": "The entrance stair + slope (hand R, 13 risers, 2.15 m), the slope running STRAIGHT OUT beside the stair. Keep it 1:15 with a landing every 0.75 m of rise."
   },
   "mesh": 0,
   "name": "OA_EntryOut_13_R"
  }
 ],
 "materials": [
  {
   "doubleSided": true,
   "name": "MI_Terrazzo",
   "pbrMetallicRoughness": {
    "baseColorFactor": [
     0.8372589945793152,
     0.8621084094047546,
     0.8569295406341553,
     1
    ],
    "metallicFactor": 0,
    "roughnessFactor": 0.699999988079071
   }
  },
  {
   "doubleSided": true,
   "name": "MI_ConcreteSmooth",
   "pbrMetallicRoughness": {
    "baseColorFactor": [
     0.44070473313331604,
     0.43014833331108093,
     0.40880659222602844,
     1
    ],
    "metallicFactor": 0,
    "roughnessFactor": 0.699999988079071
   }
  },
  {
   "doubleSided": true,
   "name": "MI_PaintYellow",
   "pbrMetallicRoughness": {
    "baseColorFactor": [
     0.949999988079071,
     0.75,
     0.10000000149011612,
     1
    ],
    "metallicFactor": 0.20000000298023224,
    "roughnessFactor": 0.699999988079071
   }
  },
  {
   "doubleSided": true,
   "name": "MI_Steel",
   "pbrMetallicRoughness": {
    "baseColorFactor": [
     0.5726980566978455,
     0.5820889472961426,
     0.5955169796943665,
     1
    ],
    "roughnessFactor": 0.699999988079071
   }
  }
 ],
 "meshes": [
  {
   "name": "OA_EntryOut_13_R",
   "primitives": [
    {
     "attributes": {
      "POSITION": 0,
      "NORMAL": 1
     },
     "indices": 2,
     "material": 0
    },
    {
     "attributes": {
      "POSITION": 3,
      "NORMAL": 4
     },
     "indices": 5,
     "material": 1
    },
    {
     "attributes": {
      "POSITION": 6,
      "NORMAL": 7
     },
     "indices": 8,
     "material": 2
    },
    {
     "attributes": {
      "POSITION": 9,
      "NORMAL": 10
     },
     "indices": 11,
     "material": 3
    }
   ]
  }
 ],
 "accessors": [
  {
   "bufferView": 0,
   "componentType": 5126,
   "count": 24,
   "max": [
    2,
    0,
    3.700000047683716
   ],
   "min": [
    0,
    -3.744999885559082,
    -2
   ],
   "type": "VEC3"
  },
  {
   "bufferView": 1,
   "componentType": 5126,
   "count": 24,
   "type": "VEC3"
  },
  {
   "bufferView": 2,
   "componentType": 5123,
   "count": 36,
   "type": "SCALAR"
  },
  {
   "bufferView": 3,
   "componentType": 5126,
   "count": 320,
   "max": [
    37.17499923706055,
    0,
    3.700000047683716
   ],
   "min": [
    2,
    -3.744999885559082,
    -2
   ],
   "type": "VEC3"
  },
  {
   "bufferView": 4,
   "componentType": 5126,
   "count": 320,
   "type": "VEC3"
  },
  {
   "bufferView": 5,
   "componentType": 5123,
   "count": 624,
   "type": "SCALAR"
  },
  {
   "bufferView": 6,
   "componentType": 5126,
   "count": 288,
   "max": [
    5.480000019073486,
    -0.16099999845027924,
    2
   ],
   "min": [
    2.25,
    -1.9800000190734863,
    -2
   ],
   "type": "VEC3"
  },
  {
   "bufferView": 7,
   "componentType": 5126,
   "count": 288,
   "type": "VEC3"
  },
  {
   "bufferView": 8,
   "componentType": 5123,
   "count": 432,
   "type": "SCALAR"
  },
  {
   "bufferView": 9,
   "componentType": 5126,
   "count": 96,
   "max": [
    37.17666244506836,
    0.9217290878295898,
    3.7750000953674316
   ],
   "min": [
    1.987636923789978,
    -1.3199446201324463,
    -2.0250000953674316
   ],
   "type": "VEC3"
  },
  {
   "bufferView": 10,
   "componentType": 5126,
   "count": 96,
   "type": "VEC3"
  },
  {
   "bufferView": 11,
   "componentType": 5123,
   "count": 144,
   "type": "SCALAR"
  }
 ],
 "bufferViews": [
  {
   "buffer": 0,
   "byteLength": 288,
   "byteOffset": 0,
   "target": 34962
  },
  {
   "buffer": 0,
   "byteLength": 288,
   "byteOffset": 288,
   "target": 34962
  },
  {
   "buffer": 0,
   "byteLength": 72,
   "byteOffset": 576,
   "target": 34963
  },
  {
   "buffer": 0,
   "byteLength": 3840,
   "byteOffset": 648,
   "target": 34962
  },
  {
   "buffer": 0,
   "byteLength": 3840,
   "byteOffset": 4488,
   "target": 34962
  },
  {
   "buffer": 0,
   "byteLength": 1248,
   "byteOffset": 8328,
   "target": 34963
  },
  {
   "buffer": 0,
   "byteLength": 3456,
   "byteOffset": 9576,
   "target": 34962
  },
  {
   "buffer": 0,
   "byteLength": 3456,
   "byteOffset": 13032,
   "target": 34962
  },
  {
   "buffer": 0,
   "byteLength": 864,
   "byteOffset": 16488,
   "target": 34963
  },
  {
   "buffer": 0,
   "byteLength": 1152,
   "byteOffset": 17352,
   "target": 34962
  },
  {
   "buffer": 0,
   "byteLength": 1152,
   "byteOffset": 18504,
   "target": 34962
  },
  {
   "buffer": 0,
   "byteLength": 288,
   "byteOffset": 19656,
   "target": 34963
  }
 ],
 "buffers": [
  {
   "byteLength": 19944,
   "uri": "OA_EntryOut_13_R.bin"
  }
 ]
}
