{
 "asset": {
  "generator": "Khronos glTF Blender I/O v5.2.40",
  "version": "2.0",
  "extras": {
   "exported_by": "blender/tools/export_building_kit.py",
   "module_scale": 1.0
  }
 },
 "extensionsUsed": [
  "KHR_materials_emissive_strength"
 ],
 "scene": 0,
 "scenes": [
  {
   "name": "MaidCafe",
   "nodes": [
    0,
    1,
    2,
    3,
    4,
    5,
    6,
    7,
    8,
    9,
    10,
    11,
    12,
    13,
    14,
    15,
    16,
    17,
    18,
    19,
    20,
    21,
    22,
    23,
    24,
    25,
    26,
    27,
    28,
    29,
    30,
    31,
    32,
    33,
    34,
    35,
    36,
    37,
    38,
    39,
    40,
    41,
    42
   ]
  }
 ],
 "nodes": [
  {
   "extras": {
    "edit_note": "A mission building (blender/tools/build_interior_blends.py, seed blender/tools/interior_plans.py): a PLACEHOLDER shell and fit-out at its real Japanese size -- remodel freely. Keep the frame (origin = plot centre on the ground, street -Y), the floor levels, and move the Empties with what they belong to: DOOR_ (interior door, arrow OUT of the room), EXIT_ (outer door, arrow out of the building), LIFT_ (a lift: shaft floor centre at the low stop; stops / faces), MARK_ (a mission marker: kind weapon / spawn / cover ...). Keep 1.2 m clear both sides of every door. After editing: tools/building_kit/build_buildings.sh. \u30e1\u30a4\u30c9\u30ab\u30d5\u30a7: a four-storey Akihabara \u96d1\u5c45\u30d3\u30eb -- F1 the merch shop with capsule-toy machines; F2 the cafe (tables, the counter, a small stage at the window); F3 the event hall; F4 the staff floor (lockers, the manager, the takings safe). A lift, one stair to the roof, a tall pink \u8896\u770b\u677f."
   },
   "mesh": 0,
   "name": "Facade"
  },
  {
   "extras": {
    "edit_note": "A mission building (blender/tools/build_interior_blends.py, seed blender/tools/interior_plans.py): a PLACEHOLDER shell and fit-out at its real Japanese size -- remodel freely. Keep the frame (origin = plot centre on the ground, street -Y), the floor levels, and move the Empties with what they belong to: DOOR_ (interior door, arrow OUT of the room), EXIT_ (outer door, arrow out of the building), LIFT_ (a lift: shaft floor centre at the low stop; stops / faces), MARK_ (a mission marker: kind weapon / spawn / cover ...). Keep 1.2 m clear both sides of every door. After editing: tools/building_kit/build_buildings.sh. \u30e1\u30a4\u30c9\u30ab\u30d5\u30a7: a four-storey Akihabara \u96d1\u5c45\u30d3\u30eb -- F1 the merch shop with capsule-toy machines; F2 the cafe (tables, the counter, a small stage at the window); F3 the event hall; F4 the staff floor (lockers, the manager, the takings safe). A lift, one stair to the roof, a tall pink \u8896\u770b\u677f."
   },
   "mesh": 1,
   "name": "Furniture"
  },
  {
   "extras": {
    "edit_note": "A mission building (blender/tools/build_interior_blends.py, seed blender/tools/interior_plans.py): a PLACEHOLDER shell and fit-out at its real Japanese size -- remodel freely. Keep the frame (origin = plot centre on the ground, street -Y), the floor levels, and move the Empties with what they belong to: DOOR_ (interior door, arrow OUT of the room), EXIT_ (outer door, arrow out of the building), LIFT_ (a lift: shaft floor centre at the low stop; stops / faces), MARK_ (a mission marker: kind weapon / spawn / cover ...). Keep 1.2 m clear both sides of every door. After editing: tools/building_kit/build_buildings.sh. \u30e1\u30a4\u30c9\u30ab\u30d5\u30a7: a four-storey Akihabara \u96d1\u5c45\u30d3\u30eb -- F1 the merch shop with capsule-toy machines; F2 the cafe (tables, the counter, a small stage at the window); F3 the event hall; F4 the staff floor (lockers, the manager, the takings safe). A lift, one stair to the roof, a tall pink \u8896\u770b\u677f."
   },
   "mesh": 2,
   "name": "Glazing"
  },
  {
   "extras": {
    "edit_note": "A mission building (blender/tools/build_interior_blends.py, seed blender/tools/interior_plans.py): a PLACEHOLDER shell and fit-out at its real Japanese size -- remodel freely. Keep the frame (origin = plot centre on the ground, street -Y), the floor levels, and move the Empties with what they belong to: DOOR_ (interior door, arrow OUT of the room), EXIT_ (outer door, arrow out of the building), LIFT_ (a lift: shaft floor centre at the low stop; stops / faces), MARK_ (a mission marker: kind weapon / spawn / cover ...). Keep 1.2 m clear both sides of every door. After editing: tools/building_kit/build_buildings.sh. \u30e1\u30a4\u30c9\u30ab\u30d5\u30a7: a four-storey Akihabara \u96d1\u5c45\u30d3\u30eb -- F1 the merch shop with capsule-toy machines; F2 the cafe (tables, the counter, a small stage at the window); F3 the event hall; F4 the staff floor (lockers, the manager, the takings safe). A lift, one stair to the roof, a tall pink \u8896\u770b\u677f."
   },
   "mesh": 3,
   "name": "Office_Chair",
   "translation": [
    -1,
    10.600000381469727,
    3.049999952316284
   ]
  },
  {
   "extras": {
    "edit_note": "A mission building (blender/tools/build_interior_blends.py, seed blender/tools/interior_plans.py): a PLACEHOLDER shell and fit-out at its real Japanese size -- remodel freely. Keep the frame (origin = plot centre on the ground, street -Y), the floor levels, and move the Empties with what they belong to: DOOR_ (interior door, arrow OUT of the room), EXIT_ (outer door, arrow out of the building), LIFT_ (a lift: shaft floor centre at the low stop; stops / faces), MARK_ (a mission marker: kind weapon / spawn / cover ...). Keep 1.2 m clear both sides of every door. After editing: tools/building_kit/build_buildings.sh. \u30e1\u30a4\u30c9\u30ab\u30d5\u30a7: a four-storey Akihabara \u96d1\u5c45\u30d3\u30eb -- F1 the merch shop with capsule-toy machines; F2 the cafe (tables, the counter, a small stage at the window); F3 the event hall; F4 the staff floor (lockers, the manager, the takings safe). A lift, one stair to the roof, a tall pink \u8896\u770b\u677f."
   },
   "mesh": 4,
   "name": "Office_Desk",
   "rotation": [
    0,
    -1,
    0,
    4.371138828673793e-08
   ],
   "translation": [
    -1,
    10.600000381469727,
    2.4000000953674316
   ]
  },
  {
   "extras": {
    "edit_note": "A mission building (blender/tools/build_interior_blends.py, seed blender/tools/interior_plans.py): a PLACEHOLDER shell and fit-out at its real Japanese size -- remodel freely. Keep the frame (origin = plot centre on the ground, street -Y), the floor levels, and move the Empties with what they belong to: DOOR_ (interior door, arrow OUT of the room), EXIT_ (outer door, arrow out of the building), LIFT_ (a lift: shaft floor centre at the low stop; stops / faces), MARK_ (a mission marker: kind weapon / spawn / cover ...). Keep 1.2 m clear both sides of every door. After editing: tools/building_kit/build_buildings.sh. \u30e1\u30a4\u30c9\u30ab\u30d5\u30a7: a four-storey Akihabara \u96d1\u5c45\u30d3\u30eb -- F1 the merch shop with capsule-toy machines; F2 the cafe (tables, the counter, a small stage at the window); F3 the event hall; F4 the staff floor (lockers, the manager, the takings safe). A lift, one stair to the roof, a tall pink \u8896\u770b\u677f."
   },
   "mesh": 5,
   "name": "Office_Locker",
   "translation": [
    -2.5999999046325684,
    10.600000381469727,
    6.78000020980835
   ]
  },
  {
   "extras": {
    "edit_note": "A mission building (blender/tools/build_interior_blends.py, seed blender/tools/interior_plans.py): a PLACEHOLDER shell and fit-out at its real Japanese size -- remodel freely. Keep the frame (origin = plot centre on the ground, street -Y), the floor levels, and move the Empties with what they belong to: DOOR_ (interior door, arrow OUT of the room), EXIT_ (outer door, arrow out of the building), LIFT_ (a lift: shaft floor centre at the low stop; stops / faces), MARK_ (a mission marker: kind weapon / spawn / cover ...). Keep 1.2 m clear both sides of every door. After editing: tools/building_kit/build_buildings.sh. \u30e1\u30a4\u30c9\u30ab\u30d5\u30a7: a four-storey Akihabara \u96d1\u5c45\u30d3\u30eb -- F1 the merch shop with capsule-toy machines; F2 the cafe (tables, the counter, a small stage at the window); F3 the event hall; F4 the staff floor (lockers, the manager, the takings safe). A lift, one stair to the roof, a tall pink \u8896\u770b\u677f."
   },
   "mesh": 5,
   "name": "Office_Locker.001",
   "translation": [
    -1.649999976158142,
    10.600000381469727,
    6.78000020980835
   ]
  },
  {
   "extras": {
    "edit_note": "A mission building (blender/tools/build_interior_blends.py, seed blender/tools/interior_plans.py): a PLACEHOLDER shell and fit-out at its real Japanese size -- remodel freely. Keep the frame (origin = plot centre on the ground, street -Y), the floor levels, and move the Empties with what they belong to: DOOR_ (interior door, arrow OUT of the room), EXIT_ (outer door, arrow out of the building), LIFT_ (a lift: shaft floor centre at the low stop; stops / faces), MARK_ (a mission marker: kind weapon / spawn / cover ...). Keep 1.2 m clear both sides of every door. After editing: tools/building_kit/build_buildings.sh. \u30e1\u30a4\u30c9\u30ab\u30d5\u30a7: a four-storey Akihabara \u96d1\u5c45\u30d3\u30eb -- F1 the merch shop with capsule-toy machines; F2 the cafe (tables, the counter, a small stage at the window); F3 the event hall; F4 the staff floor (lockers, the manager, the takings safe). A lift, one stair to the roof, a tall pink \u8896\u770b\u677f."
   },
   "mesh": 5,
   "name": "Office_Locker.002",
   "translation": [
    -0.699999988079071,
    10.600000381469727,
    6.78000020980835
   ]
  },
  {
   "extras": {
    "edit_note": "A mission building (blender/tools/build_interior_blends.py, seed blender/tools/interior_plans.py): a PLACEHOLDER shell and fit-out at its real Japanese size -- remodel freely. Keep the frame (origin = plot centre on the ground, street -Y), the floor levels, and move the Empties with what they belong to: DOOR_ (interior door, arrow OUT of the room), EXIT_ (outer door, arrow out of the building), LIFT_ (a lift: shaft floor centre at the low stop; stops / faces), MARK_ (a mission marker: kind weapon / spawn / cover ...). Keep 1.2 m clear both sides of every door. After editing: tools/building_kit/build_buildings.sh. \u30e1\u30a4\u30c9\u30ab\u30d5\u30a7: a four-storey Akihabara \u96d1\u5c45\u30d3\u30eb -- F1 the merch shop with capsule-toy machines; F2 the cafe (tables, the counter, a small stage at the window); F3 the event hall; F4 the staff floor (lockers, the manager, the takings safe). A lift, one stair to the roof, a tall pink \u8896\u770b\u677f."
   },
   "mesh": 5,
   "name": "Office_Locker.003",
   "translation": [
    0.25,
    10.600000381469727,
    6.78000020980835
   ]
  },
  {
   "extras": {
    "edit_note": "A mission building (blender/tools/build_interior_blends.py, seed blender/tools/interior_plans.py): a PLACEHOLDER shell and fit-out at its real Japanese size -- remodel freely. Keep the frame (origin = plot centre on the ground, street -Y), the floor levels, and move the Empties with what they belong to: DOOR_ (interior door, arrow OUT of the room), EXIT_ (outer door, arrow out of the building), LIFT_ (a lift: shaft floor centre at the low stop; stops / faces), MARK_ (a mission marker: kind weapon / spawn / cover ...). Keep 1.2 m clear both sides of every door. After editing: tools/building_kit/build_buildings.sh. \u30e1\u30a4\u30c9\u30ab\u30d5\u30a7: a four-storey Akihabara \u96d1\u5c45\u30d3\u30eb -- F1 the merch shop with capsule-toy machines; F2 the cafe (tables, the counter, a small stage at the window); F3 the event hall; F4 the staff floor (lockers, the manager, the takings safe). A lift, one stair to the roof, a tall pink \u8896\u770b\u677f."
   },
   "mesh": 5,
   "name": "Office_Locker.004",
   "translation": [
    1.2000000476837158,
    10.600000381469727,
    6.78000020980835
   ]
  },
  {
   "extras": {
    "edit_note": "A mission building (blender/tools/build_interior_blends.py, seed blender/tools/interior_plans.py): a PLACEHOLDER shell and fit-out at its real Japanese size -- remodel freely. Keep the frame (origin = plot centre on the ground, street -Y), the floor levels, and move the Empties with what they belong to: DOOR_ (interior door, arrow OUT of the room), EXIT_ (outer door, arrow out of the building), LIFT_ (a lift: shaft floor centre at the low stop; stops / faces), MARK_ (a mission marker: kind weapon / spawn / cover ...). Keep 1.2 m clear both sides of every door. After editing: tools/building_kit/build_buildings.sh. \u30e1\u30a4\u30c9\u30ab\u30d5\u30a7: a four-storey Akihabara \u96d1\u5c45\u30d3\u30eb -- F1 the merch shop with capsule-toy machines; F2 the cafe (tables, the counter, a small stage at the window); F3 the event hall; F4 the staff floor (lockers, the manager, the takings safe). A lift, one stair to the roof, a tall pink \u8896\u770b\u677f."
   },
   "mesh": 6,
   "name": "Office_Safe",
   "rotation": [
    0,
    0.7071068286895752,
    0,
    0.7071068286895752
   ],
   "translation": [
    -2.700000047683716,
    10.600000381469727,
    1.2000000476837158
   ]
  },
  {
   "extras": {
    "edit_note": "A mission building (blender/tools/build_interior_blends.py, seed blender/tools/interior_plans.py): a PLACEHOLDER shell and fit-out at its real Japanese size -- remodel freely. Keep the frame (origin = plot centre on the ground, street -Y), the floor levels, and move the Empties with what they belong to: DOOR_ (interior door, arrow OUT of the room), EXIT_ (outer door, arrow out of the building), LIFT_ (a lift: shaft floor centre at the low stop; stops / faces), MARK_ (a mission marker: kind weapon / spawn / cover ...). Keep 1.2 m clear both sides of every door. After editing: tools/building_kit/build_buildings.sh. \u30e1\u30a4\u30c9\u30ab\u30d5\u30a7: a four-storey Akihabara \u96d1\u5c45\u30d3\u30eb -- F1 the merch shop with capsule-toy machines; F2 the cafe (tables, the counter, a small stage at the window); F3 the event hall; F4 the staff floor (lockers, the manager, the takings safe). A lift, one stair to the roof, a tall pink \u8896\u770b\u677f."
   },
   "mesh": 7,
   "name": "Rest_Chair",
   "rotation": [
    0,
    0.7071068286895752,
    0,
    0.7071068286895752
   ],
   "translation": [
    -1.9500000476837158,
    4,
    4.599999904632568
   ]
  },
  {
   "extras": {
    "edit_note": "A mission building (blender/tools/build_interior_blends.py, seed blender/tools/interior_plans.py): a PLACEHOLDER shell and fit-out at its real Japanese size -- remodel freely. Keep the frame (origin = plot centre on the ground, street -Y), the floor levels, and move the Empties with what they belong to: DOOR_ (interior door, arrow OUT of the room), EXIT_ (outer door, arrow out of the building), LIFT_ (a lift: shaft floor centre at the low stop; stops / faces), MARK_ (a mission marker: kind weapon / spawn / cover ...). Keep 1.2 m clear both sides of every door. After editing: tools/building_kit/build_buildings.sh. \u30e1\u30a4\u30c9\u30ab\u30d5\u30a7: a four-storey Akihabara \u96d1\u5c45\u30d3\u30eb -- F1 the merch shop with capsule-toy machines; F2 the cafe (tables, the counter, a small stage at the window); F3 the event hall; F4 the staff floor (lockers, the manager, the takings safe). A lift, one stair to the roof, a tall pink \u8896\u770b\u677f."
   },
   "mesh": 7,
   "name": "Rest_Chair.001",
   "rotation": [
    0,
    -0.7071068286895752,
    0,
    0.7071068286895752
   ],
   "translation": [
    -1.0499999523162842,
    4,
    4.599999904632568
   ]
  },
  {
   "extras": {
    "edit_note": "A mission building (blender/tools/build_interior_blends.py, seed blender/tools/interior_plans.py): a PLACEHOLDER shell and fit-out at its real Japanese size -- remodel freely. Keep the frame (origin = plot centre on the ground, street -Y), the floor levels, and move the Empties with what they belong to: DOOR_ (interior door, arrow OUT of the room), EXIT_ (outer door, arrow out of the building), LIFT_ (a lift: shaft floor centre at the low stop; stops / faces), MARK_ (a mission marker: kind weapon / spawn / cover ...). Keep 1.2 m clear both sides of every door. After editing: tools/building_kit/build_buildings.sh. \u30e1\u30a4\u30c9\u30ab\u30d5\u30a7: a four-storey Akihabara \u96d1\u5c45\u30d3\u30eb -- F1 the merch shop with capsule-toy machines; F2 the cafe (tables, the counter, a small stage at the window); F3 the event hall; F4 the staff floor (lockers, the manager, the takings safe). A lift, one stair to the roof, a tall pink \u8896\u770b\u677f."
   },
   "mesh": 7,
   "name": "Rest_Chair.002",
   "rotation": [
    0,
    0.7071068286895752,
    0,
    0.7071068286895752
   ],
   "translation": [
    -1.9500000476837158,
    4,
    2.799999952316284
   ]
  },
  {
   "extras": {
    "edit_note": "A mission building (blender/tools/build_interior_blends.py, seed blender/tools/interior_plans.py): a PLACEHOLDER shell and fit-out at its real Japanese size -- remodel freely. Keep the frame (origin = plot centre on the ground, street -Y), the floor levels, and move the Empties with what they belong to: DOOR_ (interior door, arrow OUT of the room), EXIT_ (outer door, arrow out of the building), LIFT_ (a lift: shaft floor centre at the low stop; stops / faces), MARK_ (a mission marker: kind weapon / spawn / cover ...). Keep 1.2 m clear both sides of every door. After editing: tools/building_kit/build_buildings.sh. \u30e1\u30a4\u30c9\u30ab\u30d5\u30a7: a four-storey Akihabara \u96d1\u5c45\u30d3\u30eb -- F1 the merch shop with capsule-toy machines; F2 the cafe (tables, the counter, a small stage at the window); F3 the event hall; F4 the staff floor (lockers, the manager, the takings safe). A lift, one stair to the roof, a tall pink \u8896\u770b\u677f."
   },
   "mesh": 7,
   "name": "Rest_Chair.003",
   "rotation": [
    0,
    -0.7071068286895752,
    0,
    0.7071068286895752
   ],
   "translation": [
    -1.0499999523162842,
    4,
    2.799999952316284
   ]
  },
  {
   "extras": {
    "edit_note": "A mission building (blender/tools/build_interior_blends.py, seed blender/tools/interior_plans.py): a PLACEHOLDER shell and fit-out at its real Japanese size -- remodel freely. Keep the frame (origin = plot centre on the ground, street -Y), the floor levels, and move the Empties with what they belong to: DOOR_ (interior door, arrow OUT of the room), EXIT_ (outer door, arrow out of the building), LIFT_ (a lift: shaft floor centre at the low stop; stops / faces), MARK_ (a mission marker: kind weapon / spawn / cover ...). Keep 1.2 m clear both sides of every door. After editing: tools/building_kit/build_buildings.sh. \u30e1\u30a4\u30c9\u30ab\u30d5\u30a7: a four-storey Akihabara \u96d1\u5c45\u30d3\u30eb -- F1 the merch shop with capsule-toy machines; F2 the cafe (tables, the counter, a small stage at the window); F3 the event hall; F4 the staff floor (lockers, the manager, the takings safe). A lift, one stair to the roof, a tall pink \u8896\u770b\u677f."
   },
   "mesh": 7,
   "name": "Rest_Chair.004",
   "rotation": [
    0,
    0.7071068286895752,
    0,
    0.7071068286895752
   ],
   "translation": [
    0.75,
    4,
    4.599999904632568
   ]
  },
  {
   "extras": {
    "edit_note": "A mission building (blender/tools/build_interior_blends.py, seed blender/tools/interior_plans.py): a PLACEHOLDER shell and fit-out at its real Japanese size -- remodel freely. Keep the frame (origin = plot centre on the ground, street -Y), the floor levels, and move the Empties with what they belong to: DOOR_ (interior door, arrow OUT of the room), EXIT_ (outer door, arrow out of the building), LIFT_ (a lift: shaft floor centre at the low stop; stops / faces), MARK_ (a mission marker: kind weapon / spawn / cover ...). Keep 1.2 m clear both sides of every door. After editing: tools/building_kit/build_buildings.sh. \u30e1\u30a4\u30c9\u30ab\u30d5\u30a7: a four-storey Akihabara \u96d1\u5c45\u30d3\u30eb -- F1 the merch shop with capsule-toy machines; F2 the cafe (tables, the counter, a small stage at the window); F3 the event hall; F4 the staff floor (lockers, the manager, the takings safe). A lift, one stair to the roof, a tall pink \u8896\u770b\u677f."
   },
   "mesh": 7,
   "name": "Rest_Chair.005",
   "rotation": [
    0,
    -0.7071068286895752,
    0,
    0.7071068286895752
   ],
   "translation": [
    1.649999976158142,
    4,
    4.599999904632568
   ]
  },
  {
   "extras": {
    "edit_note": "A mission building (blender/tools/build_interior_blends.py, seed blender/tools/interior_plans.py): a PLACEHOLDER shell and fit-out at its real Japanese size -- remodel freely. Keep the frame (origin = plot centre on the ground, street -Y), the floor levels, and move the Empties with what they belong to: DOOR_ (interior door, arrow OUT of the room), EXIT_ (outer door, arrow out of the building), LIFT_ (a lift: shaft floor centre at the low stop; stops / faces), MARK_ (a mission marker: kind weapon / spawn / cover ...). Keep 1.2 m clear both sides of every door. After editing: tools/building_kit/build_buildings.sh. \u30e1\u30a4\u30c9\u30ab\u30d5\u30a7: a four-storey Akihabara \u96d1\u5c45\u30d3\u30eb -- F1 the merch shop with capsule-toy machines; F2 the cafe (tables, the counter, a small stage at the window); F3 the event hall; F4 the staff floor (lockers, the manager, the takings safe). A lift, one stair to the roof, a tall pink \u8896\u770b\u677f."
   },
   "mesh": 7,
   "name": "Rest_Chair.006",
   "rotation": [
    0,
    0.7071068286895752,
    0,
    0.7071068286895752
   ],
   "translation": [
    0.75,
    4,
    2.799999952316284
   ]
  },
  {
   "extras": {
    "edit_note": "A mission building (blender/tools/build_interior_blends.py, seed blender/tools/interior_plans.py): a PLACEHOLDER shell and fit-out at its real Japanese size -- remodel freely. Keep the frame (origin = plot centre on the ground, street -Y), the floor levels, and move the Empties with what they belong to: DOOR_ (interior door, arrow OUT of the room), EXIT_ (outer door, arrow out of the building), LIFT_ (a lift: shaft floor centre at the low stop; stops / faces), MARK_ (a mission marker: kind weapon / spawn / cover ...). Keep 1.2 m clear both sides of every door. After editing: tools/building_kit/build_buildings.sh. \u30e1\u30a4\u30c9\u30ab\u30d5\u30a7: a four-storey Akihabara \u96d1\u5c45\u30d3\u30eb -- F1 the merch shop with capsule-toy machines; F2 the cafe (tables, the counter, a small stage at the window); F3 the event hall; F4 the staff floor (lockers, the manager, the takings safe). A lift, one stair to the roof, a tall pink \u8896\u770b\u677f."
   },
   "mesh": 7,
   "name": "Rest_Chair.007",
   "rotation": [
    0,
    -0.7071068286895752,
    0,
    0.7071068286895752
   ],
   "translation": [
    1.649999976158142,
    4,
    2.799999952316284
   ]
  },
  {
   "extras": {
    "edit_note": "A mission building (blender/tools/build_interior_blends.py, seed blender/tools/interior_plans.py): a PLACEHOLDER shell and fit-out at its real Japanese size -- remodel freely. Keep the frame (origin = plot centre on the ground, street -Y), the floor levels, and move the Empties with what they belong to: DOOR_ (interior door, arrow OUT of the room), EXIT_ (outer door, arrow out of the building), LIFT_ (a lift: shaft floor centre at the low stop; stops / faces), MARK_ (a mission marker: kind weapon / spawn / cover ...). Keep 1.2 m clear both sides of every door. After editing: tools/building_kit/build_buildings.sh. \u30e1\u30a4\u30c9\u30ab\u30d5\u30a7: a four-storey Akihabara \u96d1\u5c45\u30d3\u30eb -- F1 the merch shop with capsule-toy machines; F2 the cafe (tables, the counter, a small stage at the window); F3 the event hall; F4 the staff floor (lockers, the manager, the takings safe). A lift, one stair to the roof, a tall pink \u8896\u770b\u677f."
   },
   "mesh": 8,
   "name": "Rest_Table",
   "translation": [
    -1.5,
    4,
    4.599999904632568
   ]
  },
  {
   "extras": {
    "edit_note": "A mission building (blender/tools/build_interior_blends.py, seed blender/tools/interior_plans.py): a PLACEHOLDER shell and fit-out at its real Japanese size -- remodel freely. Keep the frame (origin = plot centre on the ground, street -Y), the floor levels, and move the Empties with what they belong to: DOOR_ (interior door, arrow OUT of the room), EXIT_ (outer door, arrow out of the building), LIFT_ (a lift: shaft floor centre at the low stop; stops / faces), MARK_ (a mission marker: kind weapon / spawn / cover ...). Keep 1.2 m clear both sides of every door. After editing: tools/building_kit/build_buildings.sh. \u30e1\u30a4\u30c9\u30ab\u30d5\u30a7: a four-storey Akihabara \u96d1\u5c45\u30d3\u30eb -- F1 the merch shop with capsule-toy machines; F2 the cafe (tables, the counter, a small stage at the window); F3 the event hall; F4 the staff floor (lockers, the manager, the takings safe). A lift, one stair to the roof, a tall pink \u8896\u770b\u677f."
   },
   "mesh": 8,
   "name": "Rest_Table.001",
   "translation": [
    -1.5,
    4,
    2.799999952316284
   ]
  },
  {
   "extras": {
    "edit_note": "A mission building (blender/tools/build_interior_blends.py, seed blender/tools/interior_plans.py): a PLACEHOLDER shell and fit-out at its real Japanese size -- remodel freely. Keep the frame (origin = plot centre on the ground, street -Y), the floor levels, and move the Empties with what they belong to: DOOR_ (interior door, arrow OUT of the room), EXIT_ (outer door, arrow out of the building), LIFT_ (a lift: shaft floor centre at the low stop; stops / faces), MARK_ (a mission marker: kind weapon / spawn / cover ...). Keep 1.2 m clear both sides of every door. After editing: tools/building_kit/build_buildings.sh. \u30e1\u30a4\u30c9\u30ab\u30d5\u30a7: a four-storey Akihabara \u96d1\u5c45\u30d3\u30eb -- F1 the merch shop with capsule-toy machines; F2 the cafe (tables, the counter, a small stage at the window); F3 the event hall; F4 the staff floor (lockers, the manager, the takings safe). A lift, one stair to the roof, a tall pink \u8896\u770b\u677f."
   },
   "mesh": 8,
   "name": "Rest_Table.002",
   "translation": [
    1.2000000476837158,
    4,
    4.599999904632568
   ]
  },
  {
   "extras": {
    "edit_note": "A mission building (blender/tools/build_interior_blends.py, seed blender/tools/interior_plans.py): a PLACEHOLDER shell and fit-out at its real Japanese size -- remodel freely. Keep the frame (origin = plot centre on the ground, street -Y), the floor levels, and move the Empties with what they belong to: DOOR_ (interior door, arrow OUT of the room), EXIT_ (outer door, arrow out of the building), LIFT_ (a lift: shaft floor centre at the low stop; stops / faces), MARK_ (a mission marker: kind weapon / spawn / cover ...). Keep 1.2 m clear both sides of every door. After editing: tools/building_kit/build_buildings.sh. \u30e1\u30a4\u30c9\u30ab\u30d5\u30a7: a four-storey Akihabara \u96d1\u5c45\u30d3\u30eb -- F1 the merch shop with capsule-toy machines; F2 the cafe (tables, the counter, a small stage at the window); F3 the event hall; F4 the staff floor (lockers, the manager, the takings safe). A lift, one stair to the roof, a tall pink \u8896\u770b\u677f."
   },
   "mesh": 8,
   "name": "Rest_Table.003",
   "translation": [
    1.2000000476837158,
    4,
    2.799999952316284
   ]
  },
  {
   "extras": {
    "edit_note": "A mission building (blender/tools/build_interior_blends.py, seed blender/tools/interior_plans.py): a PLACEHOLDER shell and fit-out at its real Japanese size -- remodel freely. Keep the frame (origin = plot centre on the ground, street -Y), the floor levels, and move the Empties with what they belong to: DOOR_ (interior door, arrow OUT of the room), EXIT_ (outer door, arrow out of the building), LIFT_ (a lift: shaft floor centre at the low stop; stops / faces), MARK_ (a mission marker: kind weapon / spawn / cover ...). Keep 1.2 m clear both sides of every door. After editing: tools/building_kit/build_buildings.sh. \u30e1\u30a4\u30c9\u30ab\u30d5\u30a7: a four-storey Akihabara \u96d1\u5c45\u30d3\u30eb -- F1 the merch shop with capsule-toy machines; F2 the cafe (tables, the counter, a small stage at the window); F3 the event hall; F4 the staff floor (lockers, the manager, the takings safe). A lift, one stair to the roof, a tall pink \u8896\u770b\u677f."
   },
   "mesh": 9,
   "name": "Roof"
  },
  {
   "extras": {
    "edit_note": "A mission building (blender/tools/build_interior_blends.py, seed blender/tools/interior_plans.py): a PLACEHOLDER shell and fit-out at its real Japanese size -- remodel freely. Keep the frame (origin = plot centre on the ground, street -Y), the floor levels, and move the Empties with what they belong to: DOOR_ (interior door, arrow OUT of the room), EXIT_ (outer door, arrow out of the building), LIFT_ (a lift: shaft floor centre at the low stop; stops / faces), MARK_ (a mission marker: kind weapon / spawn / cover ...). Keep 1.2 m clear both sides of every door. After editing: tools/building_kit/build_buildings.sh. \u30e1\u30a4\u30c9\u30ab\u30d5\u30a7: a four-storey Akihabara \u96d1\u5c45\u30d3\u30eb -- F1 the merch shop with capsule-toy machines; F2 the cafe (tables, the counter, a small stage at the window); F3 the event hall; F4 the staff floor (lockers, the manager, the takings safe). A lift, one stair to the roof, a tall pink \u8896\u770b\u677f."
   },
   "mesh": 10,
   "name": "Shafts"
  },
  {
   "extras": {
    "edit_note": "A mission building (blender/tools/build_interior_blends.py, seed blender/tools/interior_plans.py): a PLACEHOLDER shell and fit-out at its real Japanese size -- remodel freely. Keep the frame (origin = plot centre on the ground, street -Y), the floor levels, and move the Empties with what they belong to: DOOR_ (interior door, arrow OUT of the room), EXIT_ (outer door, arrow out of the building), LIFT_ (a lift: shaft floor centre at the low stop; stops / faces), MARK_ (a mission marker: kind weapon / spawn / cover ...). Keep 1.2 m clear both sides of every door. After editing: tools/building_kit/build_buildings.sh. \u30e1\u30a4\u30c9\u30ab\u30d5\u30a7: a four-storey Akihabara \u96d1\u5c45\u30d3\u30eb -- F1 the merch shop with capsule-toy machines; F2 the cafe (tables, the counter, a small stage at the window); F3 the event hall; F4 the staff floor (lockers, the manager, the takings safe). A lift, one stair to the roof, a tall pink \u8896\u770b\u677f."
   },
   "mesh": 11,
   "name": "Shop_GondolaShort",
   "translation": [
    0.6000000238418579,
    0,
    5
   ]
  },
  {
   "extras": {
    "edit_note": "A mission building (blender/tools/build_interior_blends.py, seed blender/tools/interior_plans.py): a PLACEHOLDER shell and fit-out at its real Japanese size -- remodel freely. Keep the frame (origin = plot centre on the ground, street -Y), the floor levels, and move the Empties with what they belong to: DOOR_ (interior door, arrow OUT of the room), EXIT_ (outer door, arrow out of the building), LIFT_ (a lift: shaft floor centre at the low stop; stops / faces), MARK_ (a mission marker: kind weapon / spawn / cover ...). Keep 1.2 m clear both sides of every door. After editing: tools/building_kit/build_buildings.sh. \u30e1\u30a4\u30c9\u30ab\u30d5\u30a7: a four-storey Akihabara \u96d1\u5c45\u30d3\u30eb -- F1 the merch shop with capsule-toy machines; F2 the cafe (tables, the counter, a small stage at the window); F3 the event hall; F4 the staff floor (lockers, the manager, the takings safe). A lift, one stair to the roof, a tall pink \u8896\u770b\u677f."
   },
   "mesh": 11,
   "name": "Shop_GondolaShort.001",
   "translation": [
    0.6000000238418579,
    0,
    3.200000047683716
   ]
  },
  {
   "extras": {
    "edit_note": "A mission building (blender/tools/build_interior_blends.py, seed blender/tools/interior_plans.py): a PLACEHOLDER shell and fit-out at its real Japanese size -- remodel freely. Keep the frame (origin = plot centre on the ground, street -Y), the floor levels, and move the Empties with what they belong to: DOOR_ (interior door, arrow OUT of the room), EXIT_ (outer door, arrow out of the building), LIFT_ (a lift: shaft floor centre at the low stop; stops / faces), MARK_ (a mission marker: kind weapon / spawn / cover ...). Keep 1.2 m clear both sides of every door. After editing: tools/building_kit/build_buildings.sh. \u30e1\u30a4\u30c9\u30ab\u30d5\u30a7: a four-storey Akihabara \u96d1\u5c45\u30d3\u30eb -- F1 the merch shop with capsule-toy machines; F2 the cafe (tables, the counter, a small stage at the window); F3 the event hall; F4 the staff floor (lockers, the manager, the takings safe). A lift, one stair to the roof, a tall pink \u8896\u770b\u677f."
   },
   "mesh": 12,
   "name": "Shop_RegisterSmall",
   "rotation": [
    0,
    -1,
    0,
    4.371138828673793e-08
   ],
   "translation": [
    2.299999952316284,
    1,
    1.159999966621399
   ]
  },
  {
   "extras": {
    "edit_note": "A mission building (blender/tools/build_interior_blends.py, seed blender/tools/interior_plans.py): a PLACEHOLDER shell and fit-out at its real Japanese size -- remodel freely. Keep the frame (origin = plot centre on the ground, street -Y), the floor levels, and move the Empties with what they belong to: DOOR_ (interior door, arrow OUT of the room), EXIT_ (outer door, arrow out of the building), LIFT_ (a lift: shaft floor centre at the low stop; stops / faces), MARK_ (a mission marker: kind weapon / spawn / cover ...). Keep 1.2 m clear both sides of every door. After editing: tools/building_kit/build_buildings.sh. \u30e1\u30a4\u30c9\u30ab\u30d5\u30a7: a four-storey Akihabara \u96d1\u5c45\u30d3\u30eb -- F1 the merch shop with capsule-toy machines; F2 the cafe (tables, the counter, a small stage at the window); F3 the event hall; F4 the staff floor (lockers, the manager, the takings safe). A lift, one stair to the roof, a tall pink \u8896\u770b\u677f."
   },
   "mesh": 13,
   "name": "Site"
  },
  {
   "extras": {
    "edit_note": "A mission building (blender/tools/build_interior_blends.py, seed blender/tools/interior_plans.py): a PLACEHOLDER shell and fit-out at its real Japanese size -- remodel freely. Keep the frame (origin = plot centre on the ground, street -Y), the floor levels, and move the Empties with what they belong to: DOOR_ (interior door, arrow OUT of the room), EXIT_ (outer door, arrow out of the building), LIFT_ (a lift: shaft floor centre at the low stop; stops / faces), MARK_ (a mission marker: kind weapon / spawn / cover ...). Keep 1.2 m clear both sides of every door. After editing: tools/building_kit/build_buildings.sh. \u30e1\u30a4\u30c9\u30ab\u30d5\u30a7: a four-storey Akihabara \u96d1\u5c45\u30d3\u30eb -- F1 the merch shop with capsule-toy machines; F2 the cafe (tables, the counter, a small stage at the window); F3 the event hall; F4 the staff floor (lockers, the manager, the takings safe). A lift, one stair to the roof, a tall pink \u8896\u770b\u677f."
   },
   "mesh": 14,
   "name": "Stairs"
  },
  {
   "extras": {
    "edit_note": "A mission building (blender/tools/build_interior_blends.py, seed blender/tools/interior_plans.py): a PLACEHOLDER shell and fit-out at its real Japanese size -- remodel freely. Keep the frame (origin = plot centre on the ground, street -Y), the floor levels, and move the Empties with what they belong to: DOOR_ (interior door, arrow OUT of the room), EXIT_ (outer door, arrow out of the building), LIFT_ (a lift: shaft floor centre at the low stop; stops / faces), MARK_ (a mission marker: kind weapon / spawn / cover ...). Keep 1.2 m clear both sides of every door. After editing: tools/building_kit/build_buildings.sh. \u30e1\u30a4\u30c9\u30ab\u30d5\u30a7: a four-storey Akihabara \u96d1\u5c45\u30d3\u30eb -- F1 the merch shop with capsule-toy machines; F2 the cafe (tables, the counter, a small stage at the window); F3 the event hall; F4 the staff floor (lockers, the manager, the takings safe). A lift, one stair to the roof, a tall pink \u8896\u770b\u677f."
   },
   "mesh": 15,
   "name": "Structure"
  },
  {
   "extras": {
    "edit_note": "A mission building (blender/tools/build_interior_blends.py, seed blender/tools/interior_plans.py): a PLACEHOLDER shell and fit-out at its real Japanese size -- remodel freely. Keep the frame (origin = plot centre on the ground, street -Y), the floor levels, and move the Empties with what they belong to: DOOR_ (interior door, arrow OUT of the room), EXIT_ (outer door, arrow out of the building), LIFT_ (a lift: shaft floor centre at the low stop; stops / faces), MARK_ (a mission marker: kind weapon / spawn / cover ...). Keep 1.2 m clear both sides of every door. After editing: tools/building_kit/build_buildings.sh. \u30e1\u30a4\u30c9\u30ab\u30d5\u30a7: a four-storey Akihabara \u96d1\u5c45\u30d3\u30eb -- F1 the merch shop with capsule-toy machines; F2 the cafe (tables, the counter, a small stage at the window); F3 the event hall; F4 the staff floor (lockers, the manager, the takings safe). A lift, one stair to the roof, a tall pink \u8896\u770b\u677f."
   },
   "mesh": 16,
   "name": "Walls_0"
  },
  {
   "extras": {
    "edit_note": "A mission building (blender/tools/build_interior_blends.py, seed blender/tools/interior_plans.py): a PLACEHOLDER shell and fit-out at its real Japanese size -- remodel freely. Keep the frame (origin = plot centre on the ground, street -Y), the floor levels, and move the Empties with what they belong to: DOOR_ (interior door, arrow OUT of the room), EXIT_ (outer door, arrow out of the building), LIFT_ (a lift: shaft floor centre at the low stop; stops / faces), MARK_ (a mission marker: kind weapon / spawn / cover ...). Keep 1.2 m clear both sides of every door. After editing: tools/building_kit/build_buildings.sh. \u30e1\u30a4\u30c9\u30ab\u30d5\u30a7: a four-storey Akihabara \u96d1\u5c45\u30d3\u30eb -- F1 the merch shop with capsule-toy machines; F2 the cafe (tables, the counter, a small stage at the window); F3 the event hall; F4 the staff floor (lockers, the manager, the takings safe). A lift, one stair to the roof, a tall pink \u8896\u770b\u677f."
   },
   "mesh": 17,
   "name": "Walls_4"
  },
  {
   "extras": {
    "edit_note": "A mission building (blender/tools/build_interior_blends.py, seed blender/tools/interior_plans.py): a PLACEHOLDER shell and fit-out at its real Japanese size -- remodel freely. Keep the frame (origin = plot centre on the ground, street -Y), the floor levels, and move the Empties with what they belong to: DOOR_ (interior door, arrow OUT of the room), EXIT_ (outer door, arrow out of the building), LIFT_ (a lift: shaft floor centre at the low stop; stops / faces), MARK_ (a mission marker: kind weapon / spawn / cover ...). Keep 1.2 m clear both sides of every door. After editing: tools/building_kit/build_buildings.sh. \u30e1\u30a4\u30c9\u30ab\u30d5\u30a7: a four-storey Akihabara \u96d1\u5c45\u30d3\u30eb -- F1 the merch shop with capsule-toy machines; F2 the cafe (tables, the counter, a small stage at the window); F3 the event hall; F4 the staff floor (lockers, the manager, the takings safe). A lift, one stair to the roof, a tall pink \u8896\u770b\u677f."
   },
   "mesh": 18,
   "name": "Walls_7.3"
  },
  {
   "extras": {
    "edit_note": "A mission building (blender/tools/build_interior_blends.py, seed blender/tools/interior_plans.py): a PLACEHOLDER shell and fit-out at its real Japanese size -- remodel freely. Keep the frame (origin = plot centre on the ground, street -Y), the floor levels, and move the Empties with what they belong to: DOOR_ (interior door, arrow OUT of the room), EXIT_ (outer door, arrow out of the building), LIFT_ (a lift: shaft floor centre at the low stop; stops / faces), MARK_ (a mission marker: kind weapon / spawn / cover ...). Keep 1.2 m clear both sides of every door. After editing: tools/building_kit/build_buildings.sh. \u30e1\u30a4\u30c9\u30ab\u30d5\u30a7: a four-storey Akihabara \u96d1\u5c45\u30d3\u30eb -- F1 the merch shop with capsule-toy machines; F2 the cafe (tables, the counter, a small stage at the window); F3 the event hall; F4 the staff floor (lockers, the manager, the takings safe). A lift, one stair to the roof, a tall pink \u8896\u770b\u677f."
   },
   "mesh": 19,
   "name": "Walls_10.6"
  },
  {
   "extras": {
    "edit_note": "A mission building (blender/tools/build_interior_blends.py, seed blender/tools/interior_plans.py): a PLACEHOLDER shell and fit-out at its real Japanese size -- remodel freely. Keep the frame (origin = plot centre on the ground, street -Y), the floor levels, and move the Empties with what they belong to: DOOR_ (interior door, arrow OUT of the room), EXIT_ (outer door, arrow out of the building), LIFT_ (a lift: shaft floor centre at the low stop; stops / faces), MARK_ (a mission marker: kind weapon / spawn / cover ...). Keep 1.2 m clear both sides of every door. After editing: tools/building_kit/build_buildings.sh. \u30e1\u30a4\u30c9\u30ab\u30d5\u30a7: a four-storey Akihabara \u96d1\u5c45\u30d3\u30eb -- F1 the merch shop with capsule-toy machines; F2 the cafe (tables, the counter, a small stage at the window); F3 the event hall; F4 the staff floor (lockers, the manager, the takings safe). A lift, one stair to the roof, a tall pink \u8896\u770b\u677f."
   },
   "mesh": 20,
   "name": "WC_Basin",
   "rotation": [
    0,
    0.7071068286895752,
    0,
    0.7071068286895752
   ],
   "translation": [
    -2.684999942779541,
    0,
    -5.179999828338623
   ]
  },
  {
   "extras": {
    "edit_note": "A mission building (blender/tools/build_interior_blends.py, seed blender/tools/interior_plans.py): a PLACEHOLDER shell and fit-out at its real Japanese size -- remodel freely. Keep the frame (origin = plot centre on the ground, street -Y), the floor levels, and move the Empties with what they belong to: DOOR_ (interior door, arrow OUT of the room), EXIT_ (outer door, arrow out of the building), LIFT_ (a lift: shaft floor centre at the low stop; stops / faces), MARK_ (a mission marker: kind weapon / spawn / cover ...). Keep 1.2 m clear both sides of every door. After editing: tools/building_kit/build_buildings.sh. \u30e1\u30a4\u30c9\u30ab\u30d5\u30a7: a four-storey Akihabara \u96d1\u5c45\u30d3\u30eb -- F1 the merch shop with capsule-toy machines; F2 the cafe (tables, the counter, a small stage at the window); F3 the event hall; F4 the staff floor (lockers, the manager, the takings safe). A lift, one stair to the roof, a tall pink \u8896\u770b\u677f."
   },
   "mesh": 20,
   "name": "WC_Basin.001",
   "rotation": [
    0,
    0.7071068286895752,
    0,
    0.7071068286895752
   ],
   "translation": [
    -2.684999942779541,
    4,
    -5.179999828338623
   ]
  },
  {
   "extras": {
    "edit_note": "A mission building (blender/tools/build_interior_blends.py, seed blender/tools/interior_plans.py): a PLACEHOLDER shell and fit-out at its real Japanese size -- remodel freely. Keep the frame (origin = plot centre on the ground, street -Y), the floor levels, and move the Empties with what they belong to: DOOR_ (interior door, arrow OUT of the room), EXIT_ (outer door, arrow out of the building), LIFT_ (a lift: shaft floor centre at the low stop; stops / faces), MARK_ (a mission marker: kind weapon / spawn / cover ...). Keep 1.2 m clear both sides of every door. After editing: tools/building_kit/build_buildings.sh. \u30e1\u30a4\u30c9\u30ab\u30d5\u30a7: a four-storey Akihabara \u96d1\u5c45\u30d3\u30eb -- F1 the merch shop with capsule-toy machines; F2 the cafe (tables, the counter, a small stage at the window); F3 the event hall; F4 the staff floor (lockers, the manager, the takings safe). A lift, one stair to the roof, a tall pink \u8896\u770b\u677f."
   },
   "mesh": 20,
   "name": "WC_Basin.002",
   "rotation": [
    0,
    0.7071068286895752,
    0,
    0.7071068286895752
   ],
   "translation": [
    -2.684999942779541,
    7.300000190734863,
    -5.179999828338623
   ]
  },
  {
   "extras": {
    "edit_note": "A mission building (blender/tools/build_interior_blends.py, seed blender/tools/interior_plans.py): a PLACEHOLDER shell and fit-out at its real Japanese size -- remodel freely. Keep the frame (origin = plot centre on the ground, street -Y), the floor levels, and move the Empties with what they belong to: DOOR_ (interior door, arrow OUT of the room), EXIT_ (outer door, arrow out of the building), LIFT_ (a lift: shaft floor centre at the low stop; stops / faces), MARK_ (a mission marker: kind weapon / spawn / cover ...). Keep 1.2 m clear both sides of every door. After editing: tools/building_kit/build_buildings.sh. \u30e1\u30a4\u30c9\u30ab\u30d5\u30a7: a four-storey Akihabara \u96d1\u5c45\u30d3\u30eb -- F1 the merch shop with capsule-toy machines; F2 the cafe (tables, the counter, a small stage at the window); F3 the event hall; F4 the staff floor (lockers, the manager, the takings safe). A lift, one stair to the roof, a tall pink \u8896\u770b\u677f."
   },
   "mesh": 20,
   "name": "WC_Basin.003",
   "rotation": [
    0,
    0.7071068286895752,
    0,
    0.7071068286895752
   ],
   "translation": [
    -2.684999942779541,
    10.600000381469727,
    -5.179999828338623
   ]
  },
  {
   "extras": {
    "edit_note": "A mission building (blender/tools/build_interior_blends.py, seed blender/tools/interior_plans.py): a PLACEHOLDER shell and fit-out at its real Japanese size -- remodel freely. Keep the frame (origin = plot centre on the ground, street -Y), the floor levels, and move the Empties with what they belong to: DOOR_ (interior door, arrow OUT of the room), EXIT_ (outer door, arrow out of the building), LIFT_ (a lift: shaft floor centre at the low stop; stops / faces), MARK_ (a mission marker: kind weapon / spawn / cover ...). Keep 1.2 m clear both sides of every door. After editing: tools/building_kit/build_buildings.sh. \u30e1\u30a4\u30c9\u30ab\u30d5\u30a7: a four-storey Akihabara \u96d1\u5c45\u30d3\u30eb -- F1 the merch shop with capsule-toy machines; F2 the cafe (tables, the counter, a small stage at the window); F3 the event hall; F4 the staff floor (lockers, the manager, the takings safe). A lift, one stair to the roof, a tall pink \u8896\u770b\u677f."
   },
   "mesh": 21,
   "name": "WC_Toilet",
   "rotation": [
    0,
    -1,
    0,
    4.371138828673793e-08
   ],
   "translation": [
    -2.049999952316284,
    0,
    -6.699999809265137
   ]
  },
  {
   "extras": {
    "edit_note": "A mission building (blender/tools/build_interior_blends.py, seed blender/tools/interior_plans.py): a PLACEHOLDER shell and fit-out at its real Japanese size -- remodel freely. Keep the frame (origin = plot centre on the ground, street -Y), the floor levels, and move the Empties with what they belong to: DOOR_ (interior door, arrow OUT of the room), EXIT_ (outer door, arrow out of the building), LIFT_ (a lift: shaft floor centre at the low stop; stops / faces), MARK_ (a mission marker: kind weapon / spawn / cover ...). Keep 1.2 m clear both sides of every door. After editing: tools/building_kit/build_buildings.sh. \u30e1\u30a4\u30c9\u30ab\u30d5\u30a7: a four-storey Akihabara \u96d1\u5c45\u30d3\u30eb -- F1 the merch shop with capsule-toy machines; F2 the cafe (tables, the counter, a small stage at the window); F3 the event hall; F4 the staff floor (lockers, the manager, the takings safe). A lift, one stair to the roof, a tall pink \u8896\u770b\u677f."
   },
   "mesh": 21,
   "name": "WC_Toilet.001",
   "rotation": [
    0,
    -1,
    0,
    4.371138828673793e-08
   ],
   "translation": [
    -2.049999952316284,
    4,
    -6.699999809265137
   ]
  },
  {
   "extras": {
    "edit_note": "A mission building (blender/tools/build_interior_blends.py, seed blender/tools/interior_plans.py): a PLACEHOLDER shell and fit-out at its real Japanese size -- remodel freely. Keep the frame (origin = plot centre on the ground, street -Y), the floor levels, and move the Empties with what they belong to: DOOR_ (interior door, arrow OUT of the room), EXIT_ (outer door, arrow out of the building), LIFT_ (a lift: shaft floor centre at the low stop; stops / faces), MARK_ (a mission marker: kind weapon / spawn / cover ...). Keep 1.2 m clear both sides of every door. After editing: tools/building_kit/build_buildings.sh. \u30e1\u30a4\u30c9\u30ab\u30d5\u30a7: a four-storey Akihabara \u96d1\u5c45\u30d3\u30eb -- F1 the merch shop with capsule-toy machines; F2 the cafe (tables, the counter, a small stage at the window); F3 the event hall; F4 the staff floor (lockers, the manager, the takings safe). A lift, one stair to the roof, a tall pink \u8896\u770b\u677f."
   },
   "mesh": 21,
   "name": "WC_Toilet.002",
   "rotation": [
    0,
    -1,
    0,
    4.371138828673793e-08
   ],
   "translation": [
    -2.049999952316284,
    7.300000190734863,
    -6.699999809265137
   ]
  },
  {
   "extras": {
    "edit_note": "A mission building (blender/tools/build_interior_blends.py, seed blender/tools/interior_plans.py): a PLACEHOLDER shell and fit-out at its real Japanese size -- remodel freely. Keep the frame (origin = plot centre on the ground, street -Y), the floor levels, and move the Empties with what they belong to: DOOR_ (interior door, arrow OUT of the room), EXIT_ (outer door, arrow out of the building), LIFT_ (a lift: shaft floor centre at the low stop; stops / faces), MARK_ (a mission marker: kind weapon / spawn / cover ...). Keep 1.2 m clear both sides of every door. After editing: tools/building_kit/build_buildings.sh. \u30e1\u30a4\u30c9\u30ab\u30d5\u30a7: a four-storey Akihabara \u96d1\u5c45\u30d3\u30eb -- F1 the merch shop with capsule-toy machines; F2 the cafe (tables, the counter, a small stage at the window); F3 the event hall; F4 the staff floor (lockers, the manager, the takings safe). A lift, one stair to the roof, a tall pink \u8896\u770b\u677f."
   },
   "mesh": 21,
   "name": "WC_Toilet.003",
   "rotation": [
    0,
    -1,
    0,
    4.371138828673793e-08
   ],
   "translation": [
    -2.049999952316284,
    10.600000381469727,
    -6.699999809265137
   ]
  }
 ],
 "materials": [
  {
   "doubleSided": true,
   "name": "MI_TileWhite",
   "pbrMetallicRoughness": {
    "baseColorFactor": [
     0.8136419057846069,
     0.8136419057846069,
     0.8136419057846069,
     1
    ],
    "metallicFactor": 0,
    "roughnessFactor": 0.699999988079071
   }
  },
  {
   "doubleSided": true,
   "name": "MI_Plaster",
   "pbrMetallicRoughness": {
    "baseColorFactor": [
     0.8999999761581421,
     0.8899999856948853,
     0.8600000143051147,
     1
    ],
    "metallicFactor": 0,
    "roughnessFactor": 0.699999988079071
   }
  },
  {
   "doubleSided": true,
   "emissiveFactor": [
    1,
    0.30000001192092896,
    0.6499999761581421
   ],
   "name": "MI_SignPink",
   "pbrMetallicRoughness": {
    "baseColorFactor": [
     0.949999988079071,
     0.30000001192092896,
     0.6000000238418579,
     1
    ],
    "metallicFactor": 0,
    "roughnessFactor": 0.699999988079071
   }
  },
  {
   "doubleSided": true,
   "emissiveFactor": [
    0.10000000149011612,
    0.800000011920929,
    0.8999999761581421
   ],
   "name": "MI_SignCyan",
   "pbrMetallicRoughness": {
    "baseColorFactor": [
     0.10000000149011612,
     0.75,
     0.8500000238418579,
     1
    ],
    "metallicFactor": 0,
    "roughnessFactor": 0.699999988079071
   }
  },
  {
   "doubleSided": true,
   "name": "MI_Wood",
   "pbrMetallicRoughness": {
    "baseColorFactor": [
     0.6217582821846008,
     0.4432729184627533,
     0.2785278260707855,
     1
    ],
    "metallicFactor": 0,
    "roughnessFactor": 0.699999988079071
   }
  },
  {
   "doubleSided": true,
   "name": "MI_Hinoki",
   "pbrMetallicRoughness": {
    "baseColorFactor": [
     0.8600000143051147,
     0.7400000095367432,
     0.550000011920929,
     1
    ],
    "metallicFactor": 0,
    "roughnessFactor": 0.6000000238418579
   }
  },
  {
   "doubleSided": true,
   "name": "MI_Steel",
   "pbrMetallicRoughness": {
    "baseColorFactor": [
     0.5726980566978455,
     0.5820889472961426,
     0.5955169796943665,
     1
    ],
    "roughnessFactor": 0.699999988079071
   }
  },
  {
   "doubleSided": true,
   "name": "MI_FabricRed",
   "pbrMetallicRoughness": {
    "baseColorFactor": [
     0.44999998807907104,
     0.07999999821186066,
     0.07000000029802322,
     1
    ],
    "metallicFactor": 0,
    "roughnessFactor": 0.699999988079071
   }
  },
  {
   "doubleSided": true,
   "name": "MI_GlassClear",
   "pbrMetallicRoughness": {
    "baseColorFactor": [
     0.550000011920929,
     0.6800000071525574,
     0.7200000286102295,
     1
    ],
    "metallicFactor": 0.20000000298023224,
    "roughnessFactor": 0.05000000074505806
   }
  },
  {
   "doubleSided": true,
   "name": "MI_PaintedMetal",
   "pbrMetallicRoughness": {
    "baseColorFactor": [
     0.8999999761581421,
     0.8999999761581421,
     0.8899999856948853,
     1
    ],
    "metallicFactor": 0.30000001192092896,
    "roughnessFactor": 0.699999988079071
   }
  },
  {
   "doubleSided": true,
   "name": "MI_PlasticDark",
   "pbrMetallicRoughness": {
    "baseColorFactor": [
     0.11999999731779099,
     0.11999999731779099,
     0.12999999523162842,
     1
    ],
    "metallicFactor": 0,
    "roughnessFactor": 0.6000000238418579
   }
  },
  {
   "doubleSided": true,
   "name": "MI_Fabric",
   "pbrMetallicRoughness": {
    "baseColorFactor": [
     0.3585456907749176,
     0.35632404685020447,
     0.3589908480644226,
     1
    ],
    "metallicFactor": 0,
    "roughnessFactor": 0.699999988079071
   }
  },
  {
   "doubleSided": true,
   "name": "MI_PaintedMetalDark",
   "pbrMetallicRoughness": {
    "baseColorFactor": [
     0.1599999964237213,
     0.17000000178813934,
     0.18000000715255737,
     1
    ],
    "metallicFactor": 0.4000000059604645,
    "roughnessFactor": 0.699999988079071
   }
  },
  {
   "doubleSided": true,
   "name": "MI_ConcreteSmooth",
   "pbrMetallicRoughness": {
    "baseColorFactor": [
     0.3104965388774872,
     0.3015982508659363,
     0.2871379554271698,
     1
    ],
    "metallicFactor": 0,
    "roughnessFactor": 0.699999988079071
   }
  },
  {
   "doubleSided": true,
   "name": "MI_PlasticWhite",
   "pbrMetallicRoughness": {
    "baseColorFactor": [
     0.9300000071525574,
     0.9300000071525574,
     0.9100000262260437,
     1
    ],
    "metallicFactor": 0,
    "roughnessFactor": 0.30000001192092896
   }
  },
  {
   "doubleSided": true,
   "name": "MI_Terrazzo",
   "pbrMetallicRoughness": {
    "baseColorFactor": [
     0.8399999737739563,
     0.8600000143051147,
     0.8600000143051147,
     1
    ],
    "metallicFactor": 0,
    "roughnessFactor": 0.699999988079071
   }
  },
  {
   "doubleSided": true,
   "emissiveFactor": [
    0.0600000032782555,
    0.15000000596046448,
    0.30000001192092896
   ],
   "name": "MI_Sign",
   "pbrMetallicRoughness": {
    "baseColorFactor": [
     0.11999999731779099,
     0.30000001192092896,
     0.550000011920929,
     1
    ],
    "metallicFactor": 0,
    "roughnessFactor": 0.699999988079071
   }
  },
  {
   "doubleSided": true,
   "emissiveFactor": [
    1,
    0.9800000190734863,
    0.9399999976158142
   ],
   "extensions": {
    "KHR_materials_emissive_strength": {
     "emissiveStrength": 2
    }
   },
   "name": "MI_Light",
   "pbrMetallicRoughness": {
    "baseColorFactor": [
     1,
     1,
     0.9700000286102295,
     1
    ],
    "metallicFactor": 0,
    "roughnessFactor": 0.699999988079071
   }
  }
 ],
 "meshes": [
  {
   "name": "MaidCafe_Facade",
   "primitives": [
    {
     "attributes": {
      "POSITION": 0,
      "NORMAL": 1
     },
     "indices": 2,
     "material": 0
    },
    {
     "attributes": {
      "POSITION": 3,
      "NORMAL": 4
     },
     "indices": 5,
     "material": 1
    },
    {
     "attributes": {
      "POSITION": 6,
      "NORMAL": 7
     },
     "indices": 8,
     "material": 2
    },
    {
     "attributes": {
      "POSITION": 9,
      "NORMAL": 10
     },
     "indices": 11,
     "material": 3
    }
   ]
  },
  {
   "name": "MaidCafe_Furniture",
   "primitives": [
    {
     "attributes": {
      "POSITION": 12,
      "NORMAL": 13
     },
     "indices": 14,
     "material": 2
    },
    {
     "attributes": {
      "POSITION": 15,
      "NORMAL": 16
     },
     "indices": 8,
     "material": 4
    },
    {
     "attributes": {
      "POSITION": 17,
      "NORMAL": 18
     },
     "indices": 8,
     "material": 5
    },
    {
     "attributes": {
      "POSITION": 19,
      "NORMAL": 20
     },
     "indices": 21,
     "material": 3
    },
    {
     "attributes": {
      "POSITION": 22,
      "NORMAL": 23
     },
     "indices": 24,
     "material": 6
    },
    {
     "attributes": {
      "POSITION": 25,
      "NORMAL": 26
     },
     "indices": 24,
     "material": 7
    }
   ]
  },
  {
   "name": "MaidCafe_Glazing",
   "primitives": [
    {
     "attributes": {
      "POSITION": 27,
      "NORMAL": 28
     },
     "indices": 29,
     "material": 8
    },
    {
     "attributes": {
      "POSITION": 30,
      "NORMAL": 31
     },
     "indices": 32,
     "material": 9
    }
   ]
  },
  {
   "name": "LIB_Office_Chair",
   "primitives": [
    {
     "attributes": {
      "POSITION": 33,
      "NORMAL": 34
     },
     "indices": 21,
     "material": 6
    },
    {
     "attributes": {
      "POSITION": 35,
      "NORMAL": 36
     },
     "indices": 21,
     "material": 10
    },
    {
     "attributes": {
      "POSITION": 37,
      "NORMAL": 38
     },
     "indices": 8,
     "material": 11
    }
   ]
  },
  {
   "name": "LIB_Office_Desk",
   "primitives": [
    {
     "attributes": {
      "POSITION": 39,
      "NORMAL": 40
     },
     "indices": 21,
     "material": 4
    },
    {
     "attributes": {
      "POSITION": 41,
      "NORMAL": 42
     },
     "indices": 8,
     "material": 9
    },
    {
     "attributes": {
      "POSITION": 43,
      "NORMAL": 44
     },
     "indices": 21,
     "material": 10
    }
   ]
  },
  {
   "name": "LIB_Office_Locker",
   "primitives": [
    {
     "attributes": {
      "POSITION": 45,
      "NORMAL": 46
     },
     "indices": 21,
     "material": 9
    },
    {
     "attributes": {
      "POSITION": 47,
      "NORMAL": 48
     },
     "indices": 11,
     "material": 12
    }
   ]
  },
  {
   "name": "LIB_Office_Safe",
   "primitives": [
    {
     "attributes": {
      "POSITION": 49,
      "NORMAL": 50
     },
     "indices": 21,
     "material": 12
    },
    {
     "attributes": {
      "POSITION": 51,
      "NORMAL": 52
     },
     "indices": 21,
     "material": 6
    }
   ]
  },
  {
   "extras": {
    "placeholder_note": "REMOVED 2026-09-28: base mesh was from elbolilloduro BurgerPiz pack (base mesh removed); this is a same-size PLACEHOLDER BOX, needs a modeller (see kits/library/placeholders.json)"
   },
   "name": "LIB_Rest_Chair",
   "primitives": [
    {
     "attributes": {
      "POSITION": 53,
      "NORMAL": 54
     },
     "indices": 55,
     "material": 4
    }
   ]
  },
  {
   "extras": {
    "placeholder_note": "REMOVED 2026-09-28: base mesh was from elbolilloduro BurgerPiz pack (base mesh removed); this is a same-size PLACEHOLDER BOX, needs a modeller (see kits/library/placeholders.json)"
   },
   "name": "LIB_Rest_Table",
   "primitives": [
    {
     "attributes": {
      "POSITION": 56,
      "NORMAL": 57
     },
     "indices": 55,
     "material": 4
    }
   ]
  },
  {
   "name": "MaidCafe_Roof",
   "primitives": [
    {
     "attributes": {
      "POSITION": 58,
      "NORMAL": 59
     },
     "indices": 60,
     "material": 13
    },
    {
     "attributes": {
      "POSITION": 61,
      "NORMAL": 62
     },
     "indices": 8,
     "material": 14
    },
    {
     "attributes": {
      "POSITION": 63,
      "NORMAL": 64
     },
     "indices": 65,
     "material": 1
    }
   ]
  },
  {
   "name": "MaidCafe_Shafts",
   "primitives": [
    {
     "attributes": {
      "POSITION": 66,
      "NORMAL": 67
     },
     "indices": 68,
     "material": 13
    }
   ]
  },
  {
   "extras": {
    "placeholder_note": "REMOVED 2026-09-28: base mesh was from elbolilloduro 6TWELVE pack (base mesh removed); this is a same-size PLACEHOLDER BOX, needs a modeller (see kits/library/placeholders.json)"
   },
   "name": "LIB_Shop_GondolaShort",
   "primitives": [
    {
     "attributes": {
      "POSITION": 69,
      "NORMAL": 70
     },
     "indices": 55,
     "material": 9
    }
   ]
  },
  {
   "extras": {
    "placeholder_note": "REMOVED 2026-09-28: base mesh was from elbolilloduro BurgerPiz pack (base mesh removed); this is a same-size PLACEHOLDER BOX, needs a modeller (see kits/library/placeholders.json)"
   },
   "name": "LIB_Shop_RegisterSmall",
   "primitives": [
    {
     "attributes": {
      "POSITION": 71,
      "NORMAL": 72
     },
     "indices": 55,
     "material": 10
    }
   ]
  },
  {
   "name": "MaidCafe_Site",
   "primitives": [
    {
     "attributes": {
      "POSITION": 73,
      "NORMAL": 74
     },
     "indices": 21,
     "material": 13
    }
   ]
  },
  {
   "name": "MaidCafe_Stairs",
   "primitives": [
    {
     "attributes": {
      "POSITION": 75,
      "NORMAL": 76
     },
     "indices": 77,
     "material": 13
    },
    {
     "attributes": {
      "POSITION": 78,
      "NORMAL": 79
     },
     "indices": 80,
     "material": 12
    },
    {
     "attributes": {
      "POSITION": 81,
      "NORMAL": 82
     },
     "indices": 83,
     "material": 1
    }
   ]
  },
  {
   "name": "MaidCafe_Structure",
   "primitives": [
    {
     "attributes": {
      "POSITION": 84,
      "NORMAL": 85
     },
     "indices": 86,
     "material": 15
    }
   ]
  },
  {
   "name": "MaidCafe_Walls_0",
   "primitives": [
    {
     "attributes": {
      "POSITION": 87,
      "NORMAL": 88
     },
     "indices": 89,
     "material": 1
    }
   ]
  },
  {
   "name": "MaidCafe_Walls_4",
   "primitives": [
    {
     "attributes": {
      "POSITION": 90,
      "NORMAL": 91
     },
     "indices": 89,
     "material": 1
    }
   ]
  },
  {
   "name": "MaidCafe_Walls_7.3",
   "primitives": [
    {
     "attributes": {
      "POSITION": 92,
      "NORMAL": 93
     },
     "indices": 89,
     "material": 1
    }
   ]
  },
  {
   "name": "MaidCafe_Walls_10.6",
   "primitives": [
    {
     "attributes": {
      "POSITION": 94,
      "NORMAL": 95
     },
     "indices": 96,
     "material": 1
    }
   ]
  },
  {
   "name": "LIB_WC_Basin",
   "primitives": [
    {
     "attributes": {
      "POSITION": 97,
      "NORMAL": 98
     },
     "indices": 21,
     "material": 14
    },
    {
     "attributes": {
      "POSITION": 99,
      "NORMAL": 100
     },
     "indices": 21,
     "material": 0
    },
    {
     "attributes": {
      "POSITION": 101,
      "NORMAL": 102
     },
     "indices": 103,
     "material": 6
    }
   ]
  },
  {
   "name": "LIB_WC_Toilet",
   "primitives": [
    {
     "attributes": {
      "POSITION": 104,
      "NORMAL": 105
     },
     "indices": 106,
     "material": 14
    },
    {
     "attributes": {
      "POSITION": 107,
      "NORMAL": 108
     },
     "indices": 21,
     "material": 10
    },
    {
     "attributes": {
      "POSITION": 109,
      "NORMAL": 110
     },
     "indices": 21,
     "material": 16
    },
    {
     "attributes": {
      "POSITION": 111,
      "NORMAL": 112
     },
     "indices": 21,
     "material": 7
    },
    {
     "attributes": {
      "POSITION": 113,
      "NORMAL": 114
     },
     "indices": 21,
     "material": 17
    },
    {
     "attributes": {
      "POSITION": 115,
      "NORMAL": 116
     },
     "indices": 21,
     "material": 6
    }
   ]
  }
 ],
 "accessors": [
  {
   "bufferView": 0,
   "componentType": 5126,
   "count": 636,
   "max": [
    3.184999942779541,
    13.899999618530273,
    7.28000020980835
   ],
   "min": [
    -3.184999942779541,
    0,
    -7.28000020980835
   ],
   "type": "VEC3"
  },
  {
   "bufferView": 1,
   "componentType": 5126,
   "count": 636,
   "type": "VEC3"
  },
  {
   "bufferView": 2,
   "componentType": 5123,
   "count": 1320,
   "type": "SCALAR"
  },
  {
   "bufferView": 3,
   "componentType": 5126,
   "count": 576,
   "max": [
    3.184999942779541,
    13.899999618530273,
    7.179999828338623
   ],
   "min": [
    -3.184999942779541,
    0,
    -7.179999828338623
   ],
   "type": "VEC3"
  },
  {
   "bufferView": 4,
   "componentType": 5126,
   "count": 576,
   "type": "VEC3"
  },
  {
   "bufferView": 5,
   "componentType": 5123,
   "count": 1170,
   "type": "SCALAR"
  },
  {
   "bufferView": 6,
   "componentType": 5126,
   "count": 48,
   "max": [
    2.950000047683716,
    13,
    8.880000114440918
   ],
   "min": [
    -3,
    0,
    7.28000020980835
   ],
   "type": "VEC3"
  },
  {
   "bufferView": 7,
   "componentType": 5126,
   "count": 48,
   "type": "VEC3"
  },
  {
   "bufferView": 8,
   "componentType": 5123,
   "count": 72,
   "type": "SCALAR"
  },
  {
   "bufferView": 9,
   "componentType": 5126,
   "count": 72,
   "max": [
    1.7999999523162842,
    13.699999809265137,
    7.429999828338623
   ],
   "min": [
    -2.9000000953674316,
    6.5,
    7.28000020980835
   ],
   "type": "VEC3"
  },
  {
   "bufferView": 10,
   "componentType": 5126,
   "count": 72,
   "type": "VEC3"
  },
  {
   "bufferView": 11,
   "componentType": 5123,
   "count": 108,
   "type": "SCALAR"
  },
  {
   "bufferView": 12,
   "componentType": 5126,
   "count": 144,
   "max": [
    2.984999895095825,
    7.699999809265137,
    7.079999923706055
   ],
   "min": [
    -2.984999895095825,
    0,
    4.25
   ],
   "type": "VEC3"
  },
  {
   "bufferView": 13,
   "componentType": 5126,
   "count": 144,
   "type": "VEC3"
  },
  {
   "bufferView": 14,
   "componentType": 5123,
   "count": 216,
   "type": "SCALAR"
  },
  {
   "bufferView": 15,
   "componentType": 5126,
   "count": 48,
   "max": [
    2.984999895095825,
    5,
    1.4600000381469727
   ],
   "min": [
    -2.984999895095825,
    0,
    0.6600000262260437
   ],
   "type": "VEC3"
  },
  {
   "bufferView": 16,
   "componentType": 5126,
   "count": 48,
   "type": "VEC3"
  },
  {
   "bufferView": 17,
   "componentType": 5126,
   "count": 48,
   "max": [
    3.0350000858306885,
    5.050000190734863,
    1.5099999904632568
   ],
   "min": [
    -3.0350000858306885,
    0.949999988079071,
    0.6100000143051147
   ],
   "type": "VEC3"
  },
  {
   "bufferView": 18,
   "componentType": 5126,
   "count": 48,
   "type": "VEC3"
  },
  {
   "bufferView": 19,
   "componentType": 5126,
   "count": 24,
   "max": [
    2.984999895095825,
    10.199999809265137,
    7.079999923706055
   ],
   "min": [
    -2.984999895095825,
    7.699999809265137,
    6.980000019073486
   ],
   "type": "VEC3"
  },
  {
   "bufferView": 20,
   "componentType": 5126,
   "count": 24,
   "type": "VEC3"
  },
  {
   "bufferView": 21,
   "componentType": 5123,
   "count": 36,
   "type": "SCALAR"
  },
  {
   "bufferView": 22,
   "componentType": 5126,
   "count": 336,
   "max": [
    2.130000114440918,
    7.940000057220459,
    3.8299999237060547
   ],
   "min": [
    -2.130000114440918,
    7.300000190734863,
    2.7699999809265137
   ],
   "type": "VEC3"
  },
  {
   "bufferView": 23,
   "componentType": 5126,
   "count": 336,
   "type": "VEC3"
  },
  {
   "bufferView": 24,
   "componentType": 5123,
   "count": 504,
   "type": "SCALAR"
  },
  {
   "bufferView": 25,
   "componentType": 5126,
   "count": 336,
   "max": [
    2.2799999713897705,
    8,
    3.9800000190734863
   ],
   "min": [
    -2.2799999713897705,
    7.940000057220459,
    2.619999885559082
   ],
   "type": "VEC3"
  },
  {
   "bufferView": 26,
   "componentType": 5126,
   "count": 336,
   "type": "VEC3"
  },
  {
   "bufferView": 27,
   "componentType": 5126,
   "count": 168,
   "max": [
    2.799999952316284,
    13,
    7.191999912261963
   ],
   "min": [
    -2.0924999713897705,
    0.30000001192092896,
    7.168000221252441
   ],
   "type": "VEC3"
  },
  {
   "bufferView": 28,
   "componentType": 5126,
   "count": 168,
   "type": "VEC3"
  },
  {
   "bufferView": 29,
   "componentType": 5123,
   "count": 252,
   "type": "SCALAR"
  },
  {
   "bufferView": 30,
   "componentType": 5126,
   "count": 720,
   "max": [
    2.8499999046325684,
    13.050000190734863,
    7.289999961853027
   ],
   "min": [
    -3.194999933242798,
    -0.05000000074505806,
    -1.090000033378601
   ],
   "type": "VEC3"
  },
  {
   "bufferView": 31,
   "componentType": 5126,
   "count": 720,
   "type": "VEC3"
  },
  {
   "bufferView": 32,
   "componentType": 5123,
   "count": 1296,
   "type": "SCALAR"
  },
  {
   "bufferView": 33,
   "componentType": 5126,
   "count": 24,
   "max": [
    0.029999999329447746,
    0.41999998688697815,
    0.029999999329447746
   ],
   "min": [
    -0.029999999329447746,
    0,
    -0.029999999329447746
   ],
   "type": "VEC3"
  },
  {
   "bufferView": 34,
   "componentType": 5126,
   "count": 24,
   "type": "VEC3"
  },
  {
   "bufferView": 35,
   "componentType": 5126,
   "count": 24,
   "max": [
    0.30000001192092896,
    0.05000000074505806,
    0.30000001192092896
   ],
   "min": [
    -0.30000001192092896,
    0,
    -0.30000001192092896
   ],
   "type": "VEC3"
  },
  {
   "bufferView": 36,
   "componentType": 5126,
   "count": 24,
   "type": "VEC3"
  },
  {
   "bufferView": 37,
   "componentType": 5126,
   "count": 48,
   "max": [
    0.25,
    1,
    0.25
   ],
   "min": [
    -0.25,
    0.41999998688697815,
    -0.2800000011920929
   ],
   "type": "VEC3"
  },
  {
   "bufferView": 38,
   "componentType": 5126,
   "count": 48,
   "type": "VEC3"
  },
  {
   "bufferView": 39,
   "componentType": 5126,
   "count": 24,
   "max": [
    0.6000000238418579,
    0.7200000286102295,
    0.3499999940395355
   ],
   "min": [
    -0.6000000238418579,
    0.6800000071525574,
    -0.3499999940395355
   ],
   "type": "VEC3"
  },
  {
   "bufferView": 40,
   "componentType": 5126,
   "count": 24,
   "type": "VEC3"
  },
  {
   "bufferView": 41,
   "componentType": 5126,
   "count": 48,
   "max": [
    0.6000000238418579,
    0.6800000071525574,
    0.3199999928474426
   ],
   "min": [
    -0.6000000238418579,
    0,
    -0.3199999928474426
   ],
   "type": "VEC3"
  },
  {
   "bufferView": 42,
   "componentType": 5126,
   "count": 48,
   "type": "VEC3"
  },
  {
   "bufferView": 43,
   "componentType": 5126,
   "count": 24,
   "max": [
    0.25,
    1.0499999523162842,
    -0.10000000149011612
   ],
   "min": [
    -0.25,
    0.7200000286102295,
    -0.12999999523162842
   ],
   "type": "VEC3"
  },
  {
   "bufferView": 44,
   "componentType": 5126,
   "count": 24,
   "type": "VEC3"
  },
  {
   "bufferView": 45,
   "componentType": 5126,
   "count": 24,
   "max": [
    0.44999998807907104,
    1.7999999523162842,
    0.25
   ],
   "min": [
    -0.44999998807907104,
    0,
    -0.25
   ],
   "type": "VEC3"
  },
  {
   "bufferView": 46,
   "componentType": 5126,
   "count": 24,
   "type": "VEC3"
  },
  {
   "bufferView": 47,
   "componentType": 5126,
   "count": 72,
   "max": [
    0.4399999976158142,
    1.75,
    0.25999999046325684
   ],
   "min": [
    -0.4399999976158142,
    0.05000000074505806,
    0.25
   ],
   "type": "VEC3"
  },
  {
   "bufferView": 48,
   "componentType": 5126,
   "count": 72,
   "type": "VEC3"
  },
  {
   "bufferView": 49,
   "componentType": 5126,
   "count": 24,
   "max": [
    0.30000001192092896,
    1,
    0.30000001192092896
   ],
   "min": [
    -0.30000001192092896,
    0,
    -0.30000001192092896
   ],
   "type": "VEC3"
  },
  {
   "bufferView": 50,
   "componentType": 5126,
   "count": 24,
   "type": "VEC3"
  },
  {
   "bufferView": 51,
   "componentType": 5126,
   "count": 24,
   "max": [
    0.05000000074505806,
    0.6499999761581421,
    0.3100000023841858
   ],
   "min": [
    -0.05000000074505806,
    0.550000011920929,
    0.30000001192092896
   ],
   "type": "VEC3"
  },
  {
   "bufferView": 52,
   "componentType": 5126,
   "count": 24,
   "type": "VEC3"
  },
  {
   "bufferView": 53,
   "componentType": 5126,
   "count": 24,
   "max": [
    0.2548282742500305,
    0.8499999642372131,
    0.2184925079345703
   ],
   "min": [
    -0.25482824444770813,
    0,
    -0.21849441528320312
   ],
   "type": "VEC3"
  },
  {
   "bufferView": 54,
   "componentType": 5126,
   "count": 24,
   "type": "VEC3"
  },
  {
   "bufferView": 55,
   "componentType": 5123,
   "count": 36,
   "type": "SCALAR"
  },
  {
   "bufferView": 56,
   "componentType": 5126,
   "count": 24,
   "max": [
    0.7024393081665039,
    0.7199999690055847,
    0.40633583068847656
   ],
   "min": [
    -0.7024393081665039,
    0,
    -0.40633392333984375
   ],
   "type": "VEC3"
  },
  {
   "bufferView": 57,
   "componentType": 5126,
   "count": 24,
   "type": "VEC3"
  },
  {
   "bufferView": 58,
   "componentType": 5126,
   "count": 288,
   "max": [
    3.184999942779541,
    16.899999618530273,
    7.260000228881836
   ],
   "min": [
    -3.1649999618530273,
    13.699999809265137,
    -7.28000020980835
   ],
   "type": "VEC3"
  },
  {
   "bufferView": 59,
   "componentType": 5126,
   "count": 288,
   "type": "VEC3"
  },
  {
   "bufferView": 60,
   "componentType": 5123,
   "count": 528,
   "type": "SCALAR"
  },
  {
   "bufferView": 61,
   "componentType": 5126,
   "count": 48,
   "max": [
    3.734999895095825,
    15.199999809265137,
    -3.759999990463257
   ],
   "min": [
    -0.6650000214576721,
    13.899999618530273,
    -4.960000038146973
   ],
   "type": "VEC3"
  },
  {
   "bufferView": 62,
   "componentType": 5126,
   "count": 48,
   "type": "VEC3"
  },
  {
   "bufferView": 63,
   "componentType": 5126,
   "count": 122,
   "max": [
    3.184999942779541,
    16.700000762939453,
    -1.1399999856948853
   ],
   "min": [
    0.5849999785423279,
    13.899999618530273,
    -7.179999828338623
   ],
   "type": "VEC3"
  },
  {
   "bufferView": 64,
   "componentType": 5126,
   "count": 122,
   "type": "VEC3"
  },
  {
   "bufferView": 65,
   "componentType": 5123,
   "count": 192,
   "type": "SCALAR"
  },
  {
   "bufferView": 66,
   "componentType": 5126,
   "count": 168,
   "max": [
    0.7850000262260437,
    14.050000190734863,
    -1.190000057220459
   ],
   "min": [
    -1.1150000095367432,
    -1.2000000476837158,
    -3.0899999141693115
   ],
   "type": "VEC3"
  },
  {
   "bufferView": 67,
   "componentType": 5126,
   "count": 168,
   "type": "VEC3"
  },
  {
   "bufferView": 68,
   "componentType": 5123,
   "count": 324,
   "type": "SCALAR"
  },
  {
   "bufferView": 69,
   "componentType": 5126,
   "count": 24,
   "max": [
    1.0511170625686646,
    1.399999976158142,
    0.3704643249511719
   ],
   "min": [
    -1.0511168241500854,
    0,
    -0.37046337127685547
   ],
   "type": "VEC3"
  },
  {
   "bufferView": 70,
   "componentType": 5126,
   "count": 24,
   "type": "VEC3"
  },
  {
   "bufferView": 71,
   "componentType": 5126,
   "count": 24,
   "max": [
    0.2908461093902588,
    0.5710150003433228,
    0.24705791473388672
   ],
   "min": [
    -0.2908458709716797,
    0,
    -0.24705791473388672
   ],
   "type": "VEC3"
  },
  {
   "bufferView": 72,
   "componentType": 5126,
   "count": 24,
   "type": "VEC3"
  },
  {
   "bufferView": 73,
   "componentType": 5126,
   "count": 24,
   "max": [
    3.4000000953674316,
    0.009999999776482582,
    9
   ],
   "min": [
    -3.4000000953674316,
    -0.029999999329447746,
    -7.5
   ],
   "type": "VEC3"
  },
  {
   "bufferView": 74,
   "componentType": 5126,
   "count": 24,
   "type": "VEC3"
  },
  {
   "bufferView": 75,
   "componentType": 5126,
   "count": 1896,
   "max": [
    2.984999895095825,
    13.899999618530273,
    -2.640000104904175
   ],
   "min": [
    0.7850000262260437,
    0,
    -7.079999923706055
   ],
   "type": "VEC3"
  },
  {
   "bufferView": 76,
   "componentType": 5126,
   "count": 1896,
   "type": "VEC3"
  },
  {
   "bufferView": 77,
   "componentType": 5123,
   "count": 2880,
   "type": "SCALAR"
  },
  {
   "bufferView": 78,
   "componentType": 5126,
   "count": 1824,
   "max": [
    2.984999895095825,
    13.904999732971191,
    -2.640000104904175
   ],
   "min": [
    0.7850000262260437,
    0.16181817650794983,
    -5.610000133514404
   ],
   "type": "VEC3"
  },
  {
   "bufferView": 79,
   "componentType": 5126,
   "count": 1824,
   "type": "VEC3"
  },
  {
   "bufferView": 80,
   "componentType": 5123,
   "count": 2736,
   "type": "SCALAR"
  },
  {
   "bufferView": 81,
   "componentType": 5126,
   "count": 96,
   "max": [
    1.9450000524520874,
    14.899999618530273,
    -2.640000104904175
   ],
   "min": [
    1.8250000476837158,
    0,
    -5.610000133514404
   ],
   "type": "VEC3"
  },
  {
   "bufferView": 82,
   "componentType": 5126,
   "count": 96,
   "type": "VEC3"
  },
  {
   "bufferView": 83,
   "componentType": 5123,
   "count": 144,
   "type": "SCALAR"
  },
  {
   "bufferView": 84,
   "componentType": 5126,
   "count": 384,
   "max": [
    3.1649999618530273,
    10.600000381469727,
    7.260000228881836
   ],
   "min": [
    -3.1649999618530273,
    -0.20000000298023224,
    -7.260000228881836
   ],
   "type": "VEC3"
  },
  {
   "bufferView": 85,
   "componentType": 5126,
   "count": 384,
   "type": "VEC3"
  },
  {
   "bufferView": 86,
   "componentType": 5123,
   "count": 684,
   "type": "SCALAR"
  },
  {
   "bufferView": 87,
   "componentType": 5126,
   "count": 152,
   "max": [
    2.984999895095825,
    3.799999952316284,
    0.11999999731779099
   ],
   "min": [
    -2.984999895095825,
    0,
    -7.079999923706055
   ],
   "type": "VEC3"
  },
  {
   "bufferView": 88,
   "componentType": 5126,
   "count": 152,
   "type": "VEC3"
  },
  {
   "bufferView": 89,
   "componentType": 5123,
   "count": 252,
   "type": "SCALAR"
  },
  {
   "bufferView": 90,
   "componentType": 5126,
   "count": 152,
   "max": [
    2.984999895095825,
    7.099999904632568,
    0.11999999731779099
   ],
   "min": [
    -2.984999895095825,
    4,
    -7.079999923706055
   ],
   "type": "VEC3"
  },
  {
   "bufferView": 91,
   "componentType": 5126,
   "count": 152,
   "type": "VEC3"
  },
  {
   "bufferView": 92,
   "componentType": 5126,
   "count": 152,
   "max": [
    2.984999895095825,
    10.399999618530273,
    0.11999999731779099
   ],
   "min": [
    -2.984999895095825,
    7.300000190734863,
    -7.079999923706055
   ],
   "type": "VEC3"
  },
  {
   "bufferView": 93,
   "componentType": 5126,
   "count": 152,
   "type": "VEC3"
  },
  {
   "bufferView": 94,
   "componentType": 5126,
   "count": 216,
   "max": [
    2.984999895095825,
    13.699999809265137,
    3.859999895095825
   ],
   "min": [
    -2.984999895095825,
    10.600000381469727,
    -7.079999923706055
   ],
   "type": "VEC3"
  },
  {
   "bufferView": 95,
   "componentType": 5126,
   "count": 216,
   "type": "VEC3"
  },
  {
   "bufferView": 96,
   "componentType": 5123,
   "count": 360,
   "type": "SCALAR"
  },
  {
   "bufferView": 97,
   "componentType": 5126,
   "count": 24,
   "max": [
    0.32499998807907104,
    0.8399999737739563,
    0.28299999237060547
   ],
   "min": [
    -0.32499998807907104,
    0.7200000286102295,
    -0.28299999237060547
   ],
   "type": "VEC3"
  },
  {
   "bufferView": 98,
   "componentType": 5126,
   "count": 24,
   "type": "VEC3"
  },
  {
   "bufferView": 99,
   "componentType": 5126,
   "count": 24,
   "max": [
    0.2750000059604645,
    0.8450000286102295,
    0.2329999953508377
   ],
   "min": [
    -0.2750000059604645,
    0.8420000076293945,
    -0.16300000250339508
   ],
   "type": "VEC3"
  },
  {
   "bufferView": 100,
   "componentType": 5126,
   "count": 24,
   "type": "VEC3"
  },
  {
   "bufferView": 101,
   "componentType": 5126,
   "count": 66,
   "max": [
    0.019999999552965164,
    1.0800000429153442,
    -0.08299999684095383
   ],
   "min": [
    -0.019999999552965164,
    0.8399999737739563,
    -0.2630000114440918
   ],
   "type": "VEC3"
  },
  {
   "bufferView": 102,
   "componentType": 5126,
   "count": 66,
   "type": "VEC3"
  },
  {
   "bufferView": 103,
   "componentType": 5123,
   "count": 108,
   "type": "SCALAR"
  },
  {
   "bufferView": 104,
   "componentType": 5126,
   "count": 980,
   "max": [
    0.30000001192092896,
    0.800000011920929,
    0.3700000047683716
   ],
   "min": [
    -0.20000000298023224,
    0,
    -0.375
   ],
   "type": "VEC3"
  },
  {
   "bufferView": 105,
   "componentType": 5126,
   "count": 980,
   "type": "VEC3"
  },
  {
   "bufferView": 106,
   "componentType": 5123,
   "count": 1860,
   "type": "SCALAR"
  },
  {
   "bufferView": 107,
   "componentType": 5126,
   "count": 24,
   "max": [
    0.28999999165534973,
    0.4749999940395355,
    0.10000000149011612
   ],
   "min": [
    0.20999999344348907,
    0.4699999988079071,
    -0.07999999821186066
   ],
   "type": "VEC3"
  },
  {
   "bufferView": 108,
   "componentType": 5126,
   "count": 24,
   "type": "VEC3"
  },
  {
   "bufferView": 109,
   "componentType": 5126,
   "count": 24,
   "max": [
    0.27000001072883606,
    0.47999998927116394,
    0.07999999821186066
   ],
   "min": [
    0.23000000417232513,
    0.4749999940395355,
    0.05000000074505806
   ],
   "type": "VEC3"
  },
  {
   "bufferView": 110,
   "componentType": 5126,
   "count": 24,
   "type": "VEC3"
  },
  {
   "bufferView": 111,
   "componentType": 5126,
   "count": 24,
   "max": [
    0.27000001072883606,
    0.47999998927116394,
    0.029999999329447746
   ],
   "min": [
    0.23000000417232513,
    0.4749999940395355,
    0
   ],
   "type": "VEC3"
  },
  {
   "bufferView": 112,
   "componentType": 5126,
   "count": 24,
   "type": "VEC3"
  },
  {
   "bufferView": 113,
   "componentType": 5126,
   "count": 24,
   "max": [
    0.27000001072883606,
    0.47999998927116394,
    -0.019999999552965164
   ],
   "min": [
    0.23000000417232513,
    0.4749999940395355,
    -0.05000000074505806
   ],
   "type": "VEC3"
  },
  {
   "bufferView": 114,
   "componentType": 5126,
   "count": 24,
   "type": "VEC3"
  },
  {
   "bufferView": 115,
   "componentType": 5126,
   "count": 24,
   "max": [
    -0.20000000298023224,
    0.6800000071525574,
    -0.2800000011920929
   ],
   "min": [
    -0.2199999988079071,
    0.6600000262260437,
    -0.3400000035762787
   ],
   "type": "VEC3"
  },
  {
   "bufferView": 116,
   "componentType": 5126,
   "count": 24,
   "type": "VEC3"
  }
 ],
 "bufferViews": [
  {
   "buffer": 0,
   "byteLength": 7632,
   "byteOffset": 0,
   "target": 34962
  },
  {
   "buffer": 0,
   "byteLength": 7632,
   "byteOffset": 7632,
   "target": 34962
  },
  {
   "buffer": 0,
   "byteLength": 2640,
   "byteOffset": 15264,
   "target": 34963
  },
  {
   "buffer": 0,
   "byteLength": 6912,
   "byteOffset": 17904,
   "target": 34962
  },
  {
   "buffer": 0,
   "byteLength": 6912,
   "byteOffset": 24816,
   "target": 34962
  },
  {
   "buffer": 0,
   "byteLength": 2340,
   "byteOffset": 31728,
   "target": 34963
  },
  {
   "buffer": 0,
   "byteLength": 576,
   "byteOffset": 34068,
   "target": 34962
  },
  {
   "buffer": 0,
   "byteLength": 576,
   "byteOffset": 34644,
   "target": 34962
  },
  {
   "buffer": 0,
   "byteLength": 144,
   "byteOffset": 35220,
   "target": 34963
  },
  {
   "buffer": 0,
   "byteLength": 864,
   "byteOffset": 35364,
   "target": 34962
  },
  {
   "buffer": 0,
   "byteLength": 864,
   "byteOffset": 36228,
   "target": 34962
  },
  {
   "buffer": 0,
   "byteLength": 216,
   "byteOffset": 37092,
   "target": 34963
  },
  {
   "buffer": 0,
   "byteLength": 1728,
   "byteOffset": 37308,
   "target": 34962
  },
  {
   "buffer": 0,
   "byteLength": 1728,
   "byteOffset": 39036,
   "target": 34962
  },
  {
   "buffer": 0,
   "byteLength": 432,
   "byteOffset": 40764,
   "target": 34963
  },
  {
   "buffer": 0,
   "byteLength": 576,
   "byteOffset": 41196,
   "target": 34962
  },
  {
   "buffer": 0,
   "byteLength": 576,
   "byteOffset": 41772,
   "target": 34962
  },
  {
   "buffer": 0,
   "byteLength": 576,
   "byteOffset": 42348,
   "target": 34962
  },
  {
   "buffer": 0,
   "byteLength": 576,
   "byteOffset": 42924,
   "target": 34962
  },
  {
   "buffer": 0,
   "byteLength": 288,
   "byteOffset": 43500,
   "target": 34962
  },
  {
   "buffer": 0,
   "byteLength": 288,
   "byteOffset": 43788,
   "target": 34962
  },
  {
   "buffer": 0,
   "byteLength": 72,
   "byteOffset": 44076,
   "target": 34963
  },
  {
   "buffer": 0,
   "byteLength": 4032,
   "byteOffset": 44148,
   "target": 34962
  },
  {
   "buffer": 0,
   "byteLength": 4032,
   "byteOffset": 48180,
   "target": 34962
  },
  {
   "buffer": 0,
   "byteLength": 1008,
   "byteOffset": 52212,
   "target": 34963
  },
  {
   "buffer": 0,
   "byteLength": 4032,
   "byteOffset": 53220,
   "target": 34962
  },
  {
   "buffer": 0,
   "byteLength": 4032,
   "byteOffset": 57252,
   "target": 34962
  },
  {
   "buffer": 0,
   "byteLength": 2016,
   "byteOffset": 61284,
   "target": 34962
  },
  {
   "buffer": 0,
   "byteLength": 2016,
   "byteOffset": 63300,
   "target": 34962
  },
  {
   "buffer": 0,
   "byteLength": 504,
   "byteOffset": 65316,
   "target": 34963
  },
  {
   "buffer": 0,
   "byteLength": 8640,
   "byteOffset": 65820,
   "target": 34962
  },
  {
   "buffer": 0,
   "byteLength": 8640,
   "byteOffset": 74460,
   "target": 34962
  },
  {
   "buffer": 0,
   "byteLength": 2592,
   "byteOffset": 83100,
   "target": 34963
  },
  {
   "buffer": 0,
   "byteLength": 288,
   "byteOffset": 85692,
   "target": 34962
  },
  {
   "buffer": 0,
   "byteLength": 288,
   "byteOffset": 85980,
   "target": 34962
  },
  {
   "buffer": 0,
   "byteLength": 288,
   "byteOffset": 86268,
   "target": 34962
  },
  {
   "buffer": 0,
   "byteLength": 288,
   "byteOffset": 86556,
   "target": 34962
  },
  {
   "buffer": 0,
   "byteLength": 576,
   "byteOffset": 86844,
   "target": 34962
  },
  {
   "buffer": 0,
   "byteLength": 576,
   "byteOffset": 87420,
   "target": 34962
  },
  {
   "buffer": 0,
   "byteLength": 288,
   "byteOffset": 87996,
   "target": 34962
  },
  {
   "buffer": 0,
   "byteLength": 288,
   "byteOffset": 88284,
   "target": 34962
  },
  {
   "buffer": 0,
   "byteLength": 576,
   "byteOffset": 88572,
   "target": 34962
  },
  {
   "buffer": 0,
   "byteLength": 576,
   "byteOffset": 89148,
   "target": 34962
  },
  {
   "buffer": 0,
   "byteLength": 288,
   "byteOffset": 89724,
   "target": 34962
  },
  {
   "buffer": 0,
   "byteLength": 288,
   "byteOffset": 90012,
   "target": 34962
  },
  {
   "buffer": 0,
   "byteLength": 288,
   "byteOffset": 90300,
   "target": 34962
  },
  {
   "buffer": 0,
   "byteLength": 288,
   "byteOffset": 90588,
   "target": 34962
  },
  {
   "buffer": 0,
   "byteLength": 864,
   "byteOffset": 90876,
   "target": 34962
  },
  {
   "buffer": 0,
   "byteLength": 864,
   "byteOffset": 91740,
   "target": 34962
  },
  {
   "buffer": 0,
   "byteLength": 288,
   "byteOffset": 92604,
   "target": 34962
  },
  {
   "buffer": 0,
   "byteLength": 288,
   "byteOffset": 92892,
   "target": 34962
  },
  {
   "buffer": 0,
   "byteLength": 288,
   "byteOffset": 93180,
   "target": 34962
  },
  {
   "buffer": 0,
   "byteLength": 288,
   "byteOffset": 93468,
   "target": 34962
  },
  {
   "buffer": 0,
   "byteLength": 288,
   "byteOffset": 93756,
   "target": 34962
  },
  {
   "buffer": 0,
   "byteLength": 288,
   "byteOffset": 94044,
   "target": 34962
  },
  {
   "buffer": 0,
   "byteLength": 72,
   "byteOffset": 94332,
   "target": 34963
  },
  {
   "buffer": 0,
   "byteLength": 288,
   "byteOffset": 94404,
   "target": 34962
  },
  {
   "buffer": 0,
   "byteLength": 288,
   "byteOffset": 94692,
   "target": 34962
  },
  {
   "buffer": 0,
   "byteLength": 3456,
   "byteOffset": 94980,
   "target": 34962
  },
  {
   "buffer": 0,
   "byteLength": 3456,
   "byteOffset": 98436,
   "target": 34962
  },
  {
   "buffer": 0,
   "byteLength": 1056,
   "byteOffset": 101892,
   "target": 34963
  },
  {
   "buffer": 0,
   "byteLength": 576,
   "byteOffset": 102948,
   "target": 34962
  },
  {
   "buffer": 0,
   "byteLength": 576,
   "byteOffset": 103524,
   "target": 34962
  },
  {
   "buffer": 0,
   "byteLength": 1464,
   "byteOffset": 104100,
   "target": 34962
  },
  {
   "buffer": 0,
   "byteLength": 1464,
   "byteOffset": 105564,
   "target": 34962
  },
  {
   "buffer": 0,
   "byteLength": 384,
   "byteOffset": 107028,
   "target": 34963
  },
  {
   "buffer": 0,
   "byteLength": 2016,
   "byteOffset": 107412,
   "target": 34962
  },
  {
   "buffer": 0,
   "byteLength": 2016,
   "byteOffset": 109428,
   "target": 34962
  },
  {
   "buffer": 0,
   "byteLength": 648,
   "byteOffset": 111444,
   "target": 34963
  },
  {
   "buffer": 0,
   "byteLength": 288,
   "byteOffset": 112092,
   "target": 34962
  },
  {
   "buffer": 0,
   "byteLength": 288,
   "byteOffset": 112380,
   "target": 34962
  },
  {
   "buffer": 0,
   "byteLength": 288,
   "byteOffset": 112668,
   "target": 34962
  },
  {
   "buffer": 0,
   "byteLength": 288,
   "byteOffset": 112956,
   "target": 34962
  },
  {
   "buffer": 0,
   "byteLength": 288,
   "byteOffset": 113244,
   "target": 34962
  },
  {
   "buffer": 0,
   "byteLength": 288,
   "byteOffset": 113532,
   "target": 34962
  },
  {
   "buffer": 0,
   "byteLength": 22752,
   "byteOffset": 113820,
   "target": 34962
  },
  {
   "buffer": 0,
   "byteLength": 22752,
   "byteOffset": 136572,
   "target": 34962
  },
  {
   "buffer": 0,
   "byteLength": 5760,
   "byteOffset": 159324,
   "target": 34963
  },
  {
   "buffer": 0,
   "byteLength": 21888,
   "byteOffset": 165084,
   "target": 34962
  },
  {
   "buffer": 0,
   "byteLength": 21888,
   "byteOffset": 186972,
   "target": 34962
  },
  {
   "buffer": 0,
   "byteLength": 5472,
   "byteOffset": 208860,
   "target": 34963
  },
  {
   "buffer": 0,
   "byteLength": 1152,
   "byteOffset": 214332,
   "target": 34962
  },
  {
   "buffer": 0,
   "byteLength": 1152,
   "byteOffset": 215484,
   "target": 34962
  },
  {
   "buffer": 0,
   "byteLength": 288,
   "byteOffset": 216636,
   "target": 34963
  },
  {
   "buffer": 0,
   "byteLength": 4608,
   "byteOffset": 216924,
   "target": 34962
  },
  {
   "buffer": 0,
   "byteLength": 4608,
   "byteOffset": 221532,
   "target": 34962
  },
  {
   "buffer": 0,
   "byteLength": 1368,
   "byteOffset": 226140,
   "target": 34963
  },
  {
   "buffer": 0,
   "byteLength": 1824,
   "byteOffset": 227508,
   "target": 34962
  },
  {
   "buffer": 0,
   "byteLength": 1824,
   "byteOffset": 229332,
   "target": 34962
  },
  {
   "buffer": 0,
   "byteLength": 504,
   "byteOffset": 231156,
   "target": 34963
  },
  {
   "buffer": 0,
   "byteLength": 1824,
   "byteOffset": 231660,
   "target": 34962
  },
  {
   "buffer": 0,
   "byteLength": 1824,
   "byteOffset": 233484,
   "target": 34962
  },
  {
   "buffer": 0,
   "byteLength": 1824,
   "byteOffset": 235308,
   "target": 34962
  },
  {
   "buffer": 0,
   "byteLength": 1824,
   "byteOffset": 237132,
   "target": 34962
  },
  {
   "buffer": 0,
   "byteLength": 2592,
   "byteOffset": 238956,
   "target": 34962
  },
  {
   "buffer": 0,
   "byteLength": 2592,
   "byteOffset": 241548,
   "target": 34962
  },
  {
   "buffer": 0,
   "byteLength": 720,
   "byteOffset": 244140,
   "target": 34963
  },
  {
   "buffer": 0,
   "byteLength": 288,
   "byteOffset": 244860,
   "target": 34962
  },
  {
   "buffer": 0,
   "byteLength": 288,
   "byteOffset": 245148,
   "target": 34962
  },
  {
   "buffer": 0,
   "byteLength": 288,
   "byteOffset": 245436,
   "target": 34962
  },
  {
   "buffer": 0,
   "byteLength": 288,
   "byteOffset": 245724,
   "target": 34962
  },
  {
   "buffer": 0,
   "byteLength": 792,
   "byteOffset": 246012,
   "target": 34962
  },
  {
   "buffer": 0,
   "byteLength": 792,
   "byteOffset": 246804,
   "target": 34962
  },
  {
   "buffer": 0,
   "byteLength": 216,
   "byteOffset": 247596,
   "target": 34963
  },
  {
   "buffer": 0,
   "byteLength": 11760,
   "byteOffset": 247812,
   "target": 34962
  },
  {
   "buffer": 0,
   "byteLength": 11760,
   "byteOffset": 259572,
   "target": 34962
  },
  {
   "buffer": 0,
   "byteLength": 3720,
   "byteOffset": 271332,
   "target": 34963
  },
  {
   "buffer": 0,
   "byteLength": 288,
   "byteOffset": 275052,
   "target": 34962
  },
  {
   "buffer": 0,
   "byteLength": 288,
   "byteOffset": 275340,
   "target": 34962
  },
  {
   "buffer": 0,
   "byteLength": 288,
   "byteOffset": 275628,
   "target": 34962
  },
  {
   "buffer": 0,
   "byteLength": 288,
   "byteOffset": 275916,
   "target": 34962
  },
  {
   "buffer": 0,
   "byteLength": 288,
   "byteOffset": 276204,
   "target": 34962
  },
  {
   "buffer": 0,
   "byteLength": 288,
   "byteOffset": 276492,
   "target": 34962
  },
  {
   "buffer": 0,
   "byteLength": 288,
   "byteOffset": 276780,
   "target": 34962
  },
  {
   "buffer": 0,
   "byteLength": 288,
   "byteOffset": 277068,
   "target": 34962
  },
  {
   "buffer": 0,
   "byteLength": 288,
   "byteOffset": 277356,
   "target": 34962
  },
  {
   "buffer": 0,
   "byteLength": 288,
   "byteOffset": 277644,
   "target": 34962
  }
 ],
 "buffers": [
  {
   "byteLength": 277932,
   "uri": "MaidCafe.bin"
  }
 ]
}
