{
	"asset":{
		"generator":"Khronos glTF Blender I/O v5.1.20",
		"version":"2.0"
	},
	"scene":0,
	"scenes":[
		{
			"name":"Scene",
			"nodes":[
				0,
				1,
				2,
				3,
				4,
				5,
				6,
				7,
				8
			]
		}
	],
	"nodes":[
		{
			"mesh":0,
			"name":"Overlay_RainbowBridge_Span",
			"translation":[
				189,
				0,
				2700
			]
		},
		{
			"mesh":1,
			"name":"Overlay_RB_Deck-colonly"
		},
		{
			"mesh":2,
			"name":"Overlay_RB_Rail-colonly"
		},
		{
			"mesh":3,
			"name":"Overlay_RB_Pier_0",
			"translation":[
				189,
				0,
				2590
			]
		},
		{
			"mesh":4,
			"name":"Overlay_RB_Pier_1",
			"translation":[
				189,
				0,
				2630
			]
		},
		{
			"mesh":5,
			"name":"Overlay_RB_Pier_2",
			"translation":[
				189,
				0,
				2670
			]
		},
		{
			"mesh":6,
			"name":"Overlay_RB_Pier_3",
			"translation":[
				189,
				0,
				2710
			]
		},
		{
			"mesh":7,
			"name":"Overlay_RB_Pier_4",
			"translation":[
				189,
				0,
				2750
			]
		},
		{
			"mesh":8,
			"name":"Overlay_RB_Pier_5",
			"translation":[
				189,
				0,
				2790
			]
		}
	],
	"materials":[
		{
			"doubleSided":true,
			"name":"M_Collision",
			"pbrMetallicRoughness":{
				"baseColorFactor":[
					0.8999999761581421,
					0.20000000298023224,
					0.550000011920929,
					1
				],
				"metallicFactor":0,
				"roughnessFactor":0.5
			}
		},
		{
			"doubleSided":true,
			"name":"M_Metal",
			"pbrMetallicRoughness":{
				"baseColorFactor":[
					0.550000011920929,
					0.6000000238418579,
					0.6399999856948853,
					1
				],
				"metallicFactor":0,
				"roughnessFactor":0.5
			}
		}
	],
	"meshes":[
		{
			"name":"RainbowBridge_Real_000_h2m",
			"primitives":[
				{
					"attributes":{
						"POSITION":0,
						"NORMAL":1
					},
					"indices":2
				},
				{
					"attributes":{
						"POSITION":3,
						"NORMAL":4
					},
					"indices":5,
					"material":0
				}
			]
		},
		{
			"name":"Overlay_RB_Deck-colonly",
			"primitives":[
				{
					"attributes":{
						"POSITION":6,
						"NORMAL":7
					},
					"indices":8,
					"material":0
				}
			]
		},
		{
			"name":"Overlay_RB_Rail-colonly",
			"primitives":[
				{
					"attributes":{
						"POSITION":9,
						"NORMAL":10
					},
					"indices":8,
					"material":0
				}
			]
		},
		{
			"name":"Overlay_RB_Pier_0",
			"primitives":[
				{
					"attributes":{
						"POSITION":11,
						"NORMAL":12
					},
					"indices":13,
					"material":1
				}
			]
		},
		{
			"name":"Overlay_RB_Pier_1",
			"primitives":[
				{
					"attributes":{
						"POSITION":14,
						"NORMAL":15
					},
					"indices":13,
					"material":1
				}
			]
		},
		{
			"name":"Overlay_RB_Pier_2",
			"primitives":[
				{
					"attributes":{
						"POSITION":16,
						"NORMAL":17
					},
					"indices":13,
					"material":1
				}
			]
		},
		{
			"name":"Overlay_RB_Pier_3",
			"primitives":[
				{
					"attributes":{
						"POSITION":18,
						"NORMAL":19
					},
					"indices":13,
					"material":1
				}
			]
		},
		{
			"name":"Overlay_RB_Pier_4",
			"primitives":[
				{
					"attributes":{
						"POSITION":20,
						"NORMAL":21
					},
					"indices":13,
					"material":1
				}
			]
		},
		{
			"name":"Overlay_RB_Pier_5",
			"primitives":[
				{
					"attributes":{
						"POSITION":22,
						"NORMAL":23
					},
					"indices":13,
					"material":1
				}
			]
		}
	],
	"accessors":[
		{
			"bufferView":0,
			"componentType":5126,
			"count":38453,
			"max":[
				227.87066650390625,
				127.8697509765625,
				769.2471923828125
			],
			"min":[
				-872.1358032226562,
				-0.08602400124073029,
				-930.1786499023438
			],
			"type":"VEC3"
		},
		{
			"bufferView":1,
			"componentType":5126,
			"count":38453,
			"type":"VEC3"
		},
		{
			"bufferView":2,
			"componentType":5123,
			"count":50208,
			"type":"SCALAR"
		},
		{
			"bufferView":3,
			"componentType":5126,
			"count":4776,
			"max":[
				198.6235809326172,
				121.14299011230469,
				727.1724853515625
			],
			"min":[
				-872.1358032226562,
				-0.08602400124073029,
				-892.2254638671875
			],
			"type":"VEC3"
		},
		{
			"bufferView":4,
			"componentType":5126,
			"count":4776,
			"type":"VEC3"
		},
		{
			"bufferView":5,
			"componentType":5123,
			"count":7164,
			"type":"SCALAR"
		},
		{
			"bufferView":6,
			"componentType":5126,
			"count":24,
			"max":[
				204,
				11,
				2830
			],
			"min":[
				174,
				10.399999618530273,
				2570
			],
			"type":"VEC3"
		},
		{
			"bufferView":7,
			"componentType":5126,
			"count":24,
			"type":"VEC3"
		},
		{
			"bufferView":8,
			"componentType":5123,
			"count":36,
			"type":"SCALAR"
		},
		{
			"bufferView":9,
			"componentType":5126,
			"count":24,
			"max":[
				195,
				8,
				2830
			],
			"min":[
				183,
				7.599999904632568,
				2570
			],
			"type":"VEC3"
		},
		{
			"bufferView":10,
			"componentType":5126,
			"count":24,
			"type":"VEC3"
		},
		{
			"bufferView":11,
			"componentType":5126,
			"count":96,
			"max":[
				4,
				10.399999618530273,
				4
			],
			"min":[
				-4,
				-2,
				-4
			],
			"type":"VEC3"
		},
		{
			"bufferView":12,
			"componentType":5126,
			"count":96,
			"type":"VEC3"
		},
		{
			"bufferView":13,
			"componentType":5123,
			"count":180,
			"type":"SCALAR"
		},
		{
			"bufferView":14,
			"componentType":5126,
			"count":96,
			"max":[
				4,
				10.399999618530273,
				4
			],
			"min":[
				-4,
				-2,
				-4
			],
			"type":"VEC3"
		},
		{
			"bufferView":15,
			"componentType":5126,
			"count":96,
			"type":"VEC3"
		},
		{
			"bufferView":16,
			"componentType":5126,
			"count":96,
			"max":[
				4,
				10.399999618530273,
				4
			],
			"min":[
				-4,
				-2,
				-4
			],
			"type":"VEC3"
		},
		{
			"bufferView":17,
			"componentType":5126,
			"count":96,
			"type":"VEC3"
		},
		{
			"bufferView":18,
			"componentType":5126,
			"count":96,
			"max":[
				4,
				10.399999618530273,
				4
			],
			"min":[
				-4,
				-2,
				-4
			],
			"type":"VEC3"
		},
		{
			"bufferView":19,
			"componentType":5126,
			"count":96,
			"type":"VEC3"
		},
		{
			"bufferView":20,
			"componentType":5126,
			"count":96,
			"max":[
				4,
				10.399999618530273,
				4
			],
			"min":[
				-4,
				-2,
				-4
			],
			"type":"VEC3"
		},
		{
			"bufferView":21,
			"componentType":5126,
			"count":96,
			"type":"VEC3"
		},
		{
			"bufferView":22,
			"componentType":5126,
			"count":96,
			"max":[
				4,
				10.399999618530273,
				4
			],
			"min":[
				-4,
				-2,
				-4
			],
			"type":"VEC3"
		},
		{
			"bufferView":23,
			"componentType":5126,
			"count":96,
			"type":"VEC3"
		}
	],
	"bufferViews":[
		{
			"buffer":0,
			"byteLength":461436,
			"byteOffset":0,
			"target":34962
		},
		{
			"buffer":0,
			"byteLength":461436,
			"byteOffset":461436,
			"target":34962
		},
		{
			"buffer":0,
			"byteLength":100416,
			"byteOffset":922872,
			"target":34963
		},
		{
			"buffer":0,
			"byteLength":57312,
			"byteOffset":1023288,
			"target":34962
		},
		{
			"buffer":0,
			"byteLength":57312,
			"byteOffset":1080600,
			"target":34962
		},
		{
			"buffer":0,
			"byteLength":14328,
			"byteOffset":1137912,
			"target":34963
		},
		{
			"buffer":0,
			"byteLength":288,
			"byteOffset":1152240,
			"target":34962
		},
		{
			"buffer":0,
			"byteLength":288,
			"byteOffset":1152528,
			"target":34962
		},
		{
			"buffer":0,
			"byteLength":72,
			"byteOffset":1152816,
			"target":34963
		},
		{
			"buffer":0,
			"byteLength":288,
			"byteOffset":1152888,
			"target":34962
		},
		{
			"buffer":0,
			"byteLength":288,
			"byteOffset":1153176,
			"target":34962
		},
		{
			"buffer":0,
			"byteLength":1152,
			"byteOffset":1153464,
			"target":34962
		},
		{
			"buffer":0,
			"byteLength":1152,
			"byteOffset":1154616,
			"target":34962
		},
		{
			"buffer":0,
			"byteLength":360,
			"byteOffset":1155768,
			"target":34963
		},
		{
			"buffer":0,
			"byteLength":1152,
			"byteOffset":1156128,
			"target":34962
		},
		{
			"buffer":0,
			"byteLength":1152,
			"byteOffset":1157280,
			"target":34962
		},
		{
			"buffer":0,
			"byteLength":1152,
			"byteOffset":1158432,
			"target":34962
		},
		{
			"buffer":0,
			"byteLength":1152,
			"byteOffset":1159584,
			"target":34962
		},
		{
			"buffer":0,
			"byteLength":1152,
			"byteOffset":1160736,
			"target":34962
		},
		{
			"buffer":0,
			"byteLength":1152,
			"byteOffset":1161888,
			"target":34962
		},
		{
			"buffer":0,
			"byteLength":1152,
			"byteOffset":1163040,
			"target":34962
		},
		{
			"buffer":0,
			"byteLength":1152,
			"byteOffset":1164192,
			"target":34962
		},
		{
			"buffer":0,
			"byteLength":1152,
			"byteOffset":1165344,
			"target":34962
		},
		{
			"buffer":0,
			"byteLength":1152,
			"byteOffset":1166496,
			"target":34962
		}
	],
	"buffers":[
		{
			"byteLength":1167648,
			"uri":"Overlay_RainbowBridge.bin"
		}
	]
}
