{
 "asset": {
  "generator": "Khronos glTF Blender I/O v5.2.40",
  "version": "2.0",
  "extras": {
   "exported_by": "blender/tools/export_building_kit.py",
   "module_scale": 1.0
  }
 },
 "extensionsUsed": [
  "KHR_materials_emissive_strength"
 ],
 "scene": 0,
 "scenes": [
  {
   "name": "AirportControlTower",
   "nodes": [
    0,
    1,
    2,
    3,
    4,
    5,
    6,
    7,
    8,
    9,
    10,
    11,
    12,
    13,
    14,
    15,
    16,
    17,
    18,
    19,
    20,
    21,
    22,
    23,
    24,
    25,
    26,
    27,
    28,
    29,
    30,
    31,
    32,
    33,
    34,
    35,
    36,
    37,
    38,
    39,
    40,
    41,
    42,
    43
   ]
  }
 ],
 "nodes": [
  {
   "extras": {
    "edit_note": "A mission building (blender/tools/build_interior_blends.py, seed blender/tools/interior_plans.py): a PLACEHOLDER shell and fit-out at its real Japanese size -- remodel freely. Keep the frame (origin = plot centre on the ground, street -Y), the floor levels, and move the Empties with what they belong to: DOOR_ (interior door, arrow OUT of the room), EXIT_ (outer door, arrow out of the building), LIFT_ (a lift: shaft floor centre at the low stop; stops / faces), MARK_ (a mission marker: kind weapon / spawn / cover ...). Keep 1.2 m clear both sides of every door. After editing: tools/building_kit/build_buildings.sh. \u7a7a\u6e2f\u7ba1\u5236\u5854: the civil airport's control tower -- a two-storey operations block (lobby with security, operations office, the approach-radar room, briefing) and a tower whose lift and stair climb to a 14 x 14 m glass cab at 36 m (consoles all round, the radar on its roof)."
   },
   "mesh": 0,
   "name": "Facade"
  },
  {
   "extras": {
    "edit_note": "A mission building (blender/tools/build_interior_blends.py, seed blender/tools/interior_plans.py): a PLACEHOLDER shell and fit-out at its real Japanese size -- remodel freely. Keep the frame (origin = plot centre on the ground, street -Y), the floor levels, and move the Empties with what they belong to: DOOR_ (interior door, arrow OUT of the room), EXIT_ (outer door, arrow out of the building), LIFT_ (a lift: shaft floor centre at the low stop; stops / faces), MARK_ (a mission marker: kind weapon / spawn / cover ...). Keep 1.2 m clear both sides of every door. After editing: tools/building_kit/build_buildings.sh. \u7a7a\u6e2f\u7ba1\u5236\u5854: the civil airport's control tower -- a two-storey operations block (lobby with security, operations office, the approach-radar room, briefing) and a tower whose lift and stair climb to a 14 x 14 m glass cab at 36 m (consoles all round, the radar on its roof)."
   },
   "mesh": 1,
   "name": "Glazing"
  },
  {
   "extras": {
    "edit_note": "A mission building (blender/tools/build_interior_blends.py, seed blender/tools/interior_plans.py): a PLACEHOLDER shell and fit-out at its real Japanese size -- remodel freely. Keep the frame (origin = plot centre on the ground, street -Y), the floor levels, and move the Empties with what they belong to: DOOR_ (interior door, arrow OUT of the room), EXIT_ (outer door, arrow out of the building), LIFT_ (a lift: shaft floor centre at the low stop; stops / faces), MARK_ (a mission marker: kind weapon / spawn / cover ...). Keep 1.2 m clear both sides of every door. After editing: tools/building_kit/build_buildings.sh. \u7a7a\u6e2f\u7ba1\u5236\u5854: the civil airport's control tower -- a two-storey operations block (lobby with security, operations office, the approach-radar room, briefing) and a tower whose lift and stair climb to a 14 x 14 m glass cab at 36 m (consoles all round, the radar on its roof)."
   },
   "mesh": 2,
   "name": "Office_Chair",
   "translation": [
    -9.600000381469727,
    0,
    -2.6500000953674316
   ]
  },
  {
   "extras": {
    "edit_note": "A mission building (blender/tools/build_interior_blends.py, seed blender/tools/interior_plans.py): a PLACEHOLDER shell and fit-out at its real Japanese size -- remodel freely. Keep the frame (origin = plot centre on the ground, street -Y), the floor levels, and move the Empties with what they belong to: DOOR_ (interior door, arrow OUT of the room), EXIT_ (outer door, arrow out of the building), LIFT_ (a lift: shaft floor centre at the low stop; stops / faces), MARK_ (a mission marker: kind weapon / spawn / cover ...). Keep 1.2 m clear both sides of every door. After editing: tools/building_kit/build_buildings.sh. \u7a7a\u6e2f\u7ba1\u5236\u5854: the civil airport's control tower -- a two-storey operations block (lobby with security, operations office, the approach-radar room, briefing) and a tower whose lift and stair climb to a 14 x 14 m glass cab at 36 m (consoles all round, the radar on its roof)."
   },
   "mesh": 2,
   "name": "Office_Chair.001",
   "rotation": [
    0,
    -1,
    0,
    4.371138828673793e-08
   ],
   "translation": [
    -9.600000381469727,
    0,
    -4.349999904632568
   ]
  },
  {
   "extras": {
    "edit_note": "A mission building (blender/tools/build_interior_blends.py, seed blender/tools/interior_plans.py): a PLACEHOLDER shell and fit-out at its real Japanese size -- remodel freely. Keep the frame (origin = plot centre on the ground, street -Y), the floor levels, and move the Empties with what they belong to: DOOR_ (interior door, arrow OUT of the room), EXIT_ (outer door, arrow out of the building), LIFT_ (a lift: shaft floor centre at the low stop; stops / faces), MARK_ (a mission marker: kind weapon / spawn / cover ...). Keep 1.2 m clear both sides of every door. After editing: tools/building_kit/build_buildings.sh. \u7a7a\u6e2f\u7ba1\u5236\u5854: the civil airport's control tower -- a two-storey operations block (lobby with security, operations office, the approach-radar room, briefing) and a tower whose lift and stair climb to a 14 x 14 m glass cab at 36 m (consoles all round, the radar on its roof)."
   },
   "mesh": 2,
   "name": "Office_Chair.002",
   "translation": [
    -8.399999618530273,
    0,
    -2.6500000953674316
   ]
  },
  {
   "extras": {
    "edit_note": "A mission building (blender/tools/build_interior_blends.py, seed blender/tools/interior_plans.py): a PLACEHOLDER shell and fit-out at its real Japanese size -- remodel freely. Keep the frame (origin = plot centre on the ground, street -Y), the floor levels, and move the Empties with what they belong to: DOOR_ (interior door, arrow OUT of the room), EXIT_ (outer door, arrow out of the building), LIFT_ (a lift: shaft floor centre at the low stop; stops / faces), MARK_ (a mission marker: kind weapon / spawn / cover ...). Keep 1.2 m clear both sides of every door. After editing: tools/building_kit/build_buildings.sh. \u7a7a\u6e2f\u7ba1\u5236\u5854: the civil airport's control tower -- a two-storey operations block (lobby with security, operations office, the approach-radar room, briefing) and a tower whose lift and stair climb to a 14 x 14 m glass cab at 36 m (consoles all round, the radar on its roof)."
   },
   "mesh": 2,
   "name": "Office_Chair.003",
   "rotation": [
    0,
    -1,
    0,
    4.371138828673793e-08
   ],
   "translation": [
    -8.399999618530273,
    0,
    -4.349999904632568
   ]
  },
  {
   "extras": {
    "edit_note": "A mission building (blender/tools/build_interior_blends.py, seed blender/tools/interior_plans.py): a PLACEHOLDER shell and fit-out at its real Japanese size -- remodel freely. Keep the frame (origin = plot centre on the ground, street -Y), the floor levels, and move the Empties with what they belong to: DOOR_ (interior door, arrow OUT of the room), EXIT_ (outer door, arrow out of the building), LIFT_ (a lift: shaft floor centre at the low stop; stops / faces), MARK_ (a mission marker: kind weapon / spawn / cover ...). Keep 1.2 m clear both sides of every door. After editing: tools/building_kit/build_buildings.sh. \u7a7a\u6e2f\u7ba1\u5236\u5854: the civil airport's control tower -- a two-storey operations block (lobby with security, operations office, the approach-radar room, briefing) and a tower whose lift and stair climb to a 14 x 14 m glass cab at 36 m (consoles all round, the radar on its roof)."
   },
   "mesh": 2,
   "name": "Office_Chair.004",
   "translation": [
    -5.099999904632568,
    0,
    -2.6500000953674316
   ]
  },
  {
   "extras": {
    "edit_note": "A mission building (blender/tools/build_interior_blends.py, seed blender/tools/interior_plans.py): a PLACEHOLDER shell and fit-out at its real Japanese size -- remodel freely. Keep the frame (origin = plot centre on the ground, street -Y), the floor levels, and move the Empties with what they belong to: DOOR_ (interior door, arrow OUT of the room), EXIT_ (outer door, arrow out of the building), LIFT_ (a lift: shaft floor centre at the low stop; stops / faces), MARK_ (a mission marker: kind weapon / spawn / cover ...). Keep 1.2 m clear both sides of every door. After editing: tools/building_kit/build_buildings.sh. \u7a7a\u6e2f\u7ba1\u5236\u5854: the civil airport's control tower -- a two-storey operations block (lobby with security, operations office, the approach-radar room, briefing) and a tower whose lift and stair climb to a 14 x 14 m glass cab at 36 m (consoles all round, the radar on its roof)."
   },
   "mesh": 2,
   "name": "Office_Chair.005",
   "rotation": [
    0,
    -1,
    0,
    4.371138828673793e-08
   ],
   "translation": [
    -5.099999904632568,
    0,
    -4.349999904632568
   ]
  },
  {
   "extras": {
    "edit_note": "A mission building (blender/tools/build_interior_blends.py, seed blender/tools/interior_plans.py): a PLACEHOLDER shell and fit-out at its real Japanese size -- remodel freely. Keep the frame (origin = plot centre on the ground, street -Y), the floor levels, and move the Empties with what they belong to: DOOR_ (interior door, arrow OUT of the room), EXIT_ (outer door, arrow out of the building), LIFT_ (a lift: shaft floor centre at the low stop; stops / faces), MARK_ (a mission marker: kind weapon / spawn / cover ...). Keep 1.2 m clear both sides of every door. After editing: tools/building_kit/build_buildings.sh. \u7a7a\u6e2f\u7ba1\u5236\u5854: the civil airport's control tower -- a two-storey operations block (lobby with security, operations office, the approach-radar room, briefing) and a tower whose lift and stair climb to a 14 x 14 m glass cab at 36 m (consoles all round, the radar on its roof)."
   },
   "mesh": 2,
   "name": "Office_Chair.006",
   "translation": [
    -3.9000000953674316,
    0,
    -2.6500000953674316
   ]
  },
  {
   "extras": {
    "edit_note": "A mission building (blender/tools/build_interior_blends.py, seed blender/tools/interior_plans.py): a PLACEHOLDER shell and fit-out at its real Japanese size -- remodel freely. Keep the frame (origin = plot centre on the ground, street -Y), the floor levels, and move the Empties with what they belong to: DOOR_ (interior door, arrow OUT of the room), EXIT_ (outer door, arrow out of the building), LIFT_ (a lift: shaft floor centre at the low stop; stops / faces), MARK_ (a mission marker: kind weapon / spawn / cover ...). Keep 1.2 m clear both sides of every door. After editing: tools/building_kit/build_buildings.sh. \u7a7a\u6e2f\u7ba1\u5236\u5854: the civil airport's control tower -- a two-storey operations block (lobby with security, operations office, the approach-radar room, briefing) and a tower whose lift and stair climb to a 14 x 14 m glass cab at 36 m (consoles all round, the radar on its roof)."
   },
   "mesh": 2,
   "name": "Office_Chair.007",
   "rotation": [
    0,
    -1,
    0,
    4.371138828673793e-08
   ],
   "translation": [
    -3.9000000953674316,
    0,
    -4.349999904632568
   ]
  },
  {
   "extras": {
    "edit_note": "A mission building (blender/tools/build_interior_blends.py, seed blender/tools/interior_plans.py): a PLACEHOLDER shell and fit-out at its real Japanese size -- remodel freely. Keep the frame (origin = plot centre on the ground, street -Y), the floor levels, and move the Empties with what they belong to: DOOR_ (interior door, arrow OUT of the room), EXIT_ (outer door, arrow out of the building), LIFT_ (a lift: shaft floor centre at the low stop; stops / faces), MARK_ (a mission marker: kind weapon / spawn / cover ...). Keep 1.2 m clear both sides of every door. After editing: tools/building_kit/build_buildings.sh. \u7a7a\u6e2f\u7ba1\u5236\u5854: the civil airport's control tower -- a two-storey operations block (lobby with security, operations office, the approach-radar room, briefing) and a tower whose lift and stair climb to a 14 x 14 m glass cab at 36 m (consoles all round, the radar on its roof)."
   },
   "mesh": 2,
   "name": "Office_Chair.008",
   "rotation": [
    0,
    -1,
    0,
    4.371138828673793e-08
   ],
   "translation": [
    -9.5,
    4.5,
    -5.25
   ]
  },
  {
   "extras": {
    "edit_note": "A mission building (blender/tools/build_interior_blends.py, seed blender/tools/interior_plans.py): a PLACEHOLDER shell and fit-out at its real Japanese size -- remodel freely. Keep the frame (origin = plot centre on the ground, street -Y), the floor levels, and move the Empties with what they belong to: DOOR_ (interior door, arrow OUT of the room), EXIT_ (outer door, arrow out of the building), LIFT_ (a lift: shaft floor centre at the low stop; stops / faces), MARK_ (a mission marker: kind weapon / spawn / cover ...). Keep 1.2 m clear both sides of every door. After editing: tools/building_kit/build_buildings.sh. \u7a7a\u6e2f\u7ba1\u5236\u5854: the civil airport's control tower -- a two-storey operations block (lobby with security, operations office, the approach-radar room, briefing) and a tower whose lift and stair climb to a 14 x 14 m glass cab at 36 m (consoles all round, the radar on its roof)."
   },
   "mesh": 2,
   "name": "Office_Chair.009",
   "rotation": [
    0,
    -1,
    0,
    4.371138828673793e-08
   ],
   "translation": [
    -7,
    4.5,
    -5.25
   ]
  },
  {
   "extras": {
    "edit_note": "A mission building (blender/tools/build_interior_blends.py, seed blender/tools/interior_plans.py): a PLACEHOLDER shell and fit-out at its real Japanese size -- remodel freely. Keep the frame (origin = plot centre on the ground, street -Y), the floor levels, and move the Empties with what they belong to: DOOR_ (interior door, arrow OUT of the room), EXIT_ (outer door, arrow out of the building), LIFT_ (a lift: shaft floor centre at the low stop; stops / faces), MARK_ (a mission marker: kind weapon / spawn / cover ...). Keep 1.2 m clear both sides of every door. After editing: tools/building_kit/build_buildings.sh. \u7a7a\u6e2f\u7ba1\u5236\u5854: the civil airport's control tower -- a two-storey operations block (lobby with security, operations office, the approach-radar room, briefing) and a tower whose lift and stair climb to a 14 x 14 m glass cab at 36 m (consoles all round, the radar on its roof)."
   },
   "mesh": 2,
   "name": "Office_Chair.010",
   "rotation": [
    0,
    -1,
    0,
    4.371138828673793e-08
   ],
   "translation": [
    -4.5,
    4.5,
    -5.25
   ]
  },
  {
   "extras": {
    "edit_note": "A mission building (blender/tools/build_interior_blends.py, seed blender/tools/interior_plans.py): a PLACEHOLDER shell and fit-out at its real Japanese size -- remodel freely. Keep the frame (origin = plot centre on the ground, street -Y), the floor levels, and move the Empties with what they belong to: DOOR_ (interior door, arrow OUT of the room), EXIT_ (outer door, arrow out of the building), LIFT_ (a lift: shaft floor centre at the low stop; stops / faces), MARK_ (a mission marker: kind weapon / spawn / cover ...). Keep 1.2 m clear both sides of every door. After editing: tools/building_kit/build_buildings.sh. \u7a7a\u6e2f\u7ba1\u5236\u5854: the civil airport's control tower -- a two-storey operations block (lobby with security, operations office, the approach-radar room, briefing) and a tower whose lift and stair climb to a 14 x 14 m glass cab at 36 m (consoles all round, the radar on its roof)."
   },
   "mesh": 2,
   "name": "Office_Chair.011",
   "translation": [
    1.2000000476837158,
    36,
    2.6500000953674316
   ]
  },
  {
   "extras": {
    "edit_note": "A mission building (blender/tools/build_interior_blends.py, seed blender/tools/interior_plans.py): a PLACEHOLDER shell and fit-out at its real Japanese size -- remodel freely. Keep the frame (origin = plot centre on the ground, street -Y), the floor levels, and move the Empties with what they belong to: DOOR_ (interior door, arrow OUT of the room), EXIT_ (outer door, arrow out of the building), LIFT_ (a lift: shaft floor centre at the low stop; stops / faces), MARK_ (a mission marker: kind weapon / spawn / cover ...). Keep 1.2 m clear both sides of every door. After editing: tools/building_kit/build_buildings.sh. \u7a7a\u6e2f\u7ba1\u5236\u5854: the civil airport's control tower -- a two-storey operations block (lobby with security, operations office, the approach-radar room, briefing) and a tower whose lift and stair climb to a 14 x 14 m glass cab at 36 m (consoles all round, the radar on its roof)."
   },
   "mesh": 2,
   "name": "Office_Chair.012",
   "translation": [
    4.199999809265137,
    36,
    2.6500000953674316
   ]
  },
  {
   "extras": {
    "edit_note": "A mission building (blender/tools/build_interior_blends.py, seed blender/tools/interior_plans.py): a PLACEHOLDER shell and fit-out at its real Japanese size -- remodel freely. Keep the frame (origin = plot centre on the ground, street -Y), the floor levels, and move the Empties with what they belong to: DOOR_ (interior door, arrow OUT of the room), EXIT_ (outer door, arrow out of the building), LIFT_ (a lift: shaft floor centre at the low stop; stops / faces), MARK_ (a mission marker: kind weapon / spawn / cover ...). Keep 1.2 m clear both sides of every door. After editing: tools/building_kit/build_buildings.sh. \u7a7a\u6e2f\u7ba1\u5236\u5854: the civil airport's control tower -- a two-storey operations block (lobby with security, operations office, the approach-radar room, briefing) and a tower whose lift and stair climb to a 14 x 14 m glass cab at 36 m (consoles all round, the radar on its roof)."
   },
   "mesh": 2,
   "name": "Office_Chair.013",
   "translation": [
    7.199999809265137,
    36,
    2.6500000953674316
   ]
  },
  {
   "extras": {
    "edit_note": "A mission building (blender/tools/build_interior_blends.py, seed blender/tools/interior_plans.py): a PLACEHOLDER shell and fit-out at its real Japanese size -- remodel freely. Keep the frame (origin = plot centre on the ground, street -Y), the floor levels, and move the Empties with what they belong to: DOOR_ (interior door, arrow OUT of the room), EXIT_ (outer door, arrow out of the building), LIFT_ (a lift: shaft floor centre at the low stop; stops / faces), MARK_ (a mission marker: kind weapon / spawn / cover ...). Keep 1.2 m clear both sides of every door. After editing: tools/building_kit/build_buildings.sh. \u7a7a\u6e2f\u7ba1\u5236\u5854: the civil airport's control tower -- a two-storey operations block (lobby with security, operations office, the approach-radar room, briefing) and a tower whose lift and stair climb to a 14 x 14 m glass cab at 36 m (consoles all round, the radar on its roof)."
   },
   "mesh": 2,
   "name": "Office_Chair.014",
   "translation": [
    10.199999809265137,
    36,
    2.6500000953674316
   ]
  },
  {
   "extras": {
    "edit_note": "A mission building (blender/tools/build_interior_blends.py, seed blender/tools/interior_plans.py): a PLACEHOLDER shell and fit-out at its real Japanese size -- remodel freely. Keep the frame (origin = plot centre on the ground, street -Y), the floor levels, and move the Empties with what they belong to: DOOR_ (interior door, arrow OUT of the room), EXIT_ (outer door, arrow out of the building), LIFT_ (a lift: shaft floor centre at the low stop; stops / faces), MARK_ (a mission marker: kind weapon / spawn / cover ...). Keep 1.2 m clear both sides of every door. After editing: tools/building_kit/build_buildings.sh. \u7a7a\u6e2f\u7ba1\u5236\u5854: the civil airport's control tower -- a two-storey operations block (lobby with security, operations office, the approach-radar room, briefing) and a tower whose lift and stair climb to a 14 x 14 m glass cab at 36 m (consoles all round, the radar on its roof)."
   },
   "mesh": 3,
   "name": "Office_Desk",
   "translation": [
    -9.5,
    4.5,
    -5.900000095367432
   ]
  },
  {
   "extras": {
    "edit_note": "A mission building (blender/tools/build_interior_blends.py, seed blender/tools/interior_plans.py): a PLACEHOLDER shell and fit-out at its real Japanese size -- remodel freely. Keep the frame (origin = plot centre on the ground, street -Y), the floor levels, and move the Empties with what they belong to: DOOR_ (interior door, arrow OUT of the room), EXIT_ (outer door, arrow out of the building), LIFT_ (a lift: shaft floor centre at the low stop; stops / faces), MARK_ (a mission marker: kind weapon / spawn / cover ...). Keep 1.2 m clear both sides of every door. After editing: tools/building_kit/build_buildings.sh. \u7a7a\u6e2f\u7ba1\u5236\u5854: the civil airport's control tower -- a two-storey operations block (lobby with security, operations office, the approach-radar room, briefing) and a tower whose lift and stair climb to a 14 x 14 m glass cab at 36 m (consoles all round, the radar on its roof)."
   },
   "mesh": 3,
   "name": "Office_Desk.001",
   "translation": [
    -7,
    4.5,
    -5.900000095367432
   ]
  },
  {
   "extras": {
    "edit_note": "A mission building (blender/tools/build_interior_blends.py, seed blender/tools/interior_plans.py): a PLACEHOLDER shell and fit-out at its real Japanese size -- remodel freely. Keep the frame (origin = plot centre on the ground, street -Y), the floor levels, and move the Empties with what they belong to: DOOR_ (interior door, arrow OUT of the room), EXIT_ (outer door, arrow out of the building), LIFT_ (a lift: shaft floor centre at the low stop; stops / faces), MARK_ (a mission marker: kind weapon / spawn / cover ...). Keep 1.2 m clear both sides of every door. After editing: tools/building_kit/build_buildings.sh. \u7a7a\u6e2f\u7ba1\u5236\u5854: the civil airport's control tower -- a two-storey operations block (lobby with security, operations office, the approach-radar room, briefing) and a tower whose lift and stair climb to a 14 x 14 m glass cab at 36 m (consoles all round, the radar on its roof)."
   },
   "mesh": 3,
   "name": "Office_Desk.002",
   "translation": [
    -4.5,
    4.5,
    -5.900000095367432
   ]
  },
  {
   "extras": {
    "edit_note": "A mission building (blender/tools/build_interior_blends.py, seed blender/tools/interior_plans.py): a PLACEHOLDER shell and fit-out at its real Japanese size -- remodel freely. Keep the frame (origin = plot centre on the ground, street -Y), the floor levels, and move the Empties with what they belong to: DOOR_ (interior door, arrow OUT of the room), EXIT_ (outer door, arrow out of the building), LIFT_ (a lift: shaft floor centre at the low stop; stops / faces), MARK_ (a mission marker: kind weapon / spawn / cover ...). Keep 1.2 m clear both sides of every door. After editing: tools/building_kit/build_buildings.sh. \u7a7a\u6e2f\u7ba1\u5236\u5854: the civil airport's control tower -- a two-storey operations block (lobby with security, operations office, the approach-radar room, briefing) and a tower whose lift and stair climb to a 14 x 14 m glass cab at 36 m (consoles all round, the radar on its roof)."
   },
   "mesh": 3,
   "name": "Office_Desk.003",
   "rotation": [
    0,
    -1,
    0,
    4.371138828673793e-08
   ],
   "translation": [
    1.2000000476837158,
    36,
    3.299999952316284
   ]
  },
  {
   "extras": {
    "edit_note": "A mission building (blender/tools/build_interior_blends.py, seed blender/tools/interior_plans.py): a PLACEHOLDER shell and fit-out at its real Japanese size -- remodel freely. Keep the frame (origin = plot centre on the ground, street -Y), the floor levels, and move the Empties with what they belong to: DOOR_ (interior door, arrow OUT of the room), EXIT_ (outer door, arrow out of the building), LIFT_ (a lift: shaft floor centre at the low stop; stops / faces), MARK_ (a mission marker: kind weapon / spawn / cover ...). Keep 1.2 m clear both sides of every door. After editing: tools/building_kit/build_buildings.sh. \u7a7a\u6e2f\u7ba1\u5236\u5854: the civil airport's control tower -- a two-storey operations block (lobby with security, operations office, the approach-radar room, briefing) and a tower whose lift and stair climb to a 14 x 14 m glass cab at 36 m (consoles all round, the radar on its roof)."
   },
   "mesh": 3,
   "name": "Office_Desk.004",
   "rotation": [
    0,
    -1,
    0,
    4.371138828673793e-08
   ],
   "translation": [
    4.199999809265137,
    36,
    3.299999952316284
   ]
  },
  {
   "extras": {
    "edit_note": "A mission building (blender/tools/build_interior_blends.py, seed blender/tools/interior_plans.py): a PLACEHOLDER shell and fit-out at its real Japanese size -- remodel freely. Keep the frame (origin = plot centre on the ground, street -Y), the floor levels, and move the Empties with what they belong to: DOOR_ (interior door, arrow OUT of the room), EXIT_ (outer door, arrow out of the building), LIFT_ (a lift: shaft floor centre at the low stop; stops / faces), MARK_ (a mission marker: kind weapon / spawn / cover ...). Keep 1.2 m clear both sides of every door. After editing: tools/building_kit/build_buildings.sh. \u7a7a\u6e2f\u7ba1\u5236\u5854: the civil airport's control tower -- a two-storey operations block (lobby with security, operations office, the approach-radar room, briefing) and a tower whose lift and stair climb to a 14 x 14 m glass cab at 36 m (consoles all round, the radar on its roof)."
   },
   "mesh": 3,
   "name": "Office_Desk.005",
   "rotation": [
    0,
    -1,
    0,
    4.371138828673793e-08
   ],
   "translation": [
    7.199999809265137,
    36,
    3.299999952316284
   ]
  },
  {
   "extras": {
    "edit_note": "A mission building (blender/tools/build_interior_blends.py, seed blender/tools/interior_plans.py): a PLACEHOLDER shell and fit-out at its real Japanese size -- remodel freely. Keep the frame (origin = plot centre on the ground, street -Y), the floor levels, and move the Empties with what they belong to: DOOR_ (interior door, arrow OUT of the room), EXIT_ (outer door, arrow out of the building), LIFT_ (a lift: shaft floor centre at the low stop; stops / faces), MARK_ (a mission marker: kind weapon / spawn / cover ...). Keep 1.2 m clear both sides of every door. After editing: tools/building_kit/build_buildings.sh. \u7a7a\u6e2f\u7ba1\u5236\u5854: the civil airport's control tower -- a two-storey operations block (lobby with security, operations office, the approach-radar room, briefing) and a tower whose lift and stair climb to a 14 x 14 m glass cab at 36 m (consoles all round, the radar on its roof)."
   },
   "mesh": 3,
   "name": "Office_Desk.006",
   "rotation": [
    0,
    -1,
    0,
    4.371138828673793e-08
   ],
   "translation": [
    10.199999809265137,
    36,
    3.299999952316284
   ]
  },
  {
   "extras": {
    "edit_note": "A mission building (blender/tools/build_interior_blends.py, seed blender/tools/interior_plans.py): a PLACEHOLDER shell and fit-out at its real Japanese size -- remodel freely. Keep the frame (origin = plot centre on the ground, street -Y), the floor levels, and move the Empties with what they belong to: DOOR_ (interior door, arrow OUT of the room), EXIT_ (outer door, arrow out of the building), LIFT_ (a lift: shaft floor centre at the low stop; stops / faces), MARK_ (a mission marker: kind weapon / spawn / cover ...). Keep 1.2 m clear both sides of every door. After editing: tools/building_kit/build_buildings.sh. \u7a7a\u6e2f\u7ba1\u5236\u5854: the civil airport's control tower -- a two-storey operations block (lobby with security, operations office, the approach-radar room, briefing) and a tower whose lift and stair climb to a 14 x 14 m glass cab at 36 m (consoles all round, the radar on its roof)."
   },
   "mesh": 3,
   "name": "Office_Desk.007",
   "rotation": [
    0,
    0.7071068286895752,
    0,
    0.7071068286895752
   ],
   "translation": [
    0.699999988079071,
    36,
    -0.5
   ]
  },
  {
   "extras": {
    "edit_note": "A mission building (blender/tools/build_interior_blends.py, seed blender/tools/interior_plans.py): a PLACEHOLDER shell and fit-out at its real Japanese size -- remodel freely. Keep the frame (origin = plot centre on the ground, street -Y), the floor levels, and move the Empties with what they belong to: DOOR_ (interior door, arrow OUT of the room), EXIT_ (outer door, arrow out of the building), LIFT_ (a lift: shaft floor centre at the low stop; stops / faces), MARK_ (a mission marker: kind weapon / spawn / cover ...). Keep 1.2 m clear both sides of every door. After editing: tools/building_kit/build_buildings.sh. \u7a7a\u6e2f\u7ba1\u5236\u5854: the civil airport's control tower -- a two-storey operations block (lobby with security, operations office, the approach-radar room, briefing) and a tower whose lift and stair climb to a 14 x 14 m glass cab at 36 m (consoles all round, the radar on its roof)."
   },
   "mesh": 3,
   "name": "Office_Desk.008",
   "rotation": [
    0,
    -0.7071068286895752,
    0,
    0.7071068286895752
   ],
   "translation": [
    13.300000190734863,
    36,
    -0.5
   ]
  },
  {
   "extras": {
    "edit_note": "A mission building (blender/tools/build_interior_blends.py, seed blender/tools/interior_plans.py): a PLACEHOLDER shell and fit-out at its real Japanese size -- remodel freely. Keep the frame (origin = plot centre on the ground, street -Y), the floor levels, and move the Empties with what they belong to: DOOR_ (interior door, arrow OUT of the room), EXIT_ (outer door, arrow out of the building), LIFT_ (a lift: shaft floor centre at the low stop; stops / faces), MARK_ (a mission marker: kind weapon / spawn / cover ...). Keep 1.2 m clear both sides of every door. After editing: tools/building_kit/build_buildings.sh. \u7a7a\u6e2f\u7ba1\u5236\u5854: the civil airport's control tower -- a two-storey operations block (lobby with security, operations office, the approach-radar room, briefing) and a tower whose lift and stair climb to a 14 x 14 m glass cab at 36 m (consoles all round, the radar on its roof)."
   },
   "mesh": 3,
   "name": "Office_Desk.009",
   "rotation": [
    0,
    0.7071068286895752,
    0,
    0.7071068286895752
   ],
   "translation": [
    0.699999988079071,
    36,
    -3.5
   ]
  },
  {
   "extras": {
    "edit_note": "A mission building (blender/tools/build_interior_blends.py, seed blender/tools/interior_plans.py): a PLACEHOLDER shell and fit-out at its real Japanese size -- remodel freely. Keep the frame (origin = plot centre on the ground, street -Y), the floor levels, and move the Empties with what they belong to: DOOR_ (interior door, arrow OUT of the room), EXIT_ (outer door, arrow out of the building), LIFT_ (a lift: shaft floor centre at the low stop; stops / faces), MARK_ (a mission marker: kind weapon / spawn / cover ...). Keep 1.2 m clear both sides of every door. After editing: tools/building_kit/build_buildings.sh. \u7a7a\u6e2f\u7ba1\u5236\u5854: the civil airport's control tower -- a two-storey operations block (lobby with security, operations office, the approach-radar room, briefing) and a tower whose lift and stair climb to a 14 x 14 m glass cab at 36 m (consoles all round, the radar on its roof)."
   },
   "mesh": 3,
   "name": "Office_Desk.010",
   "rotation": [
    0,
    -0.7071068286895752,
    0,
    0.7071068286895752
   ],
   "translation": [
    13.300000190734863,
    36,
    -3.5
   ]
  },
  {
   "extras": {
    "edit_note": "A mission building (blender/tools/build_interior_blends.py, seed blender/tools/interior_plans.py): a PLACEHOLDER shell and fit-out at its real Japanese size -- remodel freely. Keep the frame (origin = plot centre on the ground, street -Y), the floor levels, and move the Empties with what they belong to: DOOR_ (interior door, arrow OUT of the room), EXIT_ (outer door, arrow out of the building), LIFT_ (a lift: shaft floor centre at the low stop; stops / faces), MARK_ (a mission marker: kind weapon / spawn / cover ...). Keep 1.2 m clear both sides of every door. After editing: tools/building_kit/build_buildings.sh. \u7a7a\u6e2f\u7ba1\u5236\u5854: the civil airport's control tower -- a two-storey operations block (lobby with security, operations office, the approach-radar room, briefing) and a tower whose lift and stair climb to a 14 x 14 m glass cab at 36 m (consoles all round, the radar on its roof)."
   },
   "mesh": 4,
   "name": "Office_DeskIsland",
   "translation": [
    -9,
    0,
    -3.5
   ]
  },
  {
   "extras": {
    "edit_note": "A mission building (blender/tools/build_interior_blends.py, seed blender/tools/interior_plans.py): a PLACEHOLDER shell and fit-out at its real Japanese size -- remodel freely. Keep the frame (origin = plot centre on the ground, street -Y), the floor levels, and move the Empties with what they belong to: DOOR_ (interior door, arrow OUT of the room), EXIT_ (outer door, arrow out of the building), LIFT_ (a lift: shaft floor centre at the low stop; stops / faces), MARK_ (a mission marker: kind weapon / spawn / cover ...). Keep 1.2 m clear both sides of every door. After editing: tools/building_kit/build_buildings.sh. \u7a7a\u6e2f\u7ba1\u5236\u5854: the civil airport's control tower -- a two-storey operations block (lobby with security, operations office, the approach-radar room, briefing) and a tower whose lift and stair climb to a 14 x 14 m glass cab at 36 m (consoles all round, the radar on its roof)."
   },
   "mesh": 4,
   "name": "Office_DeskIsland.001",
   "translation": [
    -4.5,
    0,
    -3.5
   ]
  },
  {
   "extras": {
    "edit_note": "A mission building (blender/tools/build_interior_blends.py, seed blender/tools/interior_plans.py): a PLACEHOLDER shell and fit-out at its real Japanese size -- remodel freely. Keep the frame (origin = plot centre on the ground, street -Y), the floor levels, and move the Empties with what they belong to: DOOR_ (interior door, arrow OUT of the room), EXIT_ (outer door, arrow out of the building), LIFT_ (a lift: shaft floor centre at the low stop; stops / faces), MARK_ (a mission marker: kind weapon / spawn / cover ...). Keep 1.2 m clear both sides of every door. After editing: tools/building_kit/build_buildings.sh. \u7a7a\u6e2f\u7ba1\u5236\u5854: the civil airport's control tower -- a two-storey operations block (lobby with security, operations office, the approach-radar room, briefing) and a tower whose lift and stair climb to a 14 x 14 m glass cab at 36 m (consoles all round, the radar on its roof)."
   },
   "mesh": 5,
   "name": "Office_MeetingTable",
   "translation": [
    -4,
    4.5,
    3.5
   ]
  },
  {
   "extras": {
    "edit_note": "A mission building (blender/tools/build_interior_blends.py, seed blender/tools/interior_plans.py): a PLACEHOLDER shell and fit-out at its real Japanese size -- remodel freely. Keep the frame (origin = plot centre on the ground, street -Y), the floor levels, and move the Empties with what they belong to: DOOR_ (interior door, arrow OUT of the room), EXIT_ (outer door, arrow out of the building), LIFT_ (a lift: shaft floor centre at the low stop; stops / faces), MARK_ (a mission marker: kind weapon / spawn / cover ...). Keep 1.2 m clear both sides of every door. After editing: tools/building_kit/build_buildings.sh. \u7a7a\u6e2f\u7ba1\u5236\u5854: the civil airport's control tower -- a two-storey operations block (lobby with security, operations office, the approach-radar room, briefing) and a tower whose lift and stair climb to a 14 x 14 m glass cab at 36 m (consoles all round, the radar on its roof)."
   },
   "mesh": 6,
   "name": "Office_Reception",
   "translation": [
    -6,
    0,
    3.5
   ]
  },
  {
   "extras": {
    "edit_note": "A mission building (blender/tools/build_interior_blends.py, seed blender/tools/interior_plans.py): a PLACEHOLDER shell and fit-out at its real Japanese size -- remodel freely. Keep the frame (origin = plot centre on the ground, street -Y), the floor levels, and move the Empties with what they belong to: DOOR_ (interior door, arrow OUT of the room), EXIT_ (outer door, arrow out of the building), LIFT_ (a lift: shaft floor centre at the low stop; stops / faces), MARK_ (a mission marker: kind weapon / spawn / cover ...). Keep 1.2 m clear both sides of every door. After editing: tools/building_kit/build_buildings.sh. \u7a7a\u6e2f\u7ba1\u5236\u5854: the civil airport's control tower -- a two-storey operations block (lobby with security, operations office, the approach-radar room, briefing) and a tower whose lift and stair climb to a 14 x 14 m glass cab at 36 m (consoles all round, the radar on its roof)."
   },
   "mesh": 7,
   "name": "Office_ServerRack",
   "translation": [
    1,
    0,
    -6.400000095367432
   ]
  },
  {
   "extras": {
    "edit_note": "A mission building (blender/tools/build_interior_blends.py, seed blender/tools/interior_plans.py): a PLACEHOLDER shell and fit-out at its real Japanese size -- remodel freely. Keep the frame (origin = plot centre on the ground, street -Y), the floor levels, and move the Empties with what they belong to: DOOR_ (interior door, arrow OUT of the room), EXIT_ (outer door, arrow out of the building), LIFT_ (a lift: shaft floor centre at the low stop; stops / faces), MARK_ (a mission marker: kind weapon / spawn / cover ...). Keep 1.2 m clear both sides of every door. After editing: tools/building_kit/build_buildings.sh. \u7a7a\u6e2f\u7ba1\u5236\u5854: the civil airport's control tower -- a two-storey operations block (lobby with security, operations office, the approach-radar room, briefing) and a tower whose lift and stair climb to a 14 x 14 m glass cab at 36 m (consoles all round, the radar on its roof)."
   },
   "mesh": 7,
   "name": "Office_ServerRack.001",
   "translation": [
    2,
    0,
    -6.400000095367432
   ]
  },
  {
   "extras": {
    "edit_note": "A mission building (blender/tools/build_interior_blends.py, seed blender/tools/interior_plans.py): a PLACEHOLDER shell and fit-out at its real Japanese size -- remodel freely. Keep the frame (origin = plot centre on the ground, street -Y), the floor levels, and move the Empties with what they belong to: DOOR_ (interior door, arrow OUT of the room), EXIT_ (outer door, arrow out of the building), LIFT_ (a lift: shaft floor centre at the low stop; stops / faces), MARK_ (a mission marker: kind weapon / spawn / cover ...). Keep 1.2 m clear both sides of every door. After editing: tools/building_kit/build_buildings.sh. \u7a7a\u6e2f\u7ba1\u5236\u5854: the civil airport's control tower -- a two-storey operations block (lobby with security, operations office, the approach-radar room, briefing) and a tower whose lift and stair climb to a 14 x 14 m glass cab at 36 m (consoles all round, the radar on its roof)."
   },
   "mesh": 8,
   "name": "Office_Whiteboard",
   "translation": [
    -10,
    4.5,
    6.300000190734863
   ]
  },
  {
   "extras": {
    "edit_note": "A mission building (blender/tools/build_interior_blends.py, seed blender/tools/interior_plans.py): a PLACEHOLDER shell and fit-out at its real Japanese size -- remodel freely. Keep the frame (origin = plot centre on the ground, street -Y), the floor levels, and move the Empties with what they belong to: DOOR_ (interior door, arrow OUT of the room), EXIT_ (outer door, arrow out of the building), LIFT_ (a lift: shaft floor centre at the low stop; stops / faces), MARK_ (a mission marker: kind weapon / spawn / cover ...). Keep 1.2 m clear both sides of every door. After editing: tools/building_kit/build_buildings.sh. \u7a7a\u6e2f\u7ba1\u5236\u5854: the civil airport's control tower -- a two-storey operations block (lobby with security, operations office, the approach-radar room, briefing) and a tower whose lift and stair climb to a 14 x 14 m glass cab at 36 m (consoles all round, the radar on its roof)."
   },
   "mesh": 9,
   "name": "Roof"
  },
  {
   "extras": {
    "edit_note": "A mission building (blender/tools/build_interior_blends.py, seed blender/tools/interior_plans.py): a PLACEHOLDER shell and fit-out at its real Japanese size -- remodel freely. Keep the frame (origin = plot centre on the ground, street -Y), the floor levels, and move the Empties with what they belong to: DOOR_ (interior door, arrow OUT of the room), EXIT_ (outer door, arrow out of the building), LIFT_ (a lift: shaft floor centre at the low stop; stops / faces), MARK_ (a mission marker: kind weapon / spawn / cover ...). Keep 1.2 m clear both sides of every door. After editing: tools/building_kit/build_buildings.sh. \u7a7a\u6e2f\u7ba1\u5236\u5854: the civil airport's control tower -- a two-storey operations block (lobby with security, operations office, the approach-radar room, briefing) and a tower whose lift and stair climb to a 14 x 14 m glass cab at 36 m (consoles all round, the radar on its roof)."
   },
   "mesh": 10,
   "name": "Shafts"
  },
  {
   "extras": {
    "edit_note": "A mission building (blender/tools/build_interior_blends.py, seed blender/tools/interior_plans.py): a PLACEHOLDER shell and fit-out at its real Japanese size -- remodel freely. Keep the frame (origin = plot centre on the ground, street -Y), the floor levels, and move the Empties with what they belong to: DOOR_ (interior door, arrow OUT of the room), EXIT_ (outer door, arrow out of the building), LIFT_ (a lift: shaft floor centre at the low stop; stops / faces), MARK_ (a mission marker: kind weapon / spawn / cover ...). Keep 1.2 m clear both sides of every door. After editing: tools/building_kit/build_buildings.sh. \u7a7a\u6e2f\u7ba1\u5236\u5854: the civil airport's control tower -- a two-storey operations block (lobby with security, operations office, the approach-radar room, briefing) and a tower whose lift and stair climb to a 14 x 14 m glass cab at 36 m (consoles all round, the radar on its roof)."
   },
   "mesh": 11,
   "name": "Site"
  },
  {
   "extras": {
    "edit_note": "A mission building (blender/tools/build_interior_blends.py, seed blender/tools/interior_plans.py): a PLACEHOLDER shell and fit-out at its real Japanese size -- remodel freely. Keep the frame (origin = plot centre on the ground, street -Y), the floor levels, and move the Empties with what they belong to: DOOR_ (interior door, arrow OUT of the room), EXIT_ (outer door, arrow out of the building), LIFT_ (a lift: shaft floor centre at the low stop; stops / faces), MARK_ (a mission marker: kind weapon / spawn / cover ...). Keep 1.2 m clear both sides of every door. After editing: tools/building_kit/build_buildings.sh. \u7a7a\u6e2f\u7ba1\u5236\u5854: the civil airport's control tower -- a two-storey operations block (lobby with security, operations office, the approach-radar room, briefing) and a tower whose lift and stair climb to a 14 x 14 m glass cab at 36 m (consoles all round, the radar on its roof)."
   },
   "mesh": 12,
   "name": "Stairs"
  },
  {
   "extras": {
    "edit_note": "A mission building (blender/tools/build_interior_blends.py, seed blender/tools/interior_plans.py): a PLACEHOLDER shell and fit-out at its real Japanese size -- remodel freely. Keep the frame (origin = plot centre on the ground, street -Y), the floor levels, and move the Empties with what they belong to: DOOR_ (interior door, arrow OUT of the room), EXIT_ (outer door, arrow out of the building), LIFT_ (a lift: shaft floor centre at the low stop; stops / faces), MARK_ (a mission marker: kind weapon / spawn / cover ...). Keep 1.2 m clear both sides of every door. After editing: tools/building_kit/build_buildings.sh. \u7a7a\u6e2f\u7ba1\u5236\u5854: the civil airport's control tower -- a two-storey operations block (lobby with security, operations office, the approach-radar room, briefing) and a tower whose lift and stair climb to a 14 x 14 m glass cab at 36 m (consoles all round, the radar on its roof)."
   },
   "mesh": 13,
   "name": "Station_TicketGate",
   "rotation": [
    0,
    0.7071068286895752,
    0,
    0.7071068286895752
   ],
   "translation": [
    -3.200000047683716,
    0,
    2.200000047683716
   ]
  },
  {
   "extras": {
    "edit_note": "A mission building (blender/tools/build_interior_blends.py, seed blender/tools/interior_plans.py): a PLACEHOLDER shell and fit-out at its real Japanese size -- remodel freely. Keep the frame (origin = plot centre on the ground, street -Y), the floor levels, and move the Empties with what they belong to: DOOR_ (interior door, arrow OUT of the room), EXIT_ (outer door, arrow out of the building), LIFT_ (a lift: shaft floor centre at the low stop; stops / faces), MARK_ (a mission marker: kind weapon / spawn / cover ...). Keep 1.2 m clear both sides of every door. After editing: tools/building_kit/build_buildings.sh. \u7a7a\u6e2f\u7ba1\u5236\u5854: the civil airport's control tower -- a two-storey operations block (lobby with security, operations office, the approach-radar room, briefing) and a tower whose lift and stair climb to a 14 x 14 m glass cab at 36 m (consoles all round, the radar on its roof)."
   },
   "mesh": 14,
   "name": "Structure"
  },
  {
   "extras": {
    "edit_note": "A mission building (blender/tools/build_interior_blends.py, seed blender/tools/interior_plans.py): a PLACEHOLDER shell and fit-out at its real Japanese size -- remodel freely. Keep the frame (origin = plot centre on the ground, street -Y), the floor levels, and move the Empties with what they belong to: DOOR_ (interior door, arrow OUT of the room), EXIT_ (outer door, arrow out of the building), LIFT_ (a lift: shaft floor centre at the low stop; stops / faces), MARK_ (a mission marker: kind weapon / spawn / cover ...). Keep 1.2 m clear both sides of every door. After editing: tools/building_kit/build_buildings.sh. \u7a7a\u6e2f\u7ba1\u5236\u5854: the civil airport's control tower -- a two-storey operations block (lobby with security, operations office, the approach-radar room, briefing) and a tower whose lift and stair climb to a 14 x 14 m glass cab at 36 m (consoles all round, the radar on its roof)."
   },
   "mesh": 15,
   "name": "Walls_0"
  },
  {
   "extras": {
    "edit_note": "A mission building (blender/tools/build_interior_blends.py, seed blender/tools/interior_plans.py): a PLACEHOLDER shell and fit-out at its real Japanese size -- remodel freely. Keep the frame (origin = plot centre on the ground, street -Y), the floor levels, and move the Empties with what they belong to: DOOR_ (interior door, arrow OUT of the room), EXIT_ (outer door, arrow out of the building), LIFT_ (a lift: shaft floor centre at the low stop; stops / faces), MARK_ (a mission marker: kind weapon / spawn / cover ...). Keep 1.2 m clear both sides of every door. After editing: tools/building_kit/build_buildings.sh. \u7a7a\u6e2f\u7ba1\u5236\u5854: the civil airport's control tower -- a two-storey operations block (lobby with security, operations office, the approach-radar room, briefing) and a tower whose lift and stair climb to a 14 x 14 m glass cab at 36 m (consoles all round, the radar on its roof)."
   },
   "mesh": 16,
   "name": "Walls_4.5"
  },
  {
   "extras": {
    "edit_note": "A mission building (blender/tools/build_interior_blends.py, seed blender/tools/interior_plans.py): a PLACEHOLDER shell and fit-out at its real Japanese size -- remodel freely. Keep the frame (origin = plot centre on the ground, street -Y), the floor levels, and move the Empties with what they belong to: DOOR_ (interior door, arrow OUT of the room), EXIT_ (outer door, arrow out of the building), LIFT_ (a lift: shaft floor centre at the low stop; stops / faces), MARK_ (a mission marker: kind weapon / spawn / cover ...). Keep 1.2 m clear both sides of every door. After editing: tools/building_kit/build_buildings.sh. \u7a7a\u6e2f\u7ba1\u5236\u5854: the civil airport's control tower -- a two-storey operations block (lobby with security, operations office, the approach-radar room, briefing) and a tower whose lift and stair climb to a 14 x 14 m glass cab at 36 m (consoles all round, the radar on its roof)."
   },
   "mesh": 17,
   "name": "Walls_36"
  }
 ],
 "materials": [
  {
   "doubleSided": true,
   "name": "MI_PaintWhite",
   "pbrMetallicRoughness": {
    "baseColorFactor": [
     0.949999988079071,
     0.949999988079071,
     0.9300000071525574,
     1
    ],
    "metallicFactor": 0,
    "roughnessFactor": 0.699999988079071
   }
  },
  {
   "doubleSided": true,
   "name": "MI_Plaster",
   "pbrMetallicRoughness": {
    "baseColorFactor": [
     0.8999999761581421,
     0.8899999856948853,
     0.8600000143051147,
     1
    ],
    "metallicFactor": 0,
    "roughnessFactor": 0.699999988079071
   }
  },
  {
   "doubleSided": true,
   "name": "MI_GlassClear",
   "pbrMetallicRoughness": {
    "baseColorFactor": [
     0.550000011920929,
     0.6800000071525574,
     0.7200000286102295,
     1
    ],
    "metallicFactor": 0.20000000298023224,
    "roughnessFactor": 0.05000000074505806
   }
  },
  {
   "doubleSided": true,
   "name": "MI_PaintedMetal",
   "pbrMetallicRoughness": {
    "baseColorFactor": [
     0.8999999761581421,
     0.8999999761581421,
     0.8899999856948853,
     1
    ],
    "metallicFactor": 0.30000001192092896,
    "roughnessFactor": 0.699999988079071
   }
  },
  {
   "doubleSided": true,
   "name": "MI_Steel",
   "pbrMetallicRoughness": {
    "baseColorFactor": [
     0.5726980566978455,
     0.5820889472961426,
     0.5955169796943665,
     1
    ],
    "roughnessFactor": 0.699999988079071
   }
  },
  {
   "doubleSided": true,
   "name": "MI_PlasticDark",
   "pbrMetallicRoughness": {
    "baseColorFactor": [
     0.11999999731779099,
     0.11999999731779099,
     0.12999999523162842,
     1
    ],
    "metallicFactor": 0,
    "roughnessFactor": 0.6000000238418579
   }
  },
  {
   "doubleSided": true,
   "name": "MI_Fabric",
   "pbrMetallicRoughness": {
    "baseColorFactor": [
     0.3585456907749176,
     0.35632404685020447,
     0.3589908480644226,
     1
    ],
    "metallicFactor": 0,
    "roughnessFactor": 0.699999988079071
   }
  },
  {
   "doubleSided": true,
   "name": "MI_Wood",
   "pbrMetallicRoughness": {
    "baseColorFactor": [
     0.6217582821846008,
     0.4432729184627533,
     0.2785278260707855,
     1
    ],
    "metallicFactor": 0,
    "roughnessFactor": 0.699999988079071
   }
  },
  {
   "doubleSided": true,
   "name": "MI_PaintedMetalDark",
   "pbrMetallicRoughness": {
    "baseColorFactor": [
     0.1599999964237213,
     0.17000000178813934,
     0.18000000715255737,
     1
    ],
    "metallicFactor": 0.4000000059604645,
    "roughnessFactor": 0.699999988079071
   }
  },
  {
   "doubleSided": true,
   "emissiveFactor": [
    1,
    0.9800000190734863,
    0.9399999976158142
   ],
   "extensions": {
    "KHR_materials_emissive_strength": {
     "emissiveStrength": 2
    }
   },
   "name": "MI_Light",
   "pbrMetallicRoughness": {
    "baseColorFactor": [
     1,
     1,
     0.9700000286102295,
     1
    ],
    "metallicFactor": 0,
    "roughnessFactor": 0.699999988079071
   }
  },
  {
   "doubleSided": true,
   "name": "MI_ConcreteSmooth",
   "pbrMetallicRoughness": {
    "baseColorFactor": [
     0.3104965388774872,
     0.3015982508659363,
     0.2871379554271698,
     1
    ],
    "metallicFactor": 0,
    "roughnessFactor": 0.699999988079071
   }
  },
  {
   "doubleSided": true,
   "name": "MI_Terrazzo",
   "pbrMetallicRoughness": {
    "baseColorFactor": [
     0.8399999737739563,
     0.8600000143051147,
     0.8600000143051147,
     1
    ],
    "metallicFactor": 0,
    "roughnessFactor": 0.699999988079071
   }
  }
 ],
 "meshes": [
  {
   "name": "AirportControlTower_Facade",
   "primitives": [
    {
     "attributes": {
      "POSITION": 0,
      "NORMAL": 1
     },
     "indices": 2,
     "material": 0
    },
    {
     "attributes": {
      "POSITION": 3,
      "NORMAL": 4
     },
     "indices": 5,
     "material": 1
    }
   ]
  },
  {
   "name": "AirportControlTower_Glazing",
   "primitives": [
    {
     "attributes": {
      "POSITION": 6,
      "NORMAL": 7
     },
     "indices": 8,
     "material": 2
    },
    {
     "attributes": {
      "POSITION": 9,
      "NORMAL": 10
     },
     "indices": 11,
     "material": 3
    }
   ]
  },
  {
   "name": "LIB_Office_Chair",
   "primitives": [
    {
     "attributes": {
      "POSITION": 12,
      "NORMAL": 13
     },
     "indices": 14,
     "material": 4
    },
    {
     "attributes": {
      "POSITION": 15,
      "NORMAL": 16
     },
     "indices": 14,
     "material": 5
    },
    {
     "attributes": {
      "POSITION": 17,
      "NORMAL": 18
     },
     "indices": 19,
     "material": 6
    }
   ]
  },
  {
   "name": "LIB_Office_Desk",
   "primitives": [
    {
     "attributes": {
      "POSITION": 20,
      "NORMAL": 21
     },
     "indices": 14,
     "material": 7
    },
    {
     "attributes": {
      "POSITION": 22,
      "NORMAL": 23
     },
     "indices": 19,
     "material": 3
    },
    {
     "attributes": {
      "POSITION": 24,
      "NORMAL": 25
     },
     "indices": 14,
     "material": 5
    }
   ]
  },
  {
   "name": "LIB_Office_DeskIsland",
   "primitives": [
    {
     "attributes": {
      "POSITION": 26,
      "NORMAL": 27
     },
     "indices": 14,
     "material": 7
    },
    {
     "attributes": {
      "POSITION": 28,
      "NORMAL": 29
     },
     "indices": 30,
     "material": 3
    },
    {
     "attributes": {
      "POSITION": 31,
      "NORMAL": 32
     },
     "indices": 14,
     "material": 6
    },
    {
     "attributes": {
      "POSITION": 33,
      "NORMAL": 34
     },
     "indices": 35,
     "material": 5
    }
   ]
  },
  {
   "name": "LIB_Office_MeetingTable",
   "primitives": [
    {
     "attributes": {
      "POSITION": 36,
      "NORMAL": 37
     },
     "indices": 14,
     "material": 7
    },
    {
     "attributes": {
      "POSITION": 38,
      "NORMAL": 39
     },
     "indices": 19,
     "material": 8
    }
   ]
  },
  {
   "name": "LIB_Office_Reception",
   "primitives": [
    {
     "attributes": {
      "POSITION": 40,
      "NORMAL": 41
     },
     "indices": 42,
     "material": 7
    },
    {
     "attributes": {
      "POSITION": 43,
      "NORMAL": 44
     },
     "indices": 14,
     "material": 4
    },
    {
     "attributes": {
      "POSITION": 45,
      "NORMAL": 46
     },
     "indices": 19,
     "material": 5
    }
   ]
  },
  {
   "name": "LIB_Office_ServerRack",
   "primitives": [
    {
     "attributes": {
      "POSITION": 47,
      "NORMAL": 48
     },
     "indices": 14,
     "material": 5
    },
    {
     "attributes": {
      "POSITION": 49,
      "NORMAL": 50
     },
     "indices": 51,
     "material": 9
    }
   ]
  },
  {
   "name": "LIB_Office_Whiteboard",
   "primitives": [
    {
     "attributes": {
      "POSITION": 52,
      "NORMAL": 53
     },
     "indices": 14,
     "material": 0
    },
    {
     "attributes": {
      "POSITION": 54,
      "NORMAL": 55
     },
     "indices": 35,
     "material": 4
    }
   ]
  },
  {
   "name": "AirportControlTower_Roof",
   "primitives": [
    {
     "attributes": {
      "POSITION": 56,
      "NORMAL": 57
     },
     "indices": 58,
     "material": 10
    },
    {
     "attributes": {
      "POSITION": 59,
      "NORMAL": 60
     },
     "indices": 14,
     "material": 0
    },
    {
     "attributes": {
      "POSITION": 61,
      "NORMAL": 62
     },
     "indices": 19,
     "material": 4
    }
   ]
  },
  {
   "name": "AirportControlTower_Shafts",
   "primitives": [
    {
     "attributes": {
      "POSITION": 63,
      "NORMAL": 64
     },
     "indices": 65,
     "material": 10
    }
   ]
  },
  {
   "name": "AirportControlTower_Site",
   "primitives": [
    {
     "attributes": {
      "POSITION": 66,
      "NORMAL": 67
     },
     "indices": 14,
     "material": 10
    },
    {
     "attributes": {
      "POSITION": 68,
      "NORMAL": 69
     },
     "indices": 70,
     "material": 0
    }
   ]
  },
  {
   "name": "AirportControlTower_Stairs",
   "primitives": [
    {
     "attributes": {
      "POSITION": 71,
      "NORMAL": 72
     },
     "indices": 73,
     "material": 10
    },
    {
     "attributes": {
      "POSITION": 74,
      "NORMAL": 75
     },
     "indices": 76,
     "material": 8
    },
    {
     "attributes": {
      "POSITION": 77,
      "NORMAL": 78
     },
     "indices": 79,
     "material": 1
    }
   ]
  },
  {
   "extras": {
    "placeholder_note": "REMOVED 2026-09-28: base mesh was from elbolilloduro Metro pack (base mesh removed); this is a same-size PLACEHOLDER BOX, needs a modeller (see kits/library/placeholders.json)"
   },
   "name": "LIB_Station_TicketGate",
   "primitives": [
    {
     "attributes": {
      "POSITION": 80,
      "NORMAL": 81
     },
     "indices": 82,
     "material": 3
    }
   ]
  },
  {
   "name": "AirportControlTower_Structure",
   "primitives": [
    {
     "attributes": {
      "POSITION": 83,
      "NORMAL": 84
     },
     "indices": 85,
     "material": 11
    },
    {
     "attributes": {
      "POSITION": 86,
      "NORMAL": 87
     },
     "indices": 88,
     "material": 10
    },
    {
     "attributes": {
      "POSITION": 89,
      "NORMAL": 90
     },
     "indices": 91,
     "material": 6
    }
   ]
  },
  {
   "name": "AirportControlTower_Walls_0",
   "primitives": [
    {
     "attributes": {
      "POSITION": 92,
      "NORMAL": 93
     },
     "indices": 94,
     "material": 1
    }
   ]
  },
  {
   "name": "AirportControlTower_Walls_4.5",
   "primitives": [
    {
     "attributes": {
      "POSITION": 95,
      "NORMAL": 96
     },
     "indices": 94,
     "material": 1
    }
   ]
  },
  {
   "name": "AirportControlTower_Walls_36",
   "primitives": [
    {
     "attributes": {
      "POSITION": 97,
      "NORMAL": 98
     },
     "indices": 99,
     "material": 1
    }
   ]
  }
 ],
 "accessors": [
  {
   "bufferView": 0,
   "componentType": 5126,
   "count": 1332,
   "max": [
    14,
    40,
    7
   ],
   "min": [
    -12,
    0,
    -10
   ],
   "type": "VEC3"
  },
  {
   "bufferView": 1,
   "componentType": 5126,
   "count": 1332,
   "type": "VEC3"
  },
  {
   "bufferView": 2,
   "componentType": 5123,
   "count": 2574,
   "type": "SCALAR"
  },
  {
   "bufferView": 3,
   "componentType": 5126,
   "count": 858,
   "max": [
    12,
    36,
    6.900000095367432
   ],
   "min": [
    -12,
    0,
    -6.900000095367432
   ],
   "type": "VEC3"
  },
  {
   "bufferView": 4,
   "componentType": 5126,
   "count": 858,
   "type": "VEC3"
  },
  {
   "bufferView": 5,
   "componentType": 5123,
   "count": 1632,
   "type": "SCALAR"
  },
  {
   "bufferView": 6,
   "componentType": 5126,
   "count": 408,
   "max": [
    13.911999702453613,
    39.599998474121094,
    6.9120001792907715
   ],
   "min": [
    -11.911999702453613,
    0.8999999761581421,
    -9.911999702453613
   ],
   "type": "VEC3"
  },
  {
   "bufferView": 7,
   "componentType": 5126,
   "count": 408,
   "type": "VEC3"
  },
  {
   "bufferView": 8,
   "componentType": 5123,
   "count": 612,
   "type": "SCALAR"
  },
  {
   "bufferView": 9,
   "componentType": 5126,
   "count": 1360,
   "max": [
    14.010000228881836,
    39.650001525878906,
    7.010000228881836
   ],
   "min": [
    -12.010000228881836,
    -0.05000000074505806,
    -10.010000228881836
   ],
   "type": "VEC3"
  },
  {
   "bufferView": 10,
   "componentType": 5126,
   "count": 1360,
   "type": "VEC3"
  },
  {
   "bufferView": 11,
   "componentType": 5123,
   "count": 2448,
   "type": "SCALAR"
  },
  {
   "bufferView": 12,
   "componentType": 5126,
   "count": 24,
   "max": [
    0.029999999329447746,
    0.41999998688697815,
    0.029999999329447746
   ],
   "min": [
    -0.029999999329447746,
    0,
    -0.029999999329447746
   ],
   "type": "VEC3"
  },
  {
   "bufferView": 13,
   "componentType": 5126,
   "count": 24,
   "type": "VEC3"
  },
  {
   "bufferView": 14,
   "componentType": 5123,
   "count": 36,
   "type": "SCALAR"
  },
  {
   "bufferView": 15,
   "componentType": 5126,
   "count": 24,
   "max": [
    0.30000001192092896,
    0.05000000074505806,
    0.30000001192092896
   ],
   "min": [
    -0.30000001192092896,
    0,
    -0.30000001192092896
   ],
   "type": "VEC3"
  },
  {
   "bufferView": 16,
   "componentType": 5126,
   "count": 24,
   "type": "VEC3"
  },
  {
   "bufferView": 17,
   "componentType": 5126,
   "count": 48,
   "max": [
    0.25,
    1,
    0.25
   ],
   "min": [
    -0.25,
    0.41999998688697815,
    -0.2800000011920929
   ],
   "type": "VEC3"
  },
  {
   "bufferView": 18,
   "componentType": 5126,
   "count": 48,
   "type": "VEC3"
  },
  {
   "bufferView": 19,
   "componentType": 5123,
   "count": 72,
   "type": "SCALAR"
  },
  {
   "bufferView": 20,
   "componentType": 5126,
   "count": 24,
   "max": [
    0.6000000238418579,
    0.7200000286102295,
    0.3499999940395355
   ],
   "min": [
    -0.6000000238418579,
    0.6800000071525574,
    -0.3499999940395355
   ],
   "type": "VEC3"
  },
  {
   "bufferView": 21,
   "componentType": 5126,
   "count": 24,
   "type": "VEC3"
  },
  {
   "bufferView": 22,
   "componentType": 5126,
   "count": 48,
   "max": [
    0.6000000238418579,
    0.6800000071525574,
    0.3199999928474426
   ],
   "min": [
    -0.6000000238418579,
    0,
    -0.3199999928474426
   ],
   "type": "VEC3"
  },
  {
   "bufferView": 23,
   "componentType": 5126,
   "count": 48,
   "type": "VEC3"
  },
  {
   "bufferView": 24,
   "componentType": 5126,
   "count": 24,
   "max": [
    0.25,
    1.0499999523162842,
    -0.10000000149011612
   ],
   "min": [
    -0.25,
    0.7200000286102295,
    -0.12999999523162842
   ],
   "type": "VEC3"
  },
  {
   "bufferView": 25,
   "componentType": 5126,
   "count": 24,
   "type": "VEC3"
  },
  {
   "bufferView": 26,
   "componentType": 5126,
   "count": 24,
   "max": [
    1.2000000476837158,
    0.7200000286102295,
    0.699999988079071
   ],
   "min": [
    -1.2000000476837158,
    0.6800000071525574,
    -0.699999988079071
   ],
   "type": "VEC3"
  },
  {
   "bufferView": 27,
   "componentType": 5126,
   "count": 24,
   "type": "VEC3"
  },
  {
   "bufferView": 28,
   "componentType": 5126,
   "count": 72,
   "max": [
    1.2000000476837158,
    0.6800000071525574,
    0.6700000166893005
   ],
   "min": [
    -1.2000000476837158,
    0,
    -0.6700000166893005
   ],
   "type": "VEC3"
  },
  {
   "bufferView": 29,
   "componentType": 5126,
   "count": 72,
   "type": "VEC3"
  },
  {
   "bufferView": 30,
   "componentType": 5123,
   "count": 108,
   "type": "SCALAR"
  },
  {
   "bufferView": 31,
   "componentType": 5126,
   "count": 24,
   "max": [
    1.2000000476837158,
    1.100000023841858,
    0.019999999552965164
   ],
   "min": [
    -1.2000000476837158,
    0.7200000286102295,
    -0.019999999552965164
   ],
   "type": "VEC3"
  },
  {
   "bufferView": 32,
   "componentType": 5126,
   "count": 24,
   "type": "VEC3"
  },
  {
   "bufferView": 33,
   "componentType": 5126,
   "count": 96,
   "max": [
    0.8500000238418579,
    1.0499999523162842,
    0.19499999284744263
   ],
   "min": [
    -0.8500000238418579,
    0.7200000286102295,
    -0.19499999284744263
   ],
   "type": "VEC3"
  },
  {
   "bufferView": 34,
   "componentType": 5126,
   "count": 96,
   "type": "VEC3"
  },
  {
   "bufferView": 35,
   "componentType": 5123,
   "count": 144,
   "type": "SCALAR"
  },
  {
   "bufferView": 36,
   "componentType": 5126,
   "count": 24,
   "max": [
    1.5,
    0.7200000286102295,
    0.6000000238418579
   ],
   "min": [
    -1.5,
    0.6800000071525574,
    -0.6000000238418579
   ],
   "type": "VEC3"
  },
  {
   "bufferView": 37,
   "componentType": 5126,
   "count": 24,
   "type": "VEC3"
  },
  {
   "bufferView": 38,
   "componentType": 5126,
   "count": 48,
   "max": [
    1.25,
    0.6800000071525574,
    0.4000000059604645
   ],
   "min": [
    -1.25,
    0,
    -0.4000000059604645
   ],
   "type": "VEC3"
  },
  {
   "bufferView": 39,
   "componentType": 5126,
   "count": 48,
   "type": "VEC3"
  },
  {
   "bufferView": 40,
   "componentType": 5126,
   "count": 84,
   "max": [
    1.2000000476837158,
    1.100000023841858,
    0.4000000059604645
   ],
   "min": [
    -1.2000000476837158,
    0,
    -0.4000000059604645
   ],
   "type": "VEC3"
  },
  {
   "bufferView": 41,
   "componentType": 5126,
   "count": 84,
   "type": "VEC3"
  },
  {
   "bufferView": 42,
   "componentType": 5123,
   "count": 144,
   "type": "SCALAR"
  },
  {
   "bufferView": 43,
   "componentType": 5126,
   "count": 24,
   "max": [
    1.25,
    1.100000023841858,
    0.44999998807907104
   ],
   "min": [
    -1.25,
    1.0499999523162842,
    0.20000000298023224
   ],
   "type": "VEC3"
  },
  {
   "bufferView": 44,
   "componentType": 5126,
   "count": 24,
   "type": "VEC3"
  },
  {
   "bufferView": 45,
   "componentType": 5126,
   "count": 48,
   "max": [
    0.6499999761581421,
    1.0499999523162842,
    -0.05000000074505806
   ],
   "min": [
    -0.5,
    0.7200000286102295,
    -0.10000000149011612
   ],
   "type": "VEC3"
  },
  {
   "bufferView": 46,
   "componentType": 5126,
   "count": 48,
   "type": "VEC3"
  },
  {
   "bufferView": 47,
   "componentType": 5126,
   "count": 24,
   "max": [
    0.30000001192092896,
    2,
    0.5
   ],
   "min": [
    -0.30000001192092896,
    0,
    -0.5
   ],
   "type": "VEC3"
  },
  {
   "bufferView": 48,
   "componentType": 5126,
   "count": 24,
   "type": "VEC3"
  },
  {
   "bufferView": 49,
   "componentType": 5126,
   "count": 240,
   "max": [
    0.25,
    1.7300000190734863,
    0.5099999904632568
   ],
   "min": [
    -0.25,
    0.15000000596046448,
    0.5
   ],
   "type": "VEC3"
  },
  {
   "bufferView": 50,
   "componentType": 5126,
   "count": 240,
   "type": "VEC3"
  },
  {
   "bufferView": 51,
   "componentType": 5123,
   "count": 360,
   "type": "SCALAR"
  },
  {
   "bufferView": 52,
   "componentType": 5126,
   "count": 24,
   "max": [
    0.8999999761581421,
    2,
    0.029999999329447746
   ],
   "min": [
    -0.8999999761581421,
    0.800000011920929,
    -0.029999999329447746
   ],
   "type": "VEC3"
  },
  {
   "bufferView": 53,
   "componentType": 5126,
   "count": 24,
   "type": "VEC3"
  },
  {
   "bufferView": 54,
   "componentType": 5126,
   "count": 96,
   "max": [
    0.8799999952316284,
    0.800000011920929,
    0.25
   ],
   "min": [
    -0.8799999952316284,
    0,
    -0.25
   ],
   "type": "VEC3"
  },
  {
   "bufferView": 55,
   "componentType": 5126,
   "count": 96,
   "type": "VEC3"
  },
  {
   "bufferView": 56,
   "componentType": 5126,
   "count": 110,
   "max": [
    11.979999542236328,
    9.800000190734863,
    6.980000019073486
   ],
   "min": [
    -11.979999542236328,
    8.800000190734863,
    -6.980000019073486
   ],
   "type": "VEC3"
  },
  {
   "bufferView": 57,
   "componentType": 5126,
   "count": 110,
   "type": "VEC3"
  },
  {
   "bufferView": 58,
   "componentType": 5123,
   "count": 216,
   "type": "SCALAR"
  },
  {
   "bufferView": 59,
   "componentType": 5126,
   "count": 24,
   "max": [
    14.800000190734863,
    40.400001525878906,
    4.800000190734863
   ],
   "min": [
    -0.800000011920929,
    40,
    -10.800000190734863
   ],
   "type": "VEC3"
  },
  {
   "bufferView": 60,
   "componentType": 5126,
   "count": 24,
   "type": "VEC3"
  },
  {
   "bufferView": 61,
   "componentType": 5126,
   "count": 48,
   "max": [
    8.5,
    45.29999923706055,
    -1.5
   ],
   "min": [
    5.5,
    40.400001525878906,
    -4.5
   ],
   "type": "VEC3"
  },
  {
   "bufferView": 62,
   "componentType": 5126,
   "count": 48,
   "type": "VEC3"
  },
  {
   "bufferView": 63,
   "componentType": 5126,
   "count": 168,
   "max": [
    9.25,
    39.45000076293945,
    -0.75
   ],
   "min": [
    7.349999904632568,
    -1.2000000476837158,
    -2.6500000953674316
   ],
   "type": "VEC3"
  },
  {
   "bufferView": 64,
   "componentType": 5126,
   "count": 168,
   "type": "VEC3"
  },
  {
   "bufferView": 65,
   "componentType": 5123,
   "count": 324,
   "type": "SCALAR"
  },
  {
   "bufferView": 66,
   "componentType": 5126,
   "count": 24,
   "max": [
    16,
    0.009999999776482582,
    12
   ],
   "min": [
    -16,
    -0.029999999329447746,
    -10
   ],
   "type": "VEC3"
  },
  {
   "bufferView": 67,
   "componentType": 5126,
   "count": 24,
   "type": "VEC3"
  },
  {
   "bufferView": 68,
   "componentType": 5126,
   "count": 216,
   "max": [
    7.550000190734863,
    0.012000000104308128,
    11.5
   ],
   "min": [
    -12.550000190734863,
    0,
    8
   ],
   "type": "VEC3"
  },
  {
   "bufferView": 69,
   "componentType": 5126,
   "count": 216,
   "type": "VEC3"
  },
  {
   "bufferView": 70,
   "componentType": 5123,
   "count": 324,
   "type": "SCALAR"
  },
  {
   "bufferView": 71,
   "componentType": 5126,
   "count": 4752,
   "max": [
    5.900000095367432,
    36,
    -1.350000023841858
   ],
   "min": [
    3.299999952316284,
    0,
    -6.699999809265137
   ],
   "type": "VEC3"
  },
  {
   "bufferView": 72,
   "componentType": 5126,
   "count": 4752,
   "type": "VEC3"
  },
  {
   "bufferView": 73,
   "componentType": 5123,
   "count": 7200,
   "type": "SCALAR"
  },
  {
   "bufferView": 74,
   "componentType": 5126,
   "count": 4608,
   "max": [
    5.900000095367432,
    36.005001068115234,
    -1.350000023841858
   ],
   "min": [
    3.299999952316284,
    0.16750000417232513,
    -4.590000152587891
   ],
   "type": "VEC3"
  },
  {
   "bufferView": 75,
   "componentType": 5126,
   "count": 4608,
   "type": "VEC3"
  },
  {
   "bufferView": 76,
   "componentType": 5123,
   "count": 6912,
   "type": "SCALAR"
  },
  {
   "bufferView": 77,
   "componentType": 5126,
   "count": 216,
   "max": [
    4.659999847412109,
    37.099998474121094,
    -1.2899999618530273
   ],
   "min": [
    3.299999952316284,
    0,
    -4.590000152587891
   ],
   "type": "VEC3"
  },
  {
   "bufferView": 78,
   "componentType": 5126,
   "count": 216,
   "type": "VEC3"
  },
  {
   "bufferView": 79,
   "componentType": 5123,
   "count": 324,
   "type": "SCALAR"
  },
  {
   "bufferView": 80,
   "componentType": 5126,
   "count": 24,
   "max": [
    0.654937744140625,
    1,
    0.4466724395751953
   ],
   "min": [
    -0.6549367904663086,
    0,
    -0.4466724991798401
   ],
   "type": "VEC3"
  },
  {
   "bufferView": 81,
   "componentType": 5126,
   "count": 24,
   "type": "VEC3"
  },
  {
   "bufferView": 82,
   "componentType": 5123,
   "count": 36,
   "type": "SCALAR"
  },
  {
   "bufferView": 83,
   "componentType": 5126,
   "count": 160,
   "max": [
    11.979999542236328,
    4.5,
    6.980000019073486
   ],
   "min": [
    -11.979999542236328,
    -0.20000000298023224,
    -6.980000019073486
   ],
   "type": "VEC3"
  },
  {
   "bufferView": 84,
   "componentType": 5126,
   "count": 160,
   "type": "VEC3"
  },
  {
   "bufferView": 85,
   "componentType": 5123,
   "count": 288,
   "type": "SCALAR"
  },
  {
   "bufferView": 86,
   "componentType": 5126,
   "count": 816,
   "max": [
    10.800000190734863,
    31.5,
    0.800000011920929
   ],
   "min": [
    3.200000047683716,
    8.800000190734863,
    -6.800000190734863
   ],
   "type": "VEC3"
  },
  {
   "bufferView": 87,
   "componentType": 5126,
   "count": 816,
   "type": "VEC3"
  },
  {
   "bufferView": 88,
   "componentType": 5123,
   "count": 1512,
   "type": "SCALAR"
  },
  {
   "bufferView": 89,
   "componentType": 5126,
   "count": 136,
   "max": [
    14,
    36,
    4
   ],
   "min": [
    0,
    35.79999923706055,
    -10
   ],
   "type": "VEC3"
  },
  {
   "bufferView": 90,
   "componentType": 5126,
   "count": 136,
   "type": "VEC3"
  },
  {
   "bufferView": 91,
   "componentType": 5123,
   "count": 252,
   "type": "SCALAR"
  },
  {
   "bufferView": 92,
   "componentType": 5126,
   "count": 88,
   "max": [
    11.800000190734863,
    4.300000190734863,
    1.059999942779541
   ],
   "min": [
    2.940000057220459,
    0,
    -6.800000190734863
   ],
   "type": "VEC3"
  },
  {
   "bufferView": 93,
   "componentType": 5126,
   "count": 88,
   "type": "VEC3"
  },
  {
   "bufferView": 94,
   "componentType": 5123,
   "count": 144,
   "type": "SCALAR"
  },
  {
   "bufferView": 95,
   "componentType": 5126,
   "count": 88,
   "max": [
    11.800000190734863,
    8.800000190734863,
    1.059999942779541
   ],
   "min": [
    2.940000057220459,
    4.5,
    -6.800000190734863
   ],
   "type": "VEC3"
  },
  {
   "bufferView": 96,
   "componentType": 5126,
   "count": 88,
   "type": "VEC3"
  },
  {
   "bufferView": 97,
   "componentType": 5126,
   "count": 104,
   "max": [
    11.300000190734863,
    39,
    1.2599999904632568
   ],
   "min": [
    2.700000047683716,
    36,
    1.1399999856948853
   ],
   "type": "VEC3"
  },
  {
   "bufferView": 98,
   "componentType": 5126,
   "count": 104,
   "type": "VEC3"
  },
  {
   "bufferView": 99,
   "componentType": 5123,
   "count": 180,
   "type": "SCALAR"
  }
 ],
 "bufferViews": [
  {
   "buffer": 0,
   "byteLength": 15984,
   "byteOffset": 0,
   "target": 34962
  },
  {
   "buffer": 0,
   "byteLength": 15984,
   "byteOffset": 15984,
   "target": 34962
  },
  {
   "buffer": 0,
   "byteLength": 5148,
   "byteOffset": 31968,
   "target": 34963
  },
  {
   "buffer": 0,
   "byteLength": 10296,
   "byteOffset": 37116,
   "target": 34962
  },
  {
   "buffer": 0,
   "byteLength": 10296,
   "byteOffset": 47412,
   "target": 34962
  },
  {
   "buffer": 0,
   "byteLength": 3264,
   "byteOffset": 57708,
   "target": 34963
  },
  {
   "buffer": 0,
   "byteLength": 4896,
   "byteOffset": 60972,
   "target": 34962
  },
  {
   "buffer": 0,
   "byteLength": 4896,
   "byteOffset": 65868,
   "target": 34962
  },
  {
   "buffer": 0,
   "byteLength": 1224,
   "byteOffset": 70764,
   "target": 34963
  },
  {
   "buffer": 0,
   "byteLength": 16320,
   "byteOffset": 71988,
   "target": 34962
  },
  {
   "buffer": 0,
   "byteLength": 16320,
   "byteOffset": 88308,
   "target": 34962
  },
  {
   "buffer": 0,
   "byteLength": 4896,
   "byteOffset": 104628,
   "target": 34963
  },
  {
   "buffer": 0,
   "byteLength": 288,
   "byteOffset": 109524,
   "target": 34962
  },
  {
   "buffer": 0,
   "byteLength": 288,
   "byteOffset": 109812,
   "target": 34962
  },
  {
   "buffer": 0,
   "byteLength": 72,
   "byteOffset": 110100,
   "target": 34963
  },
  {
   "buffer": 0,
   "byteLength": 288,
   "byteOffset": 110172,
   "target": 34962
  },
  {
   "buffer": 0,
   "byteLength": 288,
   "byteOffset": 110460,
   "target": 34962
  },
  {
   "buffer": 0,
   "byteLength": 576,
   "byteOffset": 110748,
   "target": 34962
  },
  {
   "buffer": 0,
   "byteLength": 576,
   "byteOffset": 111324,
   "target": 34962
  },
  {
   "buffer": 0,
   "byteLength": 144,
   "byteOffset": 111900,
   "target": 34963
  },
  {
   "buffer": 0,
   "byteLength": 288,
   "byteOffset": 112044,
   "target": 34962
  },
  {
   "buffer": 0,
   "byteLength": 288,
   "byteOffset": 112332,
   "target": 34962
  },
  {
   "buffer": 0,
   "byteLength": 576,
   "byteOffset": 112620,
   "target": 34962
  },
  {
   "buffer": 0,
   "byteLength": 576,
   "byteOffset": 113196,
   "target": 34962
  },
  {
   "buffer": 0,
   "byteLength": 288,
   "byteOffset": 113772,
   "target": 34962
  },
  {
   "buffer": 0,
   "byteLength": 288,
   "byteOffset": 114060,
   "target": 34962
  },
  {
   "buffer": 0,
   "byteLength": 288,
   "byteOffset": 114348,
   "target": 34962
  },
  {
   "buffer": 0,
   "byteLength": 288,
   "byteOffset": 114636,
   "target": 34962
  },
  {
   "buffer": 0,
   "byteLength": 864,
   "byteOffset": 114924,
   "target": 34962
  },
  {
   "buffer": 0,
   "byteLength": 864,
   "byteOffset": 115788,
   "target": 34962
  },
  {
   "buffer": 0,
   "byteLength": 216,
   "byteOffset": 116652,
   "target": 34963
  },
  {
   "buffer": 0,
   "byteLength": 288,
   "byteOffset": 116868,
   "target": 34962
  },
  {
   "buffer": 0,
   "byteLength": 288,
   "byteOffset": 117156,
   "target": 34962
  },
  {
   "buffer": 0,
   "byteLength": 1152,
   "byteOffset": 117444,
   "target": 34962
  },
  {
   "buffer": 0,
   "byteLength": 1152,
   "byteOffset": 118596,
   "target": 34962
  },
  {
   "buffer": 0,
   "byteLength": 288,
   "byteOffset": 119748,
   "target": 34963
  },
  {
   "buffer": 0,
   "byteLength": 288,
   "byteOffset": 120036,
   "target": 34962
  },
  {
   "buffer": 0,
   "byteLength": 288,
   "byteOffset": 120324,
   "target": 34962
  },
  {
   "buffer": 0,
   "byteLength": 576,
   "byteOffset": 120612,
   "target": 34962
  },
  {
   "buffer": 0,
   "byteLength": 576,
   "byteOffset": 121188,
   "target": 34962
  },
  {
   "buffer": 0,
   "byteLength": 1008,
   "byteOffset": 121764,
   "target": 34962
  },
  {
   "buffer": 0,
   "byteLength": 1008,
   "byteOffset": 122772,
   "target": 34962
  },
  {
   "buffer": 0,
   "byteLength": 288,
   "byteOffset": 123780,
   "target": 34963
  },
  {
   "buffer": 0,
   "byteLength": 288,
   "byteOffset": 124068,
   "target": 34962
  },
  {
   "buffer": 0,
   "byteLength": 288,
   "byteOffset": 124356,
   "target": 34962
  },
  {
   "buffer": 0,
   "byteLength": 576,
   "byteOffset": 124644,
   "target": 34962
  },
  {
   "buffer": 0,
   "byteLength": 576,
   "byteOffset": 125220,
   "target": 34962
  },
  {
   "buffer": 0,
   "byteLength": 288,
   "byteOffset": 125796,
   "target": 34962
  },
  {
   "buffer": 0,
   "byteLength": 288,
   "byteOffset": 126084,
   "target": 34962
  },
  {
   "buffer": 0,
   "byteLength": 2880,
   "byteOffset": 126372,
   "target": 34962
  },
  {
   "buffer": 0,
   "byteLength": 2880,
   "byteOffset": 129252,
   "target": 34962
  },
  {
   "buffer": 0,
   "byteLength": 720,
   "byteOffset": 132132,
   "target": 34963
  },
  {
   "buffer": 0,
   "byteLength": 288,
   "byteOffset": 132852,
   "target": 34962
  },
  {
   "buffer": 0,
   "byteLength": 288,
   "byteOffset": 133140,
   "target": 34962
  },
  {
   "buffer": 0,
   "byteLength": 1152,
   "byteOffset": 133428,
   "target": 34962
  },
  {
   "buffer": 0,
   "byteLength": 1152,
   "byteOffset": 134580,
   "target": 34962
  },
  {
   "buffer": 0,
   "byteLength": 1320,
   "byteOffset": 135732,
   "target": 34962
  },
  {
   "buffer": 0,
   "byteLength": 1320,
   "byteOffset": 137052,
   "target": 34962
  },
  {
   "buffer": 0,
   "byteLength": 432,
   "byteOffset": 138372,
   "target": 34963
  },
  {
   "buffer": 0,
   "byteLength": 288,
   "byteOffset": 138804,
   "target": 34962
  },
  {
   "buffer": 0,
   "byteLength": 288,
   "byteOffset": 139092,
   "target": 34962
  },
  {
   "buffer": 0,
   "byteLength": 576,
   "byteOffset": 139380,
   "target": 34962
  },
  {
   "buffer": 0,
   "byteLength": 576,
   "byteOffset": 139956,
   "target": 34962
  },
  {
   "buffer": 0,
   "byteLength": 2016,
   "byteOffset": 140532,
   "target": 34962
  },
  {
   "buffer": 0,
   "byteLength": 2016,
   "byteOffset": 142548,
   "target": 34962
  },
  {
   "buffer": 0,
   "byteLength": 648,
   "byteOffset": 144564,
   "target": 34963
  },
  {
   "buffer": 0,
   "byteLength": 288,
   "byteOffset": 145212,
   "target": 34962
  },
  {
   "buffer": 0,
   "byteLength": 288,
   "byteOffset": 145500,
   "target": 34962
  },
  {
   "buffer": 0,
   "byteLength": 2592,
   "byteOffset": 145788,
   "target": 34962
  },
  {
   "buffer": 0,
   "byteLength": 2592,
   "byteOffset": 148380,
   "target": 34962
  },
  {
   "buffer": 0,
   "byteLength": 648,
   "byteOffset": 150972,
   "target": 34963
  },
  {
   "buffer": 0,
   "byteLength": 57024,
   "byteOffset": 151620,
   "target": 34962
  },
  {
   "buffer": 0,
   "byteLength": 57024,
   "byteOffset": 208644,
   "target": 34962
  },
  {
   "buffer": 0,
   "byteLength": 14400,
   "byteOffset": 265668,
   "target": 34963
  },
  {
   "buffer": 0,
   "byteLength": 55296,
   "byteOffset": 280068,
   "target": 34962
  },
  {
   "buffer": 0,
   "byteLength": 55296,
   "byteOffset": 335364,
   "target": 34962
  },
  {
   "buffer": 0,
   "byteLength": 13824,
   "byteOffset": 390660,
   "target": 34963
  },
  {
   "buffer": 0,
   "byteLength": 2592,
   "byteOffset": 404484,
   "target": 34962
  },
  {
   "buffer": 0,
   "byteLength": 2592,
   "byteOffset": 407076,
   "target": 34962
  },
  {
   "buffer": 0,
   "byteLength": 648,
   "byteOffset": 409668,
   "target": 34963
  },
  {
   "buffer": 0,
   "byteLength": 288,
   "byteOffset": 410316,
   "target": 34962
  },
  {
   "buffer": 0,
   "byteLength": 288,
   "byteOffset": 410604,
   "target": 34962
  },
  {
   "buffer": 0,
   "byteLength": 72,
   "byteOffset": 410892,
   "target": 34963
  },
  {
   "buffer": 0,
   "byteLength": 1920,
   "byteOffset": 410964,
   "target": 34962
  },
  {
   "buffer": 0,
   "byteLength": 1920,
   "byteOffset": 412884,
   "target": 34962
  },
  {
   "buffer": 0,
   "byteLength": 576,
   "byteOffset": 414804,
   "target": 34963
  },
  {
   "buffer": 0,
   "byteLength": 9792,
   "byteOffset": 415380,
   "target": 34962
  },
  {
   "buffer": 0,
   "byteLength": 9792,
   "byteOffset": 425172,
   "target": 34962
  },
  {
   "buffer": 0,
   "byteLength": 3024,
   "byteOffset": 434964,
   "target": 34963
  },
  {
   "buffer": 0,
   "byteLength": 1632,
   "byteOffset": 437988,
   "target": 34962
  },
  {
   "buffer": 0,
   "byteLength": 1632,
   "byteOffset": 439620,
   "target": 34962
  },
  {
   "buffer": 0,
   "byteLength": 504,
   "byteOffset": 441252,
   "target": 34963
  },
  {
   "buffer": 0,
   "byteLength": 1056,
   "byteOffset": 441756,
   "target": 34962
  },
  {
   "buffer": 0,
   "byteLength": 1056,
   "byteOffset": 442812,
   "target": 34962
  },
  {
   "buffer": 0,
   "byteLength": 288,
   "byteOffset": 443868,
   "target": 34963
  },
  {
   "buffer": 0,
   "byteLength": 1056,
   "byteOffset": 444156,
   "target": 34962
  },
  {
   "buffer": 0,
   "byteLength": 1056,
   "byteOffset": 445212,
   "target": 34962
  },
  {
   "buffer": 0,
   "byteLength": 1248,
   "byteOffset": 446268,
   "target": 34962
  },
  {
   "buffer": 0,
   "byteLength": 1248,
   "byteOffset": 447516,
   "target": 34962
  },
  {
   "buffer": 0,
   "byteLength": 360,
   "byteOffset": 448764,
   "target": 34963
  }
 ],
 "buffers": [
  {
   "byteLength": 449124,
   "uri": "AirportControlTower.bin"
  }
 ]
}
