{
 "asset": {
  "generator": "Khronos glTF Blender I/O v5.2.40",
  "version": "2.0",
  "extras": {
   "exported_by": "blender/tools/export_building_kit.py",
   "module_scale": 1.0
  }
 },
 "extensionsUsed": [
  "KHR_materials_emissive_strength"
 ],
 "scene": 0,
 "scenes": [
  {
   "name": "BankSmall",
   "nodes": [
    0,
    1,
    2,
    3,
    4,
    5,
    6,
    7,
    8,
    9,
    10,
    11,
    12,
    13,
    14,
    15,
    16,
    17,
    18,
    19,
    20,
    21,
    22,
    23,
    24,
    25,
    26,
    27,
    28,
    29,
    30,
    31,
    32,
    33,
    34,
    35,
    36,
    37,
    38,
    39
   ]
  }
 ],
 "nodes": [
  {
   "extras": {
    "edit_note": "A mission building (blender/tools/build_interior_blends.py, seed blender/tools/interior_plans.py): a PLACEHOLDER shell and fit-out at its real Japanese size -- remodel freely. Keep the frame (origin = plot centre on the ground, street -Y), the floor levels, and move the Empties with what they belong to: DOOR_ (interior door, arrow OUT of the room), EXIT_ (outer door, arrow out of the building), LIFT_ (a lift: shaft floor centre at the low stop; stops / faces), MARK_ (a mission marker: kind weapon / spawn / cover ...). Keep 1.2 m clear both sides of every door. After editing: tools/building_kit/build_buildings.sh. \u9280\u884c (small): a one-storey branch -- the ATM corner with its own door, the \u98a8\u9664\u5ba4, the lobby (ticket machine, sofas), the teller counter with its glass screen, the back office, the vault (0.45 m walls, a steel door), the staff room and WC, the \u901a\u7528\u53e3 staff door at the back; a customer \u591a\u76ee\u7684\u30c8\u30a4\u30ec (accessible restroom) off the lobby."
   },
   "mesh": 0,
   "name": "Facade"
  },
  {
   "extras": {
    "edit_note": "A mission building (blender/tools/build_interior_blends.py, seed blender/tools/interior_plans.py): a PLACEHOLDER shell and fit-out at its real Japanese size -- remodel freely. Keep the frame (origin = plot centre on the ground, street -Y), the floor levels, and move the Empties with what they belong to: DOOR_ (interior door, arrow OUT of the room), EXIT_ (outer door, arrow out of the building), LIFT_ (a lift: shaft floor centre at the low stop; stops / faces), MARK_ (a mission marker: kind weapon / spawn / cover ...). Keep 1.2 m clear both sides of every door. After editing: tools/building_kit/build_buildings.sh. \u9280\u884c (small): a one-storey branch -- the ATM corner with its own door, the \u98a8\u9664\u5ba4, the lobby (ticket machine, sofas), the teller counter with its glass screen, the back office, the vault (0.45 m walls, a steel door), the staff room and WC, the \u901a\u7528\u53e3 staff door at the back; a customer \u591a\u76ee\u7684\u30c8\u30a4\u30ec (accessible restroom) off the lobby."
   },
   "mesh": 1,
   "name": "Furniture"
  },
  {
   "extras": {
    "edit_note": "A mission building (blender/tools/build_interior_blends.py, seed blender/tools/interior_plans.py): a PLACEHOLDER shell and fit-out at its real Japanese size -- remodel freely. Keep the frame (origin = plot centre on the ground, street -Y), the floor levels, and move the Empties with what they belong to: DOOR_ (interior door, arrow OUT of the room), EXIT_ (outer door, arrow out of the building), LIFT_ (a lift: shaft floor centre at the low stop; stops / faces), MARK_ (a mission marker: kind weapon / spawn / cover ...). Keep 1.2 m clear both sides of every door. After editing: tools/building_kit/build_buildings.sh. \u9280\u884c (small): a one-storey branch -- the ATM corner with its own door, the \u98a8\u9664\u5ba4, the lobby (ticket machine, sofas), the teller counter with its glass screen, the back office, the vault (0.45 m walls, a steel door), the staff room and WC, the \u901a\u7528\u53e3 staff door at the back; a customer \u591a\u76ee\u7684\u30c8\u30a4\u30ec (accessible restroom) off the lobby."
   },
   "mesh": 2,
   "name": "Glazing"
  },
  {
   "extras": {
    "edit_note": "A mission building (blender/tools/build_interior_blends.py, seed blender/tools/interior_plans.py): a PLACEHOLDER shell and fit-out at its real Japanese size -- remodel freely. Keep the frame (origin = plot centre on the ground, street -Y), the floor levels, and move the Empties with what they belong to: DOOR_ (interior door, arrow OUT of the room), EXIT_ (outer door, arrow out of the building), LIFT_ (a lift: shaft floor centre at the low stop; stops / faces), MARK_ (a mission marker: kind weapon / spawn / cover ...). Keep 1.2 m clear both sides of every door. After editing: tools/building_kit/build_buildings.sh. \u9280\u884c (small): a one-storey branch -- the ATM corner with its own door, the \u98a8\u9664\u5ba4, the lobby (ticket machine, sofas), the teller counter with its glass screen, the back office, the vault (0.45 m walls, a steel door), the staff room and WC, the \u901a\u7528\u53e3 staff door at the back; a customer \u591a\u76ee\u7684\u30c8\u30a4\u30ec (accessible restroom) off the lobby."
   },
   "mesh": 3,
   "name": "Hosp_WaitingBench",
   "translation": [
    3.799999952316284,
    0,
    3.4000000953674316
   ]
  },
  {
   "extras": {
    "edit_note": "A mission building (blender/tools/build_interior_blends.py, seed blender/tools/interior_plans.py): a PLACEHOLDER shell and fit-out at its real Japanese size -- remodel freely. Keep the frame (origin = plot centre on the ground, street -Y), the floor levels, and move the Empties with what they belong to: DOOR_ (interior door, arrow OUT of the room), EXIT_ (outer door, arrow out of the building), LIFT_ (a lift: shaft floor centre at the low stop; stops / faces), MARK_ (a mission marker: kind weapon / spawn / cover ...). Keep 1.2 m clear both sides of every door. After editing: tools/building_kit/build_buildings.sh. \u9280\u884c (small): a one-storey branch -- the ATM corner with its own door, the \u98a8\u9664\u5ba4, the lobby (ticket machine, sofas), the teller counter with its glass screen, the back office, the vault (0.45 m walls, a steel door), the staff room and WC, the \u901a\u7528\u53e3 staff door at the back; a customer \u591a\u76ee\u7684\u30c8\u30a4\u30ec (accessible restroom) off the lobby."
   },
   "mesh": 3,
   "name": "Hosp_WaitingBench.001",
   "rotation": [
    0,
    -1,
    0,
    4.371138828673793e-08
   ],
   "translation": [
    1.5,
    0,
    1.2999999523162842
   ]
  },
  {
   "extras": {
    "edit_note": "A mission building (blender/tools/build_interior_blends.py, seed blender/tools/interior_plans.py): a PLACEHOLDER shell and fit-out at its real Japanese size -- remodel freely. Keep the frame (origin = plot centre on the ground, street -Y), the floor levels, and move the Empties with what they belong to: DOOR_ (interior door, arrow OUT of the room), EXIT_ (outer door, arrow out of the building), LIFT_ (a lift: shaft floor centre at the low stop; stops / faces), MARK_ (a mission marker: kind weapon / spawn / cover ...). Keep 1.2 m clear both sides of every door. After editing: tools/building_kit/build_buildings.sh. \u9280\u884c (small): a one-storey branch -- the ATM corner with its own door, the \u98a8\u9664\u5ba4, the lobby (ticket machine, sofas), the teller counter with its glass screen, the back office, the vault (0.45 m walls, a steel door), the staff room and WC, the \u901a\u7528\u53e3 staff door at the back; a customer \u591a\u76ee\u7684\u30c8\u30a4\u30ec (accessible restroom) off the lobby."
   },
   "mesh": 4,
   "name": "Office_Chair",
   "translation": [
    -3.5,
    0,
    -1.25
   ]
  },
  {
   "extras": {
    "edit_note": "A mission building (blender/tools/build_interior_blends.py, seed blender/tools/interior_plans.py): a PLACEHOLDER shell and fit-out at its real Japanese size -- remodel freely. Keep the frame (origin = plot centre on the ground, street -Y), the floor levels, and move the Empties with what they belong to: DOOR_ (interior door, arrow OUT of the room), EXIT_ (outer door, arrow out of the building), LIFT_ (a lift: shaft floor centre at the low stop; stops / faces), MARK_ (a mission marker: kind weapon / spawn / cover ...). Keep 1.2 m clear both sides of every door. After editing: tools/building_kit/build_buildings.sh. \u9280\u884c (small): a one-storey branch -- the ATM corner with its own door, the \u98a8\u9664\u5ba4, the lobby (ticket machine, sofas), the teller counter with its glass screen, the back office, the vault (0.45 m walls, a steel door), the staff room and WC, the \u901a\u7528\u53e3 staff door at the back; a customer \u591a\u76ee\u7684\u30c8\u30a4\u30ec (accessible restroom) off the lobby."
   },
   "mesh": 4,
   "name": "Office_Chair.001",
   "translation": [
    -1.7000000476837158,
    0,
    -1.25
   ]
  },
  {
   "extras": {
    "edit_note": "A mission building (blender/tools/build_interior_blends.py, seed blender/tools/interior_plans.py): a PLACEHOLDER shell and fit-out at its real Japanese size -- remodel freely. Keep the frame (origin = plot centre on the ground, street -Y), the floor levels, and move the Empties with what they belong to: DOOR_ (interior door, arrow OUT of the room), EXIT_ (outer door, arrow out of the building), LIFT_ (a lift: shaft floor centre at the low stop; stops / faces), MARK_ (a mission marker: kind weapon / spawn / cover ...). Keep 1.2 m clear both sides of every door. After editing: tools/building_kit/build_buildings.sh. \u9280\u884c (small): a one-storey branch -- the ATM corner with its own door, the \u98a8\u9664\u5ba4, the lobby (ticket machine, sofas), the teller counter with its glass screen, the back office, the vault (0.45 m walls, a steel door), the staff room and WC, the \u901a\u7528\u53e3 staff door at the back; a customer \u591a\u76ee\u7684\u30c8\u30a4\u30ec (accessible restroom) off the lobby."
   },
   "mesh": 4,
   "name": "Office_Chair.002",
   "translation": [
    0.10000000149011612,
    0,
    -1.25
   ]
  },
  {
   "extras": {
    "edit_note": "A mission building (blender/tools/build_interior_blends.py, seed blender/tools/interior_plans.py): a PLACEHOLDER shell and fit-out at its real Japanese size -- remodel freely. Keep the frame (origin = plot centre on the ground, street -Y), the floor levels, and move the Empties with what they belong to: DOOR_ (interior door, arrow OUT of the room), EXIT_ (outer door, arrow out of the building), LIFT_ (a lift: shaft floor centre at the low stop; stops / faces), MARK_ (a mission marker: kind weapon / spawn / cover ...). Keep 1.2 m clear both sides of every door. After editing: tools/building_kit/build_buildings.sh. \u9280\u884c (small): a one-storey branch -- the ATM corner with its own door, the \u98a8\u9664\u5ba4, the lobby (ticket machine, sofas), the teller counter with its glass screen, the back office, the vault (0.45 m walls, a steel door), the staff room and WC, the \u901a\u7528\u53e3 staff door at the back; a customer \u591a\u76ee\u7684\u30c8\u30a4\u30ec (accessible restroom) off the lobby."
   },
   "mesh": 4,
   "name": "Office_Chair.003",
   "translation": [
    1.899999976158142,
    0,
    -1.25
   ]
  },
  {
   "extras": {
    "edit_note": "A mission building (blender/tools/build_interior_blends.py, seed blender/tools/interior_plans.py): a PLACEHOLDER shell and fit-out at its real Japanese size -- remodel freely. Keep the frame (origin = plot centre on the ground, street -Y), the floor levels, and move the Empties with what they belong to: DOOR_ (interior door, arrow OUT of the room), EXIT_ (outer door, arrow out of the building), LIFT_ (a lift: shaft floor centre at the low stop; stops / faces), MARK_ (a mission marker: kind weapon / spawn / cover ...). Keep 1.2 m clear both sides of every door. After editing: tools/building_kit/build_buildings.sh. \u9280\u884c (small): a one-storey branch -- the ATM corner with its own door, the \u98a8\u9664\u5ba4, the lobby (ticket machine, sofas), the teller counter with its glass screen, the back office, the vault (0.45 m walls, a steel door), the staff room and WC, the \u901a\u7528\u53e3 staff door at the back; a customer \u591a\u76ee\u7684\u30c8\u30a4\u30ec (accessible restroom) off the lobby."
   },
   "mesh": 4,
   "name": "Office_Chair.004",
   "translation": [
    3.700000047683716,
    0,
    -1.25
   ]
  },
  {
   "extras": {
    "edit_note": "A mission building (blender/tools/build_interior_blends.py, seed blender/tools/interior_plans.py): a PLACEHOLDER shell and fit-out at its real Japanese size -- remodel freely. Keep the frame (origin = plot centre on the ground, street -Y), the floor levels, and move the Empties with what they belong to: DOOR_ (interior door, arrow OUT of the room), EXIT_ (outer door, arrow out of the building), LIFT_ (a lift: shaft floor centre at the low stop; stops / faces), MARK_ (a mission marker: kind weapon / spawn / cover ...). Keep 1.2 m clear both sides of every door. After editing: tools/building_kit/build_buildings.sh. \u9280\u884c (small): a one-storey branch -- the ATM corner with its own door, the \u98a8\u9664\u5ba4, the lobby (ticket machine, sofas), the teller counter with its glass screen, the back office, the vault (0.45 m walls, a steel door), the staff room and WC, the \u901a\u7528\u53e3 staff door at the back; a customer \u591a\u76ee\u7684\u30c8\u30a4\u30ec (accessible restroom) off the lobby."
   },
   "mesh": 4,
   "name": "Office_Chair.005",
   "translation": [
    -3.200000047683716,
    0,
    -1.75
   ]
  },
  {
   "extras": {
    "edit_note": "A mission building (blender/tools/build_interior_blends.py, seed blender/tools/interior_plans.py): a PLACEHOLDER shell and fit-out at its real Japanese size -- remodel freely. Keep the frame (origin = plot centre on the ground, street -Y), the floor levels, and move the Empties with what they belong to: DOOR_ (interior door, arrow OUT of the room), EXIT_ (outer door, arrow out of the building), LIFT_ (a lift: shaft floor centre at the low stop; stops / faces), MARK_ (a mission marker: kind weapon / spawn / cover ...). Keep 1.2 m clear both sides of every door. After editing: tools/building_kit/build_buildings.sh. \u9280\u884c (small): a one-storey branch -- the ATM corner with its own door, the \u98a8\u9664\u5ba4, the lobby (ticket machine, sofas), the teller counter with its glass screen, the back office, the vault (0.45 m walls, a steel door), the staff room and WC, the \u901a\u7528\u53e3 staff door at the back; a customer \u591a\u76ee\u7684\u30c8\u30a4\u30ec (accessible restroom) off the lobby."
   },
   "mesh": 4,
   "name": "Office_Chair.006",
   "rotation": [
    0,
    -1,
    0,
    4.371138828673793e-08
   ],
   "translation": [
    -3.200000047683716,
    0,
    -3.450000047683716
   ]
  },
  {
   "extras": {
    "edit_note": "A mission building (blender/tools/build_interior_blends.py, seed blender/tools/interior_plans.py): a PLACEHOLDER shell and fit-out at its real Japanese size -- remodel freely. Keep the frame (origin = plot centre on the ground, street -Y), the floor levels, and move the Empties with what they belong to: DOOR_ (interior door, arrow OUT of the room), EXIT_ (outer door, arrow out of the building), LIFT_ (a lift: shaft floor centre at the low stop; stops / faces), MARK_ (a mission marker: kind weapon / spawn / cover ...). Keep 1.2 m clear both sides of every door. After editing: tools/building_kit/build_buildings.sh. \u9280\u884c (small): a one-storey branch -- the ATM corner with its own door, the \u98a8\u9664\u5ba4, the lobby (ticket machine, sofas), the teller counter with its glass screen, the back office, the vault (0.45 m walls, a steel door), the staff room and WC, the \u901a\u7528\u53e3 staff door at the back; a customer \u591a\u76ee\u7684\u30c8\u30a4\u30ec (accessible restroom) off the lobby."
   },
   "mesh": 4,
   "name": "Office_Chair.007",
   "translation": [
    -2,
    0,
    -1.75
   ]
  },
  {
   "extras": {
    "edit_note": "A mission building (blender/tools/build_interior_blends.py, seed blender/tools/interior_plans.py): a PLACEHOLDER shell and fit-out at its real Japanese size -- remodel freely. Keep the frame (origin = plot centre on the ground, street -Y), the floor levels, and move the Empties with what they belong to: DOOR_ (interior door, arrow OUT of the room), EXIT_ (outer door, arrow out of the building), LIFT_ (a lift: shaft floor centre at the low stop; stops / faces), MARK_ (a mission marker: kind weapon / spawn / cover ...). Keep 1.2 m clear both sides of every door. After editing: tools/building_kit/build_buildings.sh. \u9280\u884c (small): a one-storey branch -- the ATM corner with its own door, the \u98a8\u9664\u5ba4, the lobby (ticket machine, sofas), the teller counter with its glass screen, the back office, the vault (0.45 m walls, a steel door), the staff room and WC, the \u901a\u7528\u53e3 staff door at the back; a customer \u591a\u76ee\u7684\u30c8\u30a4\u30ec (accessible restroom) off the lobby."
   },
   "mesh": 4,
   "name": "Office_Chair.008",
   "rotation": [
    0,
    -1,
    0,
    4.371138828673793e-08
   ],
   "translation": [
    -2,
    0,
    -3.450000047683716
   ]
  },
  {
   "extras": {
    "edit_note": "A mission building (blender/tools/build_interior_blends.py, seed blender/tools/interior_plans.py): a PLACEHOLDER shell and fit-out at its real Japanese size -- remodel freely. Keep the frame (origin = plot centre on the ground, street -Y), the floor levels, and move the Empties with what they belong to: DOOR_ (interior door, arrow OUT of the room), EXIT_ (outer door, arrow out of the building), LIFT_ (a lift: shaft floor centre at the low stop; stops / faces), MARK_ (a mission marker: kind weapon / spawn / cover ...). Keep 1.2 m clear both sides of every door. After editing: tools/building_kit/build_buildings.sh. \u9280\u884c (small): a one-storey branch -- the ATM corner with its own door, the \u98a8\u9664\u5ba4, the lobby (ticket machine, sofas), the teller counter with its glass screen, the back office, the vault (0.45 m walls, a steel door), the staff room and WC, the \u901a\u7528\u53e3 staff door at the back; a customer \u591a\u76ee\u7684\u30c8\u30a4\u30ec (accessible restroom) off the lobby."
   },
   "mesh": 4,
   "name": "Office_Chair.009",
   "translation": [
    0,
    0,
    -1.75
   ]
  },
  {
   "extras": {
    "edit_note": "A mission building (blender/tools/build_interior_blends.py, seed blender/tools/interior_plans.py): a PLACEHOLDER shell and fit-out at its real Japanese size -- remodel freely. Keep the frame (origin = plot centre on the ground, street -Y), the floor levels, and move the Empties with what they belong to: DOOR_ (interior door, arrow OUT of the room), EXIT_ (outer door, arrow out of the building), LIFT_ (a lift: shaft floor centre at the low stop; stops / faces), MARK_ (a mission marker: kind weapon / spawn / cover ...). Keep 1.2 m clear both sides of every door. After editing: tools/building_kit/build_buildings.sh. \u9280\u884c (small): a one-storey branch -- the ATM corner with its own door, the \u98a8\u9664\u5ba4, the lobby (ticket machine, sofas), the teller counter with its glass screen, the back office, the vault (0.45 m walls, a steel door), the staff room and WC, the \u901a\u7528\u53e3 staff door at the back; a customer \u591a\u76ee\u7684\u30c8\u30a4\u30ec (accessible restroom) off the lobby."
   },
   "mesh": 4,
   "name": "Office_Chair.010",
   "rotation": [
    0,
    -1,
    0,
    4.371138828673793e-08
   ],
   "translation": [
    0,
    0,
    -3.450000047683716
   ]
  },
  {
   "extras": {
    "edit_note": "A mission building (blender/tools/build_interior_blends.py, seed blender/tools/interior_plans.py): a PLACEHOLDER shell and fit-out at its real Japanese size -- remodel freely. Keep the frame (origin = plot centre on the ground, street -Y), the floor levels, and move the Empties with what they belong to: DOOR_ (interior door, arrow OUT of the room), EXIT_ (outer door, arrow out of the building), LIFT_ (a lift: shaft floor centre at the low stop; stops / faces), MARK_ (a mission marker: kind weapon / spawn / cover ...). Keep 1.2 m clear both sides of every door. After editing: tools/building_kit/build_buildings.sh. \u9280\u884c (small): a one-storey branch -- the ATM corner with its own door, the \u98a8\u9664\u5ba4, the lobby (ticket machine, sofas), the teller counter with its glass screen, the back office, the vault (0.45 m walls, a steel door), the staff room and WC, the \u901a\u7528\u53e3 staff door at the back; a customer \u591a\u76ee\u7684\u30c8\u30a4\u30ec (accessible restroom) off the lobby."
   },
   "mesh": 4,
   "name": "Office_Chair.011",
   "translation": [
    1.2000000476837158,
    0,
    -1.75
   ]
  },
  {
   "extras": {
    "edit_note": "A mission building (blender/tools/build_interior_blends.py, seed blender/tools/interior_plans.py): a PLACEHOLDER shell and fit-out at its real Japanese size -- remodel freely. Keep the frame (origin = plot centre on the ground, street -Y), the floor levels, and move the Empties with what they belong to: DOOR_ (interior door, arrow OUT of the room), EXIT_ (outer door, arrow out of the building), LIFT_ (a lift: shaft floor centre at the low stop; stops / faces), MARK_ (a mission marker: kind weapon / spawn / cover ...). Keep 1.2 m clear both sides of every door. After editing: tools/building_kit/build_buildings.sh. \u9280\u884c (small): a one-storey branch -- the ATM corner with its own door, the \u98a8\u9664\u5ba4, the lobby (ticket machine, sofas), the teller counter with its glass screen, the back office, the vault (0.45 m walls, a steel door), the staff room and WC, the \u901a\u7528\u53e3 staff door at the back; a customer \u591a\u76ee\u7684\u30c8\u30a4\u30ec (accessible restroom) off the lobby."
   },
   "mesh": 4,
   "name": "Office_Chair.012",
   "rotation": [
    0,
    -1,
    0,
    4.371138828673793e-08
   ],
   "translation": [
    1.2000000476837158,
    0,
    -3.450000047683716
   ]
  },
  {
   "extras": {
    "edit_note": "A mission building (blender/tools/build_interior_blends.py, seed blender/tools/interior_plans.py): a PLACEHOLDER shell and fit-out at its real Japanese size -- remodel freely. Keep the frame (origin = plot centre on the ground, street -Y), the floor levels, and move the Empties with what they belong to: DOOR_ (interior door, arrow OUT of the room), EXIT_ (outer door, arrow out of the building), LIFT_ (a lift: shaft floor centre at the low stop; stops / faces), MARK_ (a mission marker: kind weapon / spawn / cover ...). Keep 1.2 m clear both sides of every door. After editing: tools/building_kit/build_buildings.sh. \u9280\u884c (small): a one-storey branch -- the ATM corner with its own door, the \u98a8\u9664\u5ba4, the lobby (ticket machine, sofas), the teller counter with its glass screen, the back office, the vault (0.45 m walls, a steel door), the staff room and WC, the \u901a\u7528\u53e3 staff door at the back; a customer \u591a\u76ee\u7684\u30c8\u30a4\u30ec (accessible restroom) off the lobby."
   },
   "mesh": 4,
   "name": "Office_Chair.013",
   "rotation": [
    0,
    -1,
    0,
    4.371138828673793e-08
   ],
   "translation": [
    1.399999976158142,
    0,
    -4.349999904632568
   ]
  },
  {
   "extras": {
    "edit_note": "A mission building (blender/tools/build_interior_blends.py, seed blender/tools/interior_plans.py): a PLACEHOLDER shell and fit-out at its real Japanese size -- remodel freely. Keep the frame (origin = plot centre on the ground, street -Y), the floor levels, and move the Empties with what they belong to: DOOR_ (interior door, arrow OUT of the room), EXIT_ (outer door, arrow out of the building), LIFT_ (a lift: shaft floor centre at the low stop; stops / faces), MARK_ (a mission marker: kind weapon / spawn / cover ...). Keep 1.2 m clear both sides of every door. After editing: tools/building_kit/build_buildings.sh. \u9280\u884c (small): a one-storey branch -- the ATM corner with its own door, the \u98a8\u9664\u5ba4, the lobby (ticket machine, sofas), the teller counter with its glass screen, the back office, the vault (0.45 m walls, a steel door), the staff room and WC, the \u901a\u7528\u53e3 staff door at the back; a customer \u591a\u76ee\u7684\u30c8\u30a4\u30ec (accessible restroom) off the lobby."
   },
   "mesh": 5,
   "name": "Office_Desk",
   "translation": [
    1.399999976158142,
    0,
    -5
   ]
  },
  {
   "extras": {
    "edit_note": "A mission building (blender/tools/build_interior_blends.py, seed blender/tools/interior_plans.py): a PLACEHOLDER shell and fit-out at its real Japanese size -- remodel freely. Keep the frame (origin = plot centre on the ground, street -Y), the floor levels, and move the Empties with what they belong to: DOOR_ (interior door, arrow OUT of the room), EXIT_ (outer door, arrow out of the building), LIFT_ (a lift: shaft floor centre at the low stop; stops / faces), MARK_ (a mission marker: kind weapon / spawn / cover ...). Keep 1.2 m clear both sides of every door. After editing: tools/building_kit/build_buildings.sh. \u9280\u884c (small): a one-storey branch -- the ATM corner with its own door, the \u98a8\u9664\u5ba4, the lobby (ticket machine, sofas), the teller counter with its glass screen, the back office, the vault (0.45 m walls, a steel door), the staff room and WC, the \u901a\u7528\u53e3 staff door at the back; a customer \u591a\u76ee\u7684\u30c8\u30a4\u30ec (accessible restroom) off the lobby."
   },
   "mesh": 6,
   "name": "Office_DeskIsland",
   "translation": [
    -2.5999999046325684,
    0,
    -2.5999999046325684
   ]
  },
  {
   "extras": {
    "edit_note": "A mission building (blender/tools/build_interior_blends.py, seed blender/tools/interior_plans.py): a PLACEHOLDER shell and fit-out at its real Japanese size -- remodel freely. Keep the frame (origin = plot centre on the ground, street -Y), the floor levels, and move the Empties with what they belong to: DOOR_ (interior door, arrow OUT of the room), EXIT_ (outer door, arrow out of the building), LIFT_ (a lift: shaft floor centre at the low stop; stops / faces), MARK_ (a mission marker: kind weapon / spawn / cover ...). Keep 1.2 m clear both sides of every door. After editing: tools/building_kit/build_buildings.sh. \u9280\u884c (small): a one-storey branch -- the ATM corner with its own door, the \u98a8\u9664\u5ba4, the lobby (ticket machine, sofas), the teller counter with its glass screen, the back office, the vault (0.45 m walls, a steel door), the staff room and WC, the \u901a\u7528\u53e3 staff door at the back; a customer \u591a\u76ee\u7684\u30c8\u30a4\u30ec (accessible restroom) off the lobby."
   },
   "mesh": 6,
   "name": "Office_DeskIsland.001",
   "translation": [
    0.6000000238418579,
    0,
    -2.5999999046325684
   ]
  },
  {
   "extras": {
    "edit_note": "A mission building (blender/tools/build_interior_blends.py, seed blender/tools/interior_plans.py): a PLACEHOLDER shell and fit-out at its real Japanese size -- remodel freely. Keep the frame (origin = plot centre on the ground, street -Y), the floor levels, and move the Empties with what they belong to: DOOR_ (interior door, arrow OUT of the room), EXIT_ (outer door, arrow out of the building), LIFT_ (a lift: shaft floor centre at the low stop; stops / faces), MARK_ (a mission marker: kind weapon / spawn / cover ...). Keep 1.2 m clear both sides of every door. After editing: tools/building_kit/build_buildings.sh. \u9280\u884c (small): a one-storey branch -- the ATM corner with its own door, the \u98a8\u9664\u5ba4, the lobby (ticket machine, sofas), the teller counter with its glass screen, the back office, the vault (0.45 m walls, a steel door), the staff room and WC, the \u901a\u7528\u53e3 staff door at the back; a customer \u591a\u76ee\u7684\u30c8\u30a4\u30ec (accessible restroom) off the lobby."
   },
   "mesh": 7,
   "name": "Office_Locker",
   "translation": [
    -6.300000190734863,
    0,
    -5.5
   ]
  },
  {
   "extras": {
    "edit_note": "A mission building (blender/tools/build_interior_blends.py, seed blender/tools/interior_plans.py): a PLACEHOLDER shell and fit-out at its real Japanese size -- remodel freely. Keep the frame (origin = plot centre on the ground, street -Y), the floor levels, and move the Empties with what they belong to: DOOR_ (interior door, arrow OUT of the room), EXIT_ (outer door, arrow out of the building), LIFT_ (a lift: shaft floor centre at the low stop; stops / faces), MARK_ (a mission marker: kind weapon / spawn / cover ...). Keep 1.2 m clear both sides of every door. After editing: tools/building_kit/build_buildings.sh. \u9280\u884c (small): a one-storey branch -- the ATM corner with its own door, the \u98a8\u9664\u5ba4, the lobby (ticket machine, sofas), the teller counter with its glass screen, the back office, the vault (0.45 m walls, a steel door), the staff room and WC, the \u901a\u7528\u53e3 staff door at the back; a customer \u591a\u76ee\u7684\u30c8\u30a4\u30ec (accessible restroom) off the lobby."
   },
   "mesh": 7,
   "name": "Office_Locker.001",
   "translation": [
    -5.349999904632568,
    0,
    -5.5
   ]
  },
  {
   "extras": {
    "edit_note": "A mission building (blender/tools/build_interior_blends.py, seed blender/tools/interior_plans.py): a PLACEHOLDER shell and fit-out at its real Japanese size -- remodel freely. Keep the frame (origin = plot centre on the ground, street -Y), the floor levels, and move the Empties with what they belong to: DOOR_ (interior door, arrow OUT of the room), EXIT_ (outer door, arrow out of the building), LIFT_ (a lift: shaft floor centre at the low stop; stops / faces), MARK_ (a mission marker: kind weapon / spawn / cover ...). Keep 1.2 m clear both sides of every door. After editing: tools/building_kit/build_buildings.sh. \u9280\u884c (small): a one-storey branch -- the ATM corner with its own door, the \u98a8\u9664\u5ba4, the lobby (ticket machine, sofas), the teller counter with its glass screen, the back office, the vault (0.45 m walls, a steel door), the staff room and WC, the \u901a\u7528\u53e3 staff door at the back; a customer \u591a\u76ee\u7684\u30c8\u30a4\u30ec (accessible restroom) off the lobby."
   },
   "mesh": 8,
   "name": "Office_Safe",
   "translation": [
    5.900000095367432,
    0,
    -5.300000190734863
   ]
  },
  {
   "extras": {
    "edit_note": "A mission building (blender/tools/build_interior_blends.py, seed blender/tools/interior_plans.py): a PLACEHOLDER shell and fit-out at its real Japanese size -- remodel freely. Keep the frame (origin = plot centre on the ground, street -Y), the floor levels, and move the Empties with what they belong to: DOOR_ (interior door, arrow OUT of the room), EXIT_ (outer door, arrow out of the building), LIFT_ (a lift: shaft floor centre at the low stop; stops / faces), MARK_ (a mission marker: kind weapon / spawn / cover ...). Keep 1.2 m clear both sides of every door. After editing: tools/building_kit/build_buildings.sh. \u9280\u884c (small): a one-storey branch -- the ATM corner with its own door, the \u98a8\u9664\u5ba4, the lobby (ticket machine, sofas), the teller counter with its glass screen, the back office, the vault (0.45 m walls, a steel door), the staff room and WC, the \u901a\u7528\u53e3 staff door at the back; a customer \u591a\u76ee\u7684\u30c8\u30a4\u30ec (accessible restroom) off the lobby."
   },
   "mesh": 8,
   "name": "Office_Safe.001",
   "translation": [
    4.900000095367432,
    0,
    -5.300000190734863
   ]
  },
  {
   "extras": {
    "edit_note": "A mission building (blender/tools/build_interior_blends.py, seed blender/tools/interior_plans.py): a PLACEHOLDER shell and fit-out at its real Japanese size -- remodel freely. Keep the frame (origin = plot centre on the ground, street -Y), the floor levels, and move the Empties with what they belong to: DOOR_ (interior door, arrow OUT of the room), EXIT_ (outer door, arrow out of the building), LIFT_ (a lift: shaft floor centre at the low stop; stops / faces), MARK_ (a mission marker: kind weapon / spawn / cover ...). Keep 1.2 m clear both sides of every door. After editing: tools/building_kit/build_buildings.sh. \u9280\u884c (small): a one-storey branch -- the ATM corner with its own door, the \u98a8\u9664\u5ba4, the lobby (ticket machine, sofas), the teller counter with its glass screen, the back office, the vault (0.45 m walls, a steel door), the staff room and WC, the \u901a\u7528\u53e3 staff door at the back; a customer \u591a\u76ee\u7684\u30c8\u30a4\u30ec (accessible restroom) off the lobby."
   },
   "mesh": 9,
   "name": "Roof"
  },
  {
   "extras": {
    "edit_note": "A mission building (blender/tools/build_interior_blends.py, seed blender/tools/interior_plans.py): a PLACEHOLDER shell and fit-out at its real Japanese size -- remodel freely. Keep the frame (origin = plot centre on the ground, street -Y), the floor levels, and move the Empties with what they belong to: DOOR_ (interior door, arrow OUT of the room), EXIT_ (outer door, arrow out of the building), LIFT_ (a lift: shaft floor centre at the low stop; stops / faces), MARK_ (a mission marker: kind weapon / spawn / cover ...). Keep 1.2 m clear both sides of every door. After editing: tools/building_kit/build_buildings.sh. \u9280\u884c (small): a one-storey branch -- the ATM corner with its own door, the \u98a8\u9664\u5ba4, the lobby (ticket machine, sofas), the teller counter with its glass screen, the back office, the vault (0.45 m walls, a steel door), the staff room and WC, the \u901a\u7528\u53e3 staff door at the back; a customer \u591a\u76ee\u7684\u30c8\u30a4\u30ec (accessible restroom) off the lobby."
   },
   "mesh": 10,
   "name": "Shop_ATM",
   "translation": [
    -6,
    0,
    2.950000047683716
   ]
  },
  {
   "extras": {
    "edit_note": "A mission building (blender/tools/build_interior_blends.py, seed blender/tools/interior_plans.py): a PLACEHOLDER shell and fit-out at its real Japanese size -- remodel freely. Keep the frame (origin = plot centre on the ground, street -Y), the floor levels, and move the Empties with what they belong to: DOOR_ (interior door, arrow OUT of the room), EXIT_ (outer door, arrow out of the building), LIFT_ (a lift: shaft floor centre at the low stop; stops / faces), MARK_ (a mission marker: kind weapon / spawn / cover ...). Keep 1.2 m clear both sides of every door. After editing: tools/building_kit/build_buildings.sh. \u9280\u884c (small): a one-storey branch -- the ATM corner with its own door, the \u98a8\u9664\u5ba4, the lobby (ticket machine, sofas), the teller counter with its glass screen, the back office, the vault (0.45 m walls, a steel door), the staff room and WC, the \u901a\u7528\u53e3 staff door at the back; a customer \u591a\u76ee\u7684\u30c8\u30a4\u30ec (accessible restroom) off the lobby."
   },
   "mesh": 10,
   "name": "Shop_ATM.001",
   "translation": [
    -4.900000095367432,
    0,
    2.950000047683716
   ]
  },
  {
   "extras": {
    "edit_note": "A mission building (blender/tools/build_interior_blends.py, seed blender/tools/interior_plans.py): a PLACEHOLDER shell and fit-out at its real Japanese size -- remodel freely. Keep the frame (origin = plot centre on the ground, street -Y), the floor levels, and move the Empties with what they belong to: DOOR_ (interior door, arrow OUT of the room), EXIT_ (outer door, arrow out of the building), LIFT_ (a lift: shaft floor centre at the low stop; stops / faces), MARK_ (a mission marker: kind weapon / spawn / cover ...). Keep 1.2 m clear both sides of every door. After editing: tools/building_kit/build_buildings.sh. \u9280\u884c (small): a one-storey branch -- the ATM corner with its own door, the \u98a8\u9664\u5ba4, the lobby (ticket machine, sofas), the teller counter with its glass screen, the back office, the vault (0.45 m walls, a steel door), the staff room and WC, the \u901a\u7528\u53e3 staff door at the back; a customer \u591a\u76ee\u7684\u30c8\u30a4\u30ec (accessible restroom) off the lobby."
   },
   "mesh": 10,
   "name": "Shop_ATM.002",
   "translation": [
    -3.799999952316284,
    0,
    2.950000047683716
   ]
  },
  {
   "extras": {
    "edit_note": "A mission building (blender/tools/build_interior_blends.py, seed blender/tools/interior_plans.py): a PLACEHOLDER shell and fit-out at its real Japanese size -- remodel freely. Keep the frame (origin = plot centre on the ground, street -Y), the floor levels, and move the Empties with what they belong to: DOOR_ (interior door, arrow OUT of the room), EXIT_ (outer door, arrow out of the building), LIFT_ (a lift: shaft floor centre at the low stop; stops / faces), MARK_ (a mission marker: kind weapon / spawn / cover ...). Keep 1.2 m clear both sides of every door. After editing: tools/building_kit/build_buildings.sh. \u9280\u884c (small): a one-storey branch -- the ATM corner with its own door, the \u98a8\u9664\u5ba4, the lobby (ticket machine, sofas), the teller counter with its glass screen, the back office, the vault (0.45 m walls, a steel door), the staff room and WC, the \u901a\u7528\u53e3 staff door at the back; a customer \u591a\u76ee\u7684\u30c8\u30a4\u30ec (accessible restroom) off the lobby."
   },
   "mesh": 11,
   "name": "Site"
  },
  {
   "extras": {
    "edit_note": "A mission building (blender/tools/build_interior_blends.py, seed blender/tools/interior_plans.py): a PLACEHOLDER shell and fit-out at its real Japanese size -- remodel freely. Keep the frame (origin = plot centre on the ground, street -Y), the floor levels, and move the Empties with what they belong to: DOOR_ (interior door, arrow OUT of the room), EXIT_ (outer door, arrow out of the building), LIFT_ (a lift: shaft floor centre at the low stop; stops / faces), MARK_ (a mission marker: kind weapon / spawn / cover ...). Keep 1.2 m clear both sides of every door. After editing: tools/building_kit/build_buildings.sh. \u9280\u884c (small): a one-storey branch -- the ATM corner with its own door, the \u98a8\u9664\u5ba4, the lobby (ticket machine, sofas), the teller counter with its glass screen, the back office, the vault (0.45 m walls, a steel door), the staff room and WC, the \u901a\u7528\u53e3 staff door at the back; a customer \u591a\u76ee\u7684\u30c8\u30a4\u30ec (accessible restroom) off the lobby."
   },
   "mesh": 12,
   "name": "Station_TicketMachine",
   "translation": [
    3.299999952316284,
    0,
    1
   ]
  },
  {
   "extras": {
    "edit_note": "A mission building (blender/tools/build_interior_blends.py, seed blender/tools/interior_plans.py): a PLACEHOLDER shell and fit-out at its real Japanese size -- remodel freely. Keep the frame (origin = plot centre on the ground, street -Y), the floor levels, and move the Empties with what they belong to: DOOR_ (interior door, arrow OUT of the room), EXIT_ (outer door, arrow out of the building), LIFT_ (a lift: shaft floor centre at the low stop; stops / faces), MARK_ (a mission marker: kind weapon / spawn / cover ...). Keep 1.2 m clear both sides of every door. After editing: tools/building_kit/build_buildings.sh. \u9280\u884c (small): a one-storey branch -- the ATM corner with its own door, the \u98a8\u9664\u5ba4, the lobby (ticket machine, sofas), the teller counter with its glass screen, the back office, the vault (0.45 m walls, a steel door), the staff room and WC, the \u901a\u7528\u53e3 staff door at the back; a customer \u591a\u76ee\u7684\u30c8\u30a4\u30ec (accessible restroom) off the lobby."
   },
   "mesh": 13,
   "name": "Structure"
  },
  {
   "extras": {
    "edit_note": "A mission building (blender/tools/build_interior_blends.py, seed blender/tools/interior_plans.py): a PLACEHOLDER shell and fit-out at its real Japanese size -- remodel freely. Keep the frame (origin = plot centre on the ground, street -Y), the floor levels, and move the Empties with what they belong to: DOOR_ (interior door, arrow OUT of the room), EXIT_ (outer door, arrow out of the building), LIFT_ (a lift: shaft floor centre at the low stop; stops / faces), MARK_ (a mission marker: kind weapon / spawn / cover ...). Keep 1.2 m clear both sides of every door. After editing: tools/building_kit/build_buildings.sh. \u9280\u884c (small): a one-storey branch -- the ATM corner with its own door, the \u98a8\u9664\u5ba4, the lobby (ticket machine, sofas), the teller counter with its glass screen, the back office, the vault (0.45 m walls, a steel door), the staff room and WC, the \u901a\u7528\u53e3 staff door at the back; a customer \u591a\u76ee\u7684\u30c8\u30a4\u30ec (accessible restroom) off the lobby."
   },
   "mesh": 14,
   "name": "Walls_0"
  },
  {
   "extras": {
    "edit_note": "A mission building (blender/tools/build_interior_blends.py, seed blender/tools/interior_plans.py): a PLACEHOLDER shell and fit-out at its real Japanese size -- remodel freely. Keep the frame (origin = plot centre on the ground, street -Y), the floor levels, and move the Empties with what they belong to: DOOR_ (interior door, arrow OUT of the room), EXIT_ (outer door, arrow out of the building), LIFT_ (a lift: shaft floor centre at the low stop; stops / faces), MARK_ (a mission marker: kind weapon / spawn / cover ...). Keep 1.2 m clear both sides of every door. After editing: tools/building_kit/build_buildings.sh. \u9280\u884c (small): a one-storey branch -- the ATM corner with its own door, the \u98a8\u9664\u5ba4, the lobby (ticket machine, sofas), the teller counter with its glass screen, the back office, the vault (0.45 m walls, a steel door), the staff room and WC, the \u901a\u7528\u53e3 staff door at the back; a customer \u591a\u76ee\u7684\u30c8\u30a4\u30ec (accessible restroom) off the lobby."
   },
   "mesh": 15,
   "name": "Warehouse_RollCage",
   "translation": [
    3.4000000953674316,
    0,
    -4.800000190734863
   ]
  },
  {
   "extras": {
    "edit_note": "A mission building (blender/tools/build_interior_blends.py, seed blender/tools/interior_plans.py): a PLACEHOLDER shell and fit-out at its real Japanese size -- remodel freely. Keep the frame (origin = plot centre on the ground, street -Y), the floor levels, and move the Empties with what they belong to: DOOR_ (interior door, arrow OUT of the room), EXIT_ (outer door, arrow out of the building), LIFT_ (a lift: shaft floor centre at the low stop; stops / faces), MARK_ (a mission marker: kind weapon / spawn / cover ...). Keep 1.2 m clear both sides of every door. After editing: tools/building_kit/build_buildings.sh. \u9280\u884c (small): a one-storey branch -- the ATM corner with its own door, the \u98a8\u9664\u5ba4, the lobby (ticket machine, sofas), the teller counter with its glass screen, the back office, the vault (0.45 m walls, a steel door), the staff room and WC, the \u901a\u7528\u53e3 staff door at the back; a customer \u591a\u76ee\u7684\u30c8\u30a4\u30ec (accessible restroom) off the lobby."
   },
   "mesh": 16,
   "name": "WC_BabyTable",
   "translation": [
    -5.599999904632568,
    0,
    0.25
   ]
  },
  {
   "extras": {
    "edit_note": "A mission building (blender/tools/build_interior_blends.py, seed blender/tools/interior_plans.py): a PLACEHOLDER shell and fit-out at its real Japanese size -- remodel freely. Keep the frame (origin = plot centre on the ground, street -Y), the floor levels, and move the Empties with what they belong to: DOOR_ (interior door, arrow OUT of the room), EXIT_ (outer door, arrow out of the building), LIFT_ (a lift: shaft floor centre at the low stop; stops / faces), MARK_ (a mission marker: kind weapon / spawn / cover ...). Keep 1.2 m clear both sides of every door. After editing: tools/building_kit/build_buildings.sh. \u9280\u884c (small): a one-storey branch -- the ATM corner with its own door, the \u98a8\u9664\u5ba4, the lobby (ticket machine, sofas), the teller counter with its glass screen, the back office, the vault (0.45 m walls, a steel door), the staff room and WC, the \u901a\u7528\u53e3 staff door at the back; a customer \u591a\u76ee\u7684\u30c8\u30a4\u30ec (accessible restroom) off the lobby."
   },
   "mesh": 17,
   "name": "WC_Basin",
   "rotation": [
    0,
    -1,
    0,
    4.371138828673793e-08
   ],
   "translation": [
    -5.599999904632568,
    0,
    2.200000047683716
   ]
  },
  {
   "extras": {
    "edit_note": "A mission building (blender/tools/build_interior_blends.py, seed blender/tools/interior_plans.py): a PLACEHOLDER shell and fit-out at its real Japanese size -- remodel freely. Keep the frame (origin = plot centre on the ground, street -Y), the floor levels, and move the Empties with what they belong to: DOOR_ (interior door, arrow OUT of the room), EXIT_ (outer door, arrow out of the building), LIFT_ (a lift: shaft floor centre at the low stop; stops / faces), MARK_ (a mission marker: kind weapon / spawn / cover ...). Keep 1.2 m clear both sides of every door. After editing: tools/building_kit/build_buildings.sh. \u9280\u884c (small): a one-storey branch -- the ATM corner with its own door, the \u98a8\u9664\u5ba4, the lobby (ticket machine, sofas), the teller counter with its glass screen, the back office, the vault (0.45 m walls, a steel door), the staff room and WC, the \u901a\u7528\u53e3 staff door at the back; a customer \u591a\u76ee\u7684\u30c8\u30a4\u30ec (accessible restroom) off the lobby."
   },
   "mesh": 18,
   "name": "WC_GrabRail",
   "rotation": [
    0,
    0.7071068286895752,
    0,
    0.7071068286895752
   ],
   "translation": [
    -6.199999809265137,
    0,
    0.4000000059604645
   ]
  },
  {
   "extras": {
    "edit_note": "A mission building (blender/tools/build_interior_blends.py, seed blender/tools/interior_plans.py): a PLACEHOLDER shell and fit-out at its real Japanese size -- remodel freely. Keep the frame (origin = plot centre on the ground, street -Y), the floor levels, and move the Empties with what they belong to: DOOR_ (interior door, arrow OUT of the room), EXIT_ (outer door, arrow out of the building), LIFT_ (a lift: shaft floor centre at the low stop; stops / faces), MARK_ (a mission marker: kind weapon / spawn / cover ...). Keep 1.2 m clear both sides of every door. After editing: tools/building_kit/build_buildings.sh. \u9280\u884c (small): a one-storey branch -- the ATM corner with its own door, the \u98a8\u9664\u5ba4, the lobby (ticket machine, sofas), the teller counter with its glass screen, the back office, the vault (0.45 m walls, a steel door), the staff room and WC, the \u901a\u7528\u53e3 staff door at the back; a customer \u591a\u76ee\u7684\u30c8\u30a4\u30ec (accessible restroom) off the lobby."
   },
   "mesh": 19,
   "name": "WC_Toilet",
   "rotation": [
    0,
    0.7071068286895752,
    0,
    0.7071068286895752
   ],
   "translation": [
    -6.420000076293945,
    0,
    1
   ]
  },
  {
   "extras": {
    "edit_note": "A mission building (blender/tools/build_interior_blends.py, seed blender/tools/interior_plans.py): a PLACEHOLDER shell and fit-out at its real Japanese size -- remodel freely. Keep the frame (origin = plot centre on the ground, street -Y), the floor levels, and move the Empties with what they belong to: DOOR_ (interior door, arrow OUT of the room), EXIT_ (outer door, arrow out of the building), LIFT_ (a lift: shaft floor centre at the low stop; stops / faces), MARK_ (a mission marker: kind weapon / spawn / cover ...). Keep 1.2 m clear both sides of every door. After editing: tools/building_kit/build_buildings.sh. \u9280\u884c (small): a one-storey branch -- the ATM corner with its own door, the \u98a8\u9664\u5ba4, the lobby (ticket machine, sofas), the teller counter with its glass screen, the back office, the vault (0.45 m walls, a steel door), the staff room and WC, the \u901a\u7528\u53e3 staff door at the back; a customer \u591a\u76ee\u7684\u30c8\u30a4\u30ec (accessible restroom) off the lobby."
   },
   "mesh": 19,
   "name": "WC_Toilet.001",
   "rotation": [
    0,
    -1,
    0,
    4.371138828673793e-08
   ],
   "translation": [
    -4.199999809265137,
    0,
    -5.420000076293945
   ]
  }
 ],
 "materials": [
  {
   "doubleSided": true,
   "name": "MI_TileBrown",
   "pbrMetallicRoughness": {
    "baseColorFactor": [
     0.5600000023841858,
     0.4099999964237213,
     0.3100000023841858,
     1
    ],
    "metallicFactor": 0,
    "roughnessFactor": 0.800000011920929
   }
  },
  {
   "doubleSided": true,
   "name": "MI_Plaster",
   "pbrMetallicRoughness": {
    "baseColorFactor": [
     0.8999999761581421,
     0.8899999856948853,
     0.8600000143051147,
     1
    ],
    "metallicFactor": 0,
    "roughnessFactor": 0.699999988079071
   }
  },
  {
   "doubleSided": true,
   "emissiveFactor": [
    0.08000000238418581,
    0.480000026226044,
    0.20000000298023224
   ],
   "name": "MI_SignGreen",
   "pbrMetallicRoughness": {
    "baseColorFactor": [
     0.10000000149011612,
     0.550000011920929,
     0.25,
     1
    ],
    "metallicFactor": 0,
    "roughnessFactor": 0.699999988079071
   }
  },
  {
   "doubleSided": true,
   "name": "MI_Steel",
   "pbrMetallicRoughness": {
    "baseColorFactor": [
     0.5726980566978455,
     0.5820889472961426,
     0.5955169796943665,
     1
    ],
    "roughnessFactor": 0.699999988079071
   }
  },
  {
   "doubleSided": true,
   "name": "MI_PaintedMetal",
   "pbrMetallicRoughness": {
    "baseColorFactor": [
     0.8999999761581421,
     0.8999999761581421,
     0.8899999856948853,
     1
    ],
    "metallicFactor": 0.30000001192092896,
    "roughnessFactor": 0.699999988079071
   }
  },
  {
   "doubleSided": true,
   "name": "MI_Wood",
   "pbrMetallicRoughness": {
    "baseColorFactor": [
     0.6217582821846008,
     0.4432729184627533,
     0.2785278260707855,
     1
    ],
    "metallicFactor": 0,
    "roughnessFactor": 0.699999988079071
   }
  },
  {
   "doubleSided": true,
   "name": "MI_Terrazzo",
   "pbrMetallicRoughness": {
    "baseColorFactor": [
     0.8399999737739563,
     0.8600000143051147,
     0.8600000143051147,
     1
    ],
    "metallicFactor": 0,
    "roughnessFactor": 0.699999988079071
   }
  },
  {
   "doubleSided": true,
   "name": "MI_GlassClear",
   "pbrMetallicRoughness": {
    "baseColorFactor": [
     0.550000011920929,
     0.6800000071525574,
     0.7200000286102295,
     1
    ],
    "metallicFactor": 0.20000000298023224,
    "roughnessFactor": 0.05000000074505806
   }
  },
  {
   "doubleSided": true,
   "name": "MI_Fabric",
   "pbrMetallicRoughness": {
    "baseColorFactor": [
     0.3585456907749176,
     0.35632404685020447,
     0.3589908480644226,
     1
    ],
    "metallicFactor": 0,
    "roughnessFactor": 0.699999988079071
   }
  },
  {
   "doubleSided": true,
   "name": "MI_PlasticDark",
   "pbrMetallicRoughness": {
    "baseColorFactor": [
     0.11999999731779099,
     0.11999999731779099,
     0.12999999523162842,
     1
    ],
    "metallicFactor": 0,
    "roughnessFactor": 0.6000000238418579
   }
  },
  {
   "doubleSided": true,
   "name": "MI_PaintedMetalDark",
   "pbrMetallicRoughness": {
    "baseColorFactor": [
     0.1599999964237213,
     0.17000000178813934,
     0.18000000715255737,
     1
    ],
    "metallicFactor": 0.4000000059604645,
    "roughnessFactor": 0.699999988079071
   }
  },
  {
   "doubleSided": true,
   "name": "MI_ConcreteSmooth",
   "pbrMetallicRoughness": {
    "baseColorFactor": [
     0.3104965388774872,
     0.3015982508659363,
     0.2871379554271698,
     1
    ],
    "metallicFactor": 0,
    "roughnessFactor": 0.699999988079071
   }
  },
  {
   "doubleSided": true,
   "name": "MI_PlasticWhite",
   "pbrMetallicRoughness": {
    "baseColorFactor": [
     0.9300000071525574,
     0.9300000071525574,
     0.9100000262260437,
     1
    ],
    "metallicFactor": 0,
    "roughnessFactor": 0.30000001192092896
   }
  },
  {
   "doubleSided": true,
   "emissiveFactor": [
    0.0600000032782555,
    0.15000000596046448,
    0.30000001192092896
   ],
   "name": "MI_Sign",
   "pbrMetallicRoughness": {
    "baseColorFactor": [
     0.11999999731779099,
     0.30000001192092896,
     0.550000011920929,
     1
    ],
    "metallicFactor": 0,
    "roughnessFactor": 0.699999988079071
   }
  },
  {
   "doubleSided": true,
   "name": "MI_TileWhite",
   "pbrMetallicRoughness": {
    "baseColorFactor": [
     0.8199999928474426,
     0.8199999928474426,
     0.8199999928474426,
     1
    ],
    "metallicFactor": 0,
    "roughnessFactor": 0.699999988079071
   }
  },
  {
   "doubleSided": true,
   "name": "MI_Corrugated",
   "pbrMetallicRoughness": {
    "baseColorFactor": [
     0.6010030508041382,
     0.6071377396583557,
     0.6176391243934631,
     1
    ],
    "metallicFactor": 0.6000000238418579,
    "roughnessFactor": 0.699999988079071
   }
  },
  {
   "doubleSided": true,
   "name": "MI_FabricRed",
   "pbrMetallicRoughness": {
    "baseColorFactor": [
     0.44999998807907104,
     0.07999999821186066,
     0.07000000029802322,
     1
    ],
    "metallicFactor": 0,
    "roughnessFactor": 0.699999988079071
   }
  },
  {
   "doubleSided": true,
   "emissiveFactor": [
    1,
    0.9800000190734863,
    0.9399999976158142
   ],
   "extensions": {
    "KHR_materials_emissive_strength": {
     "emissiveStrength": 2
    }
   },
   "name": "MI_Light",
   "pbrMetallicRoughness": {
    "baseColorFactor": [
     1,
     1,
     0.9700000286102295,
     1
    ],
    "metallicFactor": 0,
    "roughnessFactor": 0.699999988079071
   }
  }
 ],
 "meshes": [
  {
   "name": "BankSmall_Facade",
   "primitives": [
    {
     "attributes": {
      "POSITION": 0,
      "NORMAL": 1
     },
     "indices": 2,
     "material": 0
    },
    {
     "attributes": {
      "POSITION": 3,
      "NORMAL": 4
     },
     "indices": 5,
     "material": 1
    },
    {
     "attributes": {
      "POSITION": 6,
      "NORMAL": 7
     },
     "indices": 8,
     "material": 2
    },
    {
     "attributes": {
      "POSITION": 9,
      "NORMAL": 10
     },
     "indices": 8,
     "material": 3
    },
    {
     "attributes": {
      "POSITION": 11,
      "NORMAL": 12
     },
     "indices": 8,
     "material": 4
    }
   ]
  },
  {
   "name": "BankSmall_Furniture",
   "primitives": [
    {
     "attributes": {
      "POSITION": 13,
      "NORMAL": 14
     },
     "indices": 8,
     "material": 5
    },
    {
     "attributes": {
      "POSITION": 15,
      "NORMAL": 16
     },
     "indices": 8,
     "material": 6
    },
    {
     "attributes": {
      "POSITION": 17,
      "NORMAL": 18
     },
     "indices": 8,
     "material": 7
    }
   ]
  },
  {
   "name": "BankSmall_Glazing",
   "primitives": [
    {
     "attributes": {
      "POSITION": 19,
      "NORMAL": 20
     },
     "indices": 21,
     "material": 7
    },
    {
     "attributes": {
      "POSITION": 22,
      "NORMAL": 23
     },
     "indices": 24,
     "material": 4
    }
   ]
  },
  {
   "name": "LIB_Hosp_WaitingBench",
   "primitives": [
    {
     "attributes": {
      "POSITION": 25,
      "NORMAL": 26
     },
     "indices": 8,
     "material": 3
    },
    {
     "attributes": {
      "POSITION": 27,
      "NORMAL": 28
     },
     "indices": 29,
     "material": 8
    }
   ]
  },
  {
   "name": "LIB_Office_Chair",
   "primitives": [
    {
     "attributes": {
      "POSITION": 30,
      "NORMAL": 31
     },
     "indices": 8,
     "material": 3
    },
    {
     "attributes": {
      "POSITION": 32,
      "NORMAL": 33
     },
     "indices": 8,
     "material": 9
    },
    {
     "attributes": {
      "POSITION": 34,
      "NORMAL": 35
     },
     "indices": 21,
     "material": 8
    }
   ]
  },
  {
   "name": "LIB_Office_Desk",
   "primitives": [
    {
     "attributes": {
      "POSITION": 36,
      "NORMAL": 37
     },
     "indices": 8,
     "material": 5
    },
    {
     "attributes": {
      "POSITION": 38,
      "NORMAL": 39
     },
     "indices": 21,
     "material": 4
    },
    {
     "attributes": {
      "POSITION": 40,
      "NORMAL": 41
     },
     "indices": 8,
     "material": 9
    }
   ]
  },
  {
   "name": "LIB_Office_DeskIsland",
   "primitives": [
    {
     "attributes": {
      "POSITION": 42,
      "NORMAL": 43
     },
     "indices": 8,
     "material": 5
    },
    {
     "attributes": {
      "POSITION": 44,
      "NORMAL": 45
     },
     "indices": 46,
     "material": 4
    },
    {
     "attributes": {
      "POSITION": 47,
      "NORMAL": 48
     },
     "indices": 8,
     "material": 8
    },
    {
     "attributes": {
      "POSITION": 49,
      "NORMAL": 50
     },
     "indices": 51,
     "material": 9
    }
   ]
  },
  {
   "name": "LIB_Office_Locker",
   "primitives": [
    {
     "attributes": {
      "POSITION": 52,
      "NORMAL": 53
     },
     "indices": 8,
     "material": 4
    },
    {
     "attributes": {
      "POSITION": 54,
      "NORMAL": 55
     },
     "indices": 46,
     "material": 10
    }
   ]
  },
  {
   "name": "LIB_Office_Safe",
   "primitives": [
    {
     "attributes": {
      "POSITION": 56,
      "NORMAL": 57
     },
     "indices": 8,
     "material": 10
    },
    {
     "attributes": {
      "POSITION": 58,
      "NORMAL": 59
     },
     "indices": 8,
     "material": 3
    }
   ]
  },
  {
   "name": "BankSmall_Roof",
   "primitives": [
    {
     "attributes": {
      "POSITION": 60,
      "NORMAL": 61
     },
     "indices": 62,
     "material": 11
    },
    {
     "attributes": {
      "POSITION": 63,
      "NORMAL": 64
     },
     "indices": 21,
     "material": 12
    }
   ]
  },
  {
   "name": "LIB_Shop_ATM",
   "primitives": [
    {
     "attributes": {
      "POSITION": 65,
      "NORMAL": 66
     },
     "indices": 8,
     "material": 12
    },
    {
     "attributes": {
      "POSITION": 67,
      "NORMAL": 68
     },
     "indices": 21,
     "material": 9
    },
    {
     "attributes": {
      "POSITION": 69,
      "NORMAL": 70
     },
     "indices": 8,
     "material": 13
    }
   ]
  },
  {
   "name": "BankSmall_Site",
   "primitives": [
    {
     "attributes": {
      "POSITION": 71,
      "NORMAL": 72
     },
     "indices": 8,
     "material": 14
    }
   ]
  },
  {
   "extras": {
    "placeholder_note": "REMOVED 2026-09-28: base mesh was from elbolilloduro Metro pack (base mesh removed); this is a same-size PLACEHOLDER BOX, needs a modeller (see kits/library/placeholders.json)"
   },
   "name": "LIB_Station_TicketMachine",
   "primitives": [
    {
     "attributes": {
      "POSITION": 73,
      "NORMAL": 74
     },
     "indices": 75,
     "material": 4
    }
   ]
  },
  {
   "name": "BankSmall_Structure",
   "primitives": [
    {
     "attributes": {
      "POSITION": 76,
      "NORMAL": 77
     },
     "indices": 8,
     "material": 6
    }
   ]
  },
  {
   "name": "BankSmall_Walls_0",
   "primitives": [
    {
     "attributes": {
      "POSITION": 78,
      "NORMAL": 79
     },
     "indices": 80,
     "material": 1
    },
    {
     "attributes": {
      "POSITION": 81,
      "NORMAL": 82
     },
     "indices": 83,
     "material": 7
    },
    {
     "attributes": {
      "POSITION": 84,
      "NORMAL": 85
     },
     "indices": 86,
     "material": 11
    },
    {
     "attributes": {
      "POSITION": 87,
      "NORMAL": 88
     },
     "indices": 89,
     "material": 3
    }
   ]
  },
  {
   "name": "LIB_Warehouse_RollCage",
   "primitives": [
    {
     "attributes": {
      "POSITION": 90,
      "NORMAL": 91
     },
     "indices": 92,
     "material": 3
    },
    {
     "attributes": {
      "POSITION": 93,
      "NORMAL": 94
     },
     "indices": 8,
     "material": 15
    },
    {
     "attributes": {
      "POSITION": 95,
      "NORMAL": 96
     },
     "indices": 51,
     "material": 9
    }
   ]
  },
  {
   "name": "LIB_WC_BabyTable",
   "primitives": [
    {
     "attributes": {
      "POSITION": 97,
      "NORMAL": 98
     },
     "indices": 8,
     "material": 12
    },
    {
     "attributes": {
      "POSITION": 99,
      "NORMAL": 100
     },
     "indices": 8,
     "material": 13
    }
   ]
  },
  {
   "name": "LIB_WC_Basin",
   "primitives": [
    {
     "attributes": {
      "POSITION": 101,
      "NORMAL": 102
     },
     "indices": 8,
     "material": 12
    },
    {
     "attributes": {
      "POSITION": 103,
      "NORMAL": 104
     },
     "indices": 8,
     "material": 14
    },
    {
     "attributes": {
      "POSITION": 105,
      "NORMAL": 106
     },
     "indices": 107,
     "material": 3
    }
   ]
  },
  {
   "name": "LIB_WC_GrabRail",
   "primitives": [
    {
     "attributes": {
      "POSITION": 108,
      "NORMAL": 109
     },
     "indices": 110,
     "material": 3
    }
   ]
  },
  {
   "name": "LIB_WC_Toilet",
   "primitives": [
    {
     "attributes": {
      "POSITION": 111,
      "NORMAL": 112
     },
     "indices": 113,
     "material": 12
    },
    {
     "attributes": {
      "POSITION": 114,
      "NORMAL": 115
     },
     "indices": 8,
     "material": 9
    },
    {
     "attributes": {
      "POSITION": 116,
      "NORMAL": 117
     },
     "indices": 8,
     "material": 13
    },
    {
     "attributes": {
      "POSITION": 118,
      "NORMAL": 119
     },
     "indices": 8,
     "material": 16
    },
    {
     "attributes": {
      "POSITION": 120,
      "NORMAL": 121
     },
     "indices": 8,
     "material": 17
    },
    {
     "attributes": {
      "POSITION": 122,
      "NORMAL": 123
     },
     "indices": 8,
     "material": 3
    }
   ]
  }
 ],
 "accessors": [
  {
   "bufferView": 0,
   "componentType": 5126,
   "count": 314,
   "max": [
    7,
    4.5,
    6
   ],
   "min": [
    -7,
    0,
    -6
   ],
   "type": "VEC3"
  },
  {
   "bufferView": 1,
   "componentType": 5126,
   "count": 314,
   "type": "VEC3"
  },
  {
   "bufferView": 2,
   "componentType": 5123,
   "count": 552,
   "type": "SCALAR"
  },
  {
   "bufferView": 3,
   "componentType": 5126,
   "count": 292,
   "max": [
    7,
    4.5,
    5.900000095367432
   ],
   "min": [
    -7,
    0,
    -5.900000095367432
   ],
   "type": "VEC3"
  },
  {
   "bufferView": 4,
   "componentType": 5126,
   "count": 292,
   "type": "VEC3"
  },
  {
   "bufferView": 5,
   "componentType": 5123,
   "count": 504,
   "type": "SCALAR"
  },
  {
   "bufferView": 6,
   "componentType": 5126,
   "count": 24,
   "max": [
    7,
    4.199999809265137,
    6.199999809265137
   ],
   "min": [
    -7,
    3.5,
    6
   ],
   "type": "VEC3"
  },
  {
   "bufferView": 7,
   "componentType": 5126,
   "count": 24,
   "type": "VEC3"
  },
  {
   "bufferView": 8,
   "componentType": 5123,
   "count": 36,
   "type": "SCALAR"
  },
  {
   "bufferView": 9,
   "componentType": 5126,
   "count": 24,
   "max": [
    -1.7999999523162842,
    1.2999999523162842,
    6.119999885559082
   ],
   "min": [
    -2.200000047683716,
    0.8999999761581421,
    6
   ],
   "type": "VEC3"
  },
  {
   "bufferView": 10,
   "componentType": 5126,
   "count": 24,
   "type": "VEC3"
  },
  {
   "bufferView": 11,
   "componentType": 5126,
   "count": 24,
   "max": [
    -2.4000000953674316,
    3.049999952316284,
    7.599999904632568
   ],
   "min": [
    -6.800000190734863,
    2.9000000953674316,
    6
   ],
   "type": "VEC3"
  },
  {
   "bufferView": 12,
   "componentType": 5126,
   "count": 24,
   "type": "VEC3"
  },
  {
   "bufferView": 13,
   "componentType": 5126,
   "count": 24,
   "max": [
    4.599999904632568,
    1,
    0
   ],
   "min": [
    -4.400000095367432,
    0,
    -0.699999988079071
   ],
   "type": "VEC3"
  },
  {
   "bufferView": 14,
   "componentType": 5126,
   "count": 24,
   "type": "VEC3"
  },
  {
   "bufferView": 15,
   "componentType": 5126,
   "count": 24,
   "max": [
    4.650000095367432,
    1.0499999523162842,
    0.05000000074505806
   ],
   "min": [
    -4.449999809265137,
    1,
    -0.75
   ],
   "type": "VEC3"
  },
  {
   "bufferView": 16,
   "componentType": 5126,
   "count": 24,
   "type": "VEC3"
  },
  {
   "bufferView": 17,
   "componentType": 5126,
   "count": 24,
   "max": [
    4.599999904632568,
    1.649999976158142,
    -0.3400000035762787
   ],
   "min": [
    -4.400000095367432,
    1.0499999523162842,
    -0.36000001430511475
   ],
   "type": "VEC3"
  },
  {
   "bufferView": 18,
   "componentType": 5126,
   "count": 24,
   "type": "VEC3"
  },
  {
   "bufferView": 19,
   "componentType": 5126,
   "count": 48,
   "max": [
    6.300000190734863,
    3.200000047683716,
    5.9120001792907715
   ],
   "min": [
    -6.9120001792907715,
    0.6000000238418579,
    -2.200000047683716
   ],
   "type": "VEC3"
  },
  {
   "bufferView": 20,
   "componentType": 5126,
   "count": 48,
   "type": "VEC3"
  },
  {
   "bufferView": 21,
   "componentType": 5123,
   "count": 72,
   "type": "SCALAR"
  },
  {
   "bufferView": 22,
   "componentType": 5126,
   "count": 400,
   "max": [
    6.349999904632568,
    3.25,
    6.010000228881836
   ],
   "min": [
    -7.010000228881836,
    -0.05000000074505806,
    -6.010000228881836
   ],
   "type": "VEC3"
  },
  {
   "bufferView": 23,
   "componentType": 5126,
   "count": 400,
   "type": "VEC3"
  },
  {
   "bufferView": 24,
   "componentType": 5123,
   "count": 720,
   "type": "SCALAR"
  },
  {
   "bufferView": 25,
   "componentType": 5126,
   "count": 24,
   "max": [
    1.100000023841858,
    0.4000000059604645,
    0.05000000074505806
   ],
   "min": [
    -1.100000023841858,
    0,
    -0.05000000074505806
   ],
   "type": "VEC3"
  },
  {
   "bufferView": 26,
   "componentType": 5126,
   "count": 24,
   "type": "VEC3"
  },
  {
   "bufferView": 27,
   "componentType": 5126,
   "count": 184,
   "max": [
    1.0750000476837158,
    0.8500000238418579,
    0.2800000011920929
   ],
   "min": [
    -1.0750000476837158,
    0.4000000059604645,
    -0.2800000011920929
   ],
   "type": "VEC3"
  },
  {
   "bufferView": 28,
   "componentType": 5126,
   "count": 184,
   "type": "VEC3"
  },
  {
   "bufferView": 29,
   "componentType": 5123,
   "count": 288,
   "type": "SCALAR"
  },
  {
   "bufferView": 30,
   "componentType": 5126,
   "count": 24,
   "max": [
    0.029999999329447746,
    0.41999998688697815,
    0.029999999329447746
   ],
   "min": [
    -0.029999999329447746,
    0,
    -0.029999999329447746
   ],
   "type": "VEC3"
  },
  {
   "bufferView": 31,
   "componentType": 5126,
   "count": 24,
   "type": "VEC3"
  },
  {
   "bufferView": 32,
   "componentType": 5126,
   "count": 24,
   "max": [
    0.30000001192092896,
    0.05000000074505806,
    0.30000001192092896
   ],
   "min": [
    -0.30000001192092896,
    0,
    -0.30000001192092896
   ],
   "type": "VEC3"
  },
  {
   "bufferView": 33,
   "componentType": 5126,
   "count": 24,
   "type": "VEC3"
  },
  {
   "bufferView": 34,
   "componentType": 5126,
   "count": 48,
   "max": [
    0.25,
    1,
    0.25
   ],
   "min": [
    -0.25,
    0.41999998688697815,
    -0.2800000011920929
   ],
   "type": "VEC3"
  },
  {
   "bufferView": 35,
   "componentType": 5126,
   "count": 48,
   "type": "VEC3"
  },
  {
   "bufferView": 36,
   "componentType": 5126,
   "count": 24,
   "max": [
    0.6000000238418579,
    0.7200000286102295,
    0.3499999940395355
   ],
   "min": [
    -0.6000000238418579,
    0.6800000071525574,
    -0.3499999940395355
   ],
   "type": "VEC3"
  },
  {
   "bufferView": 37,
   "componentType": 5126,
   "count": 24,
   "type": "VEC3"
  },
  {
   "bufferView": 38,
   "componentType": 5126,
   "count": 48,
   "max": [
    0.6000000238418579,
    0.6800000071525574,
    0.3199999928474426
   ],
   "min": [
    -0.6000000238418579,
    0,
    -0.3199999928474426
   ],
   "type": "VEC3"
  },
  {
   "bufferView": 39,
   "componentType": 5126,
   "count": 48,
   "type": "VEC3"
  },
  {
   "bufferView": 40,
   "componentType": 5126,
   "count": 24,
   "max": [
    0.25,
    1.0499999523162842,
    -0.10000000149011612
   ],
   "min": [
    -0.25,
    0.7200000286102295,
    -0.12999999523162842
   ],
   "type": "VEC3"
  },
  {
   "bufferView": 41,
   "componentType": 5126,
   "count": 24,
   "type": "VEC3"
  },
  {
   "bufferView": 42,
   "componentType": 5126,
   "count": 24,
   "max": [
    1.2000000476837158,
    0.7200000286102295,
    0.699999988079071
   ],
   "min": [
    -1.2000000476837158,
    0.6800000071525574,
    -0.699999988079071
   ],
   "type": "VEC3"
  },
  {
   "bufferView": 43,
   "componentType": 5126,
   "count": 24,
   "type": "VEC3"
  },
  {
   "bufferView": 44,
   "componentType": 5126,
   "count": 72,
   "max": [
    1.2000000476837158,
    0.6800000071525574,
    0.6700000166893005
   ],
   "min": [
    -1.2000000476837158,
    0,
    -0.6700000166893005
   ],
   "type": "VEC3"
  },
  {
   "bufferView": 45,
   "componentType": 5126,
   "count": 72,
   "type": "VEC3"
  },
  {
   "bufferView": 46,
   "componentType": 5123,
   "count": 108,
   "type": "SCALAR"
  },
  {
   "bufferView": 47,
   "componentType": 5126,
   "count": 24,
   "max": [
    1.2000000476837158,
    1.100000023841858,
    0.019999999552965164
   ],
   "min": [
    -1.2000000476837158,
    0.7200000286102295,
    -0.019999999552965164
   ],
   "type": "VEC3"
  },
  {
   "bufferView": 48,
   "componentType": 5126,
   "count": 24,
   "type": "VEC3"
  },
  {
   "bufferView": 49,
   "componentType": 5126,
   "count": 96,
   "max": [
    0.8500000238418579,
    1.0499999523162842,
    0.19499999284744263
   ],
   "min": [
    -0.8500000238418579,
    0.7200000286102295,
    -0.19499999284744263
   ],
   "type": "VEC3"
  },
  {
   "bufferView": 50,
   "componentType": 5126,
   "count": 96,
   "type": "VEC3"
  },
  {
   "bufferView": 51,
   "componentType": 5123,
   "count": 144,
   "type": "SCALAR"
  },
  {
   "bufferView": 52,
   "componentType": 5126,
   "count": 24,
   "max": [
    0.44999998807907104,
    1.7999999523162842,
    0.25
   ],
   "min": [
    -0.44999998807907104,
    0,
    -0.25
   ],
   "type": "VEC3"
  },
  {
   "bufferView": 53,
   "componentType": 5126,
   "count": 24,
   "type": "VEC3"
  },
  {
   "bufferView": 54,
   "componentType": 5126,
   "count": 72,
   "max": [
    0.4399999976158142,
    1.75,
    0.25999999046325684
   ],
   "min": [
    -0.4399999976158142,
    0.05000000074505806,
    0.25
   ],
   "type": "VEC3"
  },
  {
   "bufferView": 55,
   "componentType": 5126,
   "count": 72,
   "type": "VEC3"
  },
  {
   "bufferView": 56,
   "componentType": 5126,
   "count": 24,
   "max": [
    0.30000001192092896,
    1,
    0.30000001192092896
   ],
   "min": [
    -0.30000001192092896,
    0,
    -0.30000001192092896
   ],
   "type": "VEC3"
  },
  {
   "bufferView": 57,
   "componentType": 5126,
   "count": 24,
   "type": "VEC3"
  },
  {
   "bufferView": 58,
   "componentType": 5126,
   "count": 24,
   "max": [
    0.05000000074505806,
    0.6499999761581421,
    0.3100000023841858
   ],
   "min": [
    -0.05000000074505806,
    0.550000011920929,
    0.30000001192092896
   ],
   "type": "VEC3"
  },
  {
   "bufferView": 59,
   "componentType": 5126,
   "count": 24,
   "type": "VEC3"
  },
  {
   "bufferView": 60,
   "componentType": 5126,
   "count": 88,
   "max": [
    6.980000019073486,
    5.599999904632568,
    5.980000019073486
   ],
   "min": [
    -6.980000019073486,
    4.300000190734863,
    -5.980000019073486
   ],
   "type": "VEC3"
  },
  {
   "bufferView": 61,
   "componentType": 5126,
   "count": 88,
   "type": "VEC3"
  },
  {
   "bufferView": 62,
   "componentType": 5123,
   "count": 180,
   "type": "SCALAR"
  },
  {
   "bufferView": 63,
   "componentType": 5126,
   "count": 48,
   "max": [
    -0.07999999821186066,
    5.800000190734863,
    -2.4800000190734863
   ],
   "min": [
    -4.480000019073486,
    4.5,
    -3.680000066757202
   ],
   "type": "VEC3"
  },
  {
   "bufferView": 64,
   "componentType": 5126,
   "count": 48,
   "type": "VEC3"
  },
  {
   "bufferView": 65,
   "componentType": 5126,
   "count": 24,
   "max": [
    0.3499999940395355,
    1.600000023841858,
    0.4000000059604645
   ],
   "min": [
    -0.3499999940395355,
    0,
    -0.4000000059604645
   ],
   "type": "VEC3"
  },
  {
   "bufferView": 66,
   "componentType": 5126,
   "count": 24,
   "type": "VEC3"
  },
  {
   "bufferView": 67,
   "componentType": 5126,
   "count": 48,
   "max": [
    0.30000001192092896,
    1.399999976158142,
    0.5
   ],
   "min": [
    -0.30000001192092896,
    0.949999988079071,
    0.4000000059604645
   ],
   "type": "VEC3"
  },
  {
   "bufferView": 68,
   "componentType": 5126,
   "count": 48,
   "type": "VEC3"
  },
  {
   "bufferView": 69,
   "componentType": 5126,
   "count": 24,
   "max": [
    0.3400000035762787,
    1.5800000429153442,
    0.4099999964237213
   ],
   "min": [
    -0.3400000035762787,
    1.4500000476837158,
    0.4000000059604645
   ],
   "type": "VEC3"
  },
  {
   "bufferView": 70,
   "componentType": 5126,
   "count": 24,
   "type": "VEC3"
  },
  {
   "bufferView": 71,
   "componentType": 5126,
   "count": 24,
   "max": [
    8.5,
    0.009999999776482582,
    9.5
   ],
   "min": [
    -8.5,
    -0.029999999329447746,
    -7.5
   ],
   "type": "VEC3"
  },
  {
   "bufferView": 72,
   "componentType": 5126,
   "count": 24,
   "type": "VEC3"
  },
  {
   "bufferView": 73,
   "componentType": 5126,
   "count": 24,
   "max": [
    0.4000000059604645,
    1.8000000715255737,
    0.27500075101852417
   ],
   "min": [
    -0.4000000059604645,
    0,
    -0.2749992609024048
   ],
   "type": "VEC3"
  },
  {
   "bufferView": 74,
   "componentType": 5126,
   "count": 24,
   "type": "VEC3"
  },
  {
   "bufferView": 75,
   "componentType": 5123,
   "count": 36,
   "type": "SCALAR"
  },
  {
   "bufferView": 76,
   "componentType": 5126,
   "count": 24,
   "max": [
    7,
    0,
    6
   ],
   "min": [
    -7,
    -0.20000000298023224,
    -6
   ],
   "type": "VEC3"
  },
  {
   "bufferView": 77,
   "componentType": 5126,
   "count": 24,
   "type": "VEC3"
  },
  {
   "bufferView": 78,
   "componentType": 5126,
   "count": 368,
   "max": [
    6.800000190734863,
    4.300000190734863,
    5.800000190734863
   ],
   "min": [
    -6.800000190734863,
    0,
    -5.800000190734863
   ],
   "type": "VEC3"
  },
  {
   "bufferView": 79,
   "componentType": 5126,
   "count": 368,
   "type": "VEC3"
  },
  {
   "bufferView": 80,
   "componentType": 5123,
   "count": 612,
   "type": "SCALAR"
  },
  {
   "bufferView": 81,
   "componentType": 5126,
   "count": 112,
   "max": [
    1.659999966621399,
    4.300000190734863,
    5.800000190734863
   ],
   "min": [
    -0.6600000262260437,
    0,
    3.8399999141693115
   ],
   "type": "VEC3"
  },
  {
   "bufferView": 82,
   "componentType": 5126,
   "count": 112,
   "type": "VEC3"
  },
  {
   "bufferView": 83,
   "componentType": 5123,
   "count": 180,
   "type": "SCALAR"
  },
  {
   "bufferView": 84,
   "componentType": 5126,
   "count": 128,
   "max": [
    6.800000190734863,
    4.300000190734863,
    -2.4000000953674316
   ],
   "min": [
    2.5,
    0,
    -5.800000190734863
   ],
   "type": "VEC3"
  },
  {
   "bufferView": 85,
   "componentType": 5126,
   "count": 128,
   "type": "VEC3"
  },
  {
   "bufferView": 86,
   "componentType": 5123,
   "count": 204,
   "type": "SCALAR"
  },
  {
   "bufferView": 87,
   "componentType": 5126,
   "count": 122,
   "max": [
    6.800000190734863,
    4.300000190734863,
    -2.625
   ],
   "min": [
    2.5,
    0,
    -5.574999809265137
   ],
   "type": "VEC3"
  },
  {
   "bufferView": 88,
   "componentType": 5126,
   "count": 122,
   "type": "VEC3"
  },
  {
   "bufferView": 89,
   "componentType": 5123,
   "count": 192,
   "type": "SCALAR"
  },
  {
   "bufferView": 90,
   "componentType": 5126,
   "count": 72,
   "max": [
    0.4000000059604645,
    1.7000000476837158,
    0.30000001192092896
   ],
   "min": [
    -0.4000000059604645,
    0.10000000149011612,
    -0.30000001192092896
   ],
   "type": "VEC3"
  },
  {
   "bufferView": 91,
   "componentType": 5126,
   "count": 72,
   "type": "VEC3"
  },
  {
   "bufferView": 92,
   "componentType": 5123,
   "count": 144,
   "type": "SCALAR"
  },
  {
   "bufferView": 93,
   "componentType": 5126,
   "count": 24,
   "max": [
    0.36000001430511475,
    1.2000000476837158,
    0.25999999046325684
   ],
   "min": [
    -0.36000001430511475,
    0.15000000596046448,
    -0.25999999046325684
   ],
   "type": "VEC3"
  },
  {
   "bufferView": 94,
   "componentType": 5126,
   "count": 24,
   "type": "VEC3"
  },
  {
   "bufferView": 95,
   "componentType": 5126,
   "count": 96,
   "max": [
    0.3400000035762787,
    0.10000000149011612,
    0.25999999046325684
   ],
   "min": [
    -0.3400000035762787,
    0,
    -0.25999999046325684
   ],
   "type": "VEC3"
  },
  {
   "bufferView": 96,
   "componentType": 5126,
   "count": 96,
   "type": "VEC3"
  },
  {
   "bufferView": 97,
   "componentType": 5126,
   "count": 24,
   "max": [
    0.42500001192092896,
    1.350000023841858,
    0.11999999731779099
   ],
   "min": [
    -0.42500001192092896,
    0.800000011920929,
    0
   ],
   "type": "VEC3"
  },
  {
   "bufferView": 98,
   "componentType": 5126,
   "count": 24,
   "type": "VEC3"
  },
  {
   "bufferView": 99,
   "componentType": 5126,
   "count": 24,
   "max": [
    0.15000000596046448,
    1.25,
    0.12999999523162842
   ],
   "min": [
    -0.15000000596046448,
    1.149999976158142,
    0.11999999731779099
   ],
   "type": "VEC3"
  },
  {
   "bufferView": 100,
   "componentType": 5126,
   "count": 24,
   "type": "VEC3"
  },
  {
   "bufferView": 101,
   "componentType": 5126,
   "count": 24,
   "max": [
    0.32499998807907104,
    0.8399999737739563,
    0.28299999237060547
   ],
   "min": [
    -0.32499998807907104,
    0.7200000286102295,
    -0.28299999237060547
   ],
   "type": "VEC3"
  },
  {
   "bufferView": 102,
   "componentType": 5126,
   "count": 24,
   "type": "VEC3"
  },
  {
   "bufferView": 103,
   "componentType": 5126,
   "count": 24,
   "max": [
    0.2750000059604645,
    0.8450000286102295,
    0.2329999953508377
   ],
   "min": [
    -0.2750000059604645,
    0.8420000076293945,
    -0.16300000250339508
   ],
   "type": "VEC3"
  },
  {
   "bufferView": 104,
   "componentType": 5126,
   "count": 24,
   "type": "VEC3"
  },
  {
   "bufferView": 105,
   "componentType": 5126,
   "count": 66,
   "max": [
    0.019999999552965164,
    1.0800000429153442,
    -0.08299999684095383
   ],
   "min": [
    -0.019999999552965164,
    0.8399999737739563,
    -0.2630000114440918
   ],
   "type": "VEC3"
  },
  {
   "bufferView": 106,
   "componentType": 5126,
   "count": 66,
   "type": "VEC3"
  },
  {
   "bufferView": 107,
   "componentType": 5123,
   "count": 108,
   "type": "SCALAR"
  },
  {
   "bufferView": 108,
   "componentType": 5126,
   "count": 88,
   "max": [
    0.3499999940395355,
    1.5,
    0.07999999821186066
   ],
   "min": [
    -0.3499999940395355,
    0.6800000071525574,
    0
   ],
   "type": "VEC3"
  },
  {
   "bufferView": 109,
   "componentType": 5126,
   "count": 88,
   "type": "VEC3"
  },
  {
   "bufferView": 110,
   "componentType": 5123,
   "count": 144,
   "type": "SCALAR"
  },
  {
   "bufferView": 111,
   "componentType": 5126,
   "count": 980,
   "max": [
    0.30000001192092896,
    0.800000011920929,
    0.3700000047683716
   ],
   "min": [
    -0.20000000298023224,
    0,
    -0.375
   ],
   "type": "VEC3"
  },
  {
   "bufferView": 112,
   "componentType": 5126,
   "count": 980,
   "type": "VEC3"
  },
  {
   "bufferView": 113,
   "componentType": 5123,
   "count": 1860,
   "type": "SCALAR"
  },
  {
   "bufferView": 114,
   "componentType": 5126,
   "count": 24,
   "max": [
    0.28999999165534973,
    0.4749999940395355,
    0.10000000149011612
   ],
   "min": [
    0.20999999344348907,
    0.4699999988079071,
    -0.07999999821186066
   ],
   "type": "VEC3"
  },
  {
   "bufferView": 115,
   "componentType": 5126,
   "count": 24,
   "type": "VEC3"
  },
  {
   "bufferView": 116,
   "componentType": 5126,
   "count": 24,
   "max": [
    0.27000001072883606,
    0.47999998927116394,
    0.07999999821186066
   ],
   "min": [
    0.23000000417232513,
    0.4749999940395355,
    0.05000000074505806
   ],
   "type": "VEC3"
  },
  {
   "bufferView": 117,
   "componentType": 5126,
   "count": 24,
   "type": "VEC3"
  },
  {
   "bufferView": 118,
   "componentType": 5126,
   "count": 24,
   "max": [
    0.27000001072883606,
    0.47999998927116394,
    0.029999999329447746
   ],
   "min": [
    0.23000000417232513,
    0.4749999940395355,
    0
   ],
   "type": "VEC3"
  },
  {
   "bufferView": 119,
   "componentType": 5126,
   "count": 24,
   "type": "VEC3"
  },
  {
   "bufferView": 120,
   "componentType": 5126,
   "count": 24,
   "max": [
    0.27000001072883606,
    0.47999998927116394,
    -0.019999999552965164
   ],
   "min": [
    0.23000000417232513,
    0.4749999940395355,
    -0.05000000074505806
   ],
   "type": "VEC3"
  },
  {
   "bufferView": 121,
   "componentType": 5126,
   "count": 24,
   "type": "VEC3"
  },
  {
   "bufferView": 122,
   "componentType": 5126,
   "count": 24,
   "max": [
    -0.20000000298023224,
    0.6800000071525574,
    -0.2800000011920929
   ],
   "min": [
    -0.2199999988079071,
    0.6600000262260437,
    -0.3400000035762787
   ],
   "type": "VEC3"
  },
  {
   "bufferView": 123,
   "componentType": 5126,
   "count": 24,
   "type": "VEC3"
  }
 ],
 "bufferViews": [
  {
   "buffer": 0,
   "byteLength": 3768,
   "byteOffset": 0,
   "target": 34962
  },
  {
   "buffer": 0,
   "byteLength": 3768,
   "byteOffset": 3768,
   "target": 34962
  },
  {
   "buffer": 0,
   "byteLength": 1104,
   "byteOffset": 7536,
   "target": 34963
  },
  {
   "buffer": 0,
   "byteLength": 3504,
   "byteOffset": 8640,
   "target": 34962
  },
  {
   "buffer": 0,
   "byteLength": 3504,
   "byteOffset": 12144,
   "target": 34962
  },
  {
   "buffer": 0,
   "byteLength": 1008,
   "byteOffset": 15648,
   "target": 34963
  },
  {
   "buffer": 0,
   "byteLength": 288,
   "byteOffset": 16656,
   "target": 34962
  },
  {
   "buffer": 0,
   "byteLength": 288,
   "byteOffset": 16944,
   "target": 34962
  },
  {
   "buffer": 0,
   "byteLength": 72,
   "byteOffset": 17232,
   "target": 34963
  },
  {
   "buffer": 0,
   "byteLength": 288,
   "byteOffset": 17304,
   "target": 34962
  },
  {
   "buffer": 0,
   "byteLength": 288,
   "byteOffset": 17592,
   "target": 34962
  },
  {
   "buffer": 0,
   "byteLength": 288,
   "byteOffset": 17880,
   "target": 34962
  },
  {
   "buffer": 0,
   "byteLength": 288,
   "byteOffset": 18168,
   "target": 34962
  },
  {
   "buffer": 0,
   "byteLength": 288,
   "byteOffset": 18456,
   "target": 34962
  },
  {
   "buffer": 0,
   "byteLength": 288,
   "byteOffset": 18744,
   "target": 34962
  },
  {
   "buffer": 0,
   "byteLength": 288,
   "byteOffset": 19032,
   "target": 34962
  },
  {
   "buffer": 0,
   "byteLength": 288,
   "byteOffset": 19320,
   "target": 34962
  },
  {
   "buffer": 0,
   "byteLength": 288,
   "byteOffset": 19608,
   "target": 34962
  },
  {
   "buffer": 0,
   "byteLength": 288,
   "byteOffset": 19896,
   "target": 34962
  },
  {
   "buffer": 0,
   "byteLength": 576,
   "byteOffset": 20184,
   "target": 34962
  },
  {
   "buffer": 0,
   "byteLength": 576,
   "byteOffset": 20760,
   "target": 34962
  },
  {
   "buffer": 0,
   "byteLength": 144,
   "byteOffset": 21336,
   "target": 34963
  },
  {
   "buffer": 0,
   "byteLength": 4800,
   "byteOffset": 21480,
   "target": 34962
  },
  {
   "buffer": 0,
   "byteLength": 4800,
   "byteOffset": 26280,
   "target": 34962
  },
  {
   "buffer": 0,
   "byteLength": 1440,
   "byteOffset": 31080,
   "target": 34963
  },
  {
   "buffer": 0,
   "byteLength": 288,
   "byteOffset": 32520,
   "target": 34962
  },
  {
   "buffer": 0,
   "byteLength": 288,
   "byteOffset": 32808,
   "target": 34962
  },
  {
   "buffer": 0,
   "byteLength": 2208,
   "byteOffset": 33096,
   "target": 34962
  },
  {
   "buffer": 0,
   "byteLength": 2208,
   "byteOffset": 35304,
   "target": 34962
  },
  {
   "buffer": 0,
   "byteLength": 576,
   "byteOffset": 37512,
   "target": 34963
  },
  {
   "buffer": 0,
   "byteLength": 288,
   "byteOffset": 38088,
   "target": 34962
  },
  {
   "buffer": 0,
   "byteLength": 288,
   "byteOffset": 38376,
   "target": 34962
  },
  {
   "buffer": 0,
   "byteLength": 288,
   "byteOffset": 38664,
   "target": 34962
  },
  {
   "buffer": 0,
   "byteLength": 288,
   "byteOffset": 38952,
   "target": 34962
  },
  {
   "buffer": 0,
   "byteLength": 576,
   "byteOffset": 39240,
   "target": 34962
  },
  {
   "buffer": 0,
   "byteLength": 576,
   "byteOffset": 39816,
   "target": 34962
  },
  {
   "buffer": 0,
   "byteLength": 288,
   "byteOffset": 40392,
   "target": 34962
  },
  {
   "buffer": 0,
   "byteLength": 288,
   "byteOffset": 40680,
   "target": 34962
  },
  {
   "buffer": 0,
   "byteLength": 576,
   "byteOffset": 40968,
   "target": 34962
  },
  {
   "buffer": 0,
   "byteLength": 576,
   "byteOffset": 41544,
   "target": 34962
  },
  {
   "buffer": 0,
   "byteLength": 288,
   "byteOffset": 42120,
   "target": 34962
  },
  {
   "buffer": 0,
   "byteLength": 288,
   "byteOffset": 42408,
   "target": 34962
  },
  {
   "buffer": 0,
   "byteLength": 288,
   "byteOffset": 42696,
   "target": 34962
  },
  {
   "buffer": 0,
   "byteLength": 288,
   "byteOffset": 42984,
   "target": 34962
  },
  {
   "buffer": 0,
   "byteLength": 864,
   "byteOffset": 43272,
   "target": 34962
  },
  {
   "buffer": 0,
   "byteLength": 864,
   "byteOffset": 44136,
   "target": 34962
  },
  {
   "buffer": 0,
   "byteLength": 216,
   "byteOffset": 45000,
   "target": 34963
  },
  {
   "buffer": 0,
   "byteLength": 288,
   "byteOffset": 45216,
   "target": 34962
  },
  {
   "buffer": 0,
   "byteLength": 288,
   "byteOffset": 45504,
   "target": 34962
  },
  {
   "buffer": 0,
   "byteLength": 1152,
   "byteOffset": 45792,
   "target": 34962
  },
  {
   "buffer": 0,
   "byteLength": 1152,
   "byteOffset": 46944,
   "target": 34962
  },
  {
   "buffer": 0,
   "byteLength": 288,
   "byteOffset": 48096,
   "target": 34963
  },
  {
   "buffer": 0,
   "byteLength": 288,
   "byteOffset": 48384,
   "target": 34962
  },
  {
   "buffer": 0,
   "byteLength": 288,
   "byteOffset": 48672,
   "target": 34962
  },
  {
   "buffer": 0,
   "byteLength": 864,
   "byteOffset": 48960,
   "target": 34962
  },
  {
   "buffer": 0,
   "byteLength": 864,
   "byteOffset": 49824,
   "target": 34962
  },
  {
   "buffer": 0,
   "byteLength": 288,
   "byteOffset": 50688,
   "target": 34962
  },
  {
   "buffer": 0,
   "byteLength": 288,
   "byteOffset": 50976,
   "target": 34962
  },
  {
   "buffer": 0,
   "byteLength": 288,
   "byteOffset": 51264,
   "target": 34962
  },
  {
   "buffer": 0,
   "byteLength": 288,
   "byteOffset": 51552,
   "target": 34962
  },
  {
   "buffer": 0,
   "byteLength": 1056,
   "byteOffset": 51840,
   "target": 34962
  },
  {
   "buffer": 0,
   "byteLength": 1056,
   "byteOffset": 52896,
   "target": 34962
  },
  {
   "buffer": 0,
   "byteLength": 360,
   "byteOffset": 53952,
   "target": 34963
  },
  {
   "buffer": 0,
   "byteLength": 576,
   "byteOffset": 54312,
   "target": 34962
  },
  {
   "buffer": 0,
   "byteLength": 576,
   "byteOffset": 54888,
   "target": 34962
  },
  {
   "buffer": 0,
   "byteLength": 288,
   "byteOffset": 55464,
   "target": 34962
  },
  {
   "buffer": 0,
   "byteLength": 288,
   "byteOffset": 55752,
   "target": 34962
  },
  {
   "buffer": 0,
   "byteLength": 576,
   "byteOffset": 56040,
   "target": 34962
  },
  {
   "buffer": 0,
   "byteLength": 576,
   "byteOffset": 56616,
   "target": 34962
  },
  {
   "buffer": 0,
   "byteLength": 288,
   "byteOffset": 57192,
   "target": 34962
  },
  {
   "buffer": 0,
   "byteLength": 288,
   "byteOffset": 57480,
   "target": 34962
  },
  {
   "buffer": 0,
   "byteLength": 288,
   "byteOffset": 57768,
   "target": 34962
  },
  {
   "buffer": 0,
   "byteLength": 288,
   "byteOffset": 58056,
   "target": 34962
  },
  {
   "buffer": 0,
   "byteLength": 288,
   "byteOffset": 58344,
   "target": 34962
  },
  {
   "buffer": 0,
   "byteLength": 288,
   "byteOffset": 58632,
   "target": 34962
  },
  {
   "buffer": 0,
   "byteLength": 72,
   "byteOffset": 58920,
   "target": 34963
  },
  {
   "buffer": 0,
   "byteLength": 288,
   "byteOffset": 58992,
   "target": 34962
  },
  {
   "buffer": 0,
   "byteLength": 288,
   "byteOffset": 59280,
   "target": 34962
  },
  {
   "buffer": 0,
   "byteLength": 4416,
   "byteOffset": 59568,
   "target": 34962
  },
  {
   "buffer": 0,
   "byteLength": 4416,
   "byteOffset": 63984,
   "target": 34962
  },
  {
   "buffer": 0,
   "byteLength": 1224,
   "byteOffset": 68400,
   "target": 34963
  },
  {
   "buffer": 0,
   "byteLength": 1344,
   "byteOffset": 69624,
   "target": 34962
  },
  {
   "buffer": 0,
   "byteLength": 1344,
   "byteOffset": 70968,
   "target": 34962
  },
  {
   "buffer": 0,
   "byteLength": 360,
   "byteOffset": 72312,
   "target": 34963
  },
  {
   "buffer": 0,
   "byteLength": 1536,
   "byteOffset": 72672,
   "target": 34962
  },
  {
   "buffer": 0,
   "byteLength": 1536,
   "byteOffset": 74208,
   "target": 34962
  },
  {
   "buffer": 0,
   "byteLength": 408,
   "byteOffset": 75744,
   "target": 34963
  },
  {
   "buffer": 0,
   "byteLength": 1464,
   "byteOffset": 76152,
   "target": 34962
  },
  {
   "buffer": 0,
   "byteLength": 1464,
   "byteOffset": 77616,
   "target": 34962
  },
  {
   "buffer": 0,
   "byteLength": 384,
   "byteOffset": 79080,
   "target": 34963
  },
  {
   "buffer": 0,
   "byteLength": 864,
   "byteOffset": 79464,
   "target": 34962
  },
  {
   "buffer": 0,
   "byteLength": 864,
   "byteOffset": 80328,
   "target": 34962
  },
  {
   "buffer": 0,
   "byteLength": 288,
   "byteOffset": 81192,
   "target": 34963
  },
  {
   "buffer": 0,
   "byteLength": 288,
   "byteOffset": 81480,
   "target": 34962
  },
  {
   "buffer": 0,
   "byteLength": 288,
   "byteOffset": 81768,
   "target": 34962
  },
  {
   "buffer": 0,
   "byteLength": 1152,
   "byteOffset": 82056,
   "target": 34962
  },
  {
   "buffer": 0,
   "byteLength": 1152,
   "byteOffset": 83208,
   "target": 34962
  },
  {
   "buffer": 0,
   "byteLength": 288,
   "byteOffset": 84360,
   "target": 34962
  },
  {
   "buffer": 0,
   "byteLength": 288,
   "byteOffset": 84648,
   "target": 34962
  },
  {
   "buffer": 0,
   "byteLength": 288,
   "byteOffset": 84936,
   "target": 34962
  },
  {
   "buffer": 0,
   "byteLength": 288,
   "byteOffset": 85224,
   "target": 34962
  },
  {
   "buffer": 0,
   "byteLength": 288,
   "byteOffset": 85512,
   "target": 34962
  },
  {
   "buffer": 0,
   "byteLength": 288,
   "byteOffset": 85800,
   "target": 34962
  },
  {
   "buffer": 0,
   "byteLength": 288,
   "byteOffset": 86088,
   "target": 34962
  },
  {
   "buffer": 0,
   "byteLength": 288,
   "byteOffset": 86376,
   "target": 34962
  },
  {
   "buffer": 0,
   "byteLength": 792,
   "byteOffset": 86664,
   "target": 34962
  },
  {
   "buffer": 0,
   "byteLength": 792,
   "byteOffset": 87456,
   "target": 34962
  },
  {
   "buffer": 0,
   "byteLength": 216,
   "byteOffset": 88248,
   "target": 34963
  },
  {
   "buffer": 0,
   "byteLength": 1056,
   "byteOffset": 88464,
   "target": 34962
  },
  {
   "buffer": 0,
   "byteLength": 1056,
   "byteOffset": 89520,
   "target": 34962
  },
  {
   "buffer": 0,
   "byteLength": 288,
   "byteOffset": 90576,
   "target": 34963
  },
  {
   "buffer": 0,
   "byteLength": 11760,
   "byteOffset": 90864,
   "target": 34962
  },
  {
   "buffer": 0,
   "byteLength": 11760,
   "byteOffset": 102624,
   "target": 34962
  },
  {
   "buffer": 0,
   "byteLength": 3720,
   "byteOffset": 114384,
   "target": 34963
  },
  {
   "buffer": 0,
   "byteLength": 288,
   "byteOffset": 118104,
   "target": 34962
  },
  {
   "buffer": 0,
   "byteLength": 288,
   "byteOffset": 118392,
   "target": 34962
  },
  {
   "buffer": 0,
   "byteLength": 288,
   "byteOffset": 118680,
   "target": 34962
  },
  {
   "buffer": 0,
   "byteLength": 288,
   "byteOffset": 118968,
   "target": 34962
  },
  {
   "buffer": 0,
   "byteLength": 288,
   "byteOffset": 119256,
   "target": 34962
  },
  {
   "buffer": 0,
   "byteLength": 288,
   "byteOffset": 119544,
   "target": 34962
  },
  {
   "buffer": 0,
   "byteLength": 288,
   "byteOffset": 119832,
   "target": 34962
  },
  {
   "buffer": 0,
   "byteLength": 288,
   "byteOffset": 120120,
   "target": 34962
  },
  {
   "buffer": 0,
   "byteLength": 288,
   "byteOffset": 120408,
   "target": 34962
  },
  {
   "buffer": 0,
   "byteLength": 288,
   "byteOffset": 120696,
   "target": 34962
  }
 ],
 "buffers": [
  {
   "byteLength": 120984,
   "uri": "BankSmall.bin"
  }
 ]
}
